<svg width="452" height="280" viewBox="0 0 452 280" fill="none" xmlns="http://www.w3.org/2000/svg">
<rect width="452" height="280" fill="white"/>
<rect y="54" width="452" height="23" fill="#5B65C2"/>
<rect x="431" y="16" width="7" height="7" fill="#C4C4C4"/>
<rect x="431" y="16" width="7" height="7" fill="#5B65C2"/>
<rect x="431" y="23" width="7" height="7" fill="#5B65C2"/>
<rect x="431" y="30" width="7" height="7" fill="#5B65C2"/>
<rect x="431" y="37" width="7" height="7" fill="#5B65C2"/>
<rect x="424" y="37" width="7" height="7" fill="#5B65C2"/>
<rect x="424" y="30" width="7" height="7" fill="#5B65C2"/>
<rect x="424" y="23" width="7" height="7" fill="#5B65C2"/>
<rect x="417" y="37" width="7" height="7" fill="#5B65C2"/>
<rect x="417" y="30" width="7" height="7" fill="#5B65C2"/>
<rect x="410" y="37" width="7" height="7" fill="#5B65C2"/>
<rect x="14" y="11" width="45" height="16" stroke="#5B65C2" stroke-width="2"/>
<rect x="60" y="15" width="3" height="9" fill="#5B65C2"/>
<rect x="15" y="12" width="29" height="14" fill="#5B65C2"/>
<rect x="106" y="37" width="20" height="10" fill="#5B65C2"/>
<rect x="111" y="32" width="15" height="10" fill="#5B65C2"/>
<rect x="162" y="32" width="15" height="10" fill="#5B65C2"/>
<rect x="161" y="37" width="20" height="10" fill="#5B65C2"/>
<rect x="116" y="27" width="55" height="10" fill="#5B65C2"/>
<path d="M298.112 26H300.112V28H298.112V26ZM295.712 23.6H297.712V25.6H295.712V23.6ZM293.312 23.6H295.312V25.6H293.312V23.6ZM290.912 23.6H292.912V25.6H290.912V23.6ZM288.512 26H290.512V28H288.512V26ZM298.112 28.4H300.112V30.4H298.112V28.4ZM298.112 33.2H300.112V35.2H298.112V33.2ZM298.112 35.6H300.112V37.6H298.112V35.6ZM295.712 30.8H297.712V32.8H295.712V30.8ZM295.712 38H297.712V40H295.712V38ZM293.312 30.8H295.312V32.8H293.312V30.8ZM293.312 38H295.312V40H293.312V38ZM290.912 38H292.912V40H290.912V38ZM288.512 35.6H290.512V37.6H288.512V35.6ZM312.506 26H314.506V28H312.506V26ZM310.106 23.6H312.106V25.6H310.106V23.6ZM307.706 23.6H309.706V25.6H307.706V23.6ZM305.306 23.6H307.306V25.6H305.306V23.6ZM302.906 26H304.906V28H302.906V26ZM312.506 33.2H314.506V35.2H312.506V33.2ZM312.506 35.6H314.506V37.6H312.506V35.6ZM310.106 33.2H312.106V35.2H310.106V33.2ZM310.106 38H312.106V40H310.106V38ZM307.706 38H309.706V40H307.706V38ZM305.306 38H307.306V40H305.306V38ZM302.906 28.4H304.906V30.4H302.906V28.4ZM302.906 30.8H304.906V32.8H302.906V30.8ZM302.906 33.2H304.906V35.2H302.906V33.2ZM302.906 35.6H304.906V37.6H302.906V35.6ZM341.295 26H343.295V28H341.295V26ZM338.895 23.6H340.895V25.6H338.895V23.6ZM336.495 23.6H338.495V25.6H336.495V23.6ZM334.095 23.6H336.095V25.6H334.095V23.6ZM331.695 26H333.695V28H331.695V26ZM341.295 35.6H343.295V37.6H341.295V35.6ZM338.895 38H340.895V40H338.895V38ZM336.495 38H338.495V40H336.495V38ZM334.095 38H336.095V40H334.095V38ZM331.695 28.4H333.695V30.4H331.695V28.4ZM331.695 30.8H333.695V32.8H331.695V30.8ZM331.695 33.2H333.695V35.2H331.695V33.2ZM331.695 35.6H333.695V37.6H331.695V35.6ZM346.09 23.6H348.09V25.6H346.09V23.6ZM346.09 26H348.09V28H346.09V26ZM346.09 28.4H348.09V30.4H346.09V28.4ZM346.09 30.8H348.09V32.8H346.09V30.8ZM346.09 33.2H348.09V35.2H346.09V33.2ZM346.09 35.6H348.09V37.6H346.09V35.6ZM346.09 38H348.09V40H346.09V38ZM358.095 30.8H360.095V32.8H358.095V30.8ZM358.095 33.2H360.095V35.2H358.095V33.2ZM358.095 35.6H360.095V37.6H358.095V35.6ZM358.095 38H360.095V40H358.095V38ZM355.695 28.4H357.695V30.4H355.695V28.4ZM355.695 33.2H357.695V35.2H355.695V33.2ZM355.695 38H357.695V40H355.695V38ZM353.295 28.4H355.295V30.4H353.295V28.4ZM353.295 33.2H355.295V35.2H353.295V33.2ZM353.295 38H355.295V40H353.295V38ZM350.895 28.4H352.895V30.4H350.895V28.4ZM350.895 33.2H352.895V35.2H350.895V33.2ZM350.895 35.6H352.895V37.6H350.895V35.6ZM350.895 38H352.895V40H350.895V38ZM367.687 28.4H369.687V30.4H367.687V28.4ZM365.287 28.4H367.287V30.4H365.287V28.4ZM362.887 30.8H364.887V32.8H362.887V30.8ZM362.887 33.2H364.887V35.2H362.887V33.2ZM362.887 35.6H364.887V37.6H362.887V35.6ZM362.887 38H364.887V40H362.887V38ZM379.696 30.8H381.696V32.8H379.696V30.8ZM379.696 33.2H381.696V35.2H379.696V33.2ZM379.696 35.6H381.696V37.6H379.696V35.6ZM377.296 28.4H379.296V30.4H377.296V28.4ZM377.296 38H379.296V40H377.296V38ZM374.896 28.4H376.896V30.4H374.896V28.4ZM374.896 38H376.896V40H374.896V38ZM372.496 30.8H374.496V32.8H372.496V30.8ZM372.496 33.2H374.496V35.2H372.496V33.2ZM372.496 35.6H374.496V37.6H372.496V35.6Z" fill="#5B65C2"/>
<path d="M22.6 59H24.6V61H22.6V59ZM20.2 56.6H22.2V58.6H20.2V56.6ZM17.8 56.6H19.8V58.6H17.8V56.6ZM15.4 56.6H17.4V58.6H15.4V56.6ZM13 59H15V61H13V59ZM22.6 61.4H24.6V63.4H22.6V61.4ZM22.6 71H24.6V73H22.6V71ZM20.2 63.8H22.2V65.8H20.2V63.8ZM20.2 71H22.2V73H20.2V71ZM17.8 66.2H19.8V68.2H17.8V66.2ZM17.8 71H19.8V73H17.8V71ZM15.4 68.6H17.4V70.6H15.4V68.6ZM15.4 71H17.4V73H15.4V71ZM13 71H15V73H13V71ZM34.5945 56.6H36.5945V58.6H34.5945V56.6ZM34.5945 59H36.5945V61H34.5945V59ZM32.1945 59H34.1945V61H32.1945V59ZM36.9945 66.2H38.9945V68.2H36.9945V66.2ZM34.5945 61.4H36.5945V63.4H34.5945V61.4ZM34.5945 63.8H36.5945V65.8H34.5945V63.8ZM34.5945 66.2H36.5945V68.2H34.5945V66.2ZM34.5945 68.6H36.5945V70.6H34.5945V68.6ZM34.5945 71H36.5945V73H34.5945V71ZM32.1945 66.2H34.1945V68.2H32.1945V66.2ZM29.7945 61.4H31.7945V63.4H29.7945V61.4ZM29.7945 66.2H31.7945V68.2H29.7945V66.2ZM27.3945 63.8H29.3945V65.8H27.3945V63.8ZM27.3945 66.2H29.3945V68.2H27.3945V66.2ZM51.3891 59H53.3891V61H51.3891V59ZM48.9891 61.4H50.9891V63.4H48.9891V61.4ZM46.5891 63.8H48.5891V65.8H46.5891V63.8ZM44.1891 66.2H46.1891V68.2H44.1891V66.2ZM41.7891 68.6H43.7891V70.6H41.7891V68.6ZM65.7836 59H67.7836V61H65.7836V59ZM63.3836 56.6H65.3836V58.6H63.3836V56.6ZM60.9836 56.6H62.9836V58.6H60.9836V56.6ZM58.5836 56.6H60.5836V58.6H58.5836V56.6ZM56.1836 59H58.1836V61H56.1836V59ZM65.7836 61.4H67.7836V63.4H65.7836V61.4ZM65.7836 63.8H67.7836V65.8H65.7836V63.8ZM65.7836 66.2H67.7836V68.2H65.7836V66.2ZM65.7836 68.6H67.7836V70.6H65.7836V68.6ZM63.3836 61.4H65.3836V63.4H63.3836V61.4ZM63.3836 71H65.3836V73H63.3836V71ZM60.9836 63.8H62.9836V65.8H60.9836V63.8ZM60.9836 71H62.9836V73H60.9836V71ZM58.5836 66.2H60.5836V68.2H58.5836V66.2ZM58.5836 71H60.5836V73H58.5836V71ZM56.1836 61.4H58.1836V63.4H56.1836V61.4ZM56.1836 63.8H58.1836V65.8H56.1836V63.8ZM56.1836 66.2H58.1836V68.2H56.1836V66.2ZM56.1836 68.6H58.1836V70.6H56.1836V68.6ZM80.1781 59H82.1781V61H80.1781V59ZM77.7781 56.6H79.7781V58.6H77.7781V56.6ZM75.3781 56.6H77.3781V58.6H75.3781V56.6ZM72.9781 56.6H74.9781V58.6H72.9781V56.6ZM70.5781 59H72.5781V61H70.5781V59ZM80.1781 61.4H82.1781V63.4H80.1781V61.4ZM80.1781 71H82.1781V73H80.1781V71ZM77.7781 63.8H79.7781V65.8H77.7781V63.8ZM77.7781 71H79.7781V73H77.7781V71ZM75.3781 66.2H77.3781V68.2H75.3781V66.2ZM75.3781 71H77.3781V73H75.3781V71ZM72.9781 68.6H74.9781V70.6H72.9781V68.6ZM72.9781 71H74.9781V73H72.9781V71ZM70.5781 71H72.5781V73H70.5781V71ZM94.5727 59H96.5727V61H94.5727V59ZM92.1727 61.4H94.1727V63.4H92.1727V61.4ZM89.7727 63.8H91.7727V65.8H89.7727V63.8ZM87.3727 66.2H89.3727V68.2H87.3727V66.2ZM84.9727 68.6H86.9727V70.6H84.9727V68.6ZM108.967 59H110.967V61H108.967V59ZM106.567 56.6H108.567V58.6H106.567V56.6ZM104.167 56.6H106.167V58.6H104.167V56.6ZM101.767 56.6H103.767V58.6H101.767V56.6ZM99.3672 59H101.367V61H99.3672V59ZM108.967 61.4H110.967V63.4H108.967V61.4ZM108.967 71H110.967V73H108.967V71ZM106.567 63.8H108.567V65.8H106.567V63.8ZM106.567 71H108.567V73H106.567V71ZM104.167 66.2H106.167V68.2H104.167V66.2ZM104.167 71H106.167V73H104.167V71ZM101.767 68.6H103.767V70.6H101.767V68.6ZM101.767 71H103.767V73H101.767V71ZM99.3672 71H101.367V73H99.3672V71ZM123.362 59H125.362V61H123.362V59ZM120.962 56.6H122.962V58.6H120.962V56.6ZM118.562 56.6H120.562V58.6H118.562V56.6ZM116.162 56.6H118.162V58.6H116.162V56.6ZM113.762 59H115.762V61H113.762V59ZM123.362 61.4H125.362V63.4H123.362V61.4ZM123.362 63.8H125.362V65.8H123.362V63.8ZM123.362 66.2H125.362V68.2H123.362V66.2ZM123.362 68.6H125.362V70.6H123.362V68.6ZM120.962 61.4H122.962V63.4H120.962V61.4ZM120.962 71H122.962V73H120.962V71ZM118.562 63.8H120.562V65.8H118.562V63.8ZM118.562 71H120.562V73H118.562V71ZM116.162 66.2H118.162V68.2H116.162V66.2ZM116.162 71H118.162V73H116.162V71ZM113.762 61.4H115.762V63.4H113.762V61.4ZM113.762 63.8H115.762V65.8H113.762V63.8ZM113.762 66.2H115.762V68.2H113.762V66.2ZM113.762 68.6H115.762V70.6H113.762V68.6ZM137.756 59H139.756V61H137.756V59ZM135.356 56.6H137.356V58.6H135.356V56.6ZM132.956 56.6H134.956V58.6H132.956V56.6ZM130.556 56.6H132.556V58.6H130.556V56.6ZM128.156 59H130.156V61H128.156V59ZM137.756 61.4H139.756V63.4H137.756V61.4ZM137.756 71H139.756V73H137.756V71ZM135.356 63.8H137.356V65.8H135.356V63.8ZM135.356 71H137.356V73H135.356V71ZM132.956 66.2H134.956V68.2H132.956V66.2ZM132.956 71H134.956V73H132.956V71ZM130.556 68.6H132.556V70.6H130.556V68.6ZM130.556 71H132.556V73H130.556V71ZM128.156 71H130.156V73H128.156V71ZM152.151 59H154.151V61H152.151V59ZM149.751 56.6H151.751V58.6H149.751V56.6ZM147.351 56.6H149.351V58.6H147.351V56.6ZM144.951 56.6H146.951V58.6H144.951V56.6ZM142.551 59H144.551V61H142.551V59ZM152.151 61.4H154.151V63.4H152.151V61.4ZM152.151 63.8H154.151V65.8H152.151V63.8ZM152.151 66.2H154.151V68.2H152.151V66.2ZM152.151 68.6H154.151V70.6H152.151V68.6ZM149.751 61.4H151.751V63.4H149.751V61.4ZM149.751 71H151.751V73H149.751V71ZM147.351 63.8H149.351V65.8H147.351V63.8ZM147.351 71H149.351V73H147.351V71ZM144.951 66.2H146.951V68.2H144.951V66.2ZM144.951 71H146.951V73H144.951V71ZM142.551 61.4H144.551V63.4H142.551V61.4ZM142.551 63.8H144.551V65.8H142.551V63.8ZM142.551 66.2H144.551V68.2H142.551V66.2ZM142.551 68.6H144.551V70.6H142.551V68.6Z" fill="white"/>
<path d="M143.237 89.4H146.237V92.4H143.237V89.4ZM139.637 89.4H142.637V92.4H139.637V89.4ZM136.037 89.4H139.037V92.4H136.037V89.4ZM136.037 93H139.037V96H136.037V93ZM132.437 89.4H135.437V92.4H132.437V89.4ZM128.837 89.4H131.837V92.4H128.837V89.4ZM136.037 96.6H139.037V99.6H136.037V96.6ZM136.037 100.2H139.037V103.2H136.037V100.2ZM136.037 103.8H139.037V106.8H136.037V103.8ZM136.037 107.4H139.037V110.4H136.037V107.4ZM136.037 111H139.037V114H136.037V111ZM164.829 93H167.829V96H164.829V93ZM161.229 89.4H164.229V92.4H161.229V89.4ZM157.629 89.4H160.629V92.4H157.629V89.4ZM154.029 89.4H157.029V92.4H154.029V89.4ZM150.429 89.4H153.429V92.4H150.429V89.4ZM150.429 93H153.429V96H150.429V93ZM164.829 96.6H167.829V99.6H164.829V96.6ZM164.829 111H167.829V114H164.829V111ZM161.229 100.2H164.229V103.2H161.229V100.2ZM161.229 107.4H164.229V110.4H161.229V107.4ZM157.629 100.2H160.629V103.2H157.629V100.2ZM157.629 103.8H160.629V106.8H157.629V103.8ZM154.029 100.2H157.029V103.2H154.029V100.2ZM150.429 96.6H153.429V99.6H150.429V96.6ZM150.429 100.2H153.429V103.2H150.429V100.2ZM150.429 103.8H153.429V106.8H150.429V103.8ZM150.429 107.4H153.429V110.4H150.429V107.4ZM150.429 111H153.429V114H150.429V111ZM186.421 93H189.421V96H186.421V93ZM182.821 89.4H185.821V92.4H182.821V89.4ZM179.221 89.4H182.221V92.4H179.221V89.4ZM175.621 89.4H178.621V92.4H175.621V89.4ZM172.021 93H175.021V96H172.021V93ZM186.421 96.6H189.421V99.6H186.421V96.6ZM186.421 100.2H189.421V103.2H186.421V100.2ZM186.421 103.8H189.421V106.8H186.421V103.8ZM186.421 107.4H189.421V110.4H186.421V107.4ZM186.421 111H189.421V114H186.421V111ZM182.821 100.2H185.821V103.2H182.821V100.2ZM179.221 100.2H182.221V103.2H179.221V100.2ZM175.621 100.2H178.621V103.2H175.621V100.2ZM172.021 96.6H175.021V99.6H172.021V96.6ZM172.021 100.2H175.021V103.2H172.021V100.2ZM172.021 103.8H175.021V106.8H172.021V103.8ZM172.021 107.4H175.021V110.4H172.021V107.4ZM172.021 111H175.021V114H172.021V111ZM208.012 89.4H211.012V92.4H208.012V89.4ZM208.012 93H211.012V96H208.012V93ZM193.612 89.4H196.612V92.4H193.612V89.4ZM193.612 93H196.612V96H193.612V93ZM208.012 96.6H211.012V99.6H208.012V96.6ZM208.012 100.2H211.012V103.2H208.012V100.2ZM208.012 103.8H211.012V106.8H208.012V103.8ZM208.012 107.4H211.012V110.4H208.012V107.4ZM208.012 111H211.012V114H208.012V111ZM204.412 103.8H207.412V106.8H204.412V103.8ZM200.812 100.2H203.812V103.2H200.812V100.2ZM197.212 96.6H200.212V99.6H197.212V96.6ZM193.612 96.6H196.612V99.6H193.612V96.6ZM193.612 100.2H196.612V103.2H193.612V100.2ZM193.612 103.8H196.612V106.8H193.612V103.8ZM193.612 107.4H196.612V110.4H193.612V107.4ZM193.612 111H196.612V114H193.612V111ZM229.604 93H232.604V96H229.604V93ZM226.004 89.4H229.004V92.4H226.004V89.4ZM222.404 89.4H225.404V92.4H222.404V89.4ZM218.804 89.4H221.804V92.4H218.804V89.4ZM215.204 93H218.204V96H215.204V93ZM229.604 103.8H232.604V106.8H229.604V103.8ZM229.604 107.4H232.604V110.4H229.604V107.4ZM226.004 100.2H229.004V103.2H226.004V100.2ZM226.004 111H229.004V114H226.004V111ZM222.404 100.2H225.404V103.2H222.404V100.2ZM222.404 111H225.404V114H222.404V111ZM218.804 100.2H221.804V103.2H218.804V100.2ZM218.804 111H221.804V114H218.804V111ZM215.204 96.6H218.204V99.6H215.204V96.6ZM215.204 107.4H218.204V110.4H215.204V107.4ZM251.196 93H254.196V96H251.196V93ZM247.596 89.4H250.596V92.4H247.596V89.4ZM243.996 89.4H246.996V92.4H243.996V89.4ZM240.396 89.4H243.396V92.4H240.396V89.4ZM236.796 89.4H239.796V92.4H236.796V89.4ZM236.796 93H239.796V96H236.796V93ZM251.196 96.6H254.196V99.6H251.196V96.6ZM251.196 103.8H254.196V106.8H251.196V103.8ZM251.196 107.4H254.196V110.4H251.196V107.4ZM247.596 100.2H250.596V103.2H247.596V100.2ZM247.596 111H250.596V114H247.596V111ZM243.996 100.2H246.996V103.2H243.996V100.2ZM243.996 111H246.996V114H243.996V111ZM240.396 100.2H243.396V103.2H240.396V100.2ZM240.396 111H243.396V114H240.396V111ZM236.796 96.6H239.796V99.6H236.796V96.6ZM236.796 100.2H239.796V103.2H236.796V100.2ZM236.796 103.8H239.796V106.8H236.796V103.8ZM236.796 107.4H239.796V110.4H236.796V107.4ZM236.796 111H239.796V114H236.796V111ZM272.788 93H275.788V96H272.788V93ZM269.188 89.4H272.188V92.4H269.188V89.4ZM265.588 89.4H268.588V92.4H265.588V89.4ZM261.988 89.4H264.988V92.4H261.988V89.4ZM258.388 93H261.388V96H258.388V93ZM272.788 96.6H275.788V99.6H272.788V96.6ZM272.788 100.2H275.788V103.2H272.788V100.2ZM272.788 103.8H275.788V106.8H272.788V103.8ZM272.788 107.4H275.788V110.4H272.788V107.4ZM272.788 111H275.788V114H272.788V111ZM269.188 100.2H272.188V103.2H269.188V100.2ZM265.588 100.2H268.588V103.2H265.588V100.2ZM261.988 100.2H264.988V103.2H261.988V100.2ZM258.388 96.6H261.388V99.6H258.388V96.6ZM258.388 100.2H261.388V103.2H258.388V100.2ZM258.388 103.8H261.388V106.8H258.388V103.8ZM258.388 107.4H261.388V110.4H258.388V107.4ZM258.388 111H261.388V114H258.388V111ZM294.379 89.4H297.379V92.4H294.379V89.4ZM294.379 93H297.379V96H294.379V93ZM279.979 89.4H282.979V92.4H279.979V89.4ZM279.979 93H282.979V96H279.979V93ZM294.379 96.6H297.379V99.6H294.379V96.6ZM294.379 100.2H297.379V103.2H294.379V100.2ZM294.379 103.8H297.379V106.8H294.379V103.8ZM294.379 107.4H297.379V110.4H294.379V107.4ZM294.379 111H297.379V114H294.379V111ZM290.779 103.8H293.779V106.8H290.779V103.8ZM287.179 100.2H290.179V103.2H287.179V100.2ZM283.579 96.6H286.579V99.6H283.579V96.6ZM279.979 96.6H282.979V99.6H279.979V96.6ZM279.979 100.2H282.979V103.2H279.979V100.2ZM279.979 103.8H282.979V106.8H279.979V103.8ZM279.979 107.4H282.979V110.4H279.979V107.4ZM279.979 111H282.979V114H279.979V111ZM315.971 89.4H318.971V92.4H315.971V89.4ZM312.371 93H315.371V96H312.371V93ZM301.571 89.4H304.571V92.4H301.571V89.4ZM301.571 93H304.571V96H301.571V93ZM315.971 111H318.971V114H315.971V111ZM312.371 107.4H315.371V110.4H312.371V107.4ZM308.771 96.6H311.771V99.6H308.771V96.6ZM308.771 103.8H311.771V106.8H308.771V103.8ZM305.171 100.2H308.171V103.2H305.171V100.2ZM301.571 96.6H304.571V99.6H301.571V96.6ZM301.571 100.2H304.571V103.2H301.571V100.2ZM301.571 103.8H304.571V106.8H301.571V103.8ZM301.571 107.4H304.571V110.4H301.571V107.4ZM301.571 111H304.571V114H301.571V111Z" fill="#5B65C2"/>
<path d="M20.2 137.4H23.2V140.4H20.2V137.4ZM20.2 141H23.2V144H20.2V141ZM16.6 141H19.6V144H16.6V141ZM27.4 159H30.4V162H27.4V159ZM23.8 159H26.8V162H23.8V159ZM20.2 144.6H23.2V147.6H20.2V144.6ZM20.2 148.2H23.2V151.2H20.2V148.2ZM20.2 151.8H23.2V154.8H20.2V151.8ZM20.2 155.4H23.2V158.4H20.2V155.4ZM20.2 159H23.2V162H20.2V159ZM16.6 159H19.6V162H16.6V159ZM13 144.6H16V147.6H13V144.6ZM13 159H16V162H13V159ZM38.1918 155.4H41.1918V158.4H38.1918V155.4ZM38.1918 159H41.1918V162H38.1918V159ZM34.5918 155.4H37.5918V158.4H34.5918V155.4ZM34.5918 159H37.5918V162H34.5918V159ZM59.8023 137.4H62.8023V140.4H59.8023V137.4ZM59.8023 141H62.8023V144H59.8023V141ZM45.4023 137.4H48.4023V140.4H45.4023V137.4ZM45.4023 141H48.4023V144H45.4023V141ZM59.8023 144.6H62.8023V147.6H59.8023V144.6ZM59.8023 148.2H62.8023V151.2H59.8023V148.2ZM59.8023 151.8H62.8023V154.8H59.8023V151.8ZM56.2023 155.4H59.2023V158.4H56.2023V155.4ZM52.6023 159H55.6023V162H52.6023V159ZM49.0023 155.4H52.0023V158.4H49.0023V155.4ZM45.4023 144.6H48.4023V147.6H45.4023V144.6ZM45.4023 148.2H48.4023V151.2H45.4023V148.2ZM45.4023 151.8H48.4023V154.8H45.4023V151.8ZM74.1941 137.4H77.1941V140.4H74.1941V137.4ZM70.5941 137.4H73.5941V140.4H70.5941V137.4ZM70.5941 141H73.5941V144H70.5941V141ZM66.9941 137.4H69.9941V140.4H66.9941V137.4ZM74.1941 159H77.1941V162H74.1941V159ZM70.5941 144.6H73.5941V147.6H70.5941V144.6ZM70.5941 148.2H73.5941V151.2H70.5941V148.2ZM70.5941 151.8H73.5941V154.8H70.5941V151.8ZM70.5941 155.4H73.5941V158.4H70.5941V155.4ZM70.5941 159H73.5941V162H70.5941V159ZM66.9941 159H69.9941V162H66.9941V159ZM95.8082 141H98.8082V144H95.8082V141ZM92.2082 137.4H95.2082V140.4H92.2082V137.4ZM88.6082 137.4H91.6082V140.4H88.6082V137.4ZM85.0082 137.4H88.0082V140.4H85.0082V137.4ZM81.4082 141H84.4082V144H81.4082V141ZM95.8082 151.8H98.8082V154.8H95.8082V151.8ZM95.8082 155.4H98.8082V158.4H95.8082V155.4ZM92.2082 148.2H95.2082V151.2H92.2082V148.2ZM92.2082 159H95.2082V162H92.2082V159ZM88.6082 148.2H91.6082V151.2H88.6082V148.2ZM88.6082 159H91.6082V162H88.6082V159ZM85.0082 148.2H88.0082V151.2H85.0082V148.2ZM85.0082 159H88.0082V162H85.0082V159ZM81.4082 144.6H84.4082V147.6H81.4082V144.6ZM81.4082 155.4H84.4082V158.4H81.4082V155.4ZM117.4 141H120.4V144H117.4V141ZM113.8 137.4H116.8V140.4H113.8V137.4ZM110.2 137.4H113.2V140.4H110.2V137.4ZM106.6 137.4H109.6V140.4H106.6V137.4ZM103 141H106V144H103V141ZM117.4 144.6H120.4V147.6H117.4V144.6ZM117.4 148.2H120.4V151.2H117.4V148.2ZM117.4 151.8H120.4V154.8H117.4V151.8ZM117.4 155.4H120.4V158.4H117.4V155.4ZM117.4 159H120.4V162H117.4V159ZM113.8 148.2H116.8V151.2H113.8V148.2ZM110.2 148.2H113.2V151.2H110.2V148.2ZM106.6 148.2H109.6V151.2H106.6V148.2ZM103 144.6H106V147.6H103V144.6ZM103 148.2H106V151.2H103V148.2ZM103 151.8H106V154.8H103V151.8ZM103 155.4H106V158.4H103V155.4ZM103 159H106V162H103V159ZM138.992 148.2H141.992V151.2H138.992V148.2ZM135.392 148.2H138.392V151.2H135.392V148.2ZM131.792 148.2H134.792V151.2H131.792V148.2ZM128.192 148.2H131.192V151.2H128.192V148.2ZM124.592 148.2H127.592V151.2H124.592V148.2ZM160.584 137.4H163.584V140.4H160.584V137.4ZM160.584 141H163.584V144H160.584V141ZM156.984 141H159.984V144H156.984V141ZM149.784 141H152.784V144H149.784V141ZM146.184 137.4H149.184V140.4H146.184V137.4ZM146.184 141H149.184V144H146.184V141ZM160.584 144.6H163.584V147.6H160.584V144.6ZM160.584 148.2H163.584V151.2H160.584V148.2ZM160.584 151.8H163.584V154.8H160.584V151.8ZM160.584 155.4H163.584V158.4H160.584V155.4ZM160.584 159H163.584V162H160.584V159ZM153.384 144.6H156.384V147.6H153.384V144.6ZM153.384 148.2H156.384V151.2H153.384V148.2ZM146.184 144.6H149.184V147.6H146.184V144.6ZM146.184 148.2H149.184V151.2H146.184V148.2ZM146.184 151.8H149.184V154.8H146.184V151.8ZM146.184 155.4H149.184V158.4H146.184V155.4ZM146.184 159H149.184V162H146.184V159ZM182.175 141H185.175V144H182.175V141ZM178.575 137.4H181.575V140.4H178.575V137.4ZM174.975 137.4H177.975V140.4H174.975V137.4ZM171.375 137.4H174.375V140.4H171.375V137.4ZM167.775 141H170.775V144H167.775V141ZM182.175 155.4H185.175V158.4H182.175V155.4ZM178.575 159H181.575V162H178.575V159ZM174.975 159H177.975V162H174.975V159ZM171.375 159H174.375V162H171.375V159ZM167.775 144.6H170.775V147.6H167.775V144.6ZM167.775 148.2H170.775V151.2H167.775V148.2ZM167.775 151.8H170.775V154.8H167.775V151.8ZM167.775 155.4H170.775V158.4H167.775V155.4ZM203.767 148.2H206.767V151.2H203.767V148.2ZM200.167 148.2H203.167V151.2H200.167V148.2ZM196.567 148.2H199.567V151.2H196.567V148.2ZM192.967 148.2H195.967V151.2H192.967V148.2ZM189.367 148.2H192.367V151.2H189.367V148.2ZM225.359 141H228.359V144H225.359V141ZM221.759 137.4H224.759V140.4H221.759V137.4ZM218.159 137.4H221.159V140.4H218.159V137.4ZM214.559 137.4H217.559V140.4H214.559V137.4ZM210.959 141H213.959V144H210.959V141ZM225.359 144.6H228.359V147.6H225.359V144.6ZM225.359 148.2H228.359V151.2H225.359V148.2ZM225.359 151.8H228.359V154.8H225.359V151.8ZM225.359 155.4H228.359V158.4H225.359V155.4ZM225.359 159H228.359V162H225.359V159ZM221.759 148.2H224.759V151.2H221.759V148.2ZM218.159 148.2H221.159V151.2H218.159V148.2ZM214.559 148.2H217.559V151.2H214.559V148.2ZM210.959 144.6H213.959V147.6H210.959V144.6ZM210.959 148.2H213.959V151.2H210.959V148.2ZM210.959 151.8H213.959V154.8H210.959V151.8ZM210.959 155.4H213.959V158.4H210.959V155.4ZM210.959 159H213.959V162H210.959V159ZM246.951 137.4H249.951V140.4H246.951V137.4ZM246.951 141H249.951V144H246.951V141ZM243.351 141H246.351V144H243.351V141ZM236.151 141H239.151V144H236.151V141ZM232.551 137.4H235.551V140.4H232.551V137.4ZM232.551 141H235.551V144H232.551V141ZM246.951 144.6H249.951V147.6H246.951V144.6ZM246.951 148.2H249.951V151.2H246.951V148.2ZM246.951 151.8H249.951V154.8H246.951V151.8ZM246.951 155.4H249.951V158.4H246.951V155.4ZM246.951 159H249.951V162H246.951V159ZM239.751 144.6H242.751V147.6H239.751V144.6ZM239.751 148.2H242.751V151.2H239.751V148.2ZM232.551 144.6H235.551V147.6H232.551V144.6ZM232.551 148.2H235.551V151.2H232.551V148.2ZM232.551 151.8H235.551V154.8H232.551V151.8ZM232.551 155.4H235.551V158.4H232.551V155.4ZM232.551 159H235.551V162H232.551V159ZM268.543 137.4H271.543V140.4H268.543V137.4ZM264.943 137.4H267.943V140.4H264.943V137.4ZM261.343 137.4H264.343V140.4H261.343V137.4ZM257.743 137.4H260.743V140.4H257.743V137.4ZM254.143 137.4H257.143V140.4H254.143V137.4ZM254.143 141H257.143V144H254.143V141ZM268.543 159H271.543V162H268.543V159ZM264.943 148.2H267.943V151.2H264.943V148.2ZM264.943 159H267.943V162H264.943V159ZM261.343 148.2H264.343V151.2H261.343V148.2ZM261.343 159H264.343V162H261.343V159ZM257.743 148.2H260.743V151.2H257.743V148.2ZM257.743 159H260.743V162H257.743V159ZM254.143 144.6H257.143V147.6H254.143V144.6ZM254.143 148.2H257.143V151.2H254.143V148.2ZM254.143 151.8H257.143V154.8H254.143V151.8ZM254.143 155.4H257.143V158.4H254.143V155.4ZM254.143 159H257.143V162H254.143V159ZM290.134 137.4H293.134V140.4H290.134V137.4ZM290.134 141H293.134V144H290.134V141ZM275.734 137.4H278.734V140.4H275.734V137.4ZM275.734 141H278.734V144H275.734V141ZM290.134 155.4H293.134V158.4H290.134V155.4ZM290.134 159H293.134V162H290.134V159ZM286.534 144.6H289.534V147.6H286.534V144.6ZM286.534 151.8H289.534V154.8H286.534V151.8ZM282.934 148.2H285.934V151.2H282.934V148.2ZM279.334 144.6H282.334V147.6H279.334V144.6ZM279.334 151.8H282.334V154.8H279.334V151.8ZM275.734 155.4H278.734V158.4H275.734V155.4ZM275.734 159H278.734V162H275.734V159ZM311.726 148.2H314.726V151.2H311.726V148.2ZM308.126 148.2H311.126V151.2H308.126V148.2ZM304.526 148.2H307.526V151.2H304.526V148.2ZM300.926 148.2H303.926V151.2H300.926V148.2ZM297.326 148.2H300.326V151.2H297.326V148.2ZM333.318 141H336.318V144H333.318V141ZM329.718 137.4H332.718V140.4H329.718V137.4ZM326.118 137.4H329.118V140.4H326.118V137.4ZM322.518 137.4H325.518V140.4H322.518V137.4ZM318.918 137.4H321.918V140.4H318.918V137.4ZM318.918 141H321.918V144H318.918V141ZM333.318 144.6H336.318V147.6H333.318V144.6ZM333.318 148.2H336.318V151.2H333.318V148.2ZM333.318 151.8H336.318V154.8H333.318V151.8ZM333.318 155.4H336.318V158.4H333.318V155.4ZM329.718 159H332.718V162H329.718V159ZM326.118 159H329.118V162H326.118V159ZM322.518 159H325.518V162H322.518V159ZM318.918 144.6H321.918V147.6H318.918V144.6ZM318.918 148.2H321.918V151.2H318.918V148.2ZM318.918 151.8H321.918V154.8H318.918V151.8ZM318.918 155.4H321.918V158.4H318.918V155.4ZM318.918 159H321.918V162H318.918V159ZM347.71 137.4H350.71V140.4H347.71V137.4ZM344.11 137.4H347.11V140.4H344.11V137.4ZM344.11 141H347.11V144H344.11V141ZM340.51 137.4H343.51V140.4H340.51V137.4ZM347.71 159H350.71V162H347.71V159ZM344.11 144.6H347.11V147.6H344.11V144.6ZM344.11 148.2H347.11V151.2H344.11V148.2ZM344.11 151.8H347.11V154.8H344.11V151.8ZM344.11 155.4H347.11V158.4H344.11V155.4ZM344.11 159H347.11V162H344.11V159ZM340.51 159H343.51V162H340.51V159ZM369.324 137.4H372.324V140.4H369.324V137.4ZM369.324 141H372.324V144H369.324V141ZM354.924 137.4H357.924V140.4H354.924V137.4ZM354.924 141H357.924V144H354.924V141ZM369.324 144.6H372.324V147.6H369.324V144.6ZM369.324 148.2H372.324V151.2H369.324V148.2ZM369.324 151.8H372.324V154.8H369.324V151.8ZM369.324 155.4H372.324V158.4H369.324V155.4ZM369.324 159H372.324V162H369.324V159ZM365.724 151.8H368.724V154.8H365.724V151.8ZM362.124 148.2H365.124V151.2H362.124V148.2ZM358.524 144.6H361.524V147.6H358.524V144.6ZM354.924 144.6H357.924V147.6H354.924V144.6ZM354.924 148.2H357.924V151.2H354.924V148.2ZM354.924 151.8H357.924V154.8H354.924V151.8ZM354.924 155.4H357.924V158.4H354.924V155.4ZM354.924 159H357.924V162H354.924V159ZM390.916 137.4H393.916V140.4H390.916V137.4ZM387.316 137.4H390.316V140.4H387.316V137.4ZM383.716 137.4H386.716V140.4H383.716V137.4ZM380.116 137.4H383.116V140.4H380.116V137.4ZM376.516 137.4H379.516V140.4H376.516V137.4ZM376.516 141H379.516V144H376.516V141ZM390.916 159H393.916V162H390.916V159ZM387.316 148.2H390.316V151.2H387.316V148.2ZM387.316 159H390.316V162H387.316V159ZM383.716 148.2H386.716V151.2H383.716V148.2ZM383.716 159H386.716V162H383.716V159ZM380.116 148.2H383.116V151.2H380.116V148.2ZM380.116 159H383.116V162H380.116V159ZM376.516 144.6H379.516V147.6H376.516V144.6ZM376.516 148.2H379.516V151.2H376.516V148.2ZM376.516 151.8H379.516V154.8H376.516V151.8ZM376.516 155.4H379.516V158.4H376.516V155.4ZM376.516 159H379.516V162H376.516V159ZM412.507 141H415.507V144H412.507V141ZM408.907 137.4H411.907V140.4H408.907V137.4ZM405.307 137.4H408.307V140.4H405.307V137.4ZM401.707 137.4H404.707V140.4H401.707V137.4ZM398.107 137.4H401.107V140.4H398.107V137.4ZM398.107 141H401.107V144H398.107V141ZM412.507 144.6H415.507V147.6H412.507V144.6ZM412.507 159H415.507V162H412.507V159ZM408.907 148.2H411.907V151.2H408.907V148.2ZM408.907 155.4H411.907V158.4H408.907V155.4ZM405.307 148.2H408.307V151.2H405.307V148.2ZM405.307 151.8H408.307V154.8H405.307V151.8ZM401.707 148.2H404.707V151.2H401.707V148.2ZM398.107 144.6H401.107V147.6H398.107V144.6ZM398.107 148.2H401.107V151.2H398.107V148.2ZM398.107 151.8H401.107V154.8H398.107V151.8ZM398.107 155.4H401.107V158.4H398.107V155.4ZM398.107 159H401.107V162H398.107V159ZM434.099 141H437.099V144H434.099V141ZM430.499 137.4H433.499V140.4H430.499V137.4ZM426.899 137.4H429.899V140.4H426.899V137.4ZM423.299 137.4H426.299V140.4H423.299V137.4ZM419.699 141H422.699V144H419.699V141ZM434.099 151.8H437.099V154.8H434.099V151.8ZM434.099 155.4H437.099V158.4H434.099V155.4ZM430.499 148.2H433.499V151.2H430.499V148.2ZM430.499 159H433.499V162H430.499V159ZM426.899 148.2H429.899V151.2H426.899V148.2ZM426.899 159H429.899V162H426.899V159ZM423.299 148.2H426.299V151.2H423.299V148.2ZM423.299 159H426.299V162H423.299V159ZM419.699 144.6H422.699V147.6H419.699V144.6ZM419.699 155.4H422.699V158.4H419.699V155.4ZM27.4 174H30.4V177H27.4V174ZM23.8 170.4H26.8V173.4H23.8V170.4ZM20.2 170.4H23.2V173.4H20.2V170.4ZM16.6 170.4H19.6V173.4H16.6V170.4ZM13 174H16V177H13V174ZM27.4 177.6H30.4V180.6H27.4V177.6ZM27.4 192H30.4V195H27.4V192ZM23.8 181.2H26.8V184.2H23.8V181.2ZM23.8 192H26.8V195H23.8V192ZM20.2 184.8H23.2V187.8H20.2V184.8ZM20.2 192H23.2V195H20.2V192ZM16.6 188.4H19.6V191.4H16.6V188.4ZM16.6 192H19.6V195H16.6V192ZM13 192H16V195H13V192ZM38.1918 188.4H41.1918V191.4H38.1918V188.4ZM38.1918 192H41.1918V195H38.1918V192ZM34.5918 188.4H37.5918V191.4H34.5918V188.4ZM34.5918 192H37.5918V195H34.5918V192ZM59.8023 174H62.8023V177H59.8023V174ZM56.2023 170.4H59.2023V173.4H56.2023V170.4ZM52.6023 170.4H55.6023V173.4H52.6023V170.4ZM49.0023 170.4H52.0023V173.4H49.0023V170.4ZM45.4023 170.4H48.4023V173.4H45.4023V170.4ZM45.4023 174H48.4023V177H45.4023V174ZM59.8023 177.6H62.8023V180.6H59.8023V177.6ZM59.8023 192H62.8023V195H59.8023V192ZM56.2023 181.2H59.2023V184.2H56.2023V181.2ZM56.2023 188.4H59.2023V191.4H56.2023V188.4ZM52.6023 181.2H55.6023V184.2H52.6023V181.2ZM52.6023 184.8H55.6023V187.8H52.6023V184.8ZM49.0023 181.2H52.0023V184.2H49.0023V181.2ZM45.4023 177.6H48.4023V180.6H45.4023V177.6ZM45.4023 181.2H48.4023V184.2H45.4023V181.2ZM45.4023 184.8H48.4023V187.8H45.4023V184.8ZM45.4023 188.4H48.4023V191.4H45.4023V188.4ZM45.4023 192H48.4023V195H45.4023V192ZM81.3941 170.4H84.3941V173.4H81.3941V170.4ZM77.7941 170.4H80.7941V173.4H77.7941V170.4ZM74.1941 170.4H77.1941V173.4H74.1941V170.4ZM70.5941 170.4H73.5941V173.4H70.5941V170.4ZM66.9941 170.4H69.9941V173.4H66.9941V170.4ZM66.9941 174H69.9941V177H66.9941V174ZM81.3941 192H84.3941V195H81.3941V192ZM77.7941 181.2H80.7941V184.2H77.7941V181.2ZM77.7941 192H80.7941V195H77.7941V192ZM74.1941 181.2H77.1941V184.2H74.1941V181.2ZM74.1941 192H77.1941V195H74.1941V192ZM70.5941 181.2H73.5941V184.2H70.5941V181.2ZM70.5941 192H73.5941V195H70.5941V192ZM66.9941 177.6H69.9941V180.6H66.9941V177.6ZM66.9941 181.2H69.9941V184.2H66.9941V181.2ZM66.9941 184.8H69.9941V187.8H66.9941V184.8ZM66.9941 188.4H69.9941V191.4H66.9941V188.4ZM66.9941 192H69.9941V195H66.9941V192ZM102.986 174H105.986V177H102.986V174ZM99.3859 170.4H102.386V173.4H99.3859V170.4ZM95.7859 170.4H98.7859V173.4H95.7859V170.4ZM92.1859 170.4H95.1859V173.4H92.1859V170.4ZM88.5859 170.4H91.5859V173.4H88.5859V170.4ZM88.5859 174H91.5859V177H88.5859V174ZM102.986 177.6H105.986V180.6H102.986V177.6ZM102.986 181.2H105.986V184.2H102.986V181.2ZM102.986 184.8H105.986V187.8H102.986V184.8ZM102.986 188.4H105.986V191.4H102.986V188.4ZM99.3859 192H102.386V195H99.3859V192ZM95.7859 192H98.7859V195H95.7859V192ZM92.1859 192H95.1859V195H92.1859V192ZM88.5859 177.6H91.5859V180.6H88.5859V177.6ZM88.5859 181.2H91.5859V184.2H88.5859V181.2ZM88.5859 184.8H91.5859V187.8H88.5859V184.8ZM88.5859 188.4H91.5859V191.4H88.5859V188.4ZM88.5859 192H91.5859V195H88.5859V192ZM124.578 174H127.578V177H124.578V174ZM120.978 170.4H123.978V173.4H120.978V170.4ZM117.378 170.4H120.378V173.4H117.378V170.4ZM113.778 170.4H116.778V173.4H113.778V170.4ZM110.178 174H113.178V177H110.178V174ZM124.578 188.4H127.578V191.4H124.578V188.4ZM120.978 192H123.978V195H120.978V192ZM117.378 192H120.378V195H117.378V192ZM113.778 192H116.778V195H113.778V192ZM110.178 177.6H113.178V180.6H110.178V177.6ZM110.178 181.2H113.178V184.2H110.178V181.2ZM110.178 184.8H113.178V187.8H110.178V184.8ZM110.178 188.4H113.178V191.4H110.178V188.4ZM146.17 174H149.17V177H146.17V174ZM142.57 170.4H145.57V173.4H142.57V170.4ZM138.97 170.4H141.97V173.4H138.97V170.4ZM135.37 170.4H138.37V173.4H135.37V170.4ZM131.77 174H134.77V177H131.77V174ZM146.17 177.6H149.17V180.6H146.17V177.6ZM146.17 181.2H149.17V184.2H146.17V181.2ZM146.17 184.8H149.17V187.8H146.17V184.8ZM146.17 188.4H149.17V191.4H146.17V188.4ZM142.57 192H145.57V195H142.57V192ZM138.97 192H141.97V195H138.97V192ZM135.37 192H138.37V195H135.37V192ZM131.77 177.6H134.77V180.6H131.77V177.6ZM131.77 181.2H134.77V184.2H131.77V181.2ZM131.77 184.8H134.77V187.8H131.77V184.8ZM131.77 188.4H134.77V191.4H131.77V188.4ZM167.761 170.4H170.761V173.4H167.761V170.4ZM167.761 174H170.761V177H167.761V174ZM164.161 174H167.161V177H164.161V174ZM156.961 174H159.961V177H156.961V174ZM153.361 170.4H156.361V173.4H153.361V170.4ZM153.361 174H156.361V177H153.361V174ZM167.761 177.6H170.761V180.6H167.761V177.6ZM167.761 181.2H170.761V184.2H167.761V181.2ZM167.761 184.8H170.761V187.8H167.761V184.8ZM167.761 188.4H170.761V191.4H167.761V188.4ZM167.761 192H170.761V195H167.761V192ZM160.561 177.6H163.561V180.6H160.561V177.6ZM160.561 181.2H163.561V184.2H160.561V181.2ZM153.361 177.6H156.361V180.6H153.361V177.6ZM153.361 181.2H156.361V184.2H153.361V181.2ZM153.361 184.8H156.361V187.8H153.361V184.8ZM153.361 188.4H156.361V191.4H153.361V188.4ZM153.361 192H156.361V195H153.361V192ZM189.353 174H192.353V177H189.353V174ZM185.753 170.4H188.753V173.4H185.753V170.4ZM182.153 170.4H185.153V173.4H182.153V170.4ZM178.553 170.4H181.553V173.4H178.553V170.4ZM174.953 170.4H177.953V173.4H174.953V170.4ZM174.953 174H177.953V177H174.953V174ZM189.353 177.6H192.353V180.6H189.353V177.6ZM185.753 181.2H188.753V184.2H185.753V181.2ZM182.153 181.2H185.153V184.2H182.153V181.2ZM178.553 181.2H181.553V184.2H178.553V181.2ZM174.953 177.6H177.953V180.6H174.953V177.6ZM174.953 181.2H177.953V184.2H174.953V181.2ZM174.953 184.8H177.953V187.8H174.953V184.8ZM174.953 188.4H177.953V191.4H174.953V188.4ZM174.953 192H177.953V195H174.953V192ZM210.945 174H213.945V177H210.945V174ZM207.345 170.4H210.345V173.4H207.345V170.4ZM203.745 170.4H206.745V173.4H203.745V170.4ZM200.145 170.4H203.145V173.4H200.145V170.4ZM196.545 170.4H199.545V173.4H196.545V170.4ZM196.545 174H199.545V177H196.545V174ZM210.945 177.6H213.945V180.6H210.945V177.6ZM210.945 192H213.945V195H210.945V192ZM207.345 181.2H210.345V184.2H207.345V181.2ZM207.345 188.4H210.345V191.4H207.345V188.4ZM203.745 181.2H206.745V184.2H203.745V181.2ZM203.745 184.8H206.745V187.8H203.745V184.8ZM200.145 181.2H203.145V184.2H200.145V181.2ZM196.545 177.6H199.545V180.6H196.545V177.6ZM196.545 181.2H199.545V184.2H196.545V181.2ZM196.545 184.8H199.545V187.8H196.545V184.8ZM196.545 188.4H199.545V191.4H196.545V188.4ZM196.545 192H199.545V195H196.545V192ZM232.537 174H235.537V177H232.537V174ZM228.937 170.4H231.937V173.4H228.937V170.4ZM225.337 170.4H228.337V173.4H225.337V170.4ZM221.737 170.4H224.737V173.4H221.737V170.4ZM218.137 174H221.137V177H218.137V174ZM232.537 177.6H235.537V180.6H232.537V177.6ZM232.537 181.2H235.537V184.2H232.537V181.2ZM232.537 184.8H235.537V187.8H232.537V184.8ZM232.537 188.4H235.537V191.4H232.537V188.4ZM232.537 192H235.537V195H232.537V192ZM228.937 181.2H231.937V184.2H228.937V181.2ZM225.337 181.2H228.337V184.2H225.337V181.2ZM221.737 181.2H224.737V184.2H221.737V181.2ZM218.137 177.6H221.137V180.6H218.137V177.6ZM218.137 181.2H221.137V184.2H218.137V181.2ZM218.137 184.8H221.137V187.8H218.137V184.8ZM218.137 188.4H221.137V191.4H218.137V188.4ZM218.137 192H221.137V195H218.137V192ZM27.4 207H30.4V210H27.4V207ZM23.8 203.4H26.8V206.4H23.8V203.4ZM20.2 203.4H23.2V206.4H20.2V203.4ZM16.6 203.4H19.6V206.4H16.6V203.4ZM13 207H16V210H13V207ZM27.4 210.6H30.4V213.6H27.4V210.6ZM27.4 217.8H30.4V220.8H27.4V217.8ZM27.4 221.4H30.4V224.4H27.4V221.4ZM23.8 214.2H26.8V217.2H23.8V214.2ZM23.8 225H26.8V228H23.8V225ZM20.2 214.2H23.2V217.2H20.2V214.2ZM20.2 225H23.2V228H20.2V225ZM16.6 225H19.6V228H16.6V225ZM13 221.4H16V224.4H13V221.4ZM38.1918 221.4H41.1918V224.4H38.1918V221.4ZM38.1918 225H41.1918V228H38.1918V225ZM34.5918 221.4H37.5918V224.4H34.5918V221.4ZM34.5918 225H37.5918V228H34.5918V225ZM59.8023 207H62.8023V210H59.8023V207ZM56.2023 203.4H59.2023V206.4H56.2023V203.4ZM52.6023 203.4H55.6023V206.4H52.6023V203.4ZM49.0023 203.4H52.0023V206.4H49.0023V203.4ZM45.4023 207H48.4023V210H45.4023V207ZM59.8023 221.4H62.8023V224.4H59.8023V221.4ZM56.2023 225H59.2023V228H56.2023V225ZM52.6023 225H55.6023V228H52.6023V225ZM49.0023 225H52.0023V228H49.0023V225ZM45.4023 210.6H48.4023V213.6H45.4023V210.6ZM45.4023 214.2H48.4023V217.2H45.4023V214.2ZM45.4023 217.8H48.4023V220.8H45.4023V217.8ZM45.4023 221.4H48.4023V224.4H45.4023V221.4ZM81.3941 207H84.3941V210H81.3941V207ZM77.7941 203.4H80.7941V206.4H77.7941V203.4ZM74.1941 203.4H77.1941V206.4H74.1941V203.4ZM70.5941 203.4H73.5941V206.4H70.5941V203.4ZM66.9941 207H69.9941V210H66.9941V207ZM81.3941 210.6H84.3941V213.6H81.3941V210.6ZM81.3941 214.2H84.3941V217.2H81.3941V214.2ZM81.3941 217.8H84.3941V220.8H81.3941V217.8ZM81.3941 221.4H84.3941V224.4H81.3941V221.4ZM77.7941 225H80.7941V228H77.7941V225ZM74.1941 225H77.1941V228H74.1941V225ZM70.5941 225H73.5941V228H70.5941V225ZM66.9941 210.6H69.9941V213.6H66.9941V210.6ZM66.9941 214.2H69.9941V217.2H66.9941V214.2ZM66.9941 217.8H69.9941V220.8H66.9941V217.8ZM66.9941 221.4H69.9941V224.4H66.9941V221.4ZM102.986 203.4H105.986V206.4H102.986V203.4ZM102.986 207H105.986V210H102.986V207ZM99.3859 207H102.386V210H99.3859V207ZM92.1859 207H95.1859V210H92.1859V207ZM88.5859 203.4H91.5859V206.4H88.5859V203.4ZM88.5859 207H91.5859V210H88.5859V207ZM102.986 210.6H105.986V213.6H102.986V210.6ZM102.986 214.2H105.986V217.2H102.986V214.2ZM102.986 217.8H105.986V220.8H102.986V217.8ZM102.986 221.4H105.986V224.4H102.986V221.4ZM102.986 225H105.986V228H102.986V225ZM95.7859 210.6H98.7859V213.6H95.7859V210.6ZM95.7859 214.2H98.7859V217.2H95.7859V214.2ZM88.5859 210.6H91.5859V213.6H88.5859V210.6ZM88.5859 214.2H91.5859V217.2H88.5859V214.2ZM88.5859 217.8H91.5859V220.8H88.5859V217.8ZM88.5859 221.4H91.5859V224.4H88.5859V221.4ZM88.5859 225H91.5859V228H88.5859V225ZM124.578 203.4H127.578V206.4H124.578V203.4ZM120.978 203.4H123.978V206.4H120.978V203.4ZM117.378 203.4H120.378V206.4H117.378V203.4ZM113.778 203.4H116.778V206.4H113.778V203.4ZM110.178 203.4H113.178V206.4H110.178V203.4ZM110.178 207H113.178V210H110.178V207ZM124.578 225H127.578V228H124.578V225ZM120.978 214.2H123.978V217.2H120.978V214.2ZM120.978 225H123.978V228H120.978V225ZM117.378 214.2H120.378V217.2H117.378V214.2ZM117.378 225H120.378V228H117.378V225ZM113.778 214.2H116.778V217.2H113.778V214.2ZM113.778 225H116.778V228H113.778V225ZM110.178 210.6H113.178V213.6H110.178V210.6ZM110.178 214.2H113.178V217.2H110.178V214.2ZM110.178 217.8H113.178V220.8H110.178V217.8ZM110.178 221.4H113.178V224.4H110.178V221.4ZM110.178 225H113.178V228H110.178V225ZM146.17 207H149.17V210H146.17V207ZM142.57 203.4H145.57V206.4H142.57V203.4ZM138.97 203.4H141.97V206.4H138.97V203.4ZM135.37 203.4H138.37V206.4H135.37V203.4ZM131.77 203.4H134.77V206.4H131.77V203.4ZM131.77 207H134.77V210H131.77V207ZM146.17 210.6H149.17V213.6H146.17V210.6ZM146.17 225H149.17V228H146.17V225ZM142.57 214.2H145.57V217.2H142.57V214.2ZM142.57 221.4H145.57V224.4H142.57V221.4ZM138.97 214.2H141.97V217.2H138.97V214.2ZM138.97 217.8H141.97V220.8H138.97V217.8ZM135.37 214.2H138.37V217.2H135.37V214.2ZM131.77 210.6H134.77V213.6H131.77V210.6ZM131.77 214.2H134.77V217.2H131.77V214.2ZM131.77 217.8H134.77V220.8H131.77V217.8ZM131.77 221.4H134.77V224.4H131.77V221.4ZM131.77 225H134.77V228H131.77V225ZM167.761 207H170.761V210H167.761V207ZM164.161 203.4H167.161V206.4H164.161V203.4ZM160.561 203.4H163.561V206.4H160.561V203.4ZM156.961 203.4H159.961V206.4H156.961V203.4ZM153.361 207H156.361V210H153.361V207ZM167.761 221.4H170.761V224.4H167.761V221.4ZM164.161 225H167.161V228H164.161V225ZM160.561 225H163.561V228H160.561V225ZM156.961 225H159.961V228H156.961V225ZM153.361 210.6H156.361V213.6H153.361V210.6ZM153.361 214.2H156.361V217.2H153.361V214.2ZM153.361 217.8H156.361V220.8H153.361V217.8ZM153.361 221.4H156.361V224.4H153.361V221.4ZM182.153 203.4H185.153V206.4H182.153V203.4ZM178.553 203.4H181.553V206.4H178.553V203.4ZM178.553 207H181.553V210H178.553V207ZM174.953 203.4H177.953V206.4H174.953V203.4ZM182.153 225H185.153V228H182.153V225ZM178.553 210.6H181.553V213.6H178.553V210.6ZM178.553 214.2H181.553V217.2H178.553V214.2ZM178.553 217.8H181.553V220.8H178.553V217.8ZM178.553 221.4H181.553V224.4H178.553V221.4ZM178.553 225H181.553V228H178.553V225ZM174.953 225H177.953V228H174.953V225ZM203.767 207H206.767V210H203.767V207ZM200.167 203.4H203.167V206.4H200.167V203.4ZM196.567 203.4H199.567V206.4H196.567V203.4ZM192.967 203.4H195.967V206.4H192.967V203.4ZM189.367 207H192.367V210H189.367V207ZM203.767 210.6H206.767V213.6H203.767V210.6ZM203.767 214.2H206.767V217.2H203.767V214.2ZM203.767 217.8H206.767V220.8H203.767V217.8ZM203.767 221.4H206.767V224.4H203.767V221.4ZM200.167 225H203.167V228H200.167V225ZM196.567 225H199.567V228H196.567V225ZM192.967 225H195.967V228H192.967V225ZM189.367 210.6H192.367V213.6H189.367V210.6ZM189.367 214.2H192.367V217.2H189.367V214.2ZM189.367 217.8H192.367V220.8H189.367V217.8ZM189.367 221.4H192.367V224.4H189.367V221.4ZM23.8 236.4H26.8V239.4H23.8V236.4ZM23.8 240H26.8V243H23.8V240ZM20.2 240H23.2V243H20.2V240ZM27.4 250.8H30.4V253.8H27.4V250.8ZM23.8 243.6H26.8V246.6H23.8V243.6ZM23.8 247.2H26.8V250.2H23.8V247.2ZM23.8 250.8H26.8V253.8H23.8V250.8ZM23.8 254.4H26.8V257.4H23.8V254.4ZM23.8 258H26.8V261H23.8V258ZM20.2 250.8H23.2V253.8H20.2V250.8ZM16.6 243.6H19.6V246.6H16.6V243.6ZM16.6 250.8H19.6V253.8H16.6V250.8ZM13 247.2H16V250.2H13V247.2ZM13 250.8H16V253.8H13V250.8ZM38.1918 254.4H41.1918V257.4H38.1918V254.4ZM38.1918 258H41.1918V261H38.1918V258ZM34.5918 254.4H37.5918V257.4H34.5918V254.4ZM34.5918 258H37.5918V261H34.5918V258ZM59.8023 236.4H62.8023V239.4H59.8023V236.4ZM56.2023 236.4H59.2023V239.4H56.2023V236.4ZM52.6023 236.4H55.6023V239.4H52.6023V236.4ZM52.6023 240H55.6023V243H52.6023V240ZM49.0023 236.4H52.0023V239.4H49.0023V236.4ZM45.4023 236.4H48.4023V239.4H45.4023V236.4ZM52.6023 243.6H55.6023V246.6H52.6023V243.6ZM52.6023 247.2H55.6023V250.2H52.6023V247.2ZM52.6023 250.8H55.6023V253.8H52.6023V250.8ZM52.6023 254.4H55.6023V257.4H52.6023V254.4ZM52.6023 258H55.6023V261H52.6023V258ZM81.3941 236.4H84.3941V239.4H81.3941V236.4ZM77.7941 236.4H80.7941V239.4H77.7941V236.4ZM74.1941 236.4H77.1941V239.4H74.1941V236.4ZM70.5941 236.4H73.5941V239.4H70.5941V236.4ZM66.9941 236.4H69.9941V239.4H66.9941V236.4ZM66.9941 240H69.9941V243H66.9941V240ZM81.3941 258H84.3941V261H81.3941V258ZM77.7941 247.2H80.7941V250.2H77.7941V247.2ZM77.7941 258H80.7941V261H77.7941V258ZM74.1941 247.2H77.1941V250.2H74.1941V247.2ZM74.1941 258H77.1941V261H74.1941V258ZM70.5941 247.2H73.5941V250.2H70.5941V247.2ZM70.5941 258H73.5941V261H70.5941V258ZM66.9941 243.6H69.9941V246.6H66.9941V243.6ZM66.9941 247.2H69.9941V250.2H66.9941V247.2ZM66.9941 250.8H69.9941V253.8H66.9941V250.8ZM66.9941 254.4H69.9941V257.4H66.9941V254.4ZM66.9941 258H69.9941V261H66.9941V258ZM102.986 240H105.986V243H102.986V240ZM99.3859 236.4H102.386V239.4H99.3859V236.4ZM95.7859 236.4H98.7859V239.4H95.7859V236.4ZM92.1859 236.4H95.1859V239.4H92.1859V236.4ZM88.5859 240H91.5859V243H88.5859V240ZM102.986 254.4H105.986V257.4H102.986V254.4ZM99.3859 258H102.386V261H99.3859V258ZM95.7859 258H98.7859V261H95.7859V258ZM92.1859 258H95.1859V261H92.1859V258ZM88.5859 243.6H91.5859V246.6H88.5859V243.6ZM88.5859 247.2H91.5859V250.2H88.5859V247.2ZM88.5859 250.8H91.5859V253.8H88.5859V250.8ZM88.5859 254.4H91.5859V257.4H88.5859V254.4ZM124.578 236.4H127.578V239.4H124.578V236.4ZM124.578 240H127.578V243H124.578V240ZM110.178 236.4H113.178V239.4H110.178V236.4ZM110.178 240H113.178V243H110.178V240ZM124.578 243.6H127.578V246.6H124.578V243.6ZM124.578 247.2H127.578V250.2H124.578V247.2ZM124.578 250.8H127.578V253.8H124.578V250.8ZM124.578 254.4H127.578V257.4H124.578V254.4ZM124.578 258H127.578V261H124.578V258ZM120.978 250.8H123.978V253.8H120.978V250.8ZM117.378 247.2H120.378V250.2H117.378V247.2ZM113.778 243.6H116.778V246.6H113.778V243.6ZM110.178 243.6H113.178V246.6H110.178V243.6ZM110.178 247.2H113.178V250.2H110.178V247.2ZM110.178 250.8H113.178V253.8H110.178V250.8ZM110.178 254.4H113.178V257.4H110.178V254.4ZM110.178 258H113.178V261H110.178V258ZM138.97 236.4H141.97V239.4H138.97V236.4ZM135.37 236.4H138.37V239.4H135.37V236.4ZM135.37 240H138.37V243H135.37V240ZM131.77 236.4H134.77V239.4H131.77V236.4ZM138.97 258H141.97V261H138.97V258ZM135.37 243.6H138.37V246.6H135.37V243.6ZM135.37 247.2H138.37V250.2H135.37V247.2ZM135.37 250.8H138.37V253.8H135.37V250.8ZM135.37 254.4H138.37V257.4H135.37V254.4ZM135.37 258H138.37V261H135.37V258ZM131.77 258H134.77V261H131.77V258ZM160.584 240H163.584V243H160.584V240ZM156.984 236.4H159.984V239.4H156.984V236.4ZM153.384 236.4H156.384V239.4H153.384V236.4ZM149.784 236.4H152.784V239.4H149.784V236.4ZM146.184 240H149.184V243H146.184V240ZM160.584 254.4H163.584V257.4H160.584V254.4ZM156.984 258H159.984V261H156.984V258ZM153.384 258H156.384V261H153.384V258ZM149.784 258H152.784V261H149.784V258ZM146.184 243.6H149.184V246.6H146.184V243.6ZM146.184 247.2H149.184V250.2H146.184V247.2ZM146.184 250.8H149.184V253.8H146.184V250.8ZM146.184 254.4H149.184V257.4H146.184V254.4ZM182.175 240H185.175V243H182.175V240ZM178.575 236.4H181.575V239.4H178.575V236.4ZM174.975 236.4H177.975V239.4H174.975V236.4ZM171.375 236.4H174.375V239.4H171.375V236.4ZM167.775 240H170.775V243H167.775V240ZM182.175 243.6H185.175V246.6H182.175V243.6ZM182.175 247.2H185.175V250.2H182.175V247.2ZM182.175 250.8H185.175V253.8H182.175V250.8ZM182.175 254.4H185.175V257.4H182.175V254.4ZM178.575 258H181.575V261H178.575V258ZM174.975 258H177.975V261H174.975V258ZM171.375 258H174.375V261H171.375V258ZM167.775 243.6H170.775V246.6H167.775V243.6ZM167.775 247.2H170.775V250.2H167.775V247.2ZM167.775 250.8H170.775V253.8H167.775V250.8ZM167.775 254.4H170.775V257.4H167.775V254.4Z" fill="#5B65C2"/>
<path d="M344.019 56.6H346.019V58.6H344.019V56.6ZM344.019 59H346.019V61H344.019V59ZM341.619 59H343.619V61H341.619V59ZM348.819 71H350.819V73H348.819V71ZM346.419 71H348.419V73H346.419V71ZM344.019 61.4H346.019V63.4H344.019V61.4ZM344.019 63.8H346.019V65.8H344.019V63.8ZM344.019 66.2H346.019V68.2H344.019V66.2ZM344.019 68.6H346.019V70.6H344.019V68.6ZM344.019 71H346.019V73H344.019V71ZM341.619 71H343.619V73H341.619V71ZM339.219 61.4H341.219V63.4H339.219V61.4ZM339.219 71H341.219V73H339.219V71ZM363.213 59H365.213V61H363.213V59ZM360.813 56.6H362.813V58.6H360.813V56.6ZM358.413 56.6H360.413V58.6H358.413V56.6ZM356.013 56.6H358.013V58.6H356.013V56.6ZM353.613 59H355.613V61H353.613V59ZM363.213 61.4H365.213V63.4H363.213V61.4ZM363.213 63.8H365.213V65.8H363.213V63.8ZM363.213 66.2H365.213V68.2H363.213V66.2ZM363.213 68.6H365.213V70.6H363.213V68.6ZM360.813 66.2H362.813V68.2H360.813V66.2ZM360.813 71H362.813V73H360.813V71ZM358.413 66.2H360.413V68.2H358.413V66.2ZM358.413 71H360.413V73H358.413V71ZM356.013 66.2H358.013V68.2H356.013V66.2ZM356.013 71H358.013V73H356.013V71ZM353.613 61.4H355.613V63.4H353.613V61.4ZM353.613 63.8H355.613V65.8H353.613V63.8ZM370.408 59H372.408V61H370.408V59ZM368.008 59H370.008V61H368.008V59ZM370.408 61.4H372.408V63.4H370.408V61.4ZM370.408 66.2H372.408V68.2H370.408V66.2ZM370.408 68.6H372.408V70.6H370.408V68.6ZM368.008 61.4H370.008V63.4H368.008V61.4ZM368.008 66.2H370.008V68.2H368.008V66.2ZM368.008 68.6H370.008V70.6H368.008V68.6ZM384.815 59H386.815V61H384.815V59ZM382.415 56.6H384.415V58.6H382.415V56.6ZM380.015 56.6H382.015V58.6H380.015V56.6ZM377.615 56.6H379.615V58.6H377.615V56.6ZM375.215 59H377.215V61H375.215V59ZM384.815 61.4H386.815V63.4H384.815V61.4ZM384.815 63.8H386.815V65.8H384.815V63.8ZM384.815 66.2H386.815V68.2H384.815V66.2ZM384.815 68.6H386.815V70.6H384.815V68.6ZM382.415 61.4H384.415V63.4H382.415V61.4ZM382.415 71H384.415V73H382.415V71ZM380.015 63.8H382.015V65.8H380.015V63.8ZM380.015 71H382.015V73H380.015V71ZM377.615 66.2H379.615V68.2H377.615V66.2ZM377.615 71H379.615V73H377.615V71ZM375.215 61.4H377.215V63.4H375.215V61.4ZM375.215 63.8H377.215V65.8H375.215V63.8ZM375.215 66.2H377.215V68.2H375.215V66.2ZM375.215 68.6H377.215V70.6H375.215V68.6ZM399.209 56.6H401.209V58.6H399.209V56.6ZM396.809 56.6H398.809V58.6H396.809V56.6ZM394.409 56.6H396.409V58.6H394.409V56.6ZM392.009 56.6H394.009V58.6H392.009V56.6ZM389.609 56.6H391.609V58.6H389.609V56.6ZM389.609 59H391.609V61H389.609V59ZM399.209 63.8H401.209V65.8H399.209V63.8ZM399.209 66.2H401.209V68.2H399.209V66.2ZM399.209 68.6H401.209V70.6H399.209V68.6ZM396.809 61.4H398.809V63.4H396.809V61.4ZM396.809 71H398.809V73H396.809V71ZM394.409 61.4H396.409V63.4H394.409V61.4ZM394.409 71H396.409V73H394.409V71ZM392.009 61.4H394.009V63.4H392.009V61.4ZM392.009 71H394.009V73H392.009V71ZM389.609 61.4H391.609V63.4H389.609V61.4ZM389.609 68.6H391.609V70.6H389.609V68.6ZM406.404 59H408.404V61H406.404V59ZM404.004 59H406.004V61H404.004V59ZM406.404 61.4H408.404V63.4H406.404V61.4ZM406.404 66.2H408.404V68.2H406.404V66.2ZM406.404 68.6H408.404V70.6H406.404V68.6ZM404.004 61.4H406.004V63.4H404.004V61.4ZM404.004 66.2H406.004V68.2H404.004V66.2ZM404.004 68.6H406.004V70.6H404.004V68.6ZM418.411 56.6H420.411V58.6H418.411V56.6ZM418.411 59H420.411V61H418.411V59ZM416.011 59H418.011V61H416.011V59ZM420.811 66.2H422.811V68.2H420.811V66.2ZM418.411 61.4H420.411V63.4H418.411V61.4ZM418.411 63.8H420.411V65.8H418.411V63.8ZM418.411 66.2H420.411V68.2H418.411V66.2ZM418.411 68.6H420.411V70.6H418.411V68.6ZM418.411 71H420.411V73H418.411V71ZM416.011 66.2H418.011V68.2H416.011V66.2ZM413.611 61.4H415.611V63.4H413.611V61.4ZM413.611 66.2H415.611V68.2H413.611V66.2ZM411.211 63.8H413.211V65.8H411.211V63.8ZM411.211 66.2H413.211V68.2H411.211V66.2ZM430.405 56.6H432.405V58.6H430.405V56.6ZM430.405 59H432.405V61H430.405V59ZM428.005 59H430.005V61H428.005V59ZM435.205 71H437.205V73H435.205V71ZM432.805 71H434.805V73H432.805V71ZM430.405 61.4H432.405V63.4H430.405V61.4ZM430.405 63.8H432.405V65.8H430.405V63.8ZM430.405 66.2H432.405V68.2H430.405V66.2ZM430.405 68.6H432.405V70.6H430.405V68.6ZM430.405 71H432.405V73H430.405V71ZM428.005 71H430.005V73H428.005V71ZM425.605 61.4H427.605V63.4H425.605V61.4ZM425.605 71H427.605V73H425.605V71Z" fill="white"/>
</svg>
