<svg width="452" height="280" viewBox="0 0 452 280" fill="none" xmlns="http://www.w3.org/2000/svg">
<rect width="452" height="280" fill="white"/>
<rect width="452" height="47" fill="#5B65C2"/>
<path d="M157.622 15H160.622V18H157.622V15ZM154.022 11.4H157.022V14.4H154.022V11.4ZM150.422 11.4H153.422V14.4H150.422V11.4ZM146.822 11.4H149.822V14.4H146.822V11.4ZM143.222 15H146.222V18H143.222V15ZM157.622 29.4H160.622V32.4H157.622V29.4ZM154.022 33H157.022V36H154.022V33ZM150.422 33H153.422V36H150.422V33ZM146.822 33H149.822V36H146.822V33ZM143.222 18.6H146.222V21.6H143.222V18.6ZM143.222 22.2H146.222V25.2H143.222V22.2ZM143.222 25.8H146.222V28.8H143.222V25.8ZM143.222 29.4H146.222V32.4H143.222V29.4ZM179.213 15H182.213V18H179.213V15ZM175.613 11.4H178.613V14.4H175.613V11.4ZM172.013 11.4H175.013V14.4H172.013V11.4ZM168.413 11.4H171.413V14.4H168.413V11.4ZM164.813 15H167.813V18H164.813V15ZM179.213 18.6H182.213V21.6H179.213V18.6ZM179.213 22.2H182.213V25.2H179.213V22.2ZM179.213 25.8H182.213V28.8H179.213V25.8ZM179.213 29.4H182.213V32.4H179.213V29.4ZM175.613 33H178.613V36H175.613V33ZM172.013 33H175.013V36H172.013V33ZM168.413 33H171.413V36H168.413V33ZM164.813 18.6H167.813V21.6H164.813V18.6ZM164.813 22.2H167.813V25.2H164.813V22.2ZM164.813 25.8H167.813V28.8H164.813V25.8ZM164.813 29.4H167.813V32.4H164.813V29.4ZM200.805 11.4H203.805V14.4H200.805V11.4ZM200.805 15H203.805V18H200.805V15ZM197.205 15H200.205V18H197.205V15ZM190.005 15H193.005V18H190.005V15ZM186.405 11.4H189.405V14.4H186.405V11.4ZM186.405 15H189.405V18H186.405V15ZM200.805 18.6H203.805V21.6H200.805V18.6ZM200.805 22.2H203.805V25.2H200.805V22.2ZM200.805 25.8H203.805V28.8H200.805V25.8ZM200.805 29.4H203.805V32.4H200.805V29.4ZM200.805 33H203.805V36H200.805V33ZM193.605 18.6H196.605V21.6H193.605V18.6ZM193.605 22.2H196.605V25.2H193.605V22.2ZM186.405 18.6H189.405V21.6H186.405V18.6ZM186.405 22.2H189.405V25.2H186.405V22.2ZM186.405 25.8H189.405V28.8H186.405V25.8ZM186.405 29.4H189.405V32.4H186.405V29.4ZM186.405 33H189.405V36H186.405V33ZM222.397 11.4H225.397V14.4H222.397V11.4ZM218.797 11.4H221.797V14.4H218.797V11.4ZM215.197 11.4H218.197V14.4H215.197V11.4ZM211.597 11.4H214.597V14.4H211.597V11.4ZM207.997 11.4H210.997V14.4H207.997V11.4ZM207.997 15H210.997V18H207.997V15ZM222.397 33H225.397V36H222.397V33ZM218.797 22.2H221.797V25.2H218.797V22.2ZM218.797 33H221.797V36H218.797V33ZM215.197 22.2H218.197V25.2H215.197V22.2ZM215.197 33H218.197V36H215.197V33ZM211.597 22.2H214.597V25.2H211.597V22.2ZM211.597 33H214.597V36H211.597V33ZM207.997 18.6H210.997V21.6H207.997V18.6ZM207.997 22.2H210.997V25.2H207.997V22.2ZM207.997 25.8H210.997V28.8H207.997V25.8ZM207.997 29.4H210.997V32.4H207.997V29.4ZM207.997 33H210.997V36H207.997V33ZM243.989 15H246.989V18H243.989V15ZM240.389 11.4H243.389V14.4H240.389V11.4ZM236.789 11.4H239.789V14.4H236.789V11.4ZM233.189 11.4H236.189V14.4H233.189V11.4ZM229.589 11.4H232.589V14.4H229.589V11.4ZM229.589 15H232.589V18H229.589V15ZM243.989 18.6H246.989V21.6H243.989V18.6ZM243.989 33H246.989V36H243.989V33ZM240.389 22.2H243.389V25.2H240.389V22.2ZM240.389 29.4H243.389V32.4H240.389V29.4ZM236.789 22.2H239.789V25.2H236.789V22.2ZM236.789 25.8H239.789V28.8H236.789V25.8ZM233.189 22.2H236.189V25.2H233.189V22.2ZM229.589 18.6H232.589V21.6H229.589V18.6ZM229.589 22.2H232.589V25.2H229.589V22.2ZM229.589 25.8H232.589V28.8H229.589V25.8ZM229.589 29.4H232.589V32.4H229.589V29.4ZM229.589 33H232.589V36H229.589V33ZM265.581 15H268.581V18H265.581V15ZM261.981 11.4H264.981V14.4H261.981V11.4ZM258.381 11.4H261.381V14.4H258.381V11.4ZM254.781 11.4H257.781V14.4H254.781V11.4ZM251.181 15H254.181V18H251.181V15ZM265.581 29.4H268.581V32.4H265.581V29.4ZM261.981 33H264.981V36H261.981V33ZM258.381 33H261.381V36H258.381V33ZM254.781 33H257.781V36H254.781V33ZM251.181 18.6H254.181V21.6H251.181V18.6ZM251.181 22.2H254.181V25.2H251.181V22.2ZM251.181 25.8H254.181V28.8H251.181V25.8ZM251.181 29.4H254.181V32.4H251.181V29.4ZM279.972 11.4H282.972V14.4H279.972V11.4ZM276.372 11.4H279.372V14.4H276.372V11.4ZM276.372 15H279.372V18H276.372V15ZM272.772 11.4H275.772V14.4H272.772V11.4ZM279.972 33H282.972V36H279.972V33ZM276.372 18.6H279.372V21.6H276.372V18.6ZM276.372 22.2H279.372V25.2H276.372V22.2ZM276.372 25.8H279.372V28.8H276.372V25.8ZM276.372 29.4H279.372V32.4H276.372V29.4ZM276.372 33H279.372V36H276.372V33ZM272.772 33H275.772V36H272.772V33ZM301.587 15H304.587V18H301.587V15ZM297.987 11.4H300.987V14.4H297.987V11.4ZM294.387 11.4H297.387V14.4H294.387V11.4ZM290.787 11.4H293.787V14.4H290.787V11.4ZM287.187 15H290.187V18H287.187V15ZM301.587 18.6H304.587V21.6H301.587V18.6ZM301.587 22.2H304.587V25.2H301.587V22.2ZM301.587 25.8H304.587V28.8H301.587V25.8ZM301.587 29.4H304.587V32.4H301.587V29.4ZM297.987 33H300.987V36H297.987V33ZM294.387 33H297.387V36H294.387V33ZM290.787 33H293.787V36H290.787V33ZM287.187 18.6H290.187V21.6H287.187V18.6ZM287.187 22.2H290.187V25.2H287.187V22.2ZM287.187 25.8H290.187V28.8H287.187V25.8ZM287.187 29.4H290.187V32.4H287.187V29.4Z" fill="white"/>
<path d="M20.2 79.4H23.2V82.4H20.2V79.4ZM20.2 83H23.2V86H20.2V83ZM16.6 83H19.6V86H16.6V83ZM27.4 101H30.4V104H27.4V101ZM23.8 101H26.8V104H23.8V101ZM20.2 86.6H23.2V89.6H20.2V86.6ZM20.2 90.2H23.2V93.2H20.2V90.2ZM20.2 93.8H23.2V96.8H20.2V93.8ZM20.2 97.4H23.2V100.4H20.2V97.4ZM20.2 101H23.2V104H20.2V101ZM16.6 101H19.6V104H16.6V101ZM13 86.6H16V89.6H13V86.6ZM13 101H16V104H13V101ZM38.1918 97.4H41.1918V100.4H38.1918V97.4ZM38.1918 101H41.1918V104H38.1918V101ZM34.5918 97.4H37.5918V100.4H34.5918V97.4ZM34.5918 101H37.5918V104H34.5918V101ZM59.8023 79.4H62.8023V82.4H59.8023V79.4ZM59.8023 83H62.8023V86H59.8023V83ZM45.4023 79.4H48.4023V82.4H45.4023V79.4ZM45.4023 83H48.4023V86H45.4023V83ZM59.8023 86.6H62.8023V89.6H59.8023V86.6ZM59.8023 90.2H62.8023V93.2H59.8023V90.2ZM59.8023 93.8H62.8023V96.8H59.8023V93.8ZM56.2023 97.4H59.2023V100.4H56.2023V97.4ZM52.6023 101H55.6023V104H52.6023V101ZM49.0023 97.4H52.0023V100.4H49.0023V97.4ZM45.4023 86.6H48.4023V89.6H45.4023V86.6ZM45.4023 90.2H48.4023V93.2H45.4023V90.2ZM45.4023 93.8H48.4023V96.8H45.4023V93.8ZM81.3941 79.4H84.3941V82.4H81.3941V79.4ZM77.7941 79.4H80.7941V82.4H77.7941V79.4ZM74.1941 79.4H77.1941V82.4H74.1941V79.4ZM70.5941 79.4H73.5941V82.4H70.5941V79.4ZM66.9941 79.4H69.9941V82.4H66.9941V79.4ZM66.9941 83H69.9941V86H66.9941V83ZM81.3941 101H84.3941V104H81.3941V101ZM77.7941 90.2H80.7941V93.2H77.7941V90.2ZM77.7941 101H80.7941V104H77.7941V101ZM74.1941 90.2H77.1941V93.2H74.1941V90.2ZM74.1941 101H77.1941V104H74.1941V101ZM70.5941 90.2H73.5941V93.2H70.5941V90.2ZM70.5941 101H73.5941V104H70.5941V101ZM66.9941 86.6H69.9941V89.6H66.9941V86.6ZM66.9941 90.2H69.9941V93.2H66.9941V90.2ZM66.9941 93.8H69.9941V96.8H66.9941V93.8ZM66.9941 97.4H69.9941V100.4H66.9941V97.4ZM66.9941 101H69.9941V104H66.9941V101ZM102.986 79.4H105.986V82.4H102.986V79.4ZM102.986 83H105.986V86H102.986V83ZM88.5859 79.4H91.5859V82.4H88.5859V79.4ZM88.5859 83H91.5859V86H88.5859V83ZM102.986 86.6H105.986V89.6H102.986V86.6ZM102.986 90.2H105.986V93.2H102.986V90.2ZM102.986 93.8H105.986V96.8H102.986V93.8ZM102.986 97.4H105.986V100.4H102.986V97.4ZM102.986 101H105.986V104H102.986V101ZM99.3859 93.8H102.386V96.8H99.3859V93.8ZM95.7859 90.2H98.7859V93.2H95.7859V90.2ZM92.1859 86.6H95.1859V89.6H92.1859V86.6ZM88.5859 86.6H91.5859V89.6H88.5859V86.6ZM88.5859 90.2H91.5859V93.2H88.5859V90.2ZM88.5859 93.8H91.5859V96.8H88.5859V93.8ZM88.5859 97.4H91.5859V100.4H88.5859V97.4ZM88.5859 101H91.5859V104H88.5859V101ZM124.578 79.4H127.578V82.4H124.578V79.4ZM120.978 79.4H123.978V82.4H120.978V79.4ZM117.378 79.4H120.378V82.4H117.378V79.4ZM117.378 83H120.378V86H117.378V83ZM113.778 79.4H116.778V82.4H113.778V79.4ZM110.178 79.4H113.178V82.4H110.178V79.4ZM117.378 86.6H120.378V89.6H117.378V86.6ZM117.378 90.2H120.378V93.2H117.378V90.2ZM117.378 93.8H120.378V96.8H117.378V93.8ZM117.378 97.4H120.378V100.4H117.378V97.4ZM117.378 101H120.378V104H117.378V101ZM146.17 83H149.17V86H146.17V83ZM142.57 79.4H145.57V82.4H142.57V79.4ZM138.97 79.4H141.97V82.4H138.97V79.4ZM135.37 79.4H138.37V82.4H135.37V79.4ZM131.77 83H134.77V86H131.77V83ZM146.17 86.6H149.17V89.6H146.17V86.6ZM146.17 90.2H149.17V93.2H146.17V90.2ZM146.17 93.8H149.17V96.8H146.17V93.8ZM146.17 97.4H149.17V100.4H146.17V97.4ZM146.17 101H149.17V104H146.17V101ZM142.57 90.2H145.57V93.2H142.57V90.2ZM138.97 90.2H141.97V93.2H138.97V90.2ZM135.37 90.2H138.37V93.2H135.37V90.2ZM131.77 86.6H134.77V89.6H131.77V86.6ZM131.77 90.2H134.77V93.2H131.77V90.2ZM131.77 93.8H134.77V96.8H131.77V93.8ZM131.77 97.4H134.77V100.4H131.77V97.4ZM131.77 101H134.77V104H131.77V101ZM189.353 79.4H192.353V82.4H189.353V79.4ZM185.753 79.4H188.753V82.4H185.753V79.4ZM182.153 79.4H185.153V82.4H182.153V79.4ZM178.553 79.4H181.553V82.4H178.553V79.4ZM174.953 79.4H177.953V82.4H174.953V79.4ZM174.953 83H177.953V86H174.953V83ZM185.753 90.2H188.753V93.2H185.753V90.2ZM182.153 90.2H185.153V93.2H182.153V90.2ZM178.553 90.2H181.553V93.2H178.553V90.2ZM174.953 86.6H177.953V89.6H174.953V86.6ZM174.953 90.2H177.953V93.2H174.953V90.2ZM174.953 93.8H177.953V96.8H174.953V93.8ZM174.953 97.4H177.953V100.4H174.953V97.4ZM174.953 101H177.953V104H174.953V101ZM210.945 83H213.945V86H210.945V83ZM207.345 79.4H210.345V82.4H207.345V79.4ZM203.745 79.4H206.745V82.4H203.745V79.4ZM200.145 79.4H203.145V82.4H200.145V79.4ZM196.545 83H199.545V86H196.545V83ZM210.945 86.6H213.945V89.6H210.945V86.6ZM210.945 90.2H213.945V93.2H210.945V90.2ZM210.945 93.8H213.945V96.8H210.945V93.8ZM210.945 97.4H213.945V100.4H210.945V97.4ZM210.945 101H213.945V104H210.945V101ZM207.345 90.2H210.345V93.2H207.345V90.2ZM203.745 90.2H206.745V93.2H203.745V90.2ZM200.145 90.2H203.145V93.2H200.145V90.2ZM196.545 86.6H199.545V89.6H196.545V86.6ZM196.545 90.2H199.545V93.2H196.545V90.2ZM196.545 93.8H199.545V96.8H196.545V93.8ZM196.545 97.4H199.545V100.4H196.545V97.4ZM196.545 101H199.545V104H196.545V101ZM232.537 83H235.537V86H232.537V83ZM228.937 79.4H231.937V82.4H228.937V79.4ZM225.337 79.4H228.337V82.4H225.337V79.4ZM221.737 79.4H224.737V82.4H221.737V79.4ZM218.137 83H221.137V86H218.137V83ZM232.537 97.4H235.537V100.4H232.537V97.4ZM228.937 101H231.937V104H228.937V101ZM225.337 101H228.337V104H225.337V101ZM221.737 101H224.737V104H221.737V101ZM218.137 86.6H221.137V89.6H218.137V86.6ZM218.137 90.2H221.137V93.2H218.137V90.2ZM218.137 93.8H221.137V96.8H218.137V93.8ZM218.137 97.4H221.137V100.4H218.137V97.4ZM254.129 79.4H257.129V82.4H254.129V79.4ZM250.529 79.4H253.529V82.4H250.529V79.4ZM246.929 79.4H249.929V82.4H246.929V79.4ZM246.929 83H249.929V86H246.929V83ZM243.329 79.4H246.329V82.4H243.329V79.4ZM239.729 79.4H242.729V82.4H239.729V79.4ZM246.929 86.6H249.929V89.6H246.929V86.6ZM246.929 90.2H249.929V93.2H246.929V90.2ZM246.929 93.8H249.929V96.8H246.929V93.8ZM246.929 97.4H249.929V100.4H246.929V97.4ZM246.929 101H249.929V104H246.929V101ZM275.72 79.4H278.72V82.4H275.72V79.4ZM275.72 83H278.72V86H275.72V83ZM261.32 79.4H264.32V82.4H261.32V79.4ZM261.32 83H264.32V86H261.32V83ZM275.72 86.6H278.72V89.6H275.72V86.6ZM275.72 90.2H278.72V93.2H275.72V90.2ZM275.72 93.8H278.72V96.8H275.72V93.8ZM275.72 97.4H278.72V100.4H275.72V97.4ZM272.12 101H275.12V104H272.12V101ZM268.52 101H271.52V104H268.52V101ZM264.92 101H267.92V104H264.92V101ZM261.32 86.6H264.32V89.6H261.32V86.6ZM261.32 90.2H264.32V93.2H261.32V90.2ZM261.32 93.8H264.32V96.8H261.32V93.8ZM261.32 97.4H264.32V100.4H261.32V97.4ZM297.312 83H300.312V86H297.312V83ZM293.712 79.4H296.712V82.4H293.712V79.4ZM290.112 79.4H293.112V82.4H290.112V79.4ZM286.512 79.4H289.512V82.4H286.512V79.4ZM282.912 79.4H285.912V82.4H282.912V79.4ZM282.912 83H285.912V86H282.912V83ZM297.312 86.6H300.312V89.6H297.312V86.6ZM297.312 101H300.312V104H297.312V101ZM293.712 90.2H296.712V93.2H293.712V90.2ZM293.712 97.4H296.712V100.4H293.712V97.4ZM290.112 90.2H293.112V93.2H290.112V90.2ZM290.112 93.8H293.112V96.8H290.112V93.8ZM286.512 90.2H289.512V93.2H286.512V90.2ZM282.912 86.6H285.912V89.6H282.912V86.6ZM282.912 90.2H285.912V93.2H282.912V90.2ZM282.912 93.8H285.912V96.8H282.912V93.8ZM282.912 97.4H285.912V100.4H282.912V97.4ZM282.912 101H285.912V104H282.912V101ZM318.904 83H321.904V86H318.904V83ZM315.304 79.4H318.304V82.4H315.304V79.4ZM311.704 79.4H314.704V82.4H311.704V79.4ZM308.104 79.4H311.104V82.4H308.104V79.4ZM304.504 83H307.504V86H304.504V83ZM318.904 86.6H321.904V89.6H318.904V86.6ZM318.904 90.2H321.904V93.2H318.904V90.2ZM318.904 93.8H321.904V96.8H318.904V93.8ZM318.904 97.4H321.904V100.4H318.904V97.4ZM318.904 101H321.904V104H318.904V101ZM315.304 90.2H318.304V93.2H315.304V90.2ZM311.704 90.2H314.704V93.2H311.704V90.2ZM308.104 90.2H311.104V93.2H308.104V90.2ZM304.504 86.6H307.504V89.6H304.504V86.6ZM304.504 90.2H307.504V93.2H304.504V90.2ZM304.504 93.8H307.504V96.8H304.504V93.8ZM304.504 97.4H307.504V100.4H304.504V97.4ZM304.504 101H307.504V104H304.504V101ZM27.4 116H30.4V119H27.4V116ZM23.8 112.4H26.8V115.4H23.8V112.4ZM20.2 112.4H23.2V115.4H20.2V112.4ZM16.6 112.4H19.6V115.4H16.6V112.4ZM13 116H16V119H13V116ZM27.4 119.6H30.4V122.6H27.4V119.6ZM27.4 134H30.4V137H27.4V134ZM23.8 123.2H26.8V126.2H23.8V123.2ZM23.8 134H26.8V137H23.8V134ZM20.2 126.8H23.2V129.8H20.2V126.8ZM20.2 134H23.2V137H20.2V134ZM16.6 130.4H19.6V133.4H16.6V130.4ZM16.6 134H19.6V137H16.6V134ZM13 134H16V137H13V134ZM38.1918 130.4H41.1918V133.4H38.1918V130.4ZM38.1918 134H41.1918V137H38.1918V134ZM34.5918 130.4H37.5918V133.4H34.5918V130.4ZM34.5918 134H37.5918V137H34.5918V134ZM59.8023 112.4H62.8023V115.4H59.8023V112.4ZM59.8023 116H62.8023V119H59.8023V116ZM45.4023 112.4H48.4023V115.4H45.4023V112.4ZM45.4023 116H48.4023V119H45.4023V116ZM59.8023 119.6H62.8023V122.6H59.8023V119.6ZM59.8023 123.2H62.8023V126.2H59.8023V123.2ZM59.8023 126.8H62.8023V129.8H59.8023V126.8ZM56.2023 130.4H59.2023V133.4H56.2023V130.4ZM52.6023 134H55.6023V137H52.6023V134ZM49.0023 130.4H52.0023V133.4H49.0023V130.4ZM45.4023 119.6H48.4023V122.6H45.4023V119.6ZM45.4023 123.2H48.4023V126.2H45.4023V123.2ZM45.4023 126.8H48.4023V129.8H45.4023V126.8ZM81.3941 112.4H84.3941V115.4H81.3941V112.4ZM77.7941 112.4H80.7941V115.4H77.7941V112.4ZM74.1941 112.4H77.1941V115.4H74.1941V112.4ZM70.5941 112.4H73.5941V115.4H70.5941V112.4ZM66.9941 112.4H69.9941V115.4H66.9941V112.4ZM66.9941 116H69.9941V119H66.9941V116ZM81.3941 134H84.3941V137H81.3941V134ZM77.7941 123.2H80.7941V126.2H77.7941V123.2ZM77.7941 134H80.7941V137H77.7941V134ZM74.1941 123.2H77.1941V126.2H74.1941V123.2ZM74.1941 134H77.1941V137H74.1941V134ZM70.5941 123.2H73.5941V126.2H70.5941V123.2ZM70.5941 134H73.5941V137H70.5941V134ZM66.9941 119.6H69.9941V122.6H66.9941V119.6ZM66.9941 123.2H69.9941V126.2H66.9941V123.2ZM66.9941 126.8H69.9941V129.8H66.9941V126.8ZM66.9941 130.4H69.9941V133.4H66.9941V130.4ZM66.9941 134H69.9941V137H66.9941V134ZM102.986 112.4H105.986V115.4H102.986V112.4ZM102.986 116H105.986V119H102.986V116ZM88.5859 112.4H91.5859V115.4H88.5859V112.4ZM88.5859 116H91.5859V119H88.5859V116ZM102.986 119.6H105.986V122.6H102.986V119.6ZM102.986 123.2H105.986V126.2H102.986V123.2ZM102.986 126.8H105.986V129.8H102.986V126.8ZM102.986 130.4H105.986V133.4H102.986V130.4ZM102.986 134H105.986V137H102.986V134ZM99.3859 126.8H102.386V129.8H99.3859V126.8ZM95.7859 123.2H98.7859V126.2H95.7859V123.2ZM92.1859 119.6H95.1859V122.6H92.1859V119.6ZM88.5859 119.6H91.5859V122.6H88.5859V119.6ZM88.5859 123.2H91.5859V126.2H88.5859V123.2ZM88.5859 126.8H91.5859V129.8H88.5859V126.8ZM88.5859 130.4H91.5859V133.4H88.5859V130.4ZM88.5859 134H91.5859V137H88.5859V134ZM124.578 112.4H127.578V115.4H124.578V112.4ZM120.978 112.4H123.978V115.4H120.978V112.4ZM117.378 112.4H120.378V115.4H117.378V112.4ZM117.378 116H120.378V119H117.378V116ZM113.778 112.4H116.778V115.4H113.778V112.4ZM110.178 112.4H113.178V115.4H110.178V112.4ZM117.378 119.6H120.378V122.6H117.378V119.6ZM117.378 123.2H120.378V126.2H117.378V123.2ZM117.378 126.8H120.378V129.8H117.378V126.8ZM117.378 130.4H120.378V133.4H117.378V130.4ZM117.378 134H120.378V137H117.378V134ZM146.17 116H149.17V119H146.17V116ZM142.57 112.4H145.57V115.4H142.57V112.4ZM138.97 112.4H141.97V115.4H138.97V112.4ZM135.37 112.4H138.37V115.4H135.37V112.4ZM131.77 116H134.77V119H131.77V116ZM146.17 119.6H149.17V122.6H146.17V119.6ZM146.17 123.2H149.17V126.2H146.17V123.2ZM146.17 126.8H149.17V129.8H146.17V126.8ZM146.17 130.4H149.17V133.4H146.17V130.4ZM146.17 134H149.17V137H146.17V134ZM142.57 123.2H145.57V126.2H142.57V123.2ZM138.97 123.2H141.97V126.2H138.97V123.2ZM135.37 123.2H138.37V126.2H135.37V123.2ZM131.77 119.6H134.77V122.6H131.77V119.6ZM131.77 123.2H134.77V126.2H131.77V123.2ZM131.77 126.8H134.77V129.8H131.77V126.8ZM131.77 130.4H134.77V133.4H131.77V130.4ZM131.77 134H134.77V137H131.77V134ZM189.353 112.4H192.353V115.4H189.353V112.4ZM185.753 112.4H188.753V115.4H185.753V112.4ZM182.153 112.4H185.153V115.4H182.153V112.4ZM178.553 112.4H181.553V115.4H178.553V112.4ZM174.953 112.4H177.953V115.4H174.953V112.4ZM174.953 116H177.953V119H174.953V116ZM189.353 134H192.353V137H189.353V134ZM185.753 123.2H188.753V126.2H185.753V123.2ZM185.753 134H188.753V137H185.753V134ZM182.153 123.2H185.153V126.2H182.153V123.2ZM182.153 134H185.153V137H182.153V134ZM178.553 123.2H181.553V126.2H178.553V123.2ZM178.553 134H181.553V137H178.553V134ZM174.953 119.6H177.953V122.6H174.953V119.6ZM174.953 123.2H177.953V126.2H174.953V123.2ZM174.953 126.8H177.953V129.8H174.953V126.8ZM174.953 130.4H177.953V133.4H174.953V130.4ZM174.953 134H177.953V137H174.953V134ZM210.945 112.4H213.945V115.4H210.945V112.4ZM210.945 116H213.945V119H210.945V116ZM196.545 112.4H199.545V115.4H196.545V112.4ZM196.545 116H199.545V119H196.545V116ZM210.945 130.4H213.945V133.4H210.945V130.4ZM210.945 134H213.945V137H210.945V134ZM207.345 119.6H210.345V122.6H207.345V119.6ZM207.345 126.8H210.345V129.8H207.345V126.8ZM203.745 123.2H206.745V126.2H203.745V123.2ZM200.145 119.6H203.145V122.6H200.145V119.6ZM200.145 126.8H203.145V129.8H200.145V126.8ZM196.545 130.4H199.545V133.4H196.545V130.4ZM196.545 134H199.545V137H196.545V134ZM232.537 112.4H235.537V115.4H232.537V112.4ZM228.937 112.4H231.937V115.4H228.937V112.4ZM225.337 112.4H228.337V115.4H225.337V112.4ZM221.737 112.4H224.737V115.4H221.737V112.4ZM218.137 112.4H221.137V115.4H218.137V112.4ZM218.137 116H221.137V119H218.137V116ZM232.537 134H235.537V137H232.537V134ZM228.937 123.2H231.937V126.2H228.937V123.2ZM228.937 134H231.937V137H228.937V134ZM225.337 123.2H228.337V126.2H225.337V123.2ZM225.337 134H228.337V137H225.337V134ZM221.737 123.2H224.737V126.2H221.737V123.2ZM221.737 134H224.737V137H221.737V134ZM218.137 119.6H221.137V122.6H218.137V119.6ZM218.137 123.2H221.137V126.2H218.137V123.2ZM218.137 126.8H221.137V129.8H218.137V126.8ZM218.137 130.4H221.137V133.4H218.137V130.4ZM218.137 134H221.137V137H218.137V134ZM254.129 112.4H257.129V115.4H254.129V112.4ZM254.129 116H257.129V119H254.129V116ZM239.729 112.4H242.729V115.4H239.729V112.4ZM239.729 116H242.729V119H239.729V116ZM254.129 119.6H257.129V122.6H254.129V119.6ZM254.129 123.2H257.129V126.2H254.129V123.2ZM254.129 126.8H257.129V129.8H254.129V126.8ZM254.129 130.4H257.129V133.4H254.129V130.4ZM254.129 134H257.129V137H254.129V134ZM250.529 126.8H253.529V129.8H250.529V126.8ZM246.929 123.2H249.929V126.2H246.929V123.2ZM243.329 119.6H246.329V122.6H243.329V119.6ZM239.729 119.6H242.729V122.6H239.729V119.6ZM239.729 123.2H242.729V126.2H239.729V123.2ZM239.729 126.8H242.729V129.8H239.729V126.8ZM239.729 130.4H242.729V133.4H239.729V130.4ZM239.729 134H242.729V137H239.729V134ZM275.72 112.4H278.72V115.4H275.72V112.4ZM272.12 112.4H275.12V115.4H272.12V112.4ZM268.52 112.4H271.52V115.4H268.52V112.4ZM268.52 116H271.52V119H268.52V116ZM264.92 112.4H267.92V115.4H264.92V112.4ZM261.32 112.4H264.32V115.4H261.32V112.4ZM268.52 119.6H271.52V122.6H268.52V119.6ZM268.52 123.2H271.52V126.2H268.52V123.2ZM268.52 126.8H271.52V129.8H268.52V126.8ZM268.52 130.4H271.52V133.4H268.52V130.4ZM268.52 134H271.52V137H268.52V134ZM297.312 116H300.312V119H297.312V116ZM293.712 112.4H296.712V115.4H293.712V112.4ZM290.112 112.4H293.112V115.4H290.112V112.4ZM286.512 112.4H289.512V115.4H286.512V112.4ZM282.912 116H285.912V119H282.912V116ZM297.312 119.6H300.312V122.6H297.312V119.6ZM297.312 123.2H300.312V126.2H297.312V123.2ZM297.312 126.8H300.312V129.8H297.312V126.8ZM297.312 130.4H300.312V133.4H297.312V130.4ZM297.312 134H300.312V137H297.312V134ZM293.712 123.2H296.712V126.2H293.712V123.2ZM290.112 123.2H293.112V126.2H290.112V123.2ZM286.512 123.2H289.512V126.2H286.512V123.2ZM282.912 119.6H285.912V122.6H282.912V119.6ZM282.912 123.2H285.912V126.2H282.912V123.2ZM282.912 126.8H285.912V129.8H282.912V126.8ZM282.912 130.4H285.912V133.4H282.912V130.4ZM282.912 134H285.912V137H282.912V134ZM27.4 149H30.4V152H27.4V149ZM23.8 145.4H26.8V148.4H23.8V145.4ZM20.2 145.4H23.2V148.4H20.2V145.4ZM16.6 145.4H19.6V148.4H16.6V145.4ZM13 149H16V152H13V149ZM27.4 152.6H30.4V155.6H27.4V152.6ZM27.4 159.8H30.4V162.8H27.4V159.8ZM27.4 163.4H30.4V166.4H27.4V163.4ZM23.8 156.2H26.8V159.2H23.8V156.2ZM23.8 167H26.8V170H23.8V167ZM20.2 156.2H23.2V159.2H20.2V156.2ZM20.2 167H23.2V170H20.2V167ZM16.6 167H19.6V170H16.6V167ZM13 163.4H16V166.4H13V163.4ZM38.1918 163.4H41.1918V166.4H38.1918V163.4ZM38.1918 167H41.1918V170H38.1918V167ZM34.5918 163.4H37.5918V166.4H34.5918V163.4ZM34.5918 167H37.5918V170H34.5918V167ZM59.8023 149H62.8023V152H59.8023V149ZM56.2023 145.4H59.2023V148.4H56.2023V145.4ZM52.6023 145.4H55.6023V148.4H52.6023V145.4ZM49.0023 145.4H52.0023V148.4H49.0023V145.4ZM45.4023 149H48.4023V152H45.4023V149ZM59.8023 163.4H62.8023V166.4H59.8023V163.4ZM56.2023 167H59.2023V170H56.2023V167ZM52.6023 167H55.6023V170H52.6023V167ZM49.0023 167H52.0023V170H49.0023V167ZM45.4023 152.6H48.4023V155.6H45.4023V152.6ZM45.4023 156.2H48.4023V159.2H45.4023V156.2ZM45.4023 159.8H48.4023V162.8H45.4023V159.8ZM45.4023 163.4H48.4023V166.4H45.4023V163.4ZM81.3941 149H84.3941V152H81.3941V149ZM77.7941 145.4H80.7941V148.4H77.7941V145.4ZM74.1941 145.4H77.1941V148.4H74.1941V145.4ZM70.5941 145.4H73.5941V148.4H70.5941V145.4ZM66.9941 149H69.9941V152H66.9941V149ZM81.3941 152.6H84.3941V155.6H81.3941V152.6ZM81.3941 156.2H84.3941V159.2H81.3941V156.2ZM81.3941 159.8H84.3941V162.8H81.3941V159.8ZM81.3941 163.4H84.3941V166.4H81.3941V163.4ZM77.7941 167H80.7941V170H77.7941V167ZM74.1941 167H77.1941V170H74.1941V167ZM70.5941 167H73.5941V170H70.5941V167ZM66.9941 152.6H69.9941V155.6H66.9941V152.6ZM66.9941 156.2H69.9941V159.2H66.9941V156.2ZM66.9941 159.8H69.9941V162.8H66.9941V159.8ZM66.9941 163.4H69.9941V166.4H66.9941V163.4ZM102.986 145.4H105.986V148.4H102.986V145.4ZM102.986 149H105.986V152H102.986V149ZM99.3859 149H102.386V152H99.3859V149ZM92.1859 149H95.1859V152H92.1859V149ZM88.5859 145.4H91.5859V148.4H88.5859V145.4ZM88.5859 149H91.5859V152H88.5859V149ZM102.986 152.6H105.986V155.6H102.986V152.6ZM102.986 156.2H105.986V159.2H102.986V156.2ZM102.986 159.8H105.986V162.8H102.986V159.8ZM102.986 163.4H105.986V166.4H102.986V163.4ZM102.986 167H105.986V170H102.986V167ZM95.7859 152.6H98.7859V155.6H95.7859V152.6ZM95.7859 156.2H98.7859V159.2H95.7859V156.2ZM88.5859 152.6H91.5859V155.6H88.5859V152.6ZM88.5859 156.2H91.5859V159.2H88.5859V156.2ZM88.5859 159.8H91.5859V162.8H88.5859V159.8ZM88.5859 163.4H91.5859V166.4H88.5859V163.4ZM88.5859 167H91.5859V170H88.5859V167ZM124.578 145.4H127.578V148.4H124.578V145.4ZM120.978 145.4H123.978V148.4H120.978V145.4ZM117.378 145.4H120.378V148.4H117.378V145.4ZM113.778 145.4H116.778V148.4H113.778V145.4ZM110.178 145.4H113.178V148.4H110.178V145.4ZM110.178 149H113.178V152H110.178V149ZM124.578 167H127.578V170H124.578V167ZM120.978 156.2H123.978V159.2H120.978V156.2ZM120.978 167H123.978V170H120.978V167ZM117.378 156.2H120.378V159.2H117.378V156.2ZM117.378 167H120.378V170H117.378V167ZM113.778 156.2H116.778V159.2H113.778V156.2ZM113.778 167H116.778V170H113.778V167ZM110.178 152.6H113.178V155.6H110.178V152.6ZM110.178 156.2H113.178V159.2H110.178V156.2ZM110.178 159.8H113.178V162.8H110.178V159.8ZM110.178 163.4H113.178V166.4H110.178V163.4ZM110.178 167H113.178V170H110.178V167ZM146.17 149H149.17V152H146.17V149ZM142.57 145.4H145.57V148.4H142.57V145.4ZM138.97 145.4H141.97V148.4H138.97V145.4ZM135.37 145.4H138.37V148.4H135.37V145.4ZM131.77 145.4H134.77V148.4H131.77V145.4ZM131.77 149H134.77V152H131.77V149ZM146.17 152.6H149.17V155.6H146.17V152.6ZM146.17 167H149.17V170H146.17V167ZM142.57 156.2H145.57V159.2H142.57V156.2ZM142.57 163.4H145.57V166.4H142.57V163.4ZM138.97 156.2H141.97V159.2H138.97V156.2ZM138.97 159.8H141.97V162.8H138.97V159.8ZM135.37 156.2H138.37V159.2H135.37V156.2ZM131.77 152.6H134.77V155.6H131.77V152.6ZM131.77 156.2H134.77V159.2H131.77V156.2ZM131.77 159.8H134.77V162.8H131.77V159.8ZM131.77 163.4H134.77V166.4H131.77V163.4ZM131.77 167H134.77V170H131.77V167ZM167.761 149H170.761V152H167.761V149ZM164.161 145.4H167.161V148.4H164.161V145.4ZM160.561 145.4H163.561V148.4H160.561V145.4ZM156.961 145.4H159.961V148.4H156.961V145.4ZM153.361 149H156.361V152H153.361V149ZM167.761 163.4H170.761V166.4H167.761V163.4ZM164.161 167H167.161V170H164.161V167ZM160.561 167H163.561V170H160.561V167ZM156.961 167H159.961V170H156.961V167ZM153.361 152.6H156.361V155.6H153.361V152.6ZM153.361 156.2H156.361V159.2H153.361V156.2ZM153.361 159.8H156.361V162.8H153.361V159.8ZM153.361 163.4H156.361V166.4H153.361V163.4ZM182.153 145.4H185.153V148.4H182.153V145.4ZM178.553 145.4H181.553V148.4H178.553V145.4ZM178.553 149H181.553V152H178.553V149ZM174.953 145.4H177.953V148.4H174.953V145.4ZM182.153 167H185.153V170H182.153V167ZM178.553 152.6H181.553V155.6H178.553V152.6ZM178.553 156.2H181.553V159.2H178.553V156.2ZM178.553 159.8H181.553V162.8H178.553V159.8ZM178.553 163.4H181.553V166.4H178.553V163.4ZM178.553 167H181.553V170H178.553V167ZM174.953 167H177.953V170H174.953V167ZM203.767 149H206.767V152H203.767V149ZM200.167 145.4H203.167V148.4H200.167V145.4ZM196.567 145.4H199.567V148.4H196.567V145.4ZM192.967 145.4H195.967V148.4H192.967V145.4ZM189.367 149H192.367V152H189.367V149ZM203.767 152.6H206.767V155.6H203.767V152.6ZM203.767 156.2H206.767V159.2H203.767V156.2ZM203.767 159.8H206.767V162.8H203.767V159.8ZM203.767 163.4H206.767V166.4H203.767V163.4ZM200.167 167H203.167V170H200.167V167ZM196.567 167H199.567V170H196.567V167ZM192.967 167H195.967V170H192.967V167ZM189.367 152.6H192.367V155.6H189.367V152.6ZM189.367 156.2H192.367V159.2H189.367V156.2ZM189.367 159.8H192.367V162.8H189.367V159.8ZM189.367 163.4H192.367V166.4H189.367V163.4ZM23.8 178.4H26.8V181.4H23.8V178.4ZM23.8 182H26.8V185H23.8V182ZM20.2 182H23.2V185H20.2V182ZM27.4 192.8H30.4V195.8H27.4V192.8ZM23.8 185.6H26.8V188.6H23.8V185.6ZM23.8 189.2H26.8V192.2H23.8V189.2ZM23.8 192.8H26.8V195.8H23.8V192.8ZM23.8 196.4H26.8V199.4H23.8V196.4ZM23.8 200H26.8V203H23.8V200ZM20.2 192.8H23.2V195.8H20.2V192.8ZM16.6 185.6H19.6V188.6H16.6V185.6ZM16.6 192.8H19.6V195.8H16.6V192.8ZM13 189.2H16V192.2H13V189.2ZM13 192.8H16V195.8H13V192.8ZM38.1918 196.4H41.1918V199.4H38.1918V196.4ZM38.1918 200H41.1918V203H38.1918V200ZM34.5918 196.4H37.5918V199.4H34.5918V196.4ZM34.5918 200H37.5918V203H34.5918V200ZM59.8023 178.4H62.8023V181.4H59.8023V178.4ZM59.8023 182H62.8023V185H59.8023V182ZM45.4023 178.4H48.4023V181.4H45.4023V178.4ZM45.4023 182H48.4023V185H45.4023V182ZM59.8023 185.6H62.8023V188.6H59.8023V185.6ZM59.8023 189.2H62.8023V192.2H59.8023V189.2ZM59.8023 192.8H62.8023V195.8H59.8023V192.8ZM56.2023 196.4H59.2023V199.4H56.2023V196.4ZM52.6023 200H55.6023V203H52.6023V200ZM49.0023 196.4H52.0023V199.4H49.0023V196.4ZM45.4023 185.6H48.4023V188.6H45.4023V185.6ZM45.4023 189.2H48.4023V192.2H45.4023V189.2ZM45.4023 192.8H48.4023V195.8H45.4023V192.8ZM81.3941 178.4H84.3941V181.4H81.3941V178.4ZM77.7941 178.4H80.7941V181.4H77.7941V178.4ZM74.1941 178.4H77.1941V181.4H74.1941V178.4ZM70.5941 178.4H73.5941V181.4H70.5941V178.4ZM66.9941 178.4H69.9941V181.4H66.9941V178.4ZM66.9941 182H69.9941V185H66.9941V182ZM81.3941 200H84.3941V203H81.3941V200ZM77.7941 189.2H80.7941V192.2H77.7941V189.2ZM77.7941 200H80.7941V203H77.7941V200ZM74.1941 189.2H77.1941V192.2H74.1941V189.2ZM74.1941 200H77.1941V203H74.1941V200ZM70.5941 189.2H73.5941V192.2H70.5941V189.2ZM70.5941 200H73.5941V203H70.5941V200ZM66.9941 185.6H69.9941V188.6H66.9941V185.6ZM66.9941 189.2H69.9941V192.2H66.9941V189.2ZM66.9941 192.8H69.9941V195.8H66.9941V192.8ZM66.9941 196.4H69.9941V199.4H66.9941V196.4ZM66.9941 200H69.9941V203H66.9941V200ZM102.986 178.4H105.986V181.4H102.986V178.4ZM102.986 182H105.986V185H102.986V182ZM88.5859 178.4H91.5859V181.4H88.5859V178.4ZM88.5859 182H91.5859V185H88.5859V182ZM102.986 185.6H105.986V188.6H102.986V185.6ZM102.986 189.2H105.986V192.2H102.986V189.2ZM102.986 192.8H105.986V195.8H102.986V192.8ZM102.986 196.4H105.986V199.4H102.986V196.4ZM102.986 200H105.986V203H102.986V200ZM99.3859 192.8H102.386V195.8H99.3859V192.8ZM95.7859 189.2H98.7859V192.2H95.7859V189.2ZM92.1859 185.6H95.1859V188.6H92.1859V185.6ZM88.5859 185.6H91.5859V188.6H88.5859V185.6ZM88.5859 189.2H91.5859V192.2H88.5859V189.2ZM88.5859 192.8H91.5859V195.8H88.5859V192.8ZM88.5859 196.4H91.5859V199.4H88.5859V196.4ZM88.5859 200H91.5859V203H88.5859V200ZM124.578 178.4H127.578V181.4H124.578V178.4ZM120.978 178.4H123.978V181.4H120.978V178.4ZM117.378 178.4H120.378V181.4H117.378V178.4ZM117.378 182H120.378V185H117.378V182ZM113.778 178.4H116.778V181.4H113.778V178.4ZM110.178 178.4H113.178V181.4H110.178V178.4ZM117.378 185.6H120.378V188.6H117.378V185.6ZM117.378 189.2H120.378V192.2H117.378V189.2ZM117.378 192.8H120.378V195.8H117.378V192.8ZM117.378 196.4H120.378V199.4H117.378V196.4ZM117.378 200H120.378V203H117.378V200ZM146.17 182H149.17V185H146.17V182ZM142.57 178.4H145.57V181.4H142.57V178.4ZM138.97 178.4H141.97V181.4H138.97V178.4ZM135.37 178.4H138.37V181.4H135.37V178.4ZM131.77 182H134.77V185H131.77V182ZM146.17 185.6H149.17V188.6H146.17V185.6ZM146.17 189.2H149.17V192.2H146.17V189.2ZM146.17 192.8H149.17V195.8H146.17V192.8ZM146.17 196.4H149.17V199.4H146.17V196.4ZM146.17 200H149.17V203H146.17V200ZM142.57 189.2H145.57V192.2H142.57V189.2ZM138.97 189.2H141.97V192.2H138.97V189.2ZM135.37 189.2H138.37V192.2H135.37V189.2ZM131.77 185.6H134.77V188.6H131.77V185.6ZM131.77 189.2H134.77V192.2H131.77V189.2ZM131.77 192.8H134.77V195.8H131.77V192.8ZM131.77 196.4H134.77V199.4H131.77V196.4ZM131.77 200H134.77V203H131.77V200ZM189.353 182H192.353V185H189.353V182ZM185.753 178.4H188.753V181.4H185.753V178.4ZM182.153 178.4H185.153V181.4H182.153V178.4ZM178.553 178.4H181.553V181.4H178.553V178.4ZM174.953 178.4H177.953V181.4H174.953V178.4ZM174.953 182H177.953V185H174.953V182ZM189.353 185.6H192.353V188.6H189.353V185.6ZM189.353 189.2H192.353V192.2H189.353V189.2ZM189.353 192.8H192.353V195.8H189.353V192.8ZM189.353 196.4H192.353V199.4H189.353V196.4ZM185.753 200H188.753V203H185.753V200ZM182.153 200H185.153V203H182.153V200ZM178.553 200H181.553V203H178.553V200ZM174.953 185.6H177.953V188.6H174.953V185.6ZM174.953 189.2H177.953V192.2H174.953V189.2ZM174.953 192.8H177.953V195.8H174.953V192.8ZM174.953 196.4H177.953V199.4H174.953V196.4ZM174.953 200H177.953V203H174.953V200ZM203.745 178.4H206.745V181.4H203.745V178.4ZM200.145 178.4H203.145V181.4H200.145V178.4ZM200.145 182H203.145V185H200.145V182ZM196.545 178.4H199.545V181.4H196.545V178.4ZM203.745 200H206.745V203H203.745V200ZM200.145 185.6H203.145V188.6H200.145V185.6ZM200.145 189.2H203.145V192.2H200.145V189.2ZM200.145 192.8H203.145V195.8H200.145V192.8ZM200.145 196.4H203.145V199.4H200.145V196.4ZM200.145 200H203.145V203H200.145V200ZM196.545 200H199.545V203H196.545V200ZM225.359 178.4H228.359V181.4H225.359V178.4ZM225.359 182H228.359V185H225.359V182ZM210.959 178.4H213.959V181.4H210.959V178.4ZM210.959 182H213.959V185H210.959V182ZM225.359 185.6H228.359V188.6H225.359V185.6ZM225.359 189.2H228.359V192.2H225.359V189.2ZM225.359 192.8H228.359V195.8H225.359V192.8ZM221.759 196.4H224.759V199.4H221.759V196.4ZM218.159 200H221.159V203H218.159V200ZM214.559 196.4H217.559V199.4H214.559V196.4ZM210.959 185.6H213.959V188.6H210.959V185.6ZM210.959 189.2H213.959V192.2H210.959V189.2ZM210.959 192.8H213.959V195.8H210.959V192.8ZM239.751 178.4H242.751V181.4H239.751V178.4ZM236.151 178.4H239.151V181.4H236.151V178.4ZM236.151 182H239.151V185H236.151V182ZM232.551 178.4H235.551V181.4H232.551V178.4ZM239.751 200H242.751V203H239.751V200ZM236.151 185.6H239.151V188.6H236.151V185.6ZM236.151 189.2H239.151V192.2H236.151V189.2ZM236.151 192.8H239.151V195.8H236.151V192.8ZM236.151 196.4H239.151V199.4H236.151V196.4ZM236.151 200H239.151V203H236.151V200ZM232.551 200H235.551V203H232.551V200ZM261.365 182H264.365V185H261.365V182ZM257.765 178.4H260.765V181.4H257.765V178.4ZM254.165 178.4H257.165V181.4H254.165V178.4ZM250.565 178.4H253.565V181.4H250.565V178.4ZM246.965 178.4H249.965V181.4H246.965V178.4ZM246.965 182H249.965V185H246.965V182ZM261.365 185.6H264.365V188.6H261.365V185.6ZM261.365 189.2H264.365V192.2H261.365V189.2ZM261.365 192.8H264.365V195.8H261.365V192.8ZM261.365 196.4H264.365V199.4H261.365V196.4ZM257.765 200H260.765V203H257.765V200ZM254.165 200H257.165V203H254.165V200ZM250.565 200H253.565V203H250.565V200ZM246.965 185.6H249.965V188.6H246.965V185.6ZM246.965 189.2H249.965V192.2H246.965V189.2ZM246.965 192.8H249.965V195.8H246.965V192.8ZM246.965 196.4H249.965V199.4H246.965V196.4ZM246.965 200H249.965V203H246.965V200ZM275.757 178.4H278.757V181.4H275.757V178.4ZM272.157 178.4H275.157V181.4H272.157V178.4ZM272.157 182H275.157V185H272.157V182ZM268.557 178.4H271.557V181.4H268.557V178.4ZM275.757 200H278.757V203H275.757V200ZM272.157 185.6H275.157V188.6H272.157V185.6ZM272.157 189.2H275.157V192.2H272.157V189.2ZM272.157 192.8H275.157V195.8H272.157V192.8ZM272.157 196.4H275.157V199.4H272.157V196.4ZM272.157 200H275.157V203H272.157V200ZM268.557 200H271.557V203H268.557V200ZM297.371 182H300.371V185H297.371V182ZM293.771 178.4H296.771V181.4H293.771V178.4ZM290.171 178.4H293.171V181.4H290.171V178.4ZM286.571 178.4H289.571V181.4H286.571V178.4ZM282.971 178.4H285.971V181.4H282.971V178.4ZM282.971 182H285.971V185H282.971V182ZM297.371 185.6H300.371V188.6H297.371V185.6ZM297.371 189.2H300.371V192.2H297.371V189.2ZM297.371 192.8H300.371V195.8H297.371V192.8ZM297.371 196.4H300.371V199.4H297.371V196.4ZM293.771 200H296.771V203H293.771V200ZM290.171 200H293.171V203H290.171V200ZM286.571 200H289.571V203H286.571V200ZM282.971 185.6H285.971V188.6H282.971V185.6ZM282.971 189.2H285.971V192.2H282.971V189.2ZM282.971 192.8H285.971V195.8H282.971V192.8ZM282.971 196.4H285.971V199.4H282.971V196.4ZM282.971 200H285.971V203H282.971V200ZM318.963 182H321.963V185H318.963V182ZM315.363 178.4H318.363V181.4H315.363V178.4ZM311.763 178.4H314.763V181.4H311.763V178.4ZM308.163 178.4H311.163V181.4H308.163V178.4ZM304.562 182H307.563V185H304.562V182ZM318.963 185.6H321.963V188.6H318.963V185.6ZM318.963 189.2H321.963V192.2H318.963V189.2ZM318.963 192.8H321.963V195.8H318.963V192.8ZM318.963 196.4H321.963V199.4H318.963V196.4ZM318.963 200H321.963V203H318.963V200ZM315.363 189.2H318.363V192.2H315.363V189.2ZM311.763 189.2H314.763V192.2H311.763V189.2ZM308.163 189.2H311.163V192.2H308.163V189.2ZM304.562 185.6H307.563V188.6H304.562V185.6ZM304.562 189.2H307.563V192.2H304.562V189.2ZM304.562 192.8H307.563V195.8H304.562V192.8ZM304.562 196.4H307.563V199.4H304.562V196.4ZM304.562 200H307.563V203H304.562V200Z" fill="#5B65C2"/>
<rect x="1.5" y="1.5" width="449" height="277" stroke="#5B65C2" stroke-width="3"/>
</svg>
