<svg width="452" height="280" viewBox="0 0 452 280" fill="none" xmlns="http://www.w3.org/2000/svg">
<rect width="452" height="280" fill="white"/>
<rect width="452" height="47" fill="#5B65C2"/>
<path d="M157.622 15H160.622V18H157.622V15ZM154.022 11.4H157.022V14.4H154.022V11.4ZM150.422 11.4H153.422V14.4H150.422V11.4ZM146.822 11.4H149.822V14.4H146.822V11.4ZM143.222 15H146.222V18H143.222V15ZM157.622 29.4H160.622V32.4H157.622V29.4ZM154.022 33H157.022V36H154.022V33ZM150.422 33H153.422V36H150.422V33ZM146.822 33H149.822V36H146.822V33ZM143.222 18.6H146.222V21.6H143.222V18.6ZM143.222 22.2H146.222V25.2H143.222V22.2ZM143.222 25.8H146.222V28.8H143.222V25.8ZM143.222 29.4H146.222V32.4H143.222V29.4ZM179.213 15H182.213V18H179.213V15ZM175.613 11.4H178.613V14.4H175.613V11.4ZM172.013 11.4H175.013V14.4H172.013V11.4ZM168.413 11.4H171.413V14.4H168.413V11.4ZM164.813 15H167.813V18H164.813V15ZM179.213 18.6H182.213V21.6H179.213V18.6ZM179.213 22.2H182.213V25.2H179.213V22.2ZM179.213 25.8H182.213V28.8H179.213V25.8ZM179.213 29.4H182.213V32.4H179.213V29.4ZM175.613 33H178.613V36H175.613V33ZM172.013 33H175.013V36H172.013V33ZM168.413 33H171.413V36H168.413V33ZM164.813 18.6H167.813V21.6H164.813V18.6ZM164.813 22.2H167.813V25.2H164.813V22.2ZM164.813 25.8H167.813V28.8H164.813V25.8ZM164.813 29.4H167.813V32.4H164.813V29.4ZM200.805 11.4H203.805V14.4H200.805V11.4ZM200.805 15H203.805V18H200.805V15ZM197.205 15H200.205V18H197.205V15ZM190.005 15H193.005V18H190.005V15ZM186.405 11.4H189.405V14.4H186.405V11.4ZM186.405 15H189.405V18H186.405V15ZM200.805 18.6H203.805V21.6H200.805V18.6ZM200.805 22.2H203.805V25.2H200.805V22.2ZM200.805 25.8H203.805V28.8H200.805V25.8ZM200.805 29.4H203.805V32.4H200.805V29.4ZM200.805 33H203.805V36H200.805V33ZM193.605 18.6H196.605V21.6H193.605V18.6ZM193.605 22.2H196.605V25.2H193.605V22.2ZM186.405 18.6H189.405V21.6H186.405V18.6ZM186.405 22.2H189.405V25.2H186.405V22.2ZM186.405 25.8H189.405V28.8H186.405V25.8ZM186.405 29.4H189.405V32.4H186.405V29.4ZM186.405 33H189.405V36H186.405V33ZM222.397 11.4H225.397V14.4H222.397V11.4ZM218.797 11.4H221.797V14.4H218.797V11.4ZM215.197 11.4H218.197V14.4H215.197V11.4ZM211.597 11.4H214.597V14.4H211.597V11.4ZM207.997 11.4H210.997V14.4H207.997V11.4ZM207.997 15H210.997V18H207.997V15ZM222.397 33H225.397V36H222.397V33ZM218.797 22.2H221.797V25.2H218.797V22.2ZM218.797 33H221.797V36H218.797V33ZM215.197 22.2H218.197V25.2H215.197V22.2ZM215.197 33H218.197V36H215.197V33ZM211.597 22.2H214.597V25.2H211.597V22.2ZM211.597 33H214.597V36H211.597V33ZM207.997 18.6H210.997V21.6H207.997V18.6ZM207.997 22.2H210.997V25.2H207.997V22.2ZM207.997 25.8H210.997V28.8H207.997V25.8ZM207.997 29.4H210.997V32.4H207.997V29.4ZM207.997 33H210.997V36H207.997V33ZM243.989 15H246.989V18H243.989V15ZM240.389 11.4H243.389V14.4H240.389V11.4ZM236.789 11.4H239.789V14.4H236.789V11.4ZM233.189 11.4H236.189V14.4H233.189V11.4ZM229.589 11.4H232.589V14.4H229.589V11.4ZM229.589 15H232.589V18H229.589V15ZM243.989 18.6H246.989V21.6H243.989V18.6ZM243.989 33H246.989V36H243.989V33ZM240.389 22.2H243.389V25.2H240.389V22.2ZM240.389 29.4H243.389V32.4H240.389V29.4ZM236.789 22.2H239.789V25.2H236.789V22.2ZM236.789 25.8H239.789V28.8H236.789V25.8ZM233.189 22.2H236.189V25.2H233.189V22.2ZM229.589 18.6H232.589V21.6H229.589V18.6ZM229.589 22.2H232.589V25.2H229.589V22.2ZM229.589 25.8H232.589V28.8H229.589V25.8ZM229.589 29.4H232.589V32.4H229.589V29.4ZM229.589 33H232.589V36H229.589V33ZM265.581 15H268.581V18H265.581V15ZM261.981 11.4H264.981V14.4H261.981V11.4ZM258.381 11.4H261.381V14.4H258.381V11.4ZM254.781 11.4H257.781V14.4H254.781V11.4ZM251.181 15H254.181V18H251.181V15ZM265.581 29.4H268.581V32.4H265.581V29.4ZM261.981 33H264.981V36H261.981V33ZM258.381 33H261.381V36H258.381V33ZM254.781 33H257.781V36H254.781V33ZM251.181 18.6H254.181V21.6H251.181V18.6ZM251.181 22.2H254.181V25.2H251.181V22.2ZM251.181 25.8H254.181V28.8H251.181V25.8ZM251.181 29.4H254.181V32.4H251.181V29.4ZM279.972 11.4H282.972V14.4H279.972V11.4ZM276.372 11.4H279.372V14.4H276.372V11.4ZM276.372 15H279.372V18H276.372V15ZM272.772 11.4H275.772V14.4H272.772V11.4ZM279.972 33H282.972V36H279.972V33ZM276.372 18.6H279.372V21.6H276.372V18.6ZM276.372 22.2H279.372V25.2H276.372V22.2ZM276.372 25.8H279.372V28.8H276.372V25.8ZM276.372 29.4H279.372V32.4H276.372V29.4ZM276.372 33H279.372V36H276.372V33ZM272.772 33H275.772V36H272.772V33ZM301.587 15H304.587V18H301.587V15ZM297.987 11.4H300.987V14.4H297.987V11.4ZM294.387 11.4H297.387V14.4H294.387V11.4ZM290.787 11.4H293.787V14.4H290.787V11.4ZM287.187 15H290.187V18H287.187V15ZM301.587 18.6H304.587V21.6H301.587V18.6ZM301.587 22.2H304.587V25.2H301.587V22.2ZM301.587 25.8H304.587V28.8H301.587V25.8ZM301.587 29.4H304.587V32.4H301.587V29.4ZM297.987 33H300.987V36H297.987V33ZM294.387 33H297.387V36H294.387V33ZM290.787 33H293.787V36H290.787V33ZM287.187 18.6H290.187V21.6H287.187V18.6ZM287.187 22.2H290.187V25.2H287.187V22.2ZM287.187 25.8H290.187V28.8H287.187V25.8ZM287.187 29.4H290.187V32.4H287.187V29.4Z" fill="white"/>
<path d="M20.2 79.4H23.2V82.4H20.2V79.4ZM20.2 83H23.2V86H20.2V83ZM16.6 83H19.6V86H16.6V83ZM27.4 101H30.4V104H27.4V101ZM23.8 101H26.8V104H23.8V101ZM20.2 86.6H23.2V89.6H20.2V86.6ZM20.2 90.2H23.2V93.2H20.2V90.2ZM20.2 93.8H23.2V96.8H20.2V93.8ZM20.2 97.4H23.2V100.4H20.2V97.4ZM20.2 101H23.2V104H20.2V101ZM16.6 101H19.6V104H16.6V101ZM13 86.6H16V89.6H13V86.6ZM13 101H16V104H13V101ZM38.1918 97.4H41.1918V100.4H38.1918V97.4ZM38.1918 101H41.1918V104H38.1918V101ZM34.5918 97.4H37.5918V100.4H34.5918V97.4ZM34.5918 101H37.5918V104H34.5918V101ZM59.8023 79.4H62.8023V82.4H59.8023V79.4ZM59.8023 83H62.8023V86H59.8023V83ZM45.4023 79.4H48.4023V82.4H45.4023V79.4ZM45.4023 83H48.4023V86H45.4023V83ZM59.8023 86.6H62.8023V89.6H59.8023V86.6ZM59.8023 90.2H62.8023V93.2H59.8023V90.2ZM59.8023 93.8H62.8023V96.8H59.8023V93.8ZM56.2023 97.4H59.2023V100.4H56.2023V97.4ZM52.6023 101H55.6023V104H52.6023V101ZM49.0023 97.4H52.0023V100.4H49.0023V97.4ZM45.4023 86.6H48.4023V89.6H45.4023V86.6ZM45.4023 90.2H48.4023V93.2H45.4023V90.2ZM45.4023 93.8H48.4023V96.8H45.4023V93.8ZM81.3941 79.4H84.3941V82.4H81.3941V79.4ZM77.7941 79.4H80.7941V82.4H77.7941V79.4ZM74.1941 79.4H77.1941V82.4H74.1941V79.4ZM70.5941 79.4H73.5941V82.4H70.5941V79.4ZM66.9941 79.4H69.9941V82.4H66.9941V79.4ZM66.9941 83H69.9941V86H66.9941V83ZM81.3941 101H84.3941V104H81.3941V101ZM77.7941 90.2H80.7941V93.2H77.7941V90.2ZM77.7941 101H80.7941V104H77.7941V101ZM74.1941 90.2H77.1941V93.2H74.1941V90.2ZM74.1941 101H77.1941V104H74.1941V101ZM70.5941 90.2H73.5941V93.2H70.5941V90.2ZM70.5941 101H73.5941V104H70.5941V101ZM66.9941 86.6H69.9941V89.6H66.9941V86.6ZM66.9941 90.2H69.9941V93.2H66.9941V90.2ZM66.9941 93.8H69.9941V96.8H66.9941V93.8ZM66.9941 97.4H69.9941V100.4H66.9941V97.4ZM66.9941 101H69.9941V104H66.9941V101ZM102.986 79.4H105.986V82.4H102.986V79.4ZM102.986 83H105.986V86H102.986V83ZM88.5859 79.4H91.5859V82.4H88.5859V79.4ZM88.5859 83H91.5859V86H88.5859V83ZM102.986 86.6H105.986V89.6H102.986V86.6ZM102.986 90.2H105.986V93.2H102.986V90.2ZM102.986 93.8H105.986V96.8H102.986V93.8ZM102.986 97.4H105.986V100.4H102.986V97.4ZM102.986 101H105.986V104H102.986V101ZM99.3859 93.8H102.386V96.8H99.3859V93.8ZM95.7859 90.2H98.7859V93.2H95.7859V90.2ZM92.1859 86.6H95.1859V89.6H92.1859V86.6ZM88.5859 86.6H91.5859V89.6H88.5859V86.6ZM88.5859 90.2H91.5859V93.2H88.5859V90.2ZM88.5859 93.8H91.5859V96.8H88.5859V93.8ZM88.5859 97.4H91.5859V100.4H88.5859V97.4ZM88.5859 101H91.5859V104H88.5859V101ZM124.578 79.4H127.578V82.4H124.578V79.4ZM120.978 79.4H123.978V82.4H120.978V79.4ZM117.378 79.4H120.378V82.4H117.378V79.4ZM117.378 83H120.378V86H117.378V83ZM113.778 79.4H116.778V82.4H113.778V79.4ZM110.178 79.4H113.178V82.4H110.178V79.4ZM117.378 86.6H120.378V89.6H117.378V86.6ZM117.378 90.2H120.378V93.2H117.378V90.2ZM117.378 93.8H120.378V96.8H117.378V93.8ZM117.378 97.4H120.378V100.4H117.378V97.4ZM117.378 101H120.378V104H117.378V101ZM146.17 83H149.17V86H146.17V83ZM142.57 79.4H145.57V82.4H142.57V79.4ZM138.97 79.4H141.97V82.4H138.97V79.4ZM135.37 79.4H138.37V82.4H135.37V79.4ZM131.77 83H134.77V86H131.77V83ZM146.17 86.6H149.17V89.6H146.17V86.6ZM146.17 90.2H149.17V93.2H146.17V90.2ZM146.17 93.8H149.17V96.8H146.17V93.8ZM146.17 97.4H149.17V100.4H146.17V97.4ZM146.17 101H149.17V104H146.17V101ZM142.57 90.2H145.57V93.2H142.57V90.2ZM138.97 90.2H141.97V93.2H138.97V90.2ZM135.37 90.2H138.37V93.2H135.37V90.2ZM131.77 86.6H134.77V89.6H131.77V86.6ZM131.77 90.2H134.77V93.2H131.77V90.2ZM131.77 93.8H134.77V96.8H131.77V93.8ZM131.77 97.4H134.77V100.4H131.77V97.4ZM131.77 101H134.77V104H131.77V101ZM180.353 79.4H183.353V82.4H180.353V79.4ZM176.753 79.4H179.753V82.4H176.753V79.4ZM173.153 79.4H176.153V82.4H173.153V79.4ZM169.553 79.4H172.553V82.4H169.553V79.4ZM165.953 79.4H168.953V82.4H165.953V79.4ZM165.953 83H168.953V86H165.953V83ZM176.753 90.2H179.753V93.2H176.753V90.2ZM173.153 90.2H176.153V93.2H173.153V90.2ZM169.553 90.2H172.553V93.2H169.553V90.2ZM165.953 86.6H168.953V89.6H165.953V86.6ZM165.953 90.2H168.953V93.2H165.953V90.2ZM165.953 93.8H168.953V96.8H165.953V93.8ZM165.953 97.4H168.953V100.4H165.953V97.4ZM165.953 101H168.953V104H165.953V101ZM201.945 83H204.945V86H201.945V83ZM198.345 79.4H201.345V82.4H198.345V79.4ZM194.745 79.4H197.745V82.4H194.745V79.4ZM191.145 79.4H194.145V82.4H191.145V79.4ZM187.545 83H190.545V86H187.545V83ZM201.945 86.6H204.945V89.6H201.945V86.6ZM201.945 90.2H204.945V93.2H201.945V90.2ZM201.945 93.8H204.945V96.8H201.945V93.8ZM201.945 97.4H204.945V100.4H201.945V97.4ZM201.945 101H204.945V104H201.945V101ZM198.345 90.2H201.345V93.2H198.345V90.2ZM194.745 90.2H197.745V93.2H194.745V90.2ZM191.145 90.2H194.145V93.2H191.145V90.2ZM187.545 86.6H190.545V89.6H187.545V86.6ZM187.545 90.2H190.545V93.2H187.545V90.2ZM187.545 93.8H190.545V96.8H187.545V93.8ZM187.545 97.4H190.545V100.4H187.545V97.4ZM187.545 101H190.545V104H187.545V101ZM223.537 83H226.537V86H223.537V83ZM219.937 79.4H222.937V82.4H219.937V79.4ZM216.337 79.4H219.337V82.4H216.337V79.4ZM212.737 79.4H215.737V82.4H212.737V79.4ZM209.137 83H212.137V86H209.137V83ZM223.537 97.4H226.537V100.4H223.537V97.4ZM219.937 101H222.937V104H219.937V101ZM216.337 101H219.337V104H216.337V101ZM212.737 101H215.737V104H212.737V101ZM209.137 86.6H212.137V89.6H209.137V86.6ZM209.137 90.2H212.137V93.2H209.137V90.2ZM209.137 93.8H212.137V96.8H209.137V93.8ZM209.137 97.4H212.137V100.4H209.137V97.4ZM245.129 79.4H248.129V82.4H245.129V79.4ZM241.529 79.4H244.529V82.4H241.529V79.4ZM237.929 79.4H240.929V82.4H237.929V79.4ZM237.929 83H240.929V86H237.929V83ZM234.329 79.4H237.329V82.4H234.329V79.4ZM230.729 79.4H233.729V82.4H230.729V79.4ZM237.929 86.6H240.929V89.6H237.929V86.6ZM237.929 90.2H240.929V93.2H237.929V90.2ZM237.929 93.8H240.929V96.8H237.929V93.8ZM237.929 97.4H240.929V100.4H237.929V97.4ZM237.929 101H240.929V104H237.929V101ZM266.72 79.4H269.72V82.4H266.72V79.4ZM266.72 83H269.72V86H266.72V83ZM252.32 79.4H255.32V82.4H252.32V79.4ZM252.32 83H255.32V86H252.32V83ZM266.72 86.6H269.72V89.6H266.72V86.6ZM266.72 90.2H269.72V93.2H266.72V90.2ZM266.72 93.8H269.72V96.8H266.72V93.8ZM266.72 97.4H269.72V100.4H266.72V97.4ZM263.12 101H266.12V104H263.12V101ZM259.52 101H262.52V104H259.52V101ZM255.92 101H258.92V104H255.92V101ZM252.32 86.6H255.32V89.6H252.32V86.6ZM252.32 90.2H255.32V93.2H252.32V90.2ZM252.32 93.8H255.32V96.8H252.32V93.8ZM252.32 97.4H255.32V100.4H252.32V97.4ZM288.312 83H291.312V86H288.312V83ZM284.712 79.4H287.712V82.4H284.712V79.4ZM281.112 79.4H284.112V82.4H281.112V79.4ZM277.512 79.4H280.512V82.4H277.512V79.4ZM273.912 79.4H276.912V82.4H273.912V79.4ZM273.912 83H276.912V86H273.912V83ZM288.312 86.6H291.312V89.6H288.312V86.6ZM288.312 101H291.312V104H288.312V101ZM284.712 90.2H287.712V93.2H284.712V90.2ZM284.712 97.4H287.712V100.4H284.712V97.4ZM281.112 90.2H284.112V93.2H281.112V90.2ZM281.112 93.8H284.112V96.8H281.112V93.8ZM277.512 90.2H280.512V93.2H277.512V90.2ZM273.912 86.6H276.912V89.6H273.912V86.6ZM273.912 90.2H276.912V93.2H273.912V90.2ZM273.912 93.8H276.912V96.8H273.912V93.8ZM273.912 97.4H276.912V100.4H273.912V97.4ZM273.912 101H276.912V104H273.912V101ZM309.904 83H312.904V86H309.904V83ZM306.304 79.4H309.304V82.4H306.304V79.4ZM302.704 79.4H305.704V82.4H302.704V79.4ZM299.104 79.4H302.104V82.4H299.104V79.4ZM295.504 83H298.504V86H295.504V83ZM309.904 86.6H312.904V89.6H309.904V86.6ZM309.904 90.2H312.904V93.2H309.904V90.2ZM309.904 93.8H312.904V96.8H309.904V93.8ZM309.904 97.4H312.904V100.4H309.904V97.4ZM309.904 101H312.904V104H309.904V101ZM306.304 90.2H309.304V93.2H306.304V90.2ZM302.704 90.2H305.704V93.2H302.704V90.2ZM299.104 90.2H302.104V93.2H299.104V90.2ZM295.504 86.6H298.504V89.6H295.504V86.6ZM295.504 90.2H298.504V93.2H295.504V90.2ZM295.504 93.8H298.504V96.8H295.504V93.8ZM295.504 97.4H298.504V100.4H295.504V97.4ZM295.504 101H298.504V104H295.504V101ZM27.4 116H30.4V119H27.4V116ZM23.8 112.4H26.8V115.4H23.8V112.4ZM20.2 112.4H23.2V115.4H20.2V112.4ZM16.6 112.4H19.6V115.4H16.6V112.4ZM13 116H16V119H13V116ZM27.4 119.6H30.4V122.6H27.4V119.6ZM27.4 134H30.4V137H27.4V134ZM23.8 123.2H26.8V126.2H23.8V123.2ZM23.8 134H26.8V137H23.8V134ZM20.2 126.8H23.2V129.8H20.2V126.8ZM20.2 134H23.2V137H20.2V134ZM16.6 130.4H19.6V133.4H16.6V130.4ZM16.6 134H19.6V137H16.6V134ZM13 134H16V137H13V134ZM38.1918 130.4H41.1918V133.4H38.1918V130.4ZM38.1918 134H41.1918V137H38.1918V134ZM34.5918 130.4H37.5918V133.4H34.5918V130.4ZM34.5918 134H37.5918V137H34.5918V134ZM59.8023 112.4H62.8023V115.4H59.8023V112.4ZM59.8023 116H62.8023V119H59.8023V116ZM45.4023 112.4H48.4023V115.4H45.4023V112.4ZM45.4023 116H48.4023V119H45.4023V116ZM59.8023 119.6H62.8023V122.6H59.8023V119.6ZM59.8023 123.2H62.8023V126.2H59.8023V123.2ZM59.8023 126.8H62.8023V129.8H59.8023V126.8ZM56.2023 130.4H59.2023V133.4H56.2023V130.4ZM52.6023 134H55.6023V137H52.6023V134ZM49.0023 130.4H52.0023V133.4H49.0023V130.4ZM45.4023 119.6H48.4023V122.6H45.4023V119.6ZM45.4023 123.2H48.4023V126.2H45.4023V123.2ZM45.4023 126.8H48.4023V129.8H45.4023V126.8ZM81.3941 112.4H84.3941V115.4H81.3941V112.4ZM77.7941 112.4H80.7941V115.4H77.7941V112.4ZM74.1941 112.4H77.1941V115.4H74.1941V112.4ZM70.5941 112.4H73.5941V115.4H70.5941V112.4ZM66.9941 112.4H69.9941V115.4H66.9941V112.4ZM66.9941 116H69.9941V119H66.9941V116ZM81.3941 134H84.3941V137H81.3941V134ZM77.7941 123.2H80.7941V126.2H77.7941V123.2ZM77.7941 134H80.7941V137H77.7941V134ZM74.1941 123.2H77.1941V126.2H74.1941V123.2ZM74.1941 134H77.1941V137H74.1941V134ZM70.5941 123.2H73.5941V126.2H70.5941V123.2ZM70.5941 134H73.5941V137H70.5941V134ZM66.9941 119.6H69.9941V122.6H66.9941V119.6ZM66.9941 123.2H69.9941V126.2H66.9941V123.2ZM66.9941 126.8H69.9941V129.8H66.9941V126.8ZM66.9941 130.4H69.9941V133.4H66.9941V130.4ZM66.9941 134H69.9941V137H66.9941V134ZM102.986 112.4H105.986V115.4H102.986V112.4ZM102.986 116H105.986V119H102.986V116ZM88.5859 112.4H91.5859V115.4H88.5859V112.4ZM88.5859 116H91.5859V119H88.5859V116ZM102.986 119.6H105.986V122.6H102.986V119.6ZM102.986 123.2H105.986V126.2H102.986V123.2ZM102.986 126.8H105.986V129.8H102.986V126.8ZM102.986 130.4H105.986V133.4H102.986V130.4ZM102.986 134H105.986V137H102.986V134ZM99.3859 126.8H102.386V129.8H99.3859V126.8ZM95.7859 123.2H98.7859V126.2H95.7859V123.2ZM92.1859 119.6H95.1859V122.6H92.1859V119.6ZM88.5859 119.6H91.5859V122.6H88.5859V119.6ZM88.5859 123.2H91.5859V126.2H88.5859V123.2ZM88.5859 126.8H91.5859V129.8H88.5859V126.8ZM88.5859 130.4H91.5859V133.4H88.5859V130.4ZM88.5859 134H91.5859V137H88.5859V134ZM124.578 112.4H127.578V115.4H124.578V112.4ZM120.978 112.4H123.978V115.4H120.978V112.4ZM117.378 112.4H120.378V115.4H117.378V112.4ZM117.378 116H120.378V119H117.378V116ZM113.778 112.4H116.778V115.4H113.778V112.4ZM110.178 112.4H113.178V115.4H110.178V112.4ZM117.378 119.6H120.378V122.6H117.378V119.6ZM117.378 123.2H120.378V126.2H117.378V123.2ZM117.378 126.8H120.378V129.8H117.378V126.8ZM117.378 130.4H120.378V133.4H117.378V130.4ZM117.378 134H120.378V137H117.378V134ZM146.17 116H149.17V119H146.17V116ZM142.57 112.4H145.57V115.4H142.57V112.4ZM138.97 112.4H141.97V115.4H138.97V112.4ZM135.37 112.4H138.37V115.4H135.37V112.4ZM131.77 116H134.77V119H131.77V116ZM146.17 119.6H149.17V122.6H146.17V119.6ZM146.17 123.2H149.17V126.2H146.17V123.2ZM146.17 126.8H149.17V129.8H146.17V126.8ZM146.17 130.4H149.17V133.4H146.17V130.4ZM146.17 134H149.17V137H146.17V134ZM142.57 123.2H145.57V126.2H142.57V123.2ZM138.97 123.2H141.97V126.2H138.97V123.2ZM135.37 123.2H138.37V126.2H135.37V123.2ZM131.77 119.6H134.77V122.6H131.77V119.6ZM131.77 123.2H134.77V126.2H131.77V123.2ZM131.77 126.8H134.77V129.8H131.77V126.8ZM131.77 130.4H134.77V133.4H131.77V130.4ZM131.77 134H134.77V137H131.77V134ZM180.353 112.4H183.353V115.4H180.353V112.4ZM176.753 112.4H179.753V115.4H176.753V112.4ZM173.153 112.4H176.153V115.4H173.153V112.4ZM169.553 112.4H172.553V115.4H169.553V112.4ZM165.953 112.4H168.953V115.4H165.953V112.4ZM165.953 116H168.953V119H165.953V116ZM180.353 134H183.353V137H180.353V134ZM176.753 123.2H179.753V126.2H176.753V123.2ZM176.753 134H179.753V137H176.753V134ZM173.153 123.2H176.153V126.2H173.153V123.2ZM173.153 134H176.153V137H173.153V134ZM169.553 123.2H172.553V126.2H169.553V123.2ZM169.553 134H172.553V137H169.553V134ZM165.953 119.6H168.953V122.6H165.953V119.6ZM165.953 123.2H168.953V126.2H165.953V123.2ZM165.953 126.8H168.953V129.8H165.953V126.8ZM165.953 130.4H168.953V133.4H165.953V130.4ZM165.953 134H168.953V137H165.953V134ZM201.945 112.4H204.945V115.4H201.945V112.4ZM201.945 116H204.945V119H201.945V116ZM187.545 112.4H190.545V115.4H187.545V112.4ZM187.545 116H190.545V119H187.545V116ZM201.945 130.4H204.945V133.4H201.945V130.4ZM201.945 134H204.945V137H201.945V134ZM198.345 119.6H201.345V122.6H198.345V119.6ZM198.345 126.8H201.345V129.8H198.345V126.8ZM194.745 123.2H197.745V126.2H194.745V123.2ZM191.145 119.6H194.145V122.6H191.145V119.6ZM191.145 126.8H194.145V129.8H191.145V126.8ZM187.545 130.4H190.545V133.4H187.545V130.4ZM187.545 134H190.545V137H187.545V134ZM223.537 112.4H226.537V115.4H223.537V112.4ZM219.937 112.4H222.937V115.4H219.937V112.4ZM216.337 112.4H219.337V115.4H216.337V112.4ZM212.737 112.4H215.737V115.4H212.737V112.4ZM209.137 112.4H212.137V115.4H209.137V112.4ZM209.137 116H212.137V119H209.137V116ZM223.537 134H226.537V137H223.537V134ZM219.937 123.2H222.937V126.2H219.937V123.2ZM219.937 134H222.937V137H219.937V134ZM216.337 123.2H219.337V126.2H216.337V123.2ZM216.337 134H219.337V137H216.337V134ZM212.737 123.2H215.737V126.2H212.737V123.2ZM212.737 134H215.737V137H212.737V134ZM209.137 119.6H212.137V122.6H209.137V119.6ZM209.137 123.2H212.137V126.2H209.137V123.2ZM209.137 126.8H212.137V129.8H209.137V126.8ZM209.137 130.4H212.137V133.4H209.137V130.4ZM209.137 134H212.137V137H209.137V134ZM245.129 112.4H248.129V115.4H245.129V112.4ZM245.129 116H248.129V119H245.129V116ZM230.729 112.4H233.729V115.4H230.729V112.4ZM230.729 116H233.729V119H230.729V116ZM245.129 119.6H248.129V122.6H245.129V119.6ZM245.129 123.2H248.129V126.2H245.129V123.2ZM245.129 126.8H248.129V129.8H245.129V126.8ZM245.129 130.4H248.129V133.4H245.129V130.4ZM245.129 134H248.129V137H245.129V134ZM241.529 126.8H244.529V129.8H241.529V126.8ZM237.929 123.2H240.929V126.2H237.929V123.2ZM234.329 119.6H237.329V122.6H234.329V119.6ZM230.729 119.6H233.729V122.6H230.729V119.6ZM230.729 123.2H233.729V126.2H230.729V123.2ZM230.729 126.8H233.729V129.8H230.729V126.8ZM230.729 130.4H233.729V133.4H230.729V130.4ZM230.729 134H233.729V137H230.729V134ZM266.72 112.4H269.72V115.4H266.72V112.4ZM263.12 112.4H266.12V115.4H263.12V112.4ZM259.52 112.4H262.52V115.4H259.52V112.4ZM259.52 116H262.52V119H259.52V116ZM255.92 112.4H258.92V115.4H255.92V112.4ZM252.32 112.4H255.32V115.4H252.32V112.4ZM259.52 119.6H262.52V122.6H259.52V119.6ZM259.52 123.2H262.52V126.2H259.52V123.2ZM259.52 126.8H262.52V129.8H259.52V126.8ZM259.52 130.4H262.52V133.4H259.52V130.4ZM259.52 134H262.52V137H259.52V134ZM288.312 116H291.312V119H288.312V116ZM284.712 112.4H287.712V115.4H284.712V112.4ZM281.112 112.4H284.112V115.4H281.112V112.4ZM277.512 112.4H280.512V115.4H277.512V112.4ZM273.912 116H276.912V119H273.912V116ZM288.312 119.6H291.312V122.6H288.312V119.6ZM288.312 123.2H291.312V126.2H288.312V123.2ZM288.312 126.8H291.312V129.8H288.312V126.8ZM288.312 130.4H291.312V133.4H288.312V130.4ZM288.312 134H291.312V137H288.312V134ZM284.712 123.2H287.712V126.2H284.712V123.2ZM281.112 123.2H284.112V126.2H281.112V123.2ZM277.512 123.2H280.512V126.2H277.512V123.2ZM273.912 119.6H276.912V122.6H273.912V119.6ZM273.912 123.2H276.912V126.2H273.912V123.2ZM273.912 126.8H276.912V129.8H273.912V126.8ZM273.912 130.4H276.912V133.4H273.912V130.4ZM273.912 134H276.912V137H273.912V134ZM27.4 149H30.4V152H27.4V149ZM23.8 145.4H26.8V148.4H23.8V145.4ZM20.2 145.4H23.2V148.4H20.2V145.4ZM16.6 145.4H19.6V148.4H16.6V145.4ZM13 149H16V152H13V149ZM27.4 152.6H30.4V155.6H27.4V152.6ZM27.4 159.8H30.4V162.8H27.4V159.8ZM27.4 163.4H30.4V166.4H27.4V163.4ZM23.8 156.2H26.8V159.2H23.8V156.2ZM23.8 167H26.8V170H23.8V167ZM20.2 156.2H23.2V159.2H20.2V156.2ZM20.2 167H23.2V170H20.2V167ZM16.6 167H19.6V170H16.6V167ZM13 163.4H16V166.4H13V163.4ZM38.1918 163.4H41.1918V166.4H38.1918V163.4ZM38.1918 167H41.1918V170H38.1918V167ZM34.5918 163.4H37.5918V166.4H34.5918V163.4ZM34.5918 167H37.5918V170H34.5918V167ZM59.8023 149H62.8023V152H59.8023V149ZM56.2023 145.4H59.2023V148.4H56.2023V145.4ZM52.6023 145.4H55.6023V148.4H52.6023V145.4ZM49.0023 145.4H52.0023V148.4H49.0023V145.4ZM45.4023 149H48.4023V152H45.4023V149ZM59.8023 163.4H62.8023V166.4H59.8023V163.4ZM56.2023 167H59.2023V170H56.2023V167ZM52.6023 167H55.6023V170H52.6023V167ZM49.0023 167H52.0023V170H49.0023V167ZM45.4023 152.6H48.4023V155.6H45.4023V152.6ZM45.4023 156.2H48.4023V159.2H45.4023V156.2ZM45.4023 159.8H48.4023V162.8H45.4023V159.8ZM45.4023 163.4H48.4023V166.4H45.4023V163.4ZM81.3941 149H84.3941V152H81.3941V149ZM77.7941 145.4H80.7941V148.4H77.7941V145.4ZM74.1941 145.4H77.1941V148.4H74.1941V145.4ZM70.5941 145.4H73.5941V148.4H70.5941V145.4ZM66.9941 149H69.9941V152H66.9941V149ZM81.3941 152.6H84.3941V155.6H81.3941V152.6ZM81.3941 156.2H84.3941V159.2H81.3941V156.2ZM81.3941 159.8H84.3941V162.8H81.3941V159.8ZM81.3941 163.4H84.3941V166.4H81.3941V163.4ZM77.7941 167H80.7941V170H77.7941V167ZM74.1941 167H77.1941V170H74.1941V167ZM70.5941 167H73.5941V170H70.5941V167ZM66.9941 152.6H69.9941V155.6H66.9941V152.6ZM66.9941 156.2H69.9941V159.2H66.9941V156.2ZM66.9941 159.8H69.9941V162.8H66.9941V159.8ZM66.9941 163.4H69.9941V166.4H66.9941V163.4ZM102.986 145.4H105.986V148.4H102.986V145.4ZM102.986 149H105.986V152H102.986V149ZM99.3859 149H102.386V152H99.3859V149ZM92.1859 149H95.1859V152H92.1859V149ZM88.5859 145.4H91.5859V148.4H88.5859V145.4ZM88.5859 149H91.5859V152H88.5859V149ZM102.986 152.6H105.986V155.6H102.986V152.6ZM102.986 156.2H105.986V159.2H102.986V156.2ZM102.986 159.8H105.986V162.8H102.986V159.8ZM102.986 163.4H105.986V166.4H102.986V163.4ZM102.986 167H105.986V170H102.986V167ZM95.7859 152.6H98.7859V155.6H95.7859V152.6ZM95.7859 156.2H98.7859V159.2H95.7859V156.2ZM88.5859 152.6H91.5859V155.6H88.5859V152.6ZM88.5859 156.2H91.5859V159.2H88.5859V156.2ZM88.5859 159.8H91.5859V162.8H88.5859V159.8ZM88.5859 163.4H91.5859V166.4H88.5859V163.4ZM88.5859 167H91.5859V170H88.5859V167ZM124.578 145.4H127.578V148.4H124.578V145.4ZM120.978 145.4H123.978V148.4H120.978V145.4ZM117.378 145.4H120.378V148.4H117.378V145.4ZM113.778 145.4H116.778V148.4H113.778V145.4ZM110.178 145.4H113.178V148.4H110.178V145.4ZM110.178 149H113.178V152H110.178V149ZM124.578 167H127.578V170H124.578V167ZM120.978 156.2H123.978V159.2H120.978V156.2ZM120.978 167H123.978V170H120.978V167ZM117.378 156.2H120.378V159.2H117.378V156.2ZM117.378 167H120.378V170H117.378V167ZM113.778 156.2H116.778V159.2H113.778V156.2ZM113.778 167H116.778V170H113.778V167ZM110.178 152.6H113.178V155.6H110.178V152.6ZM110.178 156.2H113.178V159.2H110.178V156.2ZM110.178 159.8H113.178V162.8H110.178V159.8ZM110.178 163.4H113.178V166.4H110.178V163.4ZM110.178 167H113.178V170H110.178V167ZM146.17 149H149.17V152H146.17V149ZM142.57 145.4H145.57V148.4H142.57V145.4ZM138.97 145.4H141.97V148.4H138.97V145.4ZM135.37 145.4H138.37V148.4H135.37V145.4ZM131.77 145.4H134.77V148.4H131.77V145.4ZM131.77 149H134.77V152H131.77V149ZM146.17 152.6H149.17V155.6H146.17V152.6ZM146.17 167H149.17V170H146.17V167ZM142.57 156.2H145.57V159.2H142.57V156.2ZM142.57 163.4H145.57V166.4H142.57V163.4ZM138.97 156.2H141.97V159.2H138.97V156.2ZM138.97 159.8H141.97V162.8H138.97V159.8ZM135.37 156.2H138.37V159.2H135.37V156.2ZM131.77 152.6H134.77V155.6H131.77V152.6ZM131.77 156.2H134.77V159.2H131.77V156.2ZM131.77 159.8H134.77V162.8H131.77V159.8ZM131.77 163.4H134.77V166.4H131.77V163.4ZM131.77 167H134.77V170H131.77V167ZM167.761 149H170.761V152H167.761V149ZM164.161 145.4H167.161V148.4H164.161V145.4ZM160.561 145.4H163.561V148.4H160.561V145.4ZM156.961 145.4H159.961V148.4H156.961V145.4ZM153.361 149H156.361V152H153.361V149ZM167.761 163.4H170.761V166.4H167.761V163.4ZM164.161 167H167.161V170H164.161V167ZM160.561 167H163.561V170H160.561V167ZM156.961 167H159.961V170H156.961V167ZM153.361 152.6H156.361V155.6H153.361V152.6ZM153.361 156.2H156.361V159.2H153.361V156.2ZM153.361 159.8H156.361V162.8H153.361V159.8ZM153.361 163.4H156.361V166.4H153.361V163.4ZM182.153 145.4H185.153V148.4H182.153V145.4ZM178.553 145.4H181.553V148.4H178.553V145.4ZM178.553 149H181.553V152H178.553V149ZM174.953 145.4H177.953V148.4H174.953V145.4ZM182.153 167H185.153V170H182.153V167ZM178.553 152.6H181.553V155.6H178.553V152.6ZM178.553 156.2H181.553V159.2H178.553V156.2ZM178.553 159.8H181.553V162.8H178.553V159.8ZM178.553 163.4H181.553V166.4H178.553V163.4ZM178.553 167H181.553V170H178.553V167ZM174.953 167H177.953V170H174.953V167ZM203.767 149H206.767V152H203.767V149ZM200.167 145.4H203.167V148.4H200.167V145.4ZM196.567 145.4H199.567V148.4H196.567V145.4ZM192.967 145.4H195.967V148.4H192.967V145.4ZM189.367 149H192.367V152H189.367V149ZM203.767 152.6H206.767V155.6H203.767V152.6ZM203.767 156.2H206.767V159.2H203.767V156.2ZM203.767 159.8H206.767V162.8H203.767V159.8ZM203.767 163.4H206.767V166.4H203.767V163.4ZM200.167 167H203.167V170H200.167V167ZM196.567 167H199.567V170H196.567V167ZM192.967 167H195.967V170H192.967V167ZM189.367 152.6H192.367V155.6H189.367V152.6ZM189.367 156.2H192.367V159.2H189.367V156.2ZM189.367 159.8H192.367V162.8H189.367V159.8ZM189.367 163.4H192.367V166.4H189.367V163.4ZM23.8 178.4H26.8V181.4H23.8V178.4ZM23.8 182H26.8V185H23.8V182ZM20.2 182H23.2V185H20.2V182ZM27.4 192.8H30.4V195.8H27.4V192.8ZM23.8 185.6H26.8V188.6H23.8V185.6ZM23.8 189.2H26.8V192.2H23.8V189.2ZM23.8 192.8H26.8V195.8H23.8V192.8ZM23.8 196.4H26.8V199.4H23.8V196.4ZM23.8 200H26.8V203H23.8V200ZM20.2 192.8H23.2V195.8H20.2V192.8ZM16.6 185.6H19.6V188.6H16.6V185.6ZM16.6 192.8H19.6V195.8H16.6V192.8ZM13 189.2H16V192.2H13V189.2ZM13 192.8H16V195.8H13V192.8ZM38.1918 196.4H41.1918V199.4H38.1918V196.4ZM38.1918 200H41.1918V203H38.1918V200ZM34.5918 196.4H37.5918V199.4H34.5918V196.4ZM34.5918 200H37.5918V203H34.5918V200ZM59.8023 182H62.8023V185H59.8023V182ZM56.2023 178.4H59.2023V181.4H56.2023V178.4ZM52.6023 178.4H55.6023V181.4H52.6023V178.4ZM49.0023 178.4H52.0023V181.4H49.0023V178.4ZM45.4023 182H48.4023V185H45.4023V182ZM59.8023 196.4H62.8023V199.4H59.8023V196.4ZM56.2023 200H59.2023V203H56.2023V200ZM52.6023 200H55.6023V203H52.6023V200ZM49.0023 200H52.0023V203H49.0023V200ZM45.4023 185.6H48.4023V188.6H45.4023V185.6ZM45.4023 189.2H48.4023V192.2H45.4023V189.2ZM45.4023 192.8H48.4023V195.8H45.4023V192.8ZM45.4023 196.4H48.4023V199.4H45.4023V196.4ZM81.3941 178.4H84.3941V181.4H81.3941V178.4ZM81.3941 182H84.3941V185H81.3941V182ZM66.9941 178.4H69.9941V181.4H66.9941V178.4ZM66.9941 182H69.9941V185H66.9941V182ZM81.3941 185.6H84.3941V188.6H81.3941V185.6ZM81.3941 189.2H84.3941V192.2H81.3941V189.2ZM81.3941 192.8H84.3941V195.8H81.3941V192.8ZM81.3941 196.4H84.3941V199.4H81.3941V196.4ZM77.7941 200H80.7941V203H77.7941V200ZM74.1941 200H77.1941V203H74.1941V200ZM70.5941 200H73.5941V203H70.5941V200ZM66.9941 185.6H69.9941V188.6H66.9941V185.6ZM66.9941 189.2H69.9941V192.2H66.9941V189.2ZM66.9941 192.8H69.9941V195.8H66.9941V192.8ZM66.9941 196.4H69.9941V199.4H66.9941V196.4ZM102.986 178.4H105.986V181.4H102.986V178.4ZM99.3859 178.4H102.386V181.4H99.3859V178.4ZM95.7859 178.4H98.7859V181.4H95.7859V178.4ZM92.1859 178.4H95.1859V181.4H92.1859V178.4ZM88.5859 178.4H91.5859V181.4H88.5859V178.4ZM88.5859 182H91.5859V185H88.5859V182ZM102.986 200H105.986V203H102.986V200ZM99.3859 189.2H102.386V192.2H99.3859V189.2ZM99.3859 200H102.386V203H99.3859V200ZM95.7859 189.2H98.7859V192.2H95.7859V189.2ZM95.7859 200H98.7859V203H95.7859V200ZM92.1859 189.2H95.1859V192.2H92.1859V189.2ZM92.1859 200H95.1859V203H92.1859V200ZM88.5859 185.6H91.5859V188.6H88.5859V185.6ZM88.5859 189.2H91.5859V192.2H88.5859V189.2ZM88.5859 192.8H91.5859V195.8H88.5859V192.8ZM88.5859 196.4H91.5859V199.4H88.5859V196.4ZM88.5859 200H91.5859V203H88.5859V200ZM124.578 178.4H127.578V181.4H124.578V178.4ZM124.578 182H127.578V185H124.578V182ZM110.178 178.4H113.178V181.4H110.178V178.4ZM110.178 182H113.178V185H110.178V182ZM124.578 185.6H127.578V188.6H124.578V185.6ZM124.578 189.2H127.578V192.2H124.578V189.2ZM124.578 192.8H127.578V195.8H124.578V192.8ZM124.578 196.4H127.578V199.4H124.578V196.4ZM124.578 200H127.578V203H124.578V200ZM120.978 192.8H123.978V195.8H120.978V192.8ZM117.378 189.2H120.378V192.2H117.378V189.2ZM113.778 185.6H116.778V188.6H113.778V185.6ZM110.178 185.6H113.178V188.6H110.178V185.6ZM110.178 189.2H113.178V192.2H110.178V189.2ZM110.178 192.8H113.178V195.8H110.178V192.8ZM110.178 196.4H113.178V199.4H110.178V196.4ZM110.178 200H113.178V203H110.178V200ZM146.17 178.4H149.17V181.4H146.17V178.4ZM142.57 178.4H145.57V181.4H142.57V178.4ZM138.97 178.4H141.97V181.4H138.97V178.4ZM138.97 182H141.97V185H138.97V182ZM135.37 178.4H138.37V181.4H135.37V178.4ZM131.77 178.4H134.77V181.4H131.77V178.4ZM138.97 185.6H141.97V188.6H138.97V185.6ZM138.97 189.2H141.97V192.2H138.97V189.2ZM138.97 192.8H141.97V195.8H138.97V192.8ZM138.97 196.4H141.97V199.4H138.97V196.4ZM138.97 200H141.97V203H138.97V200ZM167.761 182H170.761V185H167.761V182ZM164.161 178.4H167.161V181.4H164.161V178.4ZM160.561 178.4H163.561V181.4H160.561V178.4ZM156.961 178.4H159.961V181.4H156.961V178.4ZM153.361 182H156.361V185H153.361V182ZM167.761 185.6H170.761V188.6H167.761V185.6ZM167.761 189.2H170.761V192.2H167.761V189.2ZM167.761 192.8H170.761V195.8H167.761V192.8ZM167.761 196.4H170.761V199.4H167.761V196.4ZM167.761 200H170.761V203H167.761V200ZM164.161 189.2H167.161V192.2H164.161V189.2ZM160.561 189.2H163.561V192.2H160.561V189.2ZM156.961 189.2H159.961V192.2H156.961V189.2ZM153.361 185.6H156.361V188.6H153.361V185.6ZM153.361 189.2H156.361V192.2H153.361V189.2ZM153.361 192.8H156.361V195.8H153.361V192.8ZM153.361 196.4H156.361V199.4H153.361V196.4ZM153.361 200H156.361V203H153.361V200ZM201.945 182H204.945V185H201.945V182ZM198.345 178.4H201.345V181.4H198.345V178.4ZM194.745 178.4H197.745V181.4H194.745V178.4ZM191.145 178.4H194.145V181.4H191.145V178.4ZM187.545 178.4H190.545V181.4H187.545V178.4ZM187.545 182H190.545V185H187.545V182ZM201.945 185.6H204.945V188.6H201.945V185.6ZM201.945 189.2H204.945V192.2H201.945V189.2ZM201.945 192.8H204.945V195.8H201.945V192.8ZM201.945 196.4H204.945V199.4H201.945V196.4ZM198.345 200H201.345V203H198.345V200ZM194.745 200H197.745V203H194.745V200ZM191.145 200H194.145V203H191.145V200ZM187.545 185.6H190.545V188.6H187.545V185.6ZM187.545 189.2H190.545V192.2H187.545V189.2ZM187.545 192.8H190.545V195.8H187.545V192.8ZM187.545 196.4H190.545V199.4H187.545V196.4ZM187.545 200H190.545V203H187.545V200ZM216.337 178.4H219.337V181.4H216.337V178.4ZM212.737 178.4H215.737V181.4H212.737V178.4ZM212.737 182H215.737V185H212.737V182ZM209.137 178.4H212.137V181.4H209.137V178.4ZM216.337 200H219.337V203H216.337V200ZM212.737 185.6H215.737V188.6H212.737V185.6ZM212.737 189.2H215.737V192.2H212.737V189.2ZM212.737 192.8H215.737V195.8H212.737V192.8ZM212.737 196.4H215.737V199.4H212.737V196.4ZM212.737 200H215.737V203H212.737V200ZM209.137 200H212.137V203H209.137V200ZM237.951 178.4H240.951V181.4H237.951V178.4ZM237.951 182H240.951V185H237.951V182ZM223.551 178.4H226.551V181.4H223.551V178.4ZM223.551 182H226.551V185H223.551V182ZM237.951 185.6H240.951V188.6H237.951V185.6ZM237.951 189.2H240.951V192.2H237.951V189.2ZM237.951 192.8H240.951V195.8H237.951V192.8ZM234.351 196.4H237.351V199.4H234.351V196.4ZM230.751 200H233.751V203H230.751V200ZM227.151 196.4H230.151V199.4H227.151V196.4ZM223.551 185.6H226.551V188.6H223.551V185.6ZM223.551 189.2H226.551V192.2H223.551V189.2ZM223.551 192.8H226.551V195.8H223.551V192.8ZM252.343 178.4H255.343V181.4H252.343V178.4ZM248.743 178.4H251.743V181.4H248.743V178.4ZM248.743 182H251.743V185H248.743V182ZM245.143 178.4H248.143V181.4H245.143V178.4ZM252.343 200H255.343V203H252.343V200ZM248.743 185.6H251.743V188.6H248.743V185.6ZM248.743 189.2H251.743V192.2H248.743V189.2ZM248.743 192.8H251.743V195.8H248.743V192.8ZM248.743 196.4H251.743V199.4H248.743V196.4ZM248.743 200H251.743V203H248.743V200ZM245.143 200H248.143V203H245.143V200ZM273.957 182H276.957V185H273.957V182ZM270.357 178.4H273.357V181.4H270.357V178.4ZM266.757 178.4H269.757V181.4H266.757V178.4ZM263.157 178.4H266.157V181.4H263.157V178.4ZM259.557 178.4H262.557V181.4H259.557V178.4ZM259.557 182H262.557V185H259.557V182ZM273.957 185.6H276.957V188.6H273.957V185.6ZM273.957 189.2H276.957V192.2H273.957V189.2ZM273.957 192.8H276.957V195.8H273.957V192.8ZM273.957 196.4H276.957V199.4H273.957V196.4ZM270.357 200H273.357V203H270.357V200ZM266.757 200H269.757V203H266.757V200ZM263.157 200H266.157V203H263.157V200ZM259.557 185.6H262.557V188.6H259.557V185.6ZM259.557 189.2H262.557V192.2H259.557V189.2ZM259.557 192.8H262.557V195.8H259.557V192.8ZM259.557 196.4H262.557V199.4H259.557V196.4ZM259.557 200H262.557V203H259.557V200ZM288.348 178.4H291.348V181.4H288.348V178.4ZM284.748 178.4H287.748V181.4H284.748V178.4ZM284.748 182H287.748V185H284.748V182ZM281.148 178.4H284.148V181.4H281.148V178.4ZM288.348 200H291.348V203H288.348V200ZM284.748 185.6H287.748V188.6H284.748V185.6ZM284.748 189.2H287.748V192.2H284.748V189.2ZM284.748 192.8H287.748V195.8H284.748V192.8ZM284.748 196.4H287.748V199.4H284.748V196.4ZM284.748 200H287.748V203H284.748V200ZM281.148 200H284.148V203H281.148V200ZM309.963 182H312.963V185H309.963V182ZM306.363 178.4H309.363V181.4H306.363V178.4ZM302.763 178.4H305.763V181.4H302.763V178.4ZM299.163 178.4H302.163V181.4H299.163V178.4ZM295.562 178.4H298.563V181.4H295.562V178.4ZM295.562 182H298.563V185H295.562V182ZM309.963 185.6H312.963V188.6H309.963V185.6ZM309.963 189.2H312.963V192.2H309.963V189.2ZM309.963 192.8H312.963V195.8H309.963V192.8ZM309.963 196.4H312.963V199.4H309.963V196.4ZM306.363 200H309.363V203H306.363V200ZM302.763 200H305.763V203H302.763V200ZM299.163 200H302.163V203H299.163V200ZM295.562 185.6H298.563V188.6H295.562V185.6ZM295.562 189.2H298.563V192.2H295.562V189.2ZM295.562 192.8H298.563V195.8H295.562V192.8ZM295.562 196.4H298.563V199.4H295.562V196.4ZM295.562 200H298.563V203H295.562V200ZM331.554 182H334.554V185H331.554V182ZM327.954 178.4H330.954V181.4H327.954V178.4ZM324.354 178.4H327.354V181.4H324.354V178.4ZM320.754 178.4H323.754V181.4H320.754V178.4ZM317.154 182H320.154V185H317.154V182ZM331.554 185.6H334.554V188.6H331.554V185.6ZM331.554 189.2H334.554V192.2H331.554V189.2ZM331.554 192.8H334.554V195.8H331.554V192.8ZM331.554 196.4H334.554V199.4H331.554V196.4ZM331.554 200H334.554V203H331.554V200ZM327.954 189.2H330.954V192.2H327.954V189.2ZM324.354 189.2H327.354V192.2H324.354V189.2ZM320.754 189.2H323.754V192.2H320.754V189.2ZM317.154 185.6H320.154V188.6H317.154V185.6ZM317.154 189.2H320.154V192.2H317.154V189.2ZM317.154 192.8H320.154V195.8H317.154V192.8ZM317.154 196.4H320.154V199.4H317.154V196.4ZM317.154 200H320.154V203H317.154V200Z" fill="#5B65C2"/>
<rect x="1.5" y="1.5" width="449" height="277" stroke="#5B65C2" stroke-width="3"/>
</svg>
