<svg width="159" height="96" viewBox="0 0 159 96" fill="none" xmlns="http://www.w3.org/2000/svg">
<g clip-path="url(#clip0)">
<rect width="159" height="96" fill="white"/>
<path d="M62.8926 16.7993V16.1704H62.2637V16.7993H62.8926ZM63.5933 17.5V16.8711H62.9644V17.5H63.5933ZM62.1953 16.7993V16.1704H61.563V16.7993H62.1953ZM63.5933 18.2007V17.5684H62.9644V18.2007H63.5933ZM61.4946 16.7993V16.1704H60.8623V16.7993H61.4946ZM60.7939 16.7993V16.1704H60.165V16.7993H60.7939ZM62.8926 18.9014V18.269H62.2637V18.9014H62.8926ZM60.7939 17.5V16.8711H60.165V17.5H60.7939ZM62.1953 18.9014V18.269H61.563V18.9014H62.1953ZM60.7939 18.2007V17.5684H60.165V18.2007H60.7939ZM61.4946 18.9014V18.269H60.8623V18.9014H61.4946ZM60.7939 18.9014V18.269H60.165V18.9014H60.7939ZM60.7939 19.5986V18.9697H60.165V19.5986H60.7939ZM60.7939 20.2993V19.6704H60.165V20.2993H60.7939ZM60.7939 21V20.3711H60.165V21H60.7939ZM65.6133 20.2993V19.6704H64.981V20.2993H65.6133ZM64.9126 20.2993V19.6704H64.2803V20.2993H64.9126ZM65.6133 21V20.3711H64.981V21H65.6133ZM64.9126 21V20.3711H64.2803V21H64.9126ZM74.7051 16.7993V16.1704H74.0762V16.7993H74.7051ZM75.4058 17.5V16.8711H74.7769V17.5H75.4058ZM74.0078 16.7993V16.1704H73.3755V16.7993H74.0078ZM75.4058 18.2007V17.5684H74.7769V18.2007H75.4058ZM73.3071 16.7993V16.1704H72.6748V16.7993H73.3071ZM72.6064 16.7993V16.1704H71.9775V16.7993H72.6064ZM74.7051 18.9014V18.269H74.0762V18.9014H74.7051ZM72.6064 17.5V16.8711H71.9775V17.5H72.6064ZM74.0078 18.9014V18.269H73.3755V18.9014H74.0078ZM72.6064 18.2007V17.5684H71.9775V18.2007H72.6064ZM73.3071 18.9014V18.269H72.6748V18.9014H73.3071ZM74.0078 19.5986V18.9697H73.3755V19.5986H74.0078ZM74.7051 20.2993V19.6704H74.0762V20.2993H74.7051ZM75.4058 21V20.3711H74.7769V21H75.4058ZM72.6064 18.9014V18.269H71.9775V18.9014H72.6064ZM72.6064 19.5986V18.9697H71.9775V19.5986H72.6064ZM72.6064 20.2993V19.6704H71.9775V20.2993H72.6064ZM72.6064 21V20.3711H71.9775V21H72.6064ZM79.603 16.7993V16.1704H78.9741V16.7993H79.603ZM78.9023 16.7993V16.1704H78.2734V16.7993H78.9023ZM78.2051 16.7993V16.1704H77.5728V16.7993H78.2051ZM77.5044 16.7993V16.1704H76.8721V16.7993H77.5044ZM76.8037 16.7993V16.1704H76.1748V16.7993H76.8037ZM78.9023 18.9014V18.269H78.2734V18.9014H78.9023ZM76.8037 17.5V16.8711H76.1748V17.5H76.8037ZM78.2051 18.9014V18.269H77.5728V18.9014H78.2051ZM76.8037 18.2007V17.5684H76.1748V18.2007H76.8037ZM77.5044 18.9014V18.269H76.8721V18.9014H77.5044ZM79.603 21V20.3711H78.9741V21H79.603ZM76.8037 18.9014V18.269H76.1748V18.9014H76.8037ZM78.9023 21V20.3711H78.2734V21H78.9023ZM76.8037 19.5986V18.9697H76.1748V19.5986H76.8037ZM78.2051 21V20.3711H77.5728V21H78.2051ZM76.8037 20.2993V19.6704H76.1748V20.2993H76.8037ZM77.5044 21V20.3711H76.8721V21H77.5044ZM76.8037 21V20.3711H76.1748V21H76.8037ZM83.8003 16.7993V16.1704H83.1714V16.7993H83.8003ZM83.0996 16.7993V16.1704H82.4707V16.7993H83.0996ZM82.4023 16.7993V16.1704H81.77V16.7993H82.4023ZM81.7017 16.7993V16.1704H81.0693V16.7993H81.7017ZM82.4023 17.5V16.8711H81.77V17.5H82.4023ZM81.001 16.7993V16.1704H80.3721V16.7993H81.001ZM82.4023 18.2007V17.5684H81.77V18.2007H82.4023ZM82.4023 18.9014V18.269H81.77V18.9014H82.4023ZM82.4023 19.5986V18.9697H81.77V19.5986H82.4023ZM82.4023 20.2993V19.6704H81.77V20.2993H82.4023ZM82.4023 21V20.3711H81.77V21H82.4023ZM86.7363 16.7993V16.1704H86.1074V16.7993H86.7363ZM87.437 17.5V16.8711H86.8081V17.5H87.437ZM86.0391 16.7993V16.1704H85.4067V16.7993H86.0391ZM87.437 18.2007V17.5684H86.8081V18.2007H87.437ZM85.3384 16.7993V16.1704H84.7061V16.7993H85.3384ZM87.437 18.9014V18.269H86.8081V18.9014H87.437ZM87.437 19.5986V18.9697H86.8081V19.5986H87.437ZM84.6377 17.5V16.8711H84.0088V17.5H84.6377ZM86.7363 19.5986V18.9697H86.1074V19.5986H86.7363ZM87.437 20.2993V19.6704H86.8081V20.2993H87.437ZM84.6377 18.2007V17.5684H84.0088V18.2007H84.6377ZM86.0391 19.5986V18.9697H85.4067V19.5986H86.0391ZM87.437 21V20.3711H86.8081V21H87.437ZM84.6377 18.9014V18.269H84.0088V18.9014H84.6377ZM85.3384 19.5986V18.9697H84.7061V19.5986H85.3384ZM84.6377 19.5986V18.9697H84.0088V19.5986H84.6377ZM84.6377 20.2993V19.6704H84.0088V20.2993H84.6377ZM84.6377 21V20.3711H84.0088V21H84.6377ZM90.9336 16.7993V16.1704H90.3047V16.7993H90.9336ZM90.2363 16.7993V16.1704H89.604V16.7993H90.2363ZM89.5356 16.7993V16.1704H88.9033V16.7993H89.5356ZM90.2363 17.5V16.8711H89.604V17.5H90.2363ZM90.2363 18.2007V17.5684H89.604V18.2007H90.2363ZM90.2363 18.9014V18.269H89.604V18.9014H90.2363ZM90.2363 19.5986V18.9697H89.604V19.5986H90.2363ZM90.2363 20.2993V19.6704H89.604V20.2993H90.2363ZM90.9336 21V20.3711H90.3047V21H90.9336ZM90.2363 21V20.3711H89.604V21H90.2363ZM89.5356 21V20.3711H88.9033V21H89.5356ZM93.0322 16.7993V16.1704H92.4033V16.7993H93.0322ZM93.0322 17.5V16.8711H92.4033V17.5H93.0322ZM93.0322 18.2007V17.5684H92.4033V18.2007H93.0322ZM95.8315 21V20.3711H95.2026V21H95.8315ZM93.0322 18.9014V18.269H92.4033V18.9014H93.0322ZM95.1309 21V20.3711H94.502V21H95.1309ZM93.0322 19.5986V18.9697H92.4033V19.5986H93.0322ZM94.4336 21V20.3711H93.8013V21H94.4336ZM93.0322 20.2993V19.6704H92.4033V20.2993H93.0322ZM93.7329 21V20.3711H93.1006V21H93.7329ZM93.0322 21V20.3711H92.4033V21H93.0322Z" fill="white"/>
<rect x="-1" width="160" height="15" fill="#141514" fill-opacity="0.97"/>
<path d="M7.79199 28.3989V27.4106H6.79834V28.3989H7.79199ZM7.79199 29.5V28.5117H6.79834V29.5H7.79199ZM6.69092 29.5V28.5117H5.69727V29.5H6.69092ZM7.79199 30.6011V29.6074H6.79834V30.6011H7.79199ZM7.79199 31.7021V30.7085H6.79834V31.7021H7.79199ZM7.79199 32.7979V31.8096H6.79834V32.7979H7.79199ZM7.79199 33.8989V32.9106H6.79834V33.8989H7.79199ZM8.8877 35V34.0117H7.89941V35H8.8877ZM7.79199 35V34.0117H6.79834V35H7.79199ZM6.69092 35V34.0117H5.69727V35H6.69092ZM13.8377 33.8989V32.9106H12.844V33.8989H13.8377ZM12.7366 33.8989V32.9106H11.743V33.8989H12.7366ZM13.8377 35V34.0117H12.844V35H13.8377ZM12.7366 35V34.0117H11.743V35H12.7366ZM22.0802 28.3989V27.4106H21.0919V28.3989H22.0802ZM22.0802 29.5V28.5117H21.0919V29.5H22.0802ZM22.0802 30.6011V29.6074H21.0919V30.6011H22.0802ZM22.0802 31.7021V30.7085H21.0919V31.7021H22.0802ZM17.6812 28.3989V27.4106H16.693V28.3989H17.6812ZM22.0802 32.7979V31.8096H21.0919V32.7979H22.0802ZM17.6812 29.5V28.5117H16.693V29.5H17.6812ZM17.6812 30.6011V29.6074H16.693V30.6011H17.6812ZM20.9791 33.8989V32.9106H19.9908V33.8989H20.9791ZM17.6812 31.7021V30.7085H16.693V31.7021H17.6812ZM17.6812 32.7979V31.8096H16.693V32.7979H17.6812ZM18.7823 33.8989V32.9106H17.7887V33.8989H18.7823ZM19.8834 35V34.0117H18.8897V35H19.8834ZM28.1259 28.3989V27.4106H27.1376V28.3989H28.1259ZM27.0248 28.3989V27.4106H26.0365V28.3989H27.0248ZM25.9291 28.3989V27.4106H24.9354V28.3989H25.9291ZM24.828 28.3989V27.4106H23.8344V28.3989H24.828ZM23.727 28.3989V27.4106H22.7387V28.3989H23.727ZM27.0248 31.7021V30.7085H26.0365V31.7021H27.0248ZM23.727 29.5V28.5117H22.7387V29.5H23.727ZM25.9291 31.7021V30.7085H24.9354V31.7021H25.9291ZM23.727 30.6011V29.6074H22.7387V30.6011H23.727ZM24.828 31.7021V30.7085H23.8344V31.7021H24.828ZM28.1259 35V34.0117H27.1376V35H28.1259ZM23.727 31.7021V30.7085H22.7387V31.7021H23.727ZM27.0248 35V34.0117H26.0365V35H27.0248ZM23.727 32.7979V31.8096H22.7387V32.7979H23.727ZM25.9291 35V34.0117H24.9354V35H25.9291ZM23.727 33.8989V32.9106H22.7387V33.8989H23.727ZM24.828 35V34.0117H23.8344V35H24.828ZM23.727 35V34.0117H22.7387V35H23.727ZM34.1716 28.3989V27.4106H33.1833V28.3989H34.1716ZM34.1716 29.5V28.5117H33.1833V29.5H34.1716ZM34.1716 30.6011V29.6074H33.1833V30.6011H34.1716ZM34.1716 31.7021V30.7085H33.1833V31.7021H34.1716ZM29.7727 28.3989V27.4106H28.7844V28.3989H29.7727ZM34.1716 32.7979V31.8096H33.1833V32.7979H34.1716ZM29.7727 29.5V28.5117H28.7844V29.5H29.7727ZM30.8737 30.6011V29.6074H29.8801V30.6011H30.8737ZM31.9748 31.7021V30.7085H30.9812V31.7021H31.9748ZM33.0705 32.7979V31.8096H32.0822V32.7979H33.0705ZM34.1716 33.8989V32.9106H33.1833V33.8989H34.1716ZM29.7727 30.6011V29.6074H28.7844V30.6011H29.7727ZM34.1716 35V34.0117H33.1833V35H34.1716ZM29.7727 31.7021V30.7085H28.7844V31.7021H29.7727ZM29.7727 32.7979V31.8096H28.7844V32.7979H29.7727ZM29.7727 33.8989V32.9106H28.7844V33.8989H29.7727ZM29.7727 35V34.0117H28.7844V35H29.7727ZM40.2173 28.3989V27.4106H39.229V28.3989H40.2173ZM39.1162 28.3989V27.4106H38.1279V28.3989H39.1162ZM38.0205 28.3989V27.4106H37.0269V28.3989H38.0205ZM36.9194 28.3989V27.4106H35.9258V28.3989H36.9194ZM38.0205 29.5V28.5117H37.0269V29.5H38.0205ZM35.8184 28.3989V27.4106H34.8301V28.3989H35.8184ZM38.0205 30.6011V29.6074H37.0269V30.6011H38.0205ZM38.0205 31.7021V30.7085H37.0269V31.7021H38.0205ZM38.0205 32.7979V31.8096H37.0269V32.7979H38.0205ZM38.0205 33.8989V32.9106H37.0269V33.8989H38.0205ZM38.0205 35V34.0117H37.0269V35H38.0205ZM44.2811 28.3989V27.4106H43.2928V28.3989H44.2811ZM45.3821 29.5V28.5117H44.3938V29.5H45.3821ZM43.1854 28.3989V27.4106H42.1917V28.3989H43.1854ZM45.3821 30.6011V29.6074H44.3938V30.6011H45.3821ZM42.0843 28.3989V27.4106H41.0906V28.3989H42.0843ZM45.3821 31.7021V30.7085H44.3938V31.7021H45.3821ZM45.3821 32.7979V31.8096H44.3938V32.7979H45.3821ZM40.9832 29.5V28.5117H39.9949V29.5H40.9832ZM44.2811 32.7979V31.8096H43.2928V32.7979H44.2811ZM45.3821 33.8989V32.9106H44.3938V33.8989H45.3821ZM40.9832 30.6011V29.6074H39.9949V30.6011H40.9832ZM43.1854 32.7979V31.8096H42.1917V32.7979H43.1854ZM45.3821 35V34.0117H44.3938V35H45.3821ZM40.9832 31.7021V30.7085H39.9949V31.7021H40.9832ZM42.0843 32.7979V31.8096H41.0906V32.7979H42.0843ZM40.9832 32.7979V31.8096H39.9949V32.7979H40.9832ZM40.9832 33.8989V32.9106H39.9949V33.8989H40.9832ZM40.9832 35V34.0117H39.9949V35H40.9832ZM56.8612 28.3989V27.4106H55.8729V28.3989H56.8612ZM55.7602 28.3989V27.4106H54.7719V28.3989H55.7602ZM54.6645 28.3989V27.4106H53.6708V28.3989H54.6645ZM53.5634 28.3989V27.4106H52.5697V28.3989H53.5634ZM52.4623 28.3989V27.4106H51.474V28.3989H52.4623ZM55.7602 31.7021V30.7085H54.7719V31.7021H55.7602ZM52.4623 29.5V28.5117H51.474V29.5H52.4623ZM54.6645 31.7021V30.7085H53.6708V31.7021H54.6645ZM52.4623 30.6011V29.6074H51.474V30.6011H52.4623ZM53.5634 31.7021V30.7085H52.5697V31.7021H53.5634ZM52.4623 31.7021V30.7085H51.474V31.7021H52.4623ZM52.4623 32.7979V31.8096H51.474V32.7979H52.4623ZM52.4623 33.8989V32.9106H51.474V33.8989H52.4623ZM52.4623 35V34.0117H51.474V35H52.4623ZM60.9895 28.3989V27.4106H60.0012V28.3989H60.9895ZM62.0905 29.5V28.5117H61.1022V29.5H62.0905ZM59.8937 28.3989V27.4106H58.9001V28.3989H59.8937ZM62.0905 30.6011V29.6074H61.1022V30.6011H62.0905ZM58.7927 28.3989V27.4106H57.799V28.3989H58.7927ZM62.0905 31.7021V30.7085H61.1022V31.7021H62.0905ZM62.0905 32.7979V31.8096H61.1022V32.7979H62.0905ZM57.6916 29.5V28.5117H56.7033V29.5H57.6916ZM60.9895 32.7979V31.8096H60.0012V32.7979H60.9895ZM62.0905 33.8989V32.9106H61.1022V33.8989H62.0905ZM57.6916 30.6011V29.6074H56.7033V30.6011H57.6916ZM59.8937 32.7979V31.8096H58.9001V32.7979H59.8937ZM62.0905 35V34.0117H61.1022V35H62.0905ZM57.6916 31.7021V30.7085H56.7033V31.7021H57.6916ZM58.7927 32.7979V31.8096H57.799V32.7979H58.7927ZM57.6916 32.7979V31.8096H56.7033V32.7979H57.6916ZM57.6916 33.8989V32.9106H56.7033V33.8989H57.6916ZM57.6916 35V34.0117H56.7033V35H57.6916ZM67.0352 28.3989V27.4106H66.0469V28.3989H67.0352ZM68.1362 29.5V28.5117H67.1479V29.5H68.1362ZM65.9395 28.3989V27.4106H64.9458V28.3989H65.9395ZM64.8384 28.3989V27.4106H63.8447V28.3989H64.8384ZM63.7373 29.5V28.5117H62.749V29.5H63.7373ZM68.1362 33.8989V32.9106H67.1479V33.8989H68.1362ZM63.7373 30.6011V29.6074H62.749V30.6011H63.7373ZM63.7373 31.7021V30.7085H62.749V31.7021H63.7373ZM67.0352 35V34.0117H66.0469V35H67.0352ZM63.7373 32.7979V31.8096H62.749V32.7979H63.7373ZM65.9395 35V34.0117H64.9458V35H65.9395ZM63.7373 33.8989V32.9106H62.749V33.8989H63.7373ZM64.8384 35V34.0117H63.8447V35H64.8384ZM74.1819 28.3989V27.4106H73.1936V28.3989H74.1819ZM73.0809 28.3989V27.4106H72.0926V28.3989H73.0809ZM71.9852 28.3989V27.4106H70.9915V28.3989H71.9852ZM70.8841 28.3989V27.4106H69.8904V28.3989H70.8841ZM71.9852 29.5V28.5117H70.9915V29.5H71.9852ZM69.783 28.3989V27.4106H68.7947V28.3989H69.783ZM71.9852 30.6011V29.6074H70.9915V30.6011H71.9852ZM71.9852 31.7021V30.7085H70.9915V31.7021H71.9852ZM71.9852 32.7979V31.8096H70.9915V32.7979H71.9852ZM71.9852 33.8989V32.9106H70.9915V33.8989H71.9852ZM71.9852 35V34.0117H70.9915V35H71.9852ZM80.2276 28.3989V27.4106H79.2394V28.3989H80.2276ZM80.2276 29.5V28.5117H79.2394V29.5H80.2276ZM80.2276 30.6011V29.6074H79.2394V30.6011H80.2276ZM80.2276 31.7021V30.7085H79.2394V31.7021H80.2276ZM75.8287 28.3989V27.4106H74.8404V28.3989H75.8287ZM80.2276 32.7979V31.8096H79.2394V32.7979H80.2276ZM75.8287 29.5V28.5117H74.8404V29.5H75.8287ZM80.2276 33.8989V32.9106H79.2394V33.8989H80.2276ZM75.8287 30.6011V29.6074H74.8404V30.6011H75.8287ZM75.8287 31.7021V30.7085H74.8404V31.7021H75.8287ZM79.1266 35V34.0117H78.1383V35H79.1266ZM75.8287 32.7979V31.8096H74.8404V32.7979H75.8287ZM78.0309 35V34.0117H77.0372V35H78.0309ZM75.8287 33.8989V32.9106H74.8404V33.8989H75.8287ZM76.9298 35V34.0117H75.9361V35H76.9298ZM85.1723 28.3989V27.4106H84.184V28.3989H85.1723ZM86.2733 29.5V28.5117H85.2851V29.5H86.2733ZM84.0766 28.3989V27.4106H83.0829V28.3989H84.0766ZM86.2733 30.6011V29.6074H85.2851V30.6011H86.2733ZM82.9755 28.3989V27.4106H81.9818V28.3989H82.9755ZM81.8744 28.3989V27.4106H80.8861V28.3989H81.8744ZM85.1723 31.7021V30.7085H84.184V31.7021H85.1723ZM81.8744 29.5V28.5117H80.8861V29.5H81.8744ZM84.0766 31.7021V30.7085H83.0829V31.7021H84.0766ZM81.8744 30.6011V29.6074H80.8861V30.6011H81.8744ZM82.9755 31.7021V30.7085H81.9818V31.7021H82.9755ZM84.0766 32.7979V31.8096H83.0829V32.7979H84.0766ZM85.1723 33.8989V32.9106H84.184V33.8989H85.1723ZM86.2733 35V34.0117H85.2851V35H86.2733ZM81.8744 31.7021V30.7085H80.8861V31.7021H81.8744ZM81.8744 32.7979V31.8096H80.8861V32.7979H81.8744ZM81.8744 33.8989V32.9106H80.8861V33.8989H81.8744ZM81.8744 35V34.0117H80.8861V35H81.8744ZM91.218 28.3989V27.4106H90.2297V28.3989H91.218ZM92.319 29.5V28.5117H91.3308V29.5H92.319ZM90.1223 28.3989V27.4106H89.1286V28.3989H90.1223ZM92.319 30.6011V29.6074H91.3308V30.6011H92.319ZM89.0212 28.3989V27.4106H88.0275V28.3989H89.0212ZM92.319 31.7021V30.7085H91.3308V31.7021H92.319ZM92.319 32.7979V31.8096H91.3308V32.7979H92.319ZM87.9201 29.5V28.5117H86.9318V29.5H87.9201ZM91.218 32.7979V31.8096H90.2297V32.7979H91.218ZM92.319 33.8989V32.9106H91.3308V33.8989H92.319ZM87.9201 30.6011V29.6074H86.9318V30.6011H87.9201ZM90.1223 32.7979V31.8096H89.1286V32.7979H90.1223ZM92.319 35V34.0117H91.3308V35H92.319ZM87.9201 31.7021V30.7085H86.9318V31.7021H87.9201ZM89.0212 32.7979V31.8096H88.0275V32.7979H89.0212ZM87.9201 32.7979V31.8096H86.9318V32.7979H87.9201ZM87.9201 33.8989V32.9106H86.9318V33.8989H87.9201ZM87.9201 35V34.0117H86.9318V35H87.9201ZM8.8877 42.3989V41.4106H7.89941V42.3989H8.8877ZM9.98877 43.5V42.5117H9.00049V43.5H9.98877ZM7.79199 42.3989V41.4106H6.79834V42.3989H7.79199ZM9.98877 44.6011V43.6074H9.00049V44.6011H9.98877ZM6.69092 42.3989V41.4106H5.69727V42.3989H6.69092ZM8.8877 45.7021V44.7085H7.89941V45.7021H8.8877ZM5.58984 43.5V42.5117H4.60156V43.5H5.58984ZM7.79199 46.7979V45.8096H6.79834V46.7979H7.79199ZM9.98877 49V48.0117H9.00049V49H9.98877ZM8.8877 49V48.0117H7.89941V49H8.8877ZM6.69092 47.8989V46.9106H5.69727V47.8989H6.69092ZM7.79199 49V48.0117H6.79834V49H7.79199ZM6.69092 49V48.0117H5.69727V49H6.69092ZM5.58984 49V48.0117H4.60156V49H5.58984ZM13.8377 47.8989V46.9106H12.844V47.8989H13.8377ZM12.7366 47.8989V46.9106H11.743V47.8989H12.7366ZM13.8377 49V48.0117H12.844V49H13.8377ZM12.7366 49V48.0117H11.743V49H12.7366ZM22.0802 42.3989V41.4106H21.0919V42.3989H22.0802ZM22.0802 43.5V42.5117H21.0919V43.5H22.0802ZM22.0802 44.6011V43.6074H21.0919V44.6011H22.0802ZM22.0802 45.7021V44.7085H21.0919V45.7021H22.0802ZM17.6812 42.3989V41.4106H16.693V42.3989H17.6812ZM22.0802 46.7979V45.8096H21.0919V46.7979H22.0802ZM17.6812 43.5V42.5117H16.693V43.5H17.6812ZM17.6812 44.6011V43.6074H16.693V44.6011H17.6812ZM20.9791 47.8989V46.9106H19.9908V47.8989H20.9791ZM17.6812 45.7021V44.7085H16.693V45.7021H17.6812ZM17.6812 46.7979V45.8096H16.693V46.7979H17.6812ZM18.7823 47.8989V46.9106H17.7887V47.8989H18.7823ZM19.8834 49V48.0117H18.8897V49H19.8834ZM28.1259 42.3989V41.4106H27.1376V42.3989H28.1259ZM27.0248 42.3989V41.4106H26.0365V42.3989H27.0248ZM25.9291 42.3989V41.4106H24.9354V42.3989H25.9291ZM24.828 42.3989V41.4106H23.8344V42.3989H24.828ZM23.727 42.3989V41.4106H22.7387V42.3989H23.727ZM27.0248 45.7021V44.7085H26.0365V45.7021H27.0248ZM23.727 43.5V42.5117H22.7387V43.5H23.727ZM25.9291 45.7021V44.7085H24.9354V45.7021H25.9291ZM23.727 44.6011V43.6074H22.7387V44.6011H23.727ZM24.828 45.7021V44.7085H23.8344V45.7021H24.828ZM28.1259 49V48.0117H27.1376V49H28.1259ZM23.727 45.7021V44.7085H22.7387V45.7021H23.727ZM27.0248 49V48.0117H26.0365V49H27.0248ZM23.727 46.7979V45.8096H22.7387V46.7979H23.727ZM25.9291 49V48.0117H24.9354V49H25.9291ZM23.727 47.8989V46.9106H22.7387V47.8989H23.727ZM24.828 49V48.0117H23.8344V49H24.828ZM23.727 49V48.0117H22.7387V49H23.727ZM34.1716 42.3989V41.4106H33.1833V42.3989H34.1716ZM34.1716 43.5V42.5117H33.1833V43.5H34.1716ZM34.1716 44.6011V43.6074H33.1833V44.6011H34.1716ZM34.1716 45.7021V44.7085H33.1833V45.7021H34.1716ZM29.7727 42.3989V41.4106H28.7844V42.3989H29.7727ZM34.1716 46.7979V45.8096H33.1833V46.7979H34.1716ZM29.7727 43.5V42.5117H28.7844V43.5H29.7727ZM30.8737 44.6011V43.6074H29.8801V44.6011H30.8737ZM31.9748 45.7021V44.7085H30.9812V45.7021H31.9748ZM33.0705 46.7979V45.8096H32.0822V46.7979H33.0705ZM34.1716 47.8989V46.9106H33.1833V47.8989H34.1716ZM29.7727 44.6011V43.6074H28.7844V44.6011H29.7727ZM34.1716 49V48.0117H33.1833V49H34.1716ZM29.7727 45.7021V44.7085H28.7844V45.7021H29.7727ZM29.7727 46.7979V45.8096H28.7844V46.7979H29.7727ZM29.7727 47.8989V46.9106H28.7844V47.8989H29.7727ZM29.7727 49V48.0117H28.7844V49H29.7727ZM40.2173 42.3989V41.4106H39.229V42.3989H40.2173ZM39.1162 42.3989V41.4106H38.1279V42.3989H39.1162ZM38.0205 42.3989V41.4106H37.0269V42.3989H38.0205ZM36.9194 42.3989V41.4106H35.9258V42.3989H36.9194ZM38.0205 43.5V42.5117H37.0269V43.5H38.0205ZM35.8184 42.3989V41.4106H34.8301V42.3989H35.8184ZM38.0205 44.6011V43.6074H37.0269V44.6011H38.0205ZM38.0205 45.7021V44.7085H37.0269V45.7021H38.0205ZM38.0205 46.7979V45.8096H37.0269V46.7979H38.0205ZM38.0205 47.8989V46.9106H37.0269V47.8989H38.0205ZM38.0205 49V48.0117H37.0269V49H38.0205ZM44.2811 42.3989V41.4106H43.2928V42.3989H44.2811ZM45.3821 43.5V42.5117H44.3938V43.5H45.3821ZM43.1854 42.3989V41.4106H42.1917V42.3989H43.1854ZM45.3821 44.6011V43.6074H44.3938V44.6011H45.3821ZM42.0843 42.3989V41.4106H41.0906V42.3989H42.0843ZM45.3821 45.7021V44.7085H44.3938V45.7021H45.3821ZM45.3821 46.7979V45.8096H44.3938V46.7979H45.3821ZM40.9832 43.5V42.5117H39.9949V43.5H40.9832ZM44.2811 46.7979V45.8096H43.2928V46.7979H44.2811ZM45.3821 47.8989V46.9106H44.3938V47.8989H45.3821ZM40.9832 44.6011V43.6074H39.9949V44.6011H40.9832ZM43.1854 46.7979V45.8096H42.1917V46.7979H43.1854ZM45.3821 49V48.0117H44.3938V49H45.3821ZM40.9832 45.7021V44.7085H39.9949V45.7021H40.9832ZM42.0843 46.7979V45.8096H41.0906V46.7979H42.0843ZM40.9832 46.7979V45.8096H39.9949V46.7979H40.9832ZM40.9832 47.8989V46.9106H39.9949V47.8989H40.9832ZM40.9832 49V48.0117H39.9949V49H40.9832ZM56.8612 42.3989V41.4106H55.8729V42.3989H56.8612ZM55.7602 42.3989V41.4106H54.7719V42.3989H55.7602ZM54.6645 42.3989V41.4106H53.6708V42.3989H54.6645ZM53.5634 42.3989V41.4106H52.5697V42.3989H53.5634ZM52.4623 42.3989V41.4106H51.474V42.3989H52.4623ZM55.7602 45.7021V44.7085H54.7719V45.7021H55.7602ZM52.4623 43.5V42.5117H51.474V43.5H52.4623ZM54.6645 45.7021V44.7085H53.6708V45.7021H54.6645ZM52.4623 44.6011V43.6074H51.474V44.6011H52.4623ZM53.5634 45.7021V44.7085H52.5697V45.7021H53.5634ZM56.8612 49V48.0117H55.8729V49H56.8612ZM52.4623 45.7021V44.7085H51.474V45.7021H52.4623ZM55.7602 49V48.0117H54.7719V49H55.7602ZM52.4623 46.7979V45.8096H51.474V46.7979H52.4623ZM54.6645 49V48.0117H53.6708V49H54.6645ZM52.4623 47.8989V46.9106H51.474V47.8989H52.4623ZM53.5634 49V48.0117H52.5697V49H53.5634ZM52.4623 49V48.0117H51.474V49H52.4623ZM62.9069 42.3989V41.4106H61.9187V42.3989H62.9069ZM62.9069 43.5V42.5117H61.9187V43.5H62.9069ZM61.8059 44.6011V43.6074H60.8176V44.6011H61.8059ZM58.508 42.3989V41.4106H57.5197V42.3989H58.508ZM58.508 43.5V42.5117H57.5197V43.5H58.508ZM59.6091 44.6011V43.6074H58.6154V44.6011H59.6091ZM60.7102 45.7021V44.7085H59.7165V45.7021H60.7102ZM61.8059 46.7979V45.8096H60.8176V46.7979H61.8059ZM62.9069 47.8989V46.9106H61.9187V47.8989H62.9069ZM62.9069 49V48.0117H61.9187V49H62.9069ZM59.6091 46.7979V45.8096H58.6154V46.7979H59.6091ZM58.508 47.8989V46.9106H57.5197V47.8989H58.508ZM58.508 49V48.0117H57.5197V49H58.508ZM67.8516 42.3989V41.4106H66.8633V42.3989H67.8516ZM68.9526 43.5V42.5117H67.9644V43.5H68.9526ZM66.7559 42.3989V41.4106H65.7622V42.3989H66.7559ZM65.6548 42.3989V41.4106H64.6611V42.3989H65.6548ZM64.5537 43.5V42.5117H63.5654V43.5H64.5537ZM68.9526 47.8989V46.9106H67.9644V47.8989H68.9526ZM64.5537 44.6011V43.6074H63.5654V44.6011H64.5537ZM64.5537 45.7021V44.7085H63.5654V45.7021H64.5537ZM67.8516 49V48.0117H66.8633V49H67.8516ZM64.5537 46.7979V45.8096H63.5654V46.7979H64.5537ZM66.7559 49V48.0117H65.7622V49H66.7559ZM64.5537 47.8989V46.9106H63.5654V47.8989H64.5537ZM65.6548 49V48.0117H64.6611V49H65.6548ZM74.9983 42.3989V41.4106H74.0101V42.3989H74.9983ZM73.8973 42.3989V41.4106H72.909V42.3989H73.8973ZM72.8016 42.3989V41.4106H71.8079V42.3989H72.8016ZM71.7005 42.3989V41.4106H70.7068V42.3989H71.7005ZM70.5994 42.3989V41.4106H69.6111V42.3989H70.5994ZM73.8973 45.7021V44.7085H72.909V45.7021H73.8973ZM70.5994 43.5V42.5117H69.6111V43.5H70.5994ZM72.8016 45.7021V44.7085H71.8079V45.7021H72.8016ZM70.5994 44.6011V43.6074H69.6111V44.6011H70.5994ZM71.7005 45.7021V44.7085H70.7068V45.7021H71.7005ZM74.9983 49V48.0117H74.0101V49H74.9983ZM70.5994 45.7021V44.7085H69.6111V45.7021H70.5994ZM73.8973 49V48.0117H72.909V49H73.8973ZM70.5994 46.7979V45.8096H69.6111V46.7979H70.5994ZM72.8016 49V48.0117H71.8079V49H72.8016ZM70.5994 47.8989V46.9106H69.6111V47.8989H70.5994ZM71.7005 49V48.0117H70.7068V49H71.7005ZM70.5994 49V48.0117H69.6111V49H70.5994ZM81.044 42.3989V41.4106H80.0558V42.3989H81.044ZM81.044 43.5V42.5117H80.0558V43.5H81.044ZM81.044 44.6011V43.6074H80.0558V44.6011H81.044ZM81.044 45.7021V44.7085H80.0558V45.7021H81.044ZM76.6451 42.3989V41.4106H75.6568V42.3989H76.6451ZM81.044 46.7979V45.8096H80.0558V46.7979H81.044ZM76.6451 43.5V42.5117H75.6568V43.5H76.6451ZM77.7462 44.6011V43.6074H76.7525V44.6011H77.7462ZM78.8473 45.7021V44.7085H77.8536V45.7021H78.8473ZM79.943 46.7979V45.8096H78.9547V46.7979H79.943ZM81.044 47.8989V46.9106H80.0558V47.8989H81.044ZM76.6451 44.6011V43.6074H75.6568V44.6011H76.6451ZM81.044 49V48.0117H80.0558V49H81.044ZM76.6451 45.7021V44.7085H75.6568V45.7021H76.6451ZM76.6451 46.7979V45.8096H75.6568V46.7979H76.6451ZM76.6451 47.8989V46.9106H75.6568V47.8989H76.6451ZM76.6451 49V48.0117H75.6568V49H76.6451ZM87.0897 42.3989V41.4106H86.1015V42.3989H87.0897ZM85.9887 42.3989V41.4106H85.0004V42.3989H85.9887ZM84.893 42.3989V41.4106H83.8993V42.3989H84.893ZM83.7919 42.3989V41.4106H82.7982V42.3989H83.7919ZM84.893 43.5V42.5117H83.8993V43.5H84.893ZM82.6908 42.3989V41.4106H81.7025V42.3989H82.6908ZM84.893 44.6011V43.6074H83.8993V44.6011H84.893ZM84.893 45.7021V44.7085H83.8993V45.7021H84.893ZM84.893 46.7979V45.8096H83.8993V46.7979H84.893ZM84.893 47.8989V46.9106H83.8993V47.8989H84.893ZM84.893 49V48.0117H83.8993V49H84.893ZM91.1535 42.3989V41.4106H90.1652V42.3989H91.1535ZM92.2546 43.5V42.5117H91.2663V43.5H92.2546ZM90.0578 42.3989V41.4106H89.0642V42.3989H90.0578ZM92.2546 44.6011V43.6074H91.2663V44.6011H92.2546ZM88.9567 42.3989V41.4106H87.9631V42.3989H88.9567ZM92.2546 45.7021V44.7085H91.2663V45.7021H92.2546ZM92.2546 46.7979V45.8096H91.2663V46.7979H92.2546ZM87.8557 43.5V42.5117H86.8674V43.5H87.8557ZM91.1535 46.7979V45.8096H90.1652V46.7979H91.1535ZM92.2546 47.8989V46.9106H91.2663V47.8989H92.2546ZM87.8557 44.6011V43.6074H86.8674V44.6011H87.8557ZM90.0578 46.7979V45.8096H89.0642V46.7979H90.0578ZM92.2546 49V48.0117H91.2663V49H92.2546ZM87.8557 45.7021V44.7085H86.8674V45.7021H87.8557ZM88.9567 46.7979V45.8096H87.9631V46.7979H88.9567ZM87.8557 46.7979V45.8096H86.8674V46.7979H87.8557ZM87.8557 47.8989V46.9106H86.8674V47.8989H87.8557ZM87.8557 49V48.0117H86.8674V49H87.8557ZM9.98877 56.3989V55.4106H9.00049V56.3989H9.98877ZM8.8877 56.3989V55.4106H7.89941V56.3989H8.8877ZM7.79199 56.3989V55.4106H6.79834V56.3989H7.79199ZM8.8877 57.5V56.5117H7.89941V57.5H8.8877ZM6.69092 56.3989V55.4106H5.69727V56.3989H6.69092ZM5.58984 56.3989V55.4106H4.60156V56.3989H5.58984ZM7.79199 58.6011V57.6074H6.79834V58.6011H7.79199ZM8.8877 59.7021V58.7085H7.89941V59.7021H8.8877ZM9.98877 60.7979V59.8096H9.00049V60.7979H9.98877ZM9.98877 61.8989V60.9106H9.00049V61.8989H9.98877ZM8.8877 63V62.0117H7.89941V63H8.8877ZM7.79199 63V62.0117H6.79834V63H7.79199ZM5.58984 61.8989V60.9106H4.60156V61.8989H5.58984ZM6.69092 63V62.0117H5.69727V63H6.69092ZM13.8377 61.8989V60.9106H12.844V61.8989H13.8377ZM12.7366 61.8989V60.9106H11.743V61.8989H12.7366ZM13.8377 63V62.0117H12.844V63H13.8377ZM12.7366 63V62.0117H11.743V63H12.7366ZM20.9791 56.3989V55.4106H19.9908V56.3989H20.9791ZM22.0802 57.5V56.5117H21.0919V57.5H22.0802ZM19.8834 56.3989V55.4106H18.8897V56.3989H19.8834ZM18.7823 56.3989V55.4106H17.7887V56.3989H18.7823ZM17.6812 57.5V56.5117H16.693V57.5H17.6812ZM22.0802 61.8989V60.9106H21.0919V61.8989H22.0802ZM17.6812 58.6011V57.6074H16.693V58.6011H17.6812ZM17.6812 59.7021V58.7085H16.693V59.7021H17.6812ZM20.9791 63V62.0117H19.9908V63H20.9791ZM17.6812 60.7979V59.8096H16.693V60.7979H17.6812ZM19.8834 63V62.0117H18.8897V63H19.8834ZM17.6812 61.8989V60.9106H16.693V61.8989H17.6812ZM18.7823 63V62.0117H17.7887V63H18.7823ZM27.0248 56.3989V55.4106H26.0365V56.3989H27.0248ZM28.1259 57.5V56.5117H27.1376V57.5H28.1259ZM25.9291 56.3989V55.4106H24.9354V56.3989H25.9291ZM28.1259 58.6011V57.6074H27.1376V58.6011H28.1259ZM24.828 56.3989V55.4106H23.8344V56.3989H24.828ZM28.1259 59.7021V58.7085H27.1376V59.7021H28.1259ZM28.1259 60.7979V59.8096H27.1376V60.7979H28.1259ZM23.727 57.5V56.5117H22.7387V57.5H23.727ZM28.1259 61.8989V60.9106H27.1376V61.8989H28.1259ZM23.727 58.6011V57.6074H22.7387V58.6011H23.727ZM23.727 59.7021V58.7085H22.7387V59.7021H23.727ZM27.0248 63V62.0117H26.0365V63H27.0248ZM23.727 60.7979V59.8096H22.7387V60.7979H23.727ZM25.9291 63V62.0117H24.9354V63H25.9291ZM23.727 61.8989V60.9106H22.7387V61.8989H23.727ZM24.828 63V62.0117H23.8344V63H24.828ZM34.1716 56.3989V55.4106H33.1833V56.3989H34.1716ZM34.1716 57.5V56.5117H33.1833V57.5H34.1716ZM33.0705 57.5V56.5117H32.0822V57.5H33.0705ZM34.1716 58.6011V57.6074H33.1833V58.6011H34.1716ZM34.1716 59.7021V58.7085H33.1833V59.7021H34.1716ZM29.7727 56.3989V55.4106H28.7844V56.3989H29.7727ZM30.8737 57.5V56.5117H29.8801V57.5H30.8737ZM31.9748 58.6011V57.6074H30.9812V58.6011H31.9748ZM34.1716 60.7979V59.8096H33.1833V60.7979H34.1716ZM29.7727 57.5V56.5117H28.7844V57.5H29.7727ZM31.9748 59.7021V58.7085H30.9812V59.7021H31.9748ZM34.1716 61.8989V60.9106H33.1833V61.8989H34.1716ZM29.7727 58.6011V57.6074H28.7844V58.6011H29.7727ZM34.1716 63V62.0117H33.1833V63H34.1716ZM29.7727 59.7021V58.7085H28.7844V59.7021H29.7727ZM29.7727 60.7979V59.8096H28.7844V60.7979H29.7727ZM29.7727 61.8989V60.9106H28.7844V61.8989H29.7727ZM29.7727 63V62.0117H28.7844V63H29.7727ZM40.2173 56.3989V55.4106H39.229V56.3989H40.2173ZM39.1162 56.3989V55.4106H38.1279V56.3989H39.1162ZM38.0205 56.3989V55.4106H37.0269V56.3989H38.0205ZM36.9194 56.3989V55.4106H35.9258V56.3989H36.9194ZM35.8184 56.3989V55.4106H34.8301V56.3989H35.8184ZM39.1162 59.7021V58.7085H38.1279V59.7021H39.1162ZM35.8184 57.5V56.5117H34.8301V57.5H35.8184ZM38.0205 59.7021V58.7085H37.0269V59.7021H38.0205ZM35.8184 58.6011V57.6074H34.8301V58.6011H35.8184ZM36.9194 59.7021V58.7085H35.9258V59.7021H36.9194ZM40.2173 63V62.0117H39.229V63H40.2173ZM35.8184 59.7021V58.7085H34.8301V59.7021H35.8184ZM39.1162 63V62.0117H38.1279V63H39.1162ZM35.8184 60.7979V59.8096H34.8301V60.7979H35.8184ZM38.0205 63V62.0117H37.0269V63H38.0205ZM35.8184 61.8989V60.9106H34.8301V61.8989H35.8184ZM36.9194 63V62.0117H35.9258V63H36.9194ZM35.8184 63V62.0117H34.8301V63H35.8184ZM45.1619 56.3989V55.4106H44.1736V56.3989H45.1619ZM46.263 57.5V56.5117H45.2747V57.5H46.263ZM44.0662 56.3989V55.4106H43.0726V56.3989H44.0662ZM46.263 58.6011V57.6074H45.2747V58.6011H46.263ZM42.9651 56.3989V55.4106H41.9715V56.3989H42.9651ZM41.8641 56.3989V55.4106H40.8758V56.3989H41.8641ZM45.1619 59.7021V58.7085H44.1736V59.7021H45.1619ZM41.8641 57.5V56.5117H40.8758V57.5H41.8641ZM44.0662 59.7021V58.7085H43.0726V59.7021H44.0662ZM41.8641 58.6011V57.6074H40.8758V58.6011H41.8641ZM42.9651 59.7021V58.7085H41.9715V59.7021H42.9651ZM44.0662 60.7979V59.8096H43.0726V60.7979H44.0662ZM45.1619 61.8989V60.9106H44.1736V61.8989H45.1619ZM46.263 63V62.0117H45.2747V63H46.263ZM41.8641 59.7021V58.7085H40.8758V59.7021H41.8641ZM41.8641 60.7979V59.8096H40.8758V60.7979H41.8641ZM41.8641 61.8989V60.9106H40.8758V61.8989H41.8641ZM41.8641 63V62.0117H40.8758V63H41.8641ZM51.2076 56.3989V55.4106H50.2193V56.3989H51.2076ZM52.3087 57.5V56.5117H51.3204V57.5H52.3087ZM50.1119 56.3989V55.4106H49.1183V56.3989H50.1119ZM49.0108 56.3989V55.4106H48.0172V56.3989H49.0108ZM47.9098 57.5V56.5117H46.9215V57.5H47.9098ZM52.3087 61.8989V60.9106H51.3204V61.8989H52.3087ZM47.9098 58.6011V57.6074H46.9215V58.6011H47.9098ZM47.9098 59.7021V58.7085H46.9215V59.7021H47.9098ZM51.2076 63V62.0117H50.2193V63H51.2076ZM47.9098 60.7979V59.8096H46.9215V60.7979H47.9098ZM50.1119 63V62.0117H49.1183V63H50.1119ZM47.9098 61.8989V60.9106H46.9215V61.8989H47.9098ZM49.0108 63V62.0117H48.0172V63H49.0108ZM57.2533 56.3989V55.4106H56.265V56.3989H57.2533ZM56.1576 56.3989V55.4106H55.164V56.3989H56.1576ZM55.0565 56.3989V55.4106H54.0629V56.3989H55.0565ZM56.1576 57.5V56.5117H55.164V57.5H56.1576ZM56.1576 58.6011V57.6074H55.164V58.6011H56.1576ZM56.1576 59.7021V58.7085H55.164V59.7021H56.1576ZM56.1576 60.7979V59.8096H55.164V60.7979H56.1576ZM56.1576 61.8989V60.9106H55.164V61.8989H56.1576ZM57.2533 63V62.0117H56.265V63H57.2533ZM56.1576 63V62.0117H55.164V63H56.1576ZM55.0565 63V62.0117H54.0629V63H55.0565ZM63.299 56.3989V55.4106H62.3107V56.3989H63.299ZM64.4001 57.5V56.5117H63.4118V57.5H64.4001ZM62.2033 56.3989V55.4106H61.2097V56.3989H62.2033ZM64.4001 58.6011V57.6074H63.4118V58.6011H64.4001ZM61.1022 56.3989V55.4106H60.1086V56.3989H61.1022ZM64.4001 59.7021V58.7085H63.4118V59.7021H64.4001ZM64.4001 60.7979V59.8096H63.4118V60.7979H64.4001ZM60.0012 57.5V56.5117H59.0129V57.5H60.0012ZM64.4001 61.8989V60.9106H63.4118V61.8989H64.4001ZM60.0012 58.6011V57.6074H59.0129V58.6011H60.0012ZM60.0012 59.7021V58.7085H59.0129V59.7021H60.0012ZM63.299 63V62.0117H62.3107V63H63.299ZM60.0012 60.7979V59.8096H59.0129V60.7979H60.0012ZM62.2033 63V62.0117H61.2097V63H62.2033ZM60.0012 61.8989V60.9106H59.0129V61.8989H60.0012ZM61.1022 63V62.0117H60.1086V63H61.1022ZM8.8877 70.3989V69.4106H7.89941V70.3989H8.8877ZM8.8877 71.5V70.5117H7.89941V71.5H8.8877ZM7.79199 71.5V70.5117H6.79834V71.5H7.79199ZM8.8877 72.6011V71.6074H7.89941V72.6011H8.8877ZM8.8877 73.7021V72.7085H7.89941V73.7021H8.8877ZM9.98877 74.7979V73.8096H9.00049V74.7979H9.98877ZM6.69092 72.6011V71.6074H5.69727V72.6011H6.69092ZM8.8877 74.7979V73.8096H7.89941V74.7979H8.8877ZM7.79199 74.7979V73.8096H6.79834V74.7979H7.79199ZM8.8877 75.8989V74.9106H7.89941V75.8989H8.8877ZM5.58984 73.7021V72.7085H4.60156V73.7021H5.58984ZM6.69092 74.7979V73.8096H5.69727V74.7979H6.69092ZM8.8877 77V76.0117H7.89941V77H8.8877ZM5.58984 74.7979V73.8096H4.60156V74.7979H5.58984ZM13.8377 75.8989V74.9106H12.844V75.8989H13.8377ZM12.7366 75.8989V74.9106H11.743V75.8989H12.7366ZM13.8377 77V76.0117H12.844V77H13.8377ZM12.7366 77V76.0117H11.743V77H12.7366ZM22.0802 70.3989V69.4106H21.0919V70.3989H22.0802ZM22.0802 71.5V70.5117H21.0919V71.5H22.0802ZM22.0802 72.6011V71.6074H21.0919V72.6011H22.0802ZM22.0802 73.7021V72.7085H21.0919V73.7021H22.0802ZM17.6812 70.3989V69.4106H16.693V70.3989H17.6812ZM22.0802 74.7979V73.8096H21.0919V74.7979H22.0802ZM17.6812 71.5V70.5117H16.693V71.5H17.6812ZM17.6812 72.6011V71.6074H16.693V72.6011H17.6812ZM20.9791 75.8989V74.9106H19.9908V75.8989H20.9791ZM17.6812 73.7021V72.7085H16.693V73.7021H17.6812ZM17.6812 74.7979V73.8096H16.693V74.7979H17.6812ZM18.7823 75.8989V74.9106H17.7887V75.8989H18.7823ZM19.8834 77V76.0117H18.8897V77H19.8834ZM28.1259 70.3989V69.4106H27.1376V70.3989H28.1259ZM27.0248 70.3989V69.4106H26.0365V70.3989H27.0248ZM25.9291 70.3989V69.4106H24.9354V70.3989H25.9291ZM24.828 70.3989V69.4106H23.8344V70.3989H24.828ZM23.727 70.3989V69.4106H22.7387V70.3989H23.727ZM27.0248 73.7021V72.7085H26.0365V73.7021H27.0248ZM23.727 71.5V70.5117H22.7387V71.5H23.727ZM25.9291 73.7021V72.7085H24.9354V73.7021H25.9291ZM23.727 72.6011V71.6074H22.7387V72.6011H23.727ZM24.828 73.7021V72.7085H23.8344V73.7021H24.828ZM28.1259 77V76.0117H27.1376V77H28.1259ZM23.727 73.7021V72.7085H22.7387V73.7021H23.727ZM27.0248 77V76.0117H26.0365V77H27.0248ZM23.727 74.7979V73.8096H22.7387V74.7979H23.727ZM25.9291 77V76.0117H24.9354V77H25.9291ZM23.727 75.8989V74.9106H22.7387V75.8989H23.727ZM24.828 77V76.0117H23.8344V77H24.828ZM23.727 77V76.0117H22.7387V77H23.727ZM34.1716 70.3989V69.4106H33.1833V70.3989H34.1716ZM34.1716 71.5V70.5117H33.1833V71.5H34.1716ZM34.1716 72.6011V71.6074H33.1833V72.6011H34.1716ZM34.1716 73.7021V72.7085H33.1833V73.7021H34.1716ZM29.7727 70.3989V69.4106H28.7844V70.3989H29.7727ZM34.1716 74.7979V73.8096H33.1833V74.7979H34.1716ZM29.7727 71.5V70.5117H28.7844V71.5H29.7727ZM30.8737 72.6011V71.6074H29.8801V72.6011H30.8737ZM31.9748 73.7021V72.7085H30.9812V73.7021H31.9748ZM33.0705 74.7979V73.8096H32.0822V74.7979H33.0705ZM34.1716 75.8989V74.9106H33.1833V75.8989H34.1716ZM29.7727 72.6011V71.6074H28.7844V72.6011H29.7727ZM34.1716 77V76.0117H33.1833V77H34.1716ZM29.7727 73.7021V72.7085H28.7844V73.7021H29.7727ZM29.7727 74.7979V73.8096H28.7844V74.7979H29.7727ZM29.7727 75.8989V74.9106H28.7844V75.8989H29.7727ZM29.7727 77V76.0117H28.7844V77H29.7727ZM40.2173 70.3989V69.4106H39.229V70.3989H40.2173ZM39.1162 70.3989V69.4106H38.1279V70.3989H39.1162ZM38.0205 70.3989V69.4106H37.0269V70.3989H38.0205ZM36.9194 70.3989V69.4106H35.9258V70.3989H36.9194ZM38.0205 71.5V70.5117H37.0269V71.5H38.0205ZM35.8184 70.3989V69.4106H34.8301V70.3989H35.8184ZM38.0205 72.6011V71.6074H37.0269V72.6011H38.0205ZM38.0205 73.7021V72.7085H37.0269V73.7021H38.0205ZM38.0205 74.7979V73.8096H37.0269V74.7979H38.0205ZM38.0205 75.8989V74.9106H37.0269V75.8989H38.0205ZM38.0205 77V76.0117H37.0269V77H38.0205ZM44.2811 70.3989V69.4106H43.2928V70.3989H44.2811ZM45.3821 71.5V70.5117H44.3938V71.5H45.3821ZM43.1854 70.3989V69.4106H42.1917V70.3989H43.1854ZM45.3821 72.6011V71.6074H44.3938V72.6011H45.3821ZM42.0843 70.3989V69.4106H41.0906V70.3989H42.0843ZM45.3821 73.7021V72.7085H44.3938V73.7021H45.3821ZM45.3821 74.7979V73.8096H44.3938V74.7979H45.3821ZM40.9832 71.5V70.5117H39.9949V71.5H40.9832ZM44.2811 74.7979V73.8096H43.2928V74.7979H44.2811ZM45.3821 75.8989V74.9106H44.3938V75.8989H45.3821ZM40.9832 72.6011V71.6074H39.9949V72.6011H40.9832ZM43.1854 74.7979V73.8096H42.1917V74.7979H43.1854ZM45.3821 77V76.0117H44.3938V77H45.3821ZM40.9832 73.7021V72.7085H39.9949V73.7021H40.9832ZM42.0843 74.7979V73.8096H41.0906V74.7979H42.0843ZM40.9832 74.7979V73.8096H39.9949V74.7979H40.9832ZM40.9832 75.8989V74.9106H39.9949V75.8989H40.9832ZM40.9832 77V76.0117H39.9949V77H40.9832ZM55.7602 70.3989V69.4106H54.7719V70.3989H55.7602ZM56.8612 71.5V70.5117H55.8729V71.5H56.8612ZM54.6645 70.3989V69.4106H53.6708V70.3989H54.6645ZM56.8612 72.6011V71.6074H55.8729V72.6011H56.8612ZM53.5634 70.3989V69.4106H52.5697V70.3989H53.5634ZM56.8612 73.7021V72.7085H55.8729V73.7021H56.8612ZM52.4623 70.3989V69.4106H51.474V70.3989H52.4623ZM56.8612 74.7979V73.8096H55.8729V74.7979H56.8612ZM52.4623 71.5V70.5117H51.474V71.5H52.4623ZM56.8612 75.8989V74.9106H55.8729V75.8989H56.8612ZM52.4623 72.6011V71.6074H51.474V72.6011H52.4623ZM52.4623 73.7021V72.7085H51.474V73.7021H52.4623ZM55.7602 77V76.0117H54.7719V77H55.7602ZM52.4623 74.7979V73.8096H51.474V74.7979H52.4623ZM54.6645 77V76.0117H53.6708V77H54.6645ZM52.4623 75.8989V74.9106H51.474V75.8989H52.4623ZM53.5634 77V76.0117H52.5697V77H53.5634ZM52.4623 77V76.0117H51.474V77H52.4623ZM61.8059 70.3989V69.4106H60.8176V70.3989H61.8059ZM60.7102 70.3989V69.4106H59.7165V70.3989H60.7102ZM59.6091 70.3989V69.4106H58.6154V70.3989H59.6091ZM60.7102 71.5V70.5117H59.7165V71.5H60.7102ZM60.7102 72.6011V71.6074H59.7165V72.6011H60.7102ZM60.7102 73.7021V72.7085H59.7165V73.7021H60.7102ZM60.7102 74.7979V73.8096H59.7165V74.7979H60.7102ZM60.7102 75.8989V74.9106H59.7165V75.8989H60.7102ZM61.8059 77V76.0117H60.8176V77H61.8059ZM60.7102 77V76.0117H59.7165V77H60.7102ZM59.6091 77V76.0117H58.6154V77H59.6091ZM68.9526 70.3989V69.4106H67.9644V70.3989H68.9526ZM68.9526 71.5V70.5117H67.9644V71.5H68.9526ZM68.9526 72.6011V71.6074H67.9644V72.6011H68.9526ZM68.9526 73.7021V72.7085H67.9644V73.7021H68.9526ZM64.5537 70.3989V69.4106H63.5654V70.3989H64.5537ZM68.9526 74.7979V73.8096H67.9644V74.7979H68.9526ZM64.5537 71.5V70.5117H63.5654V71.5H64.5537ZM64.5537 72.6011V71.6074H63.5654V72.6011H64.5537ZM67.8516 75.8989V74.9106H66.8633V75.8989H67.8516ZM64.5537 73.7021V72.7085H63.5654V73.7021H64.5537ZM64.5537 74.7979V73.8096H63.5654V74.7979H64.5537ZM65.6548 75.8989V74.9106H64.6611V75.8989H65.6548ZM66.7559 77V76.0117H65.7622V77H66.7559ZM73.8973 70.3989V69.4106H72.909V70.3989H73.8973ZM72.8016 70.3989V69.4106H71.8079V70.3989H72.8016ZM71.7005 70.3989V69.4106H70.7068V70.3989H71.7005ZM72.8016 71.5V70.5117H71.8079V71.5H72.8016ZM72.8016 72.6011V71.6074H71.8079V72.6011H72.8016ZM72.8016 73.7021V72.7085H71.8079V73.7021H72.8016ZM72.8016 74.7979V73.8096H71.8079V74.7979H72.8016ZM72.8016 75.8989V74.9106H71.8079V75.8989H72.8016ZM73.8973 77V76.0117H72.909V77H73.8973ZM72.8016 77V76.0117H71.8079V77H72.8016ZM71.7005 77V76.0117H70.7068V77H71.7005ZM79.943 70.3989V69.4106H78.9547V70.3989H79.943ZM81.044 71.5V70.5117H80.0558V71.5H81.044ZM78.8473 70.3989V69.4106H77.8536V70.3989H78.8473ZM81.044 72.6011V71.6074H80.0558V72.6011H81.044ZM77.7462 70.3989V69.4106H76.7525V70.3989H77.7462ZM81.044 73.7021V72.7085H80.0558V73.7021H81.044ZM76.6451 70.3989V69.4106H75.6568V70.3989H76.6451ZM81.044 74.7979V73.8096H80.0558V74.7979H81.044ZM76.6451 71.5V70.5117H75.6568V71.5H76.6451ZM81.044 75.8989V74.9106H80.0558V75.8989H81.044ZM76.6451 72.6011V71.6074H75.6568V72.6011H76.6451ZM76.6451 73.7021V72.7085H75.6568V73.7021H76.6451ZM79.943 77V76.0117H78.9547V77H79.943ZM76.6451 74.7979V73.8096H75.6568V74.7979H76.6451ZM78.8473 77V76.0117H77.8536V77H78.8473ZM76.6451 75.8989V74.9106H75.6568V75.8989H76.6451ZM77.7462 77V76.0117H76.7525V77H77.7462ZM76.6451 77V76.0117H75.6568V77H76.6451ZM85.9887 70.3989V69.4106H85.0004V70.3989H85.9887ZM84.893 70.3989V69.4106H83.8993V70.3989H84.893ZM83.7919 70.3989V69.4106H82.7982V70.3989H83.7919ZM84.893 71.5V70.5117H83.8993V71.5H84.893ZM84.893 72.6011V71.6074H83.8993V72.6011H84.893ZM84.893 73.7021V72.7085H83.8993V73.7021H84.893ZM84.893 74.7979V73.8096H83.8993V74.7979H84.893ZM84.893 75.8989V74.9106H83.8993V75.8989H84.893ZM85.9887 77V76.0117H85.0004V77H85.9887ZM84.893 77V76.0117H83.8993V77H84.893ZM83.7919 77V76.0117H82.7982V77H83.7919ZM92.0344 70.3989V69.4106H91.0461V70.3989H92.0344ZM93.1355 71.5V70.5117H92.1472V71.5H93.1355ZM90.9387 70.3989V69.4106H89.945V70.3989H90.9387ZM93.1355 72.6011V71.6074H92.1472V72.6011H93.1355ZM89.8376 70.3989V69.4106H88.8439V70.3989H89.8376ZM93.1355 73.7021V72.7085H92.1472V73.7021H93.1355ZM88.7365 70.3989V69.4106H87.7482V70.3989H88.7365ZM93.1355 74.7979V73.8096H92.1472V74.7979H93.1355ZM88.7365 71.5V70.5117H87.7482V71.5H88.7365ZM93.1355 75.8989V74.9106H92.1472V75.8989H93.1355ZM88.7365 72.6011V71.6074H87.7482V72.6011H88.7365ZM88.7365 73.7021V72.7085H87.7482V73.7021H88.7365ZM92.0344 77V76.0117H91.0461V77H92.0344ZM88.7365 74.7979V73.8096H87.7482V74.7979H88.7365ZM90.9387 77V76.0117H89.945V77H90.9387ZM88.7365 75.8989V74.9106H87.7482V75.8989H88.7365ZM89.8376 77V76.0117H88.8439V77H89.8376ZM88.7365 77V76.0117H87.7482V77H88.7365ZM98.0801 70.3989V69.4106H97.0918V70.3989H98.0801ZM99.1812 71.5V70.5117H98.1929V71.5H99.1812ZM96.9844 70.3989V69.4106H95.9907V70.3989H96.9844ZM99.1812 72.6011V71.6074H98.1929V72.6011H99.1812ZM95.8833 70.3989V69.4106H94.8896V70.3989H95.8833ZM99.1812 73.7021V72.7085H98.1929V73.7021H99.1812ZM99.1812 74.7979V73.8096H98.1929V74.7979H99.1812ZM94.7822 71.5V70.5117H93.7939V71.5H94.7822ZM98.0801 74.7979V73.8096H97.0918V74.7979H98.0801ZM99.1812 75.8989V74.9106H98.1929V75.8989H99.1812ZM94.7822 72.6011V71.6074H93.7939V72.6011H94.7822ZM96.9844 74.7979V73.8096H95.9907V74.7979H96.9844ZM99.1812 77V76.0117H98.1929V77H99.1812ZM94.7822 73.7021V72.7085H93.7939V73.7021H94.7822ZM95.8833 74.7979V73.8096H94.8896V74.7979H95.8833ZM94.7822 74.7979V73.8096H93.7939V74.7979H94.7822ZM94.7822 75.8989V74.9106H93.7939V75.8989H94.7822ZM94.7822 77V76.0117H93.7939V77H94.7822Z" fill="#141514"/>
<path d="M59.959 4.99902V4.10059H59.0605V4.99902H59.959ZM60.96 6V5.10156H60.0615V6H60.96ZM58.9629 4.99902V4.10059H58.0596V4.99902H58.9629ZM57.9619 4.99902V4.10059H57.0586V4.99902H57.9619ZM56.9609 6V5.10156H56.0625V6H56.9609ZM60.96 9.99902V9.10059H60.0615V9.99902H60.96ZM56.9609 7.00098V6.09766H56.0625V7.00098H56.9609ZM56.9609 8.00195V7.09863H56.0625V8.00195H56.9609ZM59.959 11V10.1016H59.0605V11H59.959ZM56.9609 8.99805V8.09961H56.0625V8.99805H56.9609ZM58.9629 11V10.1016H58.0596V11H58.9629ZM56.9609 9.99902V9.10059H56.0625V9.99902H56.9609ZM57.9619 11V10.1016H57.0586V11H57.9619ZM65.9551 4.99902V4.10059H65.0566V4.99902H65.9551ZM66.9561 6V5.10156H66.0576V6H66.9561ZM64.959 4.99902V4.10059H64.0557V4.99902H64.959ZM66.9561 7.00098V6.09766H66.0576V7.00098H66.9561ZM63.958 4.99902V4.10059H63.0547V4.99902H63.958ZM66.9561 8.00195V7.09863H66.0576V8.00195H66.9561ZM66.9561 8.99805V8.09961H66.0576V8.99805H66.9561ZM62.957 6V5.10156H62.0586V6H62.957ZM66.9561 9.99902V9.10059H66.0576V9.99902H66.9561ZM62.957 7.00098V6.09766H62.0586V7.00098H62.957ZM62.957 8.00195V7.09863H62.0586V8.00195H62.957ZM65.9551 11V10.1016H65.0566V11H65.9551ZM62.957 8.99805V8.09961H62.0586V8.99805H62.957ZM64.959 11V10.1016H64.0557V11H64.959ZM62.957 9.99902V9.10059H62.0586V9.99902H62.957ZM63.958 11V10.1016H63.0547V11H63.958ZM72.9521 4.99902V4.10059H72.0537V4.99902H72.9521ZM72.9521 6V5.10156H72.0537V6H72.9521ZM71.9512 6V5.10156H71.0527V6H71.9512ZM72.9521 7.00098V6.09766H72.0537V7.00098H72.9521ZM72.9521 8.00195V7.09863H72.0537V8.00195H72.9521ZM68.9531 4.99902V4.10059H68.0547V4.99902H68.9531ZM69.9541 6V5.10156H69.0508V6H69.9541ZM70.9551 7.00098V6.09766H70.0518V7.00098H70.9551ZM72.9521 8.99805V8.09961H72.0537V8.99805H72.9521ZM68.9531 6V5.10156H68.0547V6H68.9531ZM70.9551 8.00195V7.09863H70.0518V8.00195H70.9551ZM72.9521 9.99902V9.10059H72.0537V9.99902H72.9521ZM68.9531 7.00098V6.09766H68.0547V7.00098H68.9531ZM72.9521 11V10.1016H72.0537V11H72.9521ZM68.9531 8.00195V7.09863H68.0547V8.00195H68.9531ZM68.9531 8.99805V8.09961H68.0547V8.99805H68.9531ZM68.9531 9.99902V9.10059H68.0547V9.99902H68.9531ZM68.9531 11V10.1016H68.0547V11H68.9531ZM78.9482 4.99902V4.10059H78.0498V4.99902H78.9482ZM77.9473 4.99902V4.10059H77.0488V4.99902H77.9473ZM76.9512 4.99902V4.10059H76.0479V4.99902H76.9512ZM75.9502 4.99902V4.10059H75.0469V4.99902H75.9502ZM74.9492 4.99902V4.10059H74.0508V4.99902H74.9492ZM77.9473 8.00195V7.09863H77.0488V8.00195H77.9473ZM74.9492 6V5.10156H74.0508V6H74.9492ZM76.9512 8.00195V7.09863H76.0479V8.00195H76.9512ZM74.9492 7.00098V6.09766H74.0508V7.00098H74.9492ZM75.9502 8.00195V7.09863H75.0469V8.00195H75.9502ZM78.9482 11V10.1016H78.0498V11H78.9482ZM74.9492 8.00195V7.09863H74.0508V8.00195H74.9492ZM77.9473 11V10.1016H77.0488V11H77.9473ZM74.9492 8.99805V8.09961H74.0508V8.99805H74.9492ZM76.9512 11V10.1016H76.0479V11H76.9512ZM74.9492 9.99902V9.10059H74.0508V9.99902H74.9492ZM75.9502 11V10.1016H75.0469V11H75.9502ZM74.9492 11V10.1016H74.0508V11H74.9492ZM83.9434 4.99902V4.10059H83.0449V4.99902H83.9434ZM84.9443 6V5.10156H84.0459V6H84.9443ZM82.9473 4.99902V4.10059H82.0439V4.99902H82.9473ZM84.9443 7.00098V6.09766H84.0459V7.00098H84.9443ZM81.9463 4.99902V4.10059H81.043V4.99902H81.9463ZM80.9453 4.99902V4.10059H80.0469V4.99902H80.9453ZM83.9434 8.00195V7.09863H83.0449V8.00195H83.9434ZM80.9453 6V5.10156H80.0469V6H80.9453ZM82.9473 8.00195V7.09863H82.0439V8.00195H82.9473ZM80.9453 7.00098V6.09766H80.0469V7.00098H80.9453ZM81.9463 8.00195V7.09863H81.043V8.00195H81.9463ZM82.9473 8.99805V8.09961H82.0439V8.99805H82.9473ZM83.9434 9.99902V9.10059H83.0449V9.99902H83.9434ZM84.9443 11V10.1016H84.0459V11H84.9443ZM80.9453 8.00195V7.09863H80.0469V8.00195H80.9453ZM80.9453 8.99805V8.09961H80.0469V8.99805H80.9453ZM80.9453 9.99902V9.10059H80.0469V9.99902H80.9453ZM80.9453 11V10.1016H80.0469V11H80.9453ZM89.9395 4.99902V4.10059H89.041V4.99902H89.9395ZM90.9404 6V5.10156H90.042V6H90.9404ZM88.9434 4.99902V4.10059H88.04V4.99902H88.9434ZM87.9424 4.99902V4.10059H87.0391V4.99902H87.9424ZM86.9414 6V5.10156H86.043V6H86.9414ZM90.9404 9.99902V9.10059H90.042V9.99902H90.9404ZM86.9414 7.00098V6.09766H86.043V7.00098H86.9414ZM86.9414 8.00195V7.09863H86.043V8.00195H86.9414ZM89.9395 11V10.1016H89.041V11H89.9395ZM86.9414 8.99805V8.09961H86.043V8.99805H86.9414ZM88.9434 11V10.1016H88.04V11H88.9434ZM86.9414 9.99902V9.10059H86.043V9.99902H86.9414ZM87.9424 11V10.1016H87.0391V11H87.9424ZM95.9355 4.99902V4.10059H95.0371V4.99902H95.9355ZM94.9395 4.99902V4.10059H94.0361V4.99902H94.9395ZM93.9385 4.99902V4.10059H93.0352V4.99902H93.9385ZM94.9395 6V5.10156H94.0361V6H94.9395ZM94.9395 7.00098V6.09766H94.0361V7.00098H94.9395ZM94.9395 8.00195V7.09863H94.0361V8.00195H94.9395ZM94.9395 8.99805V8.09961H94.0361V8.99805H94.9395ZM94.9395 9.99902V9.10059H94.0361V9.99902H94.9395ZM95.9355 11V10.1016H95.0371V11H95.9355ZM94.9395 11V10.1016H94.0361V11H94.9395ZM93.9385 11V10.1016H93.0352V11H93.9385ZM101.932 4.99902V4.10059H101.033V4.99902H101.932ZM102.933 6V5.10156H102.034V6H102.933ZM100.936 4.99902V4.10059H100.032V4.99902H100.936ZM102.933 7.00098V6.09766H102.034V7.00098H102.933ZM99.9346 4.99902V4.10059H99.0312V4.99902H99.9346ZM102.933 8.00195V7.09863H102.034V8.00195H102.933ZM102.933 8.99805V8.09961H102.034V8.99805H102.933ZM98.9336 6V5.10156H98.0352V6H98.9336ZM102.933 9.99902V9.10059H102.034V9.99902H102.933ZM98.9336 7.00098V6.09766H98.0352V7.00098H98.9336ZM98.9336 8.00195V7.09863H98.0352V8.00195H98.9336ZM101.932 11V10.1016H101.033V11H101.932ZM98.9336 8.99805V8.09961H98.0352V8.99805H98.9336ZM100.936 11V10.1016H100.032V11H100.936ZM98.9336 9.99902V9.10059H98.0352V9.99902H98.9336ZM99.9346 11V10.1016H99.0312V11H99.9346Z" fill="white"/>
</g>
<defs>
<clipPath id="clip0">
<rect width="159" height="96" fill="white"/>
</clipPath>
</defs>
</svg>
