<svg width="452" height="280" viewBox="0 0 452 280" fill="none" xmlns="http://www.w3.org/2000/svg">
<rect width="452" height="280" fill="white"/>
<rect width="452" height="47" fill="#5B65C2"/>
<path d="M114.835 143H117.835V146H114.835V143ZM111.235 139.4H114.235V142.4H111.235V139.4ZM107.635 139.4H110.635V142.4H107.635V139.4ZM104.035 139.4H107.035V142.4H104.035V139.4ZM100.435 143H103.435V146H100.435V143ZM114.835 146.6H117.835V149.6H114.835V146.6ZM114.835 150.2H117.835V153.2H114.835V150.2ZM114.835 153.8H117.835V156.8H114.835V153.8ZM114.835 157.4H117.835V160.4H114.835V157.4ZM114.835 161H117.835V164H114.835V161ZM111.235 150.2H114.235V153.2H111.235V150.2ZM107.635 150.2H110.635V153.2H107.635V150.2ZM104.035 150.2H107.035V153.2H104.035V150.2ZM100.435 146.6H103.435V149.6H100.435V146.6ZM100.435 150.2H103.435V153.2H100.435V150.2ZM100.435 153.8H103.435V156.8H100.435V153.8ZM100.435 157.4H103.435V160.4H100.435V157.4ZM100.435 161H103.435V164H100.435V161ZM136.426 143H139.426V146H136.426V143ZM132.826 139.4H135.826V142.4H132.826V139.4ZM129.226 139.4H132.226V142.4H129.226V139.4ZM125.626 139.4H128.626V142.4H125.626V139.4ZM122.026 139.4H125.026V142.4H122.026V139.4ZM122.026 143H125.026V146H122.026V143ZM136.426 146.6H139.426V149.6H136.426V146.6ZM132.826 150.2H135.826V153.2H132.826V150.2ZM129.226 150.2H132.226V153.2H129.226V150.2ZM125.626 150.2H128.626V153.2H125.626V150.2ZM122.026 146.6H125.026V149.6H122.026V146.6ZM122.026 150.2H125.026V153.2H122.026V150.2ZM122.026 153.8H125.026V156.8H122.026V153.8ZM122.026 157.4H125.026V160.4H122.026V157.4ZM122.026 161H125.026V164H122.026V161ZM158.018 143H161.018V146H158.018V143ZM154.418 139.4H157.418V142.4H154.418V139.4ZM150.818 139.4H153.818V142.4H150.818V139.4ZM147.218 139.4H150.218V142.4H147.218V139.4ZM143.618 139.4H146.618V142.4H143.618V139.4ZM143.618 143H146.618V146H143.618V143ZM158.018 146.6H161.018V149.6H158.018V146.6ZM158.018 161H161.018V164H158.018V161ZM154.418 150.2H157.418V153.2H154.418V150.2ZM154.418 157.4H157.418V160.4H154.418V157.4ZM150.818 150.2H153.818V153.2H150.818V150.2ZM150.818 153.8H153.818V156.8H150.818V153.8ZM147.218 150.2H150.218V153.2H147.218V150.2ZM143.618 146.6H146.618V149.6H143.618V146.6ZM143.618 150.2H146.618V153.2H143.618V150.2ZM143.618 153.8H146.618V156.8H143.618V153.8ZM143.618 157.4H146.618V160.4H143.618V157.4ZM143.618 161H146.618V164H143.618V161ZM179.61 143H182.61V146H179.61V143ZM176.01 139.4H179.01V142.4H176.01V139.4ZM172.41 139.4H175.41V142.4H172.41V139.4ZM168.81 139.4H171.81V142.4H168.81V139.4ZM165.21 143H168.21V146H165.21V143ZM179.61 146.6H182.61V149.6H179.61V146.6ZM179.61 150.2H182.61V153.2H179.61V150.2ZM179.61 153.8H182.61V156.8H179.61V153.8ZM179.61 157.4H182.61V160.4H179.61V157.4ZM176.01 161H179.01V164H176.01V161ZM172.41 161H175.41V164H172.41V161ZM168.81 161H171.81V164H168.81V161ZM165.21 146.6H168.21V149.6H165.21V146.6ZM165.21 150.2H168.21V153.2H165.21V150.2ZM165.21 153.8H168.21V156.8H165.21V153.8ZM165.21 157.4H168.21V160.4H165.21V157.4ZM201.202 143H204.202V146H201.202V143ZM197.602 139.4H200.602V142.4H197.602V139.4ZM194.002 139.4H197.002V142.4H194.002V139.4ZM190.402 139.4H193.402V142.4H190.402V139.4ZM186.802 139.4H189.802V142.4H186.802V139.4ZM186.802 143H189.802V146H186.802V143ZM201.202 146.6H204.202V149.6H201.202V146.6ZM201.202 153.8H204.202V156.8H201.202V153.8ZM201.202 157.4H204.202V160.4H201.202V157.4ZM197.602 150.2H200.602V153.2H197.602V150.2ZM197.602 161H200.602V164H197.602V161ZM194.002 150.2H197.002V153.2H194.002V150.2ZM194.002 161H197.002V164H194.002V161ZM190.402 150.2H193.402V153.2H190.402V150.2ZM190.402 161H193.402V164H190.402V161ZM186.802 146.6H189.802V149.6H186.802V146.6ZM186.802 150.2H189.802V153.2H186.802V150.2ZM186.802 153.8H189.802V156.8H186.802V153.8ZM186.802 157.4H189.802V160.4H186.802V157.4ZM186.802 161H189.802V164H186.802V161ZM222.794 143H225.794V146H222.794V143ZM219.194 139.4H222.194V142.4H219.194V139.4ZM215.594 139.4H218.594V142.4H215.594V139.4ZM211.994 139.4H214.994V142.4H211.994V139.4ZM208.394 143H211.394V146H208.394V143ZM222.794 146.6H225.794V149.6H222.794V146.6ZM222.794 150.2H225.794V153.2H222.794V150.2ZM222.794 153.8H225.794V156.8H222.794V153.8ZM222.794 157.4H225.794V160.4H222.794V157.4ZM222.794 161H225.794V164H222.794V161ZM219.194 150.2H222.194V153.2H219.194V150.2ZM215.594 150.2H218.594V153.2H215.594V150.2ZM211.994 150.2H214.994V153.2H211.994V150.2ZM208.394 146.6H211.394V149.6H208.394V146.6ZM208.394 150.2H211.394V153.2H208.394V150.2ZM208.394 153.8H211.394V156.8H208.394V153.8ZM208.394 157.4H211.394V160.4H208.394V157.4ZM208.394 161H211.394V164H208.394V161ZM244.385 143H247.385V146H244.385V143ZM240.785 139.4H243.785V142.4H240.785V139.4ZM237.185 139.4H240.185V142.4H237.185V139.4ZM233.585 139.4H236.585V142.4H233.585V139.4ZM229.985 139.4H232.985V142.4H229.985V139.4ZM229.985 143H232.985V146H229.985V143ZM244.385 146.6H247.385V149.6H244.385V146.6ZM244.385 150.2H247.385V153.2H244.385V150.2ZM244.385 153.8H247.385V156.8H244.385V153.8ZM244.385 157.4H247.385V160.4H244.385V157.4ZM240.785 161H243.785V164H240.785V161ZM237.185 161H240.185V164H237.185V161ZM233.585 161H236.585V164H233.585V161ZM229.985 146.6H232.985V149.6H229.985V146.6ZM229.985 150.2H232.985V153.2H229.985V150.2ZM229.985 153.8H232.985V156.8H229.985V153.8ZM229.985 157.4H232.985V160.4H229.985V157.4ZM229.985 161H232.985V164H229.985V161ZM265.977 143H268.977V146H265.977V143ZM262.377 139.4H265.377V142.4H262.377V139.4ZM258.777 139.4H261.777V142.4H258.777V139.4ZM255.177 139.4H258.177V142.4H255.177V139.4ZM251.577 143H254.577V146H251.577V143ZM265.977 146.6H268.977V149.6H265.977V146.6ZM265.977 150.2H268.977V153.2H265.977V150.2ZM265.977 153.8H268.977V156.8H265.977V153.8ZM265.977 157.4H268.977V160.4H265.977V157.4ZM262.377 161H265.377V164H262.377V161ZM258.777 161H261.777V164H258.777V161ZM255.177 161H258.177V164H255.177V161ZM251.577 146.6H254.577V149.6H251.577V146.6ZM251.577 150.2H254.577V153.2H251.577V150.2ZM251.577 153.8H254.577V156.8H251.577V153.8ZM251.577 157.4H254.577V160.4H251.577V157.4ZM289.361 139.4H292.361V142.4H289.361V139.4ZM285.761 143H288.761V146H285.761V143ZM289.361 161H292.361V164H289.361V161ZM285.761 146.6H288.761V149.6H285.761V146.6ZM285.761 150.2H288.761V153.2H285.761V150.2ZM285.761 153.8H288.761V156.8H285.761V153.8ZM285.761 157.4H288.761V160.4H285.761V157.4ZM310.971 143H313.971V146H310.971V143ZM307.371 139.4H310.371V142.4H307.371V139.4ZM303.771 139.4H306.771V142.4H303.771V139.4ZM300.171 139.4H303.171V142.4H300.171V139.4ZM296.571 143H299.571V146H296.571V143ZM310.971 146.6H313.971V149.6H310.971V146.6ZM310.971 150.2H313.971V153.2H310.971V150.2ZM310.971 153.8H313.971V156.8H310.971V153.8ZM310.971 157.4H313.971V160.4H310.971V157.4ZM307.371 146.6H310.371V149.6H307.371V146.6ZM307.371 161H310.371V164H307.371V161ZM303.771 150.2H306.771V153.2H303.771V150.2ZM303.771 161H306.771V164H303.771V161ZM300.171 153.8H303.171V156.8H300.171V153.8ZM300.171 161H303.171V164H300.171V161ZM296.571 146.6H299.571V149.6H296.571V146.6ZM296.571 150.2H299.571V153.2H296.571V150.2ZM296.571 153.8H299.571V156.8H296.571V153.8ZM296.571 157.4H299.571V160.4H296.571V157.4ZM332.563 143H335.563V146H332.563V143ZM328.963 139.4H331.963V142.4H328.963V139.4ZM325.363 139.4H328.363V142.4H325.363V139.4ZM321.763 139.4H324.763V142.4H321.763V139.4ZM318.163 143H321.163V146H318.163V143ZM332.563 146.6H335.563V149.6H332.563V146.6ZM332.563 150.2H335.563V153.2H332.563V150.2ZM332.563 153.8H335.563V156.8H332.563V153.8ZM332.563 157.4H335.563V160.4H332.563V157.4ZM328.963 146.6H331.963V149.6H328.963V146.6ZM328.963 161H331.963V164H328.963V161ZM325.363 150.2H328.363V153.2H325.363V150.2ZM325.363 161H328.363V164H325.363V161ZM321.763 153.8H324.763V156.8H321.763V153.8ZM321.763 161H324.763V164H321.763V161ZM318.163 146.6H321.163V149.6H318.163V146.6ZM318.163 150.2H321.163V153.2H318.163V150.2ZM318.163 153.8H321.163V156.8H318.163V153.8ZM318.163 157.4H321.163V160.4H318.163V157.4ZM342.755 142.4H339.755V139.4H342.755V142.4ZM346.355 146H343.355V143H346.355V146ZM342.755 164H339.755V161H342.755V164ZM346.355 149.6H343.355V146.6H346.355V149.6ZM346.355 153.2H343.355V150.2H346.355V153.2ZM346.355 156.8H343.355V153.8H346.355V156.8ZM346.355 160.4H343.355V157.4H346.355V160.4Z" fill="#5B65C2"/>
<path d="M55.0445 15H58.0445V18H55.0445V15ZM51.4445 11.4H54.4445V14.4H51.4445V11.4ZM47.8445 11.4H50.8445V14.4H47.8445V11.4ZM44.2445 11.4H47.2445V14.4H44.2445V11.4ZM40.6445 15H43.6445V18H40.6445V15ZM55.0445 29.4H58.0445V32.4H55.0445V29.4ZM51.4445 33H54.4445V36H51.4445V33ZM47.8445 33H50.8445V36H47.8445V33ZM44.2445 33H47.2445V36H44.2445V33ZM40.6445 18.6H43.6445V21.6H40.6445V18.6ZM40.6445 22.2H43.6445V25.2H40.6445V22.2ZM40.6445 25.8H43.6445V28.8H40.6445V25.8ZM40.6445 29.4H43.6445V32.4H40.6445V29.4ZM76.6363 11.4H79.6363V14.4H76.6363V11.4ZM76.6363 15H79.6363V18H76.6363V15ZM62.2363 11.4H65.2363V14.4H62.2363V11.4ZM62.2363 15H65.2363V18H62.2363V15ZM76.6363 18.6H79.6363V21.6H76.6363V18.6ZM76.6363 22.2H79.6363V25.2H76.6363V22.2ZM76.6363 25.8H79.6363V28.8H76.6363V25.8ZM76.6363 29.4H79.6363V32.4H76.6363V29.4ZM73.0363 33H76.0363V36H73.0363V33ZM69.4363 33H72.4363V36H69.4363V33ZM65.8363 33H68.8363V36H65.8363V33ZM62.2363 18.6H65.2363V21.6H62.2363V18.6ZM62.2363 22.2H65.2363V25.2H62.2363V22.2ZM62.2363 25.8H65.2363V28.8H62.2363V25.8ZM62.2363 29.4H65.2363V32.4H62.2363V29.4ZM98.2281 11.4H101.228V14.4H98.2281V11.4ZM94.6281 11.4H97.6281V14.4H94.6281V11.4ZM91.0281 11.4H94.0281V14.4H91.0281V11.4ZM87.4281 11.4H90.4281V14.4H87.4281V11.4ZM83.8281 11.4H86.8281V14.4H83.8281V11.4ZM83.8281 15H86.8281V18H83.8281V15ZM98.2281 33H101.228V36H98.2281V33ZM94.6281 22.2H97.6281V25.2H94.6281V22.2ZM94.6281 33H97.6281V36H94.6281V33ZM91.0281 22.2H94.0281V25.2H91.0281V22.2ZM91.0281 33H94.0281V36H91.0281V33ZM87.4281 22.2H90.4281V25.2H87.4281V22.2ZM87.4281 33H90.4281V36H87.4281V33ZM83.8281 18.6H86.8281V21.6H83.8281V18.6ZM83.8281 22.2H86.8281V25.2H83.8281V22.2ZM83.8281 25.8H86.8281V28.8H83.8281V25.8ZM83.8281 29.4H86.8281V32.4H83.8281V29.4ZM83.8281 33H86.8281V36H83.8281V33ZM119.82 11.4H122.82V14.4H119.82V11.4ZM119.82 15H122.82V18H119.82V15ZM105.42 11.4H108.42V14.4H105.42V11.4ZM105.42 15H108.42V18H105.42V15ZM119.82 18.6H122.82V21.6H119.82V18.6ZM119.82 22.2H122.82V25.2H119.82V22.2ZM119.82 25.8H122.82V28.8H119.82V25.8ZM119.82 29.4H122.82V32.4H119.82V29.4ZM119.82 33H122.82V36H119.82V33ZM116.22 25.8H119.22V28.8H116.22V25.8ZM112.62 22.2H115.62V25.2H112.62V22.2ZM109.02 18.6H112.02V21.6H109.02V18.6ZM105.42 18.6H108.42V21.6H105.42V18.6ZM105.42 22.2H108.42V25.2H105.42V22.2ZM105.42 25.8H108.42V28.8H105.42V25.8ZM105.42 29.4H108.42V32.4H105.42V29.4ZM105.42 33H108.42V36H105.42V33ZM141.412 11.4H144.412V14.4H141.412V11.4ZM137.812 11.4H140.812V14.4H137.812V11.4ZM134.212 11.4H137.212V14.4H134.212V11.4ZM134.212 15H137.212V18H134.212V15ZM130.612 11.4H133.612V14.4H130.612V11.4ZM127.012 11.4H130.012V14.4H127.012V11.4ZM134.212 18.6H137.212V21.6H134.212V18.6ZM134.212 22.2H137.212V25.2H134.212V22.2ZM134.212 25.8H137.212V28.8H134.212V25.8ZM134.212 29.4H137.212V32.4H134.212V29.4ZM134.212 33H137.212V36H134.212V33ZM163.004 15H166.004V18H163.004V15ZM159.404 11.4H162.404V14.4H159.404V11.4ZM155.804 11.4H158.804V14.4H155.804V11.4ZM152.204 11.4H155.204V14.4H152.204V11.4ZM148.604 15H151.604V18H148.604V15ZM163.004 18.6H166.004V21.6H163.004V18.6ZM163.004 22.2H166.004V25.2H163.004V22.2ZM163.004 25.8H166.004V28.8H163.004V25.8ZM163.004 29.4H166.004V32.4H163.004V29.4ZM163.004 33H166.004V36H163.004V33ZM159.404 22.2H162.404V25.2H159.404V22.2ZM155.804 22.2H158.804V25.2H155.804V22.2ZM152.204 22.2H155.204V25.2H152.204V22.2ZM148.604 18.6H151.604V21.6H148.604V18.6ZM148.604 22.2H151.604V25.2H148.604V22.2ZM148.604 25.8H151.604V28.8H148.604V25.8ZM148.604 29.4H151.604V32.4H148.604V29.4ZM148.604 33H151.604V36H148.604V33ZM197.187 15H200.187V18H197.187V15ZM193.587 11.4H196.587V14.4H193.587V11.4ZM189.987 11.4H192.987V14.4H189.987V11.4ZM186.387 11.4H189.387V14.4H186.387V11.4ZM182.787 11.4H185.787V14.4H182.787V11.4ZM182.787 15H185.787V18H182.787V15ZM197.187 18.6H200.187V21.6H197.187V18.6ZM197.187 22.2H200.187V25.2H197.187V22.2ZM197.187 25.8H200.187V28.8H197.187V25.8ZM197.187 29.4H200.187V32.4H197.187V29.4ZM193.587 33H196.587V36H193.587V33ZM189.987 33H192.987V36H189.987V33ZM186.387 33H189.387V36H186.387V33ZM182.787 18.6H185.787V21.6H182.787V18.6ZM182.787 22.2H185.787V25.2H182.787V22.2ZM182.787 25.8H185.787V28.8H182.787V25.8ZM182.787 29.4H185.787V32.4H182.787V29.4ZM182.787 33H185.787V36H182.787V33ZM211.579 11.4H214.579V14.4H211.579V11.4ZM207.979 11.4H210.979V14.4H207.979V11.4ZM207.979 15H210.979V18H207.979V15ZM204.379 11.4H207.379V14.4H204.379V11.4ZM211.579 33H214.579V36H211.579V33ZM207.979 18.6H210.979V21.6H207.979V18.6ZM207.979 22.2H210.979V25.2H207.979V22.2ZM207.979 25.8H210.979V28.8H207.979V25.8ZM207.979 29.4H210.979V32.4H207.979V29.4ZM207.979 33H210.979V36H207.979V33ZM204.379 33H207.379V36H204.379V33ZM233.193 11.4H236.193V14.4H233.193V11.4ZM233.193 15H236.193V18H233.193V15ZM218.793 11.4H221.793V14.4H218.793V11.4ZM218.793 15H221.793V18H218.793V15ZM233.193 18.6H236.193V21.6H233.193V18.6ZM233.193 22.2H236.193V25.2H233.193V22.2ZM233.193 25.8H236.193V28.8H233.193V25.8ZM229.593 29.4H232.593V32.4H229.593V29.4ZM225.993 33H228.993V36H225.993V33ZM222.393 29.4H225.393V32.4H222.393V29.4ZM218.793 18.6H221.793V21.6H218.793V18.6ZM218.793 22.2H221.793V25.2H218.793V22.2ZM218.793 25.8H221.793V28.8H218.793V25.8ZM247.585 11.4H250.585V14.4H247.585V11.4ZM243.985 11.4H246.985V14.4H243.985V11.4ZM243.985 15H246.985V18H243.985V15ZM240.385 11.4H243.385V14.4H240.385V11.4ZM247.585 33H250.585V36H247.585V33ZM243.985 18.6H246.985V21.6H243.985V18.6ZM243.985 22.2H246.985V25.2H243.985V22.2ZM243.985 25.8H246.985V28.8H243.985V25.8ZM243.985 29.4H246.985V32.4H243.985V29.4ZM243.985 33H246.985V36H243.985V33ZM240.385 33H243.385V36H240.385V33ZM269.199 15H272.199V18H269.199V15ZM265.599 11.4H268.599V14.4H265.599V11.4ZM261.999 11.4H264.999V14.4H261.999V11.4ZM258.399 11.4H261.399V14.4H258.399V11.4ZM254.799 11.4H257.799V14.4H254.799V11.4ZM254.799 15H257.799V18H254.799V15ZM269.199 18.6H272.199V21.6H269.199V18.6ZM269.199 22.2H272.199V25.2H269.199V22.2ZM269.199 25.8H272.199V28.8H269.199V25.8ZM269.199 29.4H272.199V32.4H269.199V29.4ZM265.599 33H268.599V36H265.599V33ZM261.999 33H264.999V36H261.999V33ZM258.399 33H261.399V36H258.399V33ZM254.799 18.6H257.799V21.6H254.799V18.6ZM254.799 22.2H257.799V25.2H254.799V22.2ZM254.799 25.8H257.799V28.8H254.799V25.8ZM254.799 29.4H257.799V32.4H254.799V29.4ZM254.799 33H257.799V36H254.799V33ZM283.591 11.4H286.591V14.4H283.591V11.4ZM279.991 11.4H282.991V14.4H279.991V11.4ZM279.991 15H282.991V18H279.991V15ZM276.391 11.4H279.391V14.4H276.391V11.4ZM283.591 33H286.591V36H283.591V33ZM279.991 18.6H282.991V21.6H279.991V18.6ZM279.991 22.2H282.991V25.2H279.991V22.2ZM279.991 25.8H282.991V28.8H279.991V25.8ZM279.991 29.4H282.991V32.4H279.991V29.4ZM279.991 33H282.991V36H279.991V33ZM276.391 33H279.391V36H276.391V33ZM305.205 15H308.205V18H305.205V15ZM301.605 11.4H304.605V14.4H301.605V11.4ZM298.005 11.4H301.005V14.4H298.005V11.4ZM294.405 11.4H297.405V14.4H294.405V11.4ZM290.805 11.4H293.805V14.4H290.805V11.4ZM290.805 15H293.805V18H290.805V15ZM305.205 18.6H308.205V21.6H305.205V18.6ZM305.205 22.2H308.205V25.2H305.205V22.2ZM305.205 25.8H308.205V28.8H305.205V25.8ZM305.205 29.4H308.205V32.4H305.205V29.4ZM301.605 33H304.605V36H301.605V33ZM298.005 33H301.005V36H298.005V33ZM294.405 33H297.405V36H294.405V33ZM290.805 18.6H293.805V21.6H290.805V18.6ZM290.805 22.2H293.805V25.2H290.805V22.2ZM290.805 25.8H293.805V28.8H290.805V25.8ZM290.805 29.4H293.805V32.4H290.805V29.4ZM290.805 33H293.805V36H290.805V33ZM326.796 15H329.796V18H326.796V15ZM323.196 11.4H326.196V14.4H323.196V11.4ZM319.596 11.4H322.596V14.4H319.596V11.4ZM315.996 11.4H318.996V14.4H315.996V11.4ZM312.396 15H315.396V18H312.396V15ZM326.796 18.6H329.796V21.6H326.796V18.6ZM326.796 22.2H329.796V25.2H326.796V22.2ZM326.796 25.8H329.796V28.8H326.796V25.8ZM326.796 29.4H329.796V32.4H326.796V29.4ZM326.796 33H329.796V36H326.796V33ZM323.196 22.2H326.196V25.2H323.196V22.2ZM319.596 22.2H322.596V25.2H319.596V22.2ZM315.996 22.2H318.996V25.2H315.996V22.2ZM312.396 18.6H315.396V21.6H312.396V18.6ZM312.396 22.2H315.396V25.2H312.396V22.2ZM312.396 25.8H315.396V28.8H312.396V25.8ZM312.396 29.4H315.396V32.4H312.396V29.4ZM312.396 33H315.396V36H312.396V33ZM353.78 11.4H356.78V14.4H353.78V11.4ZM353.78 15H356.78V18H353.78V15ZM350.18 15H353.18V18H350.18V15ZM360.98 33H363.98V36H360.98V33ZM357.38 33H360.38V36H357.38V33ZM353.78 18.6H356.78V21.6H353.78V18.6ZM353.78 22.2H356.78V25.2H353.78V22.2ZM353.78 25.8H356.78V28.8H353.78V25.8ZM353.78 29.4H356.78V32.4H353.78V29.4ZM353.78 33H356.78V36H353.78V33ZM350.18 33H353.18V36H350.18V33ZM346.58 18.6H349.58V21.6H346.58V18.6ZM346.58 33H349.58V36H346.58V33ZM382.572 15H385.572V18H382.572V15ZM378.972 18.6H381.972V21.6H378.972V18.6ZM375.372 22.2H378.372V25.2H375.372V22.2ZM371.772 25.8H374.772V28.8H371.772V25.8ZM368.172 29.4H371.172V32.4H368.172V29.4ZM404.164 11.4H407.164V14.4H404.164V11.4ZM400.564 11.4H403.564V14.4H400.564V11.4ZM396.964 11.4H399.964V14.4H396.964V11.4ZM393.364 11.4H396.364V14.4H393.364V11.4ZM389.764 11.4H392.764V14.4H389.764V11.4ZM389.764 15H392.764V18H389.764V15ZM404.164 22.2H407.164V25.2H404.164V22.2ZM404.164 25.8H407.164V28.8H404.164V25.8ZM404.164 29.4H407.164V32.4H404.164V29.4ZM400.564 18.6H403.564V21.6H400.564V18.6ZM400.564 33H403.564V36H400.564V33ZM396.964 18.6H399.964V21.6H396.964V18.6ZM396.964 33H399.964V36H396.964V33ZM393.364 18.6H396.364V21.6H393.364V18.6ZM393.364 33H396.364V36H393.364V33ZM389.764 18.6H392.764V21.6H389.764V18.6ZM389.764 29.4H392.764V32.4H389.764V29.4Z" fill="white"/>
<rect x="1.5" y="1.5" width="449" height="277" stroke="#5B65C2" stroke-width="3"/>
</svg>
