<svg width="452" height="280" viewBox="0 0 452 280" fill="none" xmlns="http://www.w3.org/2000/svg">
<rect width="452" height="280" fill="white"/>
<rect width="452" height="47" fill="#5B65C2"/>
<path d="M78.4615 15H81.4615V18H78.4615V15ZM74.8615 11.4H77.8615V14.4H74.8615V11.4ZM71.2615 11.4H74.2615V14.4H71.2615V11.4ZM67.6615 11.4H70.6615V14.4H67.6615V11.4ZM64.0615 11.4H67.0615V14.4H64.0615V11.4ZM64.0615 15H67.0615V18H64.0615V15ZM78.4615 18.6H81.4615V21.6H78.4615V18.6ZM78.4615 33H81.4615V36H78.4615V33ZM74.8615 22.2H77.8615V25.2H74.8615V22.2ZM74.8615 29.4H77.8615V32.4H74.8615V29.4ZM71.2615 22.2H74.2615V25.2H71.2615V22.2ZM71.2615 25.8H74.2615V28.8H71.2615V25.8ZM67.6615 22.2H70.6615V25.2H67.6615V22.2ZM64.0615 18.6H67.0615V21.6H64.0615V18.6ZM64.0615 22.2H67.0615V25.2H64.0615V22.2ZM64.0615 25.8H67.0615V28.8H64.0615V25.8ZM64.0615 29.4H67.0615V32.4H64.0615V29.4ZM64.0615 33H67.0615V36H64.0615V33ZM100.053 11.4H103.053V14.4H100.053V11.4ZM96.4533 11.4H99.4533V14.4H96.4533V11.4ZM92.8533 11.4H95.8533V14.4H92.8533V11.4ZM89.2533 11.4H92.2533V14.4H89.2533V11.4ZM85.6533 11.4H88.6533V14.4H85.6533V11.4ZM85.6533 15H88.6533V18H85.6533V15ZM100.053 33H103.053V36H100.053V33ZM96.4533 22.2H99.4533V25.2H96.4533V22.2ZM96.4533 33H99.4533V36H96.4533V33ZM92.8533 22.2H95.8533V25.2H92.8533V22.2ZM92.8533 33H95.8533V36H92.8533V33ZM89.2533 22.2H92.2533V25.2H89.2533V22.2ZM89.2533 33H92.2533V36H89.2533V33ZM85.6533 18.6H88.6533V21.6H85.6533V18.6ZM85.6533 22.2H88.6533V25.2H85.6533V22.2ZM85.6533 25.8H88.6533V28.8H85.6533V25.8ZM85.6533 29.4H88.6533V32.4H85.6533V29.4ZM85.6533 33H88.6533V36H85.6533V33ZM121.645 15H124.645V18H121.645V15ZM118.045 11.4H121.045V14.4H118.045V11.4ZM114.445 11.4H117.445V14.4H114.445V11.4ZM110.845 11.4H113.845V14.4H110.845V11.4ZM107.245 15H110.245V18H107.245V15ZM121.645 25.8H124.645V28.8H121.645V25.8ZM121.645 29.4H124.645V32.4H121.645V29.4ZM118.045 22.2H121.045V25.2H118.045V22.2ZM118.045 33H121.045V36H118.045V33ZM114.445 22.2H117.445V25.2H114.445V22.2ZM114.445 33H117.445V36H114.445V33ZM110.845 22.2H113.845V25.2H110.845V22.2ZM110.845 33H113.845V36H110.845V33ZM107.245 18.6H110.245V21.6H107.245V18.6ZM107.245 29.4H110.245V32.4H107.245V29.4ZM143.237 11.4H146.237V14.4H143.237V11.4ZM143.237 15H146.237V18H143.237V15ZM128.837 11.4H131.837V14.4H128.837V11.4ZM128.837 15H131.837V18H128.837V15ZM143.237 18.6H146.237V21.6H143.237V18.6ZM143.237 22.2H146.237V25.2H143.237V22.2ZM143.237 25.8H146.237V28.8H143.237V25.8ZM143.237 29.4H146.237V32.4H143.237V29.4ZM139.637 33H142.637V36H139.637V33ZM136.037 33H139.037V36H136.037V33ZM132.437 33H135.437V36H132.437V33ZM128.837 18.6H131.837V21.6H128.837V18.6ZM128.837 22.2H131.837V25.2H128.837V22.2ZM128.837 25.8H131.837V28.8H128.837V25.8ZM128.837 29.4H131.837V32.4H128.837V29.4ZM164.829 11.4H167.829V14.4H164.829V11.4ZM164.829 15H167.829V18H164.829V15ZM161.229 15H164.229V18H161.229V15ZM154.029 15H157.029V18H154.029V15ZM150.429 11.4H153.429V14.4H150.429V11.4ZM150.429 15H153.429V18H150.429V15ZM164.829 18.6H167.829V21.6H164.829V18.6ZM164.829 22.2H167.829V25.2H164.829V22.2ZM164.829 25.8H167.829V28.8H164.829V25.8ZM164.829 29.4H167.829V32.4H164.829V29.4ZM164.829 33H167.829V36H164.829V33ZM157.629 18.6H160.629V21.6H157.629V18.6ZM157.629 22.2H160.629V25.2H157.629V22.2ZM150.429 18.6H153.429V21.6H150.429V18.6ZM150.429 22.2H153.429V25.2H150.429V22.2ZM150.429 25.8H153.429V28.8H150.429V25.8ZM150.429 29.4H153.429V32.4H150.429V29.4ZM150.429 33H153.429V36H150.429V33ZM186.421 11.4H189.421V14.4H186.421V11.4ZM182.821 11.4H185.821V14.4H182.821V11.4ZM179.221 11.4H182.221V14.4H179.221V11.4ZM175.621 11.4H178.621V14.4H175.621V11.4ZM172.021 11.4H175.021V14.4H172.021V11.4ZM172.021 15H175.021V18H172.021V15ZM186.421 33H189.421V36H186.421V33ZM182.821 22.2H185.821V25.2H182.821V22.2ZM182.821 33H185.821V36H182.821V33ZM179.221 22.2H182.221V25.2H179.221V22.2ZM179.221 33H182.221V36H179.221V33ZM175.621 22.2H178.621V25.2H175.621V22.2ZM175.621 33H178.621V36H175.621V33ZM172.021 18.6H175.021V21.6H172.021V18.6ZM172.021 22.2H175.021V25.2H172.021V22.2ZM172.021 25.8H175.021V28.8H172.021V25.8ZM172.021 29.4H175.021V32.4H172.021V29.4ZM172.021 33H175.021V36H172.021V33ZM208.012 11.4H211.012V14.4H208.012V11.4ZM208.012 15H211.012V18H208.012V15ZM193.612 11.4H196.612V14.4H193.612V11.4ZM193.612 15H196.612V18H193.612V15ZM208.012 18.6H211.012V21.6H208.012V18.6ZM208.012 22.2H211.012V25.2H208.012V22.2ZM208.012 25.8H211.012V28.8H208.012V25.8ZM208.012 29.4H211.012V32.4H208.012V29.4ZM208.012 33H211.012V36H208.012V33ZM204.412 25.8H207.412V28.8H204.412V25.8ZM200.812 22.2H203.812V25.2H200.812V22.2ZM197.212 18.6H200.212V21.6H197.212V18.6ZM193.612 18.6H196.612V21.6H193.612V18.6ZM193.612 22.2H196.612V25.2H193.612V22.2ZM193.612 25.8H196.612V28.8H193.612V25.8ZM193.612 29.4H196.612V32.4H193.612V29.4ZM193.612 33H196.612V36H193.612V33ZM251.196 15H254.196V18H251.196V15ZM247.596 11.4H250.596V14.4H247.596V11.4ZM243.996 11.4H246.996V14.4H243.996V11.4ZM240.396 11.4H243.396V14.4H240.396V11.4ZM236.796 15H239.796V18H236.796V15ZM251.196 25.8H254.196V28.8H251.196V25.8ZM251.196 29.4H254.196V32.4H251.196V29.4ZM247.596 25.8H250.596V28.8H247.596V25.8ZM247.596 33H250.596V36H247.596V33ZM243.996 33H246.996V36H243.996V33ZM240.396 33H243.396V36H240.396V33ZM236.796 18.6H239.796V21.6H236.796V18.6ZM236.796 22.2H239.796V25.2H236.796V22.2ZM236.796 25.8H239.796V28.8H236.796V25.8ZM236.796 29.4H239.796V32.4H236.796V29.4ZM272.788 11.4H275.788V14.4H272.788V11.4ZM269.188 11.4H272.188V14.4H269.188V11.4ZM265.588 11.4H268.588V14.4H265.588V11.4ZM261.988 11.4H264.988V14.4H261.988V11.4ZM258.388 11.4H261.388V14.4H258.388V11.4ZM258.388 15H261.388V18H258.388V15ZM272.788 33H275.788V36H272.788V33ZM269.188 22.2H272.188V25.2H269.188V22.2ZM269.188 33H272.188V36H269.188V33ZM265.588 22.2H268.588V25.2H265.588V22.2ZM265.588 33H268.588V36H265.588V33ZM261.988 22.2H264.988V25.2H261.988V22.2ZM261.988 33H264.988V36H261.988V33ZM258.388 18.6H261.388V21.6H258.388V18.6ZM258.388 22.2H261.388V25.2H258.388V22.2ZM258.388 25.8H261.388V28.8H258.388V25.8ZM258.388 29.4H261.388V32.4H258.388V29.4ZM258.388 33H261.388V36H258.388V33ZM294.379 11.4H297.379V14.4H294.379V11.4ZM294.379 15H297.379V18H294.379V15ZM279.979 11.4H282.979V14.4H279.979V11.4ZM279.979 15H282.979V18H279.979V15ZM294.379 18.6H297.379V21.6H294.379V18.6ZM294.379 22.2H297.379V25.2H294.379V22.2ZM294.379 25.8H297.379V28.8H294.379V25.8ZM294.379 29.4H297.379V32.4H294.379V29.4ZM294.379 33H297.379V36H294.379V33ZM290.779 25.8H293.779V28.8H290.779V25.8ZM287.179 22.2H290.179V25.2H287.179V22.2ZM283.579 18.6H286.579V21.6H283.579V18.6ZM279.979 18.6H282.979V21.6H279.979V18.6ZM279.979 22.2H282.979V25.2H279.979V22.2ZM279.979 25.8H282.979V28.8H279.979V25.8ZM279.979 29.4H282.979V32.4H279.979V29.4ZM279.979 33H282.979V36H279.979V33ZM315.971 11.4H318.971V14.4H315.971V11.4ZM312.371 11.4H315.371V14.4H312.371V11.4ZM308.771 11.4H311.771V14.4H308.771V11.4ZM305.171 11.4H308.171V14.4H305.171V11.4ZM301.571 11.4H304.571V14.4H301.571V11.4ZM301.571 15H304.571V18H301.571V15ZM315.971 33H318.971V36H315.971V33ZM312.371 22.2H315.371V25.2H312.371V22.2ZM312.371 33H315.371V36H312.371V33ZM308.771 22.2H311.771V25.2H308.771V22.2ZM308.771 33H311.771V36H308.771V33ZM305.171 22.2H308.171V25.2H305.171V22.2ZM305.171 33H308.171V36H305.171V33ZM301.571 18.6H304.571V21.6H301.571V18.6ZM301.571 22.2H304.571V25.2H301.571V22.2ZM301.571 25.8H304.571V28.8H301.571V25.8ZM301.571 29.4H304.571V32.4H301.571V29.4ZM301.571 33H304.571V36H301.571V33ZM337.563 15H340.563V18H337.563V15ZM333.963 11.4H336.963V14.4H333.963V11.4ZM330.363 11.4H333.363V14.4H330.363V11.4ZM326.763 11.4H329.763V14.4H326.763V11.4ZM323.163 11.4H326.163V14.4H323.163V11.4ZM323.163 15H326.163V18H323.163V15ZM337.563 18.6H340.563V21.6H337.563V18.6ZM337.563 33H340.563V36H337.563V33ZM333.963 22.2H336.963V25.2H333.963V22.2ZM333.963 29.4H336.963V32.4H333.963V29.4ZM330.363 22.2H333.363V25.2H330.363V22.2ZM330.363 25.8H333.363V28.8H330.363V25.8ZM326.763 22.2H329.763V25.2H326.763V22.2ZM323.163 18.6H326.163V21.6H323.163V18.6ZM323.163 22.2H326.163V25.2H323.163V22.2ZM323.163 25.8H326.163V28.8H323.163V25.8ZM323.163 29.4H326.163V32.4H323.163V29.4ZM323.163 33H326.163V36H323.163V33ZM359.155 15H362.155V18H359.155V15ZM355.555 11.4H358.555V14.4H355.555V11.4ZM351.955 11.4H354.955V14.4H351.955V11.4ZM348.355 11.4H351.355V14.4H348.355V11.4ZM344.755 15H347.755V18H344.755V15ZM359.155 18.6H362.155V21.6H359.155V18.6ZM359.155 22.2H362.155V25.2H359.155V22.2ZM359.155 25.8H362.155V28.8H359.155V25.8ZM359.155 29.4H362.155V32.4H359.155V29.4ZM359.155 33H362.155V36H359.155V33ZM355.555 22.2H358.555V25.2H355.555V22.2ZM351.955 22.2H354.955V25.2H351.955V22.2ZM348.355 22.2H351.355V25.2H348.355V22.2ZM344.755 18.6H347.755V21.6H344.755V18.6ZM344.755 22.2H347.755V25.2H344.755V22.2ZM344.755 25.8H347.755V28.8H344.755V25.8ZM344.755 29.4H347.755V32.4H344.755V29.4ZM344.755 33H347.755V36H344.755V33ZM366.347 11.4H369.347V14.4H366.347V11.4ZM366.347 15H369.347V18H366.347V15ZM380.747 33H383.747V36H380.747V33ZM377.147 33H380.147V36H377.147V33ZM373.547 33H376.547V36H373.547V33ZM369.947 33H372.947V36H369.947V33ZM366.347 18.6H369.347V21.6H366.347V18.6ZM366.347 22.2H369.347V25.2H366.347V22.2ZM366.347 25.8H369.347V28.8H366.347V25.8ZM366.347 29.4H369.347V32.4H366.347V29.4ZM366.347 33H369.347V36H366.347V33Z" fill="white"/>
<rect x="1.5" y="1.5" width="449" height="277" stroke="#5B65C2" stroke-width="3"/>
<path d="M28.4 63.4H31.4V66.4H28.4V63.4ZM24.8 63.4H27.8V66.4H24.8V63.4ZM21.2 63.4H24.2V66.4H21.2V63.4ZM21.2 67H24.2V70H21.2V67ZM17.6 63.4H20.6V66.4H17.6V63.4ZM14 63.4H17V66.4H14V63.4ZM21.2 70.6H24.2V73.6H21.2V70.6ZM21.2 74.2H24.2V77.2H21.2V74.2ZM21.2 77.8H24.2V80.8H21.2V77.8ZM21.2 81.4H24.2V84.4H21.2V81.4ZM21.2 85H24.2V88H21.2V85ZM49.9918 67H52.9918V70H49.9918V67ZM46.3918 63.4H49.3918V66.4H46.3918V63.4ZM42.7918 63.4H45.7918V66.4H42.7918V63.4ZM39.1918 63.4H42.1918V66.4H39.1918V63.4ZM35.5918 67H38.5918V70H35.5918V67ZM49.9918 70.6H52.9918V73.6H49.9918V70.6ZM49.9918 74.2H52.9918V77.2H49.9918V74.2ZM49.9918 77.8H52.9918V80.8H49.9918V77.8ZM49.9918 81.4H52.9918V84.4H49.9918V81.4ZM46.3918 85H49.3918V88H46.3918V85ZM42.7918 85H45.7918V88H42.7918V85ZM39.1918 85H42.1918V88H39.1918V85ZM35.5918 70.6H38.5918V73.6H35.5918V70.6ZM35.5918 74.2H38.5918V77.2H35.5918V74.2ZM35.5918 77.8H38.5918V80.8H35.5918V77.8ZM35.5918 81.4H38.5918V84.4H35.5918V81.4ZM71.5836 63.4H74.5836V66.4H71.5836V63.4ZM67.9836 63.4H70.9836V66.4H67.9836V63.4ZM64.3836 63.4H67.3836V66.4H64.3836V63.4ZM64.3836 67H67.3836V70H64.3836V67ZM60.7836 63.4H63.7836V66.4H60.7836V63.4ZM57.1836 63.4H60.1836V66.4H57.1836V63.4ZM64.3836 70.6H67.3836V73.6H64.3836V70.6ZM64.3836 74.2H67.3836V77.2H64.3836V74.2ZM64.3836 77.8H67.3836V80.8H64.3836V77.8ZM64.3836 81.4H67.3836V84.4H64.3836V81.4ZM64.3836 85H67.3836V88H64.3836V85ZM93.1754 67H96.1754V70H93.1754V67ZM89.5754 63.4H92.5754V66.4H89.5754V63.4ZM85.9754 63.4H88.9754V66.4H85.9754V63.4ZM82.3754 63.4H85.3754V66.4H82.3754V63.4ZM78.7754 67H81.7754V70H78.7754V67ZM93.1754 70.6H96.1754V73.6H93.1754V70.6ZM93.1754 74.2H96.1754V77.2H93.1754V74.2ZM93.1754 77.8H96.1754V80.8H93.1754V77.8ZM93.1754 81.4H96.1754V84.4H93.1754V81.4ZM93.1754 85H96.1754V88H93.1754V85ZM89.5754 74.2H92.5754V77.2H89.5754V74.2ZM85.9754 74.2H88.9754V77.2H85.9754V74.2ZM82.3754 74.2H85.3754V77.2H82.3754V74.2ZM78.7754 70.6H81.7754V73.6H78.7754V70.6ZM78.7754 74.2H81.7754V77.2H78.7754V74.2ZM78.7754 77.8H81.7754V80.8H78.7754V77.8ZM78.7754 81.4H81.7754V84.4H78.7754V81.4ZM78.7754 85H81.7754V88H78.7754V85ZM100.367 63.4H103.367V66.4H100.367V63.4ZM100.367 67H103.367V70H100.367V67ZM114.767 85H117.767V88H114.767V85ZM111.167 85H114.167V88H111.167V85ZM107.567 85H110.567V88H107.567V85ZM103.967 85H106.967V88H103.967V85ZM100.367 70.6H103.367V73.6H100.367V70.6ZM100.367 74.2H103.367V77.2H100.367V74.2ZM100.367 77.8H103.367V80.8H100.367V77.8ZM100.367 81.4H103.367V84.4H100.367V81.4ZM100.367 85H103.367V88H100.367V85ZM125.559 67H128.559V70H125.559V67ZM121.959 67H124.959V70H121.959V67ZM125.559 70.6H128.559V73.6H125.559V70.6ZM125.559 77.8H128.559V80.8H125.559V77.8ZM125.559 81.4H128.559V84.4H125.559V81.4ZM121.959 70.6H124.959V73.6H121.959V70.6ZM121.959 77.8H124.959V80.8H121.959V77.8ZM121.959 81.4H124.959V84.4H121.959V81.4ZM28.4 100H31.4V103H28.4V100ZM24.8 96.4H27.8V99.4H24.8V96.4ZM21.2 96.4H24.2V99.4H21.2V96.4ZM17.6 96.4H20.6V99.4H17.6V96.4ZM14 96.4H17V99.4H14V96.4ZM14 100H17V103H14V100ZM28.4 103.6H31.4V106.6H28.4V103.6ZM24.8 107.2H27.8V110.2H24.8V107.2ZM21.2 107.2H24.2V110.2H21.2V107.2ZM17.6 107.2H20.6V110.2H17.6V107.2ZM14 103.6H17V106.6H14V103.6ZM14 107.2H17V110.2H14V107.2ZM14 110.8H17V113.8H14V110.8ZM14 114.4H17V117.4H14V114.4ZM14 118H17V121H14V118ZM49.9918 100H52.9918V103H49.9918V100ZM46.3918 96.4H49.3918V99.4H46.3918V96.4ZM42.7918 96.4H45.7918V99.4H42.7918V96.4ZM39.1918 96.4H42.1918V99.4H39.1918V96.4ZM35.5918 100H38.5918V103H35.5918V100ZM49.9918 103.6H52.9918V106.6H49.9918V103.6ZM49.9918 107.2H52.9918V110.2H49.9918V107.2ZM49.9918 110.8H52.9918V113.8H49.9918V110.8ZM49.9918 114.4H52.9918V117.4H49.9918V114.4ZM49.9918 118H52.9918V121H49.9918V118ZM46.3918 107.2H49.3918V110.2H46.3918V107.2ZM42.7918 107.2H45.7918V110.2H42.7918V107.2ZM39.1918 107.2H42.1918V110.2H39.1918V107.2ZM35.5918 103.6H38.5918V106.6H35.5918V103.6ZM35.5918 107.2H38.5918V110.2H35.5918V107.2ZM35.5918 110.8H38.5918V113.8H35.5918V110.8ZM35.5918 114.4H38.5918V117.4H35.5918V114.4ZM35.5918 118H38.5918V121H35.5918V118ZM71.5836 100H74.5836V103H71.5836V100ZM67.9836 96.4H70.9836V99.4H67.9836V96.4ZM64.3836 96.4H67.3836V99.4H64.3836V96.4ZM60.7836 96.4H63.7836V99.4H60.7836V96.4ZM57.1836 100H60.1836V103H57.1836V100ZM71.5836 110.8H74.5836V113.8H71.5836V110.8ZM71.5836 114.4H74.5836V117.4H71.5836V114.4ZM67.9836 110.8H70.9836V113.8H67.9836V110.8ZM67.9836 118H70.9836V121H67.9836V118ZM64.3836 118H67.3836V121H64.3836V118ZM60.7836 118H63.7836V121H60.7836V118ZM57.1836 103.6H60.1836V106.6H57.1836V103.6ZM57.1836 107.2H60.1836V110.2H57.1836V107.2ZM57.1836 110.8H60.1836V113.8H57.1836V110.8ZM57.1836 114.4H60.1836V117.4H57.1836V114.4ZM93.1754 100H96.1754V103H93.1754V100ZM89.5754 96.4H92.5754V99.4H89.5754V96.4ZM85.9754 96.4H88.9754V99.4H85.9754V96.4ZM82.3754 96.4H85.3754V99.4H82.3754V96.4ZM78.7754 100H81.7754V103H78.7754V100ZM93.1754 103.6H96.1754V106.6H93.1754V103.6ZM93.1754 107.2H96.1754V110.2H93.1754V107.2ZM93.1754 110.8H96.1754V113.8H93.1754V110.8ZM93.1754 114.4H96.1754V117.4H93.1754V114.4ZM93.1754 118H96.1754V121H93.1754V118ZM89.5754 107.2H92.5754V110.2H89.5754V107.2ZM85.9754 107.2H88.9754V110.2H85.9754V107.2ZM82.3754 107.2H85.3754V110.2H82.3754V107.2ZM78.7754 103.6H81.7754V106.6H78.7754V103.6ZM78.7754 107.2H81.7754V110.2H78.7754V107.2ZM78.7754 110.8H81.7754V113.8H78.7754V110.8ZM78.7754 114.4H81.7754V117.4H78.7754V114.4ZM78.7754 118H81.7754V121H78.7754V118ZM114.767 100H117.767V103H114.767V100ZM111.167 96.4H114.167V99.4H111.167V96.4ZM107.567 96.4H110.567V99.4H107.567V96.4ZM103.967 96.4H106.967V99.4H103.967V96.4ZM100.367 96.4H103.367V99.4H100.367V96.4ZM100.367 100H103.367V103H100.367V100ZM114.767 103.6H117.767V106.6H114.767V103.6ZM114.767 107.2H117.767V110.2H114.767V107.2ZM114.767 110.8H117.767V113.8H114.767V110.8ZM114.767 114.4H117.767V117.4H114.767V114.4ZM111.167 118H114.167V121H111.167V118ZM107.567 118H110.567V121H107.567V118ZM103.967 118H106.967V121H103.967V118ZM100.367 103.6H103.367V106.6H100.367V103.6ZM100.367 107.2H103.367V110.2H100.367V107.2ZM100.367 110.8H103.367V113.8H100.367V110.8ZM100.367 114.4H103.367V117.4H100.367V114.4ZM100.367 118H103.367V121H100.367V118ZM136.359 100H139.359V103H136.359V100ZM132.759 96.4H135.759V99.4H132.759V96.4ZM129.159 96.4H132.159V99.4H129.159V96.4ZM125.559 96.4H128.559V99.4H125.559V96.4ZM121.959 100H124.959V103H121.959V100ZM136.359 103.6H139.359V106.6H136.359V103.6ZM136.359 107.2H139.359V110.2H136.359V107.2ZM136.359 110.8H139.359V113.8H136.359V110.8ZM136.359 114.4H139.359V117.4H136.359V114.4ZM132.759 118H135.759V121H132.759V118ZM129.159 118H132.159V121H129.159V118ZM125.559 118H128.559V121H125.559V118ZM121.959 103.6H124.959V106.6H121.959V103.6ZM121.959 107.2H124.959V110.2H121.959V107.2ZM121.959 110.8H124.959V113.8H121.959V110.8ZM121.959 114.4H124.959V117.4H121.959V114.4ZM147.151 100H150.151V103H147.151V100ZM143.551 100H146.551V103H143.551V100ZM147.151 103.6H150.151V106.6H147.151V103.6ZM147.151 110.8H150.151V113.8H147.151V110.8ZM147.151 114.4H150.151V117.4H147.151V114.4ZM143.551 103.6H146.551V106.6H143.551V103.6ZM143.551 110.8H146.551V113.8H143.551V110.8ZM143.551 114.4H146.551V117.4H143.551V114.4ZM28.4 133H31.4V136H28.4V133ZM24.8 129.4H27.8V132.4H24.8V129.4ZM21.2 129.4H24.2V132.4H21.2V129.4ZM17.6 129.4H20.6V132.4H17.6V129.4ZM14 129.4H17V132.4H14V129.4ZM14 133H17V136H14V133ZM28.4 136.6H31.4V139.6H28.4V136.6ZM28.4 151H31.4V154H28.4V151ZM24.8 140.2H27.8V143.2H24.8V140.2ZM24.8 147.4H27.8V150.4H24.8V147.4ZM21.2 140.2H24.2V143.2H21.2V140.2ZM21.2 143.8H24.2V146.8H21.2V143.8ZM17.6 140.2H20.6V143.2H17.6V140.2ZM14 136.6H17V139.6H14V136.6ZM14 140.2H17V143.2H14V140.2ZM14 143.8H17V146.8H14V143.8ZM14 147.4H17V150.4H14V147.4ZM14 151H17V154H14V151ZM49.9918 129.4H52.9918V132.4H49.9918V129.4ZM46.3918 129.4H49.3918V132.4H46.3918V129.4ZM42.7918 129.4H45.7918V132.4H42.7918V129.4ZM39.1918 129.4H42.1918V132.4H39.1918V129.4ZM35.5918 129.4H38.5918V132.4H35.5918V129.4ZM35.5918 133H38.5918V136H35.5918V133ZM49.9918 151H52.9918V154H49.9918V151ZM46.3918 140.2H49.3918V143.2H46.3918V140.2ZM46.3918 151H49.3918V154H46.3918V151ZM42.7918 140.2H45.7918V143.2H42.7918V140.2ZM42.7918 151H45.7918V154H42.7918V151ZM39.1918 140.2H42.1918V143.2H39.1918V140.2ZM39.1918 151H42.1918V154H39.1918V151ZM35.5918 136.6H38.5918V139.6H35.5918V136.6ZM35.5918 140.2H38.5918V143.2H35.5918V140.2ZM35.5918 143.8H38.5918V146.8H35.5918V143.8ZM35.5918 147.4H38.5918V150.4H35.5918V147.4ZM35.5918 151H38.5918V154H35.5918V151ZM71.5836 133H74.5836V136H71.5836V133ZM67.9836 129.4H70.9836V132.4H67.9836V129.4ZM64.3836 129.4H67.3836V132.4H64.3836V129.4ZM60.7836 129.4H63.7836V132.4H60.7836V129.4ZM57.1836 133H60.1836V136H57.1836V133ZM71.5836 143.8H74.5836V146.8H71.5836V143.8ZM71.5836 147.4H74.5836V150.4H71.5836V147.4ZM67.9836 140.2H70.9836V143.2H67.9836V140.2ZM67.9836 151H70.9836V154H67.9836V151ZM64.3836 140.2H67.3836V143.2H64.3836V140.2ZM64.3836 151H67.3836V154H64.3836V151ZM60.7836 140.2H63.7836V143.2H60.7836V140.2ZM60.7836 151H63.7836V154H60.7836V151ZM57.1836 136.6H60.1836V139.6H57.1836V136.6ZM57.1836 147.4H60.1836V150.4H57.1836V147.4ZM93.1754 129.4H96.1754V132.4H93.1754V129.4ZM89.5754 129.4H92.5754V132.4H89.5754V129.4ZM85.9754 129.4H88.9754V132.4H85.9754V129.4ZM85.9754 133H88.9754V136H85.9754V133ZM82.3754 129.4H85.3754V132.4H82.3754V129.4ZM78.7754 129.4H81.7754V132.4H78.7754V129.4ZM85.9754 136.6H88.9754V139.6H85.9754V136.6ZM85.9754 140.2H88.9754V143.2H85.9754V140.2ZM85.9754 143.8H88.9754V146.8H85.9754V143.8ZM85.9754 147.4H88.9754V150.4H85.9754V147.4ZM85.9754 151H88.9754V154H85.9754V151ZM114.767 133H117.767V136H114.767V133ZM111.167 129.4H114.167V132.4H111.167V129.4ZM107.567 129.4H110.567V132.4H107.567V129.4ZM103.967 129.4H106.967V132.4H103.967V129.4ZM100.367 133H103.367V136H100.367V133ZM114.767 136.6H117.767V139.6H114.767V136.6ZM114.767 140.2H117.767V143.2H114.767V140.2ZM114.767 143.8H117.767V146.8H114.767V143.8ZM114.767 147.4H117.767V150.4H114.767V147.4ZM114.767 151H117.767V154H114.767V151ZM111.167 140.2H114.167V143.2H111.167V140.2ZM107.567 140.2H110.567V143.2H107.567V140.2ZM103.967 140.2H106.967V143.2H103.967V140.2ZM100.367 136.6H103.367V139.6H100.367V136.6ZM100.367 140.2H103.367V143.2H100.367V140.2ZM100.367 143.8H103.367V146.8H100.367V143.8ZM100.367 147.4H103.367V150.4H100.367V147.4ZM100.367 151H103.367V154H100.367V151ZM136.359 129.4H139.359V132.4H136.359V129.4ZM136.359 133H139.359V136H136.359V133ZM121.959 129.4H124.959V132.4H121.959V129.4ZM121.959 133H124.959V136H121.959V133ZM136.359 136.6H139.359V139.6H136.359V136.6ZM136.359 140.2H139.359V143.2H136.359V140.2ZM136.359 143.8H139.359V146.8H136.359V143.8ZM136.359 147.4H139.359V150.4H136.359V147.4ZM136.359 151H139.359V154H136.359V151ZM132.759 143.8H135.759V146.8H132.759V143.8ZM129.159 140.2H132.159V143.2H129.159V140.2ZM125.559 136.6H128.559V139.6H125.559V136.6ZM121.959 136.6H124.959V139.6H121.959V136.6ZM121.959 140.2H124.959V143.2H121.959V140.2ZM121.959 143.8H124.959V146.8H121.959V143.8ZM121.959 147.4H124.959V150.4H121.959V147.4ZM121.959 151H124.959V154H121.959V151ZM157.951 129.4H160.951V132.4H157.951V129.4ZM154.351 129.4H157.351V132.4H154.351V129.4ZM150.751 129.4H153.751V132.4H150.751V129.4ZM150.751 133H153.751V136H150.751V133ZM147.151 129.4H150.151V132.4H147.151V129.4ZM143.551 129.4H146.551V132.4H143.551V129.4ZM150.751 136.6H153.751V139.6H150.751V136.6ZM150.751 140.2H153.751V143.2H150.751V140.2ZM150.751 143.8H153.751V146.8H150.751V143.8ZM150.751 147.4H153.751V150.4H150.751V147.4ZM150.751 151H153.751V154H150.751V151ZM179.543 129.4H182.543V132.4H179.543V129.4ZM175.943 129.4H178.943V132.4H175.943V129.4ZM172.343 129.4H175.343V132.4H172.343V129.4ZM168.743 129.4H171.743V132.4H168.743V129.4ZM165.143 129.4H168.143V132.4H165.143V129.4ZM165.143 133H168.143V136H165.143V133ZM179.543 151H182.543V154H179.543V151ZM175.943 140.2H178.943V143.2H175.943V140.2ZM175.943 151H178.943V154H175.943V151ZM172.343 140.2H175.343V143.2H172.343V140.2ZM172.343 151H175.343V154H172.343V151ZM168.743 140.2H171.743V143.2H168.743V140.2ZM168.743 151H171.743V154H168.743V151ZM165.143 136.6H168.143V139.6H165.143V136.6ZM165.143 140.2H168.143V143.2H165.143V140.2ZM165.143 143.8H168.143V146.8H165.143V143.8ZM165.143 147.4H168.143V150.4H165.143V147.4ZM165.143 151H168.143V154H165.143V151ZM190.334 133H193.334V136H190.334V133ZM186.734 133H189.734V136H186.734V133ZM190.334 136.6H193.334V139.6H190.334V136.6ZM190.334 143.8H193.334V146.8H190.334V143.8ZM190.334 147.4H193.334V150.4H190.334V147.4ZM186.734 136.6H189.734V139.6H186.734V136.6ZM186.734 143.8H189.734V146.8H186.734V143.8ZM186.734 147.4H189.734V150.4H186.734V147.4Z" fill="#5B65C2"/>
<path d="M51.1627 201H54.1627V204H51.1627V201ZM47.5627 197.4H50.5627V200.4H47.5627V197.4ZM43.9627 197.4H46.9627V200.4H43.9627V197.4ZM40.3627 197.4H43.3627V200.4H40.3627V197.4ZM36.7627 197.4H39.7627V200.4H36.7627V197.4ZM36.7627 201H39.7627V204H36.7627V201ZM51.1627 204.6H54.1627V207.6H51.1627V204.6ZM47.5627 208.2H50.5627V211.2H47.5627V208.2ZM43.9627 208.2H46.9627V211.2H43.9627V208.2ZM40.3627 208.2H43.3627V211.2H40.3627V208.2ZM36.7627 204.6H39.7627V207.6H36.7627V204.6ZM36.7627 208.2H39.7627V211.2H36.7627V208.2ZM36.7627 211.8H39.7627V214.8H36.7627V211.8ZM36.7627 215.4H39.7627V218.4H36.7627V215.4ZM36.7627 219H39.7627V222H36.7627V219ZM72.7545 201H75.7545V204H72.7545V201ZM69.1545 197.4H72.1545V200.4H69.1545V197.4ZM65.5545 197.4H68.5545V200.4H65.5545V197.4ZM61.9545 197.4H64.9545V200.4H61.9545V197.4ZM58.3545 197.4H61.3545V200.4H58.3545V197.4ZM58.3545 201H61.3545V204H58.3545V201ZM72.7545 204.6H75.7545V207.6H72.7545V204.6ZM72.7545 219H75.7545V222H72.7545V219ZM69.1545 208.2H72.1545V211.2H69.1545V208.2ZM69.1545 215.4H72.1545V218.4H69.1545V215.4ZM65.5545 208.2H68.5545V211.2H65.5545V208.2ZM65.5545 211.8H68.5545V214.8H65.5545V211.8ZM61.9545 208.2H64.9545V211.2H61.9545V208.2ZM58.3545 204.6H61.3545V207.6H58.3545V204.6ZM58.3545 208.2H61.3545V211.2H58.3545V208.2ZM58.3545 211.8H61.3545V214.8H58.3545V211.8ZM58.3545 215.4H61.3545V218.4H58.3545V215.4ZM58.3545 219H61.3545V222H58.3545V219ZM94.3463 197.4H97.3463V200.4H94.3463V197.4ZM90.7463 197.4H93.7463V200.4H90.7463V197.4ZM87.1463 197.4H90.1463V200.4H87.1463V197.4ZM83.5463 197.4H86.5463V200.4H83.5463V197.4ZM79.9463 197.4H82.9463V200.4H79.9463V197.4ZM79.9463 201H82.9463V204H79.9463V201ZM94.3463 219H97.3463V222H94.3463V219ZM90.7463 208.2H93.7463V211.2H90.7463V208.2ZM90.7463 219H93.7463V222H90.7463V219ZM87.1463 208.2H90.1463V211.2H87.1463V208.2ZM87.1463 219H90.1463V222H87.1463V219ZM83.5463 208.2H86.5463V211.2H83.5463V208.2ZM83.5463 219H86.5463V222H83.5463V219ZM79.9463 204.6H82.9463V207.6H79.9463V204.6ZM79.9463 208.2H82.9463V211.2H79.9463V208.2ZM79.9463 211.8H82.9463V214.8H79.9463V211.8ZM79.9463 215.4H82.9463V218.4H79.9463V215.4ZM79.9463 219H82.9463V222H79.9463V219ZM115.938 201H118.938V204H115.938V201ZM112.338 197.4H115.338V200.4H112.338V197.4ZM108.738 197.4H111.738V200.4H108.738V197.4ZM105.138 197.4H108.138V200.4H105.138V197.4ZM101.538 201H104.538V204H101.538V201ZM115.938 211.8H118.938V214.8H115.938V211.8ZM115.938 215.4H118.938V218.4H115.938V215.4ZM112.338 208.2H115.338V211.2H112.338V208.2ZM112.338 219H115.338V222H112.338V219ZM108.738 208.2H111.738V211.2H108.738V208.2ZM108.738 219H111.738V222H108.738V219ZM105.138 208.2H108.138V211.2H105.138V208.2ZM105.138 219H108.138V222H105.138V219ZM101.538 204.6H104.538V207.6H101.538V204.6ZM101.538 215.4H104.538V218.4H101.538V215.4ZM130.33 197.4H133.33V200.4H130.33V197.4ZM126.73 197.4H129.73V200.4H126.73V197.4ZM126.73 201H129.73V204H126.73V201ZM123.13 197.4H126.13V200.4H123.13V197.4ZM130.33 219H133.33V222H130.33V219ZM126.73 204.6H129.73V207.6H126.73V204.6ZM126.73 208.2H129.73V211.2H126.73V208.2ZM126.73 211.8H129.73V214.8H126.73V211.8ZM126.73 215.4H129.73V218.4H126.73V215.4ZM126.73 219H129.73V222H126.73V219ZM123.13 219H126.13V222H123.13V219ZM151.944 201H154.944V204H151.944V201ZM148.344 197.4H151.344V200.4H148.344V197.4ZM144.744 197.4H147.744V200.4H144.744V197.4ZM141.144 197.4H144.144V200.4H141.144V197.4ZM137.544 201H140.544V204H137.544V201ZM151.944 204.6H154.944V207.6H151.944V204.6ZM151.944 208.2H154.944V211.2H151.944V208.2ZM151.944 211.8H154.944V214.8H151.944V211.8ZM151.944 215.4H154.944V218.4H151.944V215.4ZM148.344 219H151.344V222H148.344V219ZM144.744 219H147.744V222H144.744V219ZM141.144 219H144.144V222H141.144V219ZM137.544 204.6H140.544V207.6H137.544V204.6ZM137.544 208.2H140.544V211.2H137.544V208.2ZM137.544 211.8H140.544V214.8H137.544V211.8ZM137.544 215.4H140.544V218.4H137.544V215.4ZM173.536 197.4H176.536V200.4H173.536V197.4ZM173.536 201H176.536V204H173.536V201ZM159.136 197.4H162.136V200.4H159.136V197.4ZM159.136 201H162.136V204H159.136V201ZM173.536 204.6H176.536V207.6H173.536V204.6ZM173.536 208.2H176.536V211.2H173.536V208.2ZM173.536 211.8H176.536V214.8H173.536V211.8ZM173.536 215.4H176.536V218.4H173.536V215.4ZM173.536 219H176.536V222H173.536V219ZM169.936 211.8H172.936V214.8H169.936V211.8ZM166.336 208.2H169.336V211.2H166.336V208.2ZM162.736 204.6H165.736V207.6H162.736V204.6ZM159.136 204.6H162.136V207.6H159.136V204.6ZM159.136 208.2H162.136V211.2H159.136V208.2ZM159.136 211.8H162.136V214.8H159.136V211.8ZM159.136 215.4H162.136V218.4H159.136V215.4ZM159.136 219H162.136V222H159.136V219ZM195.128 197.4H198.128V200.4H195.128V197.4ZM191.528 197.4H194.528V200.4H191.528V197.4ZM187.928 197.4H190.928V200.4H187.928V197.4ZM184.328 197.4H187.328V200.4H184.328V197.4ZM180.728 197.4H183.728V200.4H180.728V197.4ZM180.728 201H183.728V204H180.728V201ZM195.128 219H198.128V222H195.128V219ZM191.528 208.2H194.528V211.2H191.528V208.2ZM191.528 219H194.528V222H191.528V219ZM187.928 208.2H190.928V211.2H187.928V208.2ZM187.928 219H190.928V222H187.928V219ZM184.328 208.2H187.328V211.2H184.328V208.2ZM184.328 219H187.328V222H184.328V219ZM180.728 204.6H183.728V207.6H180.728V204.6ZM180.728 208.2H183.728V211.2H180.728V208.2ZM180.728 211.8H183.728V214.8H180.728V211.8ZM180.728 215.4H183.728V218.4H180.728V215.4ZM180.728 219H183.728V222H180.728V219ZM238.311 197.4H241.311V200.4H238.311V197.4ZM238.311 201H241.311V204H238.311V201ZM223.911 197.4H226.911V200.4H223.911V197.4ZM223.911 201H226.911V204H223.911V201ZM238.311 204.6H241.311V207.6H238.311V204.6ZM238.311 208.2H241.311V211.2H238.311V208.2ZM238.311 211.8H241.311V214.8H238.311V211.8ZM238.311 215.4H241.311V218.4H238.311V215.4ZM234.711 219H237.711V222H234.711V219ZM231.111 219H234.111V222H231.111V219ZM227.511 219H230.511V222H227.511V219ZM223.911 204.6H226.911V207.6H223.911V204.6ZM223.911 208.2H226.911V211.2H223.911V208.2ZM223.911 211.8H226.911V214.8H223.911V211.8ZM223.911 215.4H226.911V218.4H223.911V215.4ZM259.903 197.4H262.903V200.4H259.903V197.4ZM259.903 201H262.903V204H259.903V201ZM245.503 197.4H248.503V200.4H245.503V197.4ZM245.503 201H248.503V204H245.503V201ZM259.903 204.6H262.903V207.6H259.903V204.6ZM259.903 208.2H262.903V211.2H259.903V208.2ZM259.903 211.8H262.903V214.8H259.903V211.8ZM259.903 215.4H262.903V218.4H259.903V215.4ZM259.903 219H262.903V222H259.903V219ZM256.303 211.8H259.303V214.8H256.303V211.8ZM252.703 208.2H255.703V211.2H252.703V208.2ZM249.103 204.6H252.103V207.6H249.103V204.6ZM245.503 204.6H248.503V207.6H245.503V204.6ZM245.503 208.2H248.503V211.2H245.503V208.2ZM245.503 211.8H248.503V214.8H245.503V211.8ZM245.503 215.4H248.503V218.4H245.503V215.4ZM245.503 219H248.503V222H245.503V219ZM281.495 201H284.495V204H281.495V201ZM277.895 197.4H280.895V200.4H277.895V197.4ZM274.295 197.4H277.295V200.4H274.295V197.4ZM270.695 197.4H273.695V200.4H270.695V197.4ZM267.095 201H270.095V204H267.095V201ZM281.495 204.6H284.495V207.6H281.495V204.6ZM281.495 208.2H284.495V211.2H281.495V208.2ZM281.495 211.8H284.495V214.8H281.495V211.8ZM281.495 215.4H284.495V218.4H281.495V215.4ZM281.495 219H284.495V222H281.495V219ZM277.895 208.2H280.895V211.2H277.895V208.2ZM274.295 208.2H277.295V211.2H274.295V208.2ZM270.695 208.2H273.695V211.2H270.695V208.2ZM267.095 204.6H270.095V207.6H267.095V204.6ZM267.095 208.2H270.095V211.2H267.095V208.2ZM267.095 211.8H270.095V214.8H267.095V211.8ZM267.095 215.4H270.095V218.4H267.095V215.4ZM267.095 219H270.095V222H267.095V219ZM324.678 197.4H327.678V200.4H324.678V197.4ZM321.078 197.4H324.078V200.4H321.078V197.4ZM317.478 197.4H320.478V200.4H317.478V197.4ZM317.478 201H320.478V204H317.478V201ZM313.878 197.4H316.878V200.4H313.878V197.4ZM310.278 197.4H313.278V200.4H310.278V197.4ZM317.478 204.6H320.478V207.6H317.478V204.6ZM317.478 208.2H320.478V211.2H317.478V208.2ZM317.478 211.8H320.478V214.8H317.478V211.8ZM317.478 215.4H320.478V218.4H317.478V215.4ZM317.478 219H320.478V222H317.478V219ZM346.27 197.4H349.27V200.4H346.27V197.4ZM342.67 197.4H345.67V200.4H342.67V197.4ZM339.07 197.4H342.07V200.4H339.07V197.4ZM335.47 197.4H338.47V200.4H335.47V197.4ZM331.87 197.4H334.87V200.4H331.87V197.4ZM331.87 201H334.87V204H331.87V201ZM346.27 219H349.27V222H346.27V219ZM342.67 208.2H345.67V211.2H342.67V208.2ZM342.67 219H345.67V222H342.67V219ZM339.07 208.2H342.07V211.2H339.07V208.2ZM339.07 219H342.07V222H339.07V219ZM335.47 208.2H338.47V211.2H335.47V208.2ZM335.47 219H338.47V222H335.47V219ZM331.87 204.6H334.87V207.6H331.87V204.6ZM331.87 208.2H334.87V211.2H331.87V208.2ZM331.87 211.8H334.87V214.8H331.87V211.8ZM331.87 215.4H334.87V218.4H331.87V215.4ZM331.87 219H334.87V222H331.87V219ZM367.862 201H370.862V204H367.862V201ZM364.262 197.4H367.262V200.4H364.262V197.4ZM360.662 197.4H363.662V200.4H360.662V197.4ZM357.062 197.4H360.062V200.4H357.062V197.4ZM353.462 201H356.462V204H353.462V201ZM367.862 215.4H370.862V218.4H367.862V215.4ZM364.262 219H367.262V222H364.262V219ZM360.662 219H363.662V222H360.662V219ZM357.062 219H360.062V222H357.062V219ZM353.462 204.6H356.462V207.6H353.462V204.6ZM353.462 208.2H356.462V211.2H353.462V208.2ZM353.462 211.8H356.462V214.8H353.462V211.8ZM353.462 215.4H356.462V218.4H353.462V215.4ZM375.054 197.4H378.054V200.4H375.054V197.4ZM375.054 201H378.054V204H375.054V201ZM389.454 219H392.454V222H389.454V219ZM385.854 219H388.854V222H385.854V219ZM382.254 219H385.254V222H382.254V219ZM378.654 219H381.654V222H378.654V219ZM375.054 204.6H378.054V207.6H375.054V204.6ZM375.054 208.2H378.054V211.2H375.054V208.2ZM375.054 211.8H378.054V214.8H375.054V211.8ZM375.054 215.4H378.054V218.4H375.054V215.4ZM375.054 219H378.054V222H375.054V219ZM411.046 201H414.046V204H411.046V201ZM407.446 197.4H410.446V200.4H407.446V197.4ZM403.846 197.4H406.846V200.4H403.846V197.4ZM400.246 197.4H403.246V200.4H400.246V197.4ZM396.646 201H399.646V204H396.646V201ZM411.046 204.6H414.046V207.6H411.046V204.6ZM411.046 208.2H414.046V211.2H411.046V208.2ZM411.046 211.8H414.046V214.8H411.046V211.8ZM411.046 215.4H414.046V218.4H411.046V215.4ZM411.046 219H414.046V222H411.046V219ZM407.446 208.2H410.446V211.2H407.446V208.2ZM403.846 208.2H406.846V211.2H403.846V208.2ZM400.246 208.2H403.246V211.2H400.246V208.2ZM396.646 204.6H399.646V207.6H396.646V204.6ZM396.646 208.2H399.646V211.2H396.646V208.2ZM396.646 211.8H399.646V214.8H396.646V211.8ZM396.646 215.4H399.646V218.4H396.646V215.4ZM396.646 219H399.646V222H396.646V219ZM94.3463 234H97.3463V237H94.3463V234ZM90.7463 230.4H93.7463V233.4H90.7463V230.4ZM87.1463 230.4H90.1463V233.4H87.1463V230.4ZM83.5463 230.4H86.5463V233.4H83.5463V230.4ZM79.9463 230.4H82.9463V233.4H79.9463V230.4ZM79.9463 234H82.9463V237H79.9463V234ZM94.3463 237.6H97.3463V240.6H94.3463V237.6ZM90.7463 241.2H93.7463V244.2H90.7463V241.2ZM87.1463 241.2H90.1463V244.2H87.1463V241.2ZM83.5463 241.2H86.5463V244.2H83.5463V241.2ZM79.9463 237.6H82.9463V240.6H79.9463V237.6ZM79.9463 241.2H82.9463V244.2H79.9463V241.2ZM79.9463 244.8H82.9463V247.8H79.9463V244.8ZM79.9463 248.4H82.9463V251.4H79.9463V248.4ZM79.9463 252H82.9463V255H79.9463V252ZM115.938 234H118.938V237H115.938V234ZM112.338 230.4H115.338V233.4H112.338V230.4ZM108.738 230.4H111.738V233.4H108.738V230.4ZM105.138 230.4H108.138V233.4H105.138V230.4ZM101.538 234H104.538V237H101.538V234ZM115.938 237.6H118.938V240.6H115.938V237.6ZM115.938 241.2H118.938V244.2H115.938V241.2ZM115.938 244.8H118.938V247.8H115.938V244.8ZM115.938 248.4H118.938V251.4H115.938V248.4ZM115.938 252H118.938V255H115.938V252ZM112.338 241.2H115.338V244.2H112.338V241.2ZM108.738 241.2H111.738V244.2H108.738V241.2ZM105.138 241.2H108.138V244.2H105.138V241.2ZM101.538 237.6H104.538V240.6H101.538V237.6ZM101.538 241.2H104.538V244.2H101.538V241.2ZM101.538 244.8H104.538V247.8H101.538V244.8ZM101.538 248.4H104.538V251.4H101.538V248.4ZM101.538 252H104.538V255H101.538V252ZM137.53 234H140.53V237H137.53V234ZM133.93 230.4H136.93V233.4H133.93V230.4ZM130.33 230.4H133.33V233.4H130.33V230.4ZM126.73 230.4H129.73V233.4H126.73V230.4ZM123.13 230.4H126.13V233.4H123.13V230.4ZM123.13 234H126.13V237H123.13V234ZM137.53 237.6H140.53V240.6H137.53V237.6ZM137.53 252H140.53V255H137.53V252ZM133.93 241.2H136.93V244.2H133.93V241.2ZM133.93 248.4H136.93V251.4H133.93V248.4ZM130.33 241.2H133.33V244.2H130.33V241.2ZM130.33 244.8H133.33V247.8H130.33V244.8ZM126.73 241.2H129.73V244.2H126.73V241.2ZM123.13 237.6H126.13V240.6H123.13V237.6ZM123.13 241.2H126.13V244.2H123.13V241.2ZM123.13 244.8H126.13V247.8H123.13V244.8ZM123.13 248.4H126.13V251.4H123.13V248.4ZM123.13 252H126.13V255H123.13V252ZM159.122 234H162.122V237H159.122V234ZM155.522 230.4H158.522V233.4H155.522V230.4ZM151.922 230.4H154.922V233.4H151.922V230.4ZM148.322 230.4H151.322V233.4H148.322V230.4ZM144.722 234H147.722V237H144.722V234ZM159.122 237.6H162.122V240.6H159.122V237.6ZM159.122 241.2H162.122V244.2H159.122V241.2ZM159.122 244.8H162.122V247.8H159.122V244.8ZM159.122 248.4H162.122V251.4H159.122V248.4ZM159.122 252H162.122V255H159.122V252ZM155.522 241.2H158.522V244.2H155.522V241.2ZM151.922 241.2H154.922V244.2H151.922V241.2ZM148.322 241.2H151.322V244.2H148.322V241.2ZM144.722 237.6H147.722V240.6H144.722V237.6ZM144.722 241.2H147.722V244.2H144.722V241.2ZM144.722 244.8H147.722V247.8H144.722V244.8ZM144.722 248.4H147.722V251.4H144.722V248.4ZM144.722 252H147.722V255H144.722V252ZM202.305 234H205.305V237H202.305V234ZM198.705 230.4H201.705V233.4H198.705V230.4ZM195.105 230.4H198.105V233.4H195.105V230.4ZM191.505 230.4H194.505V233.4H191.505V230.4ZM187.905 234H190.905V237H187.905V234ZM202.305 248.4H205.305V251.4H202.305V248.4ZM198.705 252H201.705V255H198.705V252ZM195.105 252H198.105V255H195.105V252ZM191.505 252H194.505V255H191.505V252ZM187.905 237.6H190.905V240.6H187.905V237.6ZM187.905 241.2H190.905V244.2H187.905V241.2ZM187.905 244.8H190.905V247.8H187.905V244.8ZM187.905 248.4H190.905V251.4H187.905V248.4ZM223.897 234H226.897V237H223.897V234ZM220.297 230.4H223.297V233.4H220.297V230.4ZM216.697 230.4H219.697V233.4H216.697V230.4ZM213.097 230.4H216.097V233.4H213.097V230.4ZM209.497 234H212.497V237H209.497V234ZM223.897 237.6H226.897V240.6H223.897V237.6ZM223.897 241.2H226.897V244.2H223.897V241.2ZM223.897 244.8H226.897V247.8H223.897V244.8ZM223.897 248.4H226.897V251.4H223.897V248.4ZM220.297 252H223.297V255H220.297V252ZM216.697 252H219.697V255H216.697V252ZM213.097 252H216.097V255H213.097V252ZM209.497 237.6H212.497V240.6H209.497V237.6ZM209.497 241.2H212.497V244.2H209.497V241.2ZM209.497 244.8H212.497V247.8H209.497V244.8ZM209.497 248.4H212.497V251.4H209.497V248.4ZM245.489 230.4H248.489V233.4H245.489V230.4ZM245.489 234H248.489V237H245.489V234ZM231.089 230.4H234.089V233.4H231.089V230.4ZM231.089 234H234.089V237H231.089V234ZM245.489 237.6H248.489V240.6H245.489V237.6ZM245.489 241.2H248.489V244.2H245.489V241.2ZM245.489 244.8H248.489V247.8H245.489V244.8ZM245.489 248.4H248.489V251.4H245.489V248.4ZM245.489 252H248.489V255H245.489V252ZM241.889 244.8H244.889V247.8H241.889V244.8ZM238.289 241.2H241.289V244.2H238.289V241.2ZM234.689 237.6H237.689V240.6H234.689V237.6ZM231.089 237.6H234.089V240.6H231.089V237.6ZM231.089 241.2H234.089V244.2H231.089V241.2ZM231.089 244.8H234.089V247.8H231.089V244.8ZM231.089 248.4H234.089V251.4H231.089V248.4ZM231.089 252H234.089V255H231.089V252ZM267.081 230.4H270.081V233.4H267.081V230.4ZM263.481 230.4H266.481V233.4H263.481V230.4ZM259.881 230.4H262.881V233.4H259.881V230.4ZM259.881 234H262.881V237H259.881V234ZM256.281 230.4H259.281V233.4H256.281V230.4ZM252.681 230.4H255.681V233.4H252.681V230.4ZM259.881 237.6H262.881V240.6H259.881V237.6ZM259.881 241.2H262.881V244.2H259.881V241.2ZM259.881 244.8H262.881V247.8H259.881V244.8ZM259.881 248.4H262.881V251.4H259.881V248.4ZM259.881 252H262.881V255H259.881V252ZM281.472 230.4H284.472V233.4H281.472V230.4ZM277.872 230.4H280.872V233.4H277.872V230.4ZM277.872 234H280.872V237H277.872V234ZM274.272 230.4H277.272V233.4H274.272V230.4ZM281.472 252H284.472V255H281.472V252ZM277.872 237.6H280.872V240.6H277.872V237.6ZM277.872 241.2H280.872V244.2H277.872V241.2ZM277.872 244.8H280.872V247.8H277.872V244.8ZM277.872 248.4H280.872V251.4H277.872V248.4ZM277.872 252H280.872V255H277.872V252ZM274.272 252H277.272V255H274.272V252ZM303.087 230.4H306.087V233.4H303.087V230.4ZM303.087 234H306.087V237H303.087V234ZM288.687 230.4H291.687V233.4H288.687V230.4ZM288.687 234H291.687V237H288.687V234ZM303.087 237.6H306.087V240.6H303.087V237.6ZM303.087 241.2H306.087V244.2H303.087V241.2ZM303.087 244.8H306.087V247.8H303.087V244.8ZM303.087 248.4H306.087V251.4H303.087V248.4ZM303.087 252H306.087V255H303.087V252ZM299.487 244.8H302.487V247.8H299.487V244.8ZM295.887 241.2H298.887V244.2H295.887V241.2ZM292.287 237.6H295.287V240.6H292.287V237.6ZM288.687 237.6H291.687V240.6H288.687V237.6ZM288.687 241.2H291.687V244.2H288.687V241.2ZM288.687 244.8H291.687V247.8H288.687V244.8ZM288.687 248.4H291.687V251.4H288.687V248.4ZM288.687 252H291.687V255H288.687V252ZM324.678 230.4H327.678V233.4H324.678V230.4ZM324.678 234H327.678V237H324.678V234ZM310.278 230.4H313.278V233.4H310.278V230.4ZM310.278 234H313.278V237H310.278V234ZM324.678 237.6H327.678V240.6H324.678V237.6ZM324.678 241.2H327.678V244.2H324.678V241.2ZM324.678 244.8H327.678V247.8H324.678V244.8ZM324.678 248.4H327.678V251.4H324.678V248.4ZM321.078 252H324.078V255H321.078V252ZM317.478 252H320.478V255H317.478V252ZM313.878 252H316.878V255H313.878V252ZM310.278 237.6H313.278V240.6H310.278V237.6ZM310.278 241.2H313.278V244.2H310.278V241.2ZM310.278 244.8H313.278V247.8H310.278V244.8ZM310.278 248.4H313.278V251.4H310.278V248.4ZM346.27 234H349.27V237H346.27V234ZM342.67 230.4H345.67V233.4H342.67V230.4ZM339.07 230.4H342.07V233.4H339.07V230.4ZM335.47 230.4H338.47V233.4H335.47V230.4ZM331.87 234H334.87V237H331.87V234ZM346.27 237.6H349.27V240.6H346.27V237.6ZM346.27 241.2H349.27V244.2H346.27V241.2ZM346.27 244.8H349.27V247.8H346.27V244.8ZM346.27 248.4H349.27V251.4H346.27V248.4ZM346.27 252H349.27V255H346.27V252ZM342.67 241.2H345.67V244.2H342.67V241.2ZM339.07 241.2H342.07V244.2H339.07V241.2ZM335.47 241.2H338.47V244.2H335.47V241.2ZM331.87 237.6H334.87V240.6H331.87V237.6ZM331.87 241.2H334.87V244.2H331.87V241.2ZM331.87 244.8H334.87V247.8H331.87V244.8ZM331.87 248.4H334.87V251.4H331.87V248.4ZM331.87 252H334.87V255H331.87V252ZM367.862 234H370.862V237H367.862V234ZM364.262 230.4H367.262V233.4H364.262V230.4ZM360.662 230.4H363.662V233.4H360.662V230.4ZM357.062 230.4H360.062V233.4H357.062V230.4ZM353.462 230.4H356.462V233.4H353.462V230.4ZM353.462 234H356.462V237H353.462V234ZM367.862 237.6H370.862V240.6H367.862V237.6ZM367.862 252H370.862V255H367.862V252ZM364.262 241.2H367.262V244.2H364.262V241.2ZM364.262 248.4H367.262V251.4H364.262V248.4ZM360.662 241.2H363.662V244.2H360.662V241.2ZM360.662 244.8H363.662V247.8H360.662V244.8ZM357.062 241.2H360.062V244.2H357.062V241.2ZM353.462 237.6H356.462V240.6H353.462V237.6ZM353.462 241.2H356.462V244.2H353.462V241.2ZM353.462 244.8H356.462V247.8H353.462V244.8ZM353.462 248.4H356.462V251.4H353.462V248.4ZM353.462 252H356.462V255H353.462V252Z" fill="#5B65C2"/>
<path d="M287.247 88.6H290.247V91.6H287.247V88.6ZM287.247 59.8H290.247V62.8H287.247V59.8ZM287.247 77.8H290.247V80.8H287.247V77.8ZM287.247 81.4H290.247V84.4H287.247V81.4ZM287.247 67H290.247V70H287.247V67ZM287.247 70.6H290.247V73.6H287.247V70.6ZM294.447 67H297.447V70H294.447V67ZM290.847 63.4H293.847V66.4H290.847V63.4ZM287.247 63.4H290.247V66.4H287.247V63.4ZM283.647 63.4H286.647V66.4H283.647V63.4ZM280.047 67H283.047V70H280.047V67ZM294.447 77.8H297.447V80.8H294.447V77.8ZM294.447 81.4H297.447V84.4H294.447V81.4ZM290.847 74.2H293.847V77.2H290.847V74.2ZM290.847 85H293.847V88H290.847V85ZM287.247 74.2H290.247V77.2H287.247V74.2ZM287.247 85H290.247V88H287.247V85ZM283.647 74.2H286.647V77.2H283.647V74.2ZM283.647 85H286.647V88H283.647V85ZM280.047 70.6H283.047V73.6H280.047V70.6ZM280.047 81.4H283.047V84.4H280.047V81.4ZM294.447 67H297.447V70H294.447V67ZM290.847 63.4H293.847V66.4H290.847V63.4ZM287.247 63.4H290.247V66.4H287.247V63.4ZM283.647 63.4H286.647V66.4H283.647V63.4ZM280.047 67H283.047V70H280.047V67ZM294.447 77.8H297.447V80.8H294.447V77.8ZM294.447 81.4H297.447V84.4H294.447V81.4ZM290.847 74.2H293.847V77.2H290.847V74.2ZM290.847 85H293.847V88H290.847V85ZM287.247 74.2H290.247V77.2H287.247V74.2ZM287.247 85H290.247V88H287.247V85ZM283.647 74.2H286.647V77.2H283.647V74.2ZM283.647 85H286.647V88H283.647V85ZM280.047 70.6H283.047V73.6H280.047V70.6ZM280.047 81.4H283.047V84.4H280.047V81.4ZM308.839 63.4H311.839V66.4H308.839V63.4ZM308.839 67H311.839V70H308.839V67ZM305.239 67H308.239V70H305.239V67ZM316.039 85H319.039V88H316.039V85ZM312.439 85H315.439V88H312.439V85ZM308.839 70.6H311.839V73.6H308.839V70.6ZM308.839 74.2H311.839V77.2H308.839V74.2ZM308.839 77.8H311.839V80.8H308.839V77.8ZM308.839 81.4H311.839V84.4H308.839V81.4ZM308.839 85H311.839V88H308.839V85ZM305.239 85H308.239V88H305.239V85ZM301.639 70.6H304.639V73.6H301.639V70.6ZM301.639 85H304.639V88H301.639V85ZM337.63 67H340.63V70H337.63V67ZM334.03 63.4H337.03V66.4H334.03V63.4ZM330.43 63.4H333.43V66.4H330.43V63.4ZM326.83 63.4H329.83V66.4H326.83V63.4ZM323.23 67H326.23V70H323.23V67ZM337.63 70.6H340.63V73.6H337.63V70.6ZM337.63 85H340.63V88H337.63V85ZM334.03 74.2H337.03V77.2H334.03V74.2ZM334.03 85H337.03V88H334.03V85ZM330.43 77.8H333.43V80.8H330.43V77.8ZM330.43 85H333.43V88H330.43V85ZM326.83 81.4H329.83V84.4H326.83V81.4ZM326.83 85H329.83V88H326.83V85ZM323.23 85H326.23V88H323.23V85ZM359.222 67H362.222V70H359.222V67ZM355.622 63.4H358.622V66.4H355.622V63.4ZM352.022 63.4H355.022V66.4H352.022V63.4ZM348.422 63.4H351.422V66.4H348.422V63.4ZM344.822 67H347.822V70H344.822V67ZM359.222 70.6H362.222V73.6H359.222V70.6ZM359.222 74.2H362.222V77.2H359.222V74.2ZM359.222 77.8H362.222V80.8H359.222V77.8ZM359.222 81.4H362.222V84.4H359.222V81.4ZM355.622 70.6H358.622V73.6H355.622V70.6ZM355.622 85H358.622V88H355.622V85ZM352.022 74.2H355.022V77.2H352.022V74.2ZM352.022 85H355.022V88H352.022V85ZM348.422 77.8H351.422V80.8H348.422V77.8ZM348.422 85H351.422V88H348.422V85ZM344.822 70.6H347.822V73.6H344.822V70.6ZM344.822 74.2H347.822V77.2H344.822V74.2ZM344.822 77.8H347.822V80.8H344.822V77.8ZM344.822 81.4H347.822V84.4H344.822V81.4ZM370.014 81.4H373.014V84.4H370.014V81.4ZM370.014 85H373.014V88H370.014V85ZM366.414 81.4H369.414V84.4H366.414V81.4ZM366.414 85H369.414V88H366.414V85ZM391.625 67H394.625V70H391.625V67ZM388.025 63.4H391.025V66.4H388.025V63.4ZM384.425 63.4H387.425V66.4H384.425V63.4ZM380.825 63.4H383.825V66.4H380.825V63.4ZM377.225 67H380.225V70H377.225V67ZM391.625 70.6H394.625V73.6H391.625V70.6ZM391.625 74.2H394.625V77.2H391.625V74.2ZM391.625 77.8H394.625V80.8H391.625V77.8ZM391.625 81.4H394.625V84.4H391.625V81.4ZM388.025 70.6H391.025V73.6H388.025V70.6ZM388.025 85H391.025V88H388.025V85ZM384.425 74.2H387.425V77.2H384.425V74.2ZM384.425 85H387.425V88H384.425V85ZM380.825 77.8H383.825V80.8H380.825V77.8ZM380.825 85H383.825V88H380.825V85ZM377.225 70.6H380.225V73.6H377.225V70.6ZM377.225 74.2H380.225V77.2H377.225V74.2ZM377.225 77.8H380.225V80.8H377.225V77.8ZM377.225 81.4H380.225V84.4H377.225V81.4ZM413.216 67H416.216V70H413.216V67ZM409.616 63.4H412.616V66.4H409.616V63.4ZM406.016 63.4H409.016V66.4H406.016V63.4ZM402.416 63.4H405.416V66.4H402.416V63.4ZM398.816 67H401.816V70H398.816V67ZM413.216 70.6H416.216V73.6H413.216V70.6ZM413.216 74.2H416.216V77.2H413.216V74.2ZM413.216 77.8H416.216V80.8H413.216V77.8ZM413.216 81.4H416.216V84.4H413.216V81.4ZM409.616 70.6H412.616V73.6H409.616V70.6ZM409.616 85H412.616V88H409.616V85ZM406.016 74.2H409.016V77.2H406.016V74.2ZM406.016 85H409.016V88H406.016V85ZM402.416 77.8H405.416V80.8H402.416V77.8ZM402.416 85H405.416V88H402.416V85ZM398.816 70.6H401.816V73.6H398.816V70.6ZM398.816 74.2H401.816V77.2H398.816V74.2ZM398.816 77.8H401.816V80.8H398.816V77.8ZM398.816 81.4H401.816V84.4H398.816V81.4ZM434.808 67H437.808V70H434.808V67ZM431.208 63.4H434.208V66.4H431.208V63.4ZM427.608 63.4H430.608V66.4H427.608V63.4ZM424.008 63.4H427.008V66.4H424.008V63.4ZM420.408 67H423.408V70H420.408V67ZM434.808 70.6H437.808V73.6H434.808V70.6ZM434.808 74.2H437.808V77.2H434.808V74.2ZM434.808 77.8H437.808V80.8H434.808V77.8ZM434.808 81.4H437.808V84.4H434.808V81.4ZM431.208 70.6H434.208V73.6H431.208V70.6ZM431.208 85H434.208V88H431.208V85ZM427.608 74.2H430.608V77.2H427.608V74.2ZM427.608 85H430.608V88H427.608V85ZM424.008 77.8H427.008V80.8H424.008V77.8ZM424.008 85H427.008V88H424.008V85ZM420.408 70.6H423.408V73.6H420.408V70.6ZM420.408 74.2H423.408V77.2H420.408V74.2ZM420.408 77.8H423.408V80.8H420.408V77.8ZM420.408 81.4H423.408V84.4H420.408V81.4ZM308.839 121.6H311.839V124.6H308.839V121.6ZM308.839 92.8H311.839V95.8H308.839V92.8ZM308.839 110.8H311.839V113.8H308.839V110.8ZM308.839 114.4H311.839V117.4H308.839V114.4ZM308.839 100H311.839V103H308.839V100ZM308.839 103.6H311.839V106.6H308.839V103.6ZM316.039 100H319.039V103H316.039V100ZM312.439 96.4H315.439V99.4H312.439V96.4ZM308.839 96.4H311.839V99.4H308.839V96.4ZM305.239 96.4H308.239V99.4H305.239V96.4ZM301.639 100H304.639V103H301.639V100ZM316.039 110.8H319.039V113.8H316.039V110.8ZM316.039 114.4H319.039V117.4H316.039V114.4ZM312.439 107.2H315.439V110.2H312.439V107.2ZM312.439 118H315.439V121H312.439V118ZM308.839 107.2H311.839V110.2H308.839V107.2ZM308.839 118H311.839V121H308.839V118ZM305.239 107.2H308.239V110.2H305.239V107.2ZM305.239 118H308.239V121H305.239V118ZM301.639 103.6H304.639V106.6H301.639V103.6ZM301.639 114.4H304.639V117.4H301.639V114.4ZM316.039 100H319.039V103H316.039V100ZM312.439 96.4H315.439V99.4H312.439V96.4ZM308.839 96.4H311.839V99.4H308.839V96.4ZM305.239 96.4H308.239V99.4H305.239V96.4ZM301.639 100H304.639V103H301.639V100ZM316.039 110.8H319.039V113.8H316.039V110.8ZM316.039 114.4H319.039V117.4H316.039V114.4ZM312.439 107.2H315.439V110.2H312.439V107.2ZM312.439 118H315.439V121H312.439V118ZM308.839 107.2H311.839V110.2H308.839V107.2ZM308.839 118H311.839V121H308.839V118ZM305.239 107.2H308.239V110.2H305.239V107.2ZM305.239 118H308.239V121H305.239V118ZM301.639 103.6H304.639V106.6H301.639V103.6ZM301.639 114.4H304.639V117.4H301.639V114.4ZM337.63 100H340.63V103H337.63V100ZM334.03 96.4H337.03V99.4H334.03V96.4ZM330.43 96.4H333.43V99.4H330.43V96.4ZM326.83 96.4H329.83V99.4H326.83V96.4ZM323.23 100H326.23V103H323.23V100ZM337.63 103.6H340.63V106.6H337.63V103.6ZM337.63 118H340.63V121H337.63V118ZM334.03 107.2H337.03V110.2H334.03V107.2ZM334.03 118H337.03V121H334.03V118ZM330.43 110.8H333.43V113.8H330.43V110.8ZM330.43 118H333.43V121H330.43V118ZM326.83 114.4H329.83V117.4H326.83V114.4ZM326.83 118H329.83V121H326.83V118ZM323.23 118H326.23V121H323.23V118ZM355.622 96.4H358.622V99.4H355.622V96.4ZM355.622 100H358.622V103H355.622V100ZM352.022 100H355.022V103H352.022V100ZM359.222 110.8H362.222V113.8H359.222V110.8ZM355.622 103.6H358.622V106.6H355.622V103.6ZM355.622 107.2H358.622V110.2H355.622V107.2ZM355.622 110.8H358.622V113.8H355.622V110.8ZM355.622 114.4H358.622V117.4H355.622V114.4ZM355.622 118H358.622V121H355.622V118ZM352.022 110.8H355.022V113.8H352.022V110.8ZM348.422 103.6H351.422V106.6H348.422V103.6ZM348.422 110.8H351.422V113.8H348.422V110.8ZM344.822 107.2H347.822V110.2H344.822V107.2ZM344.822 110.8H347.822V113.8H344.822V110.8ZM370.014 114.4H373.014V117.4H370.014V114.4ZM370.014 118H373.014V121H370.014V118ZM366.414 114.4H369.414V117.4H366.414V114.4ZM366.414 118H369.414V121H366.414V118ZM391.625 100H394.625V103H391.625V100ZM388.025 96.4H391.025V99.4H388.025V96.4ZM384.425 96.4H387.425V99.4H384.425V96.4ZM380.825 96.4H383.825V99.4H380.825V96.4ZM377.225 100H380.225V103H377.225V100ZM391.625 103.6H394.625V106.6H391.625V103.6ZM391.625 107.2H394.625V110.2H391.625V107.2ZM391.625 110.8H394.625V113.8H391.625V110.8ZM391.625 114.4H394.625V117.4H391.625V114.4ZM388.025 103.6H391.025V106.6H388.025V103.6ZM388.025 118H391.025V121H388.025V118ZM384.425 107.2H387.425V110.2H384.425V107.2ZM384.425 118H387.425V121H384.425V118ZM380.825 110.8H383.825V113.8H380.825V110.8ZM380.825 118H383.825V121H380.825V118ZM377.225 103.6H380.225V106.6H377.225V103.6ZM377.225 107.2H380.225V110.2H377.225V107.2ZM377.225 110.8H380.225V113.8H377.225V110.8ZM377.225 114.4H380.225V117.4H377.225V114.4ZM413.216 100H416.216V103H413.216V100ZM409.616 96.4H412.616V99.4H409.616V96.4ZM406.016 96.4H409.016V99.4H406.016V96.4ZM402.416 96.4H405.416V99.4H402.416V96.4ZM398.816 100H401.816V103H398.816V100ZM413.216 103.6H416.216V106.6H413.216V103.6ZM413.216 107.2H416.216V110.2H413.216V107.2ZM413.216 110.8H416.216V113.8H413.216V110.8ZM413.216 114.4H416.216V117.4H413.216V114.4ZM409.616 103.6H412.616V106.6H409.616V103.6ZM409.616 118H412.616V121H409.616V118ZM406.016 107.2H409.016V110.2H406.016V107.2ZM406.016 118H409.016V121H406.016V118ZM402.416 110.8H405.416V113.8H402.416V110.8ZM402.416 118H405.416V121H402.416V118ZM398.816 103.6H401.816V106.6H398.816V103.6ZM398.816 107.2H401.816V110.2H398.816V107.2ZM398.816 110.8H401.816V113.8H398.816V110.8ZM398.816 114.4H401.816V117.4H398.816V114.4ZM434.808 100H437.808V103H434.808V100ZM431.208 96.4H434.208V99.4H431.208V96.4ZM427.608 96.4H430.608V99.4H427.608V96.4ZM424.008 96.4H427.008V99.4H424.008V96.4ZM420.408 100H423.408V103H420.408V100ZM434.808 103.6H437.808V106.6H434.808V103.6ZM434.808 107.2H437.808V110.2H434.808V107.2ZM434.808 110.8H437.808V113.8H434.808V110.8ZM434.808 114.4H437.808V117.4H434.808V114.4ZM431.208 103.6H434.208V106.6H431.208V103.6ZM431.208 118H434.208V121H431.208V118ZM427.608 107.2H430.608V110.2H427.608V107.2ZM427.608 118H430.608V121H427.608V118ZM424.008 110.8H427.008V113.8H424.008V110.8ZM424.008 118H427.008V121H424.008V118ZM420.408 103.6H423.408V106.6H420.408V103.6ZM420.408 107.2H423.408V110.2H420.408V107.2ZM420.408 110.8H423.408V113.8H420.408V110.8ZM420.408 114.4H423.408V117.4H420.408V114.4ZM308.839 154.6H311.839V157.6H308.839V154.6ZM308.839 125.8H311.839V128.8H308.839V125.8ZM308.839 143.8H311.839V146.8H308.839V143.8ZM308.839 147.4H311.839V150.4H308.839V147.4ZM308.839 133H311.839V136H308.839V133ZM308.839 136.6H311.839V139.6H308.839V136.6ZM316.039 133H319.039V136H316.039V133ZM312.439 129.4H315.439V132.4H312.439V129.4ZM308.839 129.4H311.839V132.4H308.839V129.4ZM305.239 129.4H308.239V132.4H305.239V129.4ZM301.639 133H304.639V136H301.639V133ZM316.039 143.8H319.039V146.8H316.039V143.8ZM316.039 147.4H319.039V150.4H316.039V147.4ZM312.439 140.2H315.439V143.2H312.439V140.2ZM312.439 151H315.439V154H312.439V151ZM308.839 140.2H311.839V143.2H308.839V140.2ZM308.839 151H311.839V154H308.839V151ZM305.239 140.2H308.239V143.2H305.239V140.2ZM305.239 151H308.239V154H305.239V151ZM301.639 136.6H304.639V139.6H301.639V136.6ZM301.639 147.4H304.639V150.4H301.639V147.4ZM316.039 133H319.039V136H316.039V133ZM312.439 129.4H315.439V132.4H312.439V129.4ZM308.839 129.4H311.839V132.4H308.839V129.4ZM305.239 129.4H308.239V132.4H305.239V129.4ZM301.639 133H304.639V136H301.639V133ZM316.039 143.8H319.039V146.8H316.039V143.8ZM316.039 147.4H319.039V150.4H316.039V147.4ZM312.439 140.2H315.439V143.2H312.439V140.2ZM312.439 151H315.439V154H312.439V151ZM308.839 140.2H311.839V143.2H308.839V140.2ZM308.839 151H311.839V154H308.839V151ZM305.239 140.2H308.239V143.2H305.239V140.2ZM305.239 151H308.239V154H305.239V151ZM301.639 136.6H304.639V139.6H301.639V136.6ZM301.639 147.4H304.639V150.4H301.639V147.4ZM337.63 133H340.63V136H337.63V133ZM334.03 129.4H337.03V132.4H334.03V129.4ZM330.43 129.4H333.43V132.4H330.43V129.4ZM326.83 129.4H329.83V132.4H326.83V129.4ZM323.23 133H326.23V136H323.23V133ZM337.63 136.6H340.63V139.6H337.63V136.6ZM337.63 140.2H340.63V143.2H337.63V140.2ZM337.63 143.8H340.63V146.8H337.63V143.8ZM337.63 147.4H340.63V150.4H337.63V147.4ZM334.03 143.8H337.03V146.8H334.03V143.8ZM334.03 151H337.03V154H334.03V151ZM330.43 143.8H333.43V146.8H330.43V143.8ZM330.43 151H333.43V154H330.43V151ZM326.83 143.8H329.83V146.8H326.83V143.8ZM326.83 151H329.83V154H326.83V151ZM323.23 136.6H326.23V139.6H323.23V136.6ZM323.23 140.2H326.23V143.2H323.23V140.2ZM355.622 129.4H358.622V132.4H355.622V129.4ZM352.022 129.4H355.022V132.4H352.022V129.4ZM348.422 129.4H351.422V132.4H348.422V129.4ZM344.822 133H347.822V136H344.822V133ZM359.222 140.2H362.222V143.2H359.222V140.2ZM359.222 143.8H362.222V146.8H359.222V143.8ZM359.222 147.4H362.222V150.4H359.222V147.4ZM355.622 136.6H358.622V139.6H355.622V136.6ZM355.622 151H358.622V154H355.622V151ZM352.022 136.6H355.022V139.6H352.022V136.6ZM352.022 151H355.022V154H352.022V151ZM348.422 136.6H351.422V139.6H348.422V136.6ZM348.422 151H351.422V154H348.422V151ZM344.822 136.6H347.822V139.6H344.822V136.6ZM344.822 140.2H347.822V143.2H344.822V140.2ZM344.822 143.8H347.822V146.8H344.822V143.8ZM344.822 147.4H347.822V150.4H344.822V147.4ZM370.014 147.4H373.014V150.4H370.014V147.4ZM370.014 151H373.014V154H370.014V151ZM366.414 147.4H369.414V150.4H366.414V147.4ZM366.414 151H369.414V154H366.414V151ZM391.625 133H394.625V136H391.625V133ZM388.025 129.4H391.025V132.4H388.025V129.4ZM384.425 129.4H387.425V132.4H384.425V129.4ZM380.825 129.4H383.825V132.4H380.825V129.4ZM377.225 133H380.225V136H377.225V133ZM391.625 136.6H394.625V139.6H391.625V136.6ZM391.625 140.2H394.625V143.2H391.625V140.2ZM391.625 143.8H394.625V146.8H391.625V143.8ZM391.625 147.4H394.625V150.4H391.625V147.4ZM388.025 136.6H391.025V139.6H388.025V136.6ZM388.025 151H391.025V154H388.025V151ZM384.425 140.2H387.425V143.2H384.425V140.2ZM384.425 151H387.425V154H384.425V151ZM380.825 143.8H383.825V146.8H380.825V143.8ZM380.825 151H383.825V154H380.825V151ZM377.225 136.6H380.225V139.6H377.225V136.6ZM377.225 140.2H380.225V143.2H377.225V140.2ZM377.225 143.8H380.225V146.8H377.225V143.8ZM377.225 147.4H380.225V150.4H377.225V147.4ZM413.216 133H416.216V136H413.216V133ZM409.616 129.4H412.616V132.4H409.616V129.4ZM406.016 129.4H409.016V132.4H406.016V129.4ZM402.416 129.4H405.416V132.4H402.416V129.4ZM398.816 133H401.816V136H398.816V133ZM413.216 136.6H416.216V139.6H413.216V136.6ZM413.216 140.2H416.216V143.2H413.216V140.2ZM413.216 143.8H416.216V146.8H413.216V143.8ZM413.216 147.4H416.216V150.4H413.216V147.4ZM409.616 136.6H412.616V139.6H409.616V136.6ZM409.616 151H412.616V154H409.616V151ZM406.016 140.2H409.016V143.2H406.016V140.2ZM406.016 151H409.016V154H406.016V151ZM402.416 143.8H405.416V146.8H402.416V143.8ZM402.416 151H405.416V154H402.416V151ZM398.816 136.6H401.816V139.6H398.816V136.6ZM398.816 140.2H401.816V143.2H398.816V140.2ZM398.816 143.8H401.816V146.8H398.816V143.8ZM398.816 147.4H401.816V150.4H398.816V147.4ZM434.808 133H437.808V136H434.808V133ZM431.208 129.4H434.208V132.4H431.208V129.4ZM427.608 129.4H430.608V132.4H427.608V129.4ZM424.008 129.4H427.008V132.4H424.008V129.4ZM420.408 133H423.408V136H420.408V133ZM434.808 136.6H437.808V139.6H434.808V136.6ZM434.808 140.2H437.808V143.2H434.808V140.2ZM434.808 143.8H437.808V146.8H434.808V143.8ZM434.808 147.4H437.808V150.4H434.808V147.4ZM431.208 136.6H434.208V139.6H431.208V136.6ZM431.208 151H434.208V154H431.208V151ZM427.608 140.2H430.608V143.2H427.608V140.2ZM427.608 151H430.608V154H427.608V151ZM424.008 143.8H427.008V146.8H424.008V143.8ZM424.008 151H427.008V154H424.008V151ZM420.408 136.6H423.408V139.6H420.408V136.6ZM420.408 140.2H423.408V143.2H420.408V140.2ZM420.408 143.8H423.408V146.8H420.408V143.8ZM420.408 147.4H423.408V150.4H420.408V147.4Z" fill="#5B65C2"/>
</svg>
