<svg width="452" height="280" viewBox="0 0 452 280" fill="none" xmlns="http://www.w3.org/2000/svg">
<g clip-path="url(#clip0)">
<rect width="452" height="280" fill="white"/>
<rect width="452" height="47" fill="#5B65C2"/>
<path d="M304.839 237.4H307.839V240.4H304.839V237.4ZM304.839 241H307.839V244H304.839V241ZM301.239 241H304.239V244H301.239V241ZM312.039 259H315.039V262H312.039V259ZM308.439 259H311.439V262H308.439V259ZM304.839 244.6H307.839V247.6H304.839V244.6ZM304.839 248.2H307.839V251.2H304.839V248.2ZM304.839 251.8H307.839V254.8H304.839V251.8ZM304.839 255.4H307.839V258.4H304.839V255.4ZM304.839 259H307.839V262H304.839V259ZM301.239 259H304.239V262H301.239V259ZM297.639 244.6H300.639V247.6H297.639V244.6ZM297.639 259H300.639V262H297.639V259ZM333.63 241H336.63V244H333.63V241ZM330.03 237.4H333.03V240.4H330.03V237.4ZM326.43 237.4H329.43V240.4H326.43V237.4ZM322.83 237.4H325.83V240.4H322.83V237.4ZM319.23 241H322.23V244H319.23V241ZM333.63 244.6H336.63V247.6H333.63V244.6ZM333.63 259H336.63V262H333.63V259ZM330.03 248.2H333.03V251.2H330.03V248.2ZM330.03 259H333.03V262H330.03V259ZM326.43 251.8H329.43V254.8H326.43V251.8ZM326.43 259H329.43V262H326.43V259ZM322.83 255.4H325.83V258.4H322.83V255.4ZM322.83 259H325.83V262H322.83V259ZM319.23 259H322.23V262H319.23V259ZM355.222 241H358.222V244H355.222V241ZM351.622 237.4H354.622V240.4H351.622V237.4ZM348.022 237.4H351.022V240.4H348.022V237.4ZM344.422 237.4H347.422V240.4H344.422V237.4ZM340.822 241H343.822V244H340.822V241ZM355.222 244.6H358.222V247.6H355.222V244.6ZM355.222 248.2H358.222V251.2H355.222V248.2ZM355.222 251.8H358.222V254.8H355.222V251.8ZM355.222 255.4H358.222V258.4H355.222V255.4ZM351.622 244.6H354.622V247.6H351.622V244.6ZM351.622 259H354.622V262H351.622V259ZM348.022 248.2H351.022V251.2H348.022V248.2ZM348.022 259H351.022V262H348.022V259ZM344.422 251.8H347.422V254.8H344.422V251.8ZM344.422 259H347.422V262H344.422V259ZM340.822 244.6H343.822V247.6H340.822V244.6ZM340.822 248.2H343.822V251.2H340.822V248.2ZM340.822 251.8H343.822V254.8H340.822V251.8ZM340.822 255.4H343.822V258.4H340.822V255.4ZM366.014 255.4H369.014V258.4H366.014V255.4ZM366.014 259H369.014V262H366.014V259ZM362.414 255.4H365.414V258.4H362.414V255.4ZM362.414 259H365.414V262H362.414V259ZM387.625 241H390.625V244H387.625V241ZM384.025 237.4H387.025V240.4H384.025V237.4ZM380.425 237.4H383.425V240.4H380.425V237.4ZM376.825 237.4H379.825V240.4H376.825V237.4ZM373.225 241H376.225V244H373.225V241ZM387.625 244.6H390.625V247.6H387.625V244.6ZM387.625 248.2H390.625V251.2H387.625V248.2ZM387.625 251.8H390.625V254.8H387.625V251.8ZM387.625 255.4H390.625V258.4H387.625V255.4ZM384.025 244.6H387.025V247.6H384.025V244.6ZM384.025 259H387.025V262H384.025V259ZM380.425 248.2H383.425V251.2H380.425V248.2ZM380.425 259H383.425V262H380.425V259ZM376.825 251.8H379.825V254.8H376.825V251.8ZM376.825 259H379.825V262H376.825V259ZM373.225 244.6H376.225V247.6H373.225V244.6ZM373.225 248.2H376.225V251.2H373.225V248.2ZM373.225 251.8H376.225V254.8H373.225V251.8ZM373.225 255.4H376.225V258.4H373.225V255.4ZM409.216 241H412.216V244H409.216V241ZM405.616 237.4H408.616V240.4H405.616V237.4ZM402.016 237.4H405.016V240.4H402.016V237.4ZM398.416 237.4H401.416V240.4H398.416V237.4ZM394.816 241H397.816V244H394.816V241ZM409.216 244.6H412.216V247.6H409.216V244.6ZM409.216 248.2H412.216V251.2H409.216V248.2ZM409.216 251.8H412.216V254.8H409.216V251.8ZM409.216 255.4H412.216V258.4H409.216V255.4ZM405.616 244.6H408.616V247.6H405.616V244.6ZM405.616 259H408.616V262H405.616V259ZM402.016 248.2H405.016V251.2H402.016V248.2ZM402.016 259H405.016V262H402.016V259ZM398.416 251.8H401.416V254.8H398.416V251.8ZM398.416 259H401.416V262H398.416V259ZM394.816 244.6H397.816V247.6H394.816V244.6ZM394.816 248.2H397.816V251.2H394.816V248.2ZM394.816 251.8H397.816V254.8H394.816V251.8ZM394.816 255.4H397.816V258.4H394.816V255.4ZM430.808 241H433.808V244H430.808V241ZM427.208 237.4H430.208V240.4H427.208V237.4ZM423.608 237.4H426.608V240.4H423.608V237.4ZM420.008 237.4H423.008V240.4H420.008V237.4ZM416.408 241H419.408V244H416.408V241ZM430.808 244.6H433.808V247.6H430.808V244.6ZM430.808 248.2H433.808V251.2H430.808V248.2ZM430.808 251.8H433.808V254.8H430.808V251.8ZM430.808 255.4H433.808V258.4H430.808V255.4ZM427.208 244.6H430.208V247.6H427.208V244.6ZM427.208 259H430.208V262H427.208V259ZM423.608 248.2H426.608V251.2H423.608V248.2ZM423.608 259H426.608V262H423.608V259ZM420.008 251.8H423.008V254.8H420.008V251.8ZM420.008 259H423.008V262H420.008V259ZM416.408 244.6H419.408V247.6H416.408V244.6ZM416.408 248.2H419.408V251.2H416.408V248.2ZM416.408 251.8H419.408V254.8H416.408V251.8ZM416.408 255.4H419.408V258.4H416.408V255.4Z" fill="#5B65C2"/>
<path d="M49.9041 262.6H52.9041V265.6H49.9041V262.6ZM49.9041 233.8H52.9041V236.8H49.9041V233.8ZM49.9041 251.8H52.9041V254.8H49.9041V251.8ZM49.9041 255.4H52.9041V258.4H49.9041V255.4ZM49.9041 241H52.9041V244H49.9041V241ZM49.9041 244.6H52.9041V247.6H49.9041V244.6ZM57.1041 241H60.1041V244H57.1041V241ZM53.5041 237.4H56.5041V240.4H53.5041V237.4ZM49.9041 237.4H52.9041V240.4H49.9041V237.4ZM46.3041 237.4H49.3041V240.4H46.3041V237.4ZM42.7041 241H45.7041V244H42.7041V241ZM57.1041 251.8H60.1041V254.8H57.1041V251.8ZM57.1041 255.4H60.1041V258.4H57.1041V255.4ZM53.5041 248.2H56.5041V251.2H53.5041V248.2ZM53.5041 259H56.5041V262H53.5041V259ZM49.9041 248.2H52.9041V251.2H49.9041V248.2ZM49.9041 259H52.9041V262H49.9041V259ZM46.3041 248.2H49.3041V251.2H46.3041V248.2ZM46.3041 259H49.3041V262H46.3041V259ZM42.7041 244.6H45.7041V247.6H42.7041V244.6ZM42.7041 255.4H45.7041V258.4H42.7041V255.4ZM57.1041 241H60.1041V244H57.1041V241ZM53.5041 237.4H56.5041V240.4H53.5041V237.4ZM49.9041 237.4H52.9041V240.4H49.9041V237.4ZM46.3041 237.4H49.3041V240.4H46.3041V237.4ZM42.7041 241H45.7041V244H42.7041V241ZM57.1041 251.8H60.1041V254.8H57.1041V251.8ZM57.1041 255.4H60.1041V258.4H57.1041V255.4ZM53.5041 248.2H56.5041V251.2H53.5041V248.2ZM53.5041 259H56.5041V262H53.5041V259ZM49.9041 248.2H52.9041V251.2H49.9041V248.2ZM49.9041 259H52.9041V262H49.9041V259ZM46.3041 248.2H49.3041V251.2H46.3041V248.2ZM46.3041 259H49.3041V262H46.3041V259ZM42.7041 244.6H45.7041V247.6H42.7041V244.6ZM42.7041 255.4H45.7041V258.4H42.7041V255.4Z" fill="#5B65C2"/>
<path d="M38.1668 175.4H41.1668V178.4H38.1668V175.4ZM34.5668 175.4H37.5668V178.4H34.5668V175.4ZM34.5668 179H37.5668V182H34.5668V179ZM30.9668 175.4H33.9668V178.4H30.9668V175.4ZM38.1668 197H41.1668V200H38.1668V197ZM34.5668 182.6H37.5668V185.6H34.5668V182.6ZM34.5668 186.2H37.5668V189.2H34.5668V186.2ZM34.5668 189.8H37.5668V192.8H34.5668V189.8ZM34.5668 193.4H37.5668V196.4H34.5668V193.4ZM34.5668 197H37.5668V200H34.5668V197ZM30.9668 197H33.9668V200H30.9668V197ZM59.7809 175.4H62.7809V178.4H59.7809V175.4ZM59.7809 179H62.7809V182H59.7809V179ZM45.3809 175.4H48.3809V178.4H45.3809V175.4ZM45.3809 179H48.3809V182H45.3809V179ZM59.7809 182.6H62.7809V185.6H59.7809V182.6ZM59.7809 186.2H62.7809V189.2H59.7809V186.2ZM59.7809 189.8H62.7809V192.8H59.7809V189.8ZM59.7809 193.4H62.7809V196.4H59.7809V193.4ZM59.7809 197H62.7809V200H59.7809V197ZM56.1809 189.8H59.1809V192.8H56.1809V189.8ZM52.5809 186.2H55.5809V189.2H52.5809V186.2ZM48.9809 182.6H51.9809V185.6H48.9809V182.6ZM45.3809 182.6H48.3809V185.6H45.3809V182.6ZM45.3809 186.2H48.3809V189.2H45.3809V186.2ZM45.3809 189.8H48.3809V192.8H45.3809V189.8ZM45.3809 193.4H48.3809V196.4H45.3809V193.4ZM45.3809 197H48.3809V200H45.3809V197ZM81.3727 179H84.3727V182H81.3727V179ZM77.7727 175.4H80.7727V178.4H77.7727V175.4ZM74.1727 175.4H77.1727V178.4H74.1727V175.4ZM70.5727 175.4H73.5727V178.4H70.5727V175.4ZM66.9727 179H69.9727V182H66.9727V179ZM81.3727 189.8H84.3727V192.8H81.3727V189.8ZM81.3727 193.4H84.3727V196.4H81.3727V193.4ZM77.7727 189.8H80.7727V192.8H77.7727V189.8ZM77.7727 197H80.7727V200H77.7727V197ZM74.1727 197H77.1727V200H74.1727V197ZM70.5727 197H73.5727V200H70.5727V197ZM66.9727 182.6H69.9727V185.6H66.9727V182.6ZM66.9727 186.2H69.9727V189.2H66.9727V186.2ZM66.9727 189.8H69.9727V192.8H66.9727V189.8ZM66.9727 193.4H69.9727V196.4H66.9727V193.4ZM102.964 179H105.964V182H102.964V179ZM99.3645 175.4H102.364V178.4H99.3645V175.4ZM95.7645 175.4H98.7645V178.4H95.7645V175.4ZM92.1645 175.4H95.1645V178.4H92.1645V175.4ZM88.5645 175.4H91.5645V178.4H88.5645V175.4ZM88.5645 179H91.5645V182H88.5645V179ZM102.964 182.6H105.964V185.6H102.964V182.6ZM102.964 197H105.964V200H102.964V197ZM99.3645 186.2H102.364V189.2H99.3645V186.2ZM99.3645 193.4H102.364V196.4H99.3645V193.4ZM95.7645 186.2H98.7645V189.2H95.7645V186.2ZM95.7645 189.8H98.7645V192.8H95.7645V189.8ZM92.1645 186.2H95.1645V189.2H92.1645V186.2ZM88.5645 182.6H91.5645V185.6H88.5645V182.6ZM88.5645 186.2H91.5645V189.2H88.5645V186.2ZM88.5645 189.8H91.5645V192.8H88.5645V189.8ZM88.5645 193.4H91.5645V196.4H88.5645V193.4ZM88.5645 197H91.5645V200H88.5645V197ZM124.556 175.4H127.556V178.4H124.556V175.4ZM120.956 175.4H123.956V178.4H120.956V175.4ZM117.356 175.4H120.356V178.4H117.356V175.4ZM113.756 175.4H116.756V178.4H113.756V175.4ZM110.156 175.4H113.156V178.4H110.156V175.4ZM110.156 179H113.156V182H110.156V179ZM124.556 197H127.556V200H124.556V197ZM120.956 186.2H123.956V189.2H120.956V186.2ZM120.956 197H123.956V200H120.956V197ZM117.356 186.2H120.356V189.2H117.356V186.2ZM117.356 197H120.356V200H117.356V197ZM113.756 186.2H116.756V189.2H113.756V186.2ZM113.756 197H116.756V200H113.756V197ZM110.156 182.6H113.156V185.6H110.156V182.6ZM110.156 186.2H113.156V189.2H110.156V186.2ZM110.156 189.8H113.156V192.8H110.156V189.8ZM110.156 193.4H113.156V196.4H110.156V193.4ZM110.156 197H113.156V200H110.156V197ZM146.148 179H149.148V182H146.148V179ZM142.548 175.4H145.548V178.4H142.548V175.4ZM138.948 175.4H141.948V178.4H138.948V175.4ZM135.348 175.4H138.348V178.4H135.348V175.4ZM131.748 179H134.748V182H131.748V179ZM146.148 189.8H149.148V192.8H146.148V189.8ZM146.148 193.4H149.148V196.4H146.148V193.4ZM142.548 186.2H145.548V189.2H142.548V186.2ZM142.548 197H145.548V200H142.548V197ZM138.948 186.2H141.948V189.2H138.948V186.2ZM138.948 197H141.948V200H138.948V197ZM135.348 186.2H138.348V189.2H135.348V186.2ZM135.348 197H138.348V200H135.348V197ZM131.748 182.6H134.748V185.6H131.748V182.6ZM131.748 193.4H134.748V196.4H131.748V193.4ZM167.74 175.4H170.74V178.4H167.74V175.4ZM164.14 175.4H167.14V178.4H164.14V175.4ZM160.54 175.4H163.54V178.4H160.54V175.4ZM156.94 175.4H159.94V178.4H156.94V175.4ZM153.34 175.4H156.34V178.4H153.34V175.4ZM153.34 179H156.34V182H153.34V179ZM167.74 197H170.74V200H167.74V197ZM164.14 186.2H167.14V189.2H164.14V186.2ZM164.14 197H167.14V200H164.14V197ZM160.54 186.2H163.54V189.2H160.54V186.2ZM160.54 197H163.54V200H160.54V197ZM156.94 186.2H159.94V189.2H156.94V186.2ZM156.94 197H159.94V200H156.94V197ZM153.34 182.6H156.34V185.6H153.34V182.6ZM153.34 186.2H156.34V189.2H153.34V186.2ZM153.34 189.8H156.34V192.8H153.34V189.8ZM153.34 193.4H156.34V196.4H153.34V193.4ZM153.34 197H156.34V200H153.34V197ZM210.923 175.4H213.923V178.4H210.923V175.4ZM210.923 179H213.923V182H210.923V179ZM207.323 179H210.323V182H207.323V179ZM200.123 179H203.123V182H200.123V179ZM196.523 175.4H199.523V178.4H196.523V175.4ZM196.523 179H199.523V182H196.523V179ZM210.923 182.6H213.923V185.6H210.923V182.6ZM210.923 186.2H213.923V189.2H210.923V186.2ZM210.923 189.8H213.923V192.8H210.923V189.8ZM210.923 193.4H213.923V196.4H210.923V193.4ZM210.923 197H213.923V200H210.923V197ZM203.723 182.6H206.723V185.6H203.723V182.6ZM203.723 186.2H206.723V189.2H203.723V186.2ZM196.523 182.6H199.523V185.6H196.523V182.6ZM196.523 186.2H199.523V189.2H196.523V186.2ZM196.523 189.8H199.523V192.8H196.523V189.8ZM196.523 193.4H199.523V196.4H196.523V193.4ZM196.523 197H199.523V200H196.523V197ZM232.515 179H235.515V182H232.515V179ZM228.915 175.4H231.915V178.4H228.915V175.4ZM225.315 175.4H228.315V178.4H225.315V175.4ZM221.715 175.4H224.715V178.4H221.715V175.4ZM218.115 179H221.115V182H218.115V179ZM232.515 182.6H235.515V185.6H232.515V182.6ZM232.515 186.2H235.515V189.2H232.515V186.2ZM232.515 189.8H235.515V192.8H232.515V189.8ZM232.515 193.4H235.515V196.4H232.515V193.4ZM228.915 197H231.915V200H228.915V197ZM225.315 197H228.315V200H225.315V197ZM221.715 197H224.715V200H221.715V197ZM218.115 182.6H221.115V185.6H218.115V182.6ZM218.115 186.2H221.115V189.2H218.115V186.2ZM218.115 189.8H221.115V192.8H218.115V189.8ZM218.115 193.4H221.115V196.4H218.115V193.4ZM254.107 175.4H257.107V178.4H254.107V175.4ZM254.107 179H257.107V182H254.107V179ZM239.707 175.4H242.707V178.4H239.707V175.4ZM239.707 179H242.707V182H239.707V179ZM254.107 182.6H257.107V185.6H254.107V182.6ZM254.107 186.2H257.107V189.2H254.107V186.2ZM254.107 189.8H257.107V192.8H254.107V189.8ZM254.107 193.4H257.107V196.4H254.107V193.4ZM254.107 197H257.107V200H254.107V197ZM250.507 189.8H253.507V192.8H250.507V189.8ZM246.907 186.2H249.907V189.2H246.907V186.2ZM243.307 182.6H246.307V185.6H243.307V182.6ZM239.707 182.6H242.707V185.6H239.707V182.6ZM239.707 186.2H242.707V189.2H239.707V186.2ZM239.707 189.8H242.707V192.8H239.707V189.8ZM239.707 193.4H242.707V196.4H239.707V193.4ZM239.707 197H242.707V200H239.707V197ZM275.699 175.4H278.699V178.4H275.699V175.4ZM272.099 175.4H275.099V178.4H272.099V175.4ZM268.499 175.4H271.499V178.4H268.499V175.4ZM268.499 179H271.499V182H268.499V179ZM264.899 175.4H267.899V178.4H264.899V175.4ZM261.299 175.4H264.299V178.4H261.299V175.4ZM268.499 182.6H271.499V185.6H268.499V182.6ZM268.499 186.2H271.499V189.2H268.499V186.2ZM268.499 189.8H271.499V192.8H268.499V189.8ZM268.499 193.4H271.499V196.4H268.499V193.4ZM268.499 197H271.499V200H268.499V197ZM297.291 179H300.291V182H297.291V179ZM293.691 175.4H296.691V178.4H293.691V175.4ZM290.091 175.4H293.091V178.4H290.091V175.4ZM286.491 175.4H289.491V178.4H286.491V175.4ZM282.891 179H285.891V182H282.891V179ZM297.291 182.6H300.291V185.6H297.291V182.6ZM297.291 186.2H300.291V189.2H297.291V186.2ZM297.291 189.8H300.291V192.8H297.291V189.8ZM297.291 193.4H300.291V196.4H297.291V193.4ZM293.691 197H296.691V200H293.691V197ZM290.091 197H293.091V200H290.091V197ZM286.491 197H289.491V200H286.491V197ZM282.891 182.6H285.891V185.6H282.891V182.6ZM282.891 186.2H285.891V189.2H282.891V186.2ZM282.891 189.8H285.891V192.8H282.891V189.8ZM282.891 193.4H285.891V196.4H282.891V193.4ZM340.474 175.4H343.474V178.4H340.474V175.4ZM336.874 175.4H339.874V178.4H336.874V175.4ZM333.274 175.4H336.274V178.4H333.274V175.4ZM333.274 179H336.274V182H333.274V179ZM329.674 175.4H332.674V178.4H329.674V175.4ZM326.074 175.4H329.074V178.4H326.074V175.4ZM333.274 182.6H336.274V185.6H333.274V182.6ZM333.274 186.2H336.274V189.2H333.274V186.2ZM333.274 189.8H336.274V192.8H333.274V189.8ZM333.274 193.4H336.274V196.4H333.274V193.4ZM333.274 197H336.274V200H333.274V197ZM362.066 179H365.066V182H362.066V179ZM358.466 175.4H361.466V178.4H358.466V175.4ZM354.866 175.4H357.866V178.4H354.866V175.4ZM351.266 175.4H354.266V178.4H351.266V175.4ZM347.666 179H350.666V182H347.666V179ZM362.066 182.6H365.066V185.6H362.066V182.6ZM362.066 186.2H365.066V189.2H362.066V186.2ZM362.066 189.8H365.066V192.8H362.066V189.8ZM362.066 193.4H365.066V196.4H362.066V193.4ZM358.466 197H361.466V200H358.466V197ZM354.866 197H357.866V200H354.866V197ZM351.266 197H354.266V200H351.266V197ZM347.666 182.6H350.666V185.6H347.666V182.6ZM347.666 186.2H350.666V189.2H347.666V186.2ZM347.666 189.8H350.666V192.8H347.666V189.8ZM347.666 193.4H350.666V196.4H347.666V193.4ZM383.658 175.4H386.658V178.4H383.658V175.4ZM380.058 175.4H383.058V178.4H380.058V175.4ZM376.458 175.4H379.458V178.4H376.458V175.4ZM376.458 179H379.458V182H376.458V179ZM372.858 175.4H375.858V178.4H372.858V175.4ZM369.258 175.4H372.258V178.4H369.258V175.4ZM376.458 182.6H379.458V185.6H376.458V182.6ZM376.458 186.2H379.458V189.2H376.458V186.2ZM376.458 189.8H379.458V192.8H376.458V189.8ZM376.458 193.4H379.458V196.4H376.458V193.4ZM376.458 197H379.458V200H376.458V197ZM405.25 179H408.25V182H405.25V179ZM401.65 175.4H404.65V178.4H401.65V175.4ZM398.05 175.4H401.05V178.4H398.05V175.4ZM394.45 175.4H397.45V178.4H394.45V175.4ZM390.85 179H393.85V182H390.85V179ZM405.25 182.6H408.25V185.6H405.25V182.6ZM405.25 186.2H408.25V189.2H405.25V186.2ZM405.25 189.8H408.25V192.8H405.25V189.8ZM405.25 193.4H408.25V196.4H405.25V193.4ZM405.25 197H408.25V200H405.25V197ZM401.65 186.2H404.65V189.2H401.65V186.2ZM398.05 186.2H401.05V189.2H398.05V186.2ZM394.45 186.2H397.45V189.2H394.45V186.2ZM390.85 182.6H393.85V185.6H390.85V182.6ZM390.85 186.2H393.85V189.2H390.85V186.2ZM390.85 189.8H393.85V192.8H390.85V189.8ZM390.85 193.4H393.85V196.4H390.85V193.4ZM390.85 197H393.85V200H390.85V197ZM412.441 175.4H415.441V178.4H412.441V175.4ZM412.441 179H415.441V182H412.441V179ZM426.841 197H429.841V200H426.841V197ZM423.241 197H426.241V200H423.241V197ZM419.641 197H422.641V200H419.641V197ZM416.041 197H419.041V200H416.041V197ZM412.441 182.6H415.441V185.6H412.441V182.6ZM412.441 186.2H415.441V189.2H412.441V186.2ZM412.441 189.8H415.441V192.8H412.441V189.8ZM412.441 193.4H415.441V196.4H412.441V193.4ZM412.441 197H415.441V200H412.441V197Z" fill="#5B65C2"/>
<path d="M100.524 11.4H103.524V14.4H100.524V11.4ZM100.524 15H103.524V18H100.524V15ZM86.124 11.4H89.124V14.4H86.124V11.4ZM86.124 15H89.124V18H86.124V15ZM100.524 18.6H103.524V21.6H100.524V18.6ZM100.524 22.2H103.524V25.2H100.524V22.2ZM100.524 25.8H103.524V28.8H100.524V25.8ZM96.924 29.4H99.924V32.4H96.924V29.4ZM93.324 33H96.324V36H93.324V33ZM89.724 29.4H92.724V32.4H89.724V29.4ZM86.124 18.6H89.124V21.6H86.124V18.6ZM86.124 22.2H89.124V25.2H86.124V22.2ZM86.124 25.8H89.124V28.8H86.124V25.8ZM122.116 11.4H125.116V14.4H122.116V11.4ZM118.516 11.4H121.516V14.4H118.516V11.4ZM114.916 11.4H117.916V14.4H114.916V11.4ZM111.316 11.4H114.316V14.4H111.316V11.4ZM107.716 11.4H110.716V14.4H107.716V11.4ZM107.716 15H110.716V18H107.716V15ZM122.116 33H125.116V36H122.116V33ZM118.516 22.2H121.516V25.2H118.516V22.2ZM118.516 33H121.516V36H118.516V33ZM114.916 22.2H117.916V25.2H114.916V22.2ZM114.916 33H117.916V36H114.916V33ZM111.316 22.2H114.316V25.2H111.316V22.2ZM111.316 33H114.316V36H111.316V33ZM107.716 18.6H110.716V21.6H107.716V18.6ZM107.716 22.2H110.716V25.2H107.716V22.2ZM107.716 25.8H110.716V28.8H107.716V25.8ZM107.716 29.4H110.716V32.4H107.716V29.4ZM107.716 33H110.716V36H107.716V33ZM143.708 11.4H146.708V14.4H143.708V11.4ZM143.708 15H146.708V18H143.708V15ZM129.308 11.4H132.308V14.4H129.308V11.4ZM129.308 15H132.308V18H129.308V15ZM143.708 18.6H146.708V21.6H143.708V18.6ZM143.708 22.2H146.708V25.2H143.708V22.2ZM143.708 25.8H146.708V28.8H143.708V25.8ZM143.708 29.4H146.708V32.4H143.708V29.4ZM143.708 33H146.708V36H143.708V33ZM140.108 25.8H143.108V28.8H140.108V25.8ZM136.508 22.2H139.508V25.2H136.508V22.2ZM132.908 18.6H135.908V21.6H132.908V18.6ZM129.308 18.6H132.308V21.6H129.308V18.6ZM129.308 22.2H132.308V25.2H129.308V22.2ZM129.308 25.8H132.308V28.8H129.308V25.8ZM129.308 29.4H132.308V32.4H129.308V29.4ZM129.308 33H132.308V36H129.308V33ZM165.299 11.4H168.299V14.4H165.299V11.4ZM161.699 11.4H164.699V14.4H161.699V11.4ZM158.099 11.4H161.099V14.4H158.099V11.4ZM158.099 15H161.099V18H158.099V15ZM154.499 11.4H157.499V14.4H154.499V11.4ZM150.899 11.4H153.899V14.4H150.899V11.4ZM158.099 18.6H161.099V21.6H158.099V18.6ZM158.099 22.2H161.099V25.2H158.099V22.2ZM158.099 25.8H161.099V28.8H158.099V25.8ZM158.099 29.4H161.099V32.4H158.099V29.4ZM158.099 33H161.099V36H158.099V33ZM186.891 15H189.891V18H186.891V15ZM183.291 11.4H186.291V14.4H183.291V11.4ZM179.691 11.4H182.691V14.4H179.691V11.4ZM176.091 11.4H179.091V14.4H176.091V11.4ZM172.491 15H175.491V18H172.491V15ZM186.891 18.6H189.891V21.6H186.891V18.6ZM186.891 22.2H189.891V25.2H186.891V22.2ZM186.891 25.8H189.891V28.8H186.891V25.8ZM186.891 29.4H189.891V32.4H186.891V29.4ZM186.891 33H189.891V36H186.891V33ZM183.291 22.2H186.291V25.2H183.291V22.2ZM179.691 22.2H182.691V25.2H179.691V22.2ZM176.091 22.2H179.091V25.2H176.091V22.2ZM172.491 18.6H175.491V21.6H172.491V18.6ZM172.491 22.2H175.491V25.2H172.491V22.2ZM172.491 25.8H175.491V28.8H172.491V25.8ZM172.491 29.4H175.491V32.4H172.491V29.4ZM172.491 33H175.491V36H172.491V33ZM230.075 15H233.075V18H230.075V15ZM226.475 11.4H229.475V14.4H226.475V11.4ZM222.875 11.4H225.875V14.4H222.875V11.4ZM219.275 11.4H222.275V14.4H219.275V11.4ZM215.675 11.4H218.675V14.4H215.675V11.4ZM215.675 15H218.675V18H215.675V15ZM230.075 18.6H233.075V21.6H230.075V18.6ZM230.075 22.2H233.075V25.2H230.075V22.2ZM230.075 25.8H233.075V28.8H230.075V25.8ZM230.075 29.4H233.075V32.4H230.075V29.4ZM226.475 33H229.475V36H226.475V33ZM222.875 33H225.875V36H222.875V33ZM219.275 33H222.275V36H219.275V33ZM215.675 18.6H218.675V21.6H215.675V18.6ZM215.675 22.2H218.675V25.2H215.675V22.2ZM215.675 25.8H218.675V28.8H215.675V25.8ZM215.675 29.4H218.675V32.4H215.675V29.4ZM215.675 33H218.675V36H215.675V33ZM244.467 11.4H247.467V14.4H244.467V11.4ZM240.867 11.4H243.867V14.4H240.867V11.4ZM240.867 15H243.867V18H240.867V15ZM237.267 11.4H240.267V14.4H237.267V11.4ZM244.467 33H247.467V36H244.467V33ZM240.867 18.6H243.867V21.6H240.867V18.6ZM240.867 22.2H243.867V25.2H240.867V22.2ZM240.867 25.8H243.867V28.8H240.867V25.8ZM240.867 29.4H243.867V32.4H240.867V29.4ZM240.867 33H243.867V36H240.867V33ZM237.267 33H240.267V36H237.267V33ZM266.081 11.4H269.081V14.4H266.081V11.4ZM266.081 15H269.081V18H266.081V15ZM251.681 11.4H254.681V14.4H251.681V11.4ZM251.681 15H254.681V18H251.681V15ZM266.081 18.6H269.081V21.6H266.081V18.6ZM266.081 22.2H269.081V25.2H266.081V22.2ZM266.081 25.8H269.081V28.8H266.081V25.8ZM262.481 29.4H265.481V32.4H262.481V29.4ZM258.881 33H261.881V36H258.881V33ZM255.281 29.4H258.281V32.4H255.281V29.4ZM251.681 18.6H254.681V21.6H251.681V18.6ZM251.681 22.2H254.681V25.2H251.681V22.2ZM251.681 25.8H254.681V28.8H251.681V25.8ZM280.472 11.4H283.472V14.4H280.472V11.4ZM276.872 11.4H279.872V14.4H276.872V11.4ZM276.872 15H279.872V18H276.872V15ZM273.272 11.4H276.272V14.4H273.272V11.4ZM280.472 33H283.472V36H280.472V33ZM276.872 18.6H279.872V21.6H276.872V18.6ZM276.872 22.2H279.872V25.2H276.872V22.2ZM276.872 25.8H279.872V28.8H276.872V25.8ZM276.872 29.4H279.872V32.4H276.872V29.4ZM276.872 33H279.872V36H276.872V33ZM273.272 33H276.272V36H273.272V33ZM302.087 15H305.087V18H302.087V15ZM298.487 11.4H301.487V14.4H298.487V11.4ZM294.887 11.4H297.887V14.4H294.887V11.4ZM291.287 11.4H294.287V14.4H291.287V11.4ZM287.687 11.4H290.687V14.4H287.687V11.4ZM287.687 15H290.687V18H287.687V15ZM302.087 18.6H305.087V21.6H302.087V18.6ZM302.087 22.2H305.087V25.2H302.087V22.2ZM302.087 25.8H305.087V28.8H302.087V25.8ZM302.087 29.4H305.087V32.4H302.087V29.4ZM298.487 33H301.487V36H298.487V33ZM294.887 33H297.887V36H294.887V33ZM291.287 33H294.287V36H291.287V33ZM287.687 18.6H290.687V21.6H287.687V18.6ZM287.687 22.2H290.687V25.2H287.687V22.2ZM287.687 25.8H290.687V28.8H287.687V25.8ZM287.687 29.4H290.687V32.4H287.687V29.4ZM287.687 33H290.687V36H287.687V33ZM316.478 11.4H319.478V14.4H316.478V11.4ZM312.878 11.4H315.878V14.4H312.878V11.4ZM312.878 15H315.878V18H312.878V15ZM309.278 11.4H312.278V14.4H309.278V11.4ZM316.478 33H319.478V36H316.478V33ZM312.878 18.6H315.878V21.6H312.878V18.6ZM312.878 22.2H315.878V25.2H312.878V22.2ZM312.878 25.8H315.878V28.8H312.878V25.8ZM312.878 29.4H315.878V32.4H312.878V29.4ZM312.878 33H315.878V36H312.878V33ZM309.278 33H312.278V36H309.278V33ZM338.092 15H341.092V18H338.092V15ZM334.492 11.4H337.492V14.4H334.492V11.4ZM330.892 11.4H333.892V14.4H330.892V11.4ZM327.292 11.4H330.292V14.4H327.292V11.4ZM323.692 11.4H326.692V14.4H323.692V11.4ZM323.692 15H326.692V18H323.692V15ZM338.092 18.6H341.092V21.6H338.092V18.6ZM338.092 22.2H341.092V25.2H338.092V22.2ZM338.092 25.8H341.092V28.8H338.092V25.8ZM338.092 29.4H341.092V32.4H338.092V29.4ZM334.492 33H337.492V36H334.492V33ZM330.892 33H333.892V36H330.892V33ZM327.292 33H330.292V36H327.292V33ZM323.692 18.6H326.692V21.6H323.692V18.6ZM323.692 22.2H326.692V25.2H323.692V22.2ZM323.692 25.8H326.692V28.8H323.692V25.8ZM323.692 29.4H326.692V32.4H323.692V29.4ZM323.692 33H326.692V36H323.692V33ZM359.684 15H362.684V18H359.684V15ZM356.084 11.4H359.084V14.4H356.084V11.4ZM352.484 11.4H355.484V14.4H352.484V11.4ZM348.884 11.4H351.884V14.4H348.884V11.4ZM345.284 15H348.284V18H345.284V15ZM359.684 18.6H362.684V21.6H359.684V18.6ZM359.684 22.2H362.684V25.2H359.684V22.2ZM359.684 25.8H362.684V28.8H359.684V25.8ZM359.684 29.4H362.684V32.4H359.684V29.4ZM359.684 33H362.684V36H359.684V33ZM356.084 22.2H359.084V25.2H356.084V22.2ZM352.484 22.2H355.484V25.2H352.484V22.2ZM348.884 22.2H351.884V25.2H348.884V22.2ZM345.284 18.6H348.284V21.6H345.284V18.6ZM345.284 22.2H348.284V25.2H345.284V22.2ZM345.284 25.8H348.284V28.8H345.284V25.8ZM345.284 29.4H348.284V32.4H345.284V29.4ZM345.284 33H348.284V36H345.284V33Z" fill="white"/>
<rect x="108.5" y="224.5" width="342" height="54" stroke="#5B65C2" stroke-width="3"/>
<rect x="1.5" y="1.5" width="449" height="277" stroke="#5B65C2" stroke-width="3"/>
</g>
<defs>
<clipPath id="clip0">
<rect width="452" height="280" fill="white"/>
</clipPath>
</defs>
</svg>
