<svg width="452" height="280" viewBox="0 0 452 280" fill="none" xmlns="http://www.w3.org/2000/svg">
<g clip-path="url(#clip0)">
<rect width="452" height="280" fill="white"/>
<rect width="452" height="47" fill="#5B65C2"/>
<rect y="233" width="452" height="47" fill="#5B65C2"/>
<path d="M55.0445 15H58.0445V18H55.0445V15ZM51.4445 11.4H54.4445V14.4H51.4445V11.4ZM47.8445 11.4H50.8445V14.4H47.8445V11.4ZM44.2445 11.4H47.2445V14.4H44.2445V11.4ZM40.6445 15H43.6445V18H40.6445V15ZM55.0445 29.4H58.0445V32.4H55.0445V29.4ZM51.4445 33H54.4445V36H51.4445V33ZM47.8445 33H50.8445V36H47.8445V33ZM44.2445 33H47.2445V36H44.2445V33ZM40.6445 18.6H43.6445V21.6H40.6445V18.6ZM40.6445 22.2H43.6445V25.2H40.6445V22.2ZM40.6445 25.8H43.6445V28.8H40.6445V25.8ZM40.6445 29.4H43.6445V32.4H40.6445V29.4ZM76.6363 11.4H79.6363V14.4H76.6363V11.4ZM76.6363 15H79.6363V18H76.6363V15ZM62.2363 11.4H65.2363V14.4H62.2363V11.4ZM62.2363 15H65.2363V18H62.2363V15ZM76.6363 18.6H79.6363V21.6H76.6363V18.6ZM76.6363 22.2H79.6363V25.2H76.6363V22.2ZM76.6363 25.8H79.6363V28.8H76.6363V25.8ZM76.6363 29.4H79.6363V32.4H76.6363V29.4ZM73.0363 33H76.0363V36H73.0363V33ZM69.4363 33H72.4363V36H69.4363V33ZM65.8363 33H68.8363V36H65.8363V33ZM62.2363 18.6H65.2363V21.6H62.2363V18.6ZM62.2363 22.2H65.2363V25.2H62.2363V22.2ZM62.2363 25.8H65.2363V28.8H62.2363V25.8ZM62.2363 29.4H65.2363V32.4H62.2363V29.4ZM98.2281 11.4H101.228V14.4H98.2281V11.4ZM94.6281 11.4H97.6281V14.4H94.6281V11.4ZM91.0281 11.4H94.0281V14.4H91.0281V11.4ZM87.4281 11.4H90.4281V14.4H87.4281V11.4ZM83.8281 11.4H86.8281V14.4H83.8281V11.4ZM83.8281 15H86.8281V18H83.8281V15ZM98.2281 33H101.228V36H98.2281V33ZM94.6281 22.2H97.6281V25.2H94.6281V22.2ZM94.6281 33H97.6281V36H94.6281V33ZM91.0281 22.2H94.0281V25.2H91.0281V22.2ZM91.0281 33H94.0281V36H91.0281V33ZM87.4281 22.2H90.4281V25.2H87.4281V22.2ZM87.4281 33H90.4281V36H87.4281V33ZM83.8281 18.6H86.8281V21.6H83.8281V18.6ZM83.8281 22.2H86.8281V25.2H83.8281V22.2ZM83.8281 25.8H86.8281V28.8H83.8281V25.8ZM83.8281 29.4H86.8281V32.4H83.8281V29.4ZM83.8281 33H86.8281V36H83.8281V33ZM119.82 11.4H122.82V14.4H119.82V11.4ZM119.82 15H122.82V18H119.82V15ZM105.42 11.4H108.42V14.4H105.42V11.4ZM105.42 15H108.42V18H105.42V15ZM119.82 18.6H122.82V21.6H119.82V18.6ZM119.82 22.2H122.82V25.2H119.82V22.2ZM119.82 25.8H122.82V28.8H119.82V25.8ZM119.82 29.4H122.82V32.4H119.82V29.4ZM119.82 33H122.82V36H119.82V33ZM116.22 25.8H119.22V28.8H116.22V25.8ZM112.62 22.2H115.62V25.2H112.62V22.2ZM109.02 18.6H112.02V21.6H109.02V18.6ZM105.42 18.6H108.42V21.6H105.42V18.6ZM105.42 22.2H108.42V25.2H105.42V22.2ZM105.42 25.8H108.42V28.8H105.42V25.8ZM105.42 29.4H108.42V32.4H105.42V29.4ZM105.42 33H108.42V36H105.42V33ZM141.412 11.4H144.412V14.4H141.412V11.4ZM137.812 11.4H140.812V14.4H137.812V11.4ZM134.212 11.4H137.212V14.4H134.212V11.4ZM134.212 15H137.212V18H134.212V15ZM130.612 11.4H133.612V14.4H130.612V11.4ZM127.012 11.4H130.012V14.4H127.012V11.4ZM134.212 18.6H137.212V21.6H134.212V18.6ZM134.212 22.2H137.212V25.2H134.212V22.2ZM134.212 25.8H137.212V28.8H134.212V25.8ZM134.212 29.4H137.212V32.4H134.212V29.4ZM134.212 33H137.212V36H134.212V33ZM163.004 15H166.004V18H163.004V15ZM159.404 11.4H162.404V14.4H159.404V11.4ZM155.804 11.4H158.804V14.4H155.804V11.4ZM152.204 11.4H155.204V14.4H152.204V11.4ZM148.604 15H151.604V18H148.604V15ZM163.004 18.6H166.004V21.6H163.004V18.6ZM163.004 22.2H166.004V25.2H163.004V22.2ZM163.004 25.8H166.004V28.8H163.004V25.8ZM163.004 29.4H166.004V32.4H163.004V29.4ZM163.004 33H166.004V36H163.004V33ZM159.404 22.2H162.404V25.2H159.404V22.2ZM155.804 22.2H158.804V25.2H155.804V22.2ZM152.204 22.2H155.204V25.2H152.204V22.2ZM148.604 18.6H151.604V21.6H148.604V18.6ZM148.604 22.2H151.604V25.2H148.604V22.2ZM148.604 25.8H151.604V28.8H148.604V25.8ZM148.604 29.4H151.604V32.4H148.604V29.4ZM148.604 33H151.604V36H148.604V33ZM197.187 15H200.187V18H197.187V15ZM193.587 11.4H196.587V14.4H193.587V11.4ZM189.987 11.4H192.987V14.4H189.987V11.4ZM186.387 11.4H189.387V14.4H186.387V11.4ZM182.787 11.4H185.787V14.4H182.787V11.4ZM182.787 15H185.787V18H182.787V15ZM197.187 18.6H200.187V21.6H197.187V18.6ZM197.187 22.2H200.187V25.2H197.187V22.2ZM197.187 25.8H200.187V28.8H197.187V25.8ZM197.187 29.4H200.187V32.4H197.187V29.4ZM193.587 33H196.587V36H193.587V33ZM189.987 33H192.987V36H189.987V33ZM186.387 33H189.387V36H186.387V33ZM182.787 18.6H185.787V21.6H182.787V18.6ZM182.787 22.2H185.787V25.2H182.787V22.2ZM182.787 25.8H185.787V28.8H182.787V25.8ZM182.787 29.4H185.787V32.4H182.787V29.4ZM182.787 33H185.787V36H182.787V33ZM211.579 11.4H214.579V14.4H211.579V11.4ZM207.979 11.4H210.979V14.4H207.979V11.4ZM207.979 15H210.979V18H207.979V15ZM204.379 11.4H207.379V14.4H204.379V11.4ZM211.579 33H214.579V36H211.579V33ZM207.979 18.6H210.979V21.6H207.979V18.6ZM207.979 22.2H210.979V25.2H207.979V22.2ZM207.979 25.8H210.979V28.8H207.979V25.8ZM207.979 29.4H210.979V32.4H207.979V29.4ZM207.979 33H210.979V36H207.979V33ZM204.379 33H207.379V36H204.379V33ZM233.193 11.4H236.193V14.4H233.193V11.4ZM233.193 15H236.193V18H233.193V15ZM218.793 11.4H221.793V14.4H218.793V11.4ZM218.793 15H221.793V18H218.793V15ZM233.193 18.6H236.193V21.6H233.193V18.6ZM233.193 22.2H236.193V25.2H233.193V22.2ZM233.193 25.8H236.193V28.8H233.193V25.8ZM229.593 29.4H232.593V32.4H229.593V29.4ZM225.993 33H228.993V36H225.993V33ZM222.393 29.4H225.393V32.4H222.393V29.4ZM218.793 18.6H221.793V21.6H218.793V18.6ZM218.793 22.2H221.793V25.2H218.793V22.2ZM218.793 25.8H221.793V28.8H218.793V25.8ZM247.585 11.4H250.585V14.4H247.585V11.4ZM243.985 11.4H246.985V14.4H243.985V11.4ZM243.985 15H246.985V18H243.985V15ZM240.385 11.4H243.385V14.4H240.385V11.4ZM247.585 33H250.585V36H247.585V33ZM243.985 18.6H246.985V21.6H243.985V18.6ZM243.985 22.2H246.985V25.2H243.985V22.2ZM243.985 25.8H246.985V28.8H243.985V25.8ZM243.985 29.4H246.985V32.4H243.985V29.4ZM243.985 33H246.985V36H243.985V33ZM240.385 33H243.385V36H240.385V33ZM269.199 15H272.199V18H269.199V15ZM265.599 11.4H268.599V14.4H265.599V11.4ZM261.999 11.4H264.999V14.4H261.999V11.4ZM258.399 11.4H261.399V14.4H258.399V11.4ZM254.799 11.4H257.799V14.4H254.799V11.4ZM254.799 15H257.799V18H254.799V15ZM269.199 18.6H272.199V21.6H269.199V18.6ZM269.199 22.2H272.199V25.2H269.199V22.2ZM269.199 25.8H272.199V28.8H269.199V25.8ZM269.199 29.4H272.199V32.4H269.199V29.4ZM265.599 33H268.599V36H265.599V33ZM261.999 33H264.999V36H261.999V33ZM258.399 33H261.399V36H258.399V33ZM254.799 18.6H257.799V21.6H254.799V18.6ZM254.799 22.2H257.799V25.2H254.799V22.2ZM254.799 25.8H257.799V28.8H254.799V25.8ZM254.799 29.4H257.799V32.4H254.799V29.4ZM254.799 33H257.799V36H254.799V33ZM283.591 11.4H286.591V14.4H283.591V11.4ZM279.991 11.4H282.991V14.4H279.991V11.4ZM279.991 15H282.991V18H279.991V15ZM276.391 11.4H279.391V14.4H276.391V11.4ZM283.591 33H286.591V36H283.591V33ZM279.991 18.6H282.991V21.6H279.991V18.6ZM279.991 22.2H282.991V25.2H279.991V22.2ZM279.991 25.8H282.991V28.8H279.991V25.8ZM279.991 29.4H282.991V32.4H279.991V29.4ZM279.991 33H282.991V36H279.991V33ZM276.391 33H279.391V36H276.391V33ZM305.205 15H308.205V18H305.205V15ZM301.605 11.4H304.605V14.4H301.605V11.4ZM298.005 11.4H301.005V14.4H298.005V11.4ZM294.405 11.4H297.405V14.4H294.405V11.4ZM290.805 11.4H293.805V14.4H290.805V11.4ZM290.805 15H293.805V18H290.805V15ZM305.205 18.6H308.205V21.6H305.205V18.6ZM305.205 22.2H308.205V25.2H305.205V22.2ZM305.205 25.8H308.205V28.8H305.205V25.8ZM305.205 29.4H308.205V32.4H305.205V29.4ZM301.605 33H304.605V36H301.605V33ZM298.005 33H301.005V36H298.005V33ZM294.405 33H297.405V36H294.405V33ZM290.805 18.6H293.805V21.6H290.805V18.6ZM290.805 22.2H293.805V25.2H290.805V22.2ZM290.805 25.8H293.805V28.8H290.805V25.8ZM290.805 29.4H293.805V32.4H290.805V29.4ZM290.805 33H293.805V36H290.805V33ZM326.796 15H329.796V18H326.796V15ZM323.196 11.4H326.196V14.4H323.196V11.4ZM319.596 11.4H322.596V14.4H319.596V11.4ZM315.996 11.4H318.996V14.4H315.996V11.4ZM312.396 15H315.396V18H312.396V15ZM326.796 18.6H329.796V21.6H326.796V18.6ZM326.796 22.2H329.796V25.2H326.796V22.2ZM326.796 25.8H329.796V28.8H326.796V25.8ZM326.796 29.4H329.796V32.4H326.796V29.4ZM326.796 33H329.796V36H326.796V33ZM323.196 22.2H326.196V25.2H323.196V22.2ZM319.596 22.2H322.596V25.2H319.596V22.2ZM315.996 22.2H318.996V25.2H315.996V22.2ZM312.396 18.6H315.396V21.6H312.396V18.6ZM312.396 22.2H315.396V25.2H312.396V22.2ZM312.396 25.8H315.396V28.8H312.396V25.8ZM312.396 29.4H315.396V32.4H312.396V29.4ZM312.396 33H315.396V36H312.396V33ZM353.78 11.4H356.78V14.4H353.78V11.4ZM353.78 15H356.78V18H353.78V15ZM350.18 15H353.18V18H350.18V15ZM360.98 33H363.98V36H360.98V33ZM357.38 33H360.38V36H357.38V33ZM353.78 18.6H356.78V21.6H353.78V18.6ZM353.78 22.2H356.78V25.2H353.78V22.2ZM353.78 25.8H356.78V28.8H353.78V25.8ZM353.78 29.4H356.78V32.4H353.78V29.4ZM353.78 33H356.78V36H353.78V33ZM350.18 33H353.18V36H350.18V33ZM346.58 18.6H349.58V21.6H346.58V18.6ZM346.58 33H349.58V36H346.58V33ZM382.572 15H385.572V18H382.572V15ZM378.972 18.6H381.972V21.6H378.972V18.6ZM375.372 22.2H378.372V25.2H375.372V22.2ZM371.772 25.8H374.772V28.8H371.772V25.8ZM368.172 29.4H371.172V32.4H368.172V29.4ZM404.164 11.4H407.164V14.4H404.164V11.4ZM400.564 11.4H403.564V14.4H400.564V11.4ZM396.964 11.4H399.964V14.4H396.964V11.4ZM393.364 11.4H396.364V14.4H393.364V11.4ZM389.764 11.4H392.764V14.4H389.764V11.4ZM389.764 15H392.764V18H389.764V15ZM404.164 22.2H407.164V25.2H404.164V22.2ZM404.164 25.8H407.164V28.8H404.164V25.8ZM404.164 29.4H407.164V32.4H404.164V29.4ZM400.564 18.6H403.564V21.6H400.564V18.6ZM400.564 33H403.564V36H400.564V33ZM396.964 18.6H399.964V21.6H396.964V18.6ZM396.964 33H399.964V36H396.964V33ZM393.364 18.6H396.364V21.6H393.364V18.6ZM393.364 33H396.364V36H393.364V33ZM389.764 18.6H392.764V21.6H389.764V18.6ZM389.764 29.4H392.764V32.4H389.764V29.4Z" fill="white"/>
<path d="M118.225 249H121.225V252H118.225V249ZM114.625 245.4H117.625V248.4H114.625V245.4ZM111.025 245.4H114.025V248.4H111.025V245.4ZM107.425 245.4H110.425V248.4H107.425V245.4ZM103.825 249H106.825V252H103.825V249ZM118.225 263.4H121.225V266.4H118.225V263.4ZM114.625 267H117.625V270H114.625V267ZM111.025 267H114.025V270H111.025V267ZM107.425 267H110.425V270H107.425V267ZM103.825 252.6H106.825V255.6H103.825V252.6ZM103.825 256.2H106.825V259.2H103.825V256.2ZM103.825 259.8H106.825V262.8H103.825V259.8ZM103.825 263.4H106.825V266.4H103.825V263.4ZM139.817 249H142.817V252H139.817V249ZM136.217 245.4H139.217V248.4H136.217V245.4ZM132.617 245.4H135.617V248.4H132.617V245.4ZM129.017 245.4H132.017V248.4H129.017V245.4ZM125.417 249H128.417V252H125.417V249ZM139.817 252.6H142.817V255.6H139.817V252.6ZM139.817 256.2H142.817V259.2H139.817V256.2ZM139.817 259.8H142.817V262.8H139.817V259.8ZM139.817 263.4H142.817V266.4H139.817V263.4ZM136.217 267H139.217V270H136.217V267ZM132.617 267H135.617V270H132.617V267ZM129.017 267H132.017V270H129.017V267ZM125.417 252.6H128.417V255.6H125.417V252.6ZM125.417 256.2H128.417V259.2H125.417V256.2ZM125.417 259.8H128.417V262.8H125.417V259.8ZM125.417 263.4H128.417V266.4H125.417V263.4ZM161.409 245.4H164.409V248.4H161.409V245.4ZM161.409 249H164.409V252H161.409V249ZM147.009 245.4H150.009V248.4H147.009V245.4ZM147.009 249H150.009V252H147.009V249ZM161.409 252.6H164.409V255.6H161.409V252.6ZM161.409 256.2H164.409V259.2H161.409V256.2ZM161.409 259.8H164.409V262.8H161.409V259.8ZM161.409 263.4H164.409V266.4H161.409V263.4ZM161.409 267H164.409V270H161.409V267ZM157.809 259.8H160.809V262.8H157.809V259.8ZM154.209 256.2H157.209V259.2H154.209V256.2ZM150.609 252.6H153.609V255.6H150.609V252.6ZM147.009 252.6H150.009V255.6H147.009V252.6ZM147.009 256.2H150.009V259.2H147.009V256.2ZM147.009 259.8H150.009V262.8H147.009V259.8ZM147.009 263.4H150.009V266.4H147.009V263.4ZM147.009 267H150.009V270H147.009V267ZM183.001 245.4H186.001V248.4H183.001V245.4ZM179.401 245.4H182.401V248.4H179.401V245.4ZM175.801 245.4H178.801V248.4H175.801V245.4ZM172.201 245.4H175.201V248.4H172.201V245.4ZM168.601 245.4H171.601V248.4H168.601V245.4ZM168.601 249H171.601V252H168.601V249ZM183.001 267H186.001V270H183.001V267ZM179.401 256.2H182.401V259.2H179.401V256.2ZM179.401 267H182.401V270H179.401V267ZM175.801 256.2H178.801V259.2H175.801V256.2ZM175.801 267H178.801V270H175.801V267ZM172.201 256.2H175.201V259.2H172.201V256.2ZM172.201 267H175.201V270H172.201V267ZM168.601 252.6H171.601V255.6H168.601V252.6ZM168.601 256.2H171.601V259.2H168.601V256.2ZM168.601 259.8H171.601V262.8H168.601V259.8ZM168.601 263.4H171.601V266.4H168.601V263.4ZM168.601 267H171.601V270H168.601V267ZM204.592 249H207.592V252H204.592V249ZM200.992 245.4H203.992V248.4H200.992V245.4ZM197.392 245.4H200.392V248.4H197.392V245.4ZM193.792 245.4H196.792V248.4H193.792V245.4ZM190.192 249H193.192V252H190.192V249ZM204.592 263.4H207.592V266.4H204.592V263.4ZM200.992 267H203.992V270H200.992V267ZM197.392 267H200.392V270H197.392V267ZM193.792 267H196.792V270H193.792V267ZM190.192 252.6H193.192V255.6H190.192V252.6ZM190.192 256.2H193.192V259.2H190.192V256.2ZM190.192 259.8H193.192V262.8H190.192V259.8ZM190.192 263.4H193.192V266.4H190.192V263.4ZM226.184 245.4H229.184V248.4H226.184V245.4ZM222.584 245.4H225.584V248.4H222.584V245.4ZM218.984 245.4H221.984V248.4H218.984V245.4ZM218.984 249H221.984V252H218.984V249ZM215.384 245.4H218.384V248.4H215.384V245.4ZM211.784 245.4H214.784V248.4H211.784V245.4ZM218.984 252.6H221.984V255.6H218.984V252.6ZM218.984 256.2H221.984V259.2H218.984V256.2ZM218.984 259.8H221.984V262.8H218.984V259.8ZM218.984 263.4H221.984V266.4H218.984V263.4ZM218.984 267H221.984V270H218.984V267ZM247.776 249H250.776V252H247.776V249ZM244.176 245.4H247.176V248.4H244.176V245.4ZM240.576 245.4H243.576V248.4H240.576V245.4ZM236.976 245.4H239.976V248.4H236.976V245.4ZM233.376 249H236.376V252H233.376V249ZM247.776 252.6H250.776V255.6H247.776V252.6ZM247.776 256.2H250.776V259.2H247.776V256.2ZM247.776 259.8H250.776V262.8H247.776V259.8ZM247.776 263.4H250.776V266.4H247.776V263.4ZM247.776 267H250.776V270H247.776V267ZM244.176 256.2H247.176V259.2H244.176V256.2ZM240.576 256.2H243.576V259.2H240.576V256.2ZM236.976 256.2H239.976V259.2H236.976V256.2ZM233.376 252.6H236.376V255.6H233.376V252.6ZM233.376 256.2H236.376V259.2H233.376V256.2ZM233.376 259.8H236.376V262.8H233.376V259.8ZM233.376 263.4H236.376V266.4H233.376V263.4ZM233.376 267H236.376V270H233.376V267ZM269.368 245.4H272.368V248.4H269.368V245.4ZM269.368 249H272.368V252H269.368V249ZM254.968 245.4H257.968V248.4H254.968V245.4ZM254.968 249H257.968V252H254.968V249ZM269.368 252.6H272.368V255.6H269.368V252.6ZM269.368 256.2H272.368V259.2H269.368V256.2ZM269.368 259.8H272.368V262.8H269.368V259.8ZM269.368 263.4H272.368V266.4H269.368V263.4ZM269.368 267H272.368V270H269.368V267ZM265.768 259.8H268.768V262.8H265.768V259.8ZM262.168 256.2H265.168V259.2H262.168V256.2ZM258.568 252.6H261.568V255.6H258.568V252.6ZM254.968 252.6H257.968V255.6H254.968V252.6ZM254.968 256.2H257.968V259.2H254.968V256.2ZM254.968 259.8H257.968V262.8H254.968V259.8ZM254.968 263.4H257.968V266.4H254.968V263.4ZM254.968 267H257.968V270H254.968V267ZM290.96 249H293.96V252H290.96V249ZM287.36 245.4H290.36V248.4H287.36V245.4ZM283.76 245.4H286.76V248.4H283.76V245.4ZM280.16 245.4H283.16V248.4H280.16V245.4ZM276.56 245.4H279.56V248.4H276.56V245.4ZM276.56 249H279.56V252H276.56V249ZM290.96 252.6H293.96V255.6H290.96V252.6ZM290.96 256.2H293.96V259.2H290.96V256.2ZM290.96 259.8H293.96V262.8H290.96V259.8ZM290.96 263.4H293.96V266.4H290.96V263.4ZM287.36 267H290.36V270H287.36V267ZM283.76 267H286.76V270H283.76V267ZM280.16 267H283.16V270H280.16V267ZM276.56 252.6H279.56V255.6H276.56V252.6ZM276.56 256.2H279.56V259.2H276.56V256.2ZM276.56 259.8H279.56V262.8H276.56V259.8ZM276.56 263.4H279.56V266.4H276.56V263.4ZM276.56 267H279.56V270H276.56V267ZM312.551 249H315.551V252H312.551V249ZM308.951 245.4H311.951V248.4H308.951V245.4ZM305.351 245.4H308.351V248.4H305.351V245.4ZM301.751 245.4H304.751V248.4H301.751V245.4ZM298.151 249H301.151V252H298.151V249ZM312.551 252.6H315.551V255.6H312.551V252.6ZM312.551 256.2H315.551V259.2H312.551V256.2ZM312.551 259.8H315.551V262.8H312.551V259.8ZM312.551 263.4H315.551V266.4H312.551V263.4ZM308.951 267H311.951V270H308.951V267ZM305.351 267H308.351V270H305.351V267ZM301.751 267H304.751V270H301.751V267ZM298.151 252.6H301.151V255.6H298.151V252.6ZM298.151 256.2H301.151V259.2H298.151V256.2ZM298.151 259.8H301.151V262.8H298.151V259.8ZM298.151 263.4H301.151V266.4H298.151V263.4ZM323.343 263.4H326.343V266.4H323.343V263.4ZM323.343 267H326.343V270H323.343V267ZM319.743 263.4H322.743V266.4H319.743V263.4ZM319.743 267H322.743V270H319.743V267ZM334.154 263.4H337.154V266.4H334.154V263.4ZM334.154 267H337.154V270H334.154V267ZM330.554 263.4H333.554V266.4H330.554V263.4ZM330.554 267H333.554V270H330.554V267ZM344.964 263.4H347.964V266.4H344.964V263.4ZM344.964 267H347.964V270H344.964V267ZM341.364 263.4H344.364V266.4H341.364V263.4ZM341.364 267H344.364V270H341.364V267Z" fill="white"/>
<rect x="1.5" y="1.5" width="449" height="277" stroke="#5B65C2" stroke-width="3"/>
</g>
<defs>
<clipPath id="clip0">
<rect width="452" height="280" fill="white"/>
</clipPath>
</defs>
</svg>
