<svg width="452" height="280" viewBox="0 0 452 280" fill="none" xmlns="http://www.w3.org/2000/svg">
<rect width="452" height="280" fill="white"/>
<rect width="452" height="47" fill="#5B65C2"/>
<path d="M20.2 66.4H23.2V69.4H20.2V66.4ZM20.2 70H23.2V73H20.2V70ZM16.6 70H19.6V73H16.6V70ZM27.4 88H30.4V91H27.4V88ZM23.8 88H26.8V91H23.8V88ZM20.2 73.6H23.2V76.6H20.2V73.6ZM20.2 77.2H23.2V80.2H20.2V77.2ZM20.2 80.8H23.2V83.8H20.2V80.8ZM20.2 84.4H23.2V87.4H20.2V84.4ZM20.2 88H23.2V91H20.2V88ZM16.6 88H19.6V91H16.6V88ZM13 73.6H16V76.6H13V73.6ZM13 88H16V91H13V88ZM38.1918 84.4H41.1918V87.4H38.1918V84.4ZM38.1918 88H41.1918V91H38.1918V88ZM34.5918 84.4H37.5918V87.4H34.5918V84.4ZM34.5918 88H37.5918V91H34.5918V88ZM59.8023 70H62.8023V73H59.8023V70ZM56.2023 66.4H59.2023V69.4H56.2023V66.4ZM52.6023 66.4H55.6023V69.4H52.6023V66.4ZM49.0023 66.4H52.0023V69.4H49.0023V66.4ZM45.4023 70H48.4023V73H45.4023V70ZM59.8023 80.8H62.8023V83.8H59.8023V80.8ZM59.8023 84.4H62.8023V87.4H59.8023V84.4ZM56.2023 77.2H59.2023V80.2H56.2023V77.2ZM56.2023 88H59.2023V91H56.2023V88ZM52.6023 77.2H55.6023V80.2H52.6023V77.2ZM52.6023 88H55.6023V91H52.6023V88ZM49.0023 77.2H52.0023V80.2H49.0023V77.2ZM49.0023 88H52.0023V91H49.0023V88ZM45.4023 73.6H48.4023V76.6H45.4023V73.6ZM45.4023 84.4H48.4023V87.4H45.4023V84.4ZM74.1941 66.4H77.1941V69.4H74.1941V66.4ZM70.5941 66.4H73.5941V69.4H70.5941V66.4ZM70.5941 70H73.5941V73H70.5941V70ZM66.9941 66.4H69.9941V69.4H66.9941V66.4ZM74.1941 88H77.1941V91H74.1941V88ZM70.5941 73.6H73.5941V76.6H70.5941V73.6ZM70.5941 77.2H73.5941V80.2H70.5941V77.2ZM70.5941 80.8H73.5941V83.8H70.5941V80.8ZM70.5941 84.4H73.5941V87.4H70.5941V84.4ZM70.5941 88H73.5941V91H70.5941V88ZM66.9941 88H69.9941V91H66.9941V88ZM95.8082 66.4H98.8082V69.4H95.8082V66.4ZM95.8082 70H98.8082V73H95.8082V70ZM81.4082 66.4H84.4082V69.4H81.4082V66.4ZM81.4082 70H84.4082V73H81.4082V70ZM95.8082 73.6H98.8082V76.6H95.8082V73.6ZM95.8082 77.2H98.8082V80.2H95.8082V77.2ZM95.8082 80.8H98.8082V83.8H95.8082V80.8ZM95.8082 84.4H98.8082V87.4H95.8082V84.4ZM95.8082 88H98.8082V91H95.8082V88ZM92.2082 80.8H95.2082V83.8H92.2082V80.8ZM88.6082 77.2H91.6082V80.2H88.6082V77.2ZM85.0082 73.6H88.0082V76.6H85.0082V73.6ZM81.4082 73.6H84.4082V76.6H81.4082V73.6ZM81.4082 77.2H84.4082V80.2H81.4082V77.2ZM81.4082 80.8H84.4082V83.8H81.4082V80.8ZM81.4082 84.4H84.4082V87.4H81.4082V84.4ZM81.4082 88H84.4082V91H81.4082V88ZM138.992 70H141.992V73H138.992V70ZM135.392 66.4H138.392V69.4H135.392V66.4ZM131.792 66.4H134.792V69.4H131.792V66.4ZM128.192 66.4H131.192V69.4H128.192V66.4ZM124.592 70H127.592V73H124.592V70ZM138.992 84.4H141.992V87.4H138.992V84.4ZM135.392 88H138.392V91H135.392V88ZM131.792 88H134.792V91H131.792V88ZM128.192 88H131.192V91H128.192V88ZM124.592 73.6H127.592V76.6H124.592V73.6ZM124.592 77.2H127.592V80.2H124.592V77.2ZM124.592 80.8H127.592V83.8H124.592V80.8ZM124.592 84.4H127.592V87.4H124.592V84.4ZM160.584 66.4H163.584V69.4H160.584V66.4ZM160.584 70H163.584V73H160.584V70ZM146.184 66.4H149.184V69.4H146.184V66.4ZM146.184 70H149.184V73H146.184V70ZM160.584 73.6H163.584V76.6H160.584V73.6ZM160.584 77.2H163.584V80.2H160.584V77.2ZM160.584 80.8H163.584V83.8H160.584V80.8ZM160.584 84.4H163.584V87.4H160.584V84.4ZM156.984 88H159.984V91H156.984V88ZM153.384 88H156.384V91H153.384V88ZM149.784 88H152.784V91H149.784V88ZM146.184 73.6H149.184V76.6H146.184V73.6ZM146.184 77.2H149.184V80.2H146.184V77.2ZM146.184 80.8H149.184V83.8H146.184V80.8ZM146.184 84.4H149.184V87.4H146.184V84.4ZM182.175 70H185.175V73H182.175V70ZM178.575 66.4H181.575V69.4H178.575V66.4ZM174.975 66.4H177.975V69.4H174.975V66.4ZM171.375 66.4H174.375V69.4H171.375V66.4ZM167.775 70H170.775V73H167.775V70ZM182.175 73.6H185.175V76.6H182.175V73.6ZM182.175 77.2H185.175V80.2H182.175V77.2ZM182.175 80.8H185.175V83.8H182.175V80.8ZM182.175 84.4H185.175V87.4H182.175V84.4ZM178.575 88H181.575V91H178.575V88ZM174.975 88H177.975V91H174.975V88ZM171.375 88H174.375V91H171.375V88ZM167.775 73.6H170.775V76.6H167.775V73.6ZM167.775 77.2H170.775V80.2H167.775V77.2ZM167.775 80.8H170.775V83.8H167.775V80.8ZM167.775 84.4H170.775V87.4H167.775V84.4ZM203.767 66.4H206.767V69.4H203.767V66.4ZM200.167 66.4H203.167V69.4H200.167V66.4ZM196.567 66.4H199.567V69.4H196.567V66.4ZM196.567 70H199.567V73H196.567V70ZM192.967 66.4H195.967V69.4H192.967V66.4ZM189.367 66.4H192.367V69.4H189.367V66.4ZM196.567 73.6H199.567V76.6H196.567V73.6ZM196.567 77.2H199.567V80.2H196.567V77.2ZM196.567 80.8H199.567V83.8H196.567V80.8ZM196.567 84.4H199.567V87.4H196.567V84.4ZM196.567 88H199.567V91H196.567V88ZM225.359 70H228.359V73H225.359V70ZM221.759 66.4H224.759V69.4H221.759V66.4ZM218.159 66.4H221.159V69.4H218.159V66.4ZM214.559 66.4H217.559V69.4H214.559V66.4ZM210.959 70H213.959V73H210.959V70ZM225.359 73.6H228.359V76.6H225.359V73.6ZM225.359 77.2H228.359V80.2H225.359V77.2ZM225.359 80.8H228.359V83.8H225.359V80.8ZM225.359 84.4H228.359V87.4H225.359V84.4ZM225.359 88H228.359V91H225.359V88ZM221.759 77.2H224.759V80.2H221.759V77.2ZM218.159 77.2H221.159V80.2H218.159V77.2ZM214.559 77.2H217.559V80.2H214.559V77.2ZM210.959 73.6H213.959V76.6H210.959V73.6ZM210.959 77.2H213.959V80.2H210.959V77.2ZM210.959 80.8H213.959V83.8H210.959V80.8ZM210.959 84.4H213.959V87.4H210.959V84.4ZM210.959 88H213.959V91H210.959V88ZM246.951 70H249.951V73H246.951V70ZM243.351 66.4H246.351V69.4H243.351V66.4ZM239.751 66.4H242.751V69.4H239.751V66.4ZM236.151 66.4H239.151V69.4H236.151V66.4ZM232.551 70H235.551V73H232.551V70ZM246.951 80.8H249.951V83.8H246.951V80.8ZM246.951 84.4H249.951V87.4H246.951V84.4ZM243.351 77.2H246.351V80.2H243.351V77.2ZM243.351 88H246.351V91H243.351V88ZM239.751 77.2H242.751V80.2H239.751V77.2ZM239.751 88H242.751V91H239.751V88ZM236.151 77.2H239.151V80.2H236.151V77.2ZM236.151 88H239.151V91H236.151V88ZM232.551 73.6H235.551V76.6H232.551V73.6ZM232.551 84.4H235.551V87.4H232.551V84.4ZM27.4 103H30.4V106H27.4V103ZM23.8 99.4H26.8V102.4H23.8V99.4ZM20.2 99.4H23.2V102.4H20.2V99.4ZM16.6 99.4H19.6V102.4H16.6V99.4ZM13 103H16V106H13V103ZM27.4 106.6H30.4V109.6H27.4V106.6ZM27.4 121H30.4V124H27.4V121ZM23.8 110.2H26.8V113.2H23.8V110.2ZM23.8 121H26.8V124H23.8V121ZM20.2 113.8H23.2V116.8H20.2V113.8ZM20.2 121H23.2V124H20.2V121ZM16.6 117.4H19.6V120.4H16.6V117.4ZM16.6 121H19.6V124H16.6V121ZM13 121H16V124H13V121ZM38.1918 117.4H41.1918V120.4H38.1918V117.4ZM38.1918 121H41.1918V124H38.1918V121ZM34.5918 117.4H37.5918V120.4H34.5918V117.4ZM34.5918 121H37.5918V124H34.5918V121ZM59.8023 103H62.8023V106H59.8023V103ZM56.2023 99.4H59.2023V102.4H56.2023V99.4ZM52.6023 99.4H55.6023V102.4H52.6023V99.4ZM49.0023 99.4H52.0023V102.4H49.0023V99.4ZM45.4023 103H48.4023V106H45.4023V103ZM59.8023 117.4H62.8023V120.4H59.8023V117.4ZM56.2023 121H59.2023V124H56.2023V121ZM52.6023 121H55.6023V124H52.6023V121ZM49.0023 121H52.0023V124H49.0023V121ZM45.4023 106.6H48.4023V109.6H45.4023V106.6ZM45.4023 110.2H48.4023V113.2H45.4023V110.2ZM45.4023 113.8H48.4023V116.8H45.4023V113.8ZM45.4023 117.4H48.4023V120.4H45.4023V117.4ZM81.3941 103H84.3941V106H81.3941V103ZM77.7941 99.4H80.7941V102.4H77.7941V99.4ZM74.1941 99.4H77.1941V102.4H74.1941V99.4ZM70.5941 99.4H73.5941V102.4H70.5941V99.4ZM66.9941 103H69.9941V106H66.9941V103ZM81.3941 106.6H84.3941V109.6H81.3941V106.6ZM81.3941 110.2H84.3941V113.2H81.3941V110.2ZM81.3941 113.8H84.3941V116.8H81.3941V113.8ZM81.3941 117.4H84.3941V120.4H81.3941V117.4ZM77.7941 121H80.7941V124H77.7941V121ZM74.1941 121H77.1941V124H74.1941V121ZM70.5941 121H73.5941V124H70.5941V121ZM66.9941 106.6H69.9941V109.6H66.9941V106.6ZM66.9941 110.2H69.9941V113.2H66.9941V110.2ZM66.9941 113.8H69.9941V116.8H66.9941V113.8ZM66.9941 117.4H69.9941V120.4H66.9941V117.4ZM102.986 99.4H105.986V102.4H102.986V99.4ZM102.986 103H105.986V106H102.986V103ZM88.5859 99.4H91.5859V102.4H88.5859V99.4ZM88.5859 103H91.5859V106H88.5859V103ZM102.986 106.6H105.986V109.6H102.986V106.6ZM102.986 110.2H105.986V113.2H102.986V110.2ZM102.986 113.8H105.986V116.8H102.986V113.8ZM102.986 117.4H105.986V120.4H102.986V117.4ZM102.986 121H105.986V124H102.986V121ZM99.3859 113.8H102.386V116.8H99.3859V113.8ZM95.7859 110.2H98.7859V113.2H95.7859V110.2ZM92.1859 106.6H95.1859V109.6H92.1859V106.6ZM88.5859 106.6H91.5859V109.6H88.5859V106.6ZM88.5859 110.2H91.5859V113.2H88.5859V110.2ZM88.5859 113.8H91.5859V116.8H88.5859V113.8ZM88.5859 117.4H91.5859V120.4H88.5859V117.4ZM88.5859 121H91.5859V124H88.5859V121ZM146.17 103H149.17V106H146.17V103ZM142.57 99.4H145.57V102.4H142.57V99.4ZM138.97 99.4H141.97V102.4H138.97V99.4ZM135.37 99.4H138.37V102.4H135.37V99.4ZM131.77 103H134.77V106H131.77V103ZM146.17 117.4H149.17V120.4H146.17V117.4ZM142.57 121H145.57V124H142.57V121ZM138.97 121H141.97V124H138.97V121ZM135.37 121H138.37V124H135.37V121ZM131.77 106.6H134.77V109.6H131.77V106.6ZM131.77 110.2H134.77V113.2H131.77V110.2ZM131.77 113.8H134.77V116.8H131.77V113.8ZM131.77 117.4H134.77V120.4H131.77V117.4ZM167.761 99.4H170.761V102.4H167.761V99.4ZM167.761 103H170.761V106H167.761V103ZM153.361 99.4H156.361V102.4H153.361V99.4ZM153.361 103H156.361V106H153.361V103ZM167.761 106.6H170.761V109.6H167.761V106.6ZM167.761 110.2H170.761V113.2H167.761V110.2ZM167.761 113.8H170.761V116.8H167.761V113.8ZM167.761 117.4H170.761V120.4H167.761V117.4ZM164.161 121H167.161V124H164.161V121ZM160.561 121H163.561V124H160.561V121ZM156.961 121H159.961V124H156.961V121ZM153.361 106.6H156.361V109.6H153.361V106.6ZM153.361 110.2H156.361V113.2H153.361V110.2ZM153.361 113.8H156.361V116.8H153.361V113.8ZM153.361 117.4H156.361V120.4H153.361V117.4ZM189.353 103H192.353V106H189.353V103ZM185.753 99.4H188.753V102.4H185.753V99.4ZM182.153 99.4H185.153V102.4H182.153V99.4ZM178.553 99.4H181.553V102.4H178.553V99.4ZM174.953 103H177.953V106H174.953V103ZM189.353 106.6H192.353V109.6H189.353V106.6ZM189.353 110.2H192.353V113.2H189.353V110.2ZM189.353 113.8H192.353V116.8H189.353V113.8ZM189.353 117.4H192.353V120.4H189.353V117.4ZM185.753 121H188.753V124H185.753V121ZM182.153 121H185.153V124H182.153V121ZM178.553 121H181.553V124H178.553V121ZM174.953 106.6H177.953V109.6H174.953V106.6ZM174.953 110.2H177.953V113.2H174.953V110.2ZM174.953 113.8H177.953V116.8H174.953V113.8ZM174.953 117.4H177.953V120.4H174.953V117.4ZM210.945 99.4H213.945V102.4H210.945V99.4ZM207.345 99.4H210.345V102.4H207.345V99.4ZM203.745 99.4H206.745V102.4H203.745V99.4ZM203.745 103H206.745V106H203.745V103ZM200.145 99.4H203.145V102.4H200.145V99.4ZM196.545 99.4H199.545V102.4H196.545V99.4ZM203.745 106.6H206.745V109.6H203.745V106.6ZM203.745 110.2H206.745V113.2H203.745V110.2ZM203.745 113.8H206.745V116.8H203.745V113.8ZM203.745 117.4H206.745V120.4H203.745V117.4ZM203.745 121H206.745V124H203.745V121ZM232.537 103H235.537V106H232.537V103ZM228.937 99.4H231.937V102.4H228.937V99.4ZM225.337 99.4H228.337V102.4H225.337V99.4ZM221.737 99.4H224.737V102.4H221.737V99.4ZM218.137 103H221.137V106H218.137V103ZM232.537 106.6H235.537V109.6H232.537V106.6ZM232.537 110.2H235.537V113.2H232.537V110.2ZM232.537 113.8H235.537V116.8H232.537V113.8ZM232.537 117.4H235.537V120.4H232.537V117.4ZM232.537 121H235.537V124H232.537V121ZM228.937 110.2H231.937V113.2H228.937V110.2ZM225.337 110.2H228.337V113.2H225.337V110.2ZM221.737 110.2H224.737V113.2H221.737V110.2ZM218.137 106.6H221.137V109.6H218.137V106.6ZM218.137 110.2H221.137V113.2H218.137V110.2ZM218.137 113.8H221.137V116.8H218.137V113.8ZM218.137 117.4H221.137V120.4H218.137V117.4ZM218.137 121H221.137V124H218.137V121ZM254.129 103H257.129V106H254.129V103ZM250.529 99.4H253.529V102.4H250.529V99.4ZM246.929 99.4H249.929V102.4H246.929V99.4ZM243.329 99.4H246.329V102.4H243.329V99.4ZM239.729 103H242.729V106H239.729V103ZM254.129 113.8H257.129V116.8H254.129V113.8ZM254.129 117.4H257.129V120.4H254.129V117.4ZM250.529 110.2H253.529V113.2H250.529V110.2ZM250.529 121H253.529V124H250.529V121ZM246.929 110.2H249.929V113.2H246.929V110.2ZM246.929 121H249.929V124H246.929V121ZM243.329 110.2H246.329V113.2H243.329V110.2ZM243.329 121H246.329V124H243.329V121ZM239.729 106.6H242.729V109.6H239.729V106.6ZM239.729 117.4H242.729V120.4H239.729V117.4Z" fill="#5B65C2"/>
<path d="M71.2545 15H74.2545V18H71.2545V15ZM67.6545 11.4H70.6545V14.4H67.6545V11.4ZM64.0545 11.4H67.0545V14.4H64.0545V11.4ZM60.4545 11.4H63.4545V14.4H60.4545V11.4ZM56.8545 15H59.8545V18H56.8545V15ZM71.2545 25.8H74.2545V28.8H71.2545V25.8ZM71.2545 29.4H74.2545V32.4H71.2545V29.4ZM67.6545 22.2H70.6545V25.2H67.6545V22.2ZM67.6545 33H70.6545V36H67.6545V33ZM64.0545 22.2H67.0545V25.2H64.0545V22.2ZM64.0545 33H67.0545V36H64.0545V33ZM60.4545 22.2H63.4545V25.2H60.4545V22.2ZM60.4545 33H63.4545V36H60.4545V33ZM56.8545 18.6H59.8545V21.6H56.8545V18.6ZM56.8545 29.4H59.8545V32.4H56.8545V29.4ZM92.8463 11.4H95.8463V14.4H92.8463V11.4ZM89.2463 11.4H92.2463V14.4H89.2463V11.4ZM85.6463 11.4H88.6463V14.4H85.6463V11.4ZM82.0463 11.4H85.0463V14.4H82.0463V11.4ZM78.4463 11.4H81.4463V14.4H78.4463V11.4ZM78.4463 15H81.4463V18H78.4463V15ZM92.8463 33H95.8463V36H92.8463V33ZM89.2463 22.2H92.2463V25.2H89.2463V22.2ZM89.2463 33H92.2463V36H89.2463V33ZM85.6463 22.2H88.6463V25.2H85.6463V22.2ZM85.6463 33H88.6463V36H85.6463V33ZM82.0463 22.2H85.0463V25.2H82.0463V22.2ZM82.0463 33H85.0463V36H82.0463V33ZM78.4463 18.6H81.4463V21.6H78.4463V18.6ZM78.4463 22.2H81.4463V25.2H78.4463V22.2ZM78.4463 25.8H81.4463V28.8H78.4463V25.8ZM78.4463 29.4H81.4463V32.4H78.4463V29.4ZM78.4463 33H81.4463V36H78.4463V33ZM100.038 11.4H103.038V14.4H100.038V11.4ZM100.038 15H103.038V18H100.038V15ZM114.438 33H117.438V36H114.438V33ZM110.838 33H113.838V36H110.838V33ZM107.238 33H110.238V36H107.238V33ZM103.638 33H106.638V36H103.638V33ZM100.038 18.6H103.038V21.6H100.038V18.6ZM100.038 22.2H103.038V25.2H100.038V22.2ZM100.038 25.8H103.038V28.8H100.038V25.8ZM100.038 29.4H103.038V32.4H100.038V29.4ZM100.038 33H103.038V36H100.038V33ZM136.03 11.4H139.03V14.4H136.03V11.4ZM132.43 11.4H135.43V14.4H132.43V11.4ZM128.83 11.4H131.83V14.4H128.83V11.4ZM125.23 11.4H128.23V14.4H125.23V11.4ZM121.63 11.4H124.63V14.4H121.63V11.4ZM121.63 15H124.63V18H121.63V15ZM136.03 33H139.03V36H136.03V33ZM132.43 22.2H135.43V25.2H132.43V22.2ZM132.43 33H135.43V36H132.43V33ZM128.83 22.2H131.83V25.2H128.83V22.2ZM128.83 33H131.83V36H128.83V33ZM125.23 22.2H128.23V25.2H125.23V22.2ZM125.23 33H128.23V36H125.23V33ZM121.63 18.6H124.63V21.6H121.63V18.6ZM121.63 22.2H124.63V25.2H121.63V22.2ZM121.63 25.8H124.63V28.8H121.63V25.8ZM121.63 29.4H124.63V32.4H121.63V29.4ZM121.63 33H124.63V36H121.63V33ZM157.622 15H160.622V18H157.622V15ZM154.022 11.4H157.022V14.4H154.022V11.4ZM150.422 11.4H153.422V14.4H150.422V11.4ZM146.822 11.4H149.822V14.4H146.822V11.4ZM143.222 15H146.222V18H143.222V15ZM157.622 29.4H160.622V32.4H157.622V29.4ZM154.022 33H157.022V36H154.022V33ZM150.422 33H153.422V36H150.422V33ZM146.822 33H149.822V36H146.822V33ZM143.222 18.6H146.222V21.6H143.222V18.6ZM143.222 22.2H146.222V25.2H143.222V22.2ZM143.222 25.8H146.222V28.8H143.222V25.8ZM143.222 29.4H146.222V32.4H143.222V29.4ZM179.213 15H182.213V18H179.213V15ZM175.613 11.4H178.613V14.4H175.613V11.4ZM172.013 11.4H175.013V14.4H172.013V11.4ZM168.413 11.4H171.413V14.4H168.413V11.4ZM164.813 15H167.813V18H164.813V15ZM179.213 29.4H182.213V32.4H179.213V29.4ZM175.613 33H178.613V36H175.613V33ZM172.013 33H175.013V36H172.013V33ZM168.413 33H171.413V36H168.413V33ZM164.813 18.6H167.813V21.6H164.813V18.6ZM164.813 22.2H167.813V25.2H164.813V22.2ZM164.813 25.8H167.813V28.8H164.813V25.8ZM164.813 29.4H167.813V32.4H164.813V29.4ZM193.605 11.4H196.605V14.4H193.605V11.4ZM190.005 11.4H193.005V14.4H190.005V11.4ZM190.005 15H193.005V18H190.005V15ZM186.405 11.4H189.405V14.4H186.405V11.4ZM193.605 33H196.605V36H193.605V33ZM190.005 18.6H193.005V21.6H190.005V18.6ZM190.005 22.2H193.005V25.2H190.005V22.2ZM190.005 25.8H193.005V28.8H190.005V25.8ZM190.005 29.4H193.005V32.4H190.005V29.4ZM190.005 33H193.005V36H190.005V33ZM186.405 33H189.405V36H186.405V33ZM215.219 15H218.219V18H215.219V15ZM211.619 11.4H214.619V14.4H211.619V11.4ZM208.019 11.4H211.019V14.4H208.019V11.4ZM204.419 11.4H207.419V14.4H204.419V11.4ZM200.819 15H203.819V18H200.819V15ZM215.219 18.6H218.219V21.6H215.219V18.6ZM215.219 22.2H218.219V25.2H215.219V22.2ZM215.219 25.8H218.219V28.8H215.219V25.8ZM215.219 29.4H218.219V32.4H215.219V29.4ZM211.619 33H214.619V36H211.619V33ZM208.019 33H211.019V36H208.019V33ZM204.419 33H207.419V36H204.419V33ZM200.819 18.6H203.819V21.6H200.819V18.6ZM200.819 22.2H203.819V25.2H200.819V22.2ZM200.819 25.8H203.819V28.8H200.819V25.8ZM200.819 29.4H203.819V32.4H200.819V29.4ZM236.811 11.4H239.811V14.4H236.811V11.4ZM236.811 15H239.811V18H236.811V15ZM222.411 11.4H225.411V14.4H222.411V11.4ZM222.411 15H225.411V18H222.411V15ZM236.811 18.6H239.811V21.6H236.811V18.6ZM236.811 22.2H239.811V25.2H236.811V22.2ZM236.811 25.8H239.811V28.8H236.811V25.8ZM236.811 29.4H239.811V32.4H236.811V29.4ZM236.811 33H239.811V36H236.811V33ZM233.211 25.8H236.211V28.8H233.211V25.8ZM229.611 22.2H232.611V25.2H229.611V22.2ZM226.011 18.6H229.011V21.6H226.011V18.6ZM222.411 18.6H225.411V21.6H222.411V18.6ZM222.411 22.2H225.411V25.2H222.411V22.2ZM222.411 25.8H225.411V28.8H222.411V25.8ZM222.411 29.4H225.411V32.4H222.411V29.4ZM222.411 33H225.411V36H222.411V33ZM258.403 11.4H261.403V14.4H258.403V11.4ZM254.803 11.4H257.803V14.4H254.803V11.4ZM251.203 11.4H254.203V14.4H251.203V11.4ZM247.603 11.4H250.603V14.4H247.603V11.4ZM244.003 11.4H247.003V14.4H244.003V11.4ZM244.003 15H247.003V18H244.003V15ZM258.403 33H261.403V36H258.403V33ZM254.803 22.2H257.803V25.2H254.803V22.2ZM254.803 33H257.803V36H254.803V33ZM251.203 22.2H254.203V25.2H251.203V22.2ZM251.203 33H254.203V36H251.203V33ZM247.603 22.2H250.603V25.2H247.603V22.2ZM247.603 33H250.603V36H247.603V33ZM244.003 18.6H247.003V21.6H244.003V18.6ZM244.003 22.2H247.003V25.2H244.003V22.2ZM244.003 25.8H247.003V28.8H244.003V25.8ZM244.003 29.4H247.003V32.4H244.003V29.4ZM244.003 33H247.003V36H244.003V33ZM301.587 15H304.587V18H301.587V15ZM297.987 11.4H300.987V14.4H297.987V11.4ZM294.387 11.4H297.387V14.4H294.387V11.4ZM290.787 11.4H293.787V14.4H290.787V11.4ZM287.187 15H290.187V18H287.187V15ZM301.587 29.4H304.587V32.4H301.587V29.4ZM297.987 33H300.987V36H297.987V33ZM294.387 33H297.387V36H294.387V33ZM290.787 33H293.787V36H290.787V33ZM287.187 18.6H290.187V21.6H287.187V18.6ZM287.187 22.2H290.187V25.2H287.187V22.2ZM287.187 25.8H290.187V28.8H287.187V25.8ZM287.187 29.4H290.187V32.4H287.187V29.4ZM323.178 11.4H326.178V14.4H323.178V11.4ZM323.178 15H326.178V18H323.178V15ZM308.778 11.4H311.778V14.4H308.778V11.4ZM308.778 15H311.778V18H308.778V15ZM323.178 18.6H326.178V21.6H323.178V18.6ZM323.178 22.2H326.178V25.2H323.178V22.2ZM323.178 25.8H326.178V28.8H323.178V25.8ZM323.178 29.4H326.178V32.4H323.178V29.4ZM319.578 33H322.578V36H319.578V33ZM315.978 33H318.978V36H315.978V33ZM312.378 33H315.378V36H312.378V33ZM308.778 18.6H311.778V21.6H308.778V18.6ZM308.778 22.2H311.778V25.2H308.778V22.2ZM308.778 25.8H311.778V28.8H308.778V25.8ZM308.778 29.4H311.778V32.4H308.778V29.4ZM344.77 15H347.77V18H344.77V15ZM341.17 11.4H344.17V14.4H341.17V11.4ZM337.57 11.4H340.57V14.4H337.57V11.4ZM333.97 11.4H336.97V14.4H333.97V11.4ZM330.37 15H333.37V18H330.37V15ZM344.77 18.6H347.77V21.6H344.77V18.6ZM344.77 22.2H347.77V25.2H344.77V22.2ZM344.77 25.8H347.77V28.8H344.77V25.8ZM344.77 29.4H347.77V32.4H344.77V29.4ZM341.17 33H344.17V36H341.17V33ZM337.57 33H340.57V36H337.57V33ZM333.97 33H336.97V36H333.97V33ZM330.37 18.6H333.37V21.6H330.37V18.6ZM330.37 22.2H333.37V25.2H330.37V22.2ZM330.37 25.8H333.37V28.8H330.37V25.8ZM330.37 29.4H333.37V32.4H330.37V29.4ZM366.362 11.4H369.362V14.4H366.362V11.4ZM362.762 11.4H365.762V14.4H362.762V11.4ZM359.162 11.4H362.162V14.4H359.162V11.4ZM359.162 15H362.162V18H359.162V15ZM355.562 11.4H358.562V14.4H355.562V11.4ZM351.962 11.4H354.962V14.4H351.962V11.4ZM359.162 18.6H362.162V21.6H359.162V18.6ZM359.162 22.2H362.162V25.2H359.162V22.2ZM359.162 25.8H362.162V28.8H359.162V25.8ZM359.162 29.4H362.162V32.4H359.162V29.4ZM359.162 33H362.162V36H359.162V33ZM387.954 15H390.954V18H387.954V15ZM384.354 11.4H387.354V14.4H384.354V11.4ZM380.754 11.4H383.754V14.4H380.754V11.4ZM377.154 11.4H380.154V14.4H377.154V11.4ZM373.554 15H376.554V18H373.554V15ZM387.954 18.6H390.954V21.6H387.954V18.6ZM387.954 22.2H390.954V25.2H387.954V22.2ZM387.954 25.8H390.954V28.8H387.954V25.8ZM387.954 29.4H390.954V32.4H387.954V29.4ZM387.954 33H390.954V36H387.954V33ZM384.354 22.2H387.354V25.2H384.354V22.2ZM380.754 22.2H383.754V25.2H380.754V22.2ZM377.154 22.2H380.154V25.2H377.154V22.2ZM373.554 18.6H376.554V21.6H373.554V18.6ZM373.554 22.2H376.554V25.2H373.554V22.2ZM373.554 25.8H376.554V28.8H373.554V25.8ZM373.554 29.4H376.554V32.4H373.554V29.4ZM373.554 33H376.554V36H373.554V33Z" fill="white"/>
<rect x="1.5" y="1.5" width="449" height="277" stroke="#5B65C2" stroke-width="3"/>
</svg>
