<svg width="452" height="280" viewBox="0 0 452 280" fill="none" xmlns="http://www.w3.org/2000/svg">
<rect width="452" height="280" fill="white"/>
<rect width="452" height="47" fill="#5B65C2"/>
<path d="M85.8504 145.4H88.8504V148.4H85.8504V145.4ZM82.2504 145.4H85.2504V148.4H82.2504V145.4ZM82.2504 149H85.2504V152H82.2504V149ZM78.6504 145.4H81.6504V148.4H78.6504V145.4ZM85.8504 167H88.8504V170H85.8504V167ZM82.2504 152.6H85.2504V155.6H82.2504V152.6ZM82.2504 156.2H85.2504V159.2H82.2504V156.2ZM82.2504 159.8H85.2504V162.8H82.2504V159.8ZM82.2504 163.4H85.2504V166.4H82.2504V163.4ZM82.2504 167H85.2504V170H82.2504V167ZM78.6504 167H81.6504V170H78.6504V167ZM107.464 145.4H110.464V148.4H107.464V145.4ZM107.464 149H110.464V152H107.464V149ZM93.0645 145.4H96.0645V148.4H93.0645V145.4ZM93.0645 149H96.0645V152H93.0645V149ZM107.464 152.6H110.464V155.6H107.464V152.6ZM107.464 156.2H110.464V159.2H107.464V156.2ZM107.464 159.8H110.464V162.8H107.464V159.8ZM107.464 163.4H110.464V166.4H107.464V163.4ZM107.464 167H110.464V170H107.464V167ZM103.864 159.8H106.864V162.8H103.864V159.8ZM100.264 156.2H103.264V159.2H100.264V156.2ZM96.6645 152.6H99.6645V155.6H96.6645V152.6ZM93.0645 152.6H96.0645V155.6H93.0645V152.6ZM93.0645 156.2H96.0645V159.2H93.0645V156.2ZM93.0645 159.8H96.0645V162.8H93.0645V159.8ZM93.0645 163.4H96.0645V166.4H93.0645V163.4ZM93.0645 167H96.0645V170H93.0645V167ZM129.056 149H132.056V152H129.056V149ZM125.456 145.4H128.456V148.4H125.456V145.4ZM121.856 145.4H124.856V148.4H121.856V145.4ZM118.256 145.4H121.256V148.4H118.256V145.4ZM114.656 149H117.656V152H114.656V149ZM129.056 159.8H132.056V162.8H129.056V159.8ZM129.056 163.4H132.056V166.4H129.056V163.4ZM125.456 159.8H128.456V162.8H125.456V159.8ZM125.456 167H128.456V170H125.456V167ZM121.856 167H124.856V170H121.856V167ZM118.256 167H121.256V170H118.256V167ZM114.656 152.6H117.656V155.6H114.656V152.6ZM114.656 156.2H117.656V159.2H114.656V156.2ZM114.656 159.8H117.656V162.8H114.656V159.8ZM114.656 163.4H117.656V166.4H114.656V163.4ZM150.648 149H153.648V152H150.648V149ZM147.048 145.4H150.048V148.4H147.048V145.4ZM143.448 145.4H146.448V148.4H143.448V145.4ZM139.848 145.4H142.848V148.4H139.848V145.4ZM136.248 145.4H139.248V148.4H136.248V145.4ZM136.248 149H139.248V152H136.248V149ZM150.648 152.6H153.648V155.6H150.648V152.6ZM150.648 167H153.648V170H150.648V167ZM147.048 156.2H150.048V159.2H147.048V156.2ZM147.048 163.4H150.048V166.4H147.048V163.4ZM143.448 156.2H146.448V159.2H143.448V156.2ZM143.448 159.8H146.448V162.8H143.448V159.8ZM139.848 156.2H142.848V159.2H139.848V156.2ZM136.248 152.6H139.248V155.6H136.248V152.6ZM136.248 156.2H139.248V159.2H136.248V156.2ZM136.248 159.8H139.248V162.8H136.248V159.8ZM136.248 163.4H139.248V166.4H136.248V163.4ZM136.248 167H139.248V170H136.248V167ZM172.24 145.4H175.24V148.4H172.24V145.4ZM168.64 145.4H171.64V148.4H168.64V145.4ZM165.04 145.4H168.04V148.4H165.04V145.4ZM161.44 145.4H164.44V148.4H161.44V145.4ZM157.84 145.4H160.84V148.4H157.84V145.4ZM157.84 149H160.84V152H157.84V149ZM172.24 167H175.24V170H172.24V167ZM168.64 156.2H171.64V159.2H168.64V156.2ZM168.64 167H171.64V170H168.64V167ZM165.04 156.2H168.04V159.2H165.04V156.2ZM165.04 167H168.04V170H165.04V167ZM161.44 156.2H164.44V159.2H161.44V156.2ZM161.44 167H164.44V170H161.44V167ZM157.84 152.6H160.84V155.6H157.84V152.6ZM157.84 156.2H160.84V159.2H157.84V156.2ZM157.84 159.8H160.84V162.8H157.84V159.8ZM157.84 163.4H160.84V166.4H157.84V163.4ZM157.84 167H160.84V170H157.84V167ZM193.832 149H196.832V152H193.832V149ZM190.232 145.4H193.232V148.4H190.232V145.4ZM186.632 145.4H189.632V148.4H186.632V145.4ZM183.032 145.4H186.032V148.4H183.032V145.4ZM179.432 149H182.432V152H179.432V149ZM193.832 159.8H196.832V162.8H193.832V159.8ZM193.832 163.4H196.832V166.4H193.832V163.4ZM190.232 156.2H193.232V159.2H190.232V156.2ZM190.232 167H193.232V170H190.232V167ZM186.632 156.2H189.632V159.2H186.632V156.2ZM186.632 167H189.632V170H186.632V167ZM183.032 156.2H186.032V159.2H183.032V156.2ZM183.032 167H186.032V170H183.032V167ZM179.432 152.6H182.432V155.6H179.432V152.6ZM179.432 163.4H182.432V166.4H179.432V163.4ZM215.423 145.4H218.423V148.4H215.423V145.4ZM211.823 145.4H214.823V148.4H211.823V145.4ZM208.223 145.4H211.223V148.4H208.223V145.4ZM204.623 145.4H207.623V148.4H204.623V145.4ZM201.023 145.4H204.023V148.4H201.023V145.4ZM201.023 149H204.023V152H201.023V149ZM215.423 167H218.423V170H215.423V167ZM211.823 156.2H214.823V159.2H211.823V156.2ZM211.823 167H214.823V170H211.823V167ZM208.223 156.2H211.223V159.2H208.223V156.2ZM208.223 167H211.223V170H208.223V167ZM204.623 156.2H207.623V159.2H204.623V156.2ZM204.623 167H207.623V170H204.623V167ZM201.023 152.6H204.023V155.6H201.023V152.6ZM201.023 156.2H204.023V159.2H201.023V156.2ZM201.023 159.8H204.023V162.8H201.023V159.8ZM201.023 163.4H204.023V166.4H201.023V163.4ZM201.023 167H204.023V170H201.023V167ZM249.607 149H252.607V152H249.607V149ZM246.007 145.4H249.007V148.4H246.007V145.4ZM242.407 145.4H245.407V148.4H242.407V145.4ZM238.807 145.4H241.807V148.4H238.807V145.4ZM235.207 145.4H238.207V148.4H235.207V145.4ZM235.207 149H238.207V152H235.207V149ZM249.607 152.6H252.607V155.6H249.607V152.6ZM246.007 156.2H249.007V159.2H246.007V156.2ZM242.407 156.2H245.407V159.2H242.407V156.2ZM238.807 156.2H241.807V159.2H238.807V156.2ZM235.207 152.6H238.207V155.6H235.207V152.6ZM235.207 156.2H238.207V159.2H235.207V156.2ZM235.207 159.8H238.207V162.8H235.207V159.8ZM235.207 163.4H238.207V166.4H235.207V163.4ZM235.207 167H238.207V170H235.207V167ZM271.199 149H274.199V152H271.199V149ZM267.599 145.4H270.599V148.4H267.599V145.4ZM263.999 145.4H266.999V148.4H263.999V145.4ZM260.399 145.4H263.399V148.4H260.399V145.4ZM256.799 149H259.799V152H256.799V149ZM271.199 152.6H274.199V155.6H271.199V152.6ZM271.199 156.2H274.199V159.2H271.199V156.2ZM271.199 159.8H274.199V162.8H271.199V159.8ZM271.199 163.4H274.199V166.4H271.199V163.4ZM271.199 167H274.199V170H271.199V167ZM267.599 156.2H270.599V159.2H267.599V156.2ZM263.999 156.2H266.999V159.2H263.999V156.2ZM260.399 156.2H263.399V159.2H260.399V156.2ZM256.799 152.6H259.799V155.6H256.799V152.6ZM256.799 156.2H259.799V159.2H256.799V156.2ZM256.799 159.8H259.799V162.8H256.799V159.8ZM256.799 163.4H259.799V166.4H256.799V163.4ZM256.799 167H259.799V170H256.799V167ZM292.791 149H295.791V152H292.791V149ZM289.191 145.4H292.191V148.4H289.191V145.4ZM285.591 145.4H288.591V148.4H285.591V145.4ZM281.991 145.4H284.991V148.4H281.991V145.4ZM278.391 145.4H281.391V148.4H278.391V145.4ZM278.391 149H281.391V152H278.391V149ZM292.791 152.6H295.791V155.6H292.791V152.6ZM292.791 167H295.791V170H292.791V167ZM289.191 156.2H292.191V159.2H289.191V156.2ZM289.191 163.4H292.191V166.4H289.191V163.4ZM285.591 156.2H288.591V159.2H285.591V156.2ZM285.591 159.8H288.591V162.8H285.591V159.8ZM281.991 156.2H284.991V159.2H281.991V156.2ZM278.391 152.6H281.391V155.6H278.391V152.6ZM278.391 156.2H281.391V159.2H278.391V156.2ZM278.391 159.8H281.391V162.8H278.391V159.8ZM278.391 163.4H281.391V166.4H278.391V163.4ZM278.391 167H281.391V170H278.391V167ZM314.382 145.4H317.382V148.4H314.382V145.4ZM310.782 145.4H313.782V148.4H310.782V145.4ZM307.182 145.4H310.182V148.4H307.182V145.4ZM307.182 149H310.182V152H307.182V149ZM303.582 145.4H306.582V148.4H303.582V145.4ZM299.982 145.4H302.982V148.4H299.982V145.4ZM307.182 152.6H310.182V155.6H307.182V152.6ZM307.182 156.2H310.182V159.2H307.182V156.2ZM307.182 159.8H310.182V162.8H307.182V159.8ZM307.182 163.4H310.182V166.4H307.182V163.4ZM307.182 167H310.182V170H307.182V167ZM335.974 145.4H338.974V148.4H335.974V145.4ZM332.374 145.4H335.374V148.4H332.374V145.4ZM328.774 145.4H331.774V148.4H328.774V145.4ZM325.174 145.4H328.174V148.4H325.174V145.4ZM321.574 145.4H324.574V148.4H321.574V145.4ZM321.574 149H324.574V152H321.574V149ZM335.974 167H338.974V170H335.974V167ZM332.374 156.2H335.374V159.2H332.374V156.2ZM332.374 167H335.374V170H332.374V167ZM328.774 156.2H331.774V159.2H328.774V156.2ZM328.774 167H331.774V170H328.774V167ZM325.174 156.2H328.174V159.2H325.174V156.2ZM325.174 167H328.174V170H325.174V167ZM321.574 152.6H324.574V155.6H321.574V152.6ZM321.574 156.2H324.574V159.2H321.574V156.2ZM321.574 159.8H324.574V162.8H321.574V159.8ZM321.574 163.4H324.574V166.4H321.574V163.4ZM321.574 167H324.574V170H321.574V167ZM357.566 149H360.566V152H357.566V149ZM353.966 145.4H356.966V148.4H353.966V145.4ZM350.366 145.4H353.366V148.4H350.366V145.4ZM346.766 145.4H349.766V148.4H346.766V145.4ZM343.166 149H346.166V152H343.166V149ZM357.566 159.8H360.566V162.8H357.566V159.8ZM357.566 163.4H360.566V166.4H357.566V163.4ZM353.966 156.2H356.966V159.2H353.966V156.2ZM353.966 167H356.966V170H353.966V167ZM350.366 156.2H353.366V159.2H350.366V156.2ZM350.366 167H353.366V170H350.366V167ZM346.766 156.2H349.766V159.2H346.766V156.2ZM346.766 167H349.766V170H346.766V167ZM343.166 152.6H346.166V155.6H343.166V152.6ZM343.166 163.4H346.166V166.4H343.166V163.4ZM165.004 179H168.004V182H165.004V179ZM161.404 175.4H164.404V178.4H161.404V175.4ZM157.804 175.4H160.804V178.4H157.804V175.4ZM154.204 175.4H157.204V178.4H154.204V175.4ZM150.604 179H153.604V182H150.604V179ZM165.004 182.6H168.004V185.6H165.004V182.6ZM165.004 186.2H168.004V189.2H165.004V186.2ZM165.004 189.8H168.004V192.8H165.004V189.8ZM165.004 193.4H168.004V196.4H165.004V193.4ZM165.004 197H168.004V200H165.004V197ZM161.404 186.2H164.404V189.2H161.404V186.2ZM157.804 186.2H160.804V189.2H157.804V186.2ZM154.204 186.2H157.204V189.2H154.204V186.2ZM150.604 182.6H153.604V185.6H150.604V182.6ZM150.604 186.2H153.604V189.2H150.604V186.2ZM150.604 189.8H153.604V192.8H150.604V189.8ZM150.604 193.4H153.604V196.4H150.604V193.4ZM150.604 197H153.604V200H150.604V197ZM199.187 179H202.187V182H199.187V179ZM195.587 175.4H198.587V178.4H195.587V175.4ZM191.987 175.4H194.987V178.4H191.987V175.4ZM188.387 175.4H191.387V178.4H188.387V175.4ZM184.787 175.4H187.787V178.4H184.787V175.4ZM184.787 179H187.787V182H184.787V179ZM199.187 182.6H202.187V185.6H199.187V182.6ZM199.187 186.2H202.187V189.2H199.187V186.2ZM199.187 189.8H202.187V192.8H199.187V189.8ZM199.187 193.4H202.187V196.4H199.187V193.4ZM195.587 197H198.587V200H195.587V197ZM191.987 197H194.987V200H191.987V197ZM188.387 197H191.387V200H188.387V197ZM184.787 182.6H187.787V185.6H184.787V182.6ZM184.787 186.2H187.787V189.2H184.787V186.2ZM184.787 189.8H187.787V192.8H184.787V189.8ZM184.787 193.4H187.787V196.4H184.787V193.4ZM184.787 197H187.787V200H184.787V197ZM213.579 175.4H216.579V178.4H213.579V175.4ZM209.979 175.4H212.979V178.4H209.979V175.4ZM209.979 179H212.979V182H209.979V179ZM206.379 175.4H209.379V178.4H206.379V175.4ZM213.579 197H216.579V200H213.579V197ZM209.979 182.6H212.979V185.6H209.979V182.6ZM209.979 186.2H212.979V189.2H209.979V186.2ZM209.979 189.8H212.979V192.8H209.979V189.8ZM209.979 193.4H212.979V196.4H209.979V193.4ZM209.979 197H212.979V200H209.979V197ZM206.379 197H209.379V200H206.379V197ZM235.193 175.4H238.193V178.4H235.193V175.4ZM235.193 179H238.193V182H235.193V179ZM220.793 175.4H223.793V178.4H220.793V175.4ZM220.793 179H223.793V182H220.793V179ZM235.193 182.6H238.193V185.6H235.193V182.6ZM235.193 186.2H238.193V189.2H235.193V186.2ZM235.193 189.8H238.193V192.8H235.193V189.8ZM231.593 193.4H234.593V196.4H231.593V193.4ZM227.993 197H230.993V200H227.993V197ZM224.393 193.4H227.393V196.4H224.393V193.4ZM220.793 182.6H223.793V185.6H220.793V182.6ZM220.793 186.2H223.793V189.2H220.793V186.2ZM220.793 189.8H223.793V192.8H220.793V189.8ZM249.585 175.4H252.585V178.4H249.585V175.4ZM245.985 175.4H248.985V178.4H245.985V175.4ZM245.985 179H248.985V182H245.985V179ZM242.385 175.4H245.385V178.4H242.385V175.4ZM249.585 197H252.585V200H249.585V197ZM245.985 182.6H248.985V185.6H245.985V182.6ZM245.985 186.2H248.985V189.2H245.985V186.2ZM245.985 189.8H248.985V192.8H245.985V189.8ZM245.985 193.4H248.985V196.4H245.985V193.4ZM245.985 197H248.985V200H245.985V197ZM242.385 197H245.385V200H242.385V197ZM271.199 179H274.199V182H271.199V179ZM267.599 175.4H270.599V178.4H267.599V175.4ZM263.999 175.4H266.999V178.4H263.999V175.4ZM260.399 175.4H263.399V178.4H260.399V175.4ZM256.799 175.4H259.799V178.4H256.799V175.4ZM256.799 179H259.799V182H256.799V179ZM271.199 182.6H274.199V185.6H271.199V182.6ZM271.199 186.2H274.199V189.2H271.199V186.2ZM271.199 189.8H274.199V192.8H271.199V189.8ZM271.199 193.4H274.199V196.4H271.199V193.4ZM267.599 197H270.599V200H267.599V197ZM263.999 197H266.999V200H263.999V197ZM260.399 197H263.399V200H260.399V197ZM256.799 182.6H259.799V185.6H256.799V182.6ZM256.799 186.2H259.799V189.2H256.799V186.2ZM256.799 189.8H259.799V192.8H256.799V189.8ZM256.799 193.4H259.799V196.4H256.799V193.4ZM256.799 197H259.799V200H256.799V197ZM285.591 175.4H288.591V178.4H285.591V175.4ZM281.991 175.4H284.991V178.4H281.991V175.4ZM281.991 179H284.991V182H281.991V179ZM278.391 175.4H281.391V178.4H278.391V175.4ZM285.591 197H288.591V200H285.591V197ZM281.991 182.6H284.991V185.6H281.991V182.6ZM281.991 186.2H284.991V189.2H281.991V186.2ZM281.991 189.8H284.991V192.8H281.991V189.8ZM281.991 193.4H284.991V196.4H281.991V193.4ZM281.991 197H284.991V200H281.991V197ZM278.391 197H281.391V200H278.391V197ZM307.205 179H310.205V182H307.205V179ZM303.605 175.4H306.605V178.4H303.605V175.4ZM300.005 175.4H303.005V178.4H300.005V175.4ZM296.405 175.4H299.405V178.4H296.405V175.4ZM292.805 175.4H295.805V178.4H292.805V175.4ZM292.805 179H295.805V182H292.805V179ZM307.205 182.6H310.205V185.6H307.205V182.6ZM307.205 197H310.205V200H307.205V197ZM303.605 186.2H306.605V189.2H303.605V186.2ZM303.605 193.4H306.605V196.4H303.605V193.4ZM300.005 186.2H303.005V189.2H300.005V186.2ZM300.005 189.8H303.005V192.8H300.005V189.8ZM296.405 186.2H299.405V189.2H296.405V186.2ZM292.805 182.6H295.805V185.6H292.805V182.6ZM292.805 186.2H295.805V189.2H292.805V186.2ZM292.805 189.8H295.805V192.8H292.805V189.8ZM292.805 193.4H295.805V196.4H292.805V193.4ZM292.805 197H295.805V200H292.805V197Z" fill="#5B65C2"/>
<path d="M93.7281 15H96.7281V18H93.7281V15ZM90.1281 11.4H93.1281V14.4H90.1281V11.4ZM86.5281 11.4H89.5281V14.4H86.5281V11.4ZM82.9281 11.4H85.9281V14.4H82.9281V11.4ZM79.3281 15H82.3281V18H79.3281V15ZM93.7281 29.4H96.7281V32.4H93.7281V29.4ZM90.1281 33H93.1281V36H90.1281V33ZM86.5281 33H89.5281V36H86.5281V33ZM82.9281 33H85.9281V36H82.9281V33ZM79.3281 18.6H82.3281V21.6H79.3281V18.6ZM79.3281 22.2H82.3281V25.2H79.3281V22.2ZM79.3281 25.8H82.3281V28.8H79.3281V25.8ZM79.3281 29.4H82.3281V32.4H79.3281V29.4ZM115.32 11.4H118.32V14.4H115.32V11.4ZM115.32 15H118.32V18H115.32V15ZM100.92 11.4H103.92V14.4H100.92V11.4ZM100.92 15H103.92V18H100.92V15ZM115.32 18.6H118.32V21.6H115.32V18.6ZM115.32 22.2H118.32V25.2H115.32V22.2ZM115.32 25.8H118.32V28.8H115.32V25.8ZM115.32 29.4H118.32V32.4H115.32V29.4ZM111.72 33H114.72V36H111.72V33ZM108.12 33H111.12V36H108.12V33ZM104.52 33H107.52V36H104.52V33ZM100.92 18.6H103.92V21.6H100.92V18.6ZM100.92 22.2H103.92V25.2H100.92V22.2ZM100.92 25.8H103.92V28.8H100.92V25.8ZM100.92 29.4H103.92V32.4H100.92V29.4ZM136.912 11.4H139.912V14.4H136.912V11.4ZM133.312 11.4H136.312V14.4H133.312V11.4ZM129.712 11.4H132.712V14.4H129.712V11.4ZM126.112 11.4H129.112V14.4H126.112V11.4ZM122.512 11.4H125.512V14.4H122.512V11.4ZM122.512 15H125.512V18H122.512V15ZM136.912 33H139.912V36H136.912V33ZM133.312 22.2H136.312V25.2H133.312V22.2ZM133.312 33H136.312V36H133.312V33ZM129.712 22.2H132.712V25.2H129.712V22.2ZM129.712 33H132.712V36H129.712V33ZM126.112 22.2H129.112V25.2H126.112V22.2ZM126.112 33H129.112V36H126.112V33ZM122.512 18.6H125.512V21.6H122.512V18.6ZM122.512 22.2H125.512V25.2H122.512V22.2ZM122.512 25.8H125.512V28.8H122.512V25.8ZM122.512 29.4H125.512V32.4H122.512V29.4ZM122.512 33H125.512V36H122.512V33ZM158.504 11.4H161.504V14.4H158.504V11.4ZM158.504 15H161.504V18H158.504V15ZM144.104 11.4H147.104V14.4H144.104V11.4ZM144.104 15H147.104V18H144.104V15ZM158.504 18.6H161.504V21.6H158.504V18.6ZM158.504 22.2H161.504V25.2H158.504V22.2ZM158.504 25.8H161.504V28.8H158.504V25.8ZM158.504 29.4H161.504V32.4H158.504V29.4ZM158.504 33H161.504V36H158.504V33ZM154.904 25.8H157.904V28.8H154.904V25.8ZM151.304 22.2H154.304V25.2H151.304V22.2ZM147.704 18.6H150.704V21.6H147.704V18.6ZM144.104 18.6H147.104V21.6H144.104V18.6ZM144.104 22.2H147.104V25.2H144.104V22.2ZM144.104 25.8H147.104V28.8H144.104V25.8ZM144.104 29.4H147.104V32.4H144.104V29.4ZM144.104 33H147.104V36H144.104V33ZM180.095 11.4H183.095V14.4H180.095V11.4ZM176.495 11.4H179.495V14.4H176.495V11.4ZM172.895 11.4H175.895V14.4H172.895V11.4ZM172.895 15H175.895V18H172.895V15ZM169.295 11.4H172.295V14.4H169.295V11.4ZM165.695 11.4H168.695V14.4H165.695V11.4ZM172.895 18.6H175.895V21.6H172.895V18.6ZM172.895 22.2H175.895V25.2H172.895V22.2ZM172.895 25.8H175.895V28.8H172.895V25.8ZM172.895 29.4H175.895V32.4H172.895V29.4ZM172.895 33H175.895V36H172.895V33ZM201.687 15H204.687V18H201.687V15ZM198.087 11.4H201.087V14.4H198.087V11.4ZM194.487 11.4H197.487V14.4H194.487V11.4ZM190.887 11.4H193.887V14.4H190.887V11.4ZM187.287 15H190.287V18H187.287V15ZM201.687 18.6H204.687V21.6H201.687V18.6ZM201.687 22.2H204.687V25.2H201.687V22.2ZM201.687 25.8H204.687V28.8H201.687V25.8ZM201.687 29.4H204.687V32.4H201.687V29.4ZM201.687 33H204.687V36H201.687V33ZM198.087 22.2H201.087V25.2H198.087V22.2ZM194.487 22.2H197.487V25.2H194.487V22.2ZM190.887 22.2H193.887V25.2H190.887V22.2ZM187.287 18.6H190.287V21.6H187.287V18.6ZM187.287 22.2H190.287V25.2H187.287V22.2ZM187.287 25.8H190.287V28.8H187.287V25.8ZM187.287 29.4H190.287V32.4H187.287V29.4ZM187.287 33H190.287V36H187.287V33ZM235.871 15H238.871V18H235.871V15ZM232.271 11.4H235.271V14.4H232.271V11.4ZM228.671 11.4H231.671V14.4H228.671V11.4ZM225.071 11.4H228.071V14.4H225.071V11.4ZM221.471 11.4H224.471V14.4H221.471V11.4ZM221.471 15H224.471V18H221.471V15ZM235.871 18.6H238.871V21.6H235.871V18.6ZM235.871 22.2H238.871V25.2H235.871V22.2ZM235.871 25.8H238.871V28.8H235.871V25.8ZM235.871 29.4H238.871V32.4H235.871V29.4ZM232.271 33H235.271V36H232.271V33ZM228.671 33H231.671V36H228.671V33ZM225.071 33H228.071V36H225.071V33ZM221.471 18.6H224.471V21.6H221.471V18.6ZM221.471 22.2H224.471V25.2H221.471V22.2ZM221.471 25.8H224.471V28.8H221.471V25.8ZM221.471 29.4H224.471V32.4H221.471V29.4ZM221.471 33H224.471V36H221.471V33ZM250.263 11.4H253.263V14.4H250.263V11.4ZM246.663 11.4H249.663V14.4H246.663V11.4ZM246.663 15H249.663V18H246.663V15ZM243.062 11.4H246.063V14.4H243.062V11.4ZM250.263 33H253.263V36H250.263V33ZM246.663 18.6H249.663V21.6H246.663V18.6ZM246.663 22.2H249.663V25.2H246.663V22.2ZM246.663 25.8H249.663V28.8H246.663V25.8ZM246.663 29.4H249.663V32.4H246.663V29.4ZM246.663 33H249.663V36H246.663V33ZM243.062 33H246.063V36H243.062V33ZM271.877 11.4H274.877V14.4H271.877V11.4ZM271.877 15H274.877V18H271.877V15ZM257.477 11.4H260.477V14.4H257.477V11.4ZM257.477 15H260.477V18H257.477V15ZM271.877 18.6H274.877V21.6H271.877V18.6ZM271.877 22.2H274.877V25.2H271.877V22.2ZM271.877 25.8H274.877V28.8H271.877V25.8ZM268.277 29.4H271.277V32.4H268.277V29.4ZM264.677 33H267.677V36H264.677V33ZM261.077 29.4H264.077V32.4H261.077V29.4ZM257.477 18.6H260.477V21.6H257.477V18.6ZM257.477 22.2H260.477V25.2H257.477V22.2ZM257.477 25.8H260.477V28.8H257.477V25.8ZM286.268 11.4H289.268V14.4H286.268V11.4ZM282.668 11.4H285.668V14.4H282.668V11.4ZM282.668 15H285.668V18H282.668V15ZM279.068 11.4H282.068V14.4H279.068V11.4ZM286.268 33H289.268V36H286.268V33ZM282.668 18.6H285.668V21.6H282.668V18.6ZM282.668 22.2H285.668V25.2H282.668V22.2ZM282.668 25.8H285.668V28.8H282.668V25.8ZM282.668 29.4H285.668V32.4H282.668V29.4ZM282.668 33H285.668V36H282.668V33ZM279.068 33H282.068V36H279.068V33ZM307.882 15H310.882V18H307.882V15ZM304.282 11.4H307.282V14.4H304.282V11.4ZM300.682 11.4H303.682V14.4H300.682V11.4ZM297.082 11.4H300.082V14.4H297.082V11.4ZM293.482 11.4H296.482V14.4H293.482V11.4ZM293.482 15H296.482V18H293.482V15ZM307.882 18.6H310.882V21.6H307.882V18.6ZM307.882 22.2H310.882V25.2H307.882V22.2ZM307.882 25.8H310.882V28.8H307.882V25.8ZM307.882 29.4H310.882V32.4H307.882V29.4ZM304.282 33H307.282V36H304.282V33ZM300.682 33H303.682V36H300.682V33ZM297.082 33H300.082V36H297.082V33ZM293.482 18.6H296.482V21.6H293.482V18.6ZM293.482 22.2H296.482V25.2H293.482V22.2ZM293.482 25.8H296.482V28.8H293.482V25.8ZM293.482 29.4H296.482V32.4H293.482V29.4ZM293.482 33H296.482V36H293.482V33ZM322.274 11.4H325.274V14.4H322.274V11.4ZM318.674 11.4H321.674V14.4H318.674V11.4ZM318.674 15H321.674V18H318.674V15ZM315.074 11.4H318.074V14.4H315.074V11.4ZM322.274 33H325.274V36H322.274V33ZM318.674 18.6H321.674V21.6H318.674V18.6ZM318.674 22.2H321.674V25.2H318.674V22.2ZM318.674 25.8H321.674V28.8H318.674V25.8ZM318.674 29.4H321.674V32.4H318.674V29.4ZM318.674 33H321.674V36H318.674V33ZM315.074 33H318.074V36H315.074V33ZM343.888 15H346.888V18H343.888V15ZM340.288 11.4H343.288V14.4H340.288V11.4ZM336.688 11.4H339.688V14.4H336.688V11.4ZM333.088 11.4H336.088V14.4H333.088V11.4ZM329.488 11.4H332.488V14.4H329.488V11.4ZM329.488 15H332.488V18H329.488V15ZM343.888 18.6H346.888V21.6H343.888V18.6ZM343.888 22.2H346.888V25.2H343.888V22.2ZM343.888 25.8H346.888V28.8H343.888V25.8ZM343.888 29.4H346.888V32.4H343.888V29.4ZM340.288 33H343.288V36H340.288V33ZM336.688 33H339.688V36H336.688V33ZM333.088 33H336.088V36H333.088V33ZM329.488 18.6H332.488V21.6H329.488V18.6ZM329.488 22.2H332.488V25.2H329.488V22.2ZM329.488 25.8H332.488V28.8H329.488V25.8ZM329.488 29.4H332.488V32.4H329.488V29.4ZM329.488 33H332.488V36H329.488V33ZM365.48 15H368.48V18H365.48V15ZM361.88 11.4H364.88V14.4H361.88V11.4ZM358.28 11.4H361.28V14.4H358.28V11.4ZM354.68 11.4H357.68V14.4H354.68V11.4ZM351.08 15H354.08V18H351.08V15ZM365.48 18.6H368.48V21.6H365.48V18.6ZM365.48 22.2H368.48V25.2H365.48V22.2ZM365.48 25.8H368.48V28.8H365.48V25.8ZM365.48 29.4H368.48V32.4H365.48V29.4ZM365.48 33H368.48V36H365.48V33ZM361.88 22.2H364.88V25.2H361.88V22.2ZM358.28 22.2H361.28V25.2H358.28V22.2ZM354.68 22.2H357.68V25.2H354.68V22.2ZM351.08 18.6H354.08V21.6H351.08V18.6ZM351.08 22.2H354.08V25.2H351.08V22.2ZM351.08 25.8H354.08V28.8H351.08V25.8ZM351.08 29.4H354.08V32.4H351.08V29.4ZM351.08 33H354.08V36H351.08V33Z" fill="white"/>
<rect x="108.5" y="224.5" width="342" height="54" stroke="#5B65C2" stroke-width="3"/>
<rect x="1.5" y="1.5" width="449" height="277" stroke="#5B65C2" stroke-width="3"/>
</svg>
