<svg width="452" height="280" viewBox="0 0 452 280" fill="none" xmlns="http://www.w3.org/2000/svg">
<rect width="452" height="280" fill="white"/>
<rect width="452" height="47" fill="#5B65C2"/>
<path d="M192.921 196H195.921V199H192.921V196ZM185.721 196H188.721V199H185.721V196ZM178.521 196H181.521V199H178.521V196ZM192.921 203.2H195.921V206.2H192.921V203.2ZM192.921 210.4H195.921V213.4H192.921V210.4ZM189.321 199.6H192.321V202.6H189.321V199.6ZM189.321 203.2H192.321V206.2H189.321V203.2ZM189.321 206.8H192.321V209.8H189.321V206.8ZM185.721 199.6H188.721V202.6H185.721V199.6ZM185.721 206.8H188.721V209.8H185.721V206.8ZM185.721 210.4H188.721V213.4H185.721V210.4ZM182.121 199.6H185.121V202.6H182.121V199.6ZM182.121 203.2H185.121V206.2H182.121V203.2ZM182.121 206.8H185.121V209.8H182.121V206.8ZM178.521 203.2H181.521V206.2H178.521V203.2ZM178.521 210.4H181.521V213.4H178.521V210.4ZM214.512 196H217.512V199H214.512V196ZM207.312 196H210.312V199H207.312V196ZM200.112 196H203.112V199H200.112V196ZM214.512 203.2H217.512V206.2H214.512V203.2ZM214.512 210.4H217.512V213.4H214.512V210.4ZM210.912 199.6H213.912V202.6H210.912V199.6ZM210.912 203.2H213.912V206.2H210.912V203.2ZM210.912 206.8H213.912V209.8H210.912V206.8ZM207.312 199.6H210.312V202.6H207.312V199.6ZM207.312 206.8H210.312V209.8H207.312V206.8ZM207.312 210.4H210.312V213.4H207.312V210.4ZM203.712 199.6H206.712V202.6H203.712V199.6ZM203.712 203.2H206.712V206.2H203.712V203.2ZM203.712 206.8H206.712V209.8H203.712V206.8ZM200.112 203.2H203.112V206.2H200.112V203.2ZM200.112 210.4H203.112V213.4H200.112V210.4ZM236.104 196H239.104V199H236.104V196ZM228.904 196H231.904V199H228.904V196ZM221.704 196H224.704V199H221.704V196ZM236.104 203.2H239.104V206.2H236.104V203.2ZM236.104 210.4H239.104V213.4H236.104V210.4ZM232.504 199.6H235.504V202.6H232.504V199.6ZM232.504 203.2H235.504V206.2H232.504V203.2ZM232.504 206.8H235.504V209.8H232.504V206.8ZM228.904 199.6H231.904V202.6H228.904V199.6ZM228.904 206.8H231.904V209.8H228.904V206.8ZM228.904 210.4H231.904V213.4H228.904V210.4ZM225.304 199.6H228.304V202.6H225.304V199.6ZM225.304 203.2H228.304V206.2H225.304V203.2ZM225.304 206.8H228.304V209.8H225.304V206.8ZM221.704 203.2H224.704V206.2H221.704V203.2ZM221.704 210.4H224.704V213.4H221.704V210.4ZM257.696 196H260.696V199H257.696V196ZM250.496 196H253.496V199H250.496V196ZM243.296 196H246.296V199H243.296V196ZM257.696 203.2H260.696V206.2H257.696V203.2ZM257.696 210.4H260.696V213.4H257.696V210.4ZM254.096 199.6H257.096V202.6H254.096V199.6ZM254.096 203.2H257.096V206.2H254.096V203.2ZM254.096 206.8H257.096V209.8H254.096V206.8ZM250.496 199.6H253.496V202.6H250.496V199.6ZM250.496 206.8H253.496V209.8H250.496V206.8ZM250.496 210.4H253.496V213.4H250.496V210.4ZM246.896 199.6H249.896V202.6H246.896V199.6ZM246.896 203.2H249.896V206.2H246.896V203.2ZM246.896 206.8H249.896V209.8H246.896V206.8ZM243.296 203.2H246.296V206.2H243.296V203.2ZM243.296 210.4H246.296V213.4H243.296V210.4ZM279.288 196H282.288V199H279.288V196ZM272.088 196H275.088V199H272.088V196ZM264.888 196H267.888V199H264.888V196ZM279.288 203.2H282.288V206.2H279.288V203.2ZM279.288 210.4H282.288V213.4H279.288V210.4ZM275.688 199.6H278.688V202.6H275.688V199.6ZM275.688 203.2H278.688V206.2H275.688V203.2ZM275.688 206.8H278.688V209.8H275.688V206.8ZM272.088 199.6H275.088V202.6H272.088V199.6ZM272.088 206.8H275.088V209.8H272.088V206.8ZM272.088 210.4H275.088V213.4H272.088V210.4ZM268.488 199.6H271.488V202.6H268.488V199.6ZM268.488 203.2H271.488V206.2H268.488V203.2ZM268.488 206.8H271.488V209.8H268.488V206.8ZM264.888 203.2H267.888V206.2H264.888V203.2ZM264.888 210.4H267.888V213.4H264.888V210.4Z" fill="#5B65C2"/>
<path d="M151.723 91.6H154.723V94.6H151.723V91.6ZM151.723 62.8H154.723V65.8H151.723V62.8ZM151.723 80.8H154.723V83.8H151.723V80.8ZM151.723 84.4H154.723V87.4H151.723V84.4ZM151.723 70H154.723V73H151.723V70ZM151.723 73.6H154.723V76.6H151.723V73.6ZM158.923 70H161.923V73H158.923V70ZM155.323 66.4H158.323V69.4H155.323V66.4ZM151.723 66.4H154.723V69.4H151.723V66.4ZM148.123 66.4H151.123V69.4H148.123V66.4ZM144.523 70H147.523V73H144.523V70ZM158.923 80.8H161.923V83.8H158.923V80.8ZM158.923 84.4H161.923V87.4H158.923V84.4ZM155.323 77.2H158.323V80.2H155.323V77.2ZM155.323 88H158.323V91H155.323V88ZM151.723 77.2H154.723V80.2H151.723V77.2ZM151.723 88H154.723V91H151.723V88ZM148.123 77.2H151.123V80.2H148.123V77.2ZM148.123 88H151.123V91H148.123V88ZM144.523 73.6H147.523V76.6H144.523V73.6ZM144.523 84.4H147.523V87.4H144.523V84.4ZM158.923 70H161.923V73H158.923V70ZM155.323 66.4H158.323V69.4H155.323V66.4ZM151.723 66.4H154.723V69.4H151.723V66.4ZM148.123 66.4H151.123V69.4H148.123V66.4ZM144.523 70H147.523V73H144.523V70ZM158.923 80.8H161.923V83.8H158.923V80.8ZM158.923 84.4H161.923V87.4H158.923V84.4ZM155.323 77.2H158.323V80.2H155.323V77.2ZM155.323 88H158.323V91H155.323V88ZM151.723 77.2H154.723V80.2H151.723V77.2ZM151.723 88H154.723V91H151.723V88ZM148.123 77.2H151.123V80.2H148.123V77.2ZM148.123 88H151.123V91H148.123V88ZM144.523 73.6H147.523V76.6H144.523V73.6ZM144.523 84.4H147.523V87.4H144.523V84.4ZM180.515 70H183.515V73H180.515V70ZM176.915 66.4H179.915V69.4H176.915V66.4ZM173.315 66.4H176.315V69.4H173.315V66.4ZM169.715 66.4H172.715V69.4H169.715V66.4ZM166.115 70H169.115V73H166.115V70ZM180.515 73.6H183.515V76.6H180.515V73.6ZM180.515 88H183.515V91H180.515V88ZM176.915 77.2H179.915V80.2H176.915V77.2ZM176.915 88H179.915V91H176.915V88ZM173.315 80.8H176.315V83.8H173.315V80.8ZM173.315 88H176.315V91H173.315V88ZM169.715 84.4H172.715V87.4H169.715V84.4ZM169.715 88H172.715V91H169.715V88ZM166.115 88H169.115V91H166.115V88ZM198.507 66.4H201.507V69.4H198.507V66.4ZM194.907 66.4H197.907V69.4H194.907V66.4ZM191.307 66.4H194.307V69.4H191.307V66.4ZM187.707 70H190.707V73H187.707V70ZM202.107 77.2H205.107V80.2H202.107V77.2ZM202.107 80.8H205.107V83.8H202.107V80.8ZM202.107 84.4H205.107V87.4H202.107V84.4ZM198.507 73.6H201.507V76.6H198.507V73.6ZM198.507 88H201.507V91H198.507V88ZM194.907 73.6H197.907V76.6H194.907V73.6ZM194.907 88H197.907V91H194.907V88ZM191.307 73.6H194.307V76.6H191.307V73.6ZM191.307 88H194.307V91H191.307V88ZM187.707 73.6H190.707V76.6H187.707V73.6ZM187.707 77.2H190.707V80.2H187.707V77.2ZM187.707 80.8H190.707V83.8H187.707V80.8ZM187.707 84.4H190.707V87.4H187.707V84.4ZM212.899 84.4H215.899V87.4H212.899V84.4ZM212.899 88H215.899V91H212.899V88ZM209.299 84.4H212.299V87.4H209.299V84.4ZM209.299 88H212.299V91H209.299V88ZM230.909 66.4H233.909V69.4H230.909V66.4ZM230.909 70H233.909V73H230.909V70ZM227.309 70H230.309V73H227.309V70ZM234.509 80.8H237.509V83.8H234.509V80.8ZM230.909 73.6H233.909V76.6H230.909V73.6ZM230.909 77.2H233.909V80.2H230.909V77.2ZM230.909 80.8H233.909V83.8H230.909V80.8ZM230.909 84.4H233.909V87.4H230.909V84.4ZM230.909 88H233.909V91H230.909V88ZM227.309 80.8H230.309V83.8H227.309V80.8ZM223.709 73.6H226.709V76.6H223.709V73.6ZM223.709 80.8H226.709V83.8H223.709V80.8ZM220.109 77.2H223.109V80.2H220.109V77.2ZM220.109 80.8H223.109V83.8H220.109V80.8ZM256.101 70H259.101V73H256.101V70ZM252.501 66.4H255.501V69.4H252.501V66.4ZM248.901 66.4H251.901V69.4H248.901V66.4ZM245.301 66.4H248.301V69.4H245.301V66.4ZM241.701 70H244.701V73H241.701V70ZM256.101 73.6H259.101V76.6H256.101V73.6ZM256.101 77.2H259.101V80.2H256.101V77.2ZM256.101 80.8H259.101V83.8H256.101V80.8ZM256.101 84.4H259.101V87.4H256.101V84.4ZM252.501 73.6H255.501V76.6H252.501V73.6ZM252.501 88H255.501V91H252.501V88ZM248.901 77.2H251.901V80.2H248.901V77.2ZM248.901 88H251.901V91H248.901V88ZM245.301 80.8H248.301V83.8H245.301V80.8ZM245.301 88H248.301V91H245.301V88ZM241.701 73.6H244.701V76.6H241.701V73.6ZM241.701 77.2H244.701V80.2H241.701V77.2ZM241.701 80.8H244.701V83.8H241.701V80.8ZM241.701 84.4H244.701V87.4H241.701V84.4ZM277.693 70H280.693V73H277.693V70ZM274.093 66.4H277.093V69.4H274.093V66.4ZM270.493 66.4H273.493V69.4H270.493V66.4ZM266.893 66.4H269.893V69.4H266.893V66.4ZM263.293 70H266.293V73H263.293V70ZM277.693 73.6H280.693V76.6H277.693V73.6ZM277.693 77.2H280.693V80.2H277.693V77.2ZM277.693 80.8H280.693V83.8H277.693V80.8ZM277.693 84.4H280.693V87.4H277.693V84.4ZM274.093 73.6H277.093V76.6H274.093V73.6ZM274.093 88H277.093V91H274.093V88ZM270.493 77.2H273.493V80.2H270.493V77.2ZM270.493 88H273.493V91H270.493V88ZM266.893 80.8H269.893V83.8H266.893V80.8ZM266.893 88H269.893V91H266.893V88ZM263.293 73.6H266.293V76.6H263.293V73.6ZM263.293 77.2H266.293V80.2H263.293V77.2ZM263.293 80.8H266.293V83.8H263.293V80.8ZM263.293 84.4H266.293V87.4H263.293V84.4ZM299.285 70H302.285V73H299.285V70ZM295.685 66.4H298.685V69.4H295.685V66.4ZM292.085 66.4H295.085V69.4H292.085V66.4ZM288.485 66.4H291.485V69.4H288.485V66.4ZM284.885 70H287.885V73H284.885V70ZM299.285 73.6H302.285V76.6H299.285V73.6ZM299.285 77.2H302.285V80.2H299.285V77.2ZM299.285 80.8H302.285V83.8H299.285V80.8ZM299.285 84.4H302.285V87.4H299.285V84.4ZM295.685 73.6H298.685V76.6H295.685V73.6ZM295.685 88H298.685V91H295.685V88ZM292.085 77.2H295.085V80.2H292.085V77.2ZM292.085 88H295.085V91H292.085V88ZM288.485 80.8H291.485V83.8H288.485V80.8ZM288.485 88H291.485V91H288.485V88ZM284.885 73.6H287.885V76.6H284.885V73.6ZM284.885 77.2H287.885V80.2H284.885V77.2ZM284.885 80.8H287.885V83.8H284.885V80.8ZM284.885 84.4H287.885V87.4H284.885V84.4ZM95.9422 99.4H98.9422V102.4H95.9422V99.4ZM92.3422 99.4H95.3422V102.4H92.3422V99.4ZM92.3422 103H95.3422V106H92.3422V103ZM88.7422 99.4H91.7422V102.4H88.7422V99.4ZM95.9422 121H98.9422V124H95.9422V121ZM92.3422 106.6H95.3422V109.6H92.3422V106.6ZM92.3422 110.2H95.3422V113.2H92.3422V110.2ZM92.3422 113.8H95.3422V116.8H92.3422V113.8ZM92.3422 117.4H95.3422V120.4H92.3422V117.4ZM92.3422 121H95.3422V124H92.3422V121ZM88.7422 121H91.7422V124H88.7422V121ZM117.556 99.4H120.556V102.4H117.556V99.4ZM117.556 103H120.556V106H117.556V103ZM103.156 99.4H106.156V102.4H103.156V99.4ZM103.156 103H106.156V106H103.156V103ZM117.556 106.6H120.556V109.6H117.556V106.6ZM117.556 110.2H120.556V113.2H117.556V110.2ZM117.556 113.8H120.556V116.8H117.556V113.8ZM117.556 117.4H120.556V120.4H117.556V117.4ZM117.556 121H120.556V124H117.556V121ZM113.956 113.8H116.956V116.8H113.956V113.8ZM110.356 110.2H113.356V113.2H110.356V110.2ZM106.756 106.6H109.756V109.6H106.756V106.6ZM103.156 106.6H106.156V109.6H103.156V106.6ZM103.156 110.2H106.156V113.2H103.156V110.2ZM103.156 113.8H106.156V116.8H103.156V113.8ZM103.156 117.4H106.156V120.4H103.156V117.4ZM103.156 121H106.156V124H103.156V121ZM139.148 103H142.148V106H139.148V103ZM135.548 99.4H138.548V102.4H135.548V99.4ZM131.948 99.4H134.948V102.4H131.948V99.4ZM128.348 99.4H131.348V102.4H128.348V99.4ZM124.748 103H127.748V106H124.748V103ZM139.148 113.8H142.148V116.8H139.148V113.8ZM139.148 117.4H142.148V120.4H139.148V117.4ZM135.548 113.8H138.548V116.8H135.548V113.8ZM135.548 121H138.548V124H135.548V121ZM131.948 121H134.948V124H131.948V121ZM128.348 121H131.348V124H128.348V121ZM124.748 106.6H127.748V109.6H124.748V106.6ZM124.748 110.2H127.748V113.2H124.748V110.2ZM124.748 113.8H127.748V116.8H124.748V113.8ZM124.748 117.4H127.748V120.4H124.748V117.4ZM160.74 103H163.74V106H160.74V103ZM157.14 99.4H160.14V102.4H157.14V99.4ZM153.54 99.4H156.54V102.4H153.54V99.4ZM149.94 99.4H152.94V102.4H149.94V99.4ZM146.34 99.4H149.34V102.4H146.34V99.4ZM146.34 103H149.34V106H146.34V103ZM160.74 106.6H163.74V109.6H160.74V106.6ZM160.74 121H163.74V124H160.74V121ZM157.14 110.2H160.14V113.2H157.14V110.2ZM157.14 117.4H160.14V120.4H157.14V117.4ZM153.54 110.2H156.54V113.2H153.54V110.2ZM153.54 113.8H156.54V116.8H153.54V113.8ZM149.94 110.2H152.94V113.2H149.94V110.2ZM146.34 106.6H149.34V109.6H146.34V106.6ZM146.34 110.2H149.34V113.2H146.34V110.2ZM146.34 113.8H149.34V116.8H146.34V113.8ZM146.34 117.4H149.34V120.4H146.34V117.4ZM146.34 121H149.34V124H146.34V121ZM182.332 99.4H185.332V102.4H182.332V99.4ZM178.732 99.4H181.732V102.4H178.732V99.4ZM175.132 99.4H178.132V102.4H175.132V99.4ZM171.532 99.4H174.532V102.4H171.532V99.4ZM167.932 99.4H170.932V102.4H167.932V99.4ZM167.932 103H170.932V106H167.932V103ZM182.332 121H185.332V124H182.332V121ZM178.732 110.2H181.732V113.2H178.732V110.2ZM178.732 121H181.732V124H178.732V121ZM175.132 110.2H178.132V113.2H175.132V110.2ZM175.132 121H178.132V124H175.132V121ZM171.532 110.2H174.532V113.2H171.532V110.2ZM171.532 121H174.532V124H171.532V121ZM167.932 106.6H170.932V109.6H167.932V106.6ZM167.932 110.2H170.932V113.2H167.932V110.2ZM167.932 113.8H170.932V116.8H167.932V113.8ZM167.932 117.4H170.932V120.4H167.932V117.4ZM167.932 121H170.932V124H167.932V121ZM203.923 103H206.923V106H203.923V103ZM200.323 99.4H203.323V102.4H200.323V99.4ZM196.723 99.4H199.723V102.4H196.723V99.4ZM193.123 99.4H196.123V102.4H193.123V99.4ZM189.523 103H192.523V106H189.523V103ZM203.923 113.8H206.923V116.8H203.923V113.8ZM203.923 117.4H206.923V120.4H203.923V117.4ZM200.323 110.2H203.323V113.2H200.323V110.2ZM200.323 121H203.323V124H200.323V121ZM196.723 110.2H199.723V113.2H196.723V110.2ZM196.723 121H199.723V124H196.723V121ZM193.123 110.2H196.123V113.2H193.123V110.2ZM193.123 121H196.123V124H193.123V121ZM189.523 106.6H192.523V109.6H189.523V106.6ZM189.523 117.4H192.523V120.4H189.523V117.4ZM225.515 99.4H228.515V102.4H225.515V99.4ZM221.915 99.4H224.915V102.4H221.915V99.4ZM218.315 99.4H221.315V102.4H218.315V99.4ZM214.715 99.4H217.715V102.4H214.715V99.4ZM211.115 99.4H214.115V102.4H211.115V99.4ZM211.115 103H214.115V106H211.115V103ZM225.515 121H228.515V124H225.515V121ZM221.915 110.2H224.915V113.2H221.915V110.2ZM221.915 121H224.915V124H221.915V121ZM218.315 110.2H221.315V113.2H218.315V110.2ZM218.315 121H221.315V124H218.315V121ZM214.715 110.2H217.715V113.2H214.715V110.2ZM214.715 121H217.715V124H214.715V121ZM211.115 106.6H214.115V109.6H211.115V106.6ZM211.115 110.2H214.115V113.2H211.115V110.2ZM211.115 113.8H214.115V116.8H211.115V113.8ZM211.115 117.4H214.115V120.4H211.115V117.4ZM211.115 121H214.115V124H211.115V121ZM268.699 103H271.699V106H268.699V103ZM265.099 99.4H268.099V102.4H265.099V99.4ZM261.499 99.4H264.499V102.4H261.499V99.4ZM257.899 99.4H260.899V102.4H257.899V99.4ZM254.299 103H257.299V106H254.299V103ZM268.699 117.4H271.699V120.4H268.699V117.4ZM265.099 121H268.099V124H265.099V121ZM261.499 121H264.499V124H261.499V121ZM257.899 121H260.899V124H257.899V121ZM254.299 106.6H257.299V109.6H254.299V106.6ZM254.299 110.2H257.299V113.2H254.299V110.2ZM254.299 113.8H257.299V116.8H254.299V113.8ZM254.299 117.4H257.299V120.4H254.299V117.4ZM275.891 99.4H278.891V102.4H275.891V99.4ZM275.891 103H278.891V106H275.891V103ZM290.291 121H293.291V124H290.291V121ZM286.691 121H289.691V124H286.691V121ZM283.091 121H286.091V124H283.091V121ZM279.491 121H282.491V124H279.491V121ZM275.891 106.6H278.891V109.6H275.891V106.6ZM275.891 110.2H278.891V113.2H275.891V110.2ZM275.891 113.8H278.891V116.8H275.891V113.8ZM275.891 117.4H278.891V120.4H275.891V117.4ZM275.891 121H278.891V124H275.891V121ZM311.882 103H314.882V106H311.882V103ZM308.282 99.4H311.282V102.4H308.282V99.4ZM304.682 99.4H307.682V102.4H304.682V99.4ZM301.082 99.4H304.082V102.4H301.082V99.4ZM297.482 103H300.482V106H297.482V103ZM311.882 106.6H314.882V109.6H311.882V106.6ZM311.882 110.2H314.882V113.2H311.882V110.2ZM311.882 113.8H314.882V116.8H311.882V113.8ZM311.882 117.4H314.882V120.4H311.882V117.4ZM311.882 121H314.882V124H311.882V121ZM308.282 110.2H311.282V113.2H308.282V110.2ZM304.682 110.2H307.682V113.2H304.682V110.2ZM301.082 110.2H304.082V113.2H301.082V110.2ZM297.482 106.6H300.482V109.6H297.482V106.6ZM297.482 110.2H300.482V113.2H297.482V110.2ZM297.482 113.8H300.482V116.8H297.482V113.8ZM297.482 117.4H300.482V120.4H297.482V117.4ZM297.482 121H300.482V124H297.482V121ZM333.474 99.4H336.474V102.4H333.474V99.4ZM333.474 103H336.474V106H333.474V103ZM319.074 99.4H322.074V102.4H319.074V99.4ZM319.074 103H322.074V106H319.074V103ZM333.474 106.6H336.474V109.6H333.474V106.6ZM333.474 110.2H336.474V113.2H333.474V110.2ZM333.474 113.8H336.474V116.8H333.474V113.8ZM329.874 117.4H332.874V120.4H329.874V117.4ZM326.274 121H329.274V124H326.274V121ZM322.674 117.4H325.674V120.4H322.674V117.4ZM319.074 106.6H322.074V109.6H319.074V106.6ZM319.074 110.2H322.074V113.2H319.074V110.2ZM319.074 113.8H322.074V116.8H319.074V113.8ZM355.066 99.4H358.066V102.4H355.066V99.4ZM351.466 99.4H354.466V102.4H351.466V99.4ZM347.866 99.4H350.866V102.4H347.866V99.4ZM344.266 99.4H347.266V102.4H344.266V99.4ZM340.666 99.4H343.666V102.4H340.666V99.4ZM340.666 103H343.666V106H340.666V103ZM355.066 121H358.066V124H355.066V121ZM351.466 110.2H354.466V113.2H351.466V110.2ZM351.466 121H354.466V124H351.466V121ZM347.866 110.2H350.866V113.2H347.866V110.2ZM347.866 121H350.866V124H347.866V121ZM344.266 110.2H347.266V113.2H344.266V110.2ZM344.266 121H347.266V124H344.266V121ZM340.666 106.6H343.666V109.6H340.666V106.6ZM340.666 110.2H343.666V113.2H340.666V110.2ZM340.666 113.8H343.666V116.8H340.666V113.8ZM340.666 117.4H343.666V120.4H340.666V117.4ZM340.666 121H343.666V124H340.666V121Z" fill="#5B65C2"/>
<path d="M56.8404 11.4H59.8404V14.4H56.8404V11.4ZM56.8404 15H59.8404V18H56.8404V15ZM42.4404 11.4H45.4404V14.4H42.4404V11.4ZM42.4404 15H45.4404V18H42.4404V15ZM56.8404 18.6H59.8404V21.6H56.8404V18.6ZM56.8404 22.2H59.8404V25.2H56.8404V22.2ZM56.8404 25.8H59.8404V28.8H56.8404V25.8ZM53.2404 29.4H56.2404V32.4H53.2404V29.4ZM49.6404 33H52.6404V36H49.6404V33ZM46.0404 29.4H49.0404V32.4H46.0404V29.4ZM42.4404 18.6H45.4404V21.6H42.4404V18.6ZM42.4404 22.2H45.4404V25.2H42.4404V22.2ZM42.4404 25.8H45.4404V28.8H42.4404V25.8ZM78.4322 11.4H81.4322V14.4H78.4322V11.4ZM74.8322 11.4H77.8322V14.4H74.8322V11.4ZM71.2322 11.4H74.2322V14.4H71.2322V11.4ZM67.6322 11.4H70.6322V14.4H67.6322V11.4ZM64.0322 11.4H67.0322V14.4H64.0322V11.4ZM64.0322 15H67.0322V18H64.0322V15ZM78.4322 33H81.4322V36H78.4322V33ZM74.8322 22.2H77.8322V25.2H74.8322V22.2ZM74.8322 33H77.8322V36H74.8322V33ZM71.2322 22.2H74.2322V25.2H71.2322V22.2ZM71.2322 33H74.2322V36H71.2322V33ZM67.6322 22.2H70.6322V25.2H67.6322V22.2ZM67.6322 33H70.6322V36H67.6322V33ZM64.0322 18.6H67.0322V21.6H64.0322V18.6ZM64.0322 22.2H67.0322V25.2H64.0322V22.2ZM64.0322 25.8H67.0322V28.8H64.0322V25.8ZM64.0322 29.4H67.0322V32.4H64.0322V29.4ZM64.0322 33H67.0322V36H64.0322V33ZM100.024 11.4H103.024V14.4H100.024V11.4ZM100.024 15H103.024V18H100.024V15ZM85.624 11.4H88.624V14.4H85.624V11.4ZM85.624 15H88.624V18H85.624V15ZM100.024 18.6H103.024V21.6H100.024V18.6ZM100.024 22.2H103.024V25.2H100.024V22.2ZM100.024 25.8H103.024V28.8H100.024V25.8ZM100.024 29.4H103.024V32.4H100.024V29.4ZM100.024 33H103.024V36H100.024V33ZM96.424 25.8H99.424V28.8H96.424V25.8ZM92.824 22.2H95.824V25.2H92.824V22.2ZM89.224 18.6H92.224V21.6H89.224V18.6ZM85.624 18.6H88.624V21.6H85.624V18.6ZM85.624 22.2H88.624V25.2H85.624V22.2ZM85.624 25.8H88.624V28.8H85.624V25.8ZM85.624 29.4H88.624V32.4H85.624V29.4ZM85.624 33H88.624V36H85.624V33ZM121.616 11.4H124.616V14.4H121.616V11.4ZM118.016 11.4H121.016V14.4H118.016V11.4ZM114.416 11.4H117.416V14.4H114.416V11.4ZM114.416 15H117.416V18H114.416V15ZM110.816 11.4H113.816V14.4H110.816V11.4ZM107.216 11.4H110.216V14.4H107.216V11.4ZM114.416 18.6H117.416V21.6H114.416V18.6ZM114.416 22.2H117.416V25.2H114.416V22.2ZM114.416 25.8H117.416V28.8H114.416V25.8ZM114.416 29.4H117.416V32.4H114.416V29.4ZM114.416 33H117.416V36H114.416V33ZM143.208 15H146.208V18H143.208V15ZM139.608 11.4H142.608V14.4H139.608V11.4ZM136.008 11.4H139.008V14.4H136.008V11.4ZM132.408 11.4H135.408V14.4H132.408V11.4ZM128.808 15H131.808V18H128.808V15ZM143.208 18.6H146.208V21.6H143.208V18.6ZM143.208 22.2H146.208V25.2H143.208V22.2ZM143.208 25.8H146.208V28.8H143.208V25.8ZM143.208 29.4H146.208V32.4H143.208V29.4ZM143.208 33H146.208V36H143.208V33ZM139.608 22.2H142.608V25.2H139.608V22.2ZM136.008 22.2H139.008V25.2H136.008V22.2ZM132.408 22.2H135.408V25.2H132.408V22.2ZM128.808 18.6H131.808V21.6H128.808V18.6ZM128.808 22.2H131.808V25.2H128.808V22.2ZM128.808 25.8H131.808V28.8H128.808V25.8ZM128.808 29.4H131.808V32.4H128.808V29.4ZM128.808 33H131.808V36H128.808V33ZM186.391 15H189.391V18H186.391V15ZM182.791 11.4H185.791V14.4H182.791V11.4ZM179.191 11.4H182.191V14.4H179.191V11.4ZM175.591 11.4H178.591V14.4H175.591V11.4ZM171.991 11.4H174.991V14.4H171.991V11.4ZM171.991 15H174.991V18H171.991V15ZM186.391 18.6H189.391V21.6H186.391V18.6ZM186.391 22.2H189.391V25.2H186.391V22.2ZM186.391 25.8H189.391V28.8H186.391V25.8ZM186.391 29.4H189.391V32.4H186.391V29.4ZM182.791 33H185.791V36H182.791V33ZM179.191 33H182.191V36H179.191V33ZM175.591 33H178.591V36H175.591V33ZM171.991 18.6H174.991V21.6H171.991V18.6ZM171.991 22.2H174.991V25.2H171.991V22.2ZM171.991 25.8H174.991V28.8H171.991V25.8ZM171.991 29.4H174.991V32.4H171.991V29.4ZM171.991 33H174.991V36H171.991V33ZM200.783 11.4H203.783V14.4H200.783V11.4ZM197.183 11.4H200.183V14.4H197.183V11.4ZM197.183 15H200.183V18H197.183V15ZM193.583 11.4H196.583V14.4H193.583V11.4ZM200.783 33H203.783V36H200.783V33ZM197.183 18.6H200.183V21.6H197.183V18.6ZM197.183 22.2H200.183V25.2H197.183V22.2ZM197.183 25.8H200.183V28.8H197.183V25.8ZM197.183 29.4H200.183V32.4H197.183V29.4ZM197.183 33H200.183V36H197.183V33ZM193.583 33H196.583V36H193.583V33ZM222.397 11.4H225.397V14.4H222.397V11.4ZM222.397 15H225.397V18H222.397V15ZM207.997 11.4H210.997V14.4H207.997V11.4ZM207.997 15H210.997V18H207.997V15ZM222.397 18.6H225.397V21.6H222.397V18.6ZM222.397 22.2H225.397V25.2H222.397V22.2ZM222.397 25.8H225.397V28.8H222.397V25.8ZM218.797 29.4H221.797V32.4H218.797V29.4ZM215.197 33H218.197V36H215.197V33ZM211.597 29.4H214.597V32.4H211.597V29.4ZM207.997 18.6H210.997V21.6H207.997V18.6ZM207.997 22.2H210.997V25.2H207.997V22.2ZM207.997 25.8H210.997V28.8H207.997V25.8ZM236.789 11.4H239.789V14.4H236.789V11.4ZM233.189 11.4H236.189V14.4H233.189V11.4ZM233.189 15H236.189V18H233.189V15ZM229.589 11.4H232.589V14.4H229.589V11.4ZM236.789 33H239.789V36H236.789V33ZM233.189 18.6H236.189V21.6H233.189V18.6ZM233.189 22.2H236.189V25.2H233.189V22.2ZM233.189 25.8H236.189V28.8H233.189V25.8ZM233.189 29.4H236.189V32.4H233.189V29.4ZM233.189 33H236.189V36H233.189V33ZM229.589 33H232.589V36H229.589V33ZM258.403 15H261.403V18H258.403V15ZM254.803 11.4H257.803V14.4H254.803V11.4ZM251.203 11.4H254.203V14.4H251.203V11.4ZM247.603 11.4H250.603V14.4H247.603V11.4ZM244.003 11.4H247.003V14.4H244.003V11.4ZM244.003 15H247.003V18H244.003V15ZM258.403 18.6H261.403V21.6H258.403V18.6ZM258.403 22.2H261.403V25.2H258.403V22.2ZM258.403 25.8H261.403V28.8H258.403V25.8ZM258.403 29.4H261.403V32.4H258.403V29.4ZM254.803 33H257.803V36H254.803V33ZM251.203 33H254.203V36H251.203V33ZM247.603 33H250.603V36H247.603V33ZM244.003 18.6H247.003V21.6H244.003V18.6ZM244.003 22.2H247.003V25.2H244.003V22.2ZM244.003 25.8H247.003V28.8H244.003V25.8ZM244.003 29.4H247.003V32.4H244.003V29.4ZM244.003 33H247.003V36H244.003V33ZM272.795 11.4H275.795V14.4H272.795V11.4ZM269.195 11.4H272.195V14.4H269.195V11.4ZM269.195 15H272.195V18H269.195V15ZM265.595 11.4H268.595V14.4H265.595V11.4ZM272.795 33H275.795V36H272.795V33ZM269.195 18.6H272.195V21.6H269.195V18.6ZM269.195 22.2H272.195V25.2H269.195V22.2ZM269.195 25.8H272.195V28.8H269.195V25.8ZM269.195 29.4H272.195V32.4H269.195V29.4ZM269.195 33H272.195V36H269.195V33ZM265.595 33H268.595V36H265.595V33ZM294.409 15H297.409V18H294.409V15ZM290.809 11.4H293.809V14.4H290.809V11.4ZM287.209 11.4H290.209V14.4H287.209V11.4ZM283.609 11.4H286.609V14.4H283.609V11.4ZM280.009 11.4H283.009V14.4H280.009V11.4ZM280.009 15H283.009V18H280.009V15ZM294.409 18.6H297.409V21.6H294.409V18.6ZM294.409 22.2H297.409V25.2H294.409V22.2ZM294.409 25.8H297.409V28.8H294.409V25.8ZM294.409 29.4H297.409V32.4H294.409V29.4ZM290.809 33H293.809V36H290.809V33ZM287.209 33H290.209V36H287.209V33ZM283.609 33H286.609V36H283.609V33ZM280.009 18.6H283.009V21.6H280.009V18.6ZM280.009 22.2H283.009V25.2H280.009V22.2ZM280.009 25.8H283.009V28.8H280.009V25.8ZM280.009 29.4H283.009V32.4H280.009V29.4ZM280.009 33H283.009V36H280.009V33ZM316.001 15H319.001V18H316.001V15ZM312.401 11.4H315.401V14.4H312.401V11.4ZM308.801 11.4H311.801V14.4H308.801V11.4ZM305.201 11.4H308.201V14.4H305.201V11.4ZM301.601 15H304.601V18H301.601V15ZM316.001 18.6H319.001V21.6H316.001V18.6ZM316.001 22.2H319.001V25.2H316.001V22.2ZM316.001 25.8H319.001V28.8H316.001V25.8ZM316.001 29.4H319.001V32.4H316.001V29.4ZM316.001 33H319.001V36H316.001V33ZM312.401 22.2H315.401V25.2H312.401V22.2ZM308.801 22.2H311.801V25.2H308.801V22.2ZM305.201 22.2H308.201V25.2H305.201V22.2ZM301.601 18.6H304.601V21.6H301.601V18.6ZM301.601 22.2H304.601V25.2H301.601V22.2ZM301.601 25.8H304.601V28.8H301.601V25.8ZM301.601 29.4H304.601V32.4H301.601V29.4ZM301.601 33H304.601V36H301.601V33ZM351.984 11.4H354.984V14.4H351.984V11.4ZM351.984 15H354.984V18H351.984V15ZM348.384 15H351.384V18H348.384V15ZM359.184 33H362.184V36H359.184V33ZM355.584 33H358.584V36H355.584V33ZM351.984 18.6H354.984V21.6H351.984V18.6ZM351.984 22.2H354.984V25.2H351.984V22.2ZM351.984 25.8H354.984V28.8H351.984V25.8ZM351.984 29.4H354.984V32.4H351.984V29.4ZM351.984 33H354.984V36H351.984V33ZM348.384 33H351.384V36H348.384V33ZM344.784 18.6H347.784V21.6H344.784V18.6ZM344.784 33H347.784V36H344.784V33ZM380.776 15H383.776V18H380.776V15ZM377.176 18.6H380.176V21.6H377.176V18.6ZM373.576 22.2H376.576V25.2H373.576V22.2ZM369.976 25.8H372.976V28.8H369.976V25.8ZM366.376 29.4H369.376V32.4H366.376V29.4ZM402.368 11.4H405.368V14.4H402.368V11.4ZM398.768 11.4H401.768V14.4H398.768V11.4ZM395.168 11.4H398.168V14.4H395.168V11.4ZM391.568 11.4H394.568V14.4H391.568V11.4ZM387.968 11.4H390.968V14.4H387.968V11.4ZM387.968 15H390.968V18H387.968V15ZM402.368 22.2H405.368V25.2H402.368V22.2ZM402.368 25.8H405.368V28.8H402.368V25.8ZM402.368 29.4H405.368V32.4H402.368V29.4ZM398.768 18.6H401.768V21.6H398.768V18.6ZM398.768 33H401.768V36H398.768V33ZM395.168 18.6H398.168V21.6H395.168V18.6ZM395.168 33H398.168V36H395.168V33ZM391.568 18.6H394.568V21.6H391.568V18.6ZM391.568 33H394.568V36H391.568V33ZM387.968 18.6H390.968V21.6H387.968V18.6ZM387.968 29.4H390.968V32.4H387.968V29.4Z" fill="white"/>
<rect x="1.5" y="1.5" width="449" height="277" stroke="#5B65C2" stroke-width="3"/>
</svg>
