<svg width="452" height="280" viewBox="0 0 452 280" fill="none" xmlns="http://www.w3.org/2000/svg">
<g clip-path="url(#clip0)">
<rect width="452" height="280" fill="white"/>
<rect width="452" height="47" fill="#5B65C2"/>
<path d="M56.4041 262.6H59.4041V265.6H56.4041V262.6ZM56.4041 233.8H59.4041V236.8H56.4041V233.8ZM56.4041 251.8H59.4041V254.8H56.4041V251.8ZM56.4041 255.4H59.4041V258.4H56.4041V255.4ZM56.4041 241H59.4041V244H56.4041V241ZM56.4041 244.6H59.4041V247.6H56.4041V244.6ZM63.6041 241H66.6041V244H63.6041V241ZM60.0041 237.4H63.0041V240.4H60.0041V237.4ZM56.4041 237.4H59.4041V240.4H56.4041V237.4ZM52.8041 237.4H55.8041V240.4H52.8041V237.4ZM49.2041 241H52.2041V244H49.2041V241ZM63.6041 251.8H66.6041V254.8H63.6041V251.8ZM63.6041 255.4H66.6041V258.4H63.6041V255.4ZM60.0041 248.2H63.0041V251.2H60.0041V248.2ZM60.0041 259H63.0041V262H60.0041V259ZM56.4041 248.2H59.4041V251.2H56.4041V248.2ZM56.4041 259H59.4041V262H56.4041V259ZM52.8041 248.2H55.8041V251.2H52.8041V248.2ZM52.8041 259H55.8041V262H52.8041V259ZM49.2041 244.6H52.2041V247.6H49.2041V244.6ZM49.2041 255.4H52.2041V258.4H49.2041V255.4ZM63.6041 241H66.6041V244H63.6041V241ZM60.0041 237.4H63.0041V240.4H60.0041V237.4ZM56.4041 237.4H59.4041V240.4H56.4041V237.4ZM52.8041 237.4H55.8041V240.4H52.8041V237.4ZM49.2041 241H52.2041V244H49.2041V241ZM63.6041 251.8H66.6041V254.8H63.6041V251.8ZM63.6041 255.4H66.6041V258.4H63.6041V255.4ZM60.0041 248.2H63.0041V251.2H60.0041V248.2ZM60.0041 259H63.0041V262H60.0041V259ZM56.4041 248.2H59.4041V251.2H56.4041V248.2ZM56.4041 259H59.4041V262H56.4041V259ZM52.8041 248.2H55.8041V251.2H52.8041V248.2ZM52.8041 259H55.8041V262H52.8041V259ZM49.2041 244.6H52.2041V247.6H49.2041V244.6ZM49.2041 255.4H52.2041V258.4H49.2041V255.4Z" fill="#5B65C2"/>
<path d="M355.222 241H358.222V244H355.222V241ZM351.622 237.4H354.622V240.4H351.622V237.4ZM348.022 237.4H351.022V240.4H348.022V237.4ZM344.422 237.4H347.422V240.4H344.422V237.4ZM340.822 241H343.822V244H340.822V241ZM355.222 244.6H358.222V247.6H355.222V244.6ZM355.222 259H358.222V262H355.222V259ZM351.622 248.2H354.622V251.2H351.622V248.2ZM351.622 259H354.622V262H351.622V259ZM348.022 251.8H351.022V254.8H348.022V251.8ZM348.022 259H351.022V262H348.022V259ZM344.422 255.4H347.422V258.4H344.422V255.4ZM344.422 259H347.422V262H344.422V259ZM340.822 259H343.822V262H340.822V259ZM366.014 255.4H369.014V258.4H366.014V255.4ZM366.014 259H369.014V262H366.014V259ZM362.414 255.4H365.414V258.4H362.414V255.4ZM362.414 259H365.414V262H362.414V259ZM384.025 237.4H387.025V240.4H384.025V237.4ZM384.025 241H387.025V244H384.025V241ZM380.425 241H383.425V244H380.425V241ZM387.625 251.8H390.625V254.8H387.625V251.8ZM384.025 244.6H387.025V247.6H384.025V244.6ZM384.025 248.2H387.025V251.2H384.025V248.2ZM384.025 251.8H387.025V254.8H384.025V251.8ZM384.025 255.4H387.025V258.4H384.025V255.4ZM384.025 259H387.025V262H384.025V259ZM380.425 251.8H383.425V254.8H380.425V251.8ZM376.825 244.6H379.825V247.6H376.825V244.6ZM376.825 251.8H379.825V254.8H376.825V251.8ZM373.225 248.2H376.225V251.2H373.225V248.2ZM373.225 251.8H376.225V254.8H373.225V251.8ZM409.216 241H412.216V244H409.216V241ZM405.616 237.4H408.616V240.4H405.616V237.4ZM402.016 237.4H405.016V240.4H402.016V237.4ZM398.416 237.4H401.416V240.4H398.416V237.4ZM394.816 241H397.816V244H394.816V241ZM409.216 244.6H412.216V247.6H409.216V244.6ZM409.216 248.2H412.216V251.2H409.216V248.2ZM409.216 251.8H412.216V254.8H409.216V251.8ZM409.216 255.4H412.216V258.4H409.216V255.4ZM405.616 244.6H408.616V247.6H405.616V244.6ZM405.616 259H408.616V262H405.616V259ZM402.016 248.2H405.016V251.2H402.016V248.2ZM402.016 259H405.016V262H402.016V259ZM398.416 251.8H401.416V254.8H398.416V251.8ZM398.416 259H401.416V262H398.416V259ZM394.816 244.6H397.816V247.6H394.816V244.6ZM394.816 248.2H397.816V251.2H394.816V248.2ZM394.816 251.8H397.816V254.8H394.816V251.8ZM394.816 255.4H397.816V258.4H394.816V255.4ZM430.808 241H433.808V244H430.808V241ZM427.208 237.4H430.208V240.4H427.208V237.4ZM423.608 237.4H426.608V240.4H423.608V237.4ZM420.008 237.4H423.008V240.4H420.008V237.4ZM416.408 241H419.408V244H416.408V241ZM430.808 244.6H433.808V247.6H430.808V244.6ZM430.808 248.2H433.808V251.2H430.808V248.2ZM430.808 251.8H433.808V254.8H430.808V251.8ZM430.808 255.4H433.808V258.4H430.808V255.4ZM427.208 244.6H430.208V247.6H427.208V244.6ZM427.208 259H430.208V262H427.208V259ZM423.608 248.2H426.608V251.2H423.608V248.2ZM423.608 259H426.608V262H423.608V259ZM420.008 251.8H423.008V254.8H420.008V251.8ZM420.008 259H423.008V262H420.008V259ZM416.408 244.6H419.408V247.6H416.408V244.6ZM416.408 248.2H419.408V251.2H416.408V248.2ZM416.408 251.8H419.408V254.8H416.408V251.8ZM416.408 255.4H419.408V258.4H416.408V255.4Z" fill="#5B65C2"/>
<path d="M56.8404 11.4H59.8404V14.4H56.8404V11.4ZM56.8404 15H59.8404V18H56.8404V15ZM42.4404 11.4H45.4404V14.4H42.4404V11.4ZM42.4404 15H45.4404V18H42.4404V15ZM56.8404 18.6H59.8404V21.6H56.8404V18.6ZM56.8404 22.2H59.8404V25.2H56.8404V22.2ZM56.8404 25.8H59.8404V28.8H56.8404V25.8ZM53.2404 29.4H56.2404V32.4H53.2404V29.4ZM49.6404 33H52.6404V36H49.6404V33ZM46.0404 29.4H49.0404V32.4H46.0404V29.4ZM42.4404 18.6H45.4404V21.6H42.4404V18.6ZM42.4404 22.2H45.4404V25.2H42.4404V22.2ZM42.4404 25.8H45.4404V28.8H42.4404V25.8ZM78.4322 11.4H81.4322V14.4H78.4322V11.4ZM74.8322 11.4H77.8322V14.4H74.8322V11.4ZM71.2322 11.4H74.2322V14.4H71.2322V11.4ZM67.6322 11.4H70.6322V14.4H67.6322V11.4ZM64.0322 11.4H67.0322V14.4H64.0322V11.4ZM64.0322 15H67.0322V18H64.0322V15ZM78.4322 33H81.4322V36H78.4322V33ZM74.8322 22.2H77.8322V25.2H74.8322V22.2ZM74.8322 33H77.8322V36H74.8322V33ZM71.2322 22.2H74.2322V25.2H71.2322V22.2ZM71.2322 33H74.2322V36H71.2322V33ZM67.6322 22.2H70.6322V25.2H67.6322V22.2ZM67.6322 33H70.6322V36H67.6322V33ZM64.0322 18.6H67.0322V21.6H64.0322V18.6ZM64.0322 22.2H67.0322V25.2H64.0322V22.2ZM64.0322 25.8H67.0322V28.8H64.0322V25.8ZM64.0322 29.4H67.0322V32.4H64.0322V29.4ZM64.0322 33H67.0322V36H64.0322V33ZM100.024 11.4H103.024V14.4H100.024V11.4ZM100.024 15H103.024V18H100.024V15ZM85.624 11.4H88.624V14.4H85.624V11.4ZM85.624 15H88.624V18H85.624V15ZM100.024 18.6H103.024V21.6H100.024V18.6ZM100.024 22.2H103.024V25.2H100.024V22.2ZM100.024 25.8H103.024V28.8H100.024V25.8ZM100.024 29.4H103.024V32.4H100.024V29.4ZM100.024 33H103.024V36H100.024V33ZM96.424 25.8H99.424V28.8H96.424V25.8ZM92.824 22.2H95.824V25.2H92.824V22.2ZM89.224 18.6H92.224V21.6H89.224V18.6ZM85.624 18.6H88.624V21.6H85.624V18.6ZM85.624 22.2H88.624V25.2H85.624V22.2ZM85.624 25.8H88.624V28.8H85.624V25.8ZM85.624 29.4H88.624V32.4H85.624V29.4ZM85.624 33H88.624V36H85.624V33ZM121.616 11.4H124.616V14.4H121.616V11.4ZM118.016 11.4H121.016V14.4H118.016V11.4ZM114.416 11.4H117.416V14.4H114.416V11.4ZM114.416 15H117.416V18H114.416V15ZM110.816 11.4H113.816V14.4H110.816V11.4ZM107.216 11.4H110.216V14.4H107.216V11.4ZM114.416 18.6H117.416V21.6H114.416V18.6ZM114.416 22.2H117.416V25.2H114.416V22.2ZM114.416 25.8H117.416V28.8H114.416V25.8ZM114.416 29.4H117.416V32.4H114.416V29.4ZM114.416 33H117.416V36H114.416V33ZM143.208 15H146.208V18H143.208V15ZM139.608 11.4H142.608V14.4H139.608V11.4ZM136.008 11.4H139.008V14.4H136.008V11.4ZM132.408 11.4H135.408V14.4H132.408V11.4ZM128.808 15H131.808V18H128.808V15ZM143.208 18.6H146.208V21.6H143.208V18.6ZM143.208 22.2H146.208V25.2H143.208V22.2ZM143.208 25.8H146.208V28.8H143.208V25.8ZM143.208 29.4H146.208V32.4H143.208V29.4ZM143.208 33H146.208V36H143.208V33ZM139.608 22.2H142.608V25.2H139.608V22.2ZM136.008 22.2H139.008V25.2H136.008V22.2ZM132.408 22.2H135.408V25.2H132.408V22.2ZM128.808 18.6H131.808V21.6H128.808V18.6ZM128.808 22.2H131.808V25.2H128.808V22.2ZM128.808 25.8H131.808V28.8H128.808V25.8ZM128.808 29.4H131.808V32.4H128.808V29.4ZM128.808 33H131.808V36H128.808V33ZM186.391 15H189.391V18H186.391V15ZM182.791 11.4H185.791V14.4H182.791V11.4ZM179.191 11.4H182.191V14.4H179.191V11.4ZM175.591 11.4H178.591V14.4H175.591V11.4ZM171.991 11.4H174.991V14.4H171.991V11.4ZM171.991 15H174.991V18H171.991V15ZM186.391 18.6H189.391V21.6H186.391V18.6ZM186.391 22.2H189.391V25.2H186.391V22.2ZM186.391 25.8H189.391V28.8H186.391V25.8ZM186.391 29.4H189.391V32.4H186.391V29.4ZM182.791 33H185.791V36H182.791V33ZM179.191 33H182.191V36H179.191V33ZM175.591 33H178.591V36H175.591V33ZM171.991 18.6H174.991V21.6H171.991V18.6ZM171.991 22.2H174.991V25.2H171.991V22.2ZM171.991 25.8H174.991V28.8H171.991V25.8ZM171.991 29.4H174.991V32.4H171.991V29.4ZM171.991 33H174.991V36H171.991V33ZM200.783 11.4H203.783V14.4H200.783V11.4ZM197.183 11.4H200.183V14.4H197.183V11.4ZM197.183 15H200.183V18H197.183V15ZM193.583 11.4H196.583V14.4H193.583V11.4ZM200.783 33H203.783V36H200.783V33ZM197.183 18.6H200.183V21.6H197.183V18.6ZM197.183 22.2H200.183V25.2H197.183V22.2ZM197.183 25.8H200.183V28.8H197.183V25.8ZM197.183 29.4H200.183V32.4H197.183V29.4ZM197.183 33H200.183V36H197.183V33ZM193.583 33H196.583V36H193.583V33ZM222.397 11.4H225.397V14.4H222.397V11.4ZM222.397 15H225.397V18H222.397V15ZM207.997 11.4H210.997V14.4H207.997V11.4ZM207.997 15H210.997V18H207.997V15ZM222.397 18.6H225.397V21.6H222.397V18.6ZM222.397 22.2H225.397V25.2H222.397V22.2ZM222.397 25.8H225.397V28.8H222.397V25.8ZM218.797 29.4H221.797V32.4H218.797V29.4ZM215.197 33H218.197V36H215.197V33ZM211.597 29.4H214.597V32.4H211.597V29.4ZM207.997 18.6H210.997V21.6H207.997V18.6ZM207.997 22.2H210.997V25.2H207.997V22.2ZM207.997 25.8H210.997V28.8H207.997V25.8ZM236.789 11.4H239.789V14.4H236.789V11.4ZM233.189 11.4H236.189V14.4H233.189V11.4ZM233.189 15H236.189V18H233.189V15ZM229.589 11.4H232.589V14.4H229.589V11.4ZM236.789 33H239.789V36H236.789V33ZM233.189 18.6H236.189V21.6H233.189V18.6ZM233.189 22.2H236.189V25.2H233.189V22.2ZM233.189 25.8H236.189V28.8H233.189V25.8ZM233.189 29.4H236.189V32.4H233.189V29.4ZM233.189 33H236.189V36H233.189V33ZM229.589 33H232.589V36H229.589V33ZM258.403 15H261.403V18H258.403V15ZM254.803 11.4H257.803V14.4H254.803V11.4ZM251.203 11.4H254.203V14.4H251.203V11.4ZM247.603 11.4H250.603V14.4H247.603V11.4ZM244.003 11.4H247.003V14.4H244.003V11.4ZM244.003 15H247.003V18H244.003V15ZM258.403 18.6H261.403V21.6H258.403V18.6ZM258.403 22.2H261.403V25.2H258.403V22.2ZM258.403 25.8H261.403V28.8H258.403V25.8ZM258.403 29.4H261.403V32.4H258.403V29.4ZM254.803 33H257.803V36H254.803V33ZM251.203 33H254.203V36H251.203V33ZM247.603 33H250.603V36H247.603V33ZM244.003 18.6H247.003V21.6H244.003V18.6ZM244.003 22.2H247.003V25.2H244.003V22.2ZM244.003 25.8H247.003V28.8H244.003V25.8ZM244.003 29.4H247.003V32.4H244.003V29.4ZM244.003 33H247.003V36H244.003V33ZM272.795 11.4H275.795V14.4H272.795V11.4ZM269.195 11.4H272.195V14.4H269.195V11.4ZM269.195 15H272.195V18H269.195V15ZM265.595 11.4H268.595V14.4H265.595V11.4ZM272.795 33H275.795V36H272.795V33ZM269.195 18.6H272.195V21.6H269.195V18.6ZM269.195 22.2H272.195V25.2H269.195V22.2ZM269.195 25.8H272.195V28.8H269.195V25.8ZM269.195 29.4H272.195V32.4H269.195V29.4ZM269.195 33H272.195V36H269.195V33ZM265.595 33H268.595V36H265.595V33ZM294.409 15H297.409V18H294.409V15ZM290.809 11.4H293.809V14.4H290.809V11.4ZM287.209 11.4H290.209V14.4H287.209V11.4ZM283.609 11.4H286.609V14.4H283.609V11.4ZM280.009 11.4H283.009V14.4H280.009V11.4ZM280.009 15H283.009V18H280.009V15ZM294.409 18.6H297.409V21.6H294.409V18.6ZM294.409 22.2H297.409V25.2H294.409V22.2ZM294.409 25.8H297.409V28.8H294.409V25.8ZM294.409 29.4H297.409V32.4H294.409V29.4ZM290.809 33H293.809V36H290.809V33ZM287.209 33H290.209V36H287.209V33ZM283.609 33H286.609V36H283.609V33ZM280.009 18.6H283.009V21.6H280.009V18.6ZM280.009 22.2H283.009V25.2H280.009V22.2ZM280.009 25.8H283.009V28.8H280.009V25.8ZM280.009 29.4H283.009V32.4H280.009V29.4ZM280.009 33H283.009V36H280.009V33ZM316.001 15H319.001V18H316.001V15ZM312.401 11.4H315.401V14.4H312.401V11.4ZM308.801 11.4H311.801V14.4H308.801V11.4ZM305.201 11.4H308.201V14.4H305.201V11.4ZM301.601 15H304.601V18H301.601V15ZM316.001 18.6H319.001V21.6H316.001V18.6ZM316.001 22.2H319.001V25.2H316.001V22.2ZM316.001 25.8H319.001V28.8H316.001V25.8ZM316.001 29.4H319.001V32.4H316.001V29.4ZM316.001 33H319.001V36H316.001V33ZM312.401 22.2H315.401V25.2H312.401V22.2ZM308.801 22.2H311.801V25.2H308.801V22.2ZM305.201 22.2H308.201V25.2H305.201V22.2ZM301.601 18.6H304.601V21.6H301.601V18.6ZM301.601 22.2H304.601V25.2H301.601V22.2ZM301.601 25.8H304.601V28.8H301.601V25.8ZM301.601 29.4H304.601V32.4H301.601V29.4ZM301.601 33H304.601V36H301.601V33ZM351.984 11.4H354.984V14.4H351.984V11.4ZM351.984 15H354.984V18H351.984V15ZM348.384 15H351.384V18H348.384V15ZM359.184 33H362.184V36H359.184V33ZM355.584 33H358.584V36H355.584V33ZM351.984 18.6H354.984V21.6H351.984V18.6ZM351.984 22.2H354.984V25.2H351.984V22.2ZM351.984 25.8H354.984V28.8H351.984V25.8ZM351.984 29.4H354.984V32.4H351.984V29.4ZM351.984 33H354.984V36H351.984V33ZM348.384 33H351.384V36H348.384V33ZM344.784 18.6H347.784V21.6H344.784V18.6ZM344.784 33H347.784V36H344.784V33ZM380.776 15H383.776V18H380.776V15ZM377.176 18.6H380.176V21.6H377.176V18.6ZM373.576 22.2H376.576V25.2H373.576V22.2ZM369.976 25.8H372.976V28.8H369.976V25.8ZM366.376 29.4H369.376V32.4H366.376V29.4ZM402.368 11.4H405.368V14.4H402.368V11.4ZM398.768 11.4H401.768V14.4H398.768V11.4ZM395.168 11.4H398.168V14.4H395.168V11.4ZM391.568 11.4H394.568V14.4H391.568V11.4ZM387.968 11.4H390.968V14.4H387.968V11.4ZM387.968 15H390.968V18H387.968V15ZM402.368 22.2H405.368V25.2H402.368V22.2ZM402.368 25.8H405.368V28.8H402.368V25.8ZM402.368 29.4H405.368V32.4H402.368V29.4ZM398.768 18.6H401.768V21.6H398.768V18.6ZM398.768 33H401.768V36H398.768V33ZM395.168 18.6H398.168V21.6H395.168V18.6ZM395.168 33H398.168V36H395.168V33ZM391.568 18.6H394.568V21.6H391.568V18.6ZM391.568 33H394.568V36H391.568V33ZM387.968 18.6H390.968V21.6H387.968V18.6ZM387.968 29.4H390.968V32.4H387.968V29.4Z" fill="white"/>
<rect x="108.5" y="224.5" width="342" height="54" stroke="#5B65C2" stroke-width="3"/>
<rect x="1.5" y="1.5" width="449" height="277" stroke="#5B65C2" stroke-width="3"/>
<path d="M78.4393 174.4H81.4393V177.4H78.4393V174.4ZM74.8393 174.4H77.8393V177.4H74.8393V174.4ZM74.8393 178H77.8393V181H74.8393V178ZM71.2393 174.4H74.2393V177.4H71.2393V174.4ZM78.4393 196H81.4393V199H78.4393V196ZM74.8393 181.6H77.8393V184.6H74.8393V181.6ZM74.8393 185.2H77.8393V188.2H74.8393V185.2ZM74.8393 188.8H77.8393V191.8H74.8393V188.8ZM74.8393 192.4H77.8393V195.4H74.8393V192.4ZM74.8393 196H77.8393V199H74.8393V196ZM71.2393 196H74.2393V199H71.2393V196ZM100.053 174.4H103.053V177.4H100.053V174.4ZM100.053 178H103.053V181H100.053V178ZM85.6533 174.4H88.6533V177.4H85.6533V174.4ZM85.6533 178H88.6533V181H85.6533V178ZM100.053 181.6H103.053V184.6H100.053V181.6ZM100.053 185.2H103.053V188.2H100.053V185.2ZM100.053 188.8H103.053V191.8H100.053V188.8ZM100.053 192.4H103.053V195.4H100.053V192.4ZM100.053 196H103.053V199H100.053V196ZM96.4533 188.8H99.4533V191.8H96.4533V188.8ZM92.8533 185.2H95.8533V188.2H92.8533V185.2ZM89.2533 181.6H92.2533V184.6H89.2533V181.6ZM85.6533 181.6H88.6533V184.6H85.6533V181.6ZM85.6533 185.2H88.6533V188.2H85.6533V185.2ZM85.6533 188.8H88.6533V191.8H85.6533V188.8ZM85.6533 192.4H88.6533V195.4H85.6533V192.4ZM85.6533 196H88.6533V199H85.6533V196ZM121.645 178H124.645V181H121.645V178ZM118.045 174.4H121.045V177.4H118.045V174.4ZM114.445 174.4H117.445V177.4H114.445V174.4ZM110.845 174.4H113.845V177.4H110.845V174.4ZM107.245 178H110.245V181H107.245V178ZM121.645 188.8H124.645V191.8H121.645V188.8ZM121.645 192.4H124.645V195.4H121.645V192.4ZM118.045 188.8H121.045V191.8H118.045V188.8ZM118.045 196H121.045V199H118.045V196ZM114.445 196H117.445V199H114.445V196ZM110.845 196H113.845V199H110.845V196ZM107.245 181.6H110.245V184.6H107.245V181.6ZM107.245 185.2H110.245V188.2H107.245V185.2ZM107.245 188.8H110.245V191.8H107.245V188.8ZM107.245 192.4H110.245V195.4H107.245V192.4ZM143.237 178H146.237V181H143.237V178ZM139.637 174.4H142.637V177.4H139.637V174.4ZM136.037 174.4H139.037V177.4H136.037V174.4ZM132.437 174.4H135.437V177.4H132.437V174.4ZM128.837 174.4H131.837V177.4H128.837V174.4ZM128.837 178H131.837V181H128.837V178ZM143.237 181.6H146.237V184.6H143.237V181.6ZM143.237 196H146.237V199H143.237V196ZM139.637 185.2H142.637V188.2H139.637V185.2ZM139.637 192.4H142.637V195.4H139.637V192.4ZM136.037 185.2H139.037V188.2H136.037V185.2ZM136.037 188.8H139.037V191.8H136.037V188.8ZM132.437 185.2H135.437V188.2H132.437V185.2ZM128.837 181.6H131.837V184.6H128.837V181.6ZM128.837 185.2H131.837V188.2H128.837V185.2ZM128.837 188.8H131.837V191.8H128.837V188.8ZM128.837 192.4H131.837V195.4H128.837V192.4ZM128.837 196H131.837V199H128.837V196ZM164.829 174.4H167.829V177.4H164.829V174.4ZM161.229 174.4H164.229V177.4H161.229V174.4ZM157.629 174.4H160.629V177.4H157.629V174.4ZM154.029 174.4H157.029V177.4H154.029V174.4ZM150.429 174.4H153.429V177.4H150.429V174.4ZM150.429 178H153.429V181H150.429V178ZM164.829 196H167.829V199H164.829V196ZM161.229 185.2H164.229V188.2H161.229V185.2ZM161.229 196H164.229V199H161.229V196ZM157.629 185.2H160.629V188.2H157.629V185.2ZM157.629 196H160.629V199H157.629V196ZM154.029 185.2H157.029V188.2H154.029V185.2ZM154.029 196H157.029V199H154.029V196ZM150.429 181.6H153.429V184.6H150.429V181.6ZM150.429 185.2H153.429V188.2H150.429V185.2ZM150.429 188.8H153.429V191.8H150.429V188.8ZM150.429 192.4H153.429V195.4H150.429V192.4ZM150.429 196H153.429V199H150.429V196ZM186.421 178H189.421V181H186.421V178ZM182.821 174.4H185.821V177.4H182.821V174.4ZM179.221 174.4H182.221V177.4H179.221V174.4ZM175.621 174.4H178.621V177.4H175.621V174.4ZM172.021 178H175.021V181H172.021V178ZM186.421 188.8H189.421V191.8H186.421V188.8ZM186.421 192.4H189.421V195.4H186.421V192.4ZM182.821 185.2H185.821V188.2H182.821V185.2ZM182.821 196H185.821V199H182.821V196ZM179.221 185.2H182.221V188.2H179.221V185.2ZM179.221 196H182.221V199H179.221V196ZM175.621 185.2H178.621V188.2H175.621V185.2ZM175.621 196H178.621V199H175.621V196ZM172.021 181.6H175.021V184.6H172.021V181.6ZM172.021 192.4H175.021V195.4H172.021V192.4ZM208.012 174.4H211.012V177.4H208.012V174.4ZM204.412 174.4H207.412V177.4H204.412V174.4ZM200.812 174.4H203.812V177.4H200.812V174.4ZM197.212 174.4H200.212V177.4H197.212V174.4ZM193.612 174.4H196.612V177.4H193.612V174.4ZM193.612 178H196.612V181H193.612V178ZM208.012 196H211.012V199H208.012V196ZM204.412 185.2H207.412V188.2H204.412V185.2ZM204.412 196H207.412V199H204.412V196ZM200.812 185.2H203.812V188.2H200.812V185.2ZM200.812 196H203.812V199H200.812V196ZM197.212 185.2H200.212V188.2H197.212V185.2ZM197.212 196H200.212V199H197.212V196ZM193.612 181.6H196.612V184.6H193.612V181.6ZM193.612 185.2H196.612V188.2H193.612V185.2ZM193.612 188.8H196.612V191.8H193.612V188.8ZM193.612 192.4H196.612V195.4H193.612V192.4ZM193.612 196H196.612V199H193.612V196ZM251.196 178H254.196V181H251.196V178ZM247.596 174.4H250.596V177.4H247.596V174.4ZM243.996 174.4H246.996V177.4H243.996V174.4ZM240.396 174.4H243.396V177.4H240.396V174.4ZM236.796 174.4H239.796V177.4H236.796V174.4ZM236.796 178H239.796V181H236.796V178ZM251.196 181.6H254.196V184.6H251.196V181.6ZM247.596 185.2H250.596V188.2H247.596V185.2ZM243.996 185.2H246.996V188.2H243.996V185.2ZM240.396 185.2H243.396V188.2H240.396V185.2ZM236.796 181.6H239.796V184.6H236.796V181.6ZM236.796 185.2H239.796V188.2H236.796V185.2ZM236.796 188.8H239.796V191.8H236.796V188.8ZM236.796 192.4H239.796V195.4H236.796V192.4ZM236.796 196H239.796V199H236.796V196ZM272.788 178H275.788V181H272.788V178ZM269.188 174.4H272.188V177.4H269.188V174.4ZM265.588 174.4H268.588V177.4H265.588V174.4ZM261.988 174.4H264.988V177.4H261.988V174.4ZM258.388 174.4H261.388V177.4H258.388V174.4ZM258.388 178H261.388V181H258.388V178ZM272.788 181.6H275.788V184.6H272.788V181.6ZM272.788 196H275.788V199H272.788V196ZM269.188 185.2H272.188V188.2H269.188V185.2ZM269.188 192.4H272.188V195.4H269.188V192.4ZM265.588 185.2H268.588V188.2H265.588V185.2ZM265.588 188.8H268.588V191.8H265.588V188.8ZM261.988 185.2H264.988V188.2H261.988V185.2ZM258.388 181.6H261.388V184.6H258.388V181.6ZM258.388 185.2H261.388V188.2H258.388V185.2ZM258.388 188.8H261.388V191.8H258.388V188.8ZM258.388 192.4H261.388V195.4H258.388V192.4ZM258.388 196H261.388V199H258.388V196ZM294.379 178H297.379V181H294.379V178ZM290.779 174.4H293.779V177.4H290.779V174.4ZM287.179 174.4H290.179V177.4H287.179V174.4ZM283.579 174.4H286.579V177.4H283.579V174.4ZM279.979 178H282.979V181H279.979V178ZM294.379 181.6H297.379V184.6H294.379V181.6ZM294.379 185.2H297.379V188.2H294.379V185.2ZM294.379 188.8H297.379V191.8H294.379V188.8ZM294.379 192.4H297.379V195.4H294.379V192.4ZM290.779 196H293.779V199H290.779V196ZM287.179 196H290.179V199H287.179V196ZM283.579 196H286.579V199H283.579V196ZM279.979 181.6H282.979V184.6H279.979V181.6ZM279.979 185.2H282.979V188.2H279.979V185.2ZM279.979 188.8H282.979V191.8H279.979V188.8ZM279.979 192.4H282.979V195.4H279.979V192.4ZM315.971 178H318.971V181H315.971V178ZM312.371 174.4H315.371V177.4H312.371V174.4ZM308.771 174.4H311.771V177.4H308.771V174.4ZM305.171 174.4H308.171V177.4H305.171V174.4ZM301.571 174.4H304.571V177.4H301.571V174.4ZM301.571 178H304.571V181H301.571V178ZM315.971 181.6H318.971V184.6H315.971V181.6ZM312.371 185.2H315.371V188.2H312.371V185.2ZM308.771 185.2H311.771V188.2H308.771V185.2ZM305.171 185.2H308.171V188.2H305.171V185.2ZM301.571 181.6H304.571V184.6H301.571V181.6ZM301.571 185.2H304.571V188.2H301.571V185.2ZM301.571 188.8H304.571V191.8H301.571V188.8ZM301.571 192.4H304.571V195.4H301.571V192.4ZM301.571 196H304.571V199H301.571V196ZM330.363 174.4H333.363V177.4H330.363V174.4ZM326.763 174.4H329.763V177.4H326.763V174.4ZM326.763 178H329.763V181H326.763V178ZM323.163 174.4H326.163V177.4H323.163V174.4ZM330.363 196H333.363V199H330.363V196ZM326.763 181.6H329.763V184.6H326.763V181.6ZM326.763 185.2H329.763V188.2H326.763V185.2ZM326.763 188.8H329.763V191.8H326.763V188.8ZM326.763 192.4H329.763V195.4H326.763V192.4ZM326.763 196H329.763V199H326.763V196ZM323.163 196H326.163V199H323.163V196ZM351.977 174.4H354.977V177.4H351.977V174.4ZM351.977 178H354.977V181H351.977V178ZM337.577 174.4H340.577V177.4H337.577V174.4ZM337.577 178H340.577V181H337.577V178ZM351.977 181.6H354.977V184.6H351.977V181.6ZM351.977 185.2H354.977V188.2H351.977V185.2ZM351.977 188.8H354.977V191.8H351.977V188.8ZM351.977 192.4H354.977V195.4H351.977V192.4ZM351.977 196H354.977V199H351.977V196ZM348.377 188.8H351.377V191.8H348.377V188.8ZM344.777 185.2H347.777V188.2H344.777V185.2ZM341.177 181.6H344.177V184.6H341.177V181.6ZM337.577 181.6H340.577V184.6H337.577V181.6ZM337.577 185.2H340.577V188.2H337.577V185.2ZM337.577 188.8H340.577V191.8H337.577V188.8ZM337.577 192.4H340.577V195.4H337.577V192.4ZM337.577 196H340.577V199H337.577V196ZM373.569 178H376.569V181H373.569V178ZM369.969 174.4H372.969V177.4H369.969V174.4ZM366.369 174.4H369.369V177.4H366.369V174.4ZM362.769 174.4H365.769V177.4H362.769V174.4ZM359.169 178H362.169V181H359.169V178ZM373.569 181.6H376.569V184.6H373.569V181.6ZM373.569 185.2H376.569V188.2H373.569V185.2ZM373.569 188.8H376.569V191.8H373.569V188.8ZM373.569 192.4H376.569V195.4H373.569V192.4ZM373.569 196H376.569V199H373.569V196ZM369.969 185.2H372.969V188.2H369.969V185.2ZM366.369 185.2H369.369V188.2H366.369V185.2ZM362.769 185.2H365.769V188.2H362.769V185.2ZM359.169 181.6H362.169V184.6H359.169V181.6ZM359.169 185.2H362.169V188.2H359.169V185.2ZM359.169 188.8H362.169V191.8H359.169V188.8ZM359.169 192.4H362.169V195.4H359.169V192.4ZM359.169 196H362.169V199H359.169V196Z" fill="#5B65C2"/>
<path d="M30.4205 61.4H33.4205V64.4H30.4205V61.4ZM30.4205 65H33.4205V68H30.4205V65ZM26.8205 65H29.8205V68H26.8205V65ZM19.6205 65H22.6205V68H19.6205V65ZM16.0205 61.4H19.0205V64.4H16.0205V61.4ZM16.0205 65H19.0205V68H16.0205V65ZM30.4205 68.6H33.4205V71.6H30.4205V68.6ZM30.4205 72.2H33.4205V75.2H30.4205V72.2ZM30.4205 75.8H33.4205V78.8H30.4205V75.8ZM30.4205 79.4H33.4205V82.4H30.4205V79.4ZM30.4205 83H33.4205V86H30.4205V83ZM23.2205 68.6H26.2205V71.6H23.2205V68.6ZM23.2205 72.2H26.2205V75.2H23.2205V72.2ZM16.0205 68.6H19.0205V71.6H16.0205V68.6ZM16.0205 72.2H19.0205V75.2H16.0205V72.2ZM16.0205 75.8H19.0205V78.8H16.0205V75.8ZM16.0205 79.4H19.0205V82.4H16.0205V79.4ZM16.0205 83H19.0205V86H16.0205V83ZM52.0123 65H55.0123V68H52.0123V65ZM48.4123 61.4H51.4123V64.4H48.4123V61.4ZM44.8123 61.4H47.8123V64.4H44.8123V61.4ZM41.2123 61.4H44.2123V64.4H41.2123V61.4ZM37.6123 65H40.6123V68H37.6123V65ZM52.0123 68.6H55.0123V71.6H52.0123V68.6ZM52.0123 72.2H55.0123V75.2H52.0123V72.2ZM52.0123 75.8H55.0123V78.8H52.0123V75.8ZM52.0123 79.4H55.0123V82.4H52.0123V79.4ZM48.4123 83H51.4123V86H48.4123V83ZM44.8123 83H47.8123V86H44.8123V83ZM41.2123 83H44.2123V86H41.2123V83ZM37.6123 68.6H40.6123V71.6H37.6123V68.6ZM37.6123 72.2H40.6123V75.2H37.6123V72.2ZM37.6123 75.8H40.6123V78.8H37.6123V75.8ZM37.6123 79.4H40.6123V82.4H37.6123V79.4ZM73.6041 61.4H76.6041V64.4H73.6041V61.4ZM73.6041 65H76.6041V68H73.6041V65ZM59.2041 61.4H62.2041V64.4H59.2041V61.4ZM59.2041 65H62.2041V68H59.2041V65ZM73.6041 68.6H76.6041V71.6H73.6041V68.6ZM73.6041 72.2H76.6041V75.2H73.6041V72.2ZM73.6041 75.8H76.6041V78.8H73.6041V75.8ZM73.6041 79.4H76.6041V82.4H73.6041V79.4ZM73.6041 83H76.6041V86H73.6041V83ZM70.0041 75.8H73.0041V78.8H70.0041V75.8ZM66.4041 72.2H69.4041V75.2H66.4041V72.2ZM62.8041 68.6H65.8041V71.6H62.8041V68.6ZM59.2041 68.6H62.2041V71.6H59.2041V68.6ZM59.2041 72.2H62.2041V75.2H59.2041V72.2ZM59.2041 75.8H62.2041V78.8H59.2041V75.8ZM59.2041 79.4H62.2041V82.4H59.2041V79.4ZM59.2041 83H62.2041V86H59.2041V83ZM95.1959 61.4H98.1959V64.4H95.1959V61.4ZM91.5959 61.4H94.5959V64.4H91.5959V61.4ZM87.9959 61.4H90.9959V64.4H87.9959V61.4ZM87.9959 65H90.9959V68H87.9959V65ZM84.3959 61.4H87.3959V64.4H84.3959V61.4ZM80.7959 61.4H83.7959V64.4H80.7959V61.4ZM87.9959 68.6H90.9959V71.6H87.9959V68.6ZM87.9959 72.2H90.9959V75.2H87.9959V72.2ZM87.9959 75.8H90.9959V78.8H87.9959V75.8ZM87.9959 79.4H90.9959V82.4H87.9959V79.4ZM87.9959 83H90.9959V86H87.9959V83ZM116.788 65H119.788V68H116.788V65ZM113.188 61.4H116.188V64.4H113.188V61.4ZM109.588 61.4H112.588V64.4H109.588V61.4ZM105.988 61.4H108.988V64.4H105.988V61.4ZM102.388 65H105.388V68H102.388V65ZM116.788 68.6H119.788V71.6H116.788V68.6ZM116.788 72.2H119.788V75.2H116.788V72.2ZM116.788 75.8H119.788V78.8H116.788V75.8ZM116.788 79.4H119.788V82.4H116.788V79.4ZM113.188 83H116.188V86H113.188V83ZM109.588 83H112.588V86H109.588V83ZM105.988 83H108.988V86H105.988V83ZM102.388 68.6H105.388V71.6H102.388V68.6ZM102.388 72.2H105.388V75.2H102.388V72.2ZM102.388 75.8H105.388V78.8H102.388V75.8ZM102.388 79.4H105.388V82.4H102.388V79.4Z" fill="#5B65C2"/>
<path d="M305.519 86.6H308.519V89.6H305.519V86.6ZM305.519 57.8H308.519V60.8H305.519V57.8ZM305.519 75.8H308.519V78.8H305.519V75.8ZM305.519 79.4H308.519V82.4H305.519V79.4ZM305.519 65H308.519V68H305.519V65ZM305.519 68.6H308.519V71.6H305.519V68.6ZM312.719 65H315.719V68H312.719V65ZM309.119 61.4H312.119V64.4H309.119V61.4ZM305.519 61.4H308.519V64.4H305.519V61.4ZM301.919 61.4H304.919V64.4H301.919V61.4ZM298.319 65H301.319V68H298.319V65ZM312.719 75.8H315.719V78.8H312.719V75.8ZM312.719 79.4H315.719V82.4H312.719V79.4ZM309.119 72.2H312.119V75.2H309.119V72.2ZM309.119 83H312.119V86H309.119V83ZM305.519 72.2H308.519V75.2H305.519V72.2ZM305.519 83H308.519V86H305.519V83ZM301.919 72.2H304.919V75.2H301.919V72.2ZM301.919 83H304.919V86H301.919V83ZM298.319 68.6H301.319V71.6H298.319V68.6ZM298.319 79.4H301.319V82.4H298.319V79.4ZM312.719 65H315.719V68H312.719V65ZM309.119 61.4H312.119V64.4H309.119V61.4ZM305.519 61.4H308.519V64.4H305.519V61.4ZM301.919 61.4H304.919V64.4H301.919V61.4ZM298.319 65H301.319V68H298.319V65ZM312.719 75.8H315.719V78.8H312.719V75.8ZM312.719 79.4H315.719V82.4H312.719V79.4ZM309.119 72.2H312.119V75.2H309.119V72.2ZM309.119 83H312.119V86H309.119V83ZM305.519 72.2H308.519V75.2H305.519V72.2ZM305.519 83H308.519V86H305.519V83ZM301.919 72.2H304.919V75.2H301.919V72.2ZM301.919 83H304.919V86H301.919V83ZM298.319 68.6H301.319V71.6H298.319V68.6ZM298.319 79.4H301.319V82.4H298.319V79.4ZM334.311 65H337.311V68H334.311V65ZM330.711 61.4H333.711V64.4H330.711V61.4ZM327.111 61.4H330.111V64.4H327.111V61.4ZM323.511 61.4H326.511V64.4H323.511V61.4ZM319.911 65H322.911V68H319.911V65ZM334.311 68.6H337.311V71.6H334.311V68.6ZM334.311 83H337.311V86H334.311V83ZM330.711 72.2H333.711V75.2H330.711V72.2ZM330.711 83H333.711V86H330.711V83ZM327.111 75.8H330.111V78.8H327.111V75.8ZM327.111 83H330.111V86H327.111V83ZM323.511 79.4H326.511V82.4H323.511V79.4ZM323.511 83H326.511V86H323.511V83ZM319.911 83H322.911V86H319.911V83ZM352.303 61.4H355.303V64.4H352.303V61.4ZM352.303 65H355.303V68H352.303V65ZM348.703 65H351.703V68H348.703V65ZM355.903 75.8H358.903V78.8H355.903V75.8ZM352.303 68.6H355.303V71.6H352.303V68.6ZM352.303 72.2H355.303V75.2H352.303V72.2ZM352.303 75.8H355.303V78.8H352.303V75.8ZM352.303 79.4H355.303V82.4H352.303V79.4ZM352.303 83H355.303V86H352.303V83ZM348.703 75.8H351.703V78.8H348.703V75.8ZM345.103 68.6H348.103V71.6H345.103V68.6ZM345.103 75.8H348.103V78.8H345.103V75.8ZM341.503 72.2H344.503V75.2H341.503V72.2ZM341.503 75.8H344.503V78.8H341.503V75.8ZM366.695 79.4H369.695V82.4H366.695V79.4ZM366.695 83H369.695V86H366.695V83ZM363.095 79.4H366.095V82.4H363.095V79.4ZM363.095 83H366.095V86H363.095V83ZM388.305 65H391.305V68H388.305V65ZM384.705 61.4H387.705V64.4H384.705V61.4ZM381.105 61.4H384.105V64.4H381.105V61.4ZM377.505 61.4H380.505V64.4H377.505V61.4ZM373.905 65H376.905V68H373.905V65ZM388.305 68.6H391.305V71.6H388.305V68.6ZM388.305 72.2H391.305V75.2H388.305V72.2ZM388.305 75.8H391.305V78.8H388.305V75.8ZM388.305 79.4H391.305V82.4H388.305V79.4ZM384.705 68.6H387.705V71.6H384.705V68.6ZM384.705 83H387.705V86H384.705V83ZM381.105 72.2H384.105V75.2H381.105V72.2ZM381.105 83H384.105V86H381.105V83ZM377.505 75.8H380.505V78.8H377.505V75.8ZM377.505 83H380.505V86H377.505V83ZM373.905 68.6H376.905V71.6H373.905V68.6ZM373.905 72.2H376.905V75.2H373.905V72.2ZM373.905 75.8H376.905V78.8H373.905V75.8ZM373.905 79.4H376.905V82.4H373.905V79.4ZM409.897 65H412.897V68H409.897V65ZM406.297 61.4H409.297V64.4H406.297V61.4ZM402.697 61.4H405.697V64.4H402.697V61.4ZM399.097 61.4H402.097V64.4H399.097V61.4ZM395.497 65H398.497V68H395.497V65ZM409.897 68.6H412.897V71.6H409.897V68.6ZM409.897 72.2H412.897V75.2H409.897V72.2ZM409.897 75.8H412.897V78.8H409.897V75.8ZM409.897 79.4H412.897V82.4H409.897V79.4ZM406.297 68.6H409.297V71.6H406.297V68.6ZM406.297 83H409.297V86H406.297V83ZM402.697 72.2H405.697V75.2H402.697V72.2ZM402.697 83H405.697V86H402.697V83ZM399.097 75.8H402.097V78.8H399.097V75.8ZM399.097 83H402.097V86H399.097V83ZM395.497 68.6H398.497V71.6H395.497V68.6ZM395.497 72.2H398.497V75.2H395.497V72.2ZM395.497 75.8H398.497V78.8H395.497V75.8ZM395.497 79.4H398.497V82.4H395.497V79.4ZM431.489 65H434.489V68H431.489V65ZM427.889 61.4H430.889V64.4H427.889V61.4ZM424.289 61.4H427.289V64.4H424.289V61.4ZM420.689 61.4H423.689V64.4H420.689V61.4ZM417.089 65H420.089V68H417.089V65ZM431.489 68.6H434.489V71.6H431.489V68.6ZM431.489 72.2H434.489V75.2H431.489V72.2ZM431.489 75.8H434.489V78.8H431.489V75.8ZM431.489 79.4H434.489V82.4H431.489V79.4ZM427.889 68.6H430.889V71.6H427.889V68.6ZM427.889 83H430.889V86H427.889V83ZM424.289 72.2H427.289V75.2H424.289V72.2ZM424.289 83H427.289V86H424.289V83ZM420.689 75.8H423.689V78.8H420.689V75.8ZM420.689 83H423.689V86H420.689V83ZM417.089 68.6H420.089V71.6H417.089V68.6ZM417.089 72.2H420.089V75.2H417.089V72.2ZM417.089 75.8H420.089V78.8H417.089V75.8ZM417.089 79.4H420.089V82.4H417.089V79.4Z" fill="#5B65C2"/>
</g>
<defs>
<clipPath id="clip0">
<rect width="452" height="280" fill="white"/>
</clipPath>
</defs>
</svg>
