<svg width="452" height="280" viewBox="0 0 452 280" fill="none" xmlns="http://www.w3.org/2000/svg">
<rect width="452" height="280" fill="white"/>
<rect width="452" height="47" fill="#5B65C2"/>
<path d="M151.723 91.6H154.723V94.6H151.723V91.6ZM151.723 62.8H154.723V65.8H151.723V62.8ZM151.723 80.8H154.723V83.8H151.723V80.8ZM151.723 84.4H154.723V87.4H151.723V84.4ZM151.723 70H154.723V73H151.723V70ZM151.723 73.6H154.723V76.6H151.723V73.6ZM158.923 70H161.923V73H158.923V70ZM155.323 66.4H158.323V69.4H155.323V66.4ZM151.723 66.4H154.723V69.4H151.723V66.4ZM148.123 66.4H151.123V69.4H148.123V66.4ZM144.523 70H147.523V73H144.523V70ZM158.923 80.8H161.923V83.8H158.923V80.8ZM158.923 84.4H161.923V87.4H158.923V84.4ZM155.323 77.2H158.323V80.2H155.323V77.2ZM155.323 88H158.323V91H155.323V88ZM151.723 77.2H154.723V80.2H151.723V77.2ZM151.723 88H154.723V91H151.723V88ZM148.123 77.2H151.123V80.2H148.123V77.2ZM148.123 88H151.123V91H148.123V88ZM144.523 73.6H147.523V76.6H144.523V73.6ZM144.523 84.4H147.523V87.4H144.523V84.4ZM158.923 70H161.923V73H158.923V70ZM155.323 66.4H158.323V69.4H155.323V66.4ZM151.723 66.4H154.723V69.4H151.723V66.4ZM148.123 66.4H151.123V69.4H148.123V66.4ZM144.523 70H147.523V73H144.523V70ZM158.923 80.8H161.923V83.8H158.923V80.8ZM158.923 84.4H161.923V87.4H158.923V84.4ZM155.323 77.2H158.323V80.2H155.323V77.2ZM155.323 88H158.323V91H155.323V88ZM151.723 77.2H154.723V80.2H151.723V77.2ZM151.723 88H154.723V91H151.723V88ZM148.123 77.2H151.123V80.2H148.123V77.2ZM148.123 88H151.123V91H148.123V88ZM144.523 73.6H147.523V76.6H144.523V73.6ZM144.523 84.4H147.523V87.4H144.523V84.4ZM180.515 70H183.515V73H180.515V70ZM176.915 66.4H179.915V69.4H176.915V66.4ZM173.315 66.4H176.315V69.4H173.315V66.4ZM169.715 66.4H172.715V69.4H169.715V66.4ZM166.115 70H169.115V73H166.115V70ZM180.515 73.6H183.515V76.6H180.515V73.6ZM180.515 88H183.515V91H180.515V88ZM176.915 77.2H179.915V80.2H176.915V77.2ZM176.915 88H179.915V91H176.915V88ZM173.315 80.8H176.315V83.8H173.315V80.8ZM173.315 88H176.315V91H173.315V88ZM169.715 84.4H172.715V87.4H169.715V84.4ZM169.715 88H172.715V91H169.715V88ZM166.115 88H169.115V91H166.115V88ZM198.507 66.4H201.507V69.4H198.507V66.4ZM194.907 66.4H197.907V69.4H194.907V66.4ZM191.307 66.4H194.307V69.4H191.307V66.4ZM187.707 70H190.707V73H187.707V70ZM202.107 77.2H205.107V80.2H202.107V77.2ZM202.107 80.8H205.107V83.8H202.107V80.8ZM202.107 84.4H205.107V87.4H202.107V84.4ZM198.507 73.6H201.507V76.6H198.507V73.6ZM198.507 88H201.507V91H198.507V88ZM194.907 73.6H197.907V76.6H194.907V73.6ZM194.907 88H197.907V91H194.907V88ZM191.307 73.6H194.307V76.6H191.307V73.6ZM191.307 88H194.307V91H191.307V88ZM187.707 73.6H190.707V76.6H187.707V73.6ZM187.707 77.2H190.707V80.2H187.707V77.2ZM187.707 80.8H190.707V83.8H187.707V80.8ZM187.707 84.4H190.707V87.4H187.707V84.4ZM212.899 84.4H215.899V87.4H212.899V84.4ZM212.899 88H215.899V91H212.899V88ZM209.299 84.4H212.299V87.4H209.299V84.4ZM209.299 88H212.299V91H209.299V88ZM230.909 66.4H233.909V69.4H230.909V66.4ZM230.909 70H233.909V73H230.909V70ZM227.309 70H230.309V73H227.309V70ZM234.509 80.8H237.509V83.8H234.509V80.8ZM230.909 73.6H233.909V76.6H230.909V73.6ZM230.909 77.2H233.909V80.2H230.909V77.2ZM230.909 80.8H233.909V83.8H230.909V80.8ZM230.909 84.4H233.909V87.4H230.909V84.4ZM230.909 88H233.909V91H230.909V88ZM227.309 80.8H230.309V83.8H227.309V80.8ZM223.709 73.6H226.709V76.6H223.709V73.6ZM223.709 80.8H226.709V83.8H223.709V80.8ZM220.109 77.2H223.109V80.2H220.109V77.2ZM220.109 80.8H223.109V83.8H220.109V80.8ZM256.101 70H259.101V73H256.101V70ZM252.501 66.4H255.501V69.4H252.501V66.4ZM248.901 66.4H251.901V69.4H248.901V66.4ZM245.301 66.4H248.301V69.4H245.301V66.4ZM241.701 70H244.701V73H241.701V70ZM256.101 73.6H259.101V76.6H256.101V73.6ZM256.101 77.2H259.101V80.2H256.101V77.2ZM256.101 80.8H259.101V83.8H256.101V80.8ZM256.101 84.4H259.101V87.4H256.101V84.4ZM252.501 73.6H255.501V76.6H252.501V73.6ZM252.501 88H255.501V91H252.501V88ZM248.901 77.2H251.901V80.2H248.901V77.2ZM248.901 88H251.901V91H248.901V88ZM245.301 80.8H248.301V83.8H245.301V80.8ZM245.301 88H248.301V91H245.301V88ZM241.701 73.6H244.701V76.6H241.701V73.6ZM241.701 77.2H244.701V80.2H241.701V77.2ZM241.701 80.8H244.701V83.8H241.701V80.8ZM241.701 84.4H244.701V87.4H241.701V84.4ZM277.693 70H280.693V73H277.693V70ZM274.093 66.4H277.093V69.4H274.093V66.4ZM270.493 66.4H273.493V69.4H270.493V66.4ZM266.893 66.4H269.893V69.4H266.893V66.4ZM263.293 70H266.293V73H263.293V70ZM277.693 73.6H280.693V76.6H277.693V73.6ZM277.693 77.2H280.693V80.2H277.693V77.2ZM277.693 80.8H280.693V83.8H277.693V80.8ZM277.693 84.4H280.693V87.4H277.693V84.4ZM274.093 73.6H277.093V76.6H274.093V73.6ZM274.093 88H277.093V91H274.093V88ZM270.493 77.2H273.493V80.2H270.493V77.2ZM270.493 88H273.493V91H270.493V88ZM266.893 80.8H269.893V83.8H266.893V80.8ZM266.893 88H269.893V91H266.893V88ZM263.293 73.6H266.293V76.6H263.293V73.6ZM263.293 77.2H266.293V80.2H263.293V77.2ZM263.293 80.8H266.293V83.8H263.293V80.8ZM263.293 84.4H266.293V87.4H263.293V84.4ZM299.285 70H302.285V73H299.285V70ZM295.685 66.4H298.685V69.4H295.685V66.4ZM292.085 66.4H295.085V69.4H292.085V66.4ZM288.485 66.4H291.485V69.4H288.485V66.4ZM284.885 70H287.885V73H284.885V70ZM299.285 73.6H302.285V76.6H299.285V73.6ZM299.285 77.2H302.285V80.2H299.285V77.2ZM299.285 80.8H302.285V83.8H299.285V80.8ZM299.285 84.4H302.285V87.4H299.285V84.4ZM295.685 73.6H298.685V76.6H295.685V73.6ZM295.685 88H298.685V91H295.685V88ZM292.085 77.2H295.085V80.2H292.085V77.2ZM292.085 88H295.085V91H292.085V88ZM288.485 80.8H291.485V83.8H288.485V80.8ZM288.485 88H291.485V91H288.485V88ZM284.885 73.6H287.885V76.6H284.885V73.6ZM284.885 77.2H287.885V80.2H284.885V77.2ZM284.885 80.8H287.885V83.8H284.885V80.8ZM284.885 84.4H287.885V87.4H284.885V84.4ZM100.442 99.4H103.442V102.4H100.442V99.4ZM96.8422 99.4H99.8422V102.4H96.8422V99.4ZM96.8422 103H99.8422V106H96.8422V103ZM93.2422 99.4H96.2422V102.4H93.2422V99.4ZM100.442 121H103.442V124H100.442V121ZM96.8422 106.6H99.8422V109.6H96.8422V106.6ZM96.8422 110.2H99.8422V113.2H96.8422V110.2ZM96.8422 113.8H99.8422V116.8H96.8422V113.8ZM96.8422 117.4H99.8422V120.4H96.8422V117.4ZM96.8422 121H99.8422V124H96.8422V121ZM93.2422 121H96.2422V124H93.2422V121ZM122.056 99.4H125.056V102.4H122.056V99.4ZM122.056 103H125.056V106H122.056V103ZM107.656 99.4H110.656V102.4H107.656V99.4ZM107.656 103H110.656V106H107.656V103ZM122.056 106.6H125.056V109.6H122.056V106.6ZM122.056 110.2H125.056V113.2H122.056V110.2ZM122.056 113.8H125.056V116.8H122.056V113.8ZM122.056 117.4H125.056V120.4H122.056V117.4ZM122.056 121H125.056V124H122.056V121ZM118.456 113.8H121.456V116.8H118.456V113.8ZM114.856 110.2H117.856V113.2H114.856V110.2ZM111.256 106.6H114.256V109.6H111.256V106.6ZM107.656 106.6H110.656V109.6H107.656V106.6ZM107.656 110.2H110.656V113.2H107.656V110.2ZM107.656 113.8H110.656V116.8H107.656V113.8ZM107.656 117.4H110.656V120.4H107.656V117.4ZM107.656 121H110.656V124H107.656V121ZM143.648 103H146.648V106H143.648V103ZM140.048 99.4H143.048V102.4H140.048V99.4ZM136.448 99.4H139.448V102.4H136.448V99.4ZM132.848 99.4H135.848V102.4H132.848V99.4ZM129.248 103H132.248V106H129.248V103ZM143.648 113.8H146.648V116.8H143.648V113.8ZM143.648 117.4H146.648V120.4H143.648V117.4ZM140.048 113.8H143.048V116.8H140.048V113.8ZM140.048 121H143.048V124H140.048V121ZM136.448 121H139.448V124H136.448V121ZM132.848 121H135.848V124H132.848V121ZM129.248 106.6H132.248V109.6H129.248V106.6ZM129.248 110.2H132.248V113.2H129.248V110.2ZM129.248 113.8H132.248V116.8H129.248V113.8ZM129.248 117.4H132.248V120.4H129.248V117.4ZM165.24 103H168.24V106H165.24V103ZM161.64 99.4H164.64V102.4H161.64V99.4ZM158.04 99.4H161.04V102.4H158.04V99.4ZM154.44 99.4H157.44V102.4H154.44V99.4ZM150.84 99.4H153.84V102.4H150.84V99.4ZM150.84 103H153.84V106H150.84V103ZM165.24 106.6H168.24V109.6H165.24V106.6ZM165.24 121H168.24V124H165.24V121ZM161.64 110.2H164.64V113.2H161.64V110.2ZM161.64 117.4H164.64V120.4H161.64V117.4ZM158.04 110.2H161.04V113.2H158.04V110.2ZM158.04 113.8H161.04V116.8H158.04V113.8ZM154.44 110.2H157.44V113.2H154.44V110.2ZM150.84 106.6H153.84V109.6H150.84V106.6ZM150.84 110.2H153.84V113.2H150.84V110.2ZM150.84 113.8H153.84V116.8H150.84V113.8ZM150.84 117.4H153.84V120.4H150.84V117.4ZM150.84 121H153.84V124H150.84V121ZM186.832 99.4H189.832V102.4H186.832V99.4ZM183.232 99.4H186.232V102.4H183.232V99.4ZM179.632 99.4H182.632V102.4H179.632V99.4ZM176.032 99.4H179.032V102.4H176.032V99.4ZM172.432 99.4H175.432V102.4H172.432V99.4ZM172.432 103H175.432V106H172.432V103ZM186.832 121H189.832V124H186.832V121ZM183.232 110.2H186.232V113.2H183.232V110.2ZM183.232 121H186.232V124H183.232V121ZM179.632 110.2H182.632V113.2H179.632V110.2ZM179.632 121H182.632V124H179.632V121ZM176.032 110.2H179.032V113.2H176.032V110.2ZM176.032 121H179.032V124H176.032V121ZM172.432 106.6H175.432V109.6H172.432V106.6ZM172.432 110.2H175.432V113.2H172.432V110.2ZM172.432 113.8H175.432V116.8H172.432V113.8ZM172.432 117.4H175.432V120.4H172.432V117.4ZM172.432 121H175.432V124H172.432V121ZM208.423 103H211.423V106H208.423V103ZM204.823 99.4H207.823V102.4H204.823V99.4ZM201.223 99.4H204.223V102.4H201.223V99.4ZM197.623 99.4H200.623V102.4H197.623V99.4ZM194.023 103H197.023V106H194.023V103ZM208.423 113.8H211.423V116.8H208.423V113.8ZM208.423 117.4H211.423V120.4H208.423V117.4ZM204.823 110.2H207.823V113.2H204.823V110.2ZM204.823 121H207.823V124H204.823V121ZM201.223 110.2H204.223V113.2H201.223V110.2ZM201.223 121H204.223V124H201.223V121ZM197.623 110.2H200.623V113.2H197.623V110.2ZM197.623 121H200.623V124H197.623V121ZM194.023 106.6H197.023V109.6H194.023V106.6ZM194.023 117.4H197.023V120.4H194.023V117.4ZM230.015 99.4H233.015V102.4H230.015V99.4ZM226.415 99.4H229.415V102.4H226.415V99.4ZM222.815 99.4H225.815V102.4H222.815V99.4ZM219.215 99.4H222.215V102.4H219.215V99.4ZM215.615 99.4H218.615V102.4H215.615V99.4ZM215.615 103H218.615V106H215.615V103ZM230.015 121H233.015V124H230.015V121ZM226.415 110.2H229.415V113.2H226.415V110.2ZM226.415 121H229.415V124H226.415V121ZM222.815 110.2H225.815V113.2H222.815V110.2ZM222.815 121H225.815V124H222.815V121ZM219.215 110.2H222.215V113.2H219.215V110.2ZM219.215 121H222.215V124H219.215V121ZM215.615 106.6H218.615V109.6H215.615V106.6ZM215.615 110.2H218.615V113.2H215.615V110.2ZM215.615 113.8H218.615V116.8H215.615V113.8ZM215.615 117.4H218.615V120.4H215.615V117.4ZM215.615 121H218.615V124H215.615V121ZM264.199 103H267.199V106H264.199V103ZM260.599 99.4H263.599V102.4H260.599V99.4ZM256.999 99.4H259.999V102.4H256.999V99.4ZM253.399 99.4H256.399V102.4H253.399V99.4ZM249.799 103H252.799V106H249.799V103ZM264.199 117.4H267.199V120.4H264.199V117.4ZM260.599 121H263.599V124H260.599V121ZM256.999 121H259.999V124H256.999V121ZM253.399 121H256.399V124H253.399V121ZM249.799 106.6H252.799V109.6H249.799V106.6ZM249.799 110.2H252.799V113.2H249.799V110.2ZM249.799 113.8H252.799V116.8H249.799V113.8ZM249.799 117.4H252.799V120.4H249.799V117.4ZM271.391 99.4H274.391V102.4H271.391V99.4ZM271.391 103H274.391V106H271.391V103ZM285.791 121H288.791V124H285.791V121ZM282.191 121H285.191V124H282.191V121ZM278.591 121H281.591V124H278.591V121ZM274.991 121H277.991V124H274.991V121ZM271.391 106.6H274.391V109.6H271.391V106.6ZM271.391 110.2H274.391V113.2H271.391V110.2ZM271.391 113.8H274.391V116.8H271.391V113.8ZM271.391 117.4H274.391V120.4H271.391V117.4ZM271.391 121H274.391V124H271.391V121ZM307.382 103H310.382V106H307.382V103ZM303.782 99.4H306.782V102.4H303.782V99.4ZM300.182 99.4H303.182V102.4H300.182V99.4ZM296.582 99.4H299.582V102.4H296.582V99.4ZM292.982 103H295.982V106H292.982V103ZM307.382 106.6H310.382V109.6H307.382V106.6ZM307.382 110.2H310.382V113.2H307.382V110.2ZM307.382 113.8H310.382V116.8H307.382V113.8ZM307.382 117.4H310.382V120.4H307.382V117.4ZM307.382 121H310.382V124H307.382V121ZM303.782 110.2H306.782V113.2H303.782V110.2ZM300.182 110.2H303.182V113.2H300.182V110.2ZM296.582 110.2H299.582V113.2H296.582V110.2ZM292.982 106.6H295.982V109.6H292.982V106.6ZM292.982 110.2H295.982V113.2H292.982V110.2ZM292.982 113.8H295.982V116.8H292.982V113.8ZM292.982 117.4H295.982V120.4H292.982V117.4ZM292.982 121H295.982V124H292.982V121ZM328.974 99.4H331.974V102.4H328.974V99.4ZM328.974 103H331.974V106H328.974V103ZM314.574 99.4H317.574V102.4H314.574V99.4ZM314.574 103H317.574V106H314.574V103ZM328.974 106.6H331.974V109.6H328.974V106.6ZM328.974 110.2H331.974V113.2H328.974V110.2ZM328.974 113.8H331.974V116.8H328.974V113.8ZM325.374 117.4H328.374V120.4H325.374V117.4ZM321.774 121H324.774V124H321.774V121ZM318.174 117.4H321.174V120.4H318.174V117.4ZM314.574 106.6H317.574V109.6H314.574V106.6ZM314.574 110.2H317.574V113.2H314.574V110.2ZM314.574 113.8H317.574V116.8H314.574V113.8ZM350.566 99.4H353.566V102.4H350.566V99.4ZM346.966 99.4H349.966V102.4H346.966V99.4ZM343.366 99.4H346.366V102.4H343.366V99.4ZM339.766 99.4H342.766V102.4H339.766V99.4ZM336.166 99.4H339.166V102.4H336.166V99.4ZM336.166 103H339.166V106H336.166V103ZM350.566 121H353.566V124H350.566V121ZM346.966 110.2H349.966V113.2H346.966V110.2ZM346.966 121H349.966V124H346.966V121ZM343.366 110.2H346.366V113.2H343.366V110.2ZM343.366 121H346.366V124H343.366V121ZM339.766 110.2H342.766V113.2H339.766V110.2ZM339.766 121H342.766V124H339.766V121ZM336.166 106.6H339.166V109.6H336.166V106.6ZM336.166 110.2H339.166V113.2H336.166V110.2ZM336.166 113.8H339.166V116.8H336.166V113.8ZM336.166 117.4H339.166V120.4H336.166V117.4ZM336.166 121H339.166V124H336.166V121Z" fill="#5B65C2"/>
<path d="M55.0445 15H58.0445V18H55.0445V15ZM51.4445 11.4H54.4445V14.4H51.4445V11.4ZM47.8445 11.4H50.8445V14.4H47.8445V11.4ZM44.2445 11.4H47.2445V14.4H44.2445V11.4ZM40.6445 15H43.6445V18H40.6445V15ZM55.0445 29.4H58.0445V32.4H55.0445V29.4ZM51.4445 33H54.4445V36H51.4445V33ZM47.8445 33H50.8445V36H47.8445V33ZM44.2445 33H47.2445V36H44.2445V33ZM40.6445 18.6H43.6445V21.6H40.6445V18.6ZM40.6445 22.2H43.6445V25.2H40.6445V22.2ZM40.6445 25.8H43.6445V28.8H40.6445V25.8ZM40.6445 29.4H43.6445V32.4H40.6445V29.4ZM76.6363 11.4H79.6363V14.4H76.6363V11.4ZM76.6363 15H79.6363V18H76.6363V15ZM62.2363 11.4H65.2363V14.4H62.2363V11.4ZM62.2363 15H65.2363V18H62.2363V15ZM76.6363 18.6H79.6363V21.6H76.6363V18.6ZM76.6363 22.2H79.6363V25.2H76.6363V22.2ZM76.6363 25.8H79.6363V28.8H76.6363V25.8ZM76.6363 29.4H79.6363V32.4H76.6363V29.4ZM73.0363 33H76.0363V36H73.0363V33ZM69.4363 33H72.4363V36H69.4363V33ZM65.8363 33H68.8363V36H65.8363V33ZM62.2363 18.6H65.2363V21.6H62.2363V18.6ZM62.2363 22.2H65.2363V25.2H62.2363V22.2ZM62.2363 25.8H65.2363V28.8H62.2363V25.8ZM62.2363 29.4H65.2363V32.4H62.2363V29.4ZM98.2281 11.4H101.228V14.4H98.2281V11.4ZM94.6281 11.4H97.6281V14.4H94.6281V11.4ZM91.0281 11.4H94.0281V14.4H91.0281V11.4ZM87.4281 11.4H90.4281V14.4H87.4281V11.4ZM83.8281 11.4H86.8281V14.4H83.8281V11.4ZM83.8281 15H86.8281V18H83.8281V15ZM98.2281 33H101.228V36H98.2281V33ZM94.6281 22.2H97.6281V25.2H94.6281V22.2ZM94.6281 33H97.6281V36H94.6281V33ZM91.0281 22.2H94.0281V25.2H91.0281V22.2ZM91.0281 33H94.0281V36H91.0281V33ZM87.4281 22.2H90.4281V25.2H87.4281V22.2ZM87.4281 33H90.4281V36H87.4281V33ZM83.8281 18.6H86.8281V21.6H83.8281V18.6ZM83.8281 22.2H86.8281V25.2H83.8281V22.2ZM83.8281 25.8H86.8281V28.8H83.8281V25.8ZM83.8281 29.4H86.8281V32.4H83.8281V29.4ZM83.8281 33H86.8281V36H83.8281V33ZM119.82 11.4H122.82V14.4H119.82V11.4ZM119.82 15H122.82V18H119.82V15ZM105.42 11.4H108.42V14.4H105.42V11.4ZM105.42 15H108.42V18H105.42V15ZM119.82 18.6H122.82V21.6H119.82V18.6ZM119.82 22.2H122.82V25.2H119.82V22.2ZM119.82 25.8H122.82V28.8H119.82V25.8ZM119.82 29.4H122.82V32.4H119.82V29.4ZM119.82 33H122.82V36H119.82V33ZM116.22 25.8H119.22V28.8H116.22V25.8ZM112.62 22.2H115.62V25.2H112.62V22.2ZM109.02 18.6H112.02V21.6H109.02V18.6ZM105.42 18.6H108.42V21.6H105.42V18.6ZM105.42 22.2H108.42V25.2H105.42V22.2ZM105.42 25.8H108.42V28.8H105.42V25.8ZM105.42 29.4H108.42V32.4H105.42V29.4ZM105.42 33H108.42V36H105.42V33ZM141.412 11.4H144.412V14.4H141.412V11.4ZM137.812 11.4H140.812V14.4H137.812V11.4ZM134.212 11.4H137.212V14.4H134.212V11.4ZM134.212 15H137.212V18H134.212V15ZM130.612 11.4H133.612V14.4H130.612V11.4ZM127.012 11.4H130.012V14.4H127.012V11.4ZM134.212 18.6H137.212V21.6H134.212V18.6ZM134.212 22.2H137.212V25.2H134.212V22.2ZM134.212 25.8H137.212V28.8H134.212V25.8ZM134.212 29.4H137.212V32.4H134.212V29.4ZM134.212 33H137.212V36H134.212V33ZM163.004 15H166.004V18H163.004V15ZM159.404 11.4H162.404V14.4H159.404V11.4ZM155.804 11.4H158.804V14.4H155.804V11.4ZM152.204 11.4H155.204V14.4H152.204V11.4ZM148.604 15H151.604V18H148.604V15ZM163.004 18.6H166.004V21.6H163.004V18.6ZM163.004 22.2H166.004V25.2H163.004V22.2ZM163.004 25.8H166.004V28.8H163.004V25.8ZM163.004 29.4H166.004V32.4H163.004V29.4ZM163.004 33H166.004V36H163.004V33ZM159.404 22.2H162.404V25.2H159.404V22.2ZM155.804 22.2H158.804V25.2H155.804V22.2ZM152.204 22.2H155.204V25.2H152.204V22.2ZM148.604 18.6H151.604V21.6H148.604V18.6ZM148.604 22.2H151.604V25.2H148.604V22.2ZM148.604 25.8H151.604V28.8H148.604V25.8ZM148.604 29.4H151.604V32.4H148.604V29.4ZM148.604 33H151.604V36H148.604V33ZM197.187 15H200.187V18H197.187V15ZM193.587 11.4H196.587V14.4H193.587V11.4ZM189.987 11.4H192.987V14.4H189.987V11.4ZM186.387 11.4H189.387V14.4H186.387V11.4ZM182.787 11.4H185.787V14.4H182.787V11.4ZM182.787 15H185.787V18H182.787V15ZM197.187 18.6H200.187V21.6H197.187V18.6ZM197.187 22.2H200.187V25.2H197.187V22.2ZM197.187 25.8H200.187V28.8H197.187V25.8ZM197.187 29.4H200.187V32.4H197.187V29.4ZM193.587 33H196.587V36H193.587V33ZM189.987 33H192.987V36H189.987V33ZM186.387 33H189.387V36H186.387V33ZM182.787 18.6H185.787V21.6H182.787V18.6ZM182.787 22.2H185.787V25.2H182.787V22.2ZM182.787 25.8H185.787V28.8H182.787V25.8ZM182.787 29.4H185.787V32.4H182.787V29.4ZM182.787 33H185.787V36H182.787V33ZM211.579 11.4H214.579V14.4H211.579V11.4ZM207.979 11.4H210.979V14.4H207.979V11.4ZM207.979 15H210.979V18H207.979V15ZM204.379 11.4H207.379V14.4H204.379V11.4ZM211.579 33H214.579V36H211.579V33ZM207.979 18.6H210.979V21.6H207.979V18.6ZM207.979 22.2H210.979V25.2H207.979V22.2ZM207.979 25.8H210.979V28.8H207.979V25.8ZM207.979 29.4H210.979V32.4H207.979V29.4ZM207.979 33H210.979V36H207.979V33ZM204.379 33H207.379V36H204.379V33ZM233.193 11.4H236.193V14.4H233.193V11.4ZM233.193 15H236.193V18H233.193V15ZM218.793 11.4H221.793V14.4H218.793V11.4ZM218.793 15H221.793V18H218.793V15ZM233.193 18.6H236.193V21.6H233.193V18.6ZM233.193 22.2H236.193V25.2H233.193V22.2ZM233.193 25.8H236.193V28.8H233.193V25.8ZM229.593 29.4H232.593V32.4H229.593V29.4ZM225.993 33H228.993V36H225.993V33ZM222.393 29.4H225.393V32.4H222.393V29.4ZM218.793 18.6H221.793V21.6H218.793V18.6ZM218.793 22.2H221.793V25.2H218.793V22.2ZM218.793 25.8H221.793V28.8H218.793V25.8ZM247.585 11.4H250.585V14.4H247.585V11.4ZM243.985 11.4H246.985V14.4H243.985V11.4ZM243.985 15H246.985V18H243.985V15ZM240.385 11.4H243.385V14.4H240.385V11.4ZM247.585 33H250.585V36H247.585V33ZM243.985 18.6H246.985V21.6H243.985V18.6ZM243.985 22.2H246.985V25.2H243.985V22.2ZM243.985 25.8H246.985V28.8H243.985V25.8ZM243.985 29.4H246.985V32.4H243.985V29.4ZM243.985 33H246.985V36H243.985V33ZM240.385 33H243.385V36H240.385V33ZM269.199 15H272.199V18H269.199V15ZM265.599 11.4H268.599V14.4H265.599V11.4ZM261.999 11.4H264.999V14.4H261.999V11.4ZM258.399 11.4H261.399V14.4H258.399V11.4ZM254.799 11.4H257.799V14.4H254.799V11.4ZM254.799 15H257.799V18H254.799V15ZM269.199 18.6H272.199V21.6H269.199V18.6ZM269.199 22.2H272.199V25.2H269.199V22.2ZM269.199 25.8H272.199V28.8H269.199V25.8ZM269.199 29.4H272.199V32.4H269.199V29.4ZM265.599 33H268.599V36H265.599V33ZM261.999 33H264.999V36H261.999V33ZM258.399 33H261.399V36H258.399V33ZM254.799 18.6H257.799V21.6H254.799V18.6ZM254.799 22.2H257.799V25.2H254.799V22.2ZM254.799 25.8H257.799V28.8H254.799V25.8ZM254.799 29.4H257.799V32.4H254.799V29.4ZM254.799 33H257.799V36H254.799V33ZM283.591 11.4H286.591V14.4H283.591V11.4ZM279.991 11.4H282.991V14.4H279.991V11.4ZM279.991 15H282.991V18H279.991V15ZM276.391 11.4H279.391V14.4H276.391V11.4ZM283.591 33H286.591V36H283.591V33ZM279.991 18.6H282.991V21.6H279.991V18.6ZM279.991 22.2H282.991V25.2H279.991V22.2ZM279.991 25.8H282.991V28.8H279.991V25.8ZM279.991 29.4H282.991V32.4H279.991V29.4ZM279.991 33H282.991V36H279.991V33ZM276.391 33H279.391V36H276.391V33ZM305.205 15H308.205V18H305.205V15ZM301.605 11.4H304.605V14.4H301.605V11.4ZM298.005 11.4H301.005V14.4H298.005V11.4ZM294.405 11.4H297.405V14.4H294.405V11.4ZM290.805 11.4H293.805V14.4H290.805V11.4ZM290.805 15H293.805V18H290.805V15ZM305.205 18.6H308.205V21.6H305.205V18.6ZM305.205 22.2H308.205V25.2H305.205V22.2ZM305.205 25.8H308.205V28.8H305.205V25.8ZM305.205 29.4H308.205V32.4H305.205V29.4ZM301.605 33H304.605V36H301.605V33ZM298.005 33H301.005V36H298.005V33ZM294.405 33H297.405V36H294.405V33ZM290.805 18.6H293.805V21.6H290.805V18.6ZM290.805 22.2H293.805V25.2H290.805V22.2ZM290.805 25.8H293.805V28.8H290.805V25.8ZM290.805 29.4H293.805V32.4H290.805V29.4ZM290.805 33H293.805V36H290.805V33ZM326.796 15H329.796V18H326.796V15ZM323.196 11.4H326.196V14.4H323.196V11.4ZM319.596 11.4H322.596V14.4H319.596V11.4ZM315.996 11.4H318.996V14.4H315.996V11.4ZM312.396 15H315.396V18H312.396V15ZM326.796 18.6H329.796V21.6H326.796V18.6ZM326.796 22.2H329.796V25.2H326.796V22.2ZM326.796 25.8H329.796V28.8H326.796V25.8ZM326.796 29.4H329.796V32.4H326.796V29.4ZM326.796 33H329.796V36H326.796V33ZM323.196 22.2H326.196V25.2H323.196V22.2ZM319.596 22.2H322.596V25.2H319.596V22.2ZM315.996 22.2H318.996V25.2H315.996V22.2ZM312.396 18.6H315.396V21.6H312.396V18.6ZM312.396 22.2H315.396V25.2H312.396V22.2ZM312.396 25.8H315.396V28.8H312.396V25.8ZM312.396 29.4H315.396V32.4H312.396V29.4ZM312.396 33H315.396V36H312.396V33ZM353.78 11.4H356.78V14.4H353.78V11.4ZM353.78 15H356.78V18H353.78V15ZM350.18 15H353.18V18H350.18V15ZM360.98 33H363.98V36H360.98V33ZM357.38 33H360.38V36H357.38V33ZM353.78 18.6H356.78V21.6H353.78V18.6ZM353.78 22.2H356.78V25.2H353.78V22.2ZM353.78 25.8H356.78V28.8H353.78V25.8ZM353.78 29.4H356.78V32.4H353.78V29.4ZM353.78 33H356.78V36H353.78V33ZM350.18 33H353.18V36H350.18V33ZM346.58 18.6H349.58V21.6H346.58V18.6ZM346.58 33H349.58V36H346.58V33ZM382.572 15H385.572V18H382.572V15ZM378.972 18.6H381.972V21.6H378.972V18.6ZM375.372 22.2H378.372V25.2H375.372V22.2ZM371.772 25.8H374.772V28.8H371.772V25.8ZM368.172 29.4H371.172V32.4H368.172V29.4ZM404.164 11.4H407.164V14.4H404.164V11.4ZM400.564 11.4H403.564V14.4H400.564V11.4ZM396.964 11.4H399.964V14.4H396.964V11.4ZM393.364 11.4H396.364V14.4H393.364V11.4ZM389.764 11.4H392.764V14.4H389.764V11.4ZM389.764 15H392.764V18H389.764V15ZM404.164 22.2H407.164V25.2H404.164V22.2ZM404.164 25.8H407.164V28.8H404.164V25.8ZM404.164 29.4H407.164V32.4H404.164V29.4ZM400.564 18.6H403.564V21.6H400.564V18.6ZM400.564 33H403.564V36H400.564V33ZM396.964 18.6H399.964V21.6H396.964V18.6ZM396.964 33H399.964V36H396.964V33ZM393.364 18.6H396.364V21.6H393.364V18.6ZM393.364 33H396.364V36H393.364V33ZM389.764 18.6H392.764V21.6H389.764V18.6ZM389.764 29.4H392.764V32.4H389.764V29.4Z" fill="white"/>
<rect x="1.5" y="1.5" width="449" height="277" stroke="#5B65C2" stroke-width="3"/>
</svg>
