<svg width="452" height="280" viewBox="0 0 452 280" fill="none" xmlns="http://www.w3.org/2000/svg">
<g clip-path="url(#clip0)">
<rect width="452" height="280" fill="white"/>
<rect width="452" height="47" fill="#5B65C2"/>
<path d="M387.625 241H390.625V244H387.625V241ZM384.025 237.4H387.025V240.4H384.025V237.4ZM380.425 237.4H383.425V240.4H380.425V237.4ZM376.825 237.4H379.825V240.4H376.825V237.4ZM373.225 241H376.225V244H373.225V241ZM387.625 244.6H390.625V247.6H387.625V244.6ZM387.625 248.2H390.625V251.2H387.625V248.2ZM387.625 251.8H390.625V254.8H387.625V251.8ZM387.625 255.4H390.625V258.4H387.625V255.4ZM384.025 244.6H387.025V247.6H384.025V244.6ZM384.025 259H387.025V262H384.025V259ZM380.425 248.2H383.425V251.2H380.425V248.2ZM380.425 259H383.425V262H380.425V259ZM376.825 251.8H379.825V254.8H376.825V251.8ZM376.825 259H379.825V262H376.825V259ZM373.225 244.6H376.225V247.6H373.225V244.6ZM373.225 248.2H376.225V251.2H373.225V248.2ZM373.225 251.8H376.225V254.8H373.225V251.8ZM373.225 255.4H376.225V258.4H373.225V255.4ZM409.216 241H412.216V244H409.216V241ZM405.616 237.4H408.616V240.4H405.616V237.4ZM402.016 237.4H405.016V240.4H402.016V237.4ZM398.416 237.4H401.416V240.4H398.416V237.4ZM394.816 241H397.816V244H394.816V241ZM409.216 244.6H412.216V247.6H409.216V244.6ZM409.216 248.2H412.216V251.2H409.216V248.2ZM409.216 251.8H412.216V254.8H409.216V251.8ZM409.216 255.4H412.216V258.4H409.216V255.4ZM405.616 244.6H408.616V247.6H405.616V244.6ZM405.616 259H408.616V262H405.616V259ZM402.016 248.2H405.016V251.2H402.016V248.2ZM402.016 259H405.016V262H402.016V259ZM398.416 251.8H401.416V254.8H398.416V251.8ZM398.416 259H401.416V262H398.416V259ZM394.816 244.6H397.816V247.6H394.816V244.6ZM394.816 248.2H397.816V251.2H394.816V248.2ZM394.816 251.8H397.816V254.8H394.816V251.8ZM394.816 255.4H397.816V258.4H394.816V255.4ZM430.808 241H433.808V244H430.808V241ZM427.208 237.4H430.208V240.4H427.208V237.4ZM423.608 237.4H426.608V240.4H423.608V237.4ZM420.008 237.4H423.008V240.4H420.008V237.4ZM416.408 241H419.408V244H416.408V241ZM430.808 244.6H433.808V247.6H430.808V244.6ZM430.808 259H433.808V262H430.808V259ZM427.208 248.2H430.208V251.2H427.208V248.2ZM427.208 259H430.208V262H427.208V259ZM423.608 251.8H426.608V254.8H423.608V251.8ZM423.608 259H426.608V262H423.608V259ZM420.008 255.4H423.008V258.4H420.008V255.4ZM420.008 259H423.008V262H420.008V259ZM416.408 259H419.408V262H416.408V259Z" fill="#5B65C2"/>
<path d="M56.8404 11.4H59.8404V14.4H56.8404V11.4ZM56.8404 15H59.8404V18H56.8404V15ZM42.4404 11.4H45.4404V14.4H42.4404V11.4ZM42.4404 15H45.4404V18H42.4404V15ZM56.8404 18.6H59.8404V21.6H56.8404V18.6ZM56.8404 22.2H59.8404V25.2H56.8404V22.2ZM56.8404 25.8H59.8404V28.8H56.8404V25.8ZM53.2404 29.4H56.2404V32.4H53.2404V29.4ZM49.6404 33H52.6404V36H49.6404V33ZM46.0404 29.4H49.0404V32.4H46.0404V29.4ZM42.4404 18.6H45.4404V21.6H42.4404V18.6ZM42.4404 22.2H45.4404V25.2H42.4404V22.2ZM42.4404 25.8H45.4404V28.8H42.4404V25.8ZM78.4322 11.4H81.4322V14.4H78.4322V11.4ZM74.8322 11.4H77.8322V14.4H74.8322V11.4ZM71.2322 11.4H74.2322V14.4H71.2322V11.4ZM67.6322 11.4H70.6322V14.4H67.6322V11.4ZM64.0322 11.4H67.0322V14.4H64.0322V11.4ZM64.0322 15H67.0322V18H64.0322V15ZM78.4322 33H81.4322V36H78.4322V33ZM74.8322 22.2H77.8322V25.2H74.8322V22.2ZM74.8322 33H77.8322V36H74.8322V33ZM71.2322 22.2H74.2322V25.2H71.2322V22.2ZM71.2322 33H74.2322V36H71.2322V33ZM67.6322 22.2H70.6322V25.2H67.6322V22.2ZM67.6322 33H70.6322V36H67.6322V33ZM64.0322 18.6H67.0322V21.6H64.0322V18.6ZM64.0322 22.2H67.0322V25.2H64.0322V22.2ZM64.0322 25.8H67.0322V28.8H64.0322V25.8ZM64.0322 29.4H67.0322V32.4H64.0322V29.4ZM64.0322 33H67.0322V36H64.0322V33ZM100.024 11.4H103.024V14.4H100.024V11.4ZM100.024 15H103.024V18H100.024V15ZM85.624 11.4H88.624V14.4H85.624V11.4ZM85.624 15H88.624V18H85.624V15ZM100.024 18.6H103.024V21.6H100.024V18.6ZM100.024 22.2H103.024V25.2H100.024V22.2ZM100.024 25.8H103.024V28.8H100.024V25.8ZM100.024 29.4H103.024V32.4H100.024V29.4ZM100.024 33H103.024V36H100.024V33ZM96.424 25.8H99.424V28.8H96.424V25.8ZM92.824 22.2H95.824V25.2H92.824V22.2ZM89.224 18.6H92.224V21.6H89.224V18.6ZM85.624 18.6H88.624V21.6H85.624V18.6ZM85.624 22.2H88.624V25.2H85.624V22.2ZM85.624 25.8H88.624V28.8H85.624V25.8ZM85.624 29.4H88.624V32.4H85.624V29.4ZM85.624 33H88.624V36H85.624V33ZM121.616 11.4H124.616V14.4H121.616V11.4ZM118.016 11.4H121.016V14.4H118.016V11.4ZM114.416 11.4H117.416V14.4H114.416V11.4ZM114.416 15H117.416V18H114.416V15ZM110.816 11.4H113.816V14.4H110.816V11.4ZM107.216 11.4H110.216V14.4H107.216V11.4ZM114.416 18.6H117.416V21.6H114.416V18.6ZM114.416 22.2H117.416V25.2H114.416V22.2ZM114.416 25.8H117.416V28.8H114.416V25.8ZM114.416 29.4H117.416V32.4H114.416V29.4ZM114.416 33H117.416V36H114.416V33ZM143.208 15H146.208V18H143.208V15ZM139.608 11.4H142.608V14.4H139.608V11.4ZM136.008 11.4H139.008V14.4H136.008V11.4ZM132.408 11.4H135.408V14.4H132.408V11.4ZM128.808 15H131.808V18H128.808V15ZM143.208 18.6H146.208V21.6H143.208V18.6ZM143.208 22.2H146.208V25.2H143.208V22.2ZM143.208 25.8H146.208V28.8H143.208V25.8ZM143.208 29.4H146.208V32.4H143.208V29.4ZM143.208 33H146.208V36H143.208V33ZM139.608 22.2H142.608V25.2H139.608V22.2ZM136.008 22.2H139.008V25.2H136.008V22.2ZM132.408 22.2H135.408V25.2H132.408V22.2ZM128.808 18.6H131.808V21.6H128.808V18.6ZM128.808 22.2H131.808V25.2H128.808V22.2ZM128.808 25.8H131.808V28.8H128.808V25.8ZM128.808 29.4H131.808V32.4H128.808V29.4ZM128.808 33H131.808V36H128.808V33ZM186.391 15H189.391V18H186.391V15ZM182.791 11.4H185.791V14.4H182.791V11.4ZM179.191 11.4H182.191V14.4H179.191V11.4ZM175.591 11.4H178.591V14.4H175.591V11.4ZM171.991 11.4H174.991V14.4H171.991V11.4ZM171.991 15H174.991V18H171.991V15ZM186.391 18.6H189.391V21.6H186.391V18.6ZM186.391 22.2H189.391V25.2H186.391V22.2ZM186.391 25.8H189.391V28.8H186.391V25.8ZM186.391 29.4H189.391V32.4H186.391V29.4ZM182.791 33H185.791V36H182.791V33ZM179.191 33H182.191V36H179.191V33ZM175.591 33H178.591V36H175.591V33ZM171.991 18.6H174.991V21.6H171.991V18.6ZM171.991 22.2H174.991V25.2H171.991V22.2ZM171.991 25.8H174.991V28.8H171.991V25.8ZM171.991 29.4H174.991V32.4H171.991V29.4ZM171.991 33H174.991V36H171.991V33ZM200.783 11.4H203.783V14.4H200.783V11.4ZM197.183 11.4H200.183V14.4H197.183V11.4ZM197.183 15H200.183V18H197.183V15ZM193.583 11.4H196.583V14.4H193.583V11.4ZM200.783 33H203.783V36H200.783V33ZM197.183 18.6H200.183V21.6H197.183V18.6ZM197.183 22.2H200.183V25.2H197.183V22.2ZM197.183 25.8H200.183V28.8H197.183V25.8ZM197.183 29.4H200.183V32.4H197.183V29.4ZM197.183 33H200.183V36H197.183V33ZM193.583 33H196.583V36H193.583V33ZM222.397 11.4H225.397V14.4H222.397V11.4ZM222.397 15H225.397V18H222.397V15ZM207.997 11.4H210.997V14.4H207.997V11.4ZM207.997 15H210.997V18H207.997V15ZM222.397 18.6H225.397V21.6H222.397V18.6ZM222.397 22.2H225.397V25.2H222.397V22.2ZM222.397 25.8H225.397V28.8H222.397V25.8ZM218.797 29.4H221.797V32.4H218.797V29.4ZM215.197 33H218.197V36H215.197V33ZM211.597 29.4H214.597V32.4H211.597V29.4ZM207.997 18.6H210.997V21.6H207.997V18.6ZM207.997 22.2H210.997V25.2H207.997V22.2ZM207.997 25.8H210.997V28.8H207.997V25.8ZM236.789 11.4H239.789V14.4H236.789V11.4ZM233.189 11.4H236.189V14.4H233.189V11.4ZM233.189 15H236.189V18H233.189V15ZM229.589 11.4H232.589V14.4H229.589V11.4ZM236.789 33H239.789V36H236.789V33ZM233.189 18.6H236.189V21.6H233.189V18.6ZM233.189 22.2H236.189V25.2H233.189V22.2ZM233.189 25.8H236.189V28.8H233.189V25.8ZM233.189 29.4H236.189V32.4H233.189V29.4ZM233.189 33H236.189V36H233.189V33ZM229.589 33H232.589V36H229.589V33ZM258.403 15H261.403V18H258.403V15ZM254.803 11.4H257.803V14.4H254.803V11.4ZM251.203 11.4H254.203V14.4H251.203V11.4ZM247.603 11.4H250.603V14.4H247.603V11.4ZM244.003 11.4H247.003V14.4H244.003V11.4ZM244.003 15H247.003V18H244.003V15ZM258.403 18.6H261.403V21.6H258.403V18.6ZM258.403 22.2H261.403V25.2H258.403V22.2ZM258.403 25.8H261.403V28.8H258.403V25.8ZM258.403 29.4H261.403V32.4H258.403V29.4ZM254.803 33H257.803V36H254.803V33ZM251.203 33H254.203V36H251.203V33ZM247.603 33H250.603V36H247.603V33ZM244.003 18.6H247.003V21.6H244.003V18.6ZM244.003 22.2H247.003V25.2H244.003V22.2ZM244.003 25.8H247.003V28.8H244.003V25.8ZM244.003 29.4H247.003V32.4H244.003V29.4ZM244.003 33H247.003V36H244.003V33ZM272.795 11.4H275.795V14.4H272.795V11.4ZM269.195 11.4H272.195V14.4H269.195V11.4ZM269.195 15H272.195V18H269.195V15ZM265.595 11.4H268.595V14.4H265.595V11.4ZM272.795 33H275.795V36H272.795V33ZM269.195 18.6H272.195V21.6H269.195V18.6ZM269.195 22.2H272.195V25.2H269.195V22.2ZM269.195 25.8H272.195V28.8H269.195V25.8ZM269.195 29.4H272.195V32.4H269.195V29.4ZM269.195 33H272.195V36H269.195V33ZM265.595 33H268.595V36H265.595V33ZM294.409 15H297.409V18H294.409V15ZM290.809 11.4H293.809V14.4H290.809V11.4ZM287.209 11.4H290.209V14.4H287.209V11.4ZM283.609 11.4H286.609V14.4H283.609V11.4ZM280.009 11.4H283.009V14.4H280.009V11.4ZM280.009 15H283.009V18H280.009V15ZM294.409 18.6H297.409V21.6H294.409V18.6ZM294.409 22.2H297.409V25.2H294.409V22.2ZM294.409 25.8H297.409V28.8H294.409V25.8ZM294.409 29.4H297.409V32.4H294.409V29.4ZM290.809 33H293.809V36H290.809V33ZM287.209 33H290.209V36H287.209V33ZM283.609 33H286.609V36H283.609V33ZM280.009 18.6H283.009V21.6H280.009V18.6ZM280.009 22.2H283.009V25.2H280.009V22.2ZM280.009 25.8H283.009V28.8H280.009V25.8ZM280.009 29.4H283.009V32.4H280.009V29.4ZM280.009 33H283.009V36H280.009V33ZM316.001 15H319.001V18H316.001V15ZM312.401 11.4H315.401V14.4H312.401V11.4ZM308.801 11.4H311.801V14.4H308.801V11.4ZM305.201 11.4H308.201V14.4H305.201V11.4ZM301.601 15H304.601V18H301.601V15ZM316.001 18.6H319.001V21.6H316.001V18.6ZM316.001 22.2H319.001V25.2H316.001V22.2ZM316.001 25.8H319.001V28.8H316.001V25.8ZM316.001 29.4H319.001V32.4H316.001V29.4ZM316.001 33H319.001V36H316.001V33ZM312.401 22.2H315.401V25.2H312.401V22.2ZM308.801 22.2H311.801V25.2H308.801V22.2ZM305.201 22.2H308.201V25.2H305.201V22.2ZM301.601 18.6H304.601V21.6H301.601V18.6ZM301.601 22.2H304.601V25.2H301.601V22.2ZM301.601 25.8H304.601V28.8H301.601V25.8ZM301.601 29.4H304.601V32.4H301.601V29.4ZM301.601 33H304.601V36H301.601V33ZM351.984 11.4H354.984V14.4H351.984V11.4ZM351.984 15H354.984V18H351.984V15ZM348.384 15H351.384V18H348.384V15ZM359.184 33H362.184V36H359.184V33ZM355.584 33H358.584V36H355.584V33ZM351.984 18.6H354.984V21.6H351.984V18.6ZM351.984 22.2H354.984V25.2H351.984V22.2ZM351.984 25.8H354.984V28.8H351.984V25.8ZM351.984 29.4H354.984V32.4H351.984V29.4ZM351.984 33H354.984V36H351.984V33ZM348.384 33H351.384V36H348.384V33ZM344.784 18.6H347.784V21.6H344.784V18.6ZM344.784 33H347.784V36H344.784V33ZM380.776 15H383.776V18H380.776V15ZM377.176 18.6H380.176V21.6H377.176V18.6ZM373.576 22.2H376.576V25.2H373.576V22.2ZM369.976 25.8H372.976V28.8H369.976V25.8ZM366.376 29.4H369.376V32.4H366.376V29.4ZM402.368 11.4H405.368V14.4H402.368V11.4ZM398.768 11.4H401.768V14.4H398.768V11.4ZM395.168 11.4H398.168V14.4H395.168V11.4ZM391.568 11.4H394.568V14.4H391.568V11.4ZM387.968 11.4H390.968V14.4H387.968V11.4ZM387.968 15H390.968V18H387.968V15ZM402.368 22.2H405.368V25.2H402.368V22.2ZM402.368 25.8H405.368V28.8H402.368V25.8ZM402.368 29.4H405.368V32.4H402.368V29.4ZM398.768 18.6H401.768V21.6H398.768V18.6ZM398.768 33H401.768V36H398.768V33ZM395.168 18.6H398.168V21.6H395.168V18.6ZM395.168 33H398.168V36H395.168V33ZM391.568 18.6H394.568V21.6H391.568V18.6ZM391.568 33H394.568V36H391.568V33ZM387.968 18.6H390.968V21.6H387.968V18.6ZM387.968 29.4H390.968V32.4H387.968V29.4Z" fill="white"/>
<rect x="1.5" y="224.5" width="449" height="54" stroke="#5B65C2" stroke-width="3"/>
<rect x="1.5" y="1.5" width="449" height="277" stroke="#5B65C2" stroke-width="3"/>
<path d="M153.533 179.4H156.533V182.4H153.533V179.4ZM149.933 179.4H152.933V182.4H149.933V179.4ZM146.333 179.4H149.333V182.4H146.333V179.4ZM142.733 179.4H145.733V182.4H142.733V179.4ZM139.133 179.4H142.133V182.4H139.133V179.4ZM139.133 183H142.133V186H139.133V183ZM153.533 201H156.533V204H153.533V201ZM149.933 190.2H152.933V193.2H149.933V190.2ZM149.933 201H152.933V204H149.933V201ZM146.333 190.2H149.333V193.2H146.333V190.2ZM146.333 201H149.333V204H146.333V201ZM142.733 190.2H145.733V193.2H142.733V190.2ZM142.733 201H145.733V204H142.733V201ZM139.133 186.6H142.133V189.6H139.133V186.6ZM139.133 190.2H142.133V193.2H139.133V190.2ZM139.133 193.8H142.133V196.8H139.133V193.8ZM139.133 197.4H142.133V200.4H139.133V197.4ZM139.133 201H142.133V204H139.133V201ZM175.125 179.4H178.125V182.4H175.125V179.4ZM175.125 183H178.125V186H175.125V183ZM171.525 183H174.525V186H171.525V183ZM164.325 183H167.325V186H164.325V183ZM160.725 179.4H163.725V182.4H160.725V179.4ZM160.725 183H163.725V186H160.725V183ZM175.125 186.6H178.125V189.6H175.125V186.6ZM175.125 190.2H178.125V193.2H175.125V190.2ZM175.125 193.8H178.125V196.8H175.125V193.8ZM175.125 197.4H178.125V200.4H175.125V197.4ZM175.125 201H178.125V204H175.125V201ZM167.925 186.6H170.925V189.6H167.925V186.6ZM167.925 190.2H170.925V193.2H167.925V190.2ZM160.725 186.6H163.725V189.6H160.725V186.6ZM160.725 190.2H163.725V193.2H160.725V190.2ZM160.725 193.8H163.725V196.8H160.725V193.8ZM160.725 197.4H163.725V200.4H160.725V197.4ZM160.725 201H163.725V204H160.725V201ZM196.716 183H199.716V186H196.716V183ZM193.116 179.4H196.116V182.4H193.116V179.4ZM189.516 179.4H192.516V182.4H189.516V179.4ZM185.916 179.4H188.916V182.4H185.916V179.4ZM182.316 179.4H185.316V182.4H182.316V179.4ZM182.316 183H185.316V186H182.316V183ZM196.716 186.6H199.716V189.6H196.716V186.6ZM193.116 190.2H196.116V193.2H193.116V190.2ZM189.516 190.2H192.516V193.2H189.516V190.2ZM185.916 190.2H188.916V193.2H185.916V190.2ZM182.316 186.6H185.316V189.6H182.316V186.6ZM182.316 190.2H185.316V193.2H182.316V190.2ZM182.316 193.8H185.316V196.8H182.316V193.8ZM182.316 197.4H185.316V200.4H182.316V197.4ZM182.316 201H185.316V204H182.316V201ZM203.908 179.4H206.908V182.4H203.908V179.4ZM203.908 183H206.908V186H203.908V183ZM218.308 201H221.308V204H218.308V201ZM214.708 201H217.708V204H214.708V201ZM211.108 201H214.108V204H211.108V201ZM207.508 201H210.508V204H207.508V201ZM203.908 186.6H206.908V189.6H203.908V186.6ZM203.908 190.2H206.908V193.2H203.908V190.2ZM203.908 193.8H206.908V196.8H203.908V193.8ZM203.908 197.4H206.908V200.4H203.908V197.4ZM203.908 201H206.908V204H203.908V201ZM239.9 179.4H242.9V182.4H239.9V179.4ZM236.3 179.4H239.3V182.4H236.3V179.4ZM232.7 179.4H235.7V182.4H232.7V179.4ZM229.1 179.4H232.1V182.4H229.1V179.4ZM225.5 179.4H228.5V182.4H225.5V179.4ZM225.5 183H228.5V186H225.5V183ZM239.9 201H242.9V204H239.9V201ZM236.3 190.2H239.3V193.2H236.3V190.2ZM236.3 201H239.3V204H236.3V201ZM232.7 190.2H235.7V193.2H232.7V190.2ZM232.7 201H235.7V204H232.7V201ZM229.1 190.2H232.1V193.2H229.1V190.2ZM229.1 201H232.1V204H229.1V201ZM225.5 186.6H228.5V189.6H225.5V186.6ZM225.5 190.2H228.5V193.2H225.5V190.2ZM225.5 193.8H228.5V196.8H225.5V193.8ZM225.5 197.4H228.5V200.4H225.5V197.4ZM225.5 201H228.5V204H225.5V201ZM261.492 183H264.492V186H261.492V183ZM257.892 179.4H260.892V182.4H257.892V179.4ZM254.292 179.4H257.292V182.4H254.292V179.4ZM250.692 179.4H253.692V182.4H250.692V179.4ZM247.092 183H250.092V186H247.092V183ZM261.492 186.6H264.492V189.6H261.492V186.6ZM261.492 190.2H264.492V193.2H261.492V190.2ZM261.492 193.8H264.492V196.8H261.492V193.8ZM261.492 197.4H264.492V200.4H261.492V197.4ZM261.492 201H264.492V204H261.492V201ZM257.892 190.2H260.892V193.2H257.892V190.2ZM254.292 190.2H257.292V193.2H254.292V190.2ZM250.692 190.2H253.692V193.2H250.692V190.2ZM247.092 186.6H250.092V189.6H247.092V186.6ZM247.092 190.2H250.092V193.2H247.092V190.2ZM247.092 193.8H250.092V196.8H247.092V193.8ZM247.092 197.4H250.092V200.4H247.092V197.4ZM247.092 201H250.092V204H247.092V201ZM283.084 183H286.084V186H283.084V183ZM279.484 179.4H282.484V182.4H279.484V179.4ZM275.884 179.4H278.884V182.4H275.884V179.4ZM272.284 179.4H275.284V182.4H272.284V179.4ZM268.684 179.4H271.684V182.4H268.684V179.4ZM268.684 183H271.684V186H268.684V183ZM283.084 186.6H286.084V189.6H283.084V186.6ZM283.084 190.2H286.084V193.2H283.084V190.2ZM283.084 193.8H286.084V196.8H283.084V193.8ZM283.084 197.4H286.084V200.4H283.084V197.4ZM279.484 201H282.484V204H279.484V201ZM275.884 201H278.884V204H275.884V201ZM272.284 201H275.284V204H272.284V201ZM268.684 186.6H271.684V189.6H268.684V186.6ZM268.684 190.2H271.684V193.2H268.684V190.2ZM268.684 193.8H271.684V196.8H268.684V193.8ZM268.684 197.4H271.684V200.4H268.684V197.4ZM268.684 201H271.684V204H268.684V201ZM304.675 183H307.675V186H304.675V183ZM301.075 179.4H304.075V182.4H301.075V179.4ZM297.475 179.4H300.475V182.4H297.475V179.4ZM293.875 179.4H296.875V182.4H293.875V179.4ZM290.275 183H293.275V186H290.275V183ZM304.675 186.6H307.675V189.6H304.675V186.6ZM304.675 190.2H307.675V193.2H304.675V190.2ZM304.675 193.8H307.675V196.8H304.675V193.8ZM304.675 197.4H307.675V200.4H304.675V197.4ZM301.075 201H304.075V204H301.075V201ZM297.475 201H300.475V204H297.475V201ZM293.875 201H296.875V204H293.875V201ZM290.275 186.6H293.275V189.6H290.275V186.6ZM290.275 190.2H293.275V193.2H290.275V190.2ZM290.275 193.8H293.275V196.8H290.275V193.8ZM290.275 197.4H293.275V200.4H290.275V197.4Z" fill="#5B65C2"/>
<path d="M28.4 67.4H31.4V70.4H28.4V67.4ZM28.4 71H31.4V74H28.4V71ZM24.8 71H27.8V74H24.8V71ZM17.6 71H20.6V74H17.6V71ZM14 67.4H17V70.4H14V67.4ZM14 71H17V74H14V71ZM28.4 74.6H31.4V77.6H28.4V74.6ZM28.4 78.2H31.4V81.2H28.4V78.2ZM28.4 81.8H31.4V84.8H28.4V81.8ZM28.4 85.4H31.4V88.4H28.4V85.4ZM28.4 89H31.4V92H28.4V89ZM21.2 74.6H24.2V77.6H21.2V74.6ZM21.2 78.2H24.2V81.2H21.2V78.2ZM14 74.6H17V77.6H14V74.6ZM14 78.2H17V81.2H14V78.2ZM14 81.8H17V84.8H14V81.8ZM14 85.4H17V88.4H14V85.4ZM14 89H17V92H14V89ZM49.9918 71H52.9918V74H49.9918V71ZM46.3918 67.4H49.3918V70.4H46.3918V67.4ZM42.7918 67.4H45.7918V70.4H42.7918V67.4ZM39.1918 67.4H42.1918V70.4H39.1918V67.4ZM35.5918 71H38.5918V74H35.5918V71ZM49.9918 74.6H52.9918V77.6H49.9918V74.6ZM49.9918 78.2H52.9918V81.2H49.9918V78.2ZM49.9918 81.8H52.9918V84.8H49.9918V81.8ZM49.9918 85.4H52.9918V88.4H49.9918V85.4ZM46.3918 89H49.3918V92H46.3918V89ZM42.7918 89H45.7918V92H42.7918V89ZM39.1918 89H42.1918V92H39.1918V89ZM35.5918 74.6H38.5918V77.6H35.5918V74.6ZM35.5918 78.2H38.5918V81.2H35.5918V78.2ZM35.5918 81.8H38.5918V84.8H35.5918V81.8ZM35.5918 85.4H38.5918V88.4H35.5918V85.4ZM71.5836 67.4H74.5836V70.4H71.5836V67.4ZM71.5836 71H74.5836V74H71.5836V71ZM57.1836 67.4H60.1836V70.4H57.1836V67.4ZM57.1836 71H60.1836V74H57.1836V71ZM71.5836 74.6H74.5836V77.6H71.5836V74.6ZM71.5836 78.2H74.5836V81.2H71.5836V78.2ZM71.5836 81.8H74.5836V84.8H71.5836V81.8ZM71.5836 85.4H74.5836V88.4H71.5836V85.4ZM71.5836 89H74.5836V92H71.5836V89ZM67.9836 81.8H70.9836V84.8H67.9836V81.8ZM64.3836 78.2H67.3836V81.2H64.3836V78.2ZM60.7836 74.6H63.7836V77.6H60.7836V74.6ZM57.1836 74.6H60.1836V77.6H57.1836V74.6ZM57.1836 78.2H60.1836V81.2H57.1836V78.2ZM57.1836 81.8H60.1836V84.8H57.1836V81.8ZM57.1836 85.4H60.1836V88.4H57.1836V85.4ZM57.1836 89H60.1836V92H57.1836V89ZM93.1754 67.4H96.1754V70.4H93.1754V67.4ZM89.5754 67.4H92.5754V70.4H89.5754V67.4ZM85.9754 67.4H88.9754V70.4H85.9754V67.4ZM85.9754 71H88.9754V74H85.9754V71ZM82.3754 67.4H85.3754V70.4H82.3754V67.4ZM78.7754 67.4H81.7754V70.4H78.7754V67.4ZM85.9754 74.6H88.9754V77.6H85.9754V74.6ZM85.9754 78.2H88.9754V81.2H85.9754V78.2ZM85.9754 81.8H88.9754V84.8H85.9754V81.8ZM85.9754 85.4H88.9754V88.4H85.9754V85.4ZM85.9754 89H88.9754V92H85.9754V89ZM114.767 71H117.767V74H114.767V71ZM111.167 67.4H114.167V70.4H111.167V67.4ZM107.567 67.4H110.567V70.4H107.567V67.4ZM103.967 67.4H106.967V70.4H103.967V67.4ZM100.367 71H103.367V74H100.367V71ZM114.767 74.6H117.767V77.6H114.767V74.6ZM114.767 78.2H117.767V81.2H114.767V78.2ZM114.767 81.8H117.767V84.8H114.767V81.8ZM114.767 85.4H117.767V88.4H114.767V85.4ZM111.167 89H114.167V92H111.167V89ZM107.567 89H110.567V92H107.567V89ZM103.967 89H106.967V92H103.967V89ZM100.367 74.6H103.367V77.6H100.367V74.6ZM100.367 78.2H103.367V81.2H100.367V78.2ZM100.367 81.8H103.367V84.8H100.367V81.8ZM100.367 85.4H103.367V88.4H100.367V85.4ZM125.559 71H128.559V74H125.559V71ZM121.959 71H124.959V74H121.959V71ZM125.559 74.6H128.559V77.6H125.559V74.6ZM125.559 81.8H128.559V84.8H125.559V81.8ZM125.559 85.4H128.559V88.4H125.559V85.4ZM121.959 74.6H124.959V77.6H121.959V74.6ZM121.959 81.8H124.959V84.8H121.959V81.8ZM121.959 85.4H124.959V88.4H121.959V85.4ZM28.4 104H31.4V107H28.4V104ZM24.8 100.4H27.8V103.4H24.8V100.4ZM21.2 100.4H24.2V103.4H21.2V100.4ZM17.6 100.4H20.6V103.4H17.6V100.4ZM14 100.4H17V103.4H14V100.4ZM14 104H17V107H14V104ZM28.4 107.6H31.4V110.6H28.4V107.6ZM24.8 111.2H27.8V114.2H24.8V111.2ZM21.2 111.2H24.2V114.2H21.2V111.2ZM17.6 111.2H20.6V114.2H17.6V111.2ZM14 107.6H17V110.6H14V107.6ZM14 111.2H17V114.2H14V111.2ZM14 114.8H17V117.8H14V114.8ZM14 118.4H17V121.4H14V118.4ZM14 122H17V125H14V122ZM49.9918 104H52.9918V107H49.9918V104ZM46.3918 100.4H49.3918V103.4H46.3918V100.4ZM42.7918 100.4H45.7918V103.4H42.7918V100.4ZM39.1918 100.4H42.1918V103.4H39.1918V100.4ZM35.5918 100.4H38.5918V103.4H35.5918V100.4ZM35.5918 104H38.5918V107H35.5918V104ZM49.9918 107.6H52.9918V110.6H49.9918V107.6ZM49.9918 122H52.9918V125H49.9918V122ZM46.3918 111.2H49.3918V114.2H46.3918V111.2ZM46.3918 118.4H49.3918V121.4H46.3918V118.4ZM42.7918 111.2H45.7918V114.2H42.7918V111.2ZM42.7918 114.8H45.7918V117.8H42.7918V114.8ZM39.1918 111.2H42.1918V114.2H39.1918V111.2ZM35.5918 107.6H38.5918V110.6H35.5918V107.6ZM35.5918 111.2H38.5918V114.2H35.5918V111.2ZM35.5918 114.8H38.5918V117.8H35.5918V114.8ZM35.5918 118.4H38.5918V121.4H35.5918V118.4ZM35.5918 122H38.5918V125H35.5918V122ZM71.5836 104H74.5836V107H71.5836V104ZM67.9836 100.4H70.9836V103.4H67.9836V100.4ZM64.3836 100.4H67.3836V103.4H64.3836V100.4ZM60.7836 100.4H63.7836V103.4H60.7836V100.4ZM57.1836 104H60.1836V107H57.1836V104ZM71.5836 107.6H74.5836V110.6H71.5836V107.6ZM71.5836 111.2H74.5836V114.2H71.5836V111.2ZM71.5836 114.8H74.5836V117.8H71.5836V114.8ZM71.5836 118.4H74.5836V121.4H71.5836V118.4ZM67.9836 122H70.9836V125H67.9836V122ZM64.3836 122H67.3836V125H64.3836V122ZM60.7836 122H63.7836V125H60.7836V122ZM57.1836 107.6H60.1836V110.6H57.1836V107.6ZM57.1836 111.2H60.1836V114.2H57.1836V111.2ZM57.1836 114.8H60.1836V117.8H57.1836V114.8ZM57.1836 118.4H60.1836V121.4H57.1836V118.4ZM93.1754 104H96.1754V107H93.1754V104ZM89.5754 100.4H92.5754V103.4H89.5754V100.4ZM85.9754 100.4H88.9754V103.4H85.9754V100.4ZM82.3754 100.4H85.3754V103.4H82.3754V100.4ZM78.7754 100.4H81.7754V103.4H78.7754V100.4ZM78.7754 104H81.7754V107H78.7754V104ZM93.1754 107.6H96.1754V110.6H93.1754V107.6ZM89.5754 111.2H92.5754V114.2H89.5754V111.2ZM85.9754 111.2H88.9754V114.2H85.9754V111.2ZM82.3754 111.2H85.3754V114.2H82.3754V111.2ZM78.7754 107.6H81.7754V110.6H78.7754V107.6ZM78.7754 111.2H81.7754V114.2H78.7754V111.2ZM78.7754 114.8H81.7754V117.8H78.7754V114.8ZM78.7754 118.4H81.7754V121.4H78.7754V118.4ZM78.7754 122H81.7754V125H78.7754V122ZM107.567 100.4H110.567V103.4H107.567V100.4ZM103.967 100.4H106.967V103.4H103.967V100.4ZM103.967 104H106.967V107H103.967V104ZM100.367 100.4H103.367V103.4H100.367V100.4ZM107.567 122H110.567V125H107.567V122ZM103.967 107.6H106.967V110.6H103.967V107.6ZM103.967 111.2H106.967V114.2H103.967V111.2ZM103.967 114.8H106.967V117.8H103.967V114.8ZM103.967 118.4H106.967V121.4H103.967V118.4ZM103.967 122H106.967V125H103.967V122ZM100.367 122H103.367V125H100.367V122ZM129.181 100.4H132.181V103.4H129.181V100.4ZM129.181 104H132.181V107H129.181V104ZM114.781 100.4H117.781V103.4H114.781V100.4ZM114.781 104H117.781V107H114.781V104ZM129.181 107.6H132.181V110.6H129.181V107.6ZM129.181 111.2H132.181V114.2H129.181V111.2ZM129.181 114.8H132.181V117.8H129.181V114.8ZM129.181 118.4H132.181V121.4H129.181V118.4ZM129.181 122H132.181V125H129.181V122ZM125.581 114.8H128.581V117.8H125.581V114.8ZM121.981 111.2H124.981V114.2H121.981V111.2ZM118.381 107.6H121.381V110.6H118.381V107.6ZM114.781 107.6H117.781V110.6H114.781V107.6ZM114.781 111.2H117.781V114.2H114.781V111.2ZM114.781 114.8H117.781V117.8H114.781V114.8ZM114.781 118.4H117.781V121.4H114.781V118.4ZM114.781 122H117.781V125H114.781V122ZM150.773 104H153.773V107H150.773V104ZM147.173 100.4H150.173V103.4H147.173V100.4ZM143.573 100.4H146.573V103.4H143.573V100.4ZM139.973 100.4H142.973V103.4H139.973V100.4ZM136.373 104H139.373V107H136.373V104ZM150.773 107.6H153.773V110.6H150.773V107.6ZM150.773 111.2H153.773V114.2H150.773V111.2ZM150.773 114.8H153.773V117.8H150.773V114.8ZM150.773 118.4H153.773V121.4H150.773V118.4ZM150.773 122H153.773V125H150.773V122ZM147.173 111.2H150.173V114.2H147.173V111.2ZM143.573 111.2H146.573V114.2H143.573V111.2ZM139.973 111.2H142.973V114.2H139.973V111.2ZM136.373 107.6H139.373V110.6H136.373V107.6ZM136.373 111.2H139.373V114.2H136.373V111.2ZM136.373 114.8H139.373V117.8H136.373V114.8ZM136.373 118.4H139.373V121.4H136.373V118.4ZM136.373 122H139.373V125H136.373V122ZM161.565 104H164.565V107H161.565V104ZM157.965 104H160.965V107H157.965V104ZM161.565 107.6H164.565V110.6H161.565V107.6ZM161.565 114.8H164.565V117.8H161.565V114.8ZM161.565 118.4H164.565V121.4H161.565V118.4ZM157.965 107.6H160.965V110.6H157.965V107.6ZM157.965 114.8H160.965V117.8H157.965V114.8ZM157.965 118.4H160.965V121.4H157.965V118.4ZM28.4 133.4H31.4V136.4H28.4V133.4ZM24.8 133.4H27.8V136.4H24.8V133.4ZM21.2 133.4H24.2V136.4H21.2V133.4ZM21.2 137H24.2V140H21.2V137ZM17.6 133.4H20.6V136.4H17.6V133.4ZM14 133.4H17V136.4H14V133.4ZM21.2 140.6H24.2V143.6H21.2V140.6ZM21.2 144.2H24.2V147.2H21.2V144.2ZM21.2 147.8H24.2V150.8H21.2V147.8ZM21.2 151.4H24.2V154.4H21.2V151.4ZM21.2 155H24.2V158H21.2V155ZM49.9918 137H52.9918V140H49.9918V137ZM46.3918 133.4H49.3918V136.4H46.3918V133.4ZM42.7918 133.4H45.7918V136.4H42.7918V133.4ZM39.1918 133.4H42.1918V136.4H39.1918V133.4ZM35.5918 137H38.5918V140H35.5918V137ZM49.9918 140.6H52.9918V143.6H49.9918V140.6ZM49.9918 144.2H52.9918V147.2H49.9918V144.2ZM49.9918 147.8H52.9918V150.8H49.9918V147.8ZM49.9918 151.4H52.9918V154.4H49.9918V151.4ZM46.3918 155H49.3918V158H46.3918V155ZM42.7918 155H45.7918V158H42.7918V155ZM39.1918 155H42.1918V158H39.1918V155ZM35.5918 140.6H38.5918V143.6H35.5918V140.6ZM35.5918 144.2H38.5918V147.2H35.5918V144.2ZM35.5918 147.8H38.5918V150.8H35.5918V147.8ZM35.5918 151.4H38.5918V154.4H35.5918V151.4ZM71.5836 133.4H74.5836V136.4H71.5836V133.4ZM67.9836 133.4H70.9836V136.4H67.9836V133.4ZM64.3836 133.4H67.3836V136.4H64.3836V133.4ZM64.3836 137H67.3836V140H64.3836V137ZM60.7836 133.4H63.7836V136.4H60.7836V133.4ZM57.1836 133.4H60.1836V136.4H57.1836V133.4ZM64.3836 140.6H67.3836V143.6H64.3836V140.6ZM64.3836 144.2H67.3836V147.2H64.3836V144.2ZM64.3836 147.8H67.3836V150.8H64.3836V147.8ZM64.3836 151.4H67.3836V154.4H64.3836V151.4ZM64.3836 155H67.3836V158H64.3836V155ZM93.1754 137H96.1754V140H93.1754V137ZM89.5754 133.4H92.5754V136.4H89.5754V133.4ZM85.9754 133.4H88.9754V136.4H85.9754V133.4ZM82.3754 133.4H85.3754V136.4H82.3754V133.4ZM78.7754 137H81.7754V140H78.7754V137ZM93.1754 140.6H96.1754V143.6H93.1754V140.6ZM93.1754 144.2H96.1754V147.2H93.1754V144.2ZM93.1754 147.8H96.1754V150.8H93.1754V147.8ZM93.1754 151.4H96.1754V154.4H93.1754V151.4ZM93.1754 155H96.1754V158H93.1754V155ZM89.5754 144.2H92.5754V147.2H89.5754V144.2ZM85.9754 144.2H88.9754V147.2H85.9754V144.2ZM82.3754 144.2H85.3754V147.2H82.3754V144.2ZM78.7754 140.6H81.7754V143.6H78.7754V140.6ZM78.7754 144.2H81.7754V147.2H78.7754V144.2ZM78.7754 147.8H81.7754V150.8H78.7754V147.8ZM78.7754 151.4H81.7754V154.4H78.7754V151.4ZM78.7754 155H81.7754V158H78.7754V155ZM100.367 133.4H103.367V136.4H100.367V133.4ZM100.367 137H103.367V140H100.367V137ZM114.767 155H117.767V158H114.767V155ZM111.167 155H114.167V158H111.167V155ZM107.567 155H110.567V158H107.567V155ZM103.967 155H106.967V158H103.967V155ZM100.367 140.6H103.367V143.6H100.367V140.6ZM100.367 144.2H103.367V147.2H100.367V144.2ZM100.367 147.8H103.367V150.8H100.367V147.8ZM100.367 151.4H103.367V154.4H100.367V151.4ZM100.367 155H103.367V158H100.367V155ZM125.559 137H128.559V140H125.559V137ZM121.959 137H124.959V140H121.959V137ZM125.559 140.6H128.559V143.6H125.559V140.6ZM125.559 147.8H128.559V150.8H125.559V147.8ZM125.559 151.4H128.559V154.4H125.559V151.4ZM121.959 140.6H124.959V143.6H121.959V140.6ZM121.959 147.8H124.959V150.8H121.959V147.8ZM121.959 151.4H124.959V154.4H121.959V151.4Z" fill="#5B65C2"/>
<path d="M305.839 92.6H308.839V95.6H305.839V92.6ZM305.839 63.8H308.839V66.8H305.839V63.8ZM305.839 81.8H308.839V84.8H305.839V81.8ZM305.839 85.4H308.839V88.4H305.839V85.4ZM305.839 71H308.839V74H305.839V71ZM305.839 74.6H308.839V77.6H305.839V74.6ZM313.039 71H316.039V74H313.039V71ZM309.439 67.4H312.439V70.4H309.439V67.4ZM305.839 67.4H308.839V70.4H305.839V67.4ZM302.239 67.4H305.239V70.4H302.239V67.4ZM298.639 71H301.639V74H298.639V71ZM313.039 81.8H316.039V84.8H313.039V81.8ZM313.039 85.4H316.039V88.4H313.039V85.4ZM309.439 78.2H312.439V81.2H309.439V78.2ZM309.439 89H312.439V92H309.439V89ZM305.839 78.2H308.839V81.2H305.839V78.2ZM305.839 89H308.839V92H305.839V89ZM302.239 78.2H305.239V81.2H302.239V78.2ZM302.239 89H305.239V92H302.239V89ZM298.639 74.6H301.639V77.6H298.639V74.6ZM298.639 85.4H301.639V88.4H298.639V85.4ZM313.039 71H316.039V74H313.039V71ZM309.439 67.4H312.439V70.4H309.439V67.4ZM305.839 67.4H308.839V70.4H305.839V67.4ZM302.239 67.4H305.239V70.4H302.239V67.4ZM298.639 71H301.639V74H298.639V71ZM313.039 81.8H316.039V84.8H313.039V81.8ZM313.039 85.4H316.039V88.4H313.039V85.4ZM309.439 78.2H312.439V81.2H309.439V78.2ZM309.439 89H312.439V92H309.439V89ZM305.839 78.2H308.839V81.2H305.839V78.2ZM305.839 89H308.839V92H305.839V89ZM302.239 78.2H305.239V81.2H302.239V78.2ZM302.239 89H305.239V92H302.239V89ZM298.639 74.6H301.639V77.6H298.639V74.6ZM298.639 85.4H301.639V88.4H298.639V85.4ZM334.63 71H337.63V74H334.63V71ZM331.03 67.4H334.03V70.4H331.03V67.4ZM327.43 67.4H330.43V70.4H327.43V67.4ZM323.83 67.4H326.83V70.4H323.83V67.4ZM320.23 71H323.23V74H320.23V71ZM334.63 74.6H337.63V77.6H334.63V74.6ZM334.63 89H337.63V92H334.63V89ZM331.03 78.2H334.03V81.2H331.03V78.2ZM331.03 89H334.03V92H331.03V89ZM327.43 81.8H330.43V84.8H327.43V81.8ZM327.43 89H330.43V92H327.43V89ZM323.83 85.4H326.83V88.4H323.83V85.4ZM323.83 89H326.83V92H323.83V89ZM320.23 89H323.23V92H320.23V89ZM352.622 67.4H355.622V70.4H352.622V67.4ZM352.622 71H355.622V74H352.622V71ZM349.022 71H352.022V74H349.022V71ZM356.222 81.8H359.222V84.8H356.222V81.8ZM352.622 74.6H355.622V77.6H352.622V74.6ZM352.622 78.2H355.622V81.2H352.622V78.2ZM352.622 81.8H355.622V84.8H352.622V81.8ZM352.622 85.4H355.622V88.4H352.622V85.4ZM352.622 89H355.622V92H352.622V89ZM349.022 81.8H352.022V84.8H349.022V81.8ZM345.422 74.6H348.422V77.6H345.422V74.6ZM345.422 81.8H348.422V84.8H345.422V81.8ZM341.822 78.2H344.822V81.2H341.822V78.2ZM341.822 81.8H344.822V84.8H341.822V81.8ZM367.014 85.4H370.014V88.4H367.014V85.4ZM367.014 89H370.014V92H367.014V89ZM363.414 85.4H366.414V88.4H363.414V85.4ZM363.414 89H366.414V92H363.414V89ZM388.625 71H391.625V74H388.625V71ZM385.025 67.4H388.025V70.4H385.025V67.4ZM381.425 67.4H384.425V70.4H381.425V67.4ZM377.825 67.4H380.825V70.4H377.825V67.4ZM374.225 71H377.225V74H374.225V71ZM388.625 74.6H391.625V77.6H388.625V74.6ZM388.625 78.2H391.625V81.2H388.625V78.2ZM388.625 81.8H391.625V84.8H388.625V81.8ZM388.625 85.4H391.625V88.4H388.625V85.4ZM385.025 74.6H388.025V77.6H385.025V74.6ZM385.025 89H388.025V92H385.025V89ZM381.425 78.2H384.425V81.2H381.425V78.2ZM381.425 89H384.425V92H381.425V89ZM377.825 81.8H380.825V84.8H377.825V81.8ZM377.825 89H380.825V92H377.825V89ZM374.225 74.6H377.225V77.6H374.225V74.6ZM374.225 78.2H377.225V81.2H374.225V78.2ZM374.225 81.8H377.225V84.8H374.225V81.8ZM374.225 85.4H377.225V88.4H374.225V85.4ZM410.216 71H413.216V74H410.216V71ZM406.616 67.4H409.616V70.4H406.616V67.4ZM403.016 67.4H406.016V70.4H403.016V67.4ZM399.416 67.4H402.416V70.4H399.416V67.4ZM395.816 71H398.816V74H395.816V71ZM410.216 74.6H413.216V77.6H410.216V74.6ZM410.216 78.2H413.216V81.2H410.216V78.2ZM410.216 81.8H413.216V84.8H410.216V81.8ZM410.216 85.4H413.216V88.4H410.216V85.4ZM406.616 74.6H409.616V77.6H406.616V74.6ZM406.616 89H409.616V92H406.616V89ZM403.016 78.2H406.016V81.2H403.016V78.2ZM403.016 89H406.016V92H403.016V89ZM399.416 81.8H402.416V84.8H399.416V81.8ZM399.416 89H402.416V92H399.416V89ZM395.816 74.6H398.816V77.6H395.816V74.6ZM395.816 78.2H398.816V81.2H395.816V78.2ZM395.816 81.8H398.816V84.8H395.816V81.8ZM395.816 85.4H398.816V88.4H395.816V85.4ZM431.808 71H434.808V74H431.808V71ZM428.208 67.4H431.208V70.4H428.208V67.4ZM424.608 67.4H427.608V70.4H424.608V67.4ZM421.008 67.4H424.008V70.4H421.008V67.4ZM417.408 71H420.408V74H417.408V71ZM431.808 74.6H434.808V77.6H431.808V74.6ZM431.808 78.2H434.808V81.2H431.808V78.2ZM431.808 81.8H434.808V84.8H431.808V81.8ZM431.808 85.4H434.808V88.4H431.808V85.4ZM428.208 74.6H431.208V77.6H428.208V74.6ZM428.208 89H431.208V92H428.208V89ZM424.608 78.2H427.608V81.2H424.608V78.2ZM424.608 89H427.608V92H424.608V89ZM421.008 81.8H424.008V84.8H421.008V81.8ZM421.008 89H424.008V92H421.008V89ZM417.408 74.6H420.408V77.6H417.408V74.6ZM417.408 78.2H420.408V81.2H417.408V78.2ZM417.408 81.8H420.408V84.8H417.408V81.8ZM417.408 85.4H420.408V88.4H417.408V85.4ZM327.43 125.6H330.43V128.6H327.43V125.6ZM327.43 96.8H330.43V99.8H327.43V96.8ZM327.43 114.8H330.43V117.8H327.43V114.8ZM327.43 118.4H330.43V121.4H327.43V118.4ZM327.43 104H330.43V107H327.43V104ZM327.43 107.6H330.43V110.6H327.43V107.6ZM334.63 104H337.63V107H334.63V104ZM331.03 100.4H334.03V103.4H331.03V100.4ZM327.43 100.4H330.43V103.4H327.43V100.4ZM323.83 100.4H326.83V103.4H323.83V100.4ZM320.23 104H323.23V107H320.23V104ZM334.63 114.8H337.63V117.8H334.63V114.8ZM334.63 118.4H337.63V121.4H334.63V118.4ZM331.03 111.2H334.03V114.2H331.03V111.2ZM331.03 122H334.03V125H331.03V122ZM327.43 111.2H330.43V114.2H327.43V111.2ZM327.43 122H330.43V125H327.43V122ZM323.83 111.2H326.83V114.2H323.83V111.2ZM323.83 122H326.83V125H323.83V122ZM320.23 107.6H323.23V110.6H320.23V107.6ZM320.23 118.4H323.23V121.4H320.23V118.4ZM334.63 104H337.63V107H334.63V104ZM331.03 100.4H334.03V103.4H331.03V100.4ZM327.43 100.4H330.43V103.4H327.43V100.4ZM323.83 100.4H326.83V103.4H323.83V100.4ZM320.23 104H323.23V107H320.23V104ZM334.63 114.8H337.63V117.8H334.63V114.8ZM334.63 118.4H337.63V121.4H334.63V118.4ZM331.03 111.2H334.03V114.2H331.03V111.2ZM331.03 122H334.03V125H331.03V122ZM327.43 111.2H330.43V114.2H327.43V111.2ZM327.43 122H330.43V125H327.43V122ZM323.83 111.2H326.83V114.2H323.83V111.2ZM323.83 122H326.83V125H323.83V122ZM320.23 107.6H323.23V110.6H320.23V107.6ZM320.23 118.4H323.23V121.4H320.23V118.4ZM356.222 104H359.222V107H356.222V104ZM352.622 100.4H355.622V103.4H352.622V100.4ZM349.022 100.4H352.022V103.4H349.022V100.4ZM345.422 100.4H348.422V103.4H345.422V100.4ZM341.822 104H344.822V107H341.822V104ZM356.222 107.6H359.222V110.6H356.222V107.6ZM356.222 122H359.222V125H356.222V122ZM352.622 111.2H355.622V114.2H352.622V111.2ZM352.622 122H355.622V125H352.622V122ZM349.022 114.8H352.022V117.8H349.022V114.8ZM349.022 122H352.022V125H349.022V122ZM345.422 118.4H348.422V121.4H345.422V118.4ZM345.422 122H348.422V125H345.422V122ZM341.822 122H344.822V125H341.822V122ZM367.014 118.4H370.014V121.4H367.014V118.4ZM367.014 122H370.014V125H367.014V122ZM363.414 118.4H366.414V121.4H363.414V118.4ZM363.414 122H366.414V125H363.414V122ZM385.025 100.4H388.025V103.4H385.025V100.4ZM385.025 104H388.025V107H385.025V104ZM381.425 104H384.425V107H381.425V104ZM388.625 114.8H391.625V117.8H388.625V114.8ZM385.025 107.6H388.025V110.6H385.025V107.6ZM385.025 111.2H388.025V114.2H385.025V111.2ZM385.025 114.8H388.025V117.8H385.025V114.8ZM385.025 118.4H388.025V121.4H385.025V118.4ZM385.025 122H388.025V125H385.025V122ZM381.425 114.8H384.425V117.8H381.425V114.8ZM377.825 107.6H380.825V110.6H377.825V107.6ZM377.825 114.8H380.825V117.8H377.825V114.8ZM374.225 111.2H377.225V114.2H374.225V111.2ZM374.225 114.8H377.225V117.8H374.225V114.8ZM410.216 104H413.216V107H410.216V104ZM406.616 100.4H409.616V103.4H406.616V100.4ZM403.016 100.4H406.016V103.4H403.016V100.4ZM399.416 100.4H402.416V103.4H399.416V100.4ZM395.816 104H398.816V107H395.816V104ZM410.216 107.6H413.216V110.6H410.216V107.6ZM410.216 111.2H413.216V114.2H410.216V111.2ZM410.216 114.8H413.216V117.8H410.216V114.8ZM410.216 118.4H413.216V121.4H410.216V118.4ZM406.616 107.6H409.616V110.6H406.616V107.6ZM406.616 122H409.616V125H406.616V122ZM403.016 111.2H406.016V114.2H403.016V111.2ZM403.016 122H406.016V125H403.016V122ZM399.416 114.8H402.416V117.8H399.416V114.8ZM399.416 122H402.416V125H399.416V122ZM395.816 107.6H398.816V110.6H395.816V107.6ZM395.816 111.2H398.816V114.2H395.816V111.2ZM395.816 114.8H398.816V117.8H395.816V114.8ZM395.816 118.4H398.816V121.4H395.816V118.4ZM431.808 104H434.808V107H431.808V104ZM428.208 100.4H431.208V103.4H428.208V100.4ZM424.608 100.4H427.608V103.4H424.608V100.4ZM421.008 100.4H424.008V103.4H421.008V100.4ZM417.408 104H420.408V107H417.408V104ZM431.808 107.6H434.808V110.6H431.808V107.6ZM431.808 111.2H434.808V114.2H431.808V111.2ZM431.808 114.8H434.808V117.8H431.808V114.8ZM431.808 118.4H434.808V121.4H431.808V118.4ZM428.208 107.6H431.208V110.6H428.208V107.6ZM428.208 122H431.208V125H428.208V122ZM424.608 111.2H427.608V114.2H424.608V111.2ZM424.608 122H427.608V125H424.608V122ZM421.008 114.8H424.008V117.8H421.008V114.8ZM421.008 122H424.008V125H421.008V122ZM417.408 107.6H420.408V110.6H417.408V107.6ZM417.408 111.2H420.408V114.2H417.408V111.2ZM417.408 114.8H420.408V117.8H417.408V114.8ZM417.408 118.4H420.408V121.4H417.408V118.4ZM305.839 158.6H308.839V161.6H305.839V158.6ZM305.839 129.8H308.839V132.8H305.839V129.8ZM305.839 147.8H308.839V150.8H305.839V147.8ZM305.839 151.4H308.839V154.4H305.839V151.4ZM305.839 137H308.839V140H305.839V137ZM305.839 140.6H308.839V143.6H305.839V140.6ZM313.039 137H316.039V140H313.039V137ZM309.439 133.4H312.439V136.4H309.439V133.4ZM305.839 133.4H308.839V136.4H305.839V133.4ZM302.239 133.4H305.239V136.4H302.239V133.4ZM298.639 137H301.639V140H298.639V137ZM313.039 147.8H316.039V150.8H313.039V147.8ZM313.039 151.4H316.039V154.4H313.039V151.4ZM309.439 144.2H312.439V147.2H309.439V144.2ZM309.439 155H312.439V158H309.439V155ZM305.839 144.2H308.839V147.2H305.839V144.2ZM305.839 155H308.839V158H305.839V155ZM302.239 144.2H305.239V147.2H302.239V144.2ZM302.239 155H305.239V158H302.239V155ZM298.639 140.6H301.639V143.6H298.639V140.6ZM298.639 151.4H301.639V154.4H298.639V151.4ZM313.039 137H316.039V140H313.039V137ZM309.439 133.4H312.439V136.4H309.439V133.4ZM305.839 133.4H308.839V136.4H305.839V133.4ZM302.239 133.4H305.239V136.4H302.239V133.4ZM298.639 137H301.639V140H298.639V137ZM313.039 147.8H316.039V150.8H313.039V147.8ZM313.039 151.4H316.039V154.4H313.039V151.4ZM309.439 144.2H312.439V147.2H309.439V144.2ZM309.439 155H312.439V158H309.439V155ZM305.839 144.2H308.839V147.2H305.839V144.2ZM305.839 155H308.839V158H305.839V155ZM302.239 144.2H305.239V147.2H302.239V144.2ZM302.239 155H305.239V158H302.239V155ZM298.639 140.6H301.639V143.6H298.639V140.6ZM298.639 151.4H301.639V154.4H298.639V151.4ZM334.63 137H337.63V140H334.63V137ZM331.03 133.4H334.03V136.4H331.03V133.4ZM327.43 133.4H330.43V136.4H327.43V133.4ZM323.83 133.4H326.83V136.4H323.83V133.4ZM320.23 137H323.23V140H320.23V137ZM334.63 140.6H337.63V143.6H334.63V140.6ZM334.63 155H337.63V158H334.63V155ZM331.03 144.2H334.03V147.2H331.03V144.2ZM331.03 155H334.03V158H331.03V155ZM327.43 147.8H330.43V150.8H327.43V147.8ZM327.43 155H330.43V158H327.43V155ZM323.83 151.4H326.83V154.4H323.83V151.4ZM323.83 155H326.83V158H323.83V155ZM320.23 155H323.23V158H320.23V155ZM352.622 133.4H355.622V136.4H352.622V133.4ZM349.022 133.4H352.022V136.4H349.022V133.4ZM345.422 133.4H348.422V136.4H345.422V133.4ZM341.822 137H344.822V140H341.822V137ZM356.222 144.2H359.222V147.2H356.222V144.2ZM356.222 147.8H359.222V150.8H356.222V147.8ZM356.222 151.4H359.222V154.4H356.222V151.4ZM352.622 140.6H355.622V143.6H352.622V140.6ZM352.622 155H355.622V158H352.622V155ZM349.022 140.6H352.022V143.6H349.022V140.6ZM349.022 155H352.022V158H349.022V155ZM345.422 140.6H348.422V143.6H345.422V140.6ZM345.422 155H348.422V158H345.422V155ZM341.822 140.6H344.822V143.6H341.822V140.6ZM341.822 144.2H344.822V147.2H341.822V144.2ZM341.822 147.8H344.822V150.8H341.822V147.8ZM341.822 151.4H344.822V154.4H341.822V151.4ZM367.014 151.4H370.014V154.4H367.014V151.4ZM367.014 155H370.014V158H367.014V155ZM363.414 151.4H366.414V154.4H363.414V151.4ZM363.414 155H366.414V158H363.414V155ZM385.025 133.4H388.025V136.4H385.025V133.4ZM385.025 137H388.025V140H385.025V137ZM381.425 137H384.425V140H381.425V137ZM388.625 147.8H391.625V150.8H388.625V147.8ZM385.025 140.6H388.025V143.6H385.025V140.6ZM385.025 144.2H388.025V147.2H385.025V144.2ZM385.025 147.8H388.025V150.8H385.025V147.8ZM385.025 151.4H388.025V154.4H385.025V151.4ZM385.025 155H388.025V158H385.025V155ZM381.425 147.8H384.425V150.8H381.425V147.8ZM377.825 140.6H380.825V143.6H377.825V140.6ZM377.825 147.8H380.825V150.8H377.825V147.8ZM374.225 144.2H377.225V147.2H374.225V144.2ZM374.225 147.8H377.225V150.8H374.225V147.8ZM410.216 137H413.216V140H410.216V137ZM406.616 133.4H409.616V136.4H406.616V133.4ZM403.016 133.4H406.016V136.4H403.016V133.4ZM399.416 133.4H402.416V136.4H399.416V133.4ZM395.816 137H398.816V140H395.816V137ZM410.216 140.6H413.216V143.6H410.216V140.6ZM410.216 144.2H413.216V147.2H410.216V144.2ZM410.216 147.8H413.216V150.8H410.216V147.8ZM410.216 151.4H413.216V154.4H410.216V151.4ZM406.616 140.6H409.616V143.6H406.616V140.6ZM406.616 155H409.616V158H406.616V155ZM403.016 144.2H406.016V147.2H403.016V144.2ZM403.016 155H406.016V158H403.016V155ZM399.416 147.8H402.416V150.8H399.416V147.8ZM399.416 155H402.416V158H399.416V155ZM395.816 140.6H398.816V143.6H395.816V140.6ZM395.816 144.2H398.816V147.2H395.816V144.2ZM395.816 147.8H398.816V150.8H395.816V147.8ZM395.816 151.4H398.816V154.4H395.816V151.4ZM431.808 137H434.808V140H431.808V137ZM428.208 133.4H431.208V136.4H428.208V133.4ZM424.608 133.4H427.608V136.4H424.608V133.4ZM421.008 133.4H424.008V136.4H421.008V133.4ZM417.408 137H420.408V140H417.408V137ZM431.808 140.6H434.808V143.6H431.808V140.6ZM431.808 144.2H434.808V147.2H431.808V144.2ZM431.808 147.8H434.808V150.8H431.808V147.8ZM431.808 151.4H434.808V154.4H431.808V151.4ZM428.208 140.6H431.208V143.6H428.208V140.6ZM428.208 155H431.208V158H428.208V155ZM424.608 144.2H427.608V147.2H424.608V144.2ZM424.608 155H427.608V158H424.608V155ZM421.008 147.8H424.008V150.8H421.008V147.8ZM421.008 155H424.008V158H421.008V155ZM417.408 140.6H420.408V143.6H417.408V140.6ZM417.408 144.2H420.408V147.2H417.408V144.2ZM417.408 147.8H420.408V150.8H417.408V147.8ZM417.408 151.4H420.408V154.4H417.408V151.4Z" fill="#5B65C2"/>
</g>
<defs>
<clipPath id="clip0">
<rect width="452" height="280" fill="white"/>
</clipPath>
</defs>
</svg>
