<svg width="159" height="96" viewBox="0 0 159 96" fill="none" xmlns="http://www.w3.org/2000/svg">
<g clip-path="url(#clip0)">
<rect width="159" height="96" fill="white"/>
<path d="M62.8926 16.7993V16.1704H62.2637V16.7993H62.8926ZM63.5933 17.5V16.8711H62.9644V17.5H63.5933ZM62.1953 16.7993V16.1704H61.563V16.7993H62.1953ZM63.5933 18.2007V17.5684H62.9644V18.2007H63.5933ZM61.4946 16.7993V16.1704H60.8623V16.7993H61.4946ZM60.7939 16.7993V16.1704H60.165V16.7993H60.7939ZM62.8926 18.9014V18.269H62.2637V18.9014H62.8926ZM60.7939 17.5V16.8711H60.165V17.5H60.7939ZM62.1953 18.9014V18.269H61.563V18.9014H62.1953ZM60.7939 18.2007V17.5684H60.165V18.2007H60.7939ZM61.4946 18.9014V18.269H60.8623V18.9014H61.4946ZM60.7939 18.9014V18.269H60.165V18.9014H60.7939ZM60.7939 19.5986V18.9697H60.165V19.5986H60.7939ZM60.7939 20.2993V19.6704H60.165V20.2993H60.7939ZM60.7939 21V20.3711H60.165V21H60.7939ZM65.6133 20.2993V19.6704H64.981V20.2993H65.6133ZM64.9126 20.2993V19.6704H64.2803V20.2993H64.9126ZM65.6133 21V20.3711H64.981V21H65.6133ZM64.9126 21V20.3711H64.2803V21H64.9126ZM74.7051 16.7993V16.1704H74.0762V16.7993H74.7051ZM75.4058 17.5V16.8711H74.7769V17.5H75.4058ZM74.0078 16.7993V16.1704H73.3755V16.7993H74.0078ZM75.4058 18.2007V17.5684H74.7769V18.2007H75.4058ZM73.3071 16.7993V16.1704H72.6748V16.7993H73.3071ZM72.6064 16.7993V16.1704H71.9775V16.7993H72.6064ZM74.7051 18.9014V18.269H74.0762V18.9014H74.7051ZM72.6064 17.5V16.8711H71.9775V17.5H72.6064ZM74.0078 18.9014V18.269H73.3755V18.9014H74.0078ZM72.6064 18.2007V17.5684H71.9775V18.2007H72.6064ZM73.3071 18.9014V18.269H72.6748V18.9014H73.3071ZM74.0078 19.5986V18.9697H73.3755V19.5986H74.0078ZM74.7051 20.2993V19.6704H74.0762V20.2993H74.7051ZM75.4058 21V20.3711H74.7769V21H75.4058ZM72.6064 18.9014V18.269H71.9775V18.9014H72.6064ZM72.6064 19.5986V18.9697H71.9775V19.5986H72.6064ZM72.6064 20.2993V19.6704H71.9775V20.2993H72.6064ZM72.6064 21V20.3711H71.9775V21H72.6064ZM79.603 16.7993V16.1704H78.9741V16.7993H79.603ZM78.9023 16.7993V16.1704H78.2734V16.7993H78.9023ZM78.2051 16.7993V16.1704H77.5728V16.7993H78.2051ZM77.5044 16.7993V16.1704H76.8721V16.7993H77.5044ZM76.8037 16.7993V16.1704H76.1748V16.7993H76.8037ZM78.9023 18.9014V18.269H78.2734V18.9014H78.9023ZM76.8037 17.5V16.8711H76.1748V17.5H76.8037ZM78.2051 18.9014V18.269H77.5728V18.9014H78.2051ZM76.8037 18.2007V17.5684H76.1748V18.2007H76.8037ZM77.5044 18.9014V18.269H76.8721V18.9014H77.5044ZM79.603 21V20.3711H78.9741V21H79.603ZM76.8037 18.9014V18.269H76.1748V18.9014H76.8037ZM78.9023 21V20.3711H78.2734V21H78.9023ZM76.8037 19.5986V18.9697H76.1748V19.5986H76.8037ZM78.2051 21V20.3711H77.5728V21H78.2051ZM76.8037 20.2993V19.6704H76.1748V20.2993H76.8037ZM77.5044 21V20.3711H76.8721V21H77.5044ZM76.8037 21V20.3711H76.1748V21H76.8037ZM83.8003 16.7993V16.1704H83.1714V16.7993H83.8003ZM83.0996 16.7993V16.1704H82.4707V16.7993H83.0996ZM82.4023 16.7993V16.1704H81.77V16.7993H82.4023ZM81.7017 16.7993V16.1704H81.0693V16.7993H81.7017ZM82.4023 17.5V16.8711H81.77V17.5H82.4023ZM81.001 16.7993V16.1704H80.3721V16.7993H81.001ZM82.4023 18.2007V17.5684H81.77V18.2007H82.4023ZM82.4023 18.9014V18.269H81.77V18.9014H82.4023ZM82.4023 19.5986V18.9697H81.77V19.5986H82.4023ZM82.4023 20.2993V19.6704H81.77V20.2993H82.4023ZM82.4023 21V20.3711H81.77V21H82.4023ZM86.7363 16.7993V16.1704H86.1074V16.7993H86.7363ZM87.437 17.5V16.8711H86.8081V17.5H87.437ZM86.0391 16.7993V16.1704H85.4067V16.7993H86.0391ZM87.437 18.2007V17.5684H86.8081V18.2007H87.437ZM85.3384 16.7993V16.1704H84.7061V16.7993H85.3384ZM87.437 18.9014V18.269H86.8081V18.9014H87.437ZM87.437 19.5986V18.9697H86.8081V19.5986H87.437ZM84.6377 17.5V16.8711H84.0088V17.5H84.6377ZM86.7363 19.5986V18.9697H86.1074V19.5986H86.7363ZM87.437 20.2993V19.6704H86.8081V20.2993H87.437ZM84.6377 18.2007V17.5684H84.0088V18.2007H84.6377ZM86.0391 19.5986V18.9697H85.4067V19.5986H86.0391ZM87.437 21V20.3711H86.8081V21H87.437ZM84.6377 18.9014V18.269H84.0088V18.9014H84.6377ZM85.3384 19.5986V18.9697H84.7061V19.5986H85.3384ZM84.6377 19.5986V18.9697H84.0088V19.5986H84.6377ZM84.6377 20.2993V19.6704H84.0088V20.2993H84.6377ZM84.6377 21V20.3711H84.0088V21H84.6377ZM90.9336 16.7993V16.1704H90.3047V16.7993H90.9336ZM90.2363 16.7993V16.1704H89.604V16.7993H90.2363ZM89.5356 16.7993V16.1704H88.9033V16.7993H89.5356ZM90.2363 17.5V16.8711H89.604V17.5H90.2363ZM90.2363 18.2007V17.5684H89.604V18.2007H90.2363ZM90.2363 18.9014V18.269H89.604V18.9014H90.2363ZM90.2363 19.5986V18.9697H89.604V19.5986H90.2363ZM90.2363 20.2993V19.6704H89.604V20.2993H90.2363ZM90.9336 21V20.3711H90.3047V21H90.9336ZM90.2363 21V20.3711H89.604V21H90.2363ZM89.5356 21V20.3711H88.9033V21H89.5356ZM93.0322 16.7993V16.1704H92.4033V16.7993H93.0322ZM93.0322 17.5V16.8711H92.4033V17.5H93.0322ZM93.0322 18.2007V17.5684H92.4033V18.2007H93.0322ZM95.8315 21V20.3711H95.2026V21H95.8315ZM93.0322 18.9014V18.269H92.4033V18.9014H93.0322ZM95.1309 21V20.3711H94.502V21H95.1309ZM93.0322 19.5986V18.9697H92.4033V19.5986H93.0322ZM94.4336 21V20.3711H93.8013V21H94.4336ZM93.0322 20.2993V19.6704H92.4033V20.2993H93.0322ZM93.7329 21V20.3711H93.1006V21H93.7329ZM93.0322 21V20.3711H92.4033V21H93.0322Z" fill="white"/>
<rect x="-1" width="160" height="15" fill="#141514" fill-opacity="0.97"/>
<path d="M45.9177 41.3989V40.4106H44.9294V41.3989H45.9177ZM44.822 41.3989V40.4106H43.8283V41.3989H44.822ZM43.7209 41.3989V40.4106H42.7272V41.3989H43.7209ZM44.822 42.5V41.5117H43.8283V42.5H44.822ZM44.822 43.6011V42.6074H43.8283V43.6011H44.822ZM44.822 44.7021V43.7085H43.8283V44.7021H44.822ZM44.822 45.7979V44.8096H43.8283V45.7979H44.822ZM44.822 46.8989V45.9106H43.8283V46.8989H44.822ZM45.9177 48V47.0117H44.9294V48H45.9177ZM44.822 48V47.0117H43.8283V48H44.822ZM43.7209 48V47.0117H42.7272V48H43.7209ZM53.0645 41.3989V40.4106H52.0762V41.3989H53.0645ZM53.0645 42.5V41.5117H52.0762V42.5H53.0645ZM53.0645 43.6011V42.6074H52.0762V43.6011H53.0645ZM53.0645 44.7021V43.7085H52.0762V44.7021H53.0645ZM48.6655 41.3989V40.4106H47.6772V41.3989H48.6655ZM53.0645 45.7979V44.8096H52.0762V45.7979H53.0645ZM48.6655 42.5V41.5117H47.6772V42.5H48.6655ZM49.7666 43.6011V42.6074H48.7729V43.6011H49.7666ZM50.8677 44.7021V43.7085H49.874V44.7021H50.8677ZM51.9634 45.7979V44.8096H50.9751V45.7979H51.9634ZM53.0645 46.8989V45.9106H52.0762V46.8989H53.0645ZM48.6655 43.6011V42.6074H47.6772V43.6011H48.6655ZM53.0645 48V47.0117H52.0762V48H53.0645ZM48.6655 44.7021V43.7085H47.6772V44.7021H48.6655ZM48.6655 45.7979V44.8096H47.6772V45.7979H48.6655ZM48.6655 46.8989V45.9106H47.6772V46.8989H48.6655ZM48.6655 48V47.0117H47.6772V48H48.6655ZM58.0091 41.3989V40.4106H57.0208V41.3989H58.0091ZM59.1102 42.5V41.5117H58.1219V42.5H59.1102ZM56.9134 41.3989V40.4106H55.9197V41.3989H56.9134ZM55.8123 41.3989V40.4106H54.8186V41.3989H55.8123ZM59.1102 44.7021V43.7085H58.1219V44.7021H59.1102ZM58.0091 44.7021V43.7085H57.0208V44.7021H58.0091ZM59.1102 45.7979V44.8096H58.1219V45.7979H59.1102ZM54.7112 42.5V41.5117H53.7229V42.5H54.7112ZM56.9134 44.7021V43.7085H55.9197V44.7021H56.9134ZM59.1102 46.8989V45.9106H58.1219V46.8989H59.1102ZM54.7112 43.6011V42.6074H53.7229V43.6011H54.7112ZM59.1102 48V47.0117H58.1219V48H59.1102ZM54.7112 44.7021V43.7085H53.7229V44.7021H54.7112ZM58.0091 48V47.0117H57.0208V48H58.0091ZM54.7112 45.7979V44.8096H53.7229V45.7979H54.7112ZM56.9134 48V47.0117H55.9197V48H56.9134ZM54.7112 46.8989V45.9106H53.7229V46.8989H54.7112ZM55.8123 48V47.0117H54.8186V48H55.8123ZM64.0548 41.3989V40.4106H63.0665V41.3989H64.0548ZM65.1559 42.5V41.5117H64.1676V42.5H65.1559ZM62.9591 41.3989V40.4106H61.9654V41.3989H62.9591ZM65.1559 43.6011V42.6074H64.1676V43.6011H65.1559ZM61.858 41.3989V40.4106H60.8644V41.3989H61.858ZM60.7569 41.3989V40.4106H59.7687V41.3989H60.7569ZM64.0548 44.7021V43.7085H63.0665V44.7021H64.0548ZM60.7569 42.5V41.5117H59.7687V42.5H60.7569ZM62.9591 44.7021V43.7085H61.9654V44.7021H62.9591ZM60.7569 43.6011V42.6074H59.7687V43.6011H60.7569ZM61.858 44.7021V43.7085H60.8644V44.7021H61.858ZM62.9591 45.7979V44.8096H61.9654V45.7979H62.9591ZM64.0548 46.8989V45.9106H63.0665V46.8989H64.0548ZM65.1559 48V47.0117H64.1676V48H65.1559ZM60.7569 44.7021V43.7085H59.7687V44.7021H60.7569ZM60.7569 45.7979V44.8096H59.7687V45.7979H60.7569ZM60.7569 46.8989V45.9106H59.7687V46.8989H60.7569ZM60.7569 48V47.0117H59.7687V48H60.7569ZM71.2016 41.3989V40.4106H70.2133V41.3989H71.2016ZM70.1005 41.3989V40.4106H69.1122V41.3989H70.1005ZM69.0048 41.3989V40.4106H68.0111V41.3989H69.0048ZM67.9037 41.3989V40.4106H66.9101V41.3989H67.9037ZM66.8026 41.3989V40.4106H65.8144V41.3989H66.8026ZM70.1005 44.7021V43.7085H69.1122V44.7021H70.1005ZM66.8026 42.5V41.5117H65.8144V42.5H66.8026ZM69.0048 44.7021V43.7085H68.0111V44.7021H69.0048ZM66.8026 43.6011V42.6074H65.8144V43.6011H66.8026ZM67.9037 44.7021V43.7085H66.9101V44.7021H67.9037ZM71.2016 48V47.0117H70.2133V48H71.2016ZM66.8026 44.7021V43.7085H65.8144V44.7021H66.8026ZM70.1005 48V47.0117H69.1122V48H70.1005ZM66.8026 45.7979V44.8096H65.8144V45.7979H66.8026ZM69.0048 48V47.0117H68.0111V48H69.0048ZM66.8026 46.8989V45.9106H65.8144V46.8989H66.8026ZM67.9037 48V47.0117H66.9101V48H67.9037ZM66.8026 48V47.0117H65.8144V48H66.8026ZM77.2473 41.3989V40.4106H76.259V41.3989H77.2473ZM76.1462 41.3989V40.4106H75.1579V41.3989H76.1462ZM75.0505 41.3989V40.4106H74.0568V41.3989H75.0505ZM73.9494 41.3989V40.4106H72.9558V41.3989H73.9494ZM76.1462 44.7021V43.7085H75.1579V44.7021H76.1462ZM77.2473 45.7979V44.8096H76.259V45.7979H77.2473ZM72.8483 42.5V41.5117H71.8601V42.5H72.8483ZM75.0505 44.7021V43.7085H74.0568V44.7021H75.0505ZM77.2473 46.8989V45.9106H76.259V46.8989H77.2473ZM72.8483 43.6011V42.6074H71.8601V43.6011H72.8483ZM73.9494 44.7021V43.7085H72.9558V44.7021H73.9494ZM76.1462 48V47.0117H75.1579V48H76.1462ZM75.0505 48V47.0117H74.0568V48H75.0505ZM73.9494 48V47.0117H72.9558V48H73.9494ZM72.8483 48V47.0117H71.8601V48H72.8483ZM83.293 41.3989V40.4106H82.3047V41.3989H83.293ZM82.1919 41.3989V40.4106H81.2036V41.3989H82.1919ZM81.0962 41.3989V40.4106H80.1025V41.3989H81.0962ZM79.9951 41.3989V40.4106H79.0015V41.3989H79.9951ZM78.894 41.3989V40.4106H77.9058V41.3989H78.894ZM82.1919 44.7021V43.7085H81.2036V44.7021H82.1919ZM78.894 42.5V41.5117H77.9058V42.5H78.894ZM81.0962 44.7021V43.7085H80.1025V44.7021H81.0962ZM78.894 43.6011V42.6074H77.9058V43.6011H78.894ZM79.9951 44.7021V43.7085H79.0015V44.7021H79.9951ZM83.293 48V47.0117H82.3047V48H83.293ZM78.894 44.7021V43.7085H77.9058V44.7021H78.894ZM82.1919 48V47.0117H81.2036V48H82.1919ZM78.894 45.7979V44.8096H77.9058V45.7979H78.894ZM81.0962 48V47.0117H80.1025V48H81.0962ZM78.894 46.8989V45.9106H77.9058V46.8989H78.894ZM79.9951 48V47.0117H79.0015V48H79.9951ZM78.894 48V47.0117H77.9058V48H78.894ZM95.3844 41.3989V40.4106H94.3961V41.3989H95.3844ZM95.3844 42.5V41.5117H94.3961V42.5H95.3844ZM94.2833 42.5V41.5117H93.295V42.5H94.2833ZM95.3844 43.6011V42.6074H94.3961V43.6011H95.3844ZM95.3844 44.7021V43.7085H94.3961V44.7021H95.3844ZM90.9854 41.3989V40.4106H89.9972V41.3989H90.9854ZM92.0865 42.5V41.5117H91.0929V42.5H92.0865ZM93.1876 43.6011V42.6074H92.1939V43.6011H93.1876ZM95.3844 45.7979V44.8096H94.3961V45.7979H95.3844ZM90.9854 42.5V41.5117H89.9972V42.5H90.9854ZM93.1876 44.7021V43.7085H92.1939V44.7021H93.1876ZM95.3844 46.8989V45.9106H94.3961V46.8989H95.3844ZM90.9854 43.6011V42.6074H89.9972V43.6011H90.9854ZM95.3844 48V47.0117H94.3961V48H95.3844ZM90.9854 44.7021V43.7085H89.9972V44.7021H90.9854ZM90.9854 45.7979V44.8096H89.9972V45.7979H90.9854ZM90.9854 46.8989V45.9106H89.9972V46.8989H90.9854ZM90.9854 48V47.0117H89.9972V48H90.9854ZM100.329 41.3989V40.4106H99.3407V41.3989H100.329ZM101.43 42.5V41.5117H100.442V42.5H101.43ZM99.2333 41.3989V40.4106H98.2396V41.3989H99.2333ZM101.43 43.6011V42.6074H100.442V43.6011H101.43ZM98.1322 41.3989V40.4106H97.1386V41.3989H98.1322ZM101.43 44.7021V43.7085H100.442V44.7021H101.43ZM101.43 45.7979V44.8096H100.442V45.7979H101.43ZM97.0312 42.5V41.5117H96.0429V42.5H97.0312ZM101.43 46.8989V45.9106H100.442V46.8989H101.43ZM97.0312 43.6011V42.6074H96.0429V43.6011H97.0312ZM97.0312 44.7021V43.7085H96.0429V44.7021H97.0312ZM100.329 48V47.0117H99.3407V48H100.329ZM97.0312 45.7979V44.8096H96.0429V45.7979H97.0312ZM99.2333 48V47.0117H98.2396V48H99.2333ZM97.0312 46.8989V45.9106H96.0429V46.8989H97.0312ZM98.1322 48V47.0117H97.1386V48H98.1322ZM107.476 41.3989V40.4106H106.488V41.3989H107.476ZM107.476 42.5V41.5117H106.488V42.5H107.476ZM107.476 43.6011V42.6074H106.488V43.6011H107.476ZM107.476 44.7021V43.7085H106.488V44.7021H107.476ZM103.077 41.3989V40.4106H102.089V41.3989H103.077ZM107.476 45.7979V44.8096H106.488V45.7979H107.476ZM103.077 42.5V41.5117H102.089V42.5H103.077ZM104.178 43.6011V42.6074H103.184V43.6011H104.178ZM105.279 44.7021V43.7085H104.285V44.7021H105.279ZM106.375 45.7979V44.8096H105.386V45.7979H106.375ZM107.476 46.8989V45.9106H106.488V46.8989H107.476ZM103.077 43.6011V42.6074H102.089V43.6011H103.077ZM107.476 48V47.0117H106.488V48H107.476ZM103.077 44.7021V43.7085H102.089V44.7021H103.077ZM103.077 45.7979V44.8096H102.089V45.7979H103.077ZM103.077 46.8989V45.9106H102.089V46.8989H103.077ZM103.077 48V47.0117H102.089V48H103.077ZM113.521 41.3989V40.4106H112.533V41.3989H113.521ZM112.42 41.3989V40.4106H111.432V41.3989H112.42ZM111.325 41.3989V40.4106H110.331V41.3989H111.325ZM110.224 41.3989V40.4106H109.23V41.3989H110.224ZM111.325 42.5V41.5117H110.331V42.5H111.325ZM109.123 41.3989V40.4106H108.134V41.3989H109.123ZM111.325 43.6011V42.6074H110.331V43.6011H111.325ZM111.325 44.7021V43.7085H110.331V44.7021H111.325ZM111.325 45.7979V44.8096H110.331V45.7979H111.325ZM111.325 46.8989V45.9106H110.331V46.8989H111.325ZM111.325 48V47.0117H110.331V48H111.325ZM118.262 41.3989V40.4106H117.274V41.3989H118.262ZM119.363 42.5V41.5117H118.375V42.5H119.363ZM117.166 41.3989V40.4106H116.173V41.3989H117.166ZM119.363 43.6011V42.6074H118.375V43.6011H119.363ZM116.065 41.3989V40.4106H115.072V41.3989H116.065ZM119.363 44.7021V43.7085H118.375V44.7021H119.363ZM119.363 45.7979V44.8096H118.375V45.7979H119.363ZM114.964 42.5V41.5117H113.976V42.5H114.964ZM119.363 46.8989V45.9106H118.375V46.8989H119.363ZM114.964 43.6011V42.6074H113.976V43.6011H114.964ZM114.964 44.7021V43.7085H113.976V44.7021H114.964ZM118.262 48V47.0117H117.274V48H118.262ZM114.964 45.7979V44.8096H113.976V45.7979H114.964ZM117.166 48V47.0117H116.173V48H117.166ZM114.964 46.8989V45.9106H113.976V46.8989H114.964ZM116.065 48V47.0117H115.072V48H116.065Z" fill="#141514"/>
<path d="M43.6504 4.99902V4.10059H42.752V4.99902H43.6504ZM43.6504 6V5.10156H42.752V6H43.6504ZM43.6504 7.00098V6.09766H42.752V7.00098H43.6504ZM43.6504 8.00195V7.09863H42.752V8.00195H43.6504ZM39.6514 4.99902V4.10059H38.7529V4.99902H39.6514ZM43.6504 8.99805V8.09961H42.752V8.99805H43.6504ZM39.6514 6V5.10156H38.7529V6H39.6514ZM39.6514 7.00098V6.09766H38.7529V7.00098H39.6514ZM42.6494 9.99902V9.10059H41.751V9.99902H42.6494ZM39.6514 8.00195V7.09863H38.7529V8.00195H39.6514ZM39.6514 8.99805V8.09961H38.7529V8.99805H39.6514ZM40.6523 9.99902V9.10059H39.749V9.99902H40.6523ZM41.6533 11V10.1016H40.75V11H41.6533ZM49.6465 4.99902V4.10059H48.748V4.99902H49.6465ZM48.6455 4.99902V4.10059H47.7471V4.99902H48.6455ZM47.6494 4.99902V4.10059H46.7461V4.99902H47.6494ZM46.6484 4.99902V4.10059H45.7451V4.99902H46.6484ZM45.6475 4.99902V4.10059H44.749V4.99902H45.6475ZM48.6455 8.00195V7.09863H47.7471V8.00195H48.6455ZM45.6475 6V5.10156H44.749V6H45.6475ZM47.6494 8.00195V7.09863H46.7461V8.00195H47.6494ZM45.6475 7.00098V6.09766H44.749V7.00098H45.6475ZM46.6484 8.00195V7.09863H45.7451V8.00195H46.6484ZM49.6465 11V10.1016H48.748V11H49.6465ZM45.6475 8.00195V7.09863H44.749V8.00195H45.6475ZM48.6455 11V10.1016H47.7471V11H48.6455ZM45.6475 8.99805V8.09961H44.749V8.99805H45.6475ZM47.6494 11V10.1016H46.7461V11H47.6494ZM45.6475 9.99902V9.10059H44.749V9.99902H45.6475ZM46.6484 11V10.1016H45.7451V11H46.6484ZM45.6475 11V10.1016H44.749V11H45.6475ZM55.6426 4.99902V4.10059H54.7441V4.99902H55.6426ZM55.6426 6V5.10156H54.7441V6H55.6426ZM55.6426 7.00098V6.09766H54.7441V7.00098H55.6426ZM55.6426 8.00195V7.09863H54.7441V8.00195H55.6426ZM51.6436 4.99902V4.10059H50.7451V4.99902H51.6436ZM55.6426 8.99805V8.09961H54.7441V8.99805H55.6426ZM51.6436 6V5.10156H50.7451V6H51.6436ZM52.6445 7.00098V6.09766H51.7412V7.00098H52.6445ZM53.6455 8.00195V7.09863H52.7422V8.00195H53.6455ZM54.6416 8.99805V8.09961H53.7432V8.99805H54.6416ZM55.6426 9.99902V9.10059H54.7441V9.99902H55.6426ZM51.6436 7.00098V6.09766H50.7451V7.00098H51.6436ZM55.6426 11V10.1016H54.7441V11H55.6426ZM51.6436 8.00195V7.09863H50.7451V8.00195H51.6436ZM51.6436 8.99805V8.09961H50.7451V8.99805H51.6436ZM51.6436 9.99902V9.10059H50.7451V9.99902H51.6436ZM51.6436 11V10.1016H50.7451V11H51.6436ZM61.6387 4.99902V4.10059H60.7402V4.99902H61.6387ZM60.6377 4.99902V4.10059H59.7393V4.99902H60.6377ZM59.6416 4.99902V4.10059H58.7383V4.99902H59.6416ZM58.6406 4.99902V4.10059H57.7373V4.99902H58.6406ZM59.6416 6V5.10156H58.7383V6H59.6416ZM57.6396 4.99902V4.10059H56.7412V4.99902H57.6396ZM59.6416 7.00098V6.09766H58.7383V7.00098H59.6416ZM59.6416 8.00195V7.09863H58.7383V8.00195H59.6416ZM59.6416 8.99805V8.09961H58.7383V8.99805H59.6416ZM59.6416 9.99902V9.10059H58.7383V9.99902H59.6416ZM59.6416 11V10.1016H58.7383V11H59.6416ZM65.833 4.99902V4.10059H64.9346V4.99902H65.833ZM66.834 6V5.10156H65.9355V6H66.834ZM64.8369 4.99902V4.10059H63.9336V4.99902H64.8369ZM66.834 7.00098V6.09766H65.9355V7.00098H66.834ZM63.8359 4.99902V4.10059H62.9326V4.99902H63.8359ZM66.834 8.00195V7.09863H65.9355V8.00195H66.834ZM66.834 8.99805V8.09961H65.9355V8.99805H66.834ZM62.835 6V5.10156H61.9365V6H62.835ZM65.833 8.99805V8.09961H64.9346V8.99805H65.833ZM66.834 9.99902V9.10059H65.9355V9.99902H66.834ZM62.835 7.00098V6.09766H61.9365V7.00098H62.835ZM64.8369 8.99805V8.09961H63.9336V8.99805H64.8369ZM66.834 11V10.1016H65.9355V11H66.834ZM62.835 8.00195V7.09863H61.9365V8.00195H62.835ZM63.8359 8.99805V8.09961H62.9326V8.99805H63.8359ZM62.835 8.99805V8.09961H61.9365V8.99805H62.835ZM62.835 9.99902V9.10059H61.9365V9.99902H62.835ZM62.835 11V10.1016H61.9365V11H62.835ZM77.2686 4.99902V4.10059H76.3701V4.99902H77.2686ZM78.2695 6V5.10156H77.3711V6H78.2695ZM76.2725 4.99902V4.10059H75.3691V4.99902H76.2725ZM78.2695 7.00098V6.09766H77.3711V7.00098H78.2695ZM75.2715 4.99902V4.10059H74.3682V4.99902H75.2715ZM78.2695 8.00195V7.09863H77.3711V8.00195H78.2695ZM74.2705 4.99902V4.10059H73.3721V4.99902H74.2705ZM78.2695 8.99805V8.09961H77.3711V8.99805H78.2695ZM74.2705 6V5.10156H73.3721V6H74.2705ZM78.2695 9.99902V9.10059H77.3711V9.99902H78.2695ZM74.2705 7.00098V6.09766H73.3721V7.00098H74.2705ZM74.2705 8.00195V7.09863H73.3721V8.00195H74.2705ZM77.2686 11V10.1016H76.3701V11H77.2686ZM74.2705 8.99805V8.09961H73.3721V8.99805H74.2705ZM76.2725 11V10.1016H75.3691V11H76.2725ZM74.2705 9.99902V9.10059H73.3721V9.99902H74.2705ZM75.2715 11V10.1016H74.3682V11H75.2715ZM74.2705 11V10.1016H73.3721V11H74.2705ZM83.2646 4.99902V4.10059H82.3662V4.99902H83.2646ZM82.2686 4.99902V4.10059H81.3652V4.99902H82.2686ZM81.2676 4.99902V4.10059H80.3643V4.99902H81.2676ZM82.2686 6V5.10156H81.3652V6H82.2686ZM82.2686 7.00098V6.09766H81.3652V7.00098H82.2686ZM82.2686 8.00195V7.09863H81.3652V8.00195H82.2686ZM82.2686 8.99805V8.09961H81.3652V8.99805H82.2686ZM82.2686 9.99902V9.10059H81.3652V9.99902H82.2686ZM83.2646 11V10.1016H82.3662V11H83.2646ZM82.2686 11V10.1016H81.3652V11H82.2686ZM81.2676 11V10.1016H80.3643V11H81.2676ZM90.2617 4.99902V4.10059H89.3633V4.99902H90.2617ZM90.2617 6V5.10156H89.3633V6H90.2617ZM90.2617 7.00098V6.09766H89.3633V7.00098H90.2617ZM90.2617 8.00195V7.09863H89.3633V8.00195H90.2617ZM86.2627 4.99902V4.10059H85.3643V4.99902H86.2627ZM90.2617 8.99805V8.09961H89.3633V8.99805H90.2617ZM86.2627 6V5.10156H85.3643V6H86.2627ZM86.2627 7.00098V6.09766H85.3643V7.00098H86.2627ZM89.2607 9.99902V9.10059H88.3623V9.99902H89.2607ZM86.2627 8.00195V7.09863H85.3643V8.00195H86.2627ZM86.2627 8.99805V8.09961H85.3643V8.99805H86.2627ZM87.2637 9.99902V9.10059H86.3604V9.99902H87.2637ZM88.2646 11V10.1016H87.3613V11H88.2646ZM95.2568 4.99902V4.10059H94.3584V4.99902H95.2568ZM94.2607 4.99902V4.10059H93.3574V4.99902H94.2607ZM93.2598 4.99902V4.10059H92.3564V4.99902H93.2598ZM94.2607 6V5.10156H93.3574V6H94.2607ZM94.2607 7.00098V6.09766H93.3574V7.00098H94.2607ZM94.2607 8.00195V7.09863H93.3574V8.00195H94.2607ZM94.2607 8.99805V8.09961H93.3574V8.99805H94.2607ZM94.2607 9.99902V9.10059H93.3574V9.99902H94.2607ZM95.2568 11V10.1016H94.3584V11H95.2568ZM94.2607 11V10.1016H93.3574V11H94.2607ZM93.2598 11V10.1016H92.3564V11H93.2598ZM101.253 4.99902V4.10059H100.354V4.99902H101.253ZM102.254 6V5.10156H101.355V6H102.254ZM100.257 4.99902V4.10059H99.3535V4.99902H100.257ZM102.254 7.00098V6.09766H101.355V7.00098H102.254ZM99.2559 4.99902V4.10059H98.3525V4.99902H99.2559ZM102.254 8.00195V7.09863H101.355V8.00195H102.254ZM98.2549 4.99902V4.10059H97.3564V4.99902H98.2549ZM102.254 8.99805V8.09961H101.355V8.99805H102.254ZM98.2549 6V5.10156H97.3564V6H98.2549ZM102.254 9.99902V9.10059H101.355V9.99902H102.254ZM98.2549 7.00098V6.09766H97.3564V7.00098H98.2549ZM98.2549 8.00195V7.09863H97.3564V8.00195H98.2549ZM101.253 11V10.1016H100.354V11H101.253ZM98.2549 8.99805V8.09961H97.3564V8.99805H98.2549ZM100.257 11V10.1016H99.3535V11H100.257ZM98.2549 9.99902V9.10059H97.3564V9.99902H98.2549ZM99.2559 11V10.1016H98.3525V11H99.2559ZM98.2549 11V10.1016H97.3564V11H98.2549ZM107.249 4.99902V4.10059H106.351V4.99902H107.249ZM106.253 4.99902V4.10059H105.35V4.99902H106.253ZM105.252 4.99902V4.10059H104.349V4.99902H105.252ZM106.253 6V5.10156H105.35V6H106.253ZM106.253 7.00098V6.09766H105.35V7.00098H106.253ZM106.253 8.00195V7.09863H105.35V8.00195H106.253ZM106.253 8.99805V8.09961H105.35V8.99805H106.253ZM106.253 9.99902V9.10059H105.35V9.99902H106.253ZM107.249 11V10.1016H106.351V11H107.249ZM106.253 11V10.1016H105.35V11H106.253ZM105.252 11V10.1016H104.349V11H105.252ZM113.245 4.99902V4.10059H112.347V4.99902H113.245ZM114.246 6V5.10156H113.348V6H114.246ZM112.249 4.99902V4.10059H111.346V4.99902H112.249ZM114.246 7.00098V6.09766H113.348V7.00098H114.246ZM111.248 4.99902V4.10059H110.345V4.99902H111.248ZM114.246 8.00195V7.09863H113.348V8.00195H114.246ZM110.247 4.99902V4.10059H109.349V4.99902H110.247ZM114.246 8.99805V8.09961H113.348V8.99805H114.246ZM110.247 6V5.10156H109.349V6H110.247ZM114.246 9.99902V9.10059H113.348V9.99902H114.246ZM110.247 7.00098V6.09766H109.349V7.00098H110.247ZM110.247 8.00195V7.09863H109.349V8.00195H110.247ZM113.245 11V10.1016H112.347V11H113.245ZM110.247 8.99805V8.09961H109.349V8.99805H110.247ZM112.249 11V10.1016H111.346V11H112.249ZM110.247 9.99902V9.10059H109.349V9.99902H110.247ZM111.248 11V10.1016H110.345V11H111.248ZM110.247 11V10.1016H109.349V11H110.247ZM119.241 4.99902V4.10059H118.343V4.99902H119.241ZM120.242 6V5.10156H119.344V6H120.242ZM118.245 4.99902V4.10059H117.342V4.99902H118.245ZM120.242 7.00098V6.09766H119.344V7.00098H120.242ZM117.244 4.99902V4.10059H116.341V4.99902H117.244ZM120.242 8.00195V7.09863H119.344V8.00195H120.242ZM120.242 8.99805V8.09961H119.344V8.99805H120.242ZM116.243 6V5.10156H115.345V6H116.243ZM119.241 8.99805V8.09961H118.343V8.99805H119.241ZM120.242 9.99902V9.10059H119.344V9.99902H120.242ZM116.243 7.00098V6.09766H115.345V7.00098H116.243ZM118.245 8.99805V8.09961H117.342V8.99805H118.245ZM120.242 11V10.1016H119.344V11H120.242ZM116.243 8.00195V7.09863H115.345V8.00195H116.243ZM117.244 8.99805V8.09961H116.341V8.99805H117.244ZM116.243 8.99805V8.09961H115.345V8.99805H116.243ZM116.243 9.99902V9.10059H115.345V9.99902H116.243ZM116.243 11V10.1016H115.345V11H116.243Z" fill="white"/>
<line y1="76.75" x2="159" y2="76.75" stroke="black" stroke-width="0.5"/>
</g>
<defs>
<clipPath id="clip0">
<rect width="159" height="96" fill="white"/>
</clipPath>
</defs>
</svg>
