<svg width="452" height="280" viewBox="0 0 452 280" fill="none" xmlns="http://www.w3.org/2000/svg">
<rect width="452" height="280" fill="white"/>
<path d="M60.8697 86H63.8697V89H60.8697V86ZM57.2697 82.4H60.2697V85.4H57.2697V82.4ZM53.6697 82.4H56.6697V85.4H53.6697V82.4ZM50.0697 82.4H53.0697V85.4H50.0697V82.4ZM46.4697 86H49.4697V89H46.4697V86ZM60.8697 100.4H63.8697V103.4H60.8697V100.4ZM57.2697 104H60.2697V107H57.2697V104ZM53.6697 104H56.6697V107H53.6697V104ZM50.0697 104H53.0697V107H50.0697V104ZM46.4697 89.6H49.4697V92.6H46.4697V89.6ZM46.4697 93.2H49.4697V96.2H46.4697V93.2ZM46.4697 96.8H49.4697V99.8H46.4697V96.8ZM46.4697 100.4H49.4697V103.4H46.4697V100.4ZM82.4615 86H85.4615V89H82.4615V86ZM78.8615 82.4H81.8615V85.4H78.8615V82.4ZM75.2615 82.4H78.2615V85.4H75.2615V82.4ZM71.6615 82.4H74.6615V85.4H71.6615V82.4ZM68.0615 86H71.0615V89H68.0615V86ZM82.4615 89.6H85.4615V92.6H82.4615V89.6ZM82.4615 93.2H85.4615V96.2H82.4615V93.2ZM82.4615 96.8H85.4615V99.8H82.4615V96.8ZM82.4615 100.4H85.4615V103.4H82.4615V100.4ZM78.8615 104H81.8615V107H78.8615V104ZM75.2615 104H78.2615V107H75.2615V104ZM71.6615 104H74.6615V107H71.6615V104ZM68.0615 89.6H71.0615V92.6H68.0615V89.6ZM68.0615 93.2H71.0615V96.2H68.0615V93.2ZM68.0615 96.8H71.0615V99.8H68.0615V96.8ZM68.0615 100.4H71.0615V103.4H68.0615V100.4ZM104.053 86H107.053V89H104.053V86ZM100.453 82.4H103.453V85.4H100.453V82.4ZM96.8533 82.4H99.8533V85.4H96.8533V82.4ZM93.2533 82.4H96.2533V85.4H93.2533V82.4ZM89.6533 82.4H92.6533V85.4H89.6533V82.4ZM89.6533 86H92.6533V89H89.6533V86ZM104.053 89.6H107.053V92.6H104.053V89.6ZM104.053 104H107.053V107H104.053V104ZM100.453 93.2H103.453V96.2H100.453V93.2ZM100.453 100.4H103.453V103.4H100.453V100.4ZM96.8533 93.2H99.8533V96.2H96.8533V93.2ZM96.8533 96.8H99.8533V99.8H96.8533V96.8ZM93.2533 93.2H96.2533V96.2H93.2533V93.2ZM89.6533 89.6H92.6533V92.6H89.6533V89.6ZM89.6533 93.2H92.6533V96.2H89.6533V93.2ZM89.6533 96.8H92.6533V99.8H89.6533V96.8ZM89.6533 100.4H92.6533V103.4H89.6533V100.4ZM89.6533 104H92.6533V107H89.6533V104ZM125.645 82.4H128.645V85.4H125.645V82.4ZM122.045 82.4H125.045V85.4H122.045V82.4ZM118.445 82.4H121.445V85.4H118.445V82.4ZM118.445 86H121.445V89H118.445V86ZM114.845 82.4H117.845V85.4H114.845V82.4ZM111.245 82.4H114.245V85.4H111.245V82.4ZM118.445 89.6H121.445V92.6H118.445V89.6ZM118.445 93.2H121.445V96.2H118.445V93.2ZM118.445 96.8H121.445V99.8H118.445V96.8ZM118.445 100.4H121.445V103.4H118.445V100.4ZM118.445 104H121.445V107H118.445V104ZM147.237 82.4H150.237V85.4H147.237V82.4ZM143.637 82.4H146.637V85.4H143.637V82.4ZM140.037 82.4H143.037V85.4H140.037V82.4ZM136.437 82.4H139.437V85.4H136.437V82.4ZM132.837 82.4H135.837V85.4H132.837V82.4ZM132.837 86H135.837V89H132.837V86ZM147.237 104H150.237V107H147.237V104ZM143.637 93.2H146.637V96.2H143.637V93.2ZM143.637 104H146.637V107H143.637V104ZM140.037 93.2H143.037V96.2H140.037V93.2ZM140.037 104H143.037V107H140.037V104ZM136.437 93.2H139.437V96.2H136.437V93.2ZM136.437 104H139.437V107H136.437V104ZM132.837 89.6H135.837V92.6H132.837V89.6ZM132.837 93.2H135.837V96.2H132.837V93.2ZM132.837 96.8H135.837V99.8H132.837V96.8ZM132.837 100.4H135.837V103.4H132.837V100.4ZM132.837 104H135.837V107H132.837V104ZM181.421 86H184.421V89H181.421V86ZM177.821 82.4H180.821V85.4H177.821V82.4ZM174.221 82.4H177.221V85.4H174.221V82.4ZM170.621 82.4H173.621V85.4H170.621V82.4ZM167.021 86H170.021V89H167.021V86ZM181.421 100.4H184.421V103.4H181.421V100.4ZM177.821 104H180.821V107H177.821V104ZM174.221 104H177.221V107H174.221V104ZM170.621 104H173.621V107H170.621V104ZM167.021 89.6H170.021V92.6H167.021V89.6ZM167.021 93.2H170.021V96.2H167.021V93.2ZM167.021 96.8H170.021V99.8H167.021V96.8ZM167.021 100.4H170.021V103.4H167.021V100.4ZM203.012 86H206.012V89H203.012V86ZM199.412 82.4H202.412V85.4H199.412V82.4ZM195.812 82.4H198.812V85.4H195.812V82.4ZM192.212 82.4H195.212V85.4H192.212V82.4ZM188.612 86H191.612V89H188.612V86ZM203.012 89.6H206.012V92.6H203.012V89.6ZM203.012 93.2H206.012V96.2H203.012V93.2ZM203.012 96.8H206.012V99.8H203.012V96.8ZM203.012 100.4H206.012V103.4H203.012V100.4ZM199.412 104H202.412V107H199.412V104ZM195.812 104H198.812V107H195.812V104ZM192.212 104H195.212V107H192.212V104ZM188.612 89.6H191.612V92.6H188.612V89.6ZM188.612 93.2H191.612V96.2H188.612V93.2ZM188.612 96.8H191.612V99.8H188.612V96.8ZM188.612 100.4H191.612V103.4H188.612V100.4ZM224.604 82.4H227.604V85.4H224.604V82.4ZM224.604 86H227.604V89H224.604V86ZM221.004 86H224.004V89H221.004V86ZM213.804 86H216.804V89H213.804V86ZM210.204 82.4H213.204V85.4H210.204V82.4ZM210.204 86H213.204V89H210.204V86ZM224.604 89.6H227.604V92.6H224.604V89.6ZM224.604 93.2H227.604V96.2H224.604V93.2ZM224.604 96.8H227.604V99.8H224.604V96.8ZM224.604 100.4H227.604V103.4H224.604V100.4ZM224.604 104H227.604V107H224.604V104ZM217.404 89.6H220.404V92.6H217.404V89.6ZM217.404 93.2H220.404V96.2H217.404V93.2ZM210.204 89.6H213.204V92.6H210.204V89.6ZM210.204 93.2H213.204V96.2H210.204V93.2ZM210.204 96.8H213.204V99.8H210.204V96.8ZM210.204 100.4H213.204V103.4H210.204V100.4ZM210.204 104H213.204V107H210.204V104ZM246.196 86H249.196V89H246.196V86ZM242.596 82.4H245.596V85.4H242.596V82.4ZM238.996 82.4H241.996V85.4H238.996V82.4ZM235.396 82.4H238.396V85.4H235.396V82.4ZM231.796 82.4H234.796V85.4H231.796V82.4ZM231.796 86H234.796V89H231.796V86ZM246.196 89.6H249.196V92.6H246.196V89.6ZM242.596 93.2H245.596V96.2H242.596V93.2ZM238.996 93.2H241.996V96.2H238.996V93.2ZM235.396 93.2H238.396V96.2H235.396V93.2ZM231.796 89.6H234.796V92.6H231.796V89.6ZM231.796 93.2H234.796V96.2H231.796V93.2ZM231.796 96.8H234.796V99.8H231.796V96.8ZM231.796 100.4H234.796V103.4H231.796V100.4ZM231.796 104H234.796V107H231.796V104ZM267.788 86H270.788V89H267.788V86ZM264.188 82.4H267.188V85.4H264.188V82.4ZM260.588 82.4H263.588V85.4H260.588V82.4ZM256.988 82.4H259.988V85.4H256.988V82.4ZM253.388 82.4H256.388V85.4H253.388V82.4ZM253.388 86H256.388V89H253.388V86ZM267.788 89.6H270.788V92.6H267.788V89.6ZM267.788 104H270.788V107H267.788V104ZM264.188 93.2H267.188V96.2H264.188V93.2ZM264.188 100.4H267.188V103.4H264.188V100.4ZM260.588 93.2H263.588V96.2H260.588V93.2ZM260.588 96.8H263.588V99.8H260.588V96.8ZM256.988 93.2H259.988V96.2H256.988V93.2ZM253.388 89.6H256.388V92.6H253.388V89.6ZM253.388 93.2H256.388V96.2H253.388V93.2ZM253.388 96.8H256.388V99.8H253.388V96.8ZM253.388 100.4H256.388V103.4H253.388V100.4ZM253.388 104H256.388V107H253.388V104ZM289.379 86H292.379V89H289.379V86ZM285.779 82.4H288.779V85.4H285.779V82.4ZM282.179 82.4H285.179V85.4H282.179V82.4ZM278.579 82.4H281.579V85.4H278.579V82.4ZM274.979 86H277.979V89H274.979V86ZM289.379 89.6H292.379V92.6H289.379V89.6ZM289.379 93.2H292.379V96.2H289.379V93.2ZM289.379 96.8H292.379V99.8H289.379V96.8ZM289.379 100.4H292.379V103.4H289.379V100.4ZM285.779 104H288.779V107H285.779V104ZM282.179 104H285.179V107H282.179V104ZM278.579 104H281.579V107H278.579V104ZM274.979 89.6H277.979V92.6H274.979V89.6ZM274.979 93.2H277.979V96.2H274.979V93.2ZM274.979 96.8H277.979V99.8H274.979V96.8ZM274.979 100.4H277.979V103.4H274.979V100.4ZM310.971 86H313.971V89H310.971V86ZM307.371 82.4H310.371V85.4H307.371V82.4ZM303.771 82.4H306.771V85.4H303.771V82.4ZM300.171 82.4H303.171V85.4H300.171V82.4ZM296.571 82.4H299.571V85.4H296.571V82.4ZM296.571 86H299.571V89H296.571V86ZM310.971 89.6H313.971V92.6H310.971V89.6ZM310.971 96.8H313.971V99.8H310.971V96.8ZM310.971 100.4H313.971V103.4H310.971V100.4ZM307.371 93.2H310.371V96.2H307.371V93.2ZM307.371 104H310.371V107H307.371V104ZM303.771 93.2H306.771V96.2H303.771V93.2ZM303.771 104H306.771V107H303.771V104ZM300.171 93.2H303.171V96.2H300.171V93.2ZM300.171 104H303.171V107H300.171V104ZM296.571 89.6H299.571V92.6H296.571V89.6ZM296.571 93.2H299.571V96.2H296.571V93.2ZM296.571 96.8H299.571V99.8H296.571V96.8ZM296.571 100.4H299.571V103.4H296.571V100.4ZM296.571 104H299.571V107H296.571V104ZM332.563 86H335.563V89H332.563V86ZM328.963 82.4H331.963V85.4H328.963V82.4ZM325.363 82.4H328.363V85.4H325.363V82.4ZM321.763 82.4H324.763V85.4H321.763V82.4ZM318.163 86H321.163V89H318.163V86ZM332.563 89.6H335.563V92.6H332.563V89.6ZM332.563 93.2H335.563V96.2H332.563V93.2ZM332.563 96.8H335.563V99.8H332.563V96.8ZM332.563 100.4H335.563V103.4H332.563V100.4ZM332.563 104H335.563V107H332.563V104ZM328.963 93.2H331.963V96.2H328.963V93.2ZM325.363 93.2H328.363V96.2H325.363V93.2ZM321.763 93.2H324.763V96.2H321.763V93.2ZM318.163 89.6H321.163V92.6H318.163V89.6ZM318.163 93.2H321.163V96.2H318.163V93.2ZM318.163 96.8H321.163V99.8H318.163V96.8ZM318.163 100.4H321.163V103.4H318.163V100.4ZM318.163 104H321.163V107H318.163V104ZM354.155 82.4H357.155V85.4H354.155V82.4ZM354.155 86H357.155V89H354.155V86ZM339.755 82.4H342.755V85.4H339.755V82.4ZM339.755 86H342.755V89H339.755V86ZM354.155 89.6H357.155V92.6H354.155V89.6ZM354.155 93.2H357.155V96.2H354.155V93.2ZM354.155 96.8H357.155V99.8H354.155V96.8ZM354.155 100.4H357.155V103.4H354.155V100.4ZM354.155 104H357.155V107H354.155V104ZM350.555 96.8H353.555V99.8H350.555V96.8ZM346.955 93.2H349.955V96.2H346.955V93.2ZM343.355 89.6H346.355V92.6H343.355V89.6ZM339.755 89.6H342.755V92.6H339.755V89.6ZM339.755 93.2H342.755V96.2H339.755V93.2ZM339.755 96.8H342.755V99.8H339.755V96.8ZM339.755 100.4H342.755V103.4H339.755V100.4ZM339.755 104H342.755V107H339.755V104ZM375.747 82.4H378.747V85.4H375.747V82.4ZM372.147 82.4H375.147V85.4H372.147V82.4ZM368.547 82.4H371.547V85.4H368.547V82.4ZM368.547 86H371.547V89H368.547V86ZM364.947 82.4H367.947V85.4H364.947V82.4ZM361.347 82.4H364.347V85.4H361.347V82.4ZM368.547 89.6H371.547V92.6H368.547V89.6ZM368.547 93.2H371.547V96.2H368.547V93.2ZM368.547 96.8H371.547V99.8H368.547V96.8ZM368.547 100.4H371.547V103.4H368.547V100.4ZM368.547 104H371.547V107H368.547V104ZM397.338 82.4H400.338V85.4H397.338V82.4ZM393.738 82.4H396.738V85.4H393.738V82.4ZM390.138 82.4H393.138V85.4H390.138V82.4ZM386.538 82.4H389.538V85.4H386.538V82.4ZM382.938 82.4H385.938V85.4H382.938V82.4ZM382.938 86H385.938V89H382.938V86ZM397.338 104H400.338V107H397.338V104ZM393.738 93.2H396.738V96.2H393.738V93.2ZM393.738 104H396.738V107H393.738V104ZM390.138 93.2H393.138V96.2H390.138V93.2ZM390.138 104H393.138V107H390.138V104ZM386.538 93.2H389.538V96.2H386.538V93.2ZM386.538 104H389.538V107H386.538V104ZM382.938 89.6H385.938V92.6H382.938V89.6ZM382.938 93.2H385.938V96.2H382.938V93.2ZM382.938 96.8H385.938V99.8H382.938V96.8ZM382.938 100.4H385.938V103.4H382.938V100.4ZM382.938 104H385.938V107H382.938V104ZM82.0864 115.4H85.0864V118.4H82.0864V115.4ZM82.0864 119H85.0864V122H82.0864V119ZM96.4864 137H99.4864V140H96.4864V137ZM92.8864 137H95.8864V140H92.8864V137ZM89.2864 137H92.2864V140H89.2864V137ZM85.6864 137H88.6864V140H85.6864V137ZM82.0864 122.6H85.0864V125.6H82.0864V122.6ZM82.0864 126.2H85.0864V129.2H82.0864V126.2ZM82.0864 129.8H85.0864V132.8H82.0864V129.8ZM82.0864 133.4H85.0864V136.4H82.0864V133.4ZM82.0864 137H85.0864V140H82.0864V137ZM118.078 115.4H121.078V118.4H118.078V115.4ZM118.078 119H121.078V122H118.078V119ZM103.678 115.4H106.678V118.4H103.678V115.4ZM103.678 119H106.678V122H103.678V119ZM118.078 122.6H121.078V125.6H118.078V122.6ZM118.078 126.2H121.078V129.2H118.078V126.2ZM118.078 129.8H121.078V132.8H118.078V129.8ZM118.078 133.4H121.078V136.4H118.078V133.4ZM114.478 137H117.478V140H114.478V137ZM110.878 137H113.878V140H110.878V137ZM107.278 137H110.278V140H107.278V137ZM103.678 122.6H106.678V125.6H103.678V122.6ZM103.678 126.2H106.678V129.2H103.678V126.2ZM103.678 129.8H106.678V132.8H103.678V129.8ZM103.678 133.4H106.678V136.4H103.678V133.4ZM139.67 115.4H142.67V118.4H139.67V115.4ZM136.07 115.4H139.07V118.4H136.07V115.4ZM132.47 115.4H135.47V118.4H132.47V115.4ZM128.87 115.4H131.87V118.4H128.87V115.4ZM125.27 115.4H128.27V118.4H125.27V115.4ZM125.27 119H128.27V122H125.27V119ZM139.67 137H142.67V140H139.67V137ZM136.07 126.2H139.07V129.2H136.07V126.2ZM136.07 137H139.07V140H136.07V137ZM132.47 126.2H135.47V129.2H132.47V126.2ZM132.47 137H135.47V140H132.47V137ZM128.87 126.2H131.87V129.2H128.87V126.2ZM128.87 137H131.87V140H128.87V137ZM125.27 122.6H128.27V125.6H125.27V122.6ZM125.27 126.2H128.27V129.2H125.27V126.2ZM125.27 129.8H128.27V132.8H125.27V129.8ZM125.27 133.4H128.27V136.4H125.27V133.4ZM125.27 137H128.27V140H125.27V137ZM161.262 119H164.262V122H161.262V119ZM157.662 115.4H160.662V118.4H157.662V115.4ZM154.062 115.4H157.062V118.4H154.062V115.4ZM150.462 115.4H153.462V118.4H150.462V115.4ZM146.862 119H149.862V122H146.862V119ZM161.262 129.8H164.262V132.8H161.262V129.8ZM161.262 133.4H164.262V136.4H161.262V133.4ZM157.662 129.8H160.662V132.8H157.662V129.8ZM157.662 137H160.662V140H157.662V137ZM154.062 137H157.062V140H154.062V137ZM150.462 137H153.462V140H150.462V137ZM146.862 122.6H149.862V125.6H146.862V122.6ZM146.862 126.2H149.862V129.2H146.862V126.2ZM146.862 129.8H149.862V132.8H146.862V129.8ZM146.862 133.4H149.862V136.4H146.862V133.4ZM182.854 119H185.854V122H182.854V119ZM179.254 115.4H182.254V118.4H179.254V115.4ZM175.654 115.4H178.654V118.4H175.654V115.4ZM172.054 115.4H175.054V118.4H172.054V115.4ZM168.454 119H171.454V122H168.454V119ZM182.854 122.6H185.854V125.6H182.854V122.6ZM182.854 126.2H185.854V129.2H182.854V126.2ZM182.854 129.8H185.854V132.8H182.854V129.8ZM182.854 133.4H185.854V136.4H182.854V133.4ZM179.254 137H182.254V140H179.254V137ZM175.654 137H178.654V140H175.654V137ZM172.054 137H175.054V140H172.054V137ZM168.454 122.6H171.454V125.6H168.454V122.6ZM168.454 126.2H171.454V129.2H168.454V126.2ZM168.454 129.8H171.454V132.8H168.454V129.8ZM168.454 133.4H171.454V136.4H168.454V133.4ZM217.757 119H220.757V122H217.757V119ZM214.157 115.4H217.157V118.4H214.157V115.4ZM210.557 115.4H213.557V118.4H210.557V115.4ZM206.957 115.4H209.957V118.4H206.957V115.4ZM203.357 115.4H206.357V118.4H203.357V115.4ZM203.357 119H206.357V122H203.357V119ZM217.757 122.6H220.757V125.6H217.757V122.6ZM214.157 126.2H217.157V129.2H214.157V126.2ZM210.557 126.2H213.557V129.2H210.557V126.2ZM206.957 126.2H209.957V129.2H206.957V126.2ZM203.357 122.6H206.357V125.6H203.357V122.6ZM203.357 126.2H206.357V129.2H203.357V126.2ZM203.357 129.8H206.357V132.8H203.357V129.8ZM203.357 133.4H206.357V136.4H203.357V133.4ZM203.357 137H206.357V140H203.357V137ZM239.349 119H242.349V122H239.349V119ZM235.749 115.4H238.749V118.4H235.749V115.4ZM232.149 115.4H235.149V118.4H232.149V115.4ZM228.549 115.4H231.549V118.4H228.549V115.4ZM224.949 115.4H227.949V118.4H224.949V115.4ZM224.949 119H227.949V122H224.949V119ZM239.349 122.6H242.349V125.6H239.349V122.6ZM239.349 137H242.349V140H239.349V137ZM235.749 126.2H238.749V129.2H235.749V126.2ZM235.749 133.4H238.749V136.4H235.749V133.4ZM232.149 126.2H235.149V129.2H232.149V126.2ZM232.149 129.8H235.149V132.8H232.149V129.8ZM228.549 126.2H231.549V129.2H228.549V126.2ZM224.949 122.6H227.949V125.6H224.949V122.6ZM224.949 126.2H227.949V129.2H224.949V126.2ZM224.949 129.8H227.949V132.8H224.949V129.8ZM224.949 133.4H227.949V136.4H224.949V133.4ZM224.949 137H227.949V140H224.949V137ZM260.941 115.4H263.941V118.4H260.941V115.4ZM257.341 115.4H260.341V118.4H257.341V115.4ZM253.741 115.4H256.741V118.4H253.741V115.4ZM250.141 115.4H253.141V118.4H250.141V115.4ZM246.541 115.4H249.541V118.4H246.541V115.4ZM246.541 119H249.541V122H246.541V119ZM260.941 137H263.941V140H260.941V137ZM257.341 126.2H260.341V129.2H257.341V126.2ZM257.341 137H260.341V140H257.341V137ZM253.741 126.2H256.741V129.2H253.741V126.2ZM253.741 137H256.741V140H253.741V137ZM250.141 126.2H253.141V129.2H250.141V126.2ZM250.141 137H253.141V140H250.141V137ZM246.541 122.6H249.541V125.6H246.541V122.6ZM246.541 126.2H249.541V129.2H246.541V126.2ZM246.541 129.8H249.541V132.8H246.541V129.8ZM246.541 133.4H249.541V136.4H246.541V133.4ZM246.541 137H249.541V140H246.541V137ZM282.532 119H285.532V122H282.532V119ZM278.932 115.4H281.932V118.4H278.932V115.4ZM275.332 115.4H278.332V118.4H275.332V115.4ZM271.732 115.4H274.732V118.4H271.732V115.4ZM268.132 119H271.132V122H268.132V119ZM282.532 129.8H285.532V132.8H282.532V129.8ZM282.532 133.4H285.532V136.4H282.532V133.4ZM278.932 126.2H281.932V129.2H278.932V126.2ZM278.932 137H281.932V140H278.932V137ZM275.332 126.2H278.332V129.2H275.332V126.2ZM275.332 137H278.332V140H275.332V137ZM271.732 126.2H274.732V129.2H271.732V126.2ZM271.732 137H274.732V140H271.732V137ZM268.132 122.6H271.132V125.6H268.132V122.6ZM268.132 133.4H271.132V136.4H268.132V133.4ZM296.924 115.4H299.924V118.4H296.924V115.4ZM293.324 115.4H296.324V118.4H293.324V115.4ZM293.324 119H296.324V122H293.324V119ZM289.724 115.4H292.724V118.4H289.724V115.4ZM296.924 137H299.924V140H296.924V137ZM293.324 122.6H296.324V125.6H293.324V122.6ZM293.324 126.2H296.324V129.2H293.324V126.2ZM293.324 129.8H296.324V132.8H293.324V129.8ZM293.324 133.4H296.324V136.4H293.324V133.4ZM293.324 137H296.324V140H293.324V137ZM289.724 137H292.724V140H289.724V137ZM318.538 119H321.538V122H318.538V119ZM314.938 115.4H317.938V118.4H314.938V115.4ZM311.338 115.4H314.338V118.4H311.338V115.4ZM307.738 115.4H310.738V118.4H307.738V115.4ZM304.138 119H307.138V122H304.138V119ZM318.538 122.6H321.538V125.6H318.538V122.6ZM318.538 126.2H321.538V129.2H318.538V126.2ZM318.538 129.8H321.538V132.8H318.538V129.8ZM318.538 133.4H321.538V136.4H318.538V133.4ZM314.938 137H317.938V140H314.938V137ZM311.338 137H314.338V140H311.338V137ZM307.738 137H310.738V140H307.738V137ZM304.138 122.6H307.138V125.6H304.138V122.6ZM304.138 126.2H307.138V129.2H304.138V126.2ZM304.138 129.8H307.138V132.8H304.138V129.8ZM304.138 133.4H307.138V136.4H304.138V133.4ZM340.13 115.4H343.13V118.4H340.13V115.4ZM340.13 119H343.13V122H340.13V119ZM325.73 115.4H328.73V118.4H325.73V115.4ZM325.73 119H328.73V122H325.73V119ZM340.13 122.6H343.13V125.6H340.13V122.6ZM340.13 126.2H343.13V129.2H340.13V126.2ZM340.13 129.8H343.13V132.8H340.13V129.8ZM340.13 133.4H343.13V136.4H340.13V133.4ZM340.13 137H343.13V140H340.13V137ZM336.53 129.8H339.53V132.8H336.53V129.8ZM332.93 126.2H335.93V129.2H332.93V126.2ZM329.33 122.6H332.33V125.6H329.33V122.6ZM325.73 122.6H328.73V125.6H325.73V122.6ZM325.73 126.2H328.73V129.2H325.73V126.2ZM325.73 129.8H328.73V132.8H325.73V129.8ZM325.73 133.4H328.73V136.4H325.73V133.4ZM325.73 137H328.73V140H325.73V137ZM361.722 115.4H364.722V118.4H361.722V115.4ZM358.122 115.4H361.122V118.4H358.122V115.4ZM354.522 115.4H357.522V118.4H354.522V115.4ZM350.922 115.4H353.922V118.4H350.922V115.4ZM347.322 115.4H350.322V118.4H347.322V115.4ZM347.322 119H350.322V122H347.322V119ZM361.722 137H364.722V140H361.722V137ZM358.122 126.2H361.122V129.2H358.122V126.2ZM358.122 137H361.122V140H358.122V137ZM354.522 126.2H357.522V129.2H354.522V126.2ZM354.522 137H357.522V140H354.522V137ZM350.922 126.2H353.922V129.2H350.922V126.2ZM350.922 137H353.922V140H350.922V137ZM347.322 122.6H350.322V125.6H347.322V122.6ZM347.322 126.2H350.322V129.2H347.322V126.2ZM347.322 129.8H350.322V132.8H347.322V129.8ZM347.322 133.4H350.322V136.4H347.322V133.4ZM347.322 137H350.322V140H347.322V137ZM97.7574 148.4H100.757V151.4H97.7574V148.4ZM97.7574 152H100.757V155H97.7574V152ZM83.3574 148.4H86.3574V151.4H83.3574V148.4ZM83.3574 152H86.3574V155H83.3574V152ZM97.7574 155.6H100.757V158.6H97.7574V155.6ZM97.7574 159.2H100.757V162.2H97.7574V159.2ZM97.7574 162.8H100.757V165.8H97.7574V162.8ZM97.7574 166.4H100.757V169.4H97.7574V166.4ZM94.1574 170H97.1574V173H94.1574V170ZM90.5574 170H93.5574V173H90.5574V170ZM86.9574 170H89.9574V173H86.9574V170ZM83.3574 155.6H86.3574V158.6H83.3574V155.6ZM83.3574 159.2H86.3574V162.2H83.3574V159.2ZM83.3574 162.8H86.3574V165.8H83.3574V162.8ZM83.3574 166.4H86.3574V169.4H83.3574V166.4ZM119.349 148.4H122.349V151.4H119.349V148.4ZM119.349 152H122.349V155H119.349V152ZM104.949 148.4H107.949V151.4H104.949V148.4ZM104.949 152H107.949V155H104.949V152ZM119.349 155.6H122.349V158.6H119.349V155.6ZM119.349 159.2H122.349V162.2H119.349V159.2ZM119.349 162.8H122.349V165.8H119.349V162.8ZM119.349 166.4H122.349V169.4H119.349V166.4ZM119.349 170H122.349V173H119.349V170ZM115.749 162.8H118.749V165.8H115.749V162.8ZM112.149 159.2H115.149V162.2H112.149V159.2ZM108.549 155.6H111.549V158.6H108.549V155.6ZM104.949 155.6H107.949V158.6H104.949V155.6ZM104.949 159.2H107.949V162.2H104.949V159.2ZM104.949 162.8H107.949V165.8H104.949V162.8ZM104.949 166.4H107.949V169.4H104.949V166.4ZM104.949 170H107.949V173H104.949V170ZM140.941 152H143.941V155H140.941V152ZM137.341 148.4H140.341V151.4H137.341V148.4ZM133.741 148.4H136.741V151.4H133.741V148.4ZM130.141 148.4H133.141V151.4H130.141V148.4ZM126.541 152H129.541V155H126.541V152ZM140.941 155.6H143.941V158.6H140.941V155.6ZM140.941 159.2H143.941V162.2H140.941V159.2ZM140.941 162.8H143.941V165.8H140.941V162.8ZM140.941 166.4H143.941V169.4H140.941V166.4ZM140.941 170H143.941V173H140.941V170ZM137.341 159.2H140.341V162.2H137.341V159.2ZM133.741 159.2H136.741V162.2H133.741V159.2ZM130.141 159.2H133.141V162.2H130.141V159.2ZM126.541 155.6H129.541V158.6H126.541V155.6ZM126.541 159.2H129.541V162.2H126.541V159.2ZM126.541 162.8H129.541V165.8H126.541V162.8ZM126.541 166.4H129.541V169.4H126.541V166.4ZM126.541 170H129.541V173H126.541V170ZM175.125 148.4H178.125V151.4H175.125V148.4ZM171.525 148.4H174.525V151.4H171.525V148.4ZM167.925 148.4H170.925V151.4H167.925V148.4ZM167.925 152H170.925V155H167.925V152ZM164.325 148.4H167.325V151.4H164.325V148.4ZM160.725 148.4H163.725V151.4H160.725V148.4ZM167.925 155.6H170.925V158.6H167.925V155.6ZM167.925 159.2H170.925V162.2H167.925V159.2ZM167.925 162.8H170.925V165.8H167.925V162.8ZM167.925 166.4H170.925V169.4H167.925V166.4ZM167.925 170H170.925V173H167.925V170ZM196.716 148.4H199.716V151.4H196.716V148.4ZM193.116 148.4H196.116V151.4H193.116V148.4ZM189.516 148.4H192.516V151.4H189.516V148.4ZM185.916 148.4H188.916V151.4H185.916V148.4ZM182.316 148.4H185.316V151.4H182.316V148.4ZM182.316 152H185.316V155H182.316V152ZM196.716 170H199.716V173H196.716V170ZM193.116 159.2H196.116V162.2H193.116V159.2ZM193.116 170H196.116V173H193.116V170ZM189.516 159.2H192.516V162.2H189.516V159.2ZM189.516 170H192.516V173H189.516V170ZM185.916 159.2H188.916V162.2H185.916V159.2ZM185.916 170H188.916V173H185.916V170ZM182.316 155.6H185.316V158.6H182.316V155.6ZM182.316 159.2H185.316V162.2H182.316V159.2ZM182.316 162.8H185.316V165.8H182.316V162.8ZM182.316 166.4H185.316V169.4H182.316V166.4ZM182.316 170H185.316V173H182.316V170ZM218.308 152H221.308V155H218.308V152ZM214.708 148.4H217.708V151.4H214.708V148.4ZM211.108 148.4H214.108V151.4H211.108V148.4ZM207.508 148.4H210.508V151.4H207.508V148.4ZM203.908 152H206.908V155H203.908V152ZM218.308 166.4H221.308V169.4H218.308V166.4ZM214.708 170H217.708V173H214.708V170ZM211.108 170H214.108V173H211.108V170ZM207.508 170H210.508V173H207.508V170ZM203.908 155.6H206.908V158.6H203.908V155.6ZM203.908 159.2H206.908V162.2H203.908V159.2ZM203.908 162.8H206.908V165.8H203.908V162.8ZM203.908 166.4H206.908V169.4H203.908V166.4ZM225.5 148.4H228.5V151.4H225.5V148.4ZM225.5 152H228.5V155H225.5V152ZM239.9 170H242.9V173H239.9V170ZM236.3 170H239.3V173H236.3V170ZM232.7 170H235.7V173H232.7V170ZM229.1 170H232.1V173H229.1V170ZM225.5 155.6H228.5V158.6H225.5V155.6ZM225.5 159.2H228.5V162.2H225.5V159.2ZM225.5 162.8H228.5V165.8H225.5V162.8ZM225.5 166.4H228.5V169.4H225.5V166.4ZM225.5 170H228.5V173H225.5V170ZM261.492 152H264.492V155H261.492V152ZM257.892 148.4H260.892V151.4H257.892V148.4ZM254.292 148.4H257.292V151.4H254.292V148.4ZM250.692 148.4H253.692V151.4H250.692V148.4ZM247.092 152H250.092V155H247.092V152ZM261.492 155.6H264.492V158.6H261.492V155.6ZM261.492 159.2H264.492V162.2H261.492V159.2ZM261.492 162.8H264.492V165.8H261.492V162.8ZM261.492 166.4H264.492V169.4H261.492V166.4ZM261.492 170H264.492V173H261.492V170ZM257.892 159.2H260.892V162.2H257.892V159.2ZM254.292 159.2H257.292V162.2H254.292V159.2ZM250.692 159.2H253.692V162.2H250.692V159.2ZM247.092 155.6H250.092V158.6H247.092V155.6ZM247.092 159.2H250.092V162.2H247.092V159.2ZM247.092 162.8H250.092V165.8H247.092V162.8ZM247.092 166.4H250.092V169.4H247.092V166.4ZM247.092 170H250.092V173H247.092V170ZM295.675 152H298.675V155H295.675V152ZM292.075 148.4H295.075V151.4H292.075V148.4ZM288.475 148.4H291.475V151.4H288.475V148.4ZM284.875 148.4H287.875V151.4H284.875V148.4ZM281.275 148.4H284.275V151.4H281.275V148.4ZM281.275 152H284.275V155H281.275V152ZM295.675 155.6H298.675V158.6H295.675V155.6ZM292.075 159.2H295.075V162.2H292.075V159.2ZM288.475 159.2H291.475V162.2H288.475V159.2ZM284.875 159.2H287.875V162.2H284.875V159.2ZM281.275 155.6H284.275V158.6H281.275V155.6ZM281.275 159.2H284.275V162.2H281.275V159.2ZM281.275 162.8H284.275V165.8H281.275V162.8ZM281.275 166.4H284.275V169.4H281.275V166.4ZM281.275 170H284.275V173H281.275V170ZM317.267 152H320.267V155H317.267V152ZM313.667 148.4H316.667V151.4H313.667V148.4ZM310.067 148.4H313.067V151.4H310.067V148.4ZM306.467 148.4H309.467V151.4H306.467V148.4ZM302.867 152H305.867V155H302.867V152ZM317.267 155.6H320.267V158.6H317.267V155.6ZM317.267 159.2H320.267V162.2H317.267V159.2ZM317.267 162.8H320.267V165.8H317.267V162.8ZM317.267 166.4H320.267V169.4H317.267V166.4ZM317.267 170H320.267V173H317.267V170ZM313.667 159.2H316.667V162.2H313.667V159.2ZM310.067 159.2H313.067V162.2H310.067V159.2ZM306.467 159.2H309.467V162.2H306.467V159.2ZM302.867 155.6H305.867V158.6H302.867V155.6ZM302.867 159.2H305.867V162.2H302.867V159.2ZM302.867 162.8H305.867V165.8H302.867V162.8ZM302.867 166.4H305.867V169.4H302.867V166.4ZM302.867 170H305.867V173H302.867V170ZM338.859 152H341.859V155H338.859V152ZM335.259 148.4H338.259V151.4H335.259V148.4ZM331.659 148.4H334.659V151.4H331.659V148.4ZM328.059 148.4H331.059V151.4H328.059V148.4ZM324.459 148.4H327.459V151.4H324.459V148.4ZM324.459 152H327.459V155H324.459V152ZM338.859 155.6H341.859V158.6H338.859V155.6ZM338.859 170H341.859V173H338.859V170ZM335.259 159.2H338.259V162.2H335.259V159.2ZM335.259 166.4H338.259V169.4H335.259V166.4ZM331.659 159.2H334.659V162.2H331.659V159.2ZM331.659 162.8H334.659V165.8H331.659V162.8ZM328.059 159.2H331.059V162.2H328.059V159.2ZM324.459 155.6H327.459V158.6H324.459V155.6ZM324.459 159.2H327.459V162.2H324.459V159.2ZM324.459 162.8H327.459V165.8H324.459V162.8ZM324.459 166.4H327.459V169.4H324.459V166.4ZM324.459 170H327.459V173H324.459V170ZM360.451 152H363.451V155H360.451V152ZM356.851 148.4H359.851V151.4H356.851V148.4ZM353.251 148.4H356.251V151.4H353.251V148.4ZM349.651 148.4H352.651V151.4H349.651V148.4ZM346.051 152H349.051V155H346.051V152ZM360.451 155.6H363.451V158.6H360.451V155.6ZM360.451 159.2H363.451V162.2H360.451V159.2ZM360.451 162.8H363.451V165.8H360.451V162.8ZM360.451 166.4H363.451V169.4H360.451V166.4ZM360.451 170H363.451V173H360.451V170ZM356.851 159.2H359.851V162.2H356.851V159.2ZM353.251 159.2H356.251V162.2H353.251V159.2ZM349.651 159.2H352.651V162.2H349.651V159.2ZM346.051 155.6H349.051V158.6H346.051V155.6ZM346.051 159.2H349.051V162.2H346.051V159.2ZM346.051 162.8H349.051V165.8H346.051V162.8ZM346.051 166.4H349.051V169.4H346.051V166.4ZM346.051 170H349.051V173H346.051V170ZM100.413 181.4H103.413V184.4H100.413V181.4ZM96.8129 181.4H99.8129V184.4H96.8129V181.4ZM96.8129 185H99.8129V188H96.8129V185ZM93.2129 181.4H96.2129V184.4H93.2129V181.4ZM100.413 203H103.413V206H100.413V203ZM96.8129 188.6H99.8129V191.6H96.8129V188.6ZM96.8129 192.2H99.8129V195.2H96.8129V192.2ZM96.8129 195.8H99.8129V198.8H96.8129V195.8ZM96.8129 199.4H99.8129V202.4H96.8129V199.4ZM96.8129 203H99.8129V206H96.8129V203ZM93.2129 203H96.2129V206H93.2129V203ZM122.027 181.4H125.027V184.4H122.027V181.4ZM122.027 185H125.027V188H122.027V185ZM118.427 185H121.427V188H118.427V185ZM111.227 185H114.227V188H111.227V185ZM107.627 181.4H110.627V184.4H107.627V181.4ZM107.627 185H110.627V188H107.627V185ZM122.027 188.6H125.027V191.6H122.027V188.6ZM122.027 192.2H125.027V195.2H122.027V192.2ZM122.027 195.8H125.027V198.8H122.027V195.8ZM122.027 199.4H125.027V202.4H122.027V199.4ZM122.027 203H125.027V206H122.027V203ZM114.827 188.6H117.827V191.6H114.827V188.6ZM114.827 192.2H117.827V195.2H114.827V192.2ZM107.627 188.6H110.627V191.6H107.627V188.6ZM107.627 192.2H110.627V195.2H107.627V192.2ZM107.627 195.8H110.627V198.8H107.627V195.8ZM107.627 199.4H110.627V202.4H107.627V199.4ZM107.627 203H110.627V206H107.627V203ZM143.619 185H146.619V188H143.619V185ZM140.019 181.4H143.019V184.4H140.019V181.4ZM136.419 181.4H139.419V184.4H136.419V181.4ZM132.819 181.4H135.819V184.4H132.819V181.4ZM129.219 181.4H132.219V184.4H129.219V181.4ZM129.219 185H132.219V188H129.219V185ZM143.619 188.6H146.619V191.6H143.619V188.6ZM140.019 192.2H143.019V195.2H140.019V192.2ZM136.419 192.2H139.419V195.2H136.419V192.2ZM132.819 192.2H135.819V195.2H132.819V192.2ZM129.219 188.6H132.219V191.6H129.219V188.6ZM129.219 192.2H132.219V195.2H129.219V192.2ZM129.219 195.8H132.219V198.8H129.219V195.8ZM129.219 199.4H132.219V202.4H129.219V199.4ZM129.219 203H132.219V206H129.219V203ZM165.211 185H168.211V188H165.211V185ZM161.611 181.4H164.611V184.4H161.611V181.4ZM158.011 181.4H161.011V184.4H158.011V181.4ZM154.411 181.4H157.411V184.4H154.411V181.4ZM150.811 181.4H153.811V184.4H150.811V181.4ZM150.811 185H153.811V188H150.811V185ZM165.211 188.6H168.211V191.6H165.211V188.6ZM165.211 203H168.211V206H165.211V203ZM161.611 192.2H164.611V195.2H161.611V192.2ZM161.611 199.4H164.611V202.4H161.611V199.4ZM158.011 192.2H161.011V195.2H158.011V192.2ZM158.011 195.8H161.011V198.8H158.011V195.8ZM154.411 192.2H157.411V195.2H154.411V192.2ZM150.811 188.6H153.811V191.6H150.811V188.6ZM150.811 192.2H153.811V195.2H150.811V192.2ZM150.811 195.8H153.811V198.8H150.811V195.8ZM150.811 199.4H153.811V202.4H150.811V199.4ZM150.811 203H153.811V206H150.811V203ZM179.602 181.4H182.602V184.4H179.602V181.4ZM176.002 181.4H179.002V184.4H176.002V181.4ZM176.002 185H179.002V188H176.002V185ZM172.402 181.4H175.402V184.4H172.402V181.4ZM179.602 203H182.602V206H179.602V203ZM176.002 188.6H179.002V191.6H176.002V188.6ZM176.002 192.2H179.002V195.2H176.002V192.2ZM176.002 195.8H179.002V198.8H176.002V195.8ZM176.002 199.4H179.002V202.4H176.002V199.4ZM176.002 203H179.002V206H176.002V203ZM172.402 203H175.402V206H172.402V203ZM201.216 181.4H204.216V184.4H201.216V181.4ZM201.216 185H204.216V188H201.216V185ZM197.616 185H200.616V188H197.616V185ZM190.416 185H193.416V188H190.416V185ZM186.816 181.4H189.816V184.4H186.816V181.4ZM186.816 185H189.816V188H186.816V185ZM201.216 188.6H204.216V191.6H201.216V188.6ZM201.216 192.2H204.216V195.2H201.216V192.2ZM201.216 195.8H204.216V198.8H201.216V195.8ZM201.216 199.4H204.216V202.4H201.216V199.4ZM201.216 203H204.216V206H201.216V203ZM194.016 188.6H197.016V191.6H194.016V188.6ZM194.016 192.2H197.016V195.2H194.016V192.2ZM186.816 188.6H189.816V191.6H186.816V188.6ZM186.816 192.2H189.816V195.2H186.816V192.2ZM186.816 195.8H189.816V198.8H186.816V195.8ZM186.816 199.4H189.816V202.4H186.816V199.4ZM186.816 203H189.816V206H186.816V203ZM215.608 181.4H218.608V184.4H215.608V181.4ZM212.008 181.4H215.008V184.4H212.008V181.4ZM212.008 185H215.008V188H212.008V185ZM208.408 181.4H211.408V184.4H208.408V181.4ZM215.608 203H218.608V206H215.608V203ZM212.008 188.6H215.008V191.6H212.008V188.6ZM212.008 192.2H215.008V195.2H212.008V192.2ZM212.008 195.8H215.008V198.8H212.008V195.8ZM212.008 199.4H215.008V202.4H212.008V199.4ZM212.008 203H215.008V206H212.008V203ZM208.408 203H211.408V206H208.408V203ZM237.222 185H240.222V188H237.222V185ZM233.622 181.4H236.622V184.4H233.622V181.4ZM230.022 181.4H233.022V184.4H230.022V181.4ZM226.422 181.4H229.422V184.4H226.422V181.4ZM222.822 181.4H225.822V184.4H222.822V181.4ZM222.822 185H225.822V188H222.822V185ZM237.222 188.6H240.222V191.6H237.222V188.6ZM237.222 203H240.222V206H237.222V203ZM233.622 192.2H236.622V195.2H233.622V192.2ZM233.622 199.4H236.622V202.4H233.622V199.4ZM230.022 192.2H233.022V195.2H230.022V192.2ZM230.022 195.8H233.022V198.8H230.022V195.8ZM226.422 192.2H229.422V195.2H226.422V192.2ZM222.822 188.6H225.822V191.6H222.822V188.6ZM222.822 192.2H225.822V195.2H222.822V192.2ZM222.822 195.8H225.822V198.8H222.822V195.8ZM222.822 199.4H225.822V202.4H222.822V199.4ZM222.822 203H225.822V206H222.822V203ZM271.406 185H274.406V188H271.406V185ZM267.806 181.4H270.806V184.4H267.806V181.4ZM264.206 181.4H267.206V184.4H264.206V181.4ZM260.606 181.4H263.606V184.4H260.606V181.4ZM257.006 185H260.006V188H257.006V185ZM271.406 199.4H274.406V202.4H271.406V199.4ZM267.806 203H270.806V206H267.806V203ZM264.206 203H267.206V206H264.206V203ZM260.606 203H263.606V206H260.606V203ZM257.006 188.6H260.006V191.6H257.006V188.6ZM257.006 192.2H260.006V195.2H257.006V192.2ZM257.006 195.8H260.006V198.8H257.006V195.8ZM257.006 199.4H260.006V202.4H257.006V199.4ZM292.998 185H295.998V188H292.998V185ZM289.398 181.4H292.398V184.4H289.398V181.4ZM285.798 181.4H288.798V184.4H285.798V181.4ZM282.198 181.4H285.198V184.4H282.198V181.4ZM278.598 185H281.598V188H278.598V185ZM292.998 188.6H295.998V191.6H292.998V188.6ZM292.998 192.2H295.998V195.2H292.998V192.2ZM292.998 195.8H295.998V198.8H292.998V195.8ZM292.998 199.4H295.998V202.4H292.998V199.4ZM289.398 203H292.398V206H289.398V203ZM285.798 203H288.798V206H285.798V203ZM282.198 203H285.198V206H282.198V203ZM278.598 188.6H281.598V191.6H278.598V188.6ZM278.598 192.2H281.598V195.2H278.598V192.2ZM278.598 195.8H281.598V198.8H278.598V195.8ZM278.598 199.4H281.598V202.4H278.598V199.4ZM314.589 185H317.589V188H314.589V185ZM310.989 181.4H313.989V184.4H310.989V181.4ZM307.389 181.4H310.389V184.4H307.389V181.4ZM303.789 181.4H306.789V184.4H303.789V181.4ZM300.189 181.4H303.189V184.4H300.189V181.4ZM300.189 185H303.189V188H300.189V185ZM314.589 188.6H317.589V191.6H314.589V188.6ZM310.989 192.2H313.989V195.2H310.989V192.2ZM307.389 192.2H310.389V195.2H307.389V192.2ZM303.789 192.2H306.789V195.2H303.789V192.2ZM300.189 188.6H303.189V191.6H300.189V188.6ZM300.189 192.2H303.189V195.2H300.189V192.2ZM300.189 195.8H303.189V198.8H300.189V195.8ZM300.189 199.4H303.189V202.4H300.189V199.4ZM300.189 203H303.189V206H300.189V203ZM328.981 181.4H331.981V184.4H328.981V181.4ZM325.381 181.4H328.381V184.4H325.381V181.4ZM325.381 185H328.381V188H325.381V185ZM321.781 181.4H324.781V184.4H321.781V181.4ZM328.981 203H331.981V206H328.981V203ZM325.381 188.6H328.381V191.6H325.381V188.6ZM325.381 192.2H328.381V195.2H325.381V192.2ZM325.381 195.8H328.381V198.8H325.381V195.8ZM325.381 199.4H328.381V202.4H325.381V199.4ZM325.381 203H328.381V206H325.381V203ZM321.781 203H324.781V206H321.781V203ZM350.595 185H353.595V188H350.595V185ZM346.995 181.4H349.995V184.4H346.995V181.4ZM343.395 181.4H346.395V184.4H343.395V181.4ZM339.795 181.4H342.795V184.4H339.795V181.4ZM336.195 185H339.195V188H336.195V185ZM350.595 188.6H353.595V191.6H350.595V188.6ZM350.595 192.2H353.595V195.2H350.595V192.2ZM350.595 195.8H353.595V198.8H350.595V195.8ZM350.595 199.4H353.595V202.4H350.595V199.4ZM350.595 203H353.595V206H350.595V203ZM346.995 192.2H349.995V195.2H346.995V192.2ZM343.395 192.2H346.395V195.2H343.395V192.2ZM339.795 192.2H342.795V195.2H339.795V192.2ZM336.195 188.6H339.195V191.6H336.195V188.6ZM336.195 192.2H339.195V195.2H336.195V192.2ZM336.195 195.8H339.195V198.8H336.195V195.8ZM336.195 199.4H339.195V202.4H336.195V199.4ZM336.195 203H339.195V206H336.195V203Z" fill="#5B65C2"/>
<rect x="1.5" y="1.5" width="449" height="277" stroke="#5B65C2" stroke-width="3"/>
</svg>
