<svg width="452" height="280" viewBox="0 0 452 280" fill="none" xmlns="http://www.w3.org/2000/svg">
<g clip-path="url(#clip0)">
<rect width="452" height="280" fill="white"/>
<rect width="452" height="47" fill="#5B65C2"/>
<rect y="233" width="452" height="47" fill="#5B65C2"/>
<path d="M56.0445 15H59.0445V18H56.0445V15ZM52.4445 11.4H55.4445V14.4H52.4445V11.4ZM48.8445 11.4H51.8445V14.4H48.8445V11.4ZM45.2445 11.4H48.2445V14.4H45.2445V11.4ZM41.6445 15H44.6445V18H41.6445V15ZM56.0445 29.4H59.0445V32.4H56.0445V29.4ZM52.4445 33H55.4445V36H52.4445V33ZM48.8445 33H51.8445V36H48.8445V33ZM45.2445 33H48.2445V36H45.2445V33ZM41.6445 18.6H44.6445V21.6H41.6445V18.6ZM41.6445 22.2H44.6445V25.2H41.6445V22.2ZM41.6445 25.8H44.6445V28.8H41.6445V25.8ZM41.6445 29.4H44.6445V32.4H41.6445V29.4ZM77.6363 11.4H80.6363V14.4H77.6363V11.4ZM77.6363 15H80.6363V18H77.6363V15ZM63.2363 11.4H66.2363V14.4H63.2363V11.4ZM63.2363 15H66.2363V18H63.2363V15ZM77.6363 18.6H80.6363V21.6H77.6363V18.6ZM77.6363 22.2H80.6363V25.2H77.6363V22.2ZM77.6363 25.8H80.6363V28.8H77.6363V25.8ZM77.6363 29.4H80.6363V32.4H77.6363V29.4ZM74.0363 33H77.0363V36H74.0363V33ZM70.4363 33H73.4363V36H70.4363V33ZM66.8363 33H69.8363V36H66.8363V33ZM63.2363 18.6H66.2363V21.6H63.2363V18.6ZM63.2363 22.2H66.2363V25.2H63.2363V22.2ZM63.2363 25.8H66.2363V28.8H63.2363V25.8ZM63.2363 29.4H66.2363V32.4H63.2363V29.4ZM99.2281 11.4H102.228V14.4H99.2281V11.4ZM95.6281 11.4H98.6281V14.4H95.6281V11.4ZM92.0281 11.4H95.0281V14.4H92.0281V11.4ZM88.4281 11.4H91.4281V14.4H88.4281V11.4ZM84.8281 11.4H87.8281V14.4H84.8281V11.4ZM84.8281 15H87.8281V18H84.8281V15ZM99.2281 33H102.228V36H99.2281V33ZM95.6281 22.2H98.6281V25.2H95.6281V22.2ZM95.6281 33H98.6281V36H95.6281V33ZM92.0281 22.2H95.0281V25.2H92.0281V22.2ZM92.0281 33H95.0281V36H92.0281V33ZM88.4281 22.2H91.4281V25.2H88.4281V22.2ZM88.4281 33H91.4281V36H88.4281V33ZM84.8281 18.6H87.8281V21.6H84.8281V18.6ZM84.8281 22.2H87.8281V25.2H84.8281V22.2ZM84.8281 25.8H87.8281V28.8H84.8281V25.8ZM84.8281 29.4H87.8281V32.4H84.8281V29.4ZM84.8281 33H87.8281V36H84.8281V33ZM120.82 11.4H123.82V14.4H120.82V11.4ZM120.82 15H123.82V18H120.82V15ZM106.42 11.4H109.42V14.4H106.42V11.4ZM106.42 15H109.42V18H106.42V15ZM120.82 18.6H123.82V21.6H120.82V18.6ZM120.82 22.2H123.82V25.2H120.82V22.2ZM120.82 25.8H123.82V28.8H120.82V25.8ZM120.82 29.4H123.82V32.4H120.82V29.4ZM120.82 33H123.82V36H120.82V33ZM117.22 25.8H120.22V28.8H117.22V25.8ZM113.62 22.2H116.62V25.2H113.62V22.2ZM110.02 18.6H113.02V21.6H110.02V18.6ZM106.42 18.6H109.42V21.6H106.42V18.6ZM106.42 22.2H109.42V25.2H106.42V22.2ZM106.42 25.8H109.42V28.8H106.42V25.8ZM106.42 29.4H109.42V32.4H106.42V29.4ZM106.42 33H109.42V36H106.42V33ZM142.412 11.4H145.412V14.4H142.412V11.4ZM138.812 11.4H141.812V14.4H138.812V11.4ZM135.212 11.4H138.212V14.4H135.212V11.4ZM135.212 15H138.212V18H135.212V15ZM131.612 11.4H134.612V14.4H131.612V11.4ZM128.012 11.4H131.012V14.4H128.012V11.4ZM135.212 18.6H138.212V21.6H135.212V18.6ZM135.212 22.2H138.212V25.2H135.212V22.2ZM135.212 25.8H138.212V28.8H135.212V25.8ZM135.212 29.4H138.212V32.4H135.212V29.4ZM135.212 33H138.212V36H135.212V33ZM164.004 15H167.004V18H164.004V15ZM160.404 11.4H163.404V14.4H160.404V11.4ZM156.804 11.4H159.804V14.4H156.804V11.4ZM153.204 11.4H156.204V14.4H153.204V11.4ZM149.604 15H152.604V18H149.604V15ZM164.004 18.6H167.004V21.6H164.004V18.6ZM164.004 22.2H167.004V25.2H164.004V22.2ZM164.004 25.8H167.004V28.8H164.004V25.8ZM164.004 29.4H167.004V32.4H164.004V29.4ZM164.004 33H167.004V36H164.004V33ZM160.404 22.2H163.404V25.2H160.404V22.2ZM156.804 22.2H159.804V25.2H156.804V22.2ZM153.204 22.2H156.204V25.2H153.204V22.2ZM149.604 18.6H152.604V21.6H149.604V18.6ZM149.604 22.2H152.604V25.2H149.604V22.2ZM149.604 25.8H152.604V28.8H149.604V25.8ZM149.604 29.4H152.604V32.4H149.604V29.4ZM149.604 33H152.604V36H149.604V33ZM198.187 15H201.187V18H198.187V15ZM194.587 11.4H197.587V14.4H194.587V11.4ZM190.987 11.4H193.987V14.4H190.987V11.4ZM187.387 11.4H190.387V14.4H187.387V11.4ZM183.787 11.4H186.787V14.4H183.787V11.4ZM183.787 15H186.787V18H183.787V15ZM198.187 18.6H201.187V21.6H198.187V18.6ZM198.187 22.2H201.187V25.2H198.187V22.2ZM198.187 25.8H201.187V28.8H198.187V25.8ZM198.187 29.4H201.187V32.4H198.187V29.4ZM194.587 33H197.587V36H194.587V33ZM190.987 33H193.987V36H190.987V33ZM187.387 33H190.387V36H187.387V33ZM183.787 18.6H186.787V21.6H183.787V18.6ZM183.787 22.2H186.787V25.2H183.787V22.2ZM183.787 25.8H186.787V28.8H183.787V25.8ZM183.787 29.4H186.787V32.4H183.787V29.4ZM183.787 33H186.787V36H183.787V33ZM212.579 11.4H215.579V14.4H212.579V11.4ZM208.979 11.4H211.979V14.4H208.979V11.4ZM208.979 15H211.979V18H208.979V15ZM205.379 11.4H208.379V14.4H205.379V11.4ZM212.579 33H215.579V36H212.579V33ZM208.979 18.6H211.979V21.6H208.979V18.6ZM208.979 22.2H211.979V25.2H208.979V22.2ZM208.979 25.8H211.979V28.8H208.979V25.8ZM208.979 29.4H211.979V32.4H208.979V29.4ZM208.979 33H211.979V36H208.979V33ZM205.379 33H208.379V36H205.379V33ZM234.193 11.4H237.193V14.4H234.193V11.4ZM234.193 15H237.193V18H234.193V15ZM219.793 11.4H222.793V14.4H219.793V11.4ZM219.793 15H222.793V18H219.793V15ZM234.193 18.6H237.193V21.6H234.193V18.6ZM234.193 22.2H237.193V25.2H234.193V22.2ZM234.193 25.8H237.193V28.8H234.193V25.8ZM230.593 29.4H233.593V32.4H230.593V29.4ZM226.993 33H229.993V36H226.993V33ZM223.393 29.4H226.393V32.4H223.393V29.4ZM219.793 18.6H222.793V21.6H219.793V18.6ZM219.793 22.2H222.793V25.2H219.793V22.2ZM219.793 25.8H222.793V28.8H219.793V25.8ZM248.585 11.4H251.585V14.4H248.585V11.4ZM244.985 11.4H247.985V14.4H244.985V11.4ZM244.985 15H247.985V18H244.985V15ZM241.385 11.4H244.385V14.4H241.385V11.4ZM248.585 33H251.585V36H248.585V33ZM244.985 18.6H247.985V21.6H244.985V18.6ZM244.985 22.2H247.985V25.2H244.985V22.2ZM244.985 25.8H247.985V28.8H244.985V25.8ZM244.985 29.4H247.985V32.4H244.985V29.4ZM244.985 33H247.985V36H244.985V33ZM241.385 33H244.385V36H241.385V33ZM270.199 15H273.199V18H270.199V15ZM266.599 11.4H269.599V14.4H266.599V11.4ZM262.999 11.4H265.999V14.4H262.999V11.4ZM259.399 11.4H262.399V14.4H259.399V11.4ZM255.799 11.4H258.799V14.4H255.799V11.4ZM255.799 15H258.799V18H255.799V15ZM270.199 18.6H273.199V21.6H270.199V18.6ZM270.199 22.2H273.199V25.2H270.199V22.2ZM270.199 25.8H273.199V28.8H270.199V25.8ZM270.199 29.4H273.199V32.4H270.199V29.4ZM266.599 33H269.599V36H266.599V33ZM262.999 33H265.999V36H262.999V33ZM259.399 33H262.399V36H259.399V33ZM255.799 18.6H258.799V21.6H255.799V18.6ZM255.799 22.2H258.799V25.2H255.799V22.2ZM255.799 25.8H258.799V28.8H255.799V25.8ZM255.799 29.4H258.799V32.4H255.799V29.4ZM255.799 33H258.799V36H255.799V33ZM284.591 11.4H287.591V14.4H284.591V11.4ZM280.991 11.4H283.991V14.4H280.991V11.4ZM280.991 15H283.991V18H280.991V15ZM277.391 11.4H280.391V14.4H277.391V11.4ZM284.591 33H287.591V36H284.591V33ZM280.991 18.6H283.991V21.6H280.991V18.6ZM280.991 22.2H283.991V25.2H280.991V22.2ZM280.991 25.8H283.991V28.8H280.991V25.8ZM280.991 29.4H283.991V32.4H280.991V29.4ZM280.991 33H283.991V36H280.991V33ZM277.391 33H280.391V36H277.391V33ZM306.205 15H309.205V18H306.205V15ZM302.605 11.4H305.605V14.4H302.605V11.4ZM299.005 11.4H302.005V14.4H299.005V11.4ZM295.405 11.4H298.405V14.4H295.405V11.4ZM291.805 11.4H294.805V14.4H291.805V11.4ZM291.805 15H294.805V18H291.805V15ZM306.205 18.6H309.205V21.6H306.205V18.6ZM306.205 22.2H309.205V25.2H306.205V22.2ZM306.205 25.8H309.205V28.8H306.205V25.8ZM306.205 29.4H309.205V32.4H306.205V29.4ZM302.605 33H305.605V36H302.605V33ZM299.005 33H302.005V36H299.005V33ZM295.405 33H298.405V36H295.405V33ZM291.805 18.6H294.805V21.6H291.805V18.6ZM291.805 22.2H294.805V25.2H291.805V22.2ZM291.805 25.8H294.805V28.8H291.805V25.8ZM291.805 29.4H294.805V32.4H291.805V29.4ZM291.805 33H294.805V36H291.805V33ZM327.796 15H330.796V18H327.796V15ZM324.196 11.4H327.196V14.4H324.196V11.4ZM320.596 11.4H323.596V14.4H320.596V11.4ZM316.996 11.4H319.996V14.4H316.996V11.4ZM313.396 15H316.396V18H313.396V15ZM327.796 18.6H330.796V21.6H327.796V18.6ZM327.796 22.2H330.796V25.2H327.796V22.2ZM327.796 25.8H330.796V28.8H327.796V25.8ZM327.796 29.4H330.796V32.4H327.796V29.4ZM327.796 33H330.796V36H327.796V33ZM324.196 22.2H327.196V25.2H324.196V22.2ZM320.596 22.2H323.596V25.2H320.596V22.2ZM316.996 22.2H319.996V25.2H316.996V22.2ZM313.396 18.6H316.396V21.6H313.396V18.6ZM313.396 22.2H316.396V25.2H313.396V22.2ZM313.396 25.8H316.396V28.8H313.396V25.8ZM313.396 29.4H316.396V32.4H313.396V29.4ZM313.396 33H316.396V36H313.396V33ZM354.78 11.4H357.78V14.4H354.78V11.4ZM354.78 15H357.78V18H354.78V15ZM351.18 15H354.18V18H351.18V15ZM361.98 33H364.98V36H361.98V33ZM358.38 33H361.38V36H358.38V33ZM354.78 18.6H357.78V21.6H354.78V18.6ZM354.78 22.2H357.78V25.2H354.78V22.2ZM354.78 25.8H357.78V28.8H354.78V25.8ZM354.78 29.4H357.78V32.4H354.78V29.4ZM354.78 33H357.78V36H354.78V33ZM351.18 33H354.18V36H351.18V33ZM347.58 18.6H350.58V21.6H347.58V18.6ZM347.58 33H350.58V36H347.58V33ZM383.572 15H386.572V18H383.572V15ZM379.972 18.6H382.972V21.6H379.972V18.6ZM376.372 22.2H379.372V25.2H376.372V22.2ZM372.772 25.8H375.772V28.8H372.772V25.8ZM369.172 29.4H372.172V32.4H369.172V29.4ZM405.164 11.4H408.164V14.4H405.164V11.4ZM401.564 11.4H404.564V14.4H401.564V11.4ZM397.964 11.4H400.964V14.4H397.964V11.4ZM394.364 11.4H397.364V14.4H394.364V11.4ZM390.764 11.4H393.764V14.4H390.764V11.4ZM390.764 15H393.764V18H390.764V15ZM405.164 22.2H408.164V25.2H405.164V22.2ZM405.164 25.8H408.164V28.8H405.164V25.8ZM405.164 29.4H408.164V32.4H405.164V29.4ZM401.564 18.6H404.564V21.6H401.564V18.6ZM401.564 33H404.564V36H401.564V33ZM397.964 18.6H400.964V21.6H397.964V18.6ZM397.964 33H400.964V36H397.964V33ZM394.364 18.6H397.364V21.6H394.364V18.6ZM394.364 33H397.364V36H394.364V33ZM390.764 18.6H393.764V21.6H390.764V18.6ZM390.764 29.4H393.764V32.4H390.764V29.4Z" fill="white"/>
<path d="M25.5621 245.4H28.5621V248.4H25.5621V245.4ZM21.9621 245.4H24.9621V248.4H21.9621V245.4ZM18.3621 245.4H21.3621V248.4H18.3621V245.4ZM14.7621 245.4H17.7621V248.4H14.7621V245.4ZM11.1621 245.4H14.1621V248.4H11.1621V245.4ZM11.1621 249H14.1621V252H11.1621V249ZM25.5621 267H28.5621V270H25.5621V267ZM21.9621 256.2H24.9621V259.2H21.9621V256.2ZM21.9621 267H24.9621V270H21.9621V267ZM18.3621 256.2H21.3621V259.2H18.3621V256.2ZM18.3621 267H21.3621V270H18.3621V267ZM14.7621 256.2H17.7621V259.2H14.7621V256.2ZM14.7621 267H17.7621V270H14.7621V267ZM11.1621 252.6H14.1621V255.6H11.1621V252.6ZM11.1621 256.2H14.1621V259.2H11.1621V256.2ZM11.1621 259.8H14.1621V262.8H11.1621V259.8ZM11.1621 263.4H14.1621V266.4H11.1621V263.4ZM11.1621 267H14.1621V270H11.1621V267ZM47.1539 249H50.1539V252H47.1539V249ZM43.5539 245.4H46.5539V248.4H43.5539V245.4ZM39.9539 245.4H42.9539V248.4H39.9539V245.4ZM36.3539 245.4H39.3539V248.4H36.3539V245.4ZM32.7539 249H35.7539V252H32.7539V249ZM47.1539 259.8H50.1539V262.8H47.1539V259.8ZM47.1539 263.4H50.1539V266.4H47.1539V263.4ZM43.5539 256.2H46.5539V259.2H43.5539V256.2ZM43.5539 267H46.5539V270H43.5539V267ZM39.9539 256.2H42.9539V259.2H39.9539V256.2ZM39.9539 267H42.9539V270H39.9539V267ZM36.3539 256.2H39.3539V259.2H36.3539V256.2ZM36.3539 267H39.3539V270H36.3539V267ZM32.7539 252.6H35.7539V255.6H32.7539V252.6ZM32.7539 263.4H35.7539V266.4H32.7539V263.4ZM68.7457 249H71.7457V252H68.7457V249ZM65.1457 245.4H68.1457V248.4H65.1457V245.4ZM61.5457 245.4H64.5457V248.4H61.5457V245.4ZM57.9457 245.4H60.9457V248.4H57.9457V245.4ZM54.3457 245.4H57.3457V248.4H54.3457V245.4ZM54.3457 249H57.3457V252H54.3457V249ZM68.7457 252.6H71.7457V255.6H68.7457V252.6ZM65.1457 256.2H68.1457V259.2H65.1457V256.2ZM61.5457 256.2H64.5457V259.2H61.5457V256.2ZM57.9457 256.2H60.9457V259.2H57.9457V256.2ZM54.3457 252.6H57.3457V255.6H54.3457V252.6ZM54.3457 256.2H57.3457V259.2H54.3457V256.2ZM54.3457 259.8H57.3457V262.8H54.3457V259.8ZM54.3457 263.4H57.3457V266.4H54.3457V263.4ZM54.3457 267H57.3457V270H54.3457V267ZM90.3375 245.4H93.3375V248.4H90.3375V245.4ZM86.7375 245.4H89.7375V248.4H86.7375V245.4ZM83.1375 245.4H86.1375V248.4H83.1375V245.4ZM79.5375 245.4H82.5375V248.4H79.5375V245.4ZM75.9375 245.4H78.9375V248.4H75.9375V245.4ZM75.9375 249H78.9375V252H75.9375V249ZM90.3375 267H93.3375V270H90.3375V267ZM86.7375 256.2H89.7375V259.2H86.7375V256.2ZM86.7375 267H89.7375V270H86.7375V267ZM83.1375 256.2H86.1375V259.2H83.1375V256.2ZM83.1375 267H86.1375V270H83.1375V267ZM79.5375 256.2H82.5375V259.2H79.5375V256.2ZM79.5375 267H82.5375V270H79.5375V267ZM75.9375 252.6H78.9375V255.6H75.9375V252.6ZM75.9375 256.2H78.9375V259.2H75.9375V256.2ZM75.9375 259.8H78.9375V262.8H75.9375V259.8ZM75.9375 263.4H78.9375V266.4H75.9375V263.4ZM75.9375 267H78.9375V270H75.9375V267ZM111.929 249H114.929V252H111.929V249ZM108.329 245.4H111.329V248.4H108.329V245.4ZM104.729 245.4H107.729V248.4H104.729V245.4ZM101.129 245.4H104.129V248.4H101.129V245.4ZM97.5293 245.4H100.529V248.4H97.5293V245.4ZM97.5293 249H100.529V252H97.5293V249ZM111.929 252.6H114.929V255.6H111.929V252.6ZM111.929 267H114.929V270H111.929V267ZM108.329 256.2H111.329V259.2H108.329V256.2ZM108.329 263.4H111.329V266.4H108.329V263.4ZM104.729 256.2H107.729V259.2H104.729V256.2ZM104.729 259.8H107.729V262.8H104.729V259.8ZM101.129 256.2H104.129V259.2H101.129V256.2ZM97.5293 252.6H100.529V255.6H97.5293V252.6ZM97.5293 256.2H100.529V259.2H97.5293V256.2ZM97.5293 259.8H100.529V262.8H97.5293V259.8ZM97.5293 263.4H100.529V266.4H97.5293V263.4ZM97.5293 267H100.529V270H97.5293V267ZM133.521 249H136.521V252H133.521V249ZM129.921 245.4H132.921V248.4H129.921V245.4ZM126.321 245.4H129.321V248.4H126.321V245.4ZM122.721 245.4H125.721V248.4H122.721V245.4ZM119.121 249H122.121V252H119.121V249ZM133.521 252.6H136.521V255.6H133.521V252.6ZM133.521 256.2H136.521V259.2H133.521V256.2ZM133.521 259.8H136.521V262.8H133.521V259.8ZM133.521 263.4H136.521V266.4H133.521V263.4ZM133.521 267H136.521V270H133.521V267ZM129.921 256.2H132.921V259.2H129.921V256.2ZM126.321 256.2H129.321V259.2H126.321V256.2ZM122.721 256.2H125.721V259.2H122.721V256.2ZM119.121 252.6H122.121V255.6H119.121V252.6ZM119.121 256.2H122.121V259.2H119.121V256.2ZM119.121 259.8H122.121V262.8H119.121V259.8ZM119.121 263.4H122.121V266.4H119.121V263.4ZM119.121 267H122.121V270H119.121V267ZM155.113 245.4H158.113V248.4H155.113V245.4ZM155.113 249H158.113V252H155.113V249ZM140.713 245.4H143.713V248.4H140.713V245.4ZM140.713 249H143.713V252H140.713V249ZM155.113 252.6H158.113V255.6H155.113V252.6ZM155.113 256.2H158.113V259.2H155.113V256.2ZM155.113 259.8H158.113V262.8H155.113V259.8ZM155.113 263.4H158.113V266.4H155.113V263.4ZM155.113 267H158.113V270H155.113V267ZM151.513 259.8H154.513V262.8H151.513V259.8ZM147.913 256.2H150.913V259.2H147.913V256.2ZM144.313 252.6H147.313V255.6H144.313V252.6ZM140.713 252.6H143.713V255.6H140.713V252.6ZM140.713 256.2H143.713V259.2H140.713V256.2ZM140.713 259.8H143.713V262.8H140.713V259.8ZM140.713 263.4H143.713V266.4H140.713V263.4ZM140.713 267H143.713V270H140.713V267ZM176.705 249H179.705V252H176.705V249ZM173.105 245.4H176.105V248.4H173.105V245.4ZM169.505 245.4H172.505V248.4H169.505V245.4ZM165.905 245.4H168.905V248.4H165.905V245.4ZM162.305 245.4H165.305V248.4H162.305V245.4ZM162.305 249H165.305V252H162.305V249ZM176.705 252.6H179.705V255.6H176.705V252.6ZM176.705 256.2H179.705V259.2H176.705V256.2ZM176.705 259.8H179.705V262.8H176.705V259.8ZM176.705 263.4H179.705V266.4H176.705V263.4ZM173.105 267H176.105V270H173.105V267ZM169.505 267H172.505V270H169.505V267ZM165.905 267H168.905V270H165.905V267ZM162.305 252.6H165.305V255.6H162.305V252.6ZM162.305 256.2H165.305V259.2H162.305V256.2ZM162.305 259.8H165.305V262.8H162.305V259.8ZM162.305 263.4H165.305V266.4H162.305V263.4ZM162.305 267H165.305V270H162.305V267ZM198.296 249H201.296V252H198.296V249ZM194.696 245.4H197.696V248.4H194.696V245.4ZM191.096 245.4H194.096V248.4H191.096V245.4ZM187.496 245.4H190.496V248.4H187.496V245.4ZM183.896 249H186.896V252H183.896V249ZM198.296 252.6H201.296V255.6H198.296V252.6ZM198.296 256.2H201.296V259.2H198.296V256.2ZM198.296 259.8H201.296V262.8H198.296V259.8ZM198.296 263.4H201.296V266.4H198.296V263.4ZM194.696 267H197.696V270H194.696V267ZM191.096 267H194.096V270H191.096V267ZM187.496 267H190.496V270H187.496V267ZM183.896 252.6H186.896V255.6H183.896V252.6ZM183.896 256.2H186.896V259.2H183.896V256.2ZM183.896 259.8H186.896V262.8H183.896V259.8ZM183.896 263.4H186.896V266.4H183.896V263.4ZM232.48 249H235.48V252H232.48V249ZM228.88 245.4H231.88V248.4H228.88V245.4ZM225.28 245.4H228.28V248.4H225.28V245.4ZM221.68 245.4H224.68V248.4H221.68V245.4ZM218.08 245.4H221.08V248.4H218.08V245.4ZM218.08 249H221.08V252H218.08V249ZM232.48 252.6H235.48V255.6H232.48V252.6ZM232.48 267H235.48V270H232.48V267ZM228.88 256.2H231.88V259.2H228.88V256.2ZM228.88 263.4H231.88V266.4H228.88V263.4ZM225.28 256.2H228.28V259.2H225.28V256.2ZM225.28 259.8H228.28V262.8H225.28V259.8ZM221.68 256.2H224.68V259.2H221.68V256.2ZM218.08 252.6H221.08V255.6H218.08V252.6ZM218.08 256.2H221.08V259.2H218.08V256.2ZM218.08 259.8H221.08V262.8H218.08V259.8ZM218.08 263.4H221.08V266.4H218.08V263.4ZM218.08 267H221.08V270H218.08V267ZM254.072 245.4H257.072V248.4H254.072V245.4ZM250.472 245.4H253.472V248.4H250.472V245.4ZM246.872 245.4H249.872V248.4H246.872V245.4ZM243.272 245.4H246.272V248.4H243.272V245.4ZM239.672 245.4H242.672V248.4H239.672V245.4ZM239.672 249H242.672V252H239.672V249ZM254.072 267H257.072V270H254.072V267ZM250.472 256.2H253.472V259.2H250.472V256.2ZM250.472 267H253.472V270H250.472V267ZM246.872 256.2H249.872V259.2H246.872V256.2ZM246.872 267H249.872V270H246.872V267ZM243.272 256.2H246.272V259.2H243.272V256.2ZM243.272 267H246.272V270H243.272V267ZM239.672 252.6H242.672V255.6H239.672V252.6ZM239.672 256.2H242.672V259.2H239.672V256.2ZM239.672 259.8H242.672V262.8H239.672V259.8ZM239.672 263.4H242.672V266.4H239.672V263.4ZM239.672 267H242.672V270H239.672V267ZM275.664 249H278.664V252H275.664V249ZM272.064 245.4H275.064V248.4H272.064V245.4ZM268.464 245.4H271.464V248.4H268.464V245.4ZM264.864 245.4H267.864V248.4H264.864V245.4ZM261.264 249H264.264V252H261.264V249ZM275.664 259.8H278.664V262.8H275.664V259.8ZM275.664 263.4H278.664V266.4H275.664V263.4ZM272.064 256.2H275.064V259.2H272.064V256.2ZM272.064 267H275.064V270H272.064V267ZM268.464 256.2H271.464V259.2H268.464V256.2ZM268.464 267H271.464V270H268.464V267ZM264.864 256.2H267.864V259.2H264.864V256.2ZM264.864 267H267.864V270H264.864V267ZM261.264 252.6H264.264V255.6H261.264V252.6ZM261.264 263.4H264.264V266.4H261.264V263.4ZM297.255 249H300.255V252H297.255V249ZM293.655 245.4H296.655V248.4H293.655V245.4ZM290.055 245.4H293.055V248.4H290.055V245.4ZM286.455 245.4H289.455V248.4H286.455V245.4ZM282.855 245.4H285.855V248.4H282.855V245.4ZM282.855 249H285.855V252H282.855V249ZM297.255 252.6H300.255V255.6H297.255V252.6ZM293.655 256.2H296.655V259.2H293.655V256.2ZM290.055 256.2H293.055V259.2H290.055V256.2ZM286.455 256.2H289.455V259.2H286.455V256.2ZM282.855 252.6H285.855V255.6H282.855V252.6ZM282.855 256.2H285.855V259.2H282.855V256.2ZM282.855 259.8H285.855V262.8H282.855V259.8ZM282.855 263.4H285.855V266.4H282.855V263.4ZM282.855 267H285.855V270H282.855V267ZM318.847 245.4H321.847V248.4H318.847V245.4ZM318.847 249H321.847V252H318.847V249ZM304.447 245.4H307.447V248.4H304.447V245.4ZM304.447 249H307.447V252H304.447V249ZM318.847 252.6H321.847V255.6H318.847V252.6ZM318.847 256.2H321.847V259.2H318.847V256.2ZM318.847 259.8H321.847V262.8H318.847V259.8ZM318.847 263.4H321.847V266.4H318.847V263.4ZM315.247 267H318.247V270H315.247V267ZM311.647 267H314.647V270H311.647V267ZM308.047 267H311.047V270H308.047V267ZM304.447 252.6H307.447V255.6H304.447V252.6ZM304.447 256.2H307.447V259.2H304.447V256.2ZM304.447 259.8H307.447V262.8H304.447V259.8ZM304.447 263.4H307.447V266.4H304.447V263.4ZM340.439 245.4H343.439V248.4H340.439V245.4ZM336.839 245.4H339.839V248.4H336.839V245.4ZM333.239 245.4H336.239V248.4H333.239V245.4ZM329.639 245.4H332.639V248.4H329.639V245.4ZM326.039 245.4H329.039V248.4H326.039V245.4ZM326.039 249H329.039V252H326.039V249ZM340.439 267H343.439V270H340.439V267ZM336.839 256.2H339.839V259.2H336.839V256.2ZM336.839 267H339.839V270H336.839V267ZM333.239 256.2H336.239V259.2H333.239V256.2ZM333.239 267H336.239V270H333.239V267ZM329.639 256.2H332.639V259.2H329.639V256.2ZM329.639 267H332.639V270H329.639V267ZM326.039 252.6H329.039V255.6H326.039V252.6ZM326.039 256.2H329.039V259.2H326.039V256.2ZM326.039 259.8H329.039V262.8H326.039V259.8ZM326.039 263.4H329.039V266.4H326.039V263.4ZM326.039 267H329.039V270H326.039V267ZM362.031 249H365.031V252H362.031V249ZM358.431 245.4H361.431V248.4H358.431V245.4ZM354.831 245.4H357.831V248.4H354.831V245.4ZM351.231 245.4H354.231V248.4H351.231V245.4ZM347.631 249H350.631V252H347.631V249ZM362.031 259.8H365.031V262.8H362.031V259.8ZM362.031 263.4H365.031V266.4H362.031V263.4ZM358.431 256.2H361.431V259.2H358.431V256.2ZM358.431 267H361.431V270H358.431V267ZM354.831 256.2H357.831V259.2H354.831V256.2ZM354.831 267H357.831V270H354.831V267ZM351.231 256.2H354.231V259.2H351.231V256.2ZM351.231 267H354.231V270H351.231V267ZM347.631 252.6H350.631V255.6H347.631V252.6ZM347.631 263.4H350.631V266.4H347.631V263.4ZM383.623 245.4H386.623V248.4H383.623V245.4ZM380.023 245.4H383.023V248.4H380.023V245.4ZM376.423 245.4H379.423V248.4H376.423V245.4ZM376.423 249H379.423V252H376.423V249ZM372.823 245.4H375.823V248.4H372.823V245.4ZM369.223 245.4H372.223V248.4H369.223V245.4ZM376.423 252.6H379.423V255.6H376.423V252.6ZM376.423 256.2H379.423V259.2H376.423V256.2ZM376.423 259.8H379.423V262.8H376.423V259.8ZM376.423 263.4H379.423V266.4H376.423V263.4ZM376.423 267H379.423V270H376.423V267ZM405.214 249H408.214V252H405.214V249ZM401.614 245.4H404.614V248.4H401.614V245.4ZM398.014 245.4H401.014V248.4H398.014V245.4ZM394.414 245.4H397.414V248.4H394.414V245.4ZM390.814 249H393.814V252H390.814V249ZM405.214 252.6H408.214V255.6H405.214V252.6ZM405.214 256.2H408.214V259.2H405.214V256.2ZM405.214 259.8H408.214V262.8H405.214V259.8ZM405.214 263.4H408.214V266.4H405.214V263.4ZM405.214 267H408.214V270H405.214V267ZM401.614 256.2H404.614V259.2H401.614V256.2ZM398.014 256.2H401.014V259.2H398.014V256.2ZM394.414 256.2H397.414V259.2H394.414V256.2ZM390.814 252.6H393.814V255.6H390.814V252.6ZM390.814 256.2H393.814V259.2H390.814V256.2ZM390.814 259.8H393.814V262.8H390.814V259.8ZM390.814 263.4H393.814V266.4H390.814V263.4ZM390.814 267H393.814V270H390.814V267ZM416.006 263.4H419.006V266.4H416.006V263.4ZM416.006 267H419.006V270H416.006V267ZM412.406 263.4H415.406V266.4H412.406V263.4ZM412.406 267H415.406V270H412.406V267ZM426.817 263.4H429.817V266.4H426.817V263.4ZM426.817 267H429.817V270H426.817V267ZM423.217 263.4H426.217V266.4H423.217V263.4ZM423.217 267H426.217V270H423.217V267ZM437.627 263.4H440.627V266.4H437.627V263.4ZM437.627 267H440.627V270H437.627V267ZM434.027 263.4H437.027V266.4H434.027V263.4ZM434.027 267H437.027V270H434.027V267Z" fill="white"/>
<rect x="1.5" y="1.5" width="449" height="277" stroke="#5B65C2" stroke-width="3"/>
</g>
<defs>
<clipPath id="clip0">
<rect width="452" height="280" fill="white"/>
</clipPath>
</defs>
</svg>
