<svg width="452" height="280" viewBox="0 0 452 280" fill="none" xmlns="http://www.w3.org/2000/svg">
<g clip-path="url(#clip0)">
<rect width="452" height="280" fill="white"/>
<rect width="452" height="47" fill="#5B65C2"/>
<path d="M430.808 237.4H433.808V240.4H430.808V237.4ZM427.208 237.4H430.208V240.4H427.208V237.4ZM423.608 237.4H426.608V240.4H423.608V237.4ZM420.008 237.4H423.008V240.4H420.008V237.4ZM416.408 237.4H419.408V240.4H416.408V237.4ZM416.408 241H419.408V244H416.408V241ZM430.808 248.2H433.808V251.2H430.808V248.2ZM430.808 251.8H433.808V254.8H430.808V251.8ZM430.808 255.4H433.808V258.4H430.808V255.4ZM427.208 244.6H430.208V247.6H427.208V244.6ZM427.208 259H430.208V262H427.208V259ZM423.608 244.6H426.608V247.6H423.608V244.6ZM423.608 259H426.608V262H423.608V259ZM420.008 244.6H423.008V247.6H420.008V244.6ZM420.008 259H423.008V262H420.008V259ZM416.408 244.6H419.408V247.6H416.408V244.6ZM416.408 255.4H419.408V258.4H416.408V255.4Z" fill="#5B65C2"/>
<path d="M81.3504 145.4H84.3504V148.4H81.3504V145.4ZM77.7504 145.4H80.7504V148.4H77.7504V145.4ZM77.7504 149H80.7504V152H77.7504V149ZM74.1504 145.4H77.1504V148.4H74.1504V145.4ZM81.3504 167H84.3504V170H81.3504V167ZM77.7504 152.6H80.7504V155.6H77.7504V152.6ZM77.7504 156.2H80.7504V159.2H77.7504V156.2ZM77.7504 159.8H80.7504V162.8H77.7504V159.8ZM77.7504 163.4H80.7504V166.4H77.7504V163.4ZM77.7504 167H80.7504V170H77.7504V167ZM74.1504 167H77.1504V170H74.1504V167ZM102.964 145.4H105.964V148.4H102.964V145.4ZM102.964 149H105.964V152H102.964V149ZM88.5645 145.4H91.5645V148.4H88.5645V145.4ZM88.5645 149H91.5645V152H88.5645V149ZM102.964 152.6H105.964V155.6H102.964V152.6ZM102.964 156.2H105.964V159.2H102.964V156.2ZM102.964 159.8H105.964V162.8H102.964V159.8ZM102.964 163.4H105.964V166.4H102.964V163.4ZM102.964 167H105.964V170H102.964V167ZM99.3645 159.8H102.364V162.8H99.3645V159.8ZM95.7645 156.2H98.7645V159.2H95.7645V156.2ZM92.1645 152.6H95.1645V155.6H92.1645V152.6ZM88.5645 152.6H91.5645V155.6H88.5645V152.6ZM88.5645 156.2H91.5645V159.2H88.5645V156.2ZM88.5645 159.8H91.5645V162.8H88.5645V159.8ZM88.5645 163.4H91.5645V166.4H88.5645V163.4ZM88.5645 167H91.5645V170H88.5645V167ZM124.556 149H127.556V152H124.556V149ZM120.956 145.4H123.956V148.4H120.956V145.4ZM117.356 145.4H120.356V148.4H117.356V145.4ZM113.756 145.4H116.756V148.4H113.756V145.4ZM110.156 149H113.156V152H110.156V149ZM124.556 159.8H127.556V162.8H124.556V159.8ZM124.556 163.4H127.556V166.4H124.556V163.4ZM120.956 159.8H123.956V162.8H120.956V159.8ZM120.956 167H123.956V170H120.956V167ZM117.356 167H120.356V170H117.356V167ZM113.756 167H116.756V170H113.756V167ZM110.156 152.6H113.156V155.6H110.156V152.6ZM110.156 156.2H113.156V159.2H110.156V156.2ZM110.156 159.8H113.156V162.8H110.156V159.8ZM110.156 163.4H113.156V166.4H110.156V163.4ZM146.148 149H149.148V152H146.148V149ZM142.548 145.4H145.548V148.4H142.548V145.4ZM138.948 145.4H141.948V148.4H138.948V145.4ZM135.348 145.4H138.348V148.4H135.348V145.4ZM131.748 145.4H134.748V148.4H131.748V145.4ZM131.748 149H134.748V152H131.748V149ZM146.148 152.6H149.148V155.6H146.148V152.6ZM146.148 167H149.148V170H146.148V167ZM142.548 156.2H145.548V159.2H142.548V156.2ZM142.548 163.4H145.548V166.4H142.548V163.4ZM138.948 156.2H141.948V159.2H138.948V156.2ZM138.948 159.8H141.948V162.8H138.948V159.8ZM135.348 156.2H138.348V159.2H135.348V156.2ZM131.748 152.6H134.748V155.6H131.748V152.6ZM131.748 156.2H134.748V159.2H131.748V156.2ZM131.748 159.8H134.748V162.8H131.748V159.8ZM131.748 163.4H134.748V166.4H131.748V163.4ZM131.748 167H134.748V170H131.748V167ZM167.74 145.4H170.74V148.4H167.74V145.4ZM164.14 145.4H167.14V148.4H164.14V145.4ZM160.54 145.4H163.54V148.4H160.54V145.4ZM156.94 145.4H159.94V148.4H156.94V145.4ZM153.34 145.4H156.34V148.4H153.34V145.4ZM153.34 149H156.34V152H153.34V149ZM167.74 167H170.74V170H167.74V167ZM164.14 156.2H167.14V159.2H164.14V156.2ZM164.14 167H167.14V170H164.14V167ZM160.54 156.2H163.54V159.2H160.54V156.2ZM160.54 167H163.54V170H160.54V167ZM156.94 156.2H159.94V159.2H156.94V156.2ZM156.94 167H159.94V170H156.94V167ZM153.34 152.6H156.34V155.6H153.34V152.6ZM153.34 156.2H156.34V159.2H153.34V156.2ZM153.34 159.8H156.34V162.8H153.34V159.8ZM153.34 163.4H156.34V166.4H153.34V163.4ZM153.34 167H156.34V170H153.34V167ZM189.332 149H192.332V152H189.332V149ZM185.732 145.4H188.732V148.4H185.732V145.4ZM182.132 145.4H185.132V148.4H182.132V145.4ZM178.532 145.4H181.532V148.4H178.532V145.4ZM174.932 149H177.932V152H174.932V149ZM189.332 159.8H192.332V162.8H189.332V159.8ZM189.332 163.4H192.332V166.4H189.332V163.4ZM185.732 156.2H188.732V159.2H185.732V156.2ZM185.732 167H188.732V170H185.732V167ZM182.132 156.2H185.132V159.2H182.132V156.2ZM182.132 167H185.132V170H182.132V167ZM178.532 156.2H181.532V159.2H178.532V156.2ZM178.532 167H181.532V170H178.532V167ZM174.932 152.6H177.932V155.6H174.932V152.6ZM174.932 163.4H177.932V166.4H174.932V163.4ZM210.923 145.4H213.923V148.4H210.923V145.4ZM207.323 145.4H210.323V148.4H207.323V145.4ZM203.723 145.4H206.723V148.4H203.723V145.4ZM200.123 145.4H203.123V148.4H200.123V145.4ZM196.523 145.4H199.523V148.4H196.523V145.4ZM196.523 149H199.523V152H196.523V149ZM210.923 167H213.923V170H210.923V167ZM207.323 156.2H210.323V159.2H207.323V156.2ZM207.323 167H210.323V170H207.323V167ZM203.723 156.2H206.723V159.2H203.723V156.2ZM203.723 167H206.723V170H203.723V167ZM200.123 156.2H203.123V159.2H200.123V156.2ZM200.123 167H203.123V170H200.123V167ZM196.523 152.6H199.523V155.6H196.523V152.6ZM196.523 156.2H199.523V159.2H196.523V156.2ZM196.523 159.8H199.523V162.8H196.523V159.8ZM196.523 163.4H199.523V166.4H196.523V163.4ZM196.523 167H199.523V170H196.523V167ZM254.107 149H257.107V152H254.107V149ZM250.507 145.4H253.507V148.4H250.507V145.4ZM246.907 145.4H249.907V148.4H246.907V145.4ZM243.307 145.4H246.307V148.4H243.307V145.4ZM239.707 145.4H242.707V148.4H239.707V145.4ZM239.707 149H242.707V152H239.707V149ZM254.107 152.6H257.107V155.6H254.107V152.6ZM250.507 156.2H253.507V159.2H250.507V156.2ZM246.907 156.2H249.907V159.2H246.907V156.2ZM243.307 156.2H246.307V159.2H243.307V156.2ZM239.707 152.6H242.707V155.6H239.707V152.6ZM239.707 156.2H242.707V159.2H239.707V156.2ZM239.707 159.8H242.707V162.8H239.707V159.8ZM239.707 163.4H242.707V166.4H239.707V163.4ZM239.707 167H242.707V170H239.707V167ZM275.699 149H278.699V152H275.699V149ZM272.099 145.4H275.099V148.4H272.099V145.4ZM268.499 145.4H271.499V148.4H268.499V145.4ZM264.899 145.4H267.899V148.4H264.899V145.4ZM261.299 149H264.299V152H261.299V149ZM275.699 152.6H278.699V155.6H275.699V152.6ZM275.699 156.2H278.699V159.2H275.699V156.2ZM275.699 159.8H278.699V162.8H275.699V159.8ZM275.699 163.4H278.699V166.4H275.699V163.4ZM275.699 167H278.699V170H275.699V167ZM272.099 156.2H275.099V159.2H272.099V156.2ZM268.499 156.2H271.499V159.2H268.499V156.2ZM264.899 156.2H267.899V159.2H264.899V156.2ZM261.299 152.6H264.299V155.6H261.299V152.6ZM261.299 156.2H264.299V159.2H261.299V156.2ZM261.299 159.8H264.299V162.8H261.299V159.8ZM261.299 163.4H264.299V166.4H261.299V163.4ZM261.299 167H264.299V170H261.299V167ZM297.291 149H300.291V152H297.291V149ZM293.691 145.4H296.691V148.4H293.691V145.4ZM290.091 145.4H293.091V148.4H290.091V145.4ZM286.491 145.4H289.491V148.4H286.491V145.4ZM282.891 145.4H285.891V148.4H282.891V145.4ZM282.891 149H285.891V152H282.891V149ZM297.291 152.6H300.291V155.6H297.291V152.6ZM297.291 167H300.291V170H297.291V167ZM293.691 156.2H296.691V159.2H293.691V156.2ZM293.691 163.4H296.691V166.4H293.691V163.4ZM290.091 156.2H293.091V159.2H290.091V156.2ZM290.091 159.8H293.091V162.8H290.091V159.8ZM286.491 156.2H289.491V159.2H286.491V156.2ZM282.891 152.6H285.891V155.6H282.891V152.6ZM282.891 156.2H285.891V159.2H282.891V156.2ZM282.891 159.8H285.891V162.8H282.891V159.8ZM282.891 163.4H285.891V166.4H282.891V163.4ZM282.891 167H285.891V170H282.891V167ZM318.882 145.4H321.882V148.4H318.882V145.4ZM315.282 145.4H318.282V148.4H315.282V145.4ZM311.682 145.4H314.682V148.4H311.682V145.4ZM311.682 149H314.682V152H311.682V149ZM308.082 145.4H311.082V148.4H308.082V145.4ZM304.482 145.4H307.482V148.4H304.482V145.4ZM311.682 152.6H314.682V155.6H311.682V152.6ZM311.682 156.2H314.682V159.2H311.682V156.2ZM311.682 159.8H314.682V162.8H311.682V159.8ZM311.682 163.4H314.682V166.4H311.682V163.4ZM311.682 167H314.682V170H311.682V167ZM340.474 145.4H343.474V148.4H340.474V145.4ZM336.874 145.4H339.874V148.4H336.874V145.4ZM333.274 145.4H336.274V148.4H333.274V145.4ZM329.674 145.4H332.674V148.4H329.674V145.4ZM326.074 145.4H329.074V148.4H326.074V145.4ZM326.074 149H329.074V152H326.074V149ZM340.474 167H343.474V170H340.474V167ZM336.874 156.2H339.874V159.2H336.874V156.2ZM336.874 167H339.874V170H336.874V167ZM333.274 156.2H336.274V159.2H333.274V156.2ZM333.274 167H336.274V170H333.274V167ZM329.674 156.2H332.674V159.2H329.674V156.2ZM329.674 167H332.674V170H329.674V167ZM326.074 152.6H329.074V155.6H326.074V152.6ZM326.074 156.2H329.074V159.2H326.074V156.2ZM326.074 159.8H329.074V162.8H326.074V159.8ZM326.074 163.4H329.074V166.4H326.074V163.4ZM326.074 167H329.074V170H326.074V167ZM362.066 149H365.066V152H362.066V149ZM358.466 145.4H361.466V148.4H358.466V145.4ZM354.866 145.4H357.866V148.4H354.866V145.4ZM351.266 145.4H354.266V148.4H351.266V145.4ZM347.666 149H350.666V152H347.666V149ZM362.066 159.8H365.066V162.8H362.066V159.8ZM362.066 163.4H365.066V166.4H362.066V163.4ZM358.466 156.2H361.466V159.2H358.466V156.2ZM358.466 167H361.466V170H358.466V167ZM354.866 156.2H357.866V159.2H354.866V156.2ZM354.866 167H357.866V170H354.866V167ZM351.266 156.2H354.266V159.2H351.266V156.2ZM351.266 167H354.266V170H351.266V167ZM347.666 152.6H350.666V155.6H347.666V152.6ZM347.666 163.4H350.666V166.4H347.666V163.4ZM160.504 179H163.504V182H160.504V179ZM156.904 175.4H159.904V178.4H156.904V175.4ZM153.304 175.4H156.304V178.4H153.304V175.4ZM149.704 175.4H152.704V178.4H149.704V175.4ZM146.104 179H149.104V182H146.104V179ZM160.504 182.6H163.504V185.6H160.504V182.6ZM160.504 186.2H163.504V189.2H160.504V186.2ZM160.504 189.8H163.504V192.8H160.504V189.8ZM160.504 193.4H163.504V196.4H160.504V193.4ZM160.504 197H163.504V200H160.504V197ZM156.904 186.2H159.904V189.2H156.904V186.2ZM153.304 186.2H156.304V189.2H153.304V186.2ZM149.704 186.2H152.704V189.2H149.704V186.2ZM146.104 182.6H149.104V185.6H146.104V182.6ZM146.104 186.2H149.104V189.2H146.104V186.2ZM146.104 189.8H149.104V192.8H146.104V189.8ZM146.104 193.4H149.104V196.4H146.104V193.4ZM146.104 197H149.104V200H146.104V197ZM203.687 179H206.687V182H203.687V179ZM200.087 175.4H203.087V178.4H200.087V175.4ZM196.487 175.4H199.487V178.4H196.487V175.4ZM192.887 175.4H195.887V178.4H192.887V175.4ZM189.287 175.4H192.287V178.4H189.287V175.4ZM189.287 179H192.287V182H189.287V179ZM203.687 182.6H206.687V185.6H203.687V182.6ZM203.687 186.2H206.687V189.2H203.687V186.2ZM203.687 189.8H206.687V192.8H203.687V189.8ZM203.687 193.4H206.687V196.4H203.687V193.4ZM200.087 197H203.087V200H200.087V197ZM196.487 197H199.487V200H196.487V197ZM192.887 197H195.887V200H192.887V197ZM189.287 182.6H192.287V185.6H189.287V182.6ZM189.287 186.2H192.287V189.2H189.287V186.2ZM189.287 189.8H192.287V192.8H189.287V189.8ZM189.287 193.4H192.287V196.4H189.287V193.4ZM189.287 197H192.287V200H189.287V197ZM218.079 175.4H221.079V178.4H218.079V175.4ZM214.479 175.4H217.479V178.4H214.479V175.4ZM214.479 179H217.479V182H214.479V179ZM210.879 175.4H213.879V178.4H210.879V175.4ZM218.079 197H221.079V200H218.079V197ZM214.479 182.6H217.479V185.6H214.479V182.6ZM214.479 186.2H217.479V189.2H214.479V186.2ZM214.479 189.8H217.479V192.8H214.479V189.8ZM214.479 193.4H217.479V196.4H214.479V193.4ZM214.479 197H217.479V200H214.479V197ZM210.879 197H213.879V200H210.879V197ZM239.693 175.4H242.693V178.4H239.693V175.4ZM239.693 179H242.693V182H239.693V179ZM225.293 175.4H228.293V178.4H225.293V175.4ZM225.293 179H228.293V182H225.293V179ZM239.693 182.6H242.693V185.6H239.693V182.6ZM239.693 186.2H242.693V189.2H239.693V186.2ZM239.693 189.8H242.693V192.8H239.693V189.8ZM236.093 193.4H239.093V196.4H236.093V193.4ZM232.493 197H235.493V200H232.493V197ZM228.893 193.4H231.893V196.4H228.893V193.4ZM225.293 182.6H228.293V185.6H225.293V182.6ZM225.293 186.2H228.293V189.2H225.293V186.2ZM225.293 189.8H228.293V192.8H225.293V189.8ZM254.085 175.4H257.085V178.4H254.085V175.4ZM250.485 175.4H253.485V178.4H250.485V175.4ZM250.485 179H253.485V182H250.485V179ZM246.885 175.4H249.885V178.4H246.885V175.4ZM254.085 197H257.085V200H254.085V197ZM250.485 182.6H253.485V185.6H250.485V182.6ZM250.485 186.2H253.485V189.2H250.485V186.2ZM250.485 189.8H253.485V192.8H250.485V189.8ZM250.485 193.4H253.485V196.4H250.485V193.4ZM250.485 197H253.485V200H250.485V197ZM246.885 197H249.885V200H246.885V197ZM275.699 179H278.699V182H275.699V179ZM272.099 175.4H275.099V178.4H272.099V175.4ZM268.499 175.4H271.499V178.4H268.499V175.4ZM264.899 175.4H267.899V178.4H264.899V175.4ZM261.299 175.4H264.299V178.4H261.299V175.4ZM261.299 179H264.299V182H261.299V179ZM275.699 182.6H278.699V185.6H275.699V182.6ZM275.699 186.2H278.699V189.2H275.699V186.2ZM275.699 189.8H278.699V192.8H275.699V189.8ZM275.699 193.4H278.699V196.4H275.699V193.4ZM272.099 197H275.099V200H272.099V197ZM268.499 197H271.499V200H268.499V197ZM264.899 197H267.899V200H264.899V197ZM261.299 182.6H264.299V185.6H261.299V182.6ZM261.299 186.2H264.299V189.2H261.299V186.2ZM261.299 189.8H264.299V192.8H261.299V189.8ZM261.299 193.4H264.299V196.4H261.299V193.4ZM261.299 197H264.299V200H261.299V197ZM290.091 175.4H293.091V178.4H290.091V175.4ZM286.491 175.4H289.491V178.4H286.491V175.4ZM286.491 179H289.491V182H286.491V179ZM282.891 175.4H285.891V178.4H282.891V175.4ZM290.091 197H293.091V200H290.091V197ZM286.491 182.6H289.491V185.6H286.491V182.6ZM286.491 186.2H289.491V189.2H286.491V186.2ZM286.491 189.8H289.491V192.8H286.491V189.8ZM286.491 193.4H289.491V196.4H286.491V193.4ZM286.491 197H289.491V200H286.491V197ZM282.891 197H285.891V200H282.891V197ZM311.705 179H314.705V182H311.705V179ZM308.105 175.4H311.105V178.4H308.105V175.4ZM304.505 175.4H307.505V178.4H304.505V175.4ZM300.905 175.4H303.905V178.4H300.905V175.4ZM297.305 175.4H300.305V178.4H297.305V175.4ZM297.305 179H300.305V182H297.305V179ZM311.705 182.6H314.705V185.6H311.705V182.6ZM311.705 197H314.705V200H311.705V197ZM308.105 186.2H311.105V189.2H308.105V186.2ZM308.105 193.4H311.105V196.4H308.105V193.4ZM304.505 186.2H307.505V189.2H304.505V186.2ZM304.505 189.8H307.505V192.8H304.505V189.8ZM300.905 186.2H303.905V189.2H300.905V186.2ZM297.305 182.6H300.305V185.6H297.305V182.6ZM297.305 186.2H300.305V189.2H297.305V186.2ZM297.305 189.8H300.305V192.8H297.305V189.8ZM297.305 193.4H300.305V196.4H297.305V193.4ZM297.305 197H300.305V200H297.305V197Z" fill="#5B65C2"/>
<path d="M100.524 11.4H103.524V14.4H100.524V11.4ZM100.524 15H103.524V18H100.524V15ZM86.124 11.4H89.124V14.4H86.124V11.4ZM86.124 15H89.124V18H86.124V15ZM100.524 18.6H103.524V21.6H100.524V18.6ZM100.524 22.2H103.524V25.2H100.524V22.2ZM100.524 25.8H103.524V28.8H100.524V25.8ZM96.924 29.4H99.924V32.4H96.924V29.4ZM93.324 33H96.324V36H93.324V33ZM89.724 29.4H92.724V32.4H89.724V29.4ZM86.124 18.6H89.124V21.6H86.124V18.6ZM86.124 22.2H89.124V25.2H86.124V22.2ZM86.124 25.8H89.124V28.8H86.124V25.8ZM122.116 11.4H125.116V14.4H122.116V11.4ZM118.516 11.4H121.516V14.4H118.516V11.4ZM114.916 11.4H117.916V14.4H114.916V11.4ZM111.316 11.4H114.316V14.4H111.316V11.4ZM107.716 11.4H110.716V14.4H107.716V11.4ZM107.716 15H110.716V18H107.716V15ZM122.116 33H125.116V36H122.116V33ZM118.516 22.2H121.516V25.2H118.516V22.2ZM118.516 33H121.516V36H118.516V33ZM114.916 22.2H117.916V25.2H114.916V22.2ZM114.916 33H117.916V36H114.916V33ZM111.316 22.2H114.316V25.2H111.316V22.2ZM111.316 33H114.316V36H111.316V33ZM107.716 18.6H110.716V21.6H107.716V18.6ZM107.716 22.2H110.716V25.2H107.716V22.2ZM107.716 25.8H110.716V28.8H107.716V25.8ZM107.716 29.4H110.716V32.4H107.716V29.4ZM107.716 33H110.716V36H107.716V33ZM143.708 11.4H146.708V14.4H143.708V11.4ZM143.708 15H146.708V18H143.708V15ZM129.308 11.4H132.308V14.4H129.308V11.4ZM129.308 15H132.308V18H129.308V15ZM143.708 18.6H146.708V21.6H143.708V18.6ZM143.708 22.2H146.708V25.2H143.708V22.2ZM143.708 25.8H146.708V28.8H143.708V25.8ZM143.708 29.4H146.708V32.4H143.708V29.4ZM143.708 33H146.708V36H143.708V33ZM140.108 25.8H143.108V28.8H140.108V25.8ZM136.508 22.2H139.508V25.2H136.508V22.2ZM132.908 18.6H135.908V21.6H132.908V18.6ZM129.308 18.6H132.308V21.6H129.308V18.6ZM129.308 22.2H132.308V25.2H129.308V22.2ZM129.308 25.8H132.308V28.8H129.308V25.8ZM129.308 29.4H132.308V32.4H129.308V29.4ZM129.308 33H132.308V36H129.308V33ZM165.299 11.4H168.299V14.4H165.299V11.4ZM161.699 11.4H164.699V14.4H161.699V11.4ZM158.099 11.4H161.099V14.4H158.099V11.4ZM158.099 15H161.099V18H158.099V15ZM154.499 11.4H157.499V14.4H154.499V11.4ZM150.899 11.4H153.899V14.4H150.899V11.4ZM158.099 18.6H161.099V21.6H158.099V18.6ZM158.099 22.2H161.099V25.2H158.099V22.2ZM158.099 25.8H161.099V28.8H158.099V25.8ZM158.099 29.4H161.099V32.4H158.099V29.4ZM158.099 33H161.099V36H158.099V33ZM186.891 15H189.891V18H186.891V15ZM183.291 11.4H186.291V14.4H183.291V11.4ZM179.691 11.4H182.691V14.4H179.691V11.4ZM176.091 11.4H179.091V14.4H176.091V11.4ZM172.491 15H175.491V18H172.491V15ZM186.891 18.6H189.891V21.6H186.891V18.6ZM186.891 22.2H189.891V25.2H186.891V22.2ZM186.891 25.8H189.891V28.8H186.891V25.8ZM186.891 29.4H189.891V32.4H186.891V29.4ZM186.891 33H189.891V36H186.891V33ZM183.291 22.2H186.291V25.2H183.291V22.2ZM179.691 22.2H182.691V25.2H179.691V22.2ZM176.091 22.2H179.091V25.2H176.091V22.2ZM172.491 18.6H175.491V21.6H172.491V18.6ZM172.491 22.2H175.491V25.2H172.491V22.2ZM172.491 25.8H175.491V28.8H172.491V25.8ZM172.491 29.4H175.491V32.4H172.491V29.4ZM172.491 33H175.491V36H172.491V33ZM230.075 15H233.075V18H230.075V15ZM226.475 11.4H229.475V14.4H226.475V11.4ZM222.875 11.4H225.875V14.4H222.875V11.4ZM219.275 11.4H222.275V14.4H219.275V11.4ZM215.675 11.4H218.675V14.4H215.675V11.4ZM215.675 15H218.675V18H215.675V15ZM230.075 18.6H233.075V21.6H230.075V18.6ZM230.075 22.2H233.075V25.2H230.075V22.2ZM230.075 25.8H233.075V28.8H230.075V25.8ZM230.075 29.4H233.075V32.4H230.075V29.4ZM226.475 33H229.475V36H226.475V33ZM222.875 33H225.875V36H222.875V33ZM219.275 33H222.275V36H219.275V33ZM215.675 18.6H218.675V21.6H215.675V18.6ZM215.675 22.2H218.675V25.2H215.675V22.2ZM215.675 25.8H218.675V28.8H215.675V25.8ZM215.675 29.4H218.675V32.4H215.675V29.4ZM215.675 33H218.675V36H215.675V33ZM244.467 11.4H247.467V14.4H244.467V11.4ZM240.867 11.4H243.867V14.4H240.867V11.4ZM240.867 15H243.867V18H240.867V15ZM237.267 11.4H240.267V14.4H237.267V11.4ZM244.467 33H247.467V36H244.467V33ZM240.867 18.6H243.867V21.6H240.867V18.6ZM240.867 22.2H243.867V25.2H240.867V22.2ZM240.867 25.8H243.867V28.8H240.867V25.8ZM240.867 29.4H243.867V32.4H240.867V29.4ZM240.867 33H243.867V36H240.867V33ZM237.267 33H240.267V36H237.267V33ZM266.081 11.4H269.081V14.4H266.081V11.4ZM266.081 15H269.081V18H266.081V15ZM251.681 11.4H254.681V14.4H251.681V11.4ZM251.681 15H254.681V18H251.681V15ZM266.081 18.6H269.081V21.6H266.081V18.6ZM266.081 22.2H269.081V25.2H266.081V22.2ZM266.081 25.8H269.081V28.8H266.081V25.8ZM262.481 29.4H265.481V32.4H262.481V29.4ZM258.881 33H261.881V36H258.881V33ZM255.281 29.4H258.281V32.4H255.281V29.4ZM251.681 18.6H254.681V21.6H251.681V18.6ZM251.681 22.2H254.681V25.2H251.681V22.2ZM251.681 25.8H254.681V28.8H251.681V25.8ZM280.472 11.4H283.472V14.4H280.472V11.4ZM276.872 11.4H279.872V14.4H276.872V11.4ZM276.872 15H279.872V18H276.872V15ZM273.272 11.4H276.272V14.4H273.272V11.4ZM280.472 33H283.472V36H280.472V33ZM276.872 18.6H279.872V21.6H276.872V18.6ZM276.872 22.2H279.872V25.2H276.872V22.2ZM276.872 25.8H279.872V28.8H276.872V25.8ZM276.872 29.4H279.872V32.4H276.872V29.4ZM276.872 33H279.872V36H276.872V33ZM273.272 33H276.272V36H273.272V33ZM302.087 15H305.087V18H302.087V15ZM298.487 11.4H301.487V14.4H298.487V11.4ZM294.887 11.4H297.887V14.4H294.887V11.4ZM291.287 11.4H294.287V14.4H291.287V11.4ZM287.687 11.4H290.687V14.4H287.687V11.4ZM287.687 15H290.687V18H287.687V15ZM302.087 18.6H305.087V21.6H302.087V18.6ZM302.087 22.2H305.087V25.2H302.087V22.2ZM302.087 25.8H305.087V28.8H302.087V25.8ZM302.087 29.4H305.087V32.4H302.087V29.4ZM298.487 33H301.487V36H298.487V33ZM294.887 33H297.887V36H294.887V33ZM291.287 33H294.287V36H291.287V33ZM287.687 18.6H290.687V21.6H287.687V18.6ZM287.687 22.2H290.687V25.2H287.687V22.2ZM287.687 25.8H290.687V28.8H287.687V25.8ZM287.687 29.4H290.687V32.4H287.687V29.4ZM287.687 33H290.687V36H287.687V33ZM316.478 11.4H319.478V14.4H316.478V11.4ZM312.878 11.4H315.878V14.4H312.878V11.4ZM312.878 15H315.878V18H312.878V15ZM309.278 11.4H312.278V14.4H309.278V11.4ZM316.478 33H319.478V36H316.478V33ZM312.878 18.6H315.878V21.6H312.878V18.6ZM312.878 22.2H315.878V25.2H312.878V22.2ZM312.878 25.8H315.878V28.8H312.878V25.8ZM312.878 29.4H315.878V32.4H312.878V29.4ZM312.878 33H315.878V36H312.878V33ZM309.278 33H312.278V36H309.278V33ZM338.092 15H341.092V18H338.092V15ZM334.492 11.4H337.492V14.4H334.492V11.4ZM330.892 11.4H333.892V14.4H330.892V11.4ZM327.292 11.4H330.292V14.4H327.292V11.4ZM323.692 11.4H326.692V14.4H323.692V11.4ZM323.692 15H326.692V18H323.692V15ZM338.092 18.6H341.092V21.6H338.092V18.6ZM338.092 22.2H341.092V25.2H338.092V22.2ZM338.092 25.8H341.092V28.8H338.092V25.8ZM338.092 29.4H341.092V32.4H338.092V29.4ZM334.492 33H337.492V36H334.492V33ZM330.892 33H333.892V36H330.892V33ZM327.292 33H330.292V36H327.292V33ZM323.692 18.6H326.692V21.6H323.692V18.6ZM323.692 22.2H326.692V25.2H323.692V22.2ZM323.692 25.8H326.692V28.8H323.692V25.8ZM323.692 29.4H326.692V32.4H323.692V29.4ZM323.692 33H326.692V36H323.692V33ZM359.684 15H362.684V18H359.684V15ZM356.084 11.4H359.084V14.4H356.084V11.4ZM352.484 11.4H355.484V14.4H352.484V11.4ZM348.884 11.4H351.884V14.4H348.884V11.4ZM345.284 15H348.284V18H345.284V15ZM359.684 18.6H362.684V21.6H359.684V18.6ZM359.684 22.2H362.684V25.2H359.684V22.2ZM359.684 25.8H362.684V28.8H359.684V25.8ZM359.684 29.4H362.684V32.4H359.684V29.4ZM359.684 33H362.684V36H359.684V33ZM356.084 22.2H359.084V25.2H356.084V22.2ZM352.484 22.2H355.484V25.2H352.484V22.2ZM348.884 22.2H351.884V25.2H348.884V22.2ZM345.284 18.6H348.284V21.6H345.284V18.6ZM345.284 22.2H348.284V25.2H345.284V22.2ZM345.284 25.8H348.284V28.8H345.284V25.8ZM345.284 29.4H348.284V32.4H345.284V29.4ZM345.284 33H348.284V36H345.284V33Z" fill="white"/>
<rect x="108.5" y="224.5" width="342" height="54" stroke="#5B65C2" stroke-width="3"/>
<rect x="1.5" y="1.5" width="449" height="277" stroke="#5B65C2" stroke-width="3"/>
</g>
<defs>
<clipPath id="clip0">
<rect width="452" height="280" fill="white"/>
</clipPath>
</defs>
</svg>
