<svg width="452" height="280" viewBox="0 0 452 280" fill="none" xmlns="http://www.w3.org/2000/svg">
<g clip-path="url(#clip0)">
<rect width="452" height="280" fill="white"/>
<rect width="452" height="47" fill="#5B65C2"/>
<path d="M49.9041 262.6H52.9041V265.6H49.9041V262.6ZM49.9041 233.8H52.9041V236.8H49.9041V233.8ZM49.9041 251.8H52.9041V254.8H49.9041V251.8ZM49.9041 255.4H52.9041V258.4H49.9041V255.4ZM49.9041 241H52.9041V244H49.9041V241ZM49.9041 244.6H52.9041V247.6H49.9041V244.6ZM57.1041 241H60.1041V244H57.1041V241ZM53.5041 237.4H56.5041V240.4H53.5041V237.4ZM49.9041 237.4H52.9041V240.4H49.9041V237.4ZM46.3041 237.4H49.3041V240.4H46.3041V237.4ZM42.7041 241H45.7041V244H42.7041V241ZM57.1041 251.8H60.1041V254.8H57.1041V251.8ZM57.1041 255.4H60.1041V258.4H57.1041V255.4ZM53.5041 248.2H56.5041V251.2H53.5041V248.2ZM53.5041 259H56.5041V262H53.5041V259ZM49.9041 248.2H52.9041V251.2H49.9041V248.2ZM49.9041 259H52.9041V262H49.9041V259ZM46.3041 248.2H49.3041V251.2H46.3041V248.2ZM46.3041 259H49.3041V262H46.3041V259ZM42.7041 244.6H45.7041V247.6H42.7041V244.6ZM42.7041 255.4H45.7041V258.4H42.7041V255.4ZM57.1041 241H60.1041V244H57.1041V241ZM53.5041 237.4H56.5041V240.4H53.5041V237.4ZM49.9041 237.4H52.9041V240.4H49.9041V237.4ZM46.3041 237.4H49.3041V240.4H46.3041V237.4ZM42.7041 241H45.7041V244H42.7041V241ZM57.1041 251.8H60.1041V254.8H57.1041V251.8ZM57.1041 255.4H60.1041V258.4H57.1041V255.4ZM53.5041 248.2H56.5041V251.2H53.5041V248.2ZM53.5041 259H56.5041V262H53.5041V259ZM49.9041 248.2H52.9041V251.2H49.9041V248.2ZM49.9041 259H52.9041V262H49.9041V259ZM46.3041 248.2H49.3041V251.2H46.3041V248.2ZM46.3041 259H49.3041V262H46.3041V259ZM42.7041 244.6H45.7041V247.6H42.7041V244.6ZM42.7041 255.4H45.7041V258.4H42.7041V255.4Z" fill="#5B65C2"/>
<path d="M47.1668 175.4H50.1668V178.4H47.1668V175.4ZM43.5668 175.4H46.5668V178.4H43.5668V175.4ZM43.5668 179H46.5668V182H43.5668V179ZM39.9668 175.4H42.9668V178.4H39.9668V175.4ZM47.1668 197H50.1668V200H47.1668V197ZM43.5668 182.6H46.5668V185.6H43.5668V182.6ZM43.5668 186.2H46.5668V189.2H43.5668V186.2ZM43.5668 189.8H46.5668V192.8H43.5668V189.8ZM43.5668 193.4H46.5668V196.4H43.5668V193.4ZM43.5668 197H46.5668V200H43.5668V197ZM39.9668 197H42.9668V200H39.9668V197ZM68.7809 175.4H71.7809V178.4H68.7809V175.4ZM68.7809 179H71.7809V182H68.7809V179ZM54.3809 175.4H57.3809V178.4H54.3809V175.4ZM54.3809 179H57.3809V182H54.3809V179ZM68.7809 182.6H71.7809V185.6H68.7809V182.6ZM68.7809 186.2H71.7809V189.2H68.7809V186.2ZM68.7809 189.8H71.7809V192.8H68.7809V189.8ZM68.7809 193.4H71.7809V196.4H68.7809V193.4ZM68.7809 197H71.7809V200H68.7809V197ZM65.1809 189.8H68.1809V192.8H65.1809V189.8ZM61.5809 186.2H64.5809V189.2H61.5809V186.2ZM57.9809 182.6H60.9809V185.6H57.9809V182.6ZM54.3809 182.6H57.3809V185.6H54.3809V182.6ZM54.3809 186.2H57.3809V189.2H54.3809V186.2ZM54.3809 189.8H57.3809V192.8H54.3809V189.8ZM54.3809 193.4H57.3809V196.4H54.3809V193.4ZM54.3809 197H57.3809V200H54.3809V197ZM90.3727 179H93.3727V182H90.3727V179ZM86.7727 175.4H89.7727V178.4H86.7727V175.4ZM83.1727 175.4H86.1727V178.4H83.1727V175.4ZM79.5727 175.4H82.5727V178.4H79.5727V175.4ZM75.9727 179H78.9727V182H75.9727V179ZM90.3727 189.8H93.3727V192.8H90.3727V189.8ZM90.3727 193.4H93.3727V196.4H90.3727V193.4ZM86.7727 189.8H89.7727V192.8H86.7727V189.8ZM86.7727 197H89.7727V200H86.7727V197ZM83.1727 197H86.1727V200H83.1727V197ZM79.5727 197H82.5727V200H79.5727V197ZM75.9727 182.6H78.9727V185.6H75.9727V182.6ZM75.9727 186.2H78.9727V189.2H75.9727V186.2ZM75.9727 189.8H78.9727V192.8H75.9727V189.8ZM75.9727 193.4H78.9727V196.4H75.9727V193.4ZM111.964 179H114.964V182H111.964V179ZM108.364 175.4H111.364V178.4H108.364V175.4ZM104.764 175.4H107.764V178.4H104.764V175.4ZM101.164 175.4H104.164V178.4H101.164V175.4ZM97.5645 175.4H100.564V178.4H97.5645V175.4ZM97.5645 179H100.564V182H97.5645V179ZM111.964 182.6H114.964V185.6H111.964V182.6ZM111.964 197H114.964V200H111.964V197ZM108.364 186.2H111.364V189.2H108.364V186.2ZM108.364 193.4H111.364V196.4H108.364V193.4ZM104.764 186.2H107.764V189.2H104.764V186.2ZM104.764 189.8H107.764V192.8H104.764V189.8ZM101.164 186.2H104.164V189.2H101.164V186.2ZM97.5645 182.6H100.564V185.6H97.5645V182.6ZM97.5645 186.2H100.564V189.2H97.5645V186.2ZM97.5645 189.8H100.564V192.8H97.5645V189.8ZM97.5645 193.4H100.564V196.4H97.5645V193.4ZM97.5645 197H100.564V200H97.5645V197ZM133.556 175.4H136.556V178.4H133.556V175.4ZM129.956 175.4H132.956V178.4H129.956V175.4ZM126.356 175.4H129.356V178.4H126.356V175.4ZM122.756 175.4H125.756V178.4H122.756V175.4ZM119.156 175.4H122.156V178.4H119.156V175.4ZM119.156 179H122.156V182H119.156V179ZM133.556 197H136.556V200H133.556V197ZM129.956 186.2H132.956V189.2H129.956V186.2ZM129.956 197H132.956V200H129.956V197ZM126.356 186.2H129.356V189.2H126.356V186.2ZM126.356 197H129.356V200H126.356V197ZM122.756 186.2H125.756V189.2H122.756V186.2ZM122.756 197H125.756V200H122.756V197ZM119.156 182.6H122.156V185.6H119.156V182.6ZM119.156 186.2H122.156V189.2H119.156V186.2ZM119.156 189.8H122.156V192.8H119.156V189.8ZM119.156 193.4H122.156V196.4H119.156V193.4ZM119.156 197H122.156V200H119.156V197ZM155.148 179H158.148V182H155.148V179ZM151.548 175.4H154.548V178.4H151.548V175.4ZM147.948 175.4H150.948V178.4H147.948V175.4ZM144.348 175.4H147.348V178.4H144.348V175.4ZM140.748 179H143.748V182H140.748V179ZM155.148 189.8H158.148V192.8H155.148V189.8ZM155.148 193.4H158.148V196.4H155.148V193.4ZM151.548 186.2H154.548V189.2H151.548V186.2ZM151.548 197H154.548V200H151.548V197ZM147.948 186.2H150.948V189.2H147.948V186.2ZM147.948 197H150.948V200H147.948V197ZM144.348 186.2H147.348V189.2H144.348V186.2ZM144.348 197H147.348V200H144.348V197ZM140.748 182.6H143.748V185.6H140.748V182.6ZM140.748 193.4H143.748V196.4H140.748V193.4ZM176.74 175.4H179.74V178.4H176.74V175.4ZM173.14 175.4H176.14V178.4H173.14V175.4ZM169.54 175.4H172.54V178.4H169.54V175.4ZM165.94 175.4H168.94V178.4H165.94V175.4ZM162.34 175.4H165.34V178.4H162.34V175.4ZM162.34 179H165.34V182H162.34V179ZM176.74 197H179.74V200H176.74V197ZM173.14 186.2H176.14V189.2H173.14V186.2ZM173.14 197H176.14V200H173.14V197ZM169.54 186.2H172.54V189.2H169.54V186.2ZM169.54 197H172.54V200H169.54V197ZM165.94 186.2H168.94V189.2H165.94V186.2ZM165.94 197H168.94V200H165.94V197ZM162.34 182.6H165.34V185.6H162.34V182.6ZM162.34 186.2H165.34V189.2H162.34V186.2ZM162.34 189.8H165.34V192.8H162.34V189.8ZM162.34 193.4H165.34V196.4H162.34V193.4ZM162.34 197H165.34V200H162.34V197ZM210.923 175.4H213.923V178.4H210.923V175.4ZM210.923 179H213.923V182H210.923V179ZM207.323 179H210.323V182H207.323V179ZM200.123 179H203.123V182H200.123V179ZM196.523 175.4H199.523V178.4H196.523V175.4ZM196.523 179H199.523V182H196.523V179ZM210.923 182.6H213.923V185.6H210.923V182.6ZM210.923 186.2H213.923V189.2H210.923V186.2ZM210.923 189.8H213.923V192.8H210.923V189.8ZM210.923 193.4H213.923V196.4H210.923V193.4ZM210.923 197H213.923V200H210.923V197ZM203.723 182.6H206.723V185.6H203.723V182.6ZM203.723 186.2H206.723V189.2H203.723V186.2ZM196.523 182.6H199.523V185.6H196.523V182.6ZM196.523 186.2H199.523V189.2H196.523V186.2ZM196.523 189.8H199.523V192.8H196.523V189.8ZM196.523 193.4H199.523V196.4H196.523V193.4ZM196.523 197H199.523V200H196.523V197ZM232.515 179H235.515V182H232.515V179ZM228.915 175.4H231.915V178.4H228.915V175.4ZM225.315 175.4H228.315V178.4H225.315V175.4ZM221.715 175.4H224.715V178.4H221.715V175.4ZM218.115 179H221.115V182H218.115V179ZM232.515 182.6H235.515V185.6H232.515V182.6ZM232.515 186.2H235.515V189.2H232.515V186.2ZM232.515 189.8H235.515V192.8H232.515V189.8ZM232.515 193.4H235.515V196.4H232.515V193.4ZM228.915 197H231.915V200H228.915V197ZM225.315 197H228.315V200H225.315V197ZM221.715 197H224.715V200H221.715V197ZM218.115 182.6H221.115V185.6H218.115V182.6ZM218.115 186.2H221.115V189.2H218.115V186.2ZM218.115 189.8H221.115V192.8H218.115V189.8ZM218.115 193.4H221.115V196.4H218.115V193.4ZM254.107 175.4H257.107V178.4H254.107V175.4ZM254.107 179H257.107V182H254.107V179ZM239.707 175.4H242.707V178.4H239.707V175.4ZM239.707 179H242.707V182H239.707V179ZM254.107 182.6H257.107V185.6H254.107V182.6ZM254.107 186.2H257.107V189.2H254.107V186.2ZM254.107 189.8H257.107V192.8H254.107V189.8ZM254.107 193.4H257.107V196.4H254.107V193.4ZM254.107 197H257.107V200H254.107V197ZM250.507 189.8H253.507V192.8H250.507V189.8ZM246.907 186.2H249.907V189.2H246.907V186.2ZM243.307 182.6H246.307V185.6H243.307V182.6ZM239.707 182.6H242.707V185.6H239.707V182.6ZM239.707 186.2H242.707V189.2H239.707V186.2ZM239.707 189.8H242.707V192.8H239.707V189.8ZM239.707 193.4H242.707V196.4H239.707V193.4ZM239.707 197H242.707V200H239.707V197ZM275.699 175.4H278.699V178.4H275.699V175.4ZM272.099 175.4H275.099V178.4H272.099V175.4ZM268.499 175.4H271.499V178.4H268.499V175.4ZM268.499 179H271.499V182H268.499V179ZM264.899 175.4H267.899V178.4H264.899V175.4ZM261.299 175.4H264.299V178.4H261.299V175.4ZM268.499 182.6H271.499V185.6H268.499V182.6ZM268.499 186.2H271.499V189.2H268.499V186.2ZM268.499 189.8H271.499V192.8H268.499V189.8ZM268.499 193.4H271.499V196.4H268.499V193.4ZM268.499 197H271.499V200H268.499V197ZM297.291 179H300.291V182H297.291V179ZM293.691 175.4H296.691V178.4H293.691V175.4ZM290.091 175.4H293.091V178.4H290.091V175.4ZM286.491 175.4H289.491V178.4H286.491V175.4ZM282.891 179H285.891V182H282.891V179ZM297.291 182.6H300.291V185.6H297.291V182.6ZM297.291 186.2H300.291V189.2H297.291V186.2ZM297.291 189.8H300.291V192.8H297.291V189.8ZM297.291 193.4H300.291V196.4H297.291V193.4ZM293.691 197H296.691V200H293.691V197ZM290.091 197H293.091V200H290.091V197ZM286.491 197H289.491V200H286.491V197ZM282.891 182.6H285.891V185.6H282.891V182.6ZM282.891 186.2H285.891V189.2H282.891V186.2ZM282.891 189.8H285.891V192.8H282.891V189.8ZM282.891 193.4H285.891V196.4H282.891V193.4ZM331.474 175.4H334.474V178.4H331.474V175.4ZM327.874 175.4H330.874V178.4H327.874V175.4ZM324.274 175.4H327.274V178.4H324.274V175.4ZM324.274 179H327.274V182H324.274V179ZM320.674 175.4H323.674V178.4H320.674V175.4ZM317.074 175.4H320.074V178.4H317.074V175.4ZM324.274 182.6H327.274V185.6H324.274V182.6ZM324.274 186.2H327.274V189.2H324.274V186.2ZM324.274 189.8H327.274V192.8H324.274V189.8ZM324.274 193.4H327.274V196.4H324.274V193.4ZM324.274 197H327.274V200H324.274V197ZM353.066 179H356.066V182H353.066V179ZM349.466 175.4H352.466V178.4H349.466V175.4ZM345.866 175.4H348.866V178.4H345.866V175.4ZM342.266 175.4H345.266V178.4H342.266V175.4ZM338.666 179H341.666V182H338.666V179ZM353.066 182.6H356.066V185.6H353.066V182.6ZM353.066 186.2H356.066V189.2H353.066V186.2ZM353.066 189.8H356.066V192.8H353.066V189.8ZM353.066 193.4H356.066V196.4H353.066V193.4ZM349.466 197H352.466V200H349.466V197ZM345.866 197H348.866V200H345.866V197ZM342.266 197H345.266V200H342.266V197ZM338.666 182.6H341.666V185.6H338.666V182.6ZM338.666 186.2H341.666V189.2H338.666V186.2ZM338.666 189.8H341.666V192.8H338.666V189.8ZM338.666 193.4H341.666V196.4H338.666V193.4ZM374.658 175.4H377.658V178.4H374.658V175.4ZM371.058 175.4H374.058V178.4H371.058V175.4ZM367.458 175.4H370.458V178.4H367.458V175.4ZM367.458 179H370.458V182H367.458V179ZM363.858 175.4H366.858V178.4H363.858V175.4ZM360.258 175.4H363.258V178.4H360.258V175.4ZM367.458 182.6H370.458V185.6H367.458V182.6ZM367.458 186.2H370.458V189.2H367.458V186.2ZM367.458 189.8H370.458V192.8H367.458V189.8ZM367.458 193.4H370.458V196.4H367.458V193.4ZM367.458 197H370.458V200H367.458V197ZM396.25 179H399.25V182H396.25V179ZM392.65 175.4H395.65V178.4H392.65V175.4ZM389.05 175.4H392.05V178.4H389.05V175.4ZM385.45 175.4H388.45V178.4H385.45V175.4ZM381.85 179H384.85V182H381.85V179ZM396.25 182.6H399.25V185.6H396.25V182.6ZM396.25 186.2H399.25V189.2H396.25V186.2ZM396.25 189.8H399.25V192.8H396.25V189.8ZM396.25 193.4H399.25V196.4H396.25V193.4ZM396.25 197H399.25V200H396.25V197ZM392.65 186.2H395.65V189.2H392.65V186.2ZM389.05 186.2H392.05V189.2H389.05V186.2ZM385.45 186.2H388.45V189.2H385.45V186.2ZM381.85 182.6H384.85V185.6H381.85V182.6ZM381.85 186.2H384.85V189.2H381.85V186.2ZM381.85 189.8H384.85V192.8H381.85V189.8ZM381.85 193.4H384.85V196.4H381.85V193.4ZM381.85 197H384.85V200H381.85V197ZM403.441 175.4H406.441V178.4H403.441V175.4ZM403.441 179H406.441V182H403.441V179ZM417.841 197H420.841V200H417.841V197ZM414.241 197H417.241V200H414.241V197ZM410.641 197H413.641V200H410.641V197ZM407.041 197H410.041V200H407.041V197ZM403.441 182.6H406.441V185.6H403.441V182.6ZM403.441 186.2H406.441V189.2H403.441V186.2ZM403.441 189.8H406.441V192.8H403.441V189.8ZM403.441 193.4H406.441V196.4H403.441V193.4ZM403.441 197H406.441V200H403.441V197Z" fill="#5B65C2"/>
<path d="M93.7281 15H96.7281V18H93.7281V15ZM90.1281 11.4H93.1281V14.4H90.1281V11.4ZM86.5281 11.4H89.5281V14.4H86.5281V11.4ZM82.9281 11.4H85.9281V14.4H82.9281V11.4ZM79.3281 15H82.3281V18H79.3281V15ZM93.7281 29.4H96.7281V32.4H93.7281V29.4ZM90.1281 33H93.1281V36H90.1281V33ZM86.5281 33H89.5281V36H86.5281V33ZM82.9281 33H85.9281V36H82.9281V33ZM79.3281 18.6H82.3281V21.6H79.3281V18.6ZM79.3281 22.2H82.3281V25.2H79.3281V22.2ZM79.3281 25.8H82.3281V28.8H79.3281V25.8ZM79.3281 29.4H82.3281V32.4H79.3281V29.4ZM115.32 11.4H118.32V14.4H115.32V11.4ZM115.32 15H118.32V18H115.32V15ZM100.92 11.4H103.92V14.4H100.92V11.4ZM100.92 15H103.92V18H100.92V15ZM115.32 18.6H118.32V21.6H115.32V18.6ZM115.32 22.2H118.32V25.2H115.32V22.2ZM115.32 25.8H118.32V28.8H115.32V25.8ZM115.32 29.4H118.32V32.4H115.32V29.4ZM111.72 33H114.72V36H111.72V33ZM108.12 33H111.12V36H108.12V33ZM104.52 33H107.52V36H104.52V33ZM100.92 18.6H103.92V21.6H100.92V18.6ZM100.92 22.2H103.92V25.2H100.92V22.2ZM100.92 25.8H103.92V28.8H100.92V25.8ZM100.92 29.4H103.92V32.4H100.92V29.4ZM136.912 11.4H139.912V14.4H136.912V11.4ZM133.312 11.4H136.312V14.4H133.312V11.4ZM129.712 11.4H132.712V14.4H129.712V11.4ZM126.112 11.4H129.112V14.4H126.112V11.4ZM122.512 11.4H125.512V14.4H122.512V11.4ZM122.512 15H125.512V18H122.512V15ZM136.912 33H139.912V36H136.912V33ZM133.312 22.2H136.312V25.2H133.312V22.2ZM133.312 33H136.312V36H133.312V33ZM129.712 22.2H132.712V25.2H129.712V22.2ZM129.712 33H132.712V36H129.712V33ZM126.112 22.2H129.112V25.2H126.112V22.2ZM126.112 33H129.112V36H126.112V33ZM122.512 18.6H125.512V21.6H122.512V18.6ZM122.512 22.2H125.512V25.2H122.512V22.2ZM122.512 25.8H125.512V28.8H122.512V25.8ZM122.512 29.4H125.512V32.4H122.512V29.4ZM122.512 33H125.512V36H122.512V33ZM158.504 11.4H161.504V14.4H158.504V11.4ZM158.504 15H161.504V18H158.504V15ZM144.104 11.4H147.104V14.4H144.104V11.4ZM144.104 15H147.104V18H144.104V15ZM158.504 18.6H161.504V21.6H158.504V18.6ZM158.504 22.2H161.504V25.2H158.504V22.2ZM158.504 25.8H161.504V28.8H158.504V25.8ZM158.504 29.4H161.504V32.4H158.504V29.4ZM158.504 33H161.504V36H158.504V33ZM154.904 25.8H157.904V28.8H154.904V25.8ZM151.304 22.2H154.304V25.2H151.304V22.2ZM147.704 18.6H150.704V21.6H147.704V18.6ZM144.104 18.6H147.104V21.6H144.104V18.6ZM144.104 22.2H147.104V25.2H144.104V22.2ZM144.104 25.8H147.104V28.8H144.104V25.8ZM144.104 29.4H147.104V32.4H144.104V29.4ZM144.104 33H147.104V36H144.104V33ZM180.095 11.4H183.095V14.4H180.095V11.4ZM176.495 11.4H179.495V14.4H176.495V11.4ZM172.895 11.4H175.895V14.4H172.895V11.4ZM172.895 15H175.895V18H172.895V15ZM169.295 11.4H172.295V14.4H169.295V11.4ZM165.695 11.4H168.695V14.4H165.695V11.4ZM172.895 18.6H175.895V21.6H172.895V18.6ZM172.895 22.2H175.895V25.2H172.895V22.2ZM172.895 25.8H175.895V28.8H172.895V25.8ZM172.895 29.4H175.895V32.4H172.895V29.4ZM172.895 33H175.895V36H172.895V33ZM201.687 15H204.687V18H201.687V15ZM198.087 11.4H201.087V14.4H198.087V11.4ZM194.487 11.4H197.487V14.4H194.487V11.4ZM190.887 11.4H193.887V14.4H190.887V11.4ZM187.287 15H190.287V18H187.287V15ZM201.687 18.6H204.687V21.6H201.687V18.6ZM201.687 22.2H204.687V25.2H201.687V22.2ZM201.687 25.8H204.687V28.8H201.687V25.8ZM201.687 29.4H204.687V32.4H201.687V29.4ZM201.687 33H204.687V36H201.687V33ZM198.087 22.2H201.087V25.2H198.087V22.2ZM194.487 22.2H197.487V25.2H194.487V22.2ZM190.887 22.2H193.887V25.2H190.887V22.2ZM187.287 18.6H190.287V21.6H187.287V18.6ZM187.287 22.2H190.287V25.2H187.287V22.2ZM187.287 25.8H190.287V28.8H187.287V25.8ZM187.287 29.4H190.287V32.4H187.287V29.4ZM187.287 33H190.287V36H187.287V33ZM235.871 15H238.871V18H235.871V15ZM232.271 11.4H235.271V14.4H232.271V11.4ZM228.671 11.4H231.671V14.4H228.671V11.4ZM225.071 11.4H228.071V14.4H225.071V11.4ZM221.471 11.4H224.471V14.4H221.471V11.4ZM221.471 15H224.471V18H221.471V15ZM235.871 18.6H238.871V21.6H235.871V18.6ZM235.871 22.2H238.871V25.2H235.871V22.2ZM235.871 25.8H238.871V28.8H235.871V25.8ZM235.871 29.4H238.871V32.4H235.871V29.4ZM232.271 33H235.271V36H232.271V33ZM228.671 33H231.671V36H228.671V33ZM225.071 33H228.071V36H225.071V33ZM221.471 18.6H224.471V21.6H221.471V18.6ZM221.471 22.2H224.471V25.2H221.471V22.2ZM221.471 25.8H224.471V28.8H221.471V25.8ZM221.471 29.4H224.471V32.4H221.471V29.4ZM221.471 33H224.471V36H221.471V33ZM250.263 11.4H253.263V14.4H250.263V11.4ZM246.663 11.4H249.663V14.4H246.663V11.4ZM246.663 15H249.663V18H246.663V15ZM243.062 11.4H246.063V14.4H243.062V11.4ZM250.263 33H253.263V36H250.263V33ZM246.663 18.6H249.663V21.6H246.663V18.6ZM246.663 22.2H249.663V25.2H246.663V22.2ZM246.663 25.8H249.663V28.8H246.663V25.8ZM246.663 29.4H249.663V32.4H246.663V29.4ZM246.663 33H249.663V36H246.663V33ZM243.062 33H246.063V36H243.062V33ZM271.877 11.4H274.877V14.4H271.877V11.4ZM271.877 15H274.877V18H271.877V15ZM257.477 11.4H260.477V14.4H257.477V11.4ZM257.477 15H260.477V18H257.477V15ZM271.877 18.6H274.877V21.6H271.877V18.6ZM271.877 22.2H274.877V25.2H271.877V22.2ZM271.877 25.8H274.877V28.8H271.877V25.8ZM268.277 29.4H271.277V32.4H268.277V29.4ZM264.677 33H267.677V36H264.677V33ZM261.077 29.4H264.077V32.4H261.077V29.4ZM257.477 18.6H260.477V21.6H257.477V18.6ZM257.477 22.2H260.477V25.2H257.477V22.2ZM257.477 25.8H260.477V28.8H257.477V25.8ZM286.268 11.4H289.268V14.4H286.268V11.4ZM282.668 11.4H285.668V14.4H282.668V11.4ZM282.668 15H285.668V18H282.668V15ZM279.068 11.4H282.068V14.4H279.068V11.4ZM286.268 33H289.268V36H286.268V33ZM282.668 18.6H285.668V21.6H282.668V18.6ZM282.668 22.2H285.668V25.2H282.668V22.2ZM282.668 25.8H285.668V28.8H282.668V25.8ZM282.668 29.4H285.668V32.4H282.668V29.4ZM282.668 33H285.668V36H282.668V33ZM279.068 33H282.068V36H279.068V33ZM307.882 15H310.882V18H307.882V15ZM304.282 11.4H307.282V14.4H304.282V11.4ZM300.682 11.4H303.682V14.4H300.682V11.4ZM297.082 11.4H300.082V14.4H297.082V11.4ZM293.482 11.4H296.482V14.4H293.482V11.4ZM293.482 15H296.482V18H293.482V15ZM307.882 18.6H310.882V21.6H307.882V18.6ZM307.882 22.2H310.882V25.2H307.882V22.2ZM307.882 25.8H310.882V28.8H307.882V25.8ZM307.882 29.4H310.882V32.4H307.882V29.4ZM304.282 33H307.282V36H304.282V33ZM300.682 33H303.682V36H300.682V33ZM297.082 33H300.082V36H297.082V33ZM293.482 18.6H296.482V21.6H293.482V18.6ZM293.482 22.2H296.482V25.2H293.482V22.2ZM293.482 25.8H296.482V28.8H293.482V25.8ZM293.482 29.4H296.482V32.4H293.482V29.4ZM293.482 33H296.482V36H293.482V33ZM322.274 11.4H325.274V14.4H322.274V11.4ZM318.674 11.4H321.674V14.4H318.674V11.4ZM318.674 15H321.674V18H318.674V15ZM315.074 11.4H318.074V14.4H315.074V11.4ZM322.274 33H325.274V36H322.274V33ZM318.674 18.6H321.674V21.6H318.674V18.6ZM318.674 22.2H321.674V25.2H318.674V22.2ZM318.674 25.8H321.674V28.8H318.674V25.8ZM318.674 29.4H321.674V32.4H318.674V29.4ZM318.674 33H321.674V36H318.674V33ZM315.074 33H318.074V36H315.074V33ZM343.888 15H346.888V18H343.888V15ZM340.288 11.4H343.288V14.4H340.288V11.4ZM336.688 11.4H339.688V14.4H336.688V11.4ZM333.088 11.4H336.088V14.4H333.088V11.4ZM329.488 11.4H332.488V14.4H329.488V11.4ZM329.488 15H332.488V18H329.488V15ZM343.888 18.6H346.888V21.6H343.888V18.6ZM343.888 22.2H346.888V25.2H343.888V22.2ZM343.888 25.8H346.888V28.8H343.888V25.8ZM343.888 29.4H346.888V32.4H343.888V29.4ZM340.288 33H343.288V36H340.288V33ZM336.688 33H339.688V36H336.688V33ZM333.088 33H336.088V36H333.088V33ZM329.488 18.6H332.488V21.6H329.488V18.6ZM329.488 22.2H332.488V25.2H329.488V22.2ZM329.488 25.8H332.488V28.8H329.488V25.8ZM329.488 29.4H332.488V32.4H329.488V29.4ZM329.488 33H332.488V36H329.488V33ZM365.48 15H368.48V18H365.48V15ZM361.88 11.4H364.88V14.4H361.88V11.4ZM358.28 11.4H361.28V14.4H358.28V11.4ZM354.68 11.4H357.68V14.4H354.68V11.4ZM351.08 15H354.08V18H351.08V15ZM365.48 18.6H368.48V21.6H365.48V18.6ZM365.48 22.2H368.48V25.2H365.48V22.2ZM365.48 25.8H368.48V28.8H365.48V25.8ZM365.48 29.4H368.48V32.4H365.48V29.4ZM365.48 33H368.48V36H365.48V33ZM361.88 22.2H364.88V25.2H361.88V22.2ZM358.28 22.2H361.28V25.2H358.28V22.2ZM354.68 22.2H357.68V25.2H354.68V22.2ZM351.08 18.6H354.08V21.6H351.08V18.6ZM351.08 22.2H354.08V25.2H351.08V22.2ZM351.08 25.8H354.08V28.8H351.08V25.8ZM351.08 29.4H354.08V32.4H351.08V29.4ZM351.08 33H354.08V36H351.08V33Z" fill="white"/>
<rect x="108.5" y="224.5" width="342" height="54" stroke="#5B65C2" stroke-width="3"/>
<rect x="1.5" y="1.5" width="449" height="277" stroke="#5B65C2" stroke-width="3"/>
</g>
<defs>
<clipPath id="clip0">
<rect width="452" height="280" fill="white"/>
</clipPath>
</defs>
</svg>
