<svg width="452" height="280" viewBox="0 0 452 280" fill="none" xmlns="http://www.w3.org/2000/svg">
<rect width="452" height="280" fill="white"/>
<rect width="452" height="47" fill="#5B65C2"/>
<path d="M56.8404 11.4H59.8404V14.4H56.8404V11.4ZM56.8404 15H59.8404V18H56.8404V15ZM42.4404 11.4H45.4404V14.4H42.4404V11.4ZM42.4404 15H45.4404V18H42.4404V15ZM56.8404 18.6H59.8404V21.6H56.8404V18.6ZM56.8404 22.2H59.8404V25.2H56.8404V22.2ZM56.8404 25.8H59.8404V28.8H56.8404V25.8ZM53.2404 29.4H56.2404V32.4H53.2404V29.4ZM49.6404 33H52.6404V36H49.6404V33ZM46.0404 29.4H49.0404V32.4H46.0404V29.4ZM42.4404 18.6H45.4404V21.6H42.4404V18.6ZM42.4404 22.2H45.4404V25.2H42.4404V22.2ZM42.4404 25.8H45.4404V28.8H42.4404V25.8ZM78.4322 11.4H81.4322V14.4H78.4322V11.4ZM74.8322 11.4H77.8322V14.4H74.8322V11.4ZM71.2322 11.4H74.2322V14.4H71.2322V11.4ZM67.6322 11.4H70.6322V14.4H67.6322V11.4ZM64.0322 11.4H67.0322V14.4H64.0322V11.4ZM64.0322 15H67.0322V18H64.0322V15ZM78.4322 33H81.4322V36H78.4322V33ZM74.8322 22.2H77.8322V25.2H74.8322V22.2ZM74.8322 33H77.8322V36H74.8322V33ZM71.2322 22.2H74.2322V25.2H71.2322V22.2ZM71.2322 33H74.2322V36H71.2322V33ZM67.6322 22.2H70.6322V25.2H67.6322V22.2ZM67.6322 33H70.6322V36H67.6322V33ZM64.0322 18.6H67.0322V21.6H64.0322V18.6ZM64.0322 22.2H67.0322V25.2H64.0322V22.2ZM64.0322 25.8H67.0322V28.8H64.0322V25.8ZM64.0322 29.4H67.0322V32.4H64.0322V29.4ZM64.0322 33H67.0322V36H64.0322V33ZM100.024 11.4H103.024V14.4H100.024V11.4ZM100.024 15H103.024V18H100.024V15ZM85.624 11.4H88.624V14.4H85.624V11.4ZM85.624 15H88.624V18H85.624V15ZM100.024 18.6H103.024V21.6H100.024V18.6ZM100.024 22.2H103.024V25.2H100.024V22.2ZM100.024 25.8H103.024V28.8H100.024V25.8ZM100.024 29.4H103.024V32.4H100.024V29.4ZM100.024 33H103.024V36H100.024V33ZM96.424 25.8H99.424V28.8H96.424V25.8ZM92.824 22.2H95.824V25.2H92.824V22.2ZM89.224 18.6H92.224V21.6H89.224V18.6ZM85.624 18.6H88.624V21.6H85.624V18.6ZM85.624 22.2H88.624V25.2H85.624V22.2ZM85.624 25.8H88.624V28.8H85.624V25.8ZM85.624 29.4H88.624V32.4H85.624V29.4ZM85.624 33H88.624V36H85.624V33ZM121.616 11.4H124.616V14.4H121.616V11.4ZM118.016 11.4H121.016V14.4H118.016V11.4ZM114.416 11.4H117.416V14.4H114.416V11.4ZM114.416 15H117.416V18H114.416V15ZM110.816 11.4H113.816V14.4H110.816V11.4ZM107.216 11.4H110.216V14.4H107.216V11.4ZM114.416 18.6H117.416V21.6H114.416V18.6ZM114.416 22.2H117.416V25.2H114.416V22.2ZM114.416 25.8H117.416V28.8H114.416V25.8ZM114.416 29.4H117.416V32.4H114.416V29.4ZM114.416 33H117.416V36H114.416V33ZM143.208 15H146.208V18H143.208V15ZM139.608 11.4H142.608V14.4H139.608V11.4ZM136.008 11.4H139.008V14.4H136.008V11.4ZM132.408 11.4H135.408V14.4H132.408V11.4ZM128.808 15H131.808V18H128.808V15ZM143.208 18.6H146.208V21.6H143.208V18.6ZM143.208 22.2H146.208V25.2H143.208V22.2ZM143.208 25.8H146.208V28.8H143.208V25.8ZM143.208 29.4H146.208V32.4H143.208V29.4ZM143.208 33H146.208V36H143.208V33ZM139.608 22.2H142.608V25.2H139.608V22.2ZM136.008 22.2H139.008V25.2H136.008V22.2ZM132.408 22.2H135.408V25.2H132.408V22.2ZM128.808 18.6H131.808V21.6H128.808V18.6ZM128.808 22.2H131.808V25.2H128.808V22.2ZM128.808 25.8H131.808V28.8H128.808V25.8ZM128.808 29.4H131.808V32.4H128.808V29.4ZM128.808 33H131.808V36H128.808V33ZM186.391 15H189.391V18H186.391V15ZM182.791 11.4H185.791V14.4H182.791V11.4ZM179.191 11.4H182.191V14.4H179.191V11.4ZM175.591 11.4H178.591V14.4H175.591V11.4ZM171.991 11.4H174.991V14.4H171.991V11.4ZM171.991 15H174.991V18H171.991V15ZM186.391 18.6H189.391V21.6H186.391V18.6ZM186.391 22.2H189.391V25.2H186.391V22.2ZM186.391 25.8H189.391V28.8H186.391V25.8ZM186.391 29.4H189.391V32.4H186.391V29.4ZM182.791 33H185.791V36H182.791V33ZM179.191 33H182.191V36H179.191V33ZM175.591 33H178.591V36H175.591V33ZM171.991 18.6H174.991V21.6H171.991V18.6ZM171.991 22.2H174.991V25.2H171.991V22.2ZM171.991 25.8H174.991V28.8H171.991V25.8ZM171.991 29.4H174.991V32.4H171.991V29.4ZM171.991 33H174.991V36H171.991V33ZM200.783 11.4H203.783V14.4H200.783V11.4ZM197.183 11.4H200.183V14.4H197.183V11.4ZM197.183 15H200.183V18H197.183V15ZM193.583 11.4H196.583V14.4H193.583V11.4ZM200.783 33H203.783V36H200.783V33ZM197.183 18.6H200.183V21.6H197.183V18.6ZM197.183 22.2H200.183V25.2H197.183V22.2ZM197.183 25.8H200.183V28.8H197.183V25.8ZM197.183 29.4H200.183V32.4H197.183V29.4ZM197.183 33H200.183V36H197.183V33ZM193.583 33H196.583V36H193.583V33ZM222.397 11.4H225.397V14.4H222.397V11.4ZM222.397 15H225.397V18H222.397V15ZM207.997 11.4H210.997V14.4H207.997V11.4ZM207.997 15H210.997V18H207.997V15ZM222.397 18.6H225.397V21.6H222.397V18.6ZM222.397 22.2H225.397V25.2H222.397V22.2ZM222.397 25.8H225.397V28.8H222.397V25.8ZM218.797 29.4H221.797V32.4H218.797V29.4ZM215.197 33H218.197V36H215.197V33ZM211.597 29.4H214.597V32.4H211.597V29.4ZM207.997 18.6H210.997V21.6H207.997V18.6ZM207.997 22.2H210.997V25.2H207.997V22.2ZM207.997 25.8H210.997V28.8H207.997V25.8ZM236.789 11.4H239.789V14.4H236.789V11.4ZM233.189 11.4H236.189V14.4H233.189V11.4ZM233.189 15H236.189V18H233.189V15ZM229.589 11.4H232.589V14.4H229.589V11.4ZM236.789 33H239.789V36H236.789V33ZM233.189 18.6H236.189V21.6H233.189V18.6ZM233.189 22.2H236.189V25.2H233.189V22.2ZM233.189 25.8H236.189V28.8H233.189V25.8ZM233.189 29.4H236.189V32.4H233.189V29.4ZM233.189 33H236.189V36H233.189V33ZM229.589 33H232.589V36H229.589V33ZM258.403 15H261.403V18H258.403V15ZM254.803 11.4H257.803V14.4H254.803V11.4ZM251.203 11.4H254.203V14.4H251.203V11.4ZM247.603 11.4H250.603V14.4H247.603V11.4ZM244.003 11.4H247.003V14.4H244.003V11.4ZM244.003 15H247.003V18H244.003V15ZM258.403 18.6H261.403V21.6H258.403V18.6ZM258.403 22.2H261.403V25.2H258.403V22.2ZM258.403 25.8H261.403V28.8H258.403V25.8ZM258.403 29.4H261.403V32.4H258.403V29.4ZM254.803 33H257.803V36H254.803V33ZM251.203 33H254.203V36H251.203V33ZM247.603 33H250.603V36H247.603V33ZM244.003 18.6H247.003V21.6H244.003V18.6ZM244.003 22.2H247.003V25.2H244.003V22.2ZM244.003 25.8H247.003V28.8H244.003V25.8ZM244.003 29.4H247.003V32.4H244.003V29.4ZM244.003 33H247.003V36H244.003V33ZM272.795 11.4H275.795V14.4H272.795V11.4ZM269.195 11.4H272.195V14.4H269.195V11.4ZM269.195 15H272.195V18H269.195V15ZM265.595 11.4H268.595V14.4H265.595V11.4ZM272.795 33H275.795V36H272.795V33ZM269.195 18.6H272.195V21.6H269.195V18.6ZM269.195 22.2H272.195V25.2H269.195V22.2ZM269.195 25.8H272.195V28.8H269.195V25.8ZM269.195 29.4H272.195V32.4H269.195V29.4ZM269.195 33H272.195V36H269.195V33ZM265.595 33H268.595V36H265.595V33ZM294.409 15H297.409V18H294.409V15ZM290.809 11.4H293.809V14.4H290.809V11.4ZM287.209 11.4H290.209V14.4H287.209V11.4ZM283.609 11.4H286.609V14.4H283.609V11.4ZM280.009 11.4H283.009V14.4H280.009V11.4ZM280.009 15H283.009V18H280.009V15ZM294.409 18.6H297.409V21.6H294.409V18.6ZM294.409 22.2H297.409V25.2H294.409V22.2ZM294.409 25.8H297.409V28.8H294.409V25.8ZM294.409 29.4H297.409V32.4H294.409V29.4ZM290.809 33H293.809V36H290.809V33ZM287.209 33H290.209V36H287.209V33ZM283.609 33H286.609V36H283.609V33ZM280.009 18.6H283.009V21.6H280.009V18.6ZM280.009 22.2H283.009V25.2H280.009V22.2ZM280.009 25.8H283.009V28.8H280.009V25.8ZM280.009 29.4H283.009V32.4H280.009V29.4ZM280.009 33H283.009V36H280.009V33ZM316.001 15H319.001V18H316.001V15ZM312.401 11.4H315.401V14.4H312.401V11.4ZM308.801 11.4H311.801V14.4H308.801V11.4ZM305.201 11.4H308.201V14.4H305.201V11.4ZM301.601 15H304.601V18H301.601V15ZM316.001 18.6H319.001V21.6H316.001V18.6ZM316.001 22.2H319.001V25.2H316.001V22.2ZM316.001 25.8H319.001V28.8H316.001V25.8ZM316.001 29.4H319.001V32.4H316.001V29.4ZM316.001 33H319.001V36H316.001V33ZM312.401 22.2H315.401V25.2H312.401V22.2ZM308.801 22.2H311.801V25.2H308.801V22.2ZM305.201 22.2H308.201V25.2H305.201V22.2ZM301.601 18.6H304.601V21.6H301.601V18.6ZM301.601 22.2H304.601V25.2H301.601V22.2ZM301.601 25.8H304.601V28.8H301.601V25.8ZM301.601 29.4H304.601V32.4H301.601V29.4ZM301.601 33H304.601V36H301.601V33ZM351.984 11.4H354.984V14.4H351.984V11.4ZM351.984 15H354.984V18H351.984V15ZM348.384 15H351.384V18H348.384V15ZM359.184 33H362.184V36H359.184V33ZM355.584 33H358.584V36H355.584V33ZM351.984 18.6H354.984V21.6H351.984V18.6ZM351.984 22.2H354.984V25.2H351.984V22.2ZM351.984 25.8H354.984V28.8H351.984V25.8ZM351.984 29.4H354.984V32.4H351.984V29.4ZM351.984 33H354.984V36H351.984V33ZM348.384 33H351.384V36H348.384V33ZM344.784 18.6H347.784V21.6H344.784V18.6ZM344.784 33H347.784V36H344.784V33ZM380.776 15H383.776V18H380.776V15ZM377.176 18.6H380.176V21.6H377.176V18.6ZM373.576 22.2H376.576V25.2H373.576V22.2ZM369.976 25.8H372.976V28.8H369.976V25.8ZM366.376 29.4H369.376V32.4H366.376V29.4ZM402.368 11.4H405.368V14.4H402.368V11.4ZM398.768 11.4H401.768V14.4H398.768V11.4ZM395.168 11.4H398.168V14.4H395.168V11.4ZM391.568 11.4H394.568V14.4H391.568V11.4ZM387.968 11.4H390.968V14.4H387.968V11.4ZM387.968 15H390.968V18H387.968V15ZM402.368 22.2H405.368V25.2H402.368V22.2ZM402.368 25.8H405.368V28.8H402.368V25.8ZM402.368 29.4H405.368V32.4H402.368V29.4ZM398.768 18.6H401.768V21.6H398.768V18.6ZM398.768 33H401.768V36H398.768V33ZM395.168 18.6H398.168V21.6H395.168V18.6ZM395.168 33H398.168V36H395.168V33ZM391.568 18.6H394.568V21.6H391.568V18.6ZM391.568 33H394.568V36H391.568V33ZM387.968 18.6H390.968V21.6H387.968V18.6ZM387.968 29.4H390.968V32.4H387.968V29.4Z" fill="white"/>
<rect x="1.5" y="1.5" width="449" height="277" stroke="#5B65C2" stroke-width="3"/>
<path d="M20.2 78.4H23.2V81.4H20.2V78.4ZM20.2 82H23.2V85H20.2V82ZM16.6 82H19.6V85H16.6V82ZM27.4 100H30.4V103H27.4V100ZM23.8 100H26.8V103H23.8V100ZM20.2 85.6H23.2V88.6H20.2V85.6ZM20.2 89.2H23.2V92.2H20.2V89.2ZM20.2 92.8H23.2V95.8H20.2V92.8ZM20.2 96.4H23.2V99.4H20.2V96.4ZM20.2 100H23.2V103H20.2V100ZM16.6 100H19.6V103H16.6V100ZM13 85.6H16V88.6H13V85.6ZM13 100H16V103H13V100ZM38.1918 96.4H41.1918V99.4H38.1918V96.4ZM38.1918 100H41.1918V103H38.1918V100ZM34.5918 96.4H37.5918V99.4H34.5918V96.4ZM34.5918 100H37.5918V103H34.5918V100ZM59.8023 78.4H62.8023V81.4H59.8023V78.4ZM59.8023 82H62.8023V85H59.8023V82ZM45.4023 78.4H48.4023V81.4H45.4023V78.4ZM45.4023 82H48.4023V85H45.4023V82ZM59.8023 85.6H62.8023V88.6H59.8023V85.6ZM59.8023 89.2H62.8023V92.2H59.8023V89.2ZM59.8023 92.8H62.8023V95.8H59.8023V92.8ZM56.2023 96.4H59.2023V99.4H56.2023V96.4ZM52.6023 100H55.6023V103H52.6023V100ZM49.0023 96.4H52.0023V99.4H49.0023V96.4ZM45.4023 85.6H48.4023V88.6H45.4023V85.6ZM45.4023 89.2H48.4023V92.2H45.4023V89.2ZM45.4023 92.8H48.4023V95.8H45.4023V92.8ZM74.1941 78.4H77.1941V81.4H74.1941V78.4ZM70.5941 78.4H73.5941V81.4H70.5941V78.4ZM70.5941 82H73.5941V85H70.5941V82ZM66.9941 78.4H69.9941V81.4H66.9941V78.4ZM74.1941 100H77.1941V103H74.1941V100ZM70.5941 85.6H73.5941V88.6H70.5941V85.6ZM70.5941 89.2H73.5941V92.2H70.5941V89.2ZM70.5941 92.8H73.5941V95.8H70.5941V92.8ZM70.5941 96.4H73.5941V99.4H70.5941V96.4ZM70.5941 100H73.5941V103H70.5941V100ZM66.9941 100H69.9941V103H66.9941V100ZM95.8082 82H98.8082V85H95.8082V82ZM92.2082 78.4H95.2082V81.4H92.2082V78.4ZM88.6082 78.4H91.6082V81.4H88.6082V78.4ZM85.0082 78.4H88.0082V81.4H85.0082V78.4ZM81.4082 82H84.4082V85H81.4082V82ZM95.8082 92.8H98.8082V95.8H95.8082V92.8ZM95.8082 96.4H98.8082V99.4H95.8082V96.4ZM92.2082 89.2H95.2082V92.2H92.2082V89.2ZM92.2082 100H95.2082V103H92.2082V100ZM88.6082 89.2H91.6082V92.2H88.6082V89.2ZM88.6082 100H91.6082V103H88.6082V100ZM85.0082 89.2H88.0082V92.2H85.0082V89.2ZM85.0082 100H88.0082V103H85.0082V100ZM81.4082 85.6H84.4082V88.6H81.4082V85.6ZM81.4082 96.4H84.4082V99.4H81.4082V96.4ZM117.4 82H120.4V85H117.4V82ZM113.8 78.4H116.8V81.4H113.8V78.4ZM110.2 78.4H113.2V81.4H110.2V78.4ZM106.6 78.4H109.6V81.4H106.6V78.4ZM103 82H106V85H103V82ZM117.4 85.6H120.4V88.6H117.4V85.6ZM117.4 89.2H120.4V92.2H117.4V89.2ZM117.4 92.8H120.4V95.8H117.4V92.8ZM117.4 96.4H120.4V99.4H117.4V96.4ZM117.4 100H120.4V103H117.4V100ZM113.8 89.2H116.8V92.2H113.8V89.2ZM110.2 89.2H113.2V92.2H110.2V89.2ZM106.6 89.2H109.6V92.2H106.6V89.2ZM103 85.6H106V88.6H103V85.6ZM103 89.2H106V92.2H103V89.2ZM103 92.8H106V95.8H103V92.8ZM103 96.4H106V99.4H103V96.4ZM103 100H106V103H103V100ZM138.992 89.2H141.992V92.2H138.992V89.2ZM135.392 89.2H138.392V92.2H135.392V89.2ZM131.792 89.2H134.792V92.2H131.792V89.2ZM128.192 89.2H131.192V92.2H128.192V89.2ZM124.592 89.2H127.592V92.2H124.592V89.2ZM160.584 78.4H163.584V81.4H160.584V78.4ZM160.584 82H163.584V85H160.584V82ZM156.984 82H159.984V85H156.984V82ZM149.784 82H152.784V85H149.784V82ZM146.184 78.4H149.184V81.4H146.184V78.4ZM146.184 82H149.184V85H146.184V82ZM160.584 85.6H163.584V88.6H160.584V85.6ZM160.584 89.2H163.584V92.2H160.584V89.2ZM160.584 92.8H163.584V95.8H160.584V92.8ZM160.584 96.4H163.584V99.4H160.584V96.4ZM160.584 100H163.584V103H160.584V100ZM153.384 85.6H156.384V88.6H153.384V85.6ZM153.384 89.2H156.384V92.2H153.384V89.2ZM146.184 85.6H149.184V88.6H146.184V85.6ZM146.184 89.2H149.184V92.2H146.184V89.2ZM146.184 92.8H149.184V95.8H146.184V92.8ZM146.184 96.4H149.184V99.4H146.184V96.4ZM146.184 100H149.184V103H146.184V100ZM182.175 82H185.175V85H182.175V82ZM178.575 78.4H181.575V81.4H178.575V78.4ZM174.975 78.4H177.975V81.4H174.975V78.4ZM171.375 78.4H174.375V81.4H171.375V78.4ZM167.775 82H170.775V85H167.775V82ZM182.175 96.4H185.175V99.4H182.175V96.4ZM178.575 100H181.575V103H178.575V100ZM174.975 100H177.975V103H174.975V100ZM171.375 100H174.375V103H171.375V100ZM167.775 85.6H170.775V88.6H167.775V85.6ZM167.775 89.2H170.775V92.2H167.775V89.2ZM167.775 92.8H170.775V95.8H167.775V92.8ZM167.775 96.4H170.775V99.4H167.775V96.4ZM203.767 89.2H206.767V92.2H203.767V89.2ZM200.167 89.2H203.167V92.2H200.167V89.2ZM196.567 89.2H199.567V92.2H196.567V89.2ZM192.967 89.2H195.967V92.2H192.967V89.2ZM189.367 89.2H192.367V92.2H189.367V89.2ZM225.359 82H228.359V85H225.359V82ZM221.759 78.4H224.759V81.4H221.759V78.4ZM218.159 78.4H221.159V81.4H218.159V78.4ZM214.559 78.4H217.559V81.4H214.559V78.4ZM210.959 78.4H213.959V81.4H210.959V78.4ZM210.959 82H213.959V85H210.959V82ZM225.359 85.6H228.359V88.6H225.359V85.6ZM225.359 89.2H228.359V92.2H225.359V89.2ZM225.359 92.8H228.359V95.8H225.359V92.8ZM225.359 96.4H228.359V99.4H225.359V96.4ZM221.759 100H224.759V103H221.759V100ZM218.159 100H221.159V103H218.159V100ZM214.559 100H217.559V103H214.559V100ZM210.959 85.6H213.959V88.6H210.959V85.6ZM210.959 89.2H213.959V92.2H210.959V89.2ZM210.959 92.8H213.959V95.8H210.959V92.8ZM210.959 96.4H213.959V99.4H210.959V96.4ZM210.959 100H213.959V103H210.959V100ZM239.751 78.4H242.751V81.4H239.751V78.4ZM236.151 78.4H239.151V81.4H236.151V78.4ZM236.151 82H239.151V85H236.151V82ZM232.551 78.4H235.551V81.4H232.551V78.4ZM239.751 100H242.751V103H239.751V100ZM236.151 85.6H239.151V88.6H236.151V85.6ZM236.151 89.2H239.151V92.2H236.151V89.2ZM236.151 92.8H239.151V95.8H236.151V92.8ZM236.151 96.4H239.151V99.4H236.151V96.4ZM236.151 100H239.151V103H236.151V100ZM232.551 100H235.551V103H232.551V100ZM261.365 78.4H264.365V81.4H261.365V78.4ZM261.365 82H264.365V85H261.365V82ZM246.965 78.4H249.965V81.4H246.965V78.4ZM246.965 82H249.965V85H246.965V82ZM261.365 85.6H264.365V88.6H261.365V85.6ZM261.365 89.2H264.365V92.2H261.365V89.2ZM261.365 92.8H264.365V95.8H261.365V92.8ZM261.365 96.4H264.365V99.4H261.365V96.4ZM261.365 100H264.365V103H261.365V100ZM257.765 92.8H260.765V95.8H257.765V92.8ZM254.165 89.2H257.165V92.2H254.165V89.2ZM250.565 85.6H253.565V88.6H250.565V85.6ZM246.965 85.6H249.965V88.6H246.965V85.6ZM246.965 89.2H249.965V92.2H246.965V89.2ZM246.965 92.8H249.965V95.8H246.965V92.8ZM246.965 96.4H249.965V99.4H246.965V96.4ZM246.965 100H249.965V103H246.965V100ZM282.957 78.4H285.957V81.4H282.957V78.4ZM279.357 78.4H282.357V81.4H279.357V78.4ZM275.757 78.4H278.757V81.4H275.757V78.4ZM272.157 78.4H275.157V81.4H272.157V78.4ZM268.557 78.4H271.557V81.4H268.557V78.4ZM268.557 82H271.557V85H268.557V82ZM282.957 100H285.957V103H282.957V100ZM279.357 89.2H282.357V92.2H279.357V89.2ZM279.357 100H282.357V103H279.357V100ZM275.757 89.2H278.757V92.2H275.757V89.2ZM275.757 100H278.757V103H275.757V100ZM272.157 89.2H275.157V92.2H272.157V89.2ZM272.157 100H275.157V103H272.157V100ZM268.557 85.6H271.557V88.6H268.557V85.6ZM268.557 89.2H271.557V92.2H268.557V89.2ZM268.557 92.8H271.557V95.8H268.557V92.8ZM268.557 96.4H271.557V99.4H268.557V96.4ZM268.557 100H271.557V103H268.557V100ZM304.548 82H307.548V85H304.548V82ZM300.948 78.4H303.948V81.4H300.948V78.4ZM297.348 78.4H300.348V81.4H297.348V78.4ZM293.748 78.4H296.748V81.4H293.748V78.4ZM290.148 78.4H293.148V81.4H290.148V78.4ZM290.148 82H293.148V85H290.148V82ZM304.548 85.6H307.548V88.6H304.548V85.6ZM304.548 100H307.548V103H304.548V100ZM300.948 89.2H303.948V92.2H300.948V89.2ZM300.948 96.4H303.948V99.4H300.948V96.4ZM297.348 89.2H300.348V92.2H297.348V89.2ZM297.348 92.8H300.348V95.8H297.348V92.8ZM293.748 89.2H296.748V92.2H293.748V89.2ZM290.148 85.6H293.148V88.6H290.148V85.6ZM290.148 89.2H293.148V92.2H290.148V89.2ZM290.148 92.8H293.148V95.8H290.148V92.8ZM290.148 96.4H293.148V99.4H290.148V96.4ZM290.148 100H293.148V103H290.148V100ZM326.14 89.2H329.14V92.2H326.14V89.2ZM322.54 89.2H325.54V92.2H322.54V89.2ZM318.94 89.2H321.94V92.2H318.94V89.2ZM315.34 89.2H318.34V92.2H315.34V89.2ZM311.74 89.2H314.74V92.2H311.74V89.2ZM347.732 82H350.732V85H347.732V82ZM344.132 78.4H347.132V81.4H344.132V78.4ZM340.532 78.4H343.532V81.4H340.532V78.4ZM336.932 78.4H339.932V81.4H336.932V78.4ZM333.332 82H336.332V85H333.332V82ZM347.732 85.6H350.732V88.6H347.732V85.6ZM347.732 89.2H350.732V92.2H347.732V89.2ZM347.732 92.8H350.732V95.8H347.732V92.8ZM347.732 96.4H350.732V99.4H347.732V96.4ZM347.732 100H350.732V103H347.732V100ZM344.132 89.2H347.132V92.2H344.132V89.2ZM340.532 89.2H343.532V92.2H340.532V89.2ZM336.932 89.2H339.932V92.2H336.932V89.2ZM333.332 85.6H336.332V88.6H333.332V85.6ZM333.332 89.2H336.332V92.2H333.332V89.2ZM333.332 92.8H336.332V95.8H333.332V92.8ZM333.332 96.4H336.332V99.4H333.332V96.4ZM333.332 100H336.332V103H333.332V100ZM369.324 78.4H372.324V81.4H369.324V78.4ZM369.324 82H372.324V85H369.324V82ZM365.724 82H368.724V85H365.724V82ZM358.524 82H361.524V85H358.524V82ZM354.924 78.4H357.924V81.4H354.924V78.4ZM354.924 82H357.924V85H354.924V82ZM369.324 85.6H372.324V88.6H369.324V85.6ZM369.324 89.2H372.324V92.2H369.324V89.2ZM369.324 92.8H372.324V95.8H369.324V92.8ZM369.324 96.4H372.324V99.4H369.324V96.4ZM369.324 100H372.324V103H369.324V100ZM362.124 85.6H365.124V88.6H362.124V85.6ZM362.124 89.2H365.124V92.2H362.124V89.2ZM354.924 85.6H357.924V88.6H354.924V85.6ZM354.924 89.2H357.924V92.2H354.924V89.2ZM354.924 92.8H357.924V95.8H354.924V92.8ZM354.924 96.4H357.924V99.4H354.924V96.4ZM354.924 100H357.924V103H354.924V100ZM390.916 78.4H393.916V81.4H390.916V78.4ZM387.316 78.4H390.316V81.4H387.316V78.4ZM383.716 78.4H386.716V81.4H383.716V78.4ZM380.116 78.4H383.116V81.4H380.116V78.4ZM376.516 78.4H379.516V81.4H376.516V78.4ZM376.516 82H379.516V85H376.516V82ZM390.916 100H393.916V103H390.916V100ZM387.316 89.2H390.316V92.2H387.316V89.2ZM387.316 100H390.316V103H387.316V100ZM383.716 89.2H386.716V92.2H383.716V89.2ZM383.716 100H386.716V103H383.716V100ZM380.116 89.2H383.116V92.2H380.116V89.2ZM380.116 100H383.116V103H380.116V100ZM376.516 85.6H379.516V88.6H376.516V85.6ZM376.516 89.2H379.516V92.2H376.516V89.2ZM376.516 92.8H379.516V95.8H376.516V92.8ZM376.516 96.4H379.516V99.4H376.516V96.4ZM376.516 100H379.516V103H376.516V100ZM412.507 78.4H415.507V81.4H412.507V78.4ZM412.507 82H415.507V85H412.507V82ZM398.107 78.4H401.107V81.4H398.107V78.4ZM398.107 82H401.107V85H398.107V82ZM412.507 96.4H415.507V99.4H412.507V96.4ZM412.507 100H415.507V103H412.507V100ZM408.907 85.6H411.907V88.6H408.907V85.6ZM408.907 92.8H411.907V95.8H408.907V92.8ZM405.307 89.2H408.307V92.2H405.307V89.2ZM401.707 85.6H404.707V88.6H401.707V85.6ZM401.707 92.8H404.707V95.8H401.707V92.8ZM398.107 96.4H401.107V99.4H398.107V96.4ZM398.107 100H401.107V103H398.107V100ZM27.4 115H30.4V118H27.4V115ZM23.8 111.4H26.8V114.4H23.8V111.4ZM20.2 111.4H23.2V114.4H20.2V111.4ZM16.6 111.4H19.6V114.4H16.6V111.4ZM13 115H16V118H13V115ZM27.4 118.6H30.4V121.6H27.4V118.6ZM27.4 133H30.4V136H27.4V133ZM23.8 122.2H26.8V125.2H23.8V122.2ZM23.8 133H26.8V136H23.8V133ZM20.2 125.8H23.2V128.8H20.2V125.8ZM20.2 133H23.2V136H20.2V133ZM16.6 129.4H19.6V132.4H16.6V129.4ZM16.6 133H19.6V136H16.6V133ZM13 133H16V136H13V133ZM38.1918 129.4H41.1918V132.4H38.1918V129.4ZM38.1918 133H41.1918V136H38.1918V133ZM34.5918 129.4H37.5918V132.4H34.5918V129.4ZM34.5918 133H37.5918V136H34.5918V133ZM59.8023 115H62.8023V118H59.8023V115ZM56.2023 111.4H59.2023V114.4H56.2023V111.4ZM52.6023 111.4H55.6023V114.4H52.6023V111.4ZM49.0023 111.4H52.0023V114.4H49.0023V111.4ZM45.4023 111.4H48.4023V114.4H45.4023V111.4ZM45.4023 115H48.4023V118H45.4023V115ZM59.8023 118.6H62.8023V121.6H59.8023V118.6ZM59.8023 133H62.8023V136H59.8023V133ZM56.2023 122.2H59.2023V125.2H56.2023V122.2ZM56.2023 129.4H59.2023V132.4H56.2023V129.4ZM52.6023 122.2H55.6023V125.2H52.6023V122.2ZM52.6023 125.8H55.6023V128.8H52.6023V125.8ZM49.0023 122.2H52.0023V125.2H49.0023V122.2ZM45.4023 118.6H48.4023V121.6H45.4023V118.6ZM45.4023 122.2H48.4023V125.2H45.4023V122.2ZM45.4023 125.8H48.4023V128.8H45.4023V125.8ZM45.4023 129.4H48.4023V132.4H45.4023V129.4ZM45.4023 133H48.4023V136H45.4023V133ZM81.3941 111.4H84.3941V114.4H81.3941V111.4ZM77.7941 111.4H80.7941V114.4H77.7941V111.4ZM74.1941 111.4H77.1941V114.4H74.1941V111.4ZM70.5941 111.4H73.5941V114.4H70.5941V111.4ZM66.9941 111.4H69.9941V114.4H66.9941V111.4ZM66.9941 115H69.9941V118H66.9941V115ZM81.3941 133H84.3941V136H81.3941V133ZM77.7941 122.2H80.7941V125.2H77.7941V122.2ZM77.7941 133H80.7941V136H77.7941V133ZM74.1941 122.2H77.1941V125.2H74.1941V122.2ZM74.1941 133H77.1941V136H74.1941V133ZM70.5941 122.2H73.5941V125.2H70.5941V122.2ZM70.5941 133H73.5941V136H70.5941V133ZM66.9941 118.6H69.9941V121.6H66.9941V118.6ZM66.9941 122.2H69.9941V125.2H66.9941V122.2ZM66.9941 125.8H69.9941V128.8H66.9941V125.8ZM66.9941 129.4H69.9941V132.4H66.9941V129.4ZM66.9941 133H69.9941V136H66.9941V133ZM102.986 115H105.986V118H102.986V115ZM99.3859 111.4H102.386V114.4H99.3859V111.4ZM95.7859 111.4H98.7859V114.4H95.7859V111.4ZM92.1859 111.4H95.1859V114.4H92.1859V111.4ZM88.5859 115H91.5859V118H88.5859V115ZM102.986 129.4H105.986V132.4H102.986V129.4ZM99.3859 133H102.386V136H99.3859V133ZM95.7859 133H98.7859V136H95.7859V133ZM92.1859 133H95.1859V136H92.1859V133ZM88.5859 118.6H91.5859V121.6H88.5859V118.6ZM88.5859 122.2H91.5859V125.2H88.5859V122.2ZM88.5859 125.8H91.5859V128.8H88.5859V125.8ZM88.5859 129.4H91.5859V132.4H88.5859V129.4ZM124.578 115H127.578V118H124.578V115ZM120.978 111.4H123.978V114.4H120.978V111.4ZM117.378 111.4H120.378V114.4H117.378V111.4ZM113.778 111.4H116.778V114.4H113.778V111.4ZM110.178 115H113.178V118H110.178V115ZM124.578 118.6H127.578V121.6H124.578V118.6ZM124.578 122.2H127.578V125.2H124.578V122.2ZM124.578 125.8H127.578V128.8H124.578V125.8ZM124.578 129.4H127.578V132.4H124.578V129.4ZM120.978 133H123.978V136H120.978V133ZM117.378 133H120.378V136H117.378V133ZM113.778 133H116.778V136H113.778V133ZM110.178 118.6H113.178V121.6H110.178V118.6ZM110.178 122.2H113.178V125.2H110.178V122.2ZM110.178 125.8H113.178V128.8H110.178V125.8ZM110.178 129.4H113.178V132.4H110.178V129.4ZM146.17 111.4H149.17V114.4H146.17V111.4ZM146.17 115H149.17V118H146.17V115ZM142.57 115H145.57V118H142.57V115ZM135.37 115H138.37V118H135.37V115ZM131.77 111.4H134.77V114.4H131.77V111.4ZM131.77 115H134.77V118H131.77V115ZM146.17 118.6H149.17V121.6H146.17V118.6ZM146.17 122.2H149.17V125.2H146.17V122.2ZM146.17 125.8H149.17V128.8H146.17V125.8ZM146.17 129.4H149.17V132.4H146.17V129.4ZM146.17 133H149.17V136H146.17V133ZM138.97 118.6H141.97V121.6H138.97V118.6ZM138.97 122.2H141.97V125.2H138.97V122.2ZM131.77 118.6H134.77V121.6H131.77V118.6ZM131.77 122.2H134.77V125.2H131.77V122.2ZM131.77 125.8H134.77V128.8H131.77V125.8ZM131.77 129.4H134.77V132.4H131.77V129.4ZM131.77 133H134.77V136H131.77V133ZM167.761 115H170.761V118H167.761V115ZM164.161 111.4H167.161V114.4H164.161V111.4ZM160.561 111.4H163.561V114.4H160.561V111.4ZM156.961 111.4H159.961V114.4H156.961V111.4ZM153.361 111.4H156.361V114.4H153.361V111.4ZM153.361 115H156.361V118H153.361V115ZM167.761 118.6H170.761V121.6H167.761V118.6ZM164.161 122.2H167.161V125.2H164.161V122.2ZM160.561 122.2H163.561V125.2H160.561V122.2ZM156.961 122.2H159.961V125.2H156.961V122.2ZM153.361 118.6H156.361V121.6H153.361V118.6ZM153.361 122.2H156.361V125.2H153.361V122.2ZM153.361 125.8H156.361V128.8H153.361V125.8ZM153.361 129.4H156.361V132.4H153.361V129.4ZM153.361 133H156.361V136H153.361V133ZM189.353 115H192.353V118H189.353V115ZM185.753 111.4H188.753V114.4H185.753V111.4ZM182.153 111.4H185.153V114.4H182.153V111.4ZM178.553 111.4H181.553V114.4H178.553V111.4ZM174.953 111.4H177.953V114.4H174.953V111.4ZM174.953 115H177.953V118H174.953V115ZM189.353 118.6H192.353V121.6H189.353V118.6ZM189.353 133H192.353V136H189.353V133ZM185.753 122.2H188.753V125.2H185.753V122.2ZM185.753 129.4H188.753V132.4H185.753V129.4ZM182.153 122.2H185.153V125.2H182.153V122.2ZM182.153 125.8H185.153V128.8H182.153V125.8ZM178.553 122.2H181.553V125.2H178.553V122.2ZM174.953 118.6H177.953V121.6H174.953V118.6ZM174.953 122.2H177.953V125.2H174.953V122.2ZM174.953 125.8H177.953V128.8H174.953V125.8ZM174.953 129.4H177.953V132.4H174.953V129.4ZM174.953 133H177.953V136H174.953V133ZM210.945 115H213.945V118H210.945V115ZM207.345 111.4H210.345V114.4H207.345V111.4ZM203.745 111.4H206.745V114.4H203.745V111.4ZM200.145 111.4H203.145V114.4H200.145V111.4ZM196.545 115H199.545V118H196.545V115ZM210.945 118.6H213.945V121.6H210.945V118.6ZM210.945 122.2H213.945V125.2H210.945V122.2ZM210.945 125.8H213.945V128.8H210.945V125.8ZM210.945 129.4H213.945V132.4H210.945V129.4ZM210.945 133H213.945V136H210.945V133ZM207.345 122.2H210.345V125.2H207.345V122.2ZM203.745 122.2H206.745V125.2H203.745V122.2ZM200.145 122.2H203.145V125.2H200.145V122.2ZM196.545 118.6H199.545V121.6H196.545V118.6ZM196.545 122.2H199.545V125.2H196.545V122.2ZM196.545 125.8H199.545V128.8H196.545V125.8ZM196.545 129.4H199.545V132.4H196.545V129.4ZM196.545 133H199.545V136H196.545V133ZM27.4 148H30.4V151H27.4V148ZM23.8 144.4H26.8V147.4H23.8V144.4ZM20.2 144.4H23.2V147.4H20.2V144.4ZM16.6 144.4H19.6V147.4H16.6V144.4ZM13 148H16V151H13V148ZM27.4 151.6H30.4V154.6H27.4V151.6ZM27.4 158.8H30.4V161.8H27.4V158.8ZM27.4 162.4H30.4V165.4H27.4V162.4ZM23.8 155.2H26.8V158.2H23.8V155.2ZM23.8 166H26.8V169H23.8V166ZM20.2 155.2H23.2V158.2H20.2V155.2ZM20.2 166H23.2V169H20.2V166ZM16.6 166H19.6V169H16.6V166ZM13 162.4H16V165.4H13V162.4ZM48.9918 155.2H51.9918V158.2H48.9918V155.2ZM45.3918 155.2H48.3918V158.2H45.3918V155.2ZM41.7918 155.2H44.7918V158.2H41.7918V155.2ZM38.1918 155.2H41.1918V158.2H38.1918V155.2ZM34.5918 155.2H37.5918V158.2H34.5918V155.2ZM70.5836 148H73.5836V151H70.5836V148ZM66.9836 144.4H69.9836V147.4H66.9836V144.4ZM63.3836 144.4H66.3836V147.4H63.3836V144.4ZM59.7836 144.4H62.7836V147.4H59.7836V144.4ZM56.1836 148H59.1836V151H56.1836V148ZM70.5836 151.6H73.5836V154.6H70.5836V151.6ZM70.5836 155.2H73.5836V158.2H70.5836V155.2ZM70.5836 158.8H73.5836V161.8H70.5836V158.8ZM70.5836 162.4H73.5836V165.4H70.5836V162.4ZM66.9836 166H69.9836V169H66.9836V166ZM63.3836 166H66.3836V169H63.3836V166ZM59.7836 166H62.7836V169H59.7836V166ZM56.1836 151.6H59.1836V154.6H56.1836V151.6ZM56.1836 155.2H59.1836V158.2H56.1836V155.2ZM56.1836 158.8H59.1836V161.8H56.1836V158.8ZM56.1836 162.4H59.1836V165.4H56.1836V162.4ZM92.1754 144.4H95.1754V147.4H92.1754V144.4ZM88.5754 144.4H91.5754V147.4H88.5754V144.4ZM84.9754 144.4H87.9754V147.4H84.9754V144.4ZM84.9754 148H87.9754V151H84.9754V148ZM81.3754 144.4H84.3754V147.4H81.3754V144.4ZM77.7754 144.4H80.7754V147.4H77.7754V144.4ZM84.9754 151.6H87.9754V154.6H84.9754V151.6ZM84.9754 155.2H87.9754V158.2H84.9754V155.2ZM84.9754 158.8H87.9754V161.8H84.9754V158.8ZM84.9754 162.4H87.9754V165.4H84.9754V162.4ZM84.9754 166H87.9754V169H84.9754V166ZM113.767 148H116.767V151H113.767V148ZM110.167 144.4H113.167V147.4H110.167V144.4ZM106.567 144.4H109.567V147.4H106.567V144.4ZM102.967 144.4H105.967V147.4H102.967V144.4ZM99.3672 144.4H102.367V147.4H99.3672V144.4ZM99.3672 148H102.367V151H99.3672V148ZM113.767 151.6H116.767V154.6H113.767V151.6ZM113.767 166H116.767V169H113.767V166ZM110.167 155.2H113.167V158.2H110.167V155.2ZM110.167 162.4H113.167V165.4H110.167V162.4ZM106.567 155.2H109.567V158.2H106.567V155.2ZM106.567 158.8H109.567V161.8H106.567V158.8ZM102.967 155.2H105.967V158.2H102.967V155.2ZM99.3672 151.6H102.367V154.6H99.3672V151.6ZM99.3672 155.2H102.367V158.2H99.3672V155.2ZM99.3672 158.8H102.367V161.8H99.3672V158.8ZM99.3672 162.4H102.367V165.4H99.3672V162.4ZM99.3672 166H102.367V169H99.3672V166ZM135.359 148H138.359V151H135.359V148ZM131.759 144.4H134.759V147.4H131.759V144.4ZM128.159 144.4H131.159V147.4H128.159V144.4ZM124.559 144.4H127.559V147.4H124.559V144.4ZM120.959 148H123.959V151H120.959V148ZM135.359 151.6H138.359V154.6H135.359V151.6ZM135.359 155.2H138.359V158.2H135.359V155.2ZM135.359 158.8H138.359V161.8H135.359V158.8ZM135.359 162.4H138.359V165.4H135.359V162.4ZM131.759 166H134.759V169H131.759V166ZM128.159 166H131.159V169H128.159V166ZM124.559 166H127.559V169H124.559V166ZM120.959 151.6H123.959V154.6H120.959V151.6ZM120.959 155.2H123.959V158.2H120.959V155.2ZM120.959 158.8H123.959V161.8H120.959V158.8ZM120.959 162.4H123.959V165.4H120.959V162.4ZM156.951 148H159.951V151H156.951V148ZM153.351 144.4H156.351V147.4H153.351V144.4ZM149.751 144.4H152.751V147.4H149.751V144.4ZM146.151 144.4H149.151V147.4H146.151V144.4ZM142.551 148H145.551V151H142.551V148ZM156.951 158.8H159.951V161.8H156.951V158.8ZM156.951 162.4H159.951V165.4H156.951V162.4ZM153.351 155.2H156.351V158.2H153.351V155.2ZM153.351 166H156.351V169H153.351V166ZM149.751 155.2H152.751V158.2H149.751V155.2ZM149.751 166H152.751V169H149.751V166ZM146.151 155.2H149.151V158.2H146.151V155.2ZM146.151 166H149.151V169H146.151V166ZM142.551 151.6H145.551V154.6H142.551V151.6ZM142.551 162.4H145.551V165.4H142.551V162.4Z" fill="#5B65C2"/>
</svg>
