<svg width="452" height="280" viewBox="0 0 452 280" fill="none" xmlns="http://www.w3.org/2000/svg">
<g clip-path="url(#clip0)">
<rect width="452" height="280" fill="white"/>
<rect width="452" height="47" fill="#5B65C2"/>
<path d="M398.625 241H401.625V244H398.625V241ZM395.025 237.4H398.025V240.4H395.025V237.4ZM391.425 237.4H394.425V240.4H391.425V237.4ZM387.825 237.4H390.825V240.4H387.825V237.4ZM384.225 241H387.225V244H384.225V241ZM398.625 244.6H401.625V247.6H398.625V244.6ZM398.625 248.2H401.625V251.2H398.625V248.2ZM398.625 251.8H401.625V254.8H398.625V251.8ZM398.625 255.4H401.625V258.4H398.625V255.4ZM395.025 244.6H398.025V247.6H395.025V244.6ZM395.025 259H398.025V262H395.025V259ZM391.425 248.2H394.425V251.2H391.425V248.2ZM391.425 259H394.425V262H391.425V259ZM387.825 251.8H390.825V254.8H387.825V251.8ZM387.825 259H390.825V262H387.825V259ZM384.225 244.6H387.225V247.6H384.225V244.6ZM384.225 248.2H387.225V251.2H384.225V248.2ZM384.225 251.8H387.225V254.8H384.225V251.8ZM384.225 255.4H387.225V258.4H384.225V255.4ZM420.216 241H423.216V244H420.216V241ZM416.616 237.4H419.616V240.4H416.616V237.4ZM413.016 237.4H416.016V240.4H413.016V237.4ZM409.416 237.4H412.416V240.4H409.416V237.4ZM405.816 241H408.816V244H405.816V241ZM420.216 244.6H423.216V247.6H420.216V244.6ZM420.216 248.2H423.216V251.2H420.216V248.2ZM420.216 251.8H423.216V254.8H420.216V251.8ZM420.216 255.4H423.216V258.4H420.216V255.4ZM416.616 244.6H419.616V247.6H416.616V244.6ZM416.616 259H419.616V262H416.616V259ZM413.016 248.2H416.016V251.2H413.016V248.2ZM413.016 259H416.016V262H413.016V259ZM409.416 251.8H412.416V254.8H409.416V251.8ZM409.416 259H412.416V262H409.416V259ZM405.816 244.6H408.816V247.6H405.816V244.6ZM405.816 248.2H408.816V251.2H405.816V248.2ZM405.816 251.8H408.816V254.8H405.816V251.8ZM405.816 255.4H408.816V258.4H405.816V255.4ZM441.808 241H444.808V244H441.808V241ZM438.208 237.4H441.208V240.4H438.208V237.4ZM434.608 237.4H437.608V240.4H434.608V237.4ZM431.008 237.4H434.008V240.4H431.008V237.4ZM427.408 241H430.408V244H427.408V241ZM441.808 244.6H444.808V247.6H441.808V244.6ZM441.808 259H444.808V262H441.808V259ZM438.208 248.2H441.208V251.2H438.208V248.2ZM438.208 259H441.208V262H438.208V259ZM434.608 251.8H437.608V254.8H434.608V251.8ZM434.608 259H437.608V262H434.608V259ZM431.008 255.4H434.008V258.4H431.008V255.4ZM431.008 259H434.008V262H431.008V259ZM427.408 259H430.408V262H427.408V259Z" fill="#5B65C2"/>
<path d="M55.0445 15H58.0445V18H55.0445V15ZM51.4445 11.4H54.4445V14.4H51.4445V11.4ZM47.8445 11.4H50.8445V14.4H47.8445V11.4ZM44.2445 11.4H47.2445V14.4H44.2445V11.4ZM40.6445 15H43.6445V18H40.6445V15ZM55.0445 29.4H58.0445V32.4H55.0445V29.4ZM51.4445 33H54.4445V36H51.4445V33ZM47.8445 33H50.8445V36H47.8445V33ZM44.2445 33H47.2445V36H44.2445V33ZM40.6445 18.6H43.6445V21.6H40.6445V18.6ZM40.6445 22.2H43.6445V25.2H40.6445V22.2ZM40.6445 25.8H43.6445V28.8H40.6445V25.8ZM40.6445 29.4H43.6445V32.4H40.6445V29.4ZM76.6363 11.4H79.6363V14.4H76.6363V11.4ZM76.6363 15H79.6363V18H76.6363V15ZM62.2363 11.4H65.2363V14.4H62.2363V11.4ZM62.2363 15H65.2363V18H62.2363V15ZM76.6363 18.6H79.6363V21.6H76.6363V18.6ZM76.6363 22.2H79.6363V25.2H76.6363V22.2ZM76.6363 25.8H79.6363V28.8H76.6363V25.8ZM76.6363 29.4H79.6363V32.4H76.6363V29.4ZM73.0363 33H76.0363V36H73.0363V33ZM69.4363 33H72.4363V36H69.4363V33ZM65.8363 33H68.8363V36H65.8363V33ZM62.2363 18.6H65.2363V21.6H62.2363V18.6ZM62.2363 22.2H65.2363V25.2H62.2363V22.2ZM62.2363 25.8H65.2363V28.8H62.2363V25.8ZM62.2363 29.4H65.2363V32.4H62.2363V29.4ZM98.2281 11.4H101.228V14.4H98.2281V11.4ZM94.6281 11.4H97.6281V14.4H94.6281V11.4ZM91.0281 11.4H94.0281V14.4H91.0281V11.4ZM87.4281 11.4H90.4281V14.4H87.4281V11.4ZM83.8281 11.4H86.8281V14.4H83.8281V11.4ZM83.8281 15H86.8281V18H83.8281V15ZM98.2281 33H101.228V36H98.2281V33ZM94.6281 22.2H97.6281V25.2H94.6281V22.2ZM94.6281 33H97.6281V36H94.6281V33ZM91.0281 22.2H94.0281V25.2H91.0281V22.2ZM91.0281 33H94.0281V36H91.0281V33ZM87.4281 22.2H90.4281V25.2H87.4281V22.2ZM87.4281 33H90.4281V36H87.4281V33ZM83.8281 18.6H86.8281V21.6H83.8281V18.6ZM83.8281 22.2H86.8281V25.2H83.8281V22.2ZM83.8281 25.8H86.8281V28.8H83.8281V25.8ZM83.8281 29.4H86.8281V32.4H83.8281V29.4ZM83.8281 33H86.8281V36H83.8281V33ZM119.82 11.4H122.82V14.4H119.82V11.4ZM119.82 15H122.82V18H119.82V15ZM105.42 11.4H108.42V14.4H105.42V11.4ZM105.42 15H108.42V18H105.42V15ZM119.82 18.6H122.82V21.6H119.82V18.6ZM119.82 22.2H122.82V25.2H119.82V22.2ZM119.82 25.8H122.82V28.8H119.82V25.8ZM119.82 29.4H122.82V32.4H119.82V29.4ZM119.82 33H122.82V36H119.82V33ZM116.22 25.8H119.22V28.8H116.22V25.8ZM112.62 22.2H115.62V25.2H112.62V22.2ZM109.02 18.6H112.02V21.6H109.02V18.6ZM105.42 18.6H108.42V21.6H105.42V18.6ZM105.42 22.2H108.42V25.2H105.42V22.2ZM105.42 25.8H108.42V28.8H105.42V25.8ZM105.42 29.4H108.42V32.4H105.42V29.4ZM105.42 33H108.42V36H105.42V33ZM141.412 11.4H144.412V14.4H141.412V11.4ZM137.812 11.4H140.812V14.4H137.812V11.4ZM134.212 11.4H137.212V14.4H134.212V11.4ZM134.212 15H137.212V18H134.212V15ZM130.612 11.4H133.612V14.4H130.612V11.4ZM127.012 11.4H130.012V14.4H127.012V11.4ZM134.212 18.6H137.212V21.6H134.212V18.6ZM134.212 22.2H137.212V25.2H134.212V22.2ZM134.212 25.8H137.212V28.8H134.212V25.8ZM134.212 29.4H137.212V32.4H134.212V29.4ZM134.212 33H137.212V36H134.212V33ZM163.004 15H166.004V18H163.004V15ZM159.404 11.4H162.404V14.4H159.404V11.4ZM155.804 11.4H158.804V14.4H155.804V11.4ZM152.204 11.4H155.204V14.4H152.204V11.4ZM148.604 15H151.604V18H148.604V15ZM163.004 18.6H166.004V21.6H163.004V18.6ZM163.004 22.2H166.004V25.2H163.004V22.2ZM163.004 25.8H166.004V28.8H163.004V25.8ZM163.004 29.4H166.004V32.4H163.004V29.4ZM163.004 33H166.004V36H163.004V33ZM159.404 22.2H162.404V25.2H159.404V22.2ZM155.804 22.2H158.804V25.2H155.804V22.2ZM152.204 22.2H155.204V25.2H152.204V22.2ZM148.604 18.6H151.604V21.6H148.604V18.6ZM148.604 22.2H151.604V25.2H148.604V22.2ZM148.604 25.8H151.604V28.8H148.604V25.8ZM148.604 29.4H151.604V32.4H148.604V29.4ZM148.604 33H151.604V36H148.604V33ZM197.187 15H200.187V18H197.187V15ZM193.587 11.4H196.587V14.4H193.587V11.4ZM189.987 11.4H192.987V14.4H189.987V11.4ZM186.387 11.4H189.387V14.4H186.387V11.4ZM182.787 11.4H185.787V14.4H182.787V11.4ZM182.787 15H185.787V18H182.787V15ZM197.187 18.6H200.187V21.6H197.187V18.6ZM197.187 22.2H200.187V25.2H197.187V22.2ZM197.187 25.8H200.187V28.8H197.187V25.8ZM197.187 29.4H200.187V32.4H197.187V29.4ZM193.587 33H196.587V36H193.587V33ZM189.987 33H192.987V36H189.987V33ZM186.387 33H189.387V36H186.387V33ZM182.787 18.6H185.787V21.6H182.787V18.6ZM182.787 22.2H185.787V25.2H182.787V22.2ZM182.787 25.8H185.787V28.8H182.787V25.8ZM182.787 29.4H185.787V32.4H182.787V29.4ZM182.787 33H185.787V36H182.787V33ZM211.579 11.4H214.579V14.4H211.579V11.4ZM207.979 11.4H210.979V14.4H207.979V11.4ZM207.979 15H210.979V18H207.979V15ZM204.379 11.4H207.379V14.4H204.379V11.4ZM211.579 33H214.579V36H211.579V33ZM207.979 18.6H210.979V21.6H207.979V18.6ZM207.979 22.2H210.979V25.2H207.979V22.2ZM207.979 25.8H210.979V28.8H207.979V25.8ZM207.979 29.4H210.979V32.4H207.979V29.4ZM207.979 33H210.979V36H207.979V33ZM204.379 33H207.379V36H204.379V33ZM233.193 11.4H236.193V14.4H233.193V11.4ZM233.193 15H236.193V18H233.193V15ZM218.793 11.4H221.793V14.4H218.793V11.4ZM218.793 15H221.793V18H218.793V15ZM233.193 18.6H236.193V21.6H233.193V18.6ZM233.193 22.2H236.193V25.2H233.193V22.2ZM233.193 25.8H236.193V28.8H233.193V25.8ZM229.593 29.4H232.593V32.4H229.593V29.4ZM225.993 33H228.993V36H225.993V33ZM222.393 29.4H225.393V32.4H222.393V29.4ZM218.793 18.6H221.793V21.6H218.793V18.6ZM218.793 22.2H221.793V25.2H218.793V22.2ZM218.793 25.8H221.793V28.8H218.793V25.8ZM247.585 11.4H250.585V14.4H247.585V11.4ZM243.985 11.4H246.985V14.4H243.985V11.4ZM243.985 15H246.985V18H243.985V15ZM240.385 11.4H243.385V14.4H240.385V11.4ZM247.585 33H250.585V36H247.585V33ZM243.985 18.6H246.985V21.6H243.985V18.6ZM243.985 22.2H246.985V25.2H243.985V22.2ZM243.985 25.8H246.985V28.8H243.985V25.8ZM243.985 29.4H246.985V32.4H243.985V29.4ZM243.985 33H246.985V36H243.985V33ZM240.385 33H243.385V36H240.385V33ZM269.199 15H272.199V18H269.199V15ZM265.599 11.4H268.599V14.4H265.599V11.4ZM261.999 11.4H264.999V14.4H261.999V11.4ZM258.399 11.4H261.399V14.4H258.399V11.4ZM254.799 11.4H257.799V14.4H254.799V11.4ZM254.799 15H257.799V18H254.799V15ZM269.199 18.6H272.199V21.6H269.199V18.6ZM269.199 22.2H272.199V25.2H269.199V22.2ZM269.199 25.8H272.199V28.8H269.199V25.8ZM269.199 29.4H272.199V32.4H269.199V29.4ZM265.599 33H268.599V36H265.599V33ZM261.999 33H264.999V36H261.999V33ZM258.399 33H261.399V36H258.399V33ZM254.799 18.6H257.799V21.6H254.799V18.6ZM254.799 22.2H257.799V25.2H254.799V22.2ZM254.799 25.8H257.799V28.8H254.799V25.8ZM254.799 29.4H257.799V32.4H254.799V29.4ZM254.799 33H257.799V36H254.799V33ZM283.591 11.4H286.591V14.4H283.591V11.4ZM279.991 11.4H282.991V14.4H279.991V11.4ZM279.991 15H282.991V18H279.991V15ZM276.391 11.4H279.391V14.4H276.391V11.4ZM283.591 33H286.591V36H283.591V33ZM279.991 18.6H282.991V21.6H279.991V18.6ZM279.991 22.2H282.991V25.2H279.991V22.2ZM279.991 25.8H282.991V28.8H279.991V25.8ZM279.991 29.4H282.991V32.4H279.991V29.4ZM279.991 33H282.991V36H279.991V33ZM276.391 33H279.391V36H276.391V33ZM305.205 15H308.205V18H305.205V15ZM301.605 11.4H304.605V14.4H301.605V11.4ZM298.005 11.4H301.005V14.4H298.005V11.4ZM294.405 11.4H297.405V14.4H294.405V11.4ZM290.805 11.4H293.805V14.4H290.805V11.4ZM290.805 15H293.805V18H290.805V15ZM305.205 18.6H308.205V21.6H305.205V18.6ZM305.205 22.2H308.205V25.2H305.205V22.2ZM305.205 25.8H308.205V28.8H305.205V25.8ZM305.205 29.4H308.205V32.4H305.205V29.4ZM301.605 33H304.605V36H301.605V33ZM298.005 33H301.005V36H298.005V33ZM294.405 33H297.405V36H294.405V33ZM290.805 18.6H293.805V21.6H290.805V18.6ZM290.805 22.2H293.805V25.2H290.805V22.2ZM290.805 25.8H293.805V28.8H290.805V25.8ZM290.805 29.4H293.805V32.4H290.805V29.4ZM290.805 33H293.805V36H290.805V33ZM326.796 15H329.796V18H326.796V15ZM323.196 11.4H326.196V14.4H323.196V11.4ZM319.596 11.4H322.596V14.4H319.596V11.4ZM315.996 11.4H318.996V14.4H315.996V11.4ZM312.396 15H315.396V18H312.396V15ZM326.796 18.6H329.796V21.6H326.796V18.6ZM326.796 22.2H329.796V25.2H326.796V22.2ZM326.796 25.8H329.796V28.8H326.796V25.8ZM326.796 29.4H329.796V32.4H326.796V29.4ZM326.796 33H329.796V36H326.796V33ZM323.196 22.2H326.196V25.2H323.196V22.2ZM319.596 22.2H322.596V25.2H319.596V22.2ZM315.996 22.2H318.996V25.2H315.996V22.2ZM312.396 18.6H315.396V21.6H312.396V18.6ZM312.396 22.2H315.396V25.2H312.396V22.2ZM312.396 25.8H315.396V28.8H312.396V25.8ZM312.396 29.4H315.396V32.4H312.396V29.4ZM312.396 33H315.396V36H312.396V33ZM360.98 15H363.98V18H360.98V15ZM357.38 11.4H360.38V14.4H357.38V11.4ZM353.78 11.4H356.78V14.4H353.78V11.4ZM350.18 11.4H353.18V14.4H350.18V11.4ZM346.58 15H349.58V18H346.58V15ZM360.98 18.6H363.98V21.6H360.98V18.6ZM360.98 33H363.98V36H360.98V33ZM357.38 22.2H360.38V25.2H357.38V22.2ZM357.38 33H360.38V36H357.38V33ZM353.78 25.8H356.78V28.8H353.78V25.8ZM353.78 33H356.78V36H353.78V33ZM350.18 29.4H353.18V32.4H350.18V29.4ZM350.18 33H353.18V36H350.18V33ZM346.58 33H349.58V36H346.58V33ZM382.572 15H385.572V18H382.572V15ZM378.972 18.6H381.972V21.6H378.972V18.6ZM375.372 22.2H378.372V25.2H375.372V22.2ZM371.772 25.8H374.772V28.8H371.772V25.8ZM368.172 29.4H371.172V32.4H368.172V29.4ZM404.164 11.4H407.164V14.4H404.164V11.4ZM400.564 11.4H403.564V14.4H400.564V11.4ZM396.964 11.4H399.964V14.4H396.964V11.4ZM393.364 11.4H396.364V14.4H393.364V11.4ZM389.764 11.4H392.764V14.4H389.764V11.4ZM389.764 15H392.764V18H389.764V15ZM404.164 22.2H407.164V25.2H404.164V22.2ZM404.164 25.8H407.164V28.8H404.164V25.8ZM404.164 29.4H407.164V32.4H404.164V29.4ZM400.564 18.6H403.564V21.6H400.564V18.6ZM400.564 33H403.564V36H400.564V33ZM396.964 18.6H399.964V21.6H396.964V18.6ZM396.964 33H399.964V36H396.964V33ZM393.364 18.6H396.364V21.6H393.364V18.6ZM393.364 33H396.364V36H393.364V33ZM389.764 18.6H392.764V21.6H389.764V18.6ZM389.764 29.4H392.764V32.4H389.764V29.4Z" fill="white"/>
<rect x="1.5" y="224.5" width="449" height="54" stroke="#5B65C2" stroke-width="3"/>
<rect x="1.5" y="1.5" width="449" height="277" stroke="#5B65C2" stroke-width="3"/>
<path d="M153.533 179.4H156.533V182.4H153.533V179.4ZM149.933 179.4H152.933V182.4H149.933V179.4ZM146.333 179.4H149.333V182.4H146.333V179.4ZM142.733 179.4H145.733V182.4H142.733V179.4ZM139.133 179.4H142.133V182.4H139.133V179.4ZM139.133 183H142.133V186H139.133V183ZM153.533 201H156.533V204H153.533V201ZM149.933 190.2H152.933V193.2H149.933V190.2ZM149.933 201H152.933V204H149.933V201ZM146.333 190.2H149.333V193.2H146.333V190.2ZM146.333 201H149.333V204H146.333V201ZM142.733 190.2H145.733V193.2H142.733V190.2ZM142.733 201H145.733V204H142.733V201ZM139.133 186.6H142.133V189.6H139.133V186.6ZM139.133 190.2H142.133V193.2H139.133V190.2ZM139.133 193.8H142.133V196.8H139.133V193.8ZM139.133 197.4H142.133V200.4H139.133V197.4ZM139.133 201H142.133V204H139.133V201ZM175.125 179.4H178.125V182.4H175.125V179.4ZM175.125 183H178.125V186H175.125V183ZM171.525 183H174.525V186H171.525V183ZM164.325 183H167.325V186H164.325V183ZM160.725 179.4H163.725V182.4H160.725V179.4ZM160.725 183H163.725V186H160.725V183ZM175.125 186.6H178.125V189.6H175.125V186.6ZM175.125 190.2H178.125V193.2H175.125V190.2ZM175.125 193.8H178.125V196.8H175.125V193.8ZM175.125 197.4H178.125V200.4H175.125V197.4ZM175.125 201H178.125V204H175.125V201ZM167.925 186.6H170.925V189.6H167.925V186.6ZM167.925 190.2H170.925V193.2H167.925V190.2ZM160.725 186.6H163.725V189.6H160.725V186.6ZM160.725 190.2H163.725V193.2H160.725V190.2ZM160.725 193.8H163.725V196.8H160.725V193.8ZM160.725 197.4H163.725V200.4H160.725V197.4ZM160.725 201H163.725V204H160.725V201ZM196.716 183H199.716V186H196.716V183ZM193.116 179.4H196.116V182.4H193.116V179.4ZM189.516 179.4H192.516V182.4H189.516V179.4ZM185.916 179.4H188.916V182.4H185.916V179.4ZM182.316 179.4H185.316V182.4H182.316V179.4ZM182.316 183H185.316V186H182.316V183ZM196.716 186.6H199.716V189.6H196.716V186.6ZM193.116 190.2H196.116V193.2H193.116V190.2ZM189.516 190.2H192.516V193.2H189.516V190.2ZM185.916 190.2H188.916V193.2H185.916V190.2ZM182.316 186.6H185.316V189.6H182.316V186.6ZM182.316 190.2H185.316V193.2H182.316V190.2ZM182.316 193.8H185.316V196.8H182.316V193.8ZM182.316 197.4H185.316V200.4H182.316V197.4ZM182.316 201H185.316V204H182.316V201ZM203.908 179.4H206.908V182.4H203.908V179.4ZM203.908 183H206.908V186H203.908V183ZM218.308 201H221.308V204H218.308V201ZM214.708 201H217.708V204H214.708V201ZM211.108 201H214.108V204H211.108V201ZM207.508 201H210.508V204H207.508V201ZM203.908 186.6H206.908V189.6H203.908V186.6ZM203.908 190.2H206.908V193.2H203.908V190.2ZM203.908 193.8H206.908V196.8H203.908V193.8ZM203.908 197.4H206.908V200.4H203.908V197.4ZM203.908 201H206.908V204H203.908V201ZM239.9 179.4H242.9V182.4H239.9V179.4ZM236.3 179.4H239.3V182.4H236.3V179.4ZM232.7 179.4H235.7V182.4H232.7V179.4ZM229.1 179.4H232.1V182.4H229.1V179.4ZM225.5 179.4H228.5V182.4H225.5V179.4ZM225.5 183H228.5V186H225.5V183ZM239.9 201H242.9V204H239.9V201ZM236.3 190.2H239.3V193.2H236.3V190.2ZM236.3 201H239.3V204H236.3V201ZM232.7 190.2H235.7V193.2H232.7V190.2ZM232.7 201H235.7V204H232.7V201ZM229.1 190.2H232.1V193.2H229.1V190.2ZM229.1 201H232.1V204H229.1V201ZM225.5 186.6H228.5V189.6H225.5V186.6ZM225.5 190.2H228.5V193.2H225.5V190.2ZM225.5 193.8H228.5V196.8H225.5V193.8ZM225.5 197.4H228.5V200.4H225.5V197.4ZM225.5 201H228.5V204H225.5V201ZM261.492 183H264.492V186H261.492V183ZM257.892 179.4H260.892V182.4H257.892V179.4ZM254.292 179.4H257.292V182.4H254.292V179.4ZM250.692 179.4H253.692V182.4H250.692V179.4ZM247.092 183H250.092V186H247.092V183ZM261.492 186.6H264.492V189.6H261.492V186.6ZM261.492 190.2H264.492V193.2H261.492V190.2ZM261.492 193.8H264.492V196.8H261.492V193.8ZM261.492 197.4H264.492V200.4H261.492V197.4ZM261.492 201H264.492V204H261.492V201ZM257.892 190.2H260.892V193.2H257.892V190.2ZM254.292 190.2H257.292V193.2H254.292V190.2ZM250.692 190.2H253.692V193.2H250.692V190.2ZM247.092 186.6H250.092V189.6H247.092V186.6ZM247.092 190.2H250.092V193.2H247.092V190.2ZM247.092 193.8H250.092V196.8H247.092V193.8ZM247.092 197.4H250.092V200.4H247.092V197.4ZM247.092 201H250.092V204H247.092V201ZM283.084 183H286.084V186H283.084V183ZM279.484 179.4H282.484V182.4H279.484V179.4ZM275.884 179.4H278.884V182.4H275.884V179.4ZM272.284 179.4H275.284V182.4H272.284V179.4ZM268.684 179.4H271.684V182.4H268.684V179.4ZM268.684 183H271.684V186H268.684V183ZM283.084 186.6H286.084V189.6H283.084V186.6ZM283.084 190.2H286.084V193.2H283.084V190.2ZM283.084 193.8H286.084V196.8H283.084V193.8ZM283.084 197.4H286.084V200.4H283.084V197.4ZM279.484 201H282.484V204H279.484V201ZM275.884 201H278.884V204H275.884V201ZM272.284 201H275.284V204H272.284V201ZM268.684 186.6H271.684V189.6H268.684V186.6ZM268.684 190.2H271.684V193.2H268.684V190.2ZM268.684 193.8H271.684V196.8H268.684V193.8ZM268.684 197.4H271.684V200.4H268.684V197.4ZM268.684 201H271.684V204H268.684V201ZM304.675 183H307.675V186H304.675V183ZM301.075 179.4H304.075V182.4H301.075V179.4ZM297.475 179.4H300.475V182.4H297.475V179.4ZM293.875 179.4H296.875V182.4H293.875V179.4ZM290.275 183H293.275V186H290.275V183ZM304.675 186.6H307.675V189.6H304.675V186.6ZM304.675 190.2H307.675V193.2H304.675V190.2ZM304.675 193.8H307.675V196.8H304.675V193.8ZM304.675 197.4H307.675V200.4H304.675V197.4ZM301.075 201H304.075V204H301.075V201ZM297.475 201H300.475V204H297.475V201ZM293.875 201H296.875V204H293.875V201ZM290.275 186.6H293.275V189.6H290.275V186.6ZM290.275 190.2H293.275V193.2H290.275V190.2ZM290.275 193.8H293.275V196.8H290.275V193.8ZM290.275 197.4H293.275V200.4H290.275V197.4Z" fill="#5B65C2"/>
<path d="M28.4 67.4H31.4V70.4H28.4V67.4ZM28.4 71H31.4V74H28.4V71ZM24.8 71H27.8V74H24.8V71ZM17.6 71H20.6V74H17.6V71ZM14 67.4H17V70.4H14V67.4ZM14 71H17V74H14V71ZM28.4 74.6H31.4V77.6H28.4V74.6ZM28.4 78.2H31.4V81.2H28.4V78.2ZM28.4 81.8H31.4V84.8H28.4V81.8ZM28.4 85.4H31.4V88.4H28.4V85.4ZM28.4 89H31.4V92H28.4V89ZM21.2 74.6H24.2V77.6H21.2V74.6ZM21.2 78.2H24.2V81.2H21.2V78.2ZM14 74.6H17V77.6H14V74.6ZM14 78.2H17V81.2H14V78.2ZM14 81.8H17V84.8H14V81.8ZM14 85.4H17V88.4H14V85.4ZM14 89H17V92H14V89ZM49.9918 71H52.9918V74H49.9918V71ZM46.3918 67.4H49.3918V70.4H46.3918V67.4ZM42.7918 67.4H45.7918V70.4H42.7918V67.4ZM39.1918 67.4H42.1918V70.4H39.1918V67.4ZM35.5918 71H38.5918V74H35.5918V71ZM49.9918 74.6H52.9918V77.6H49.9918V74.6ZM49.9918 78.2H52.9918V81.2H49.9918V78.2ZM49.9918 81.8H52.9918V84.8H49.9918V81.8ZM49.9918 85.4H52.9918V88.4H49.9918V85.4ZM46.3918 89H49.3918V92H46.3918V89ZM42.7918 89H45.7918V92H42.7918V89ZM39.1918 89H42.1918V92H39.1918V89ZM35.5918 74.6H38.5918V77.6H35.5918V74.6ZM35.5918 78.2H38.5918V81.2H35.5918V78.2ZM35.5918 81.8H38.5918V84.8H35.5918V81.8ZM35.5918 85.4H38.5918V88.4H35.5918V85.4ZM71.5836 67.4H74.5836V70.4H71.5836V67.4ZM71.5836 71H74.5836V74H71.5836V71ZM57.1836 67.4H60.1836V70.4H57.1836V67.4ZM57.1836 71H60.1836V74H57.1836V71ZM71.5836 74.6H74.5836V77.6H71.5836V74.6ZM71.5836 78.2H74.5836V81.2H71.5836V78.2ZM71.5836 81.8H74.5836V84.8H71.5836V81.8ZM71.5836 85.4H74.5836V88.4H71.5836V85.4ZM71.5836 89H74.5836V92H71.5836V89ZM67.9836 81.8H70.9836V84.8H67.9836V81.8ZM64.3836 78.2H67.3836V81.2H64.3836V78.2ZM60.7836 74.6H63.7836V77.6H60.7836V74.6ZM57.1836 74.6H60.1836V77.6H57.1836V74.6ZM57.1836 78.2H60.1836V81.2H57.1836V78.2ZM57.1836 81.8H60.1836V84.8H57.1836V81.8ZM57.1836 85.4H60.1836V88.4H57.1836V85.4ZM57.1836 89H60.1836V92H57.1836V89ZM93.1754 67.4H96.1754V70.4H93.1754V67.4ZM89.5754 67.4H92.5754V70.4H89.5754V67.4ZM85.9754 67.4H88.9754V70.4H85.9754V67.4ZM85.9754 71H88.9754V74H85.9754V71ZM82.3754 67.4H85.3754V70.4H82.3754V67.4ZM78.7754 67.4H81.7754V70.4H78.7754V67.4ZM85.9754 74.6H88.9754V77.6H85.9754V74.6ZM85.9754 78.2H88.9754V81.2H85.9754V78.2ZM85.9754 81.8H88.9754V84.8H85.9754V81.8ZM85.9754 85.4H88.9754V88.4H85.9754V85.4ZM85.9754 89H88.9754V92H85.9754V89ZM114.767 71H117.767V74H114.767V71ZM111.167 67.4H114.167V70.4H111.167V67.4ZM107.567 67.4H110.567V70.4H107.567V67.4ZM103.967 67.4H106.967V70.4H103.967V67.4ZM100.367 71H103.367V74H100.367V71ZM114.767 74.6H117.767V77.6H114.767V74.6ZM114.767 78.2H117.767V81.2H114.767V78.2ZM114.767 81.8H117.767V84.8H114.767V81.8ZM114.767 85.4H117.767V88.4H114.767V85.4ZM111.167 89H114.167V92H111.167V89ZM107.567 89H110.567V92H107.567V89ZM103.967 89H106.967V92H103.967V89ZM100.367 74.6H103.367V77.6H100.367V74.6ZM100.367 78.2H103.367V81.2H100.367V78.2ZM100.367 81.8H103.367V84.8H100.367V81.8ZM100.367 85.4H103.367V88.4H100.367V85.4ZM125.559 71H128.559V74H125.559V71ZM121.959 71H124.959V74H121.959V71ZM125.559 74.6H128.559V77.6H125.559V74.6ZM125.559 81.8H128.559V84.8H125.559V81.8ZM125.559 85.4H128.559V88.4H125.559V85.4ZM121.959 74.6H124.959V77.6H121.959V74.6ZM121.959 81.8H124.959V84.8H121.959V81.8ZM121.959 85.4H124.959V88.4H121.959V85.4ZM28.4 104H31.4V107H28.4V104ZM24.8 100.4H27.8V103.4H24.8V100.4ZM21.2 100.4H24.2V103.4H21.2V100.4ZM17.6 100.4H20.6V103.4H17.6V100.4ZM14 100.4H17V103.4H14V100.4ZM14 104H17V107H14V104ZM28.4 107.6H31.4V110.6H28.4V107.6ZM24.8 111.2H27.8V114.2H24.8V111.2ZM21.2 111.2H24.2V114.2H21.2V111.2ZM17.6 111.2H20.6V114.2H17.6V111.2ZM14 107.6H17V110.6H14V107.6ZM14 111.2H17V114.2H14V111.2ZM14 114.8H17V117.8H14V114.8ZM14 118.4H17V121.4H14V118.4ZM14 122H17V125H14V122ZM49.9918 104H52.9918V107H49.9918V104ZM46.3918 100.4H49.3918V103.4H46.3918V100.4ZM42.7918 100.4H45.7918V103.4H42.7918V100.4ZM39.1918 100.4H42.1918V103.4H39.1918V100.4ZM35.5918 100.4H38.5918V103.4H35.5918V100.4ZM35.5918 104H38.5918V107H35.5918V104ZM49.9918 107.6H52.9918V110.6H49.9918V107.6ZM49.9918 122H52.9918V125H49.9918V122ZM46.3918 111.2H49.3918V114.2H46.3918V111.2ZM46.3918 118.4H49.3918V121.4H46.3918V118.4ZM42.7918 111.2H45.7918V114.2H42.7918V111.2ZM42.7918 114.8H45.7918V117.8H42.7918V114.8ZM39.1918 111.2H42.1918V114.2H39.1918V111.2ZM35.5918 107.6H38.5918V110.6H35.5918V107.6ZM35.5918 111.2H38.5918V114.2H35.5918V111.2ZM35.5918 114.8H38.5918V117.8H35.5918V114.8ZM35.5918 118.4H38.5918V121.4H35.5918V118.4ZM35.5918 122H38.5918V125H35.5918V122ZM71.5836 104H74.5836V107H71.5836V104ZM67.9836 100.4H70.9836V103.4H67.9836V100.4ZM64.3836 100.4H67.3836V103.4H64.3836V100.4ZM60.7836 100.4H63.7836V103.4H60.7836V100.4ZM57.1836 104H60.1836V107H57.1836V104ZM71.5836 107.6H74.5836V110.6H71.5836V107.6ZM71.5836 111.2H74.5836V114.2H71.5836V111.2ZM71.5836 114.8H74.5836V117.8H71.5836V114.8ZM71.5836 118.4H74.5836V121.4H71.5836V118.4ZM67.9836 122H70.9836V125H67.9836V122ZM64.3836 122H67.3836V125H64.3836V122ZM60.7836 122H63.7836V125H60.7836V122ZM57.1836 107.6H60.1836V110.6H57.1836V107.6ZM57.1836 111.2H60.1836V114.2H57.1836V111.2ZM57.1836 114.8H60.1836V117.8H57.1836V114.8ZM57.1836 118.4H60.1836V121.4H57.1836V118.4ZM93.1754 104H96.1754V107H93.1754V104ZM89.5754 100.4H92.5754V103.4H89.5754V100.4ZM85.9754 100.4H88.9754V103.4H85.9754V100.4ZM82.3754 100.4H85.3754V103.4H82.3754V100.4ZM78.7754 100.4H81.7754V103.4H78.7754V100.4ZM78.7754 104H81.7754V107H78.7754V104ZM93.1754 107.6H96.1754V110.6H93.1754V107.6ZM89.5754 111.2H92.5754V114.2H89.5754V111.2ZM85.9754 111.2H88.9754V114.2H85.9754V111.2ZM82.3754 111.2H85.3754V114.2H82.3754V111.2ZM78.7754 107.6H81.7754V110.6H78.7754V107.6ZM78.7754 111.2H81.7754V114.2H78.7754V111.2ZM78.7754 114.8H81.7754V117.8H78.7754V114.8ZM78.7754 118.4H81.7754V121.4H78.7754V118.4ZM78.7754 122H81.7754V125H78.7754V122ZM107.567 100.4H110.567V103.4H107.567V100.4ZM103.967 100.4H106.967V103.4H103.967V100.4ZM103.967 104H106.967V107H103.967V104ZM100.367 100.4H103.367V103.4H100.367V100.4ZM107.567 122H110.567V125H107.567V122ZM103.967 107.6H106.967V110.6H103.967V107.6ZM103.967 111.2H106.967V114.2H103.967V111.2ZM103.967 114.8H106.967V117.8H103.967V114.8ZM103.967 118.4H106.967V121.4H103.967V118.4ZM103.967 122H106.967V125H103.967V122ZM100.367 122H103.367V125H100.367V122ZM129.181 100.4H132.181V103.4H129.181V100.4ZM129.181 104H132.181V107H129.181V104ZM114.781 100.4H117.781V103.4H114.781V100.4ZM114.781 104H117.781V107H114.781V104ZM129.181 107.6H132.181V110.6H129.181V107.6ZM129.181 111.2H132.181V114.2H129.181V111.2ZM129.181 114.8H132.181V117.8H129.181V114.8ZM129.181 118.4H132.181V121.4H129.181V118.4ZM129.181 122H132.181V125H129.181V122ZM125.581 114.8H128.581V117.8H125.581V114.8ZM121.981 111.2H124.981V114.2H121.981V111.2ZM118.381 107.6H121.381V110.6H118.381V107.6ZM114.781 107.6H117.781V110.6H114.781V107.6ZM114.781 111.2H117.781V114.2H114.781V111.2ZM114.781 114.8H117.781V117.8H114.781V114.8ZM114.781 118.4H117.781V121.4H114.781V118.4ZM114.781 122H117.781V125H114.781V122ZM150.773 104H153.773V107H150.773V104ZM147.173 100.4H150.173V103.4H147.173V100.4ZM143.573 100.4H146.573V103.4H143.573V100.4ZM139.973 100.4H142.973V103.4H139.973V100.4ZM136.373 104H139.373V107H136.373V104ZM150.773 107.6H153.773V110.6H150.773V107.6ZM150.773 111.2H153.773V114.2H150.773V111.2ZM150.773 114.8H153.773V117.8H150.773V114.8ZM150.773 118.4H153.773V121.4H150.773V118.4ZM150.773 122H153.773V125H150.773V122ZM147.173 111.2H150.173V114.2H147.173V111.2ZM143.573 111.2H146.573V114.2H143.573V111.2ZM139.973 111.2H142.973V114.2H139.973V111.2ZM136.373 107.6H139.373V110.6H136.373V107.6ZM136.373 111.2H139.373V114.2H136.373V111.2ZM136.373 114.8H139.373V117.8H136.373V114.8ZM136.373 118.4H139.373V121.4H136.373V118.4ZM136.373 122H139.373V125H136.373V122ZM161.565 104H164.565V107H161.565V104ZM157.965 104H160.965V107H157.965V104ZM161.565 107.6H164.565V110.6H161.565V107.6ZM161.565 114.8H164.565V117.8H161.565V114.8ZM161.565 118.4H164.565V121.4H161.565V118.4ZM157.965 107.6H160.965V110.6H157.965V107.6ZM157.965 114.8H160.965V117.8H157.965V114.8ZM157.965 118.4H160.965V121.4H157.965V118.4ZM28.4 133.4H31.4V136.4H28.4V133.4ZM24.8 133.4H27.8V136.4H24.8V133.4ZM21.2 133.4H24.2V136.4H21.2V133.4ZM21.2 137H24.2V140H21.2V137ZM17.6 133.4H20.6V136.4H17.6V133.4ZM14 133.4H17V136.4H14V133.4ZM21.2 140.6H24.2V143.6H21.2V140.6ZM21.2 144.2H24.2V147.2H21.2V144.2ZM21.2 147.8H24.2V150.8H21.2V147.8ZM21.2 151.4H24.2V154.4H21.2V151.4ZM21.2 155H24.2V158H21.2V155ZM49.9918 137H52.9918V140H49.9918V137ZM46.3918 133.4H49.3918V136.4H46.3918V133.4ZM42.7918 133.4H45.7918V136.4H42.7918V133.4ZM39.1918 133.4H42.1918V136.4H39.1918V133.4ZM35.5918 137H38.5918V140H35.5918V137ZM49.9918 140.6H52.9918V143.6H49.9918V140.6ZM49.9918 144.2H52.9918V147.2H49.9918V144.2ZM49.9918 147.8H52.9918V150.8H49.9918V147.8ZM49.9918 151.4H52.9918V154.4H49.9918V151.4ZM46.3918 155H49.3918V158H46.3918V155ZM42.7918 155H45.7918V158H42.7918V155ZM39.1918 155H42.1918V158H39.1918V155ZM35.5918 140.6H38.5918V143.6H35.5918V140.6ZM35.5918 144.2H38.5918V147.2H35.5918V144.2ZM35.5918 147.8H38.5918V150.8H35.5918V147.8ZM35.5918 151.4H38.5918V154.4H35.5918V151.4ZM71.5836 133.4H74.5836V136.4H71.5836V133.4ZM67.9836 133.4H70.9836V136.4H67.9836V133.4ZM64.3836 133.4H67.3836V136.4H64.3836V133.4ZM64.3836 137H67.3836V140H64.3836V137ZM60.7836 133.4H63.7836V136.4H60.7836V133.4ZM57.1836 133.4H60.1836V136.4H57.1836V133.4ZM64.3836 140.6H67.3836V143.6H64.3836V140.6ZM64.3836 144.2H67.3836V147.2H64.3836V144.2ZM64.3836 147.8H67.3836V150.8H64.3836V147.8ZM64.3836 151.4H67.3836V154.4H64.3836V151.4ZM64.3836 155H67.3836V158H64.3836V155ZM93.1754 137H96.1754V140H93.1754V137ZM89.5754 133.4H92.5754V136.4H89.5754V133.4ZM85.9754 133.4H88.9754V136.4H85.9754V133.4ZM82.3754 133.4H85.3754V136.4H82.3754V133.4ZM78.7754 137H81.7754V140H78.7754V137ZM93.1754 140.6H96.1754V143.6H93.1754V140.6ZM93.1754 144.2H96.1754V147.2H93.1754V144.2ZM93.1754 147.8H96.1754V150.8H93.1754V147.8ZM93.1754 151.4H96.1754V154.4H93.1754V151.4ZM93.1754 155H96.1754V158H93.1754V155ZM89.5754 144.2H92.5754V147.2H89.5754V144.2ZM85.9754 144.2H88.9754V147.2H85.9754V144.2ZM82.3754 144.2H85.3754V147.2H82.3754V144.2ZM78.7754 140.6H81.7754V143.6H78.7754V140.6ZM78.7754 144.2H81.7754V147.2H78.7754V144.2ZM78.7754 147.8H81.7754V150.8H78.7754V147.8ZM78.7754 151.4H81.7754V154.4H78.7754V151.4ZM78.7754 155H81.7754V158H78.7754V155ZM100.367 133.4H103.367V136.4H100.367V133.4ZM100.367 137H103.367V140H100.367V137ZM114.767 155H117.767V158H114.767V155ZM111.167 155H114.167V158H111.167V155ZM107.567 155H110.567V158H107.567V155ZM103.967 155H106.967V158H103.967V155ZM100.367 140.6H103.367V143.6H100.367V140.6ZM100.367 144.2H103.367V147.2H100.367V144.2ZM100.367 147.8H103.367V150.8H100.367V147.8ZM100.367 151.4H103.367V154.4H100.367V151.4ZM100.367 155H103.367V158H100.367V155ZM125.559 137H128.559V140H125.559V137ZM121.959 137H124.959V140H121.959V137ZM125.559 140.6H128.559V143.6H125.559V140.6ZM125.559 147.8H128.559V150.8H125.559V147.8ZM125.559 151.4H128.559V154.4H125.559V151.4ZM121.959 140.6H124.959V143.6H121.959V140.6ZM121.959 147.8H124.959V150.8H121.959V147.8ZM121.959 151.4H124.959V154.4H121.959V151.4Z" fill="#5B65C2"/>
<path d="M308.839 92.6H311.839V95.6H308.839V92.6ZM308.839 63.8H311.839V66.8H308.839V63.8ZM308.839 81.8H311.839V84.8H308.839V81.8ZM308.839 85.4H311.839V88.4H308.839V85.4ZM308.839 71H311.839V74H308.839V71ZM308.839 74.6H311.839V77.6H308.839V74.6ZM316.039 71H319.039V74H316.039V71ZM312.439 67.4H315.439V70.4H312.439V67.4ZM308.839 67.4H311.839V70.4H308.839V67.4ZM305.239 67.4H308.239V70.4H305.239V67.4ZM301.639 71H304.639V74H301.639V71ZM316.039 81.8H319.039V84.8H316.039V81.8ZM316.039 85.4H319.039V88.4H316.039V85.4ZM312.439 78.2H315.439V81.2H312.439V78.2ZM312.439 89H315.439V92H312.439V89ZM308.839 78.2H311.839V81.2H308.839V78.2ZM308.839 89H311.839V92H308.839V89ZM305.239 78.2H308.239V81.2H305.239V78.2ZM305.239 89H308.239V92H305.239V89ZM301.639 74.6H304.639V77.6H301.639V74.6ZM301.639 85.4H304.639V88.4H301.639V85.4ZM316.039 71H319.039V74H316.039V71ZM312.439 67.4H315.439V70.4H312.439V67.4ZM308.839 67.4H311.839V70.4H308.839V67.4ZM305.239 67.4H308.239V70.4H305.239V67.4ZM301.639 71H304.639V74H301.639V71ZM316.039 81.8H319.039V84.8H316.039V81.8ZM316.039 85.4H319.039V88.4H316.039V85.4ZM312.439 78.2H315.439V81.2H312.439V78.2ZM312.439 89H315.439V92H312.439V89ZM308.839 78.2H311.839V81.2H308.839V78.2ZM308.839 89H311.839V92H308.839V89ZM305.239 78.2H308.239V81.2H305.239V78.2ZM305.239 89H308.239V92H305.239V89ZM301.639 74.6H304.639V77.6H301.639V74.6ZM301.639 85.4H304.639V88.4H301.639V85.4ZM337.63 71H340.63V74H337.63V71ZM334.03 67.4H337.03V70.4H334.03V67.4ZM330.43 67.4H333.43V70.4H330.43V67.4ZM326.83 67.4H329.83V70.4H326.83V67.4ZM323.23 71H326.23V74H323.23V71ZM337.63 74.6H340.63V77.6H337.63V74.6ZM337.63 89H340.63V92H337.63V89ZM334.03 78.2H337.03V81.2H334.03V78.2ZM334.03 89H337.03V92H334.03V89ZM330.43 81.8H333.43V84.8H330.43V81.8ZM330.43 89H333.43V92H330.43V89ZM326.83 85.4H329.83V88.4H326.83V85.4ZM326.83 89H329.83V92H326.83V89ZM323.23 89H326.23V92H323.23V89ZM355.622 67.4H358.622V70.4H355.622V67.4ZM355.622 71H358.622V74H355.622V71ZM352.022 71H355.022V74H352.022V71ZM359.222 81.8H362.222V84.8H359.222V81.8ZM355.622 74.6H358.622V77.6H355.622V74.6ZM355.622 78.2H358.622V81.2H355.622V78.2ZM355.622 81.8H358.622V84.8H355.622V81.8ZM355.622 85.4H358.622V88.4H355.622V85.4ZM355.622 89H358.622V92H355.622V89ZM352.022 81.8H355.022V84.8H352.022V81.8ZM348.422 74.6H351.422V77.6H348.422V74.6ZM348.422 81.8H351.422V84.8H348.422V81.8ZM344.822 78.2H347.822V81.2H344.822V78.2ZM344.822 81.8H347.822V84.8H344.822V81.8ZM370.014 85.4H373.014V88.4H370.014V85.4ZM370.014 89H373.014V92H370.014V89ZM366.414 85.4H369.414V88.4H366.414V85.4ZM366.414 89H369.414V92H366.414V89ZM391.625 71H394.625V74H391.625V71ZM388.025 67.4H391.025V70.4H388.025V67.4ZM384.425 67.4H387.425V70.4H384.425V67.4ZM380.825 67.4H383.825V70.4H380.825V67.4ZM377.225 71H380.225V74H377.225V71ZM391.625 74.6H394.625V77.6H391.625V74.6ZM391.625 78.2H394.625V81.2H391.625V78.2ZM391.625 81.8H394.625V84.8H391.625V81.8ZM391.625 85.4H394.625V88.4H391.625V85.4ZM388.025 74.6H391.025V77.6H388.025V74.6ZM388.025 89H391.025V92H388.025V89ZM384.425 78.2H387.425V81.2H384.425V78.2ZM384.425 89H387.425V92H384.425V89ZM380.825 81.8H383.825V84.8H380.825V81.8ZM380.825 89H383.825V92H380.825V89ZM377.225 74.6H380.225V77.6H377.225V74.6ZM377.225 78.2H380.225V81.2H377.225V78.2ZM377.225 81.8H380.225V84.8H377.225V81.8ZM377.225 85.4H380.225V88.4H377.225V85.4ZM413.216 71H416.216V74H413.216V71ZM409.616 67.4H412.616V70.4H409.616V67.4ZM406.016 67.4H409.016V70.4H406.016V67.4ZM402.416 67.4H405.416V70.4H402.416V67.4ZM398.816 71H401.816V74H398.816V71ZM413.216 74.6H416.216V77.6H413.216V74.6ZM413.216 78.2H416.216V81.2H413.216V78.2ZM413.216 81.8H416.216V84.8H413.216V81.8ZM413.216 85.4H416.216V88.4H413.216V85.4ZM409.616 74.6H412.616V77.6H409.616V74.6ZM409.616 89H412.616V92H409.616V89ZM406.016 78.2H409.016V81.2H406.016V78.2ZM406.016 89H409.016V92H406.016V89ZM402.416 81.8H405.416V84.8H402.416V81.8ZM402.416 89H405.416V92H402.416V89ZM398.816 74.6H401.816V77.6H398.816V74.6ZM398.816 78.2H401.816V81.2H398.816V78.2ZM398.816 81.8H401.816V84.8H398.816V81.8ZM398.816 85.4H401.816V88.4H398.816V85.4ZM434.808 71H437.808V74H434.808V71ZM431.208 67.4H434.208V70.4H431.208V67.4ZM427.608 67.4H430.608V70.4H427.608V67.4ZM424.008 67.4H427.008V70.4H424.008V67.4ZM420.408 71H423.408V74H420.408V71ZM434.808 74.6H437.808V77.6H434.808V74.6ZM434.808 78.2H437.808V81.2H434.808V78.2ZM434.808 81.8H437.808V84.8H434.808V81.8ZM434.808 85.4H437.808V88.4H434.808V85.4ZM431.208 74.6H434.208V77.6H431.208V74.6ZM431.208 89H434.208V92H431.208V89ZM427.608 78.2H430.608V81.2H427.608V78.2ZM427.608 89H430.608V92H427.608V89ZM424.008 81.8H427.008V84.8H424.008V81.8ZM424.008 89H427.008V92H424.008V89ZM420.408 74.6H423.408V77.6H420.408V74.6ZM420.408 78.2H423.408V81.2H420.408V78.2ZM420.408 81.8H423.408V84.8H420.408V81.8ZM420.408 85.4H423.408V88.4H420.408V85.4ZM330.43 125.6H333.43V128.6H330.43V125.6ZM330.43 96.8H333.43V99.8H330.43V96.8ZM330.43 114.8H333.43V117.8H330.43V114.8ZM330.43 118.4H333.43V121.4H330.43V118.4ZM330.43 104H333.43V107H330.43V104ZM330.43 107.6H333.43V110.6H330.43V107.6ZM337.63 104H340.63V107H337.63V104ZM334.03 100.4H337.03V103.4H334.03V100.4ZM330.43 100.4H333.43V103.4H330.43V100.4ZM326.83 100.4H329.83V103.4H326.83V100.4ZM323.23 104H326.23V107H323.23V104ZM337.63 114.8H340.63V117.8H337.63V114.8ZM337.63 118.4H340.63V121.4H337.63V118.4ZM334.03 111.2H337.03V114.2H334.03V111.2ZM334.03 122H337.03V125H334.03V122ZM330.43 111.2H333.43V114.2H330.43V111.2ZM330.43 122H333.43V125H330.43V122ZM326.83 111.2H329.83V114.2H326.83V111.2ZM326.83 122H329.83V125H326.83V122ZM323.23 107.6H326.23V110.6H323.23V107.6ZM323.23 118.4H326.23V121.4H323.23V118.4ZM337.63 104H340.63V107H337.63V104ZM334.03 100.4H337.03V103.4H334.03V100.4ZM330.43 100.4H333.43V103.4H330.43V100.4ZM326.83 100.4H329.83V103.4H326.83V100.4ZM323.23 104H326.23V107H323.23V104ZM337.63 114.8H340.63V117.8H337.63V114.8ZM337.63 118.4H340.63V121.4H337.63V118.4ZM334.03 111.2H337.03V114.2H334.03V111.2ZM334.03 122H337.03V125H334.03V122ZM330.43 111.2H333.43V114.2H330.43V111.2ZM330.43 122H333.43V125H330.43V122ZM326.83 111.2H329.83V114.2H326.83V111.2ZM326.83 122H329.83V125H326.83V122ZM323.23 107.6H326.23V110.6H323.23V107.6ZM323.23 118.4H326.23V121.4H323.23V118.4ZM359.222 104H362.222V107H359.222V104ZM355.622 100.4H358.622V103.4H355.622V100.4ZM352.022 100.4H355.022V103.4H352.022V100.4ZM348.422 100.4H351.422V103.4H348.422V100.4ZM344.822 104H347.822V107H344.822V104ZM359.222 107.6H362.222V110.6H359.222V107.6ZM359.222 122H362.222V125H359.222V122ZM355.622 111.2H358.622V114.2H355.622V111.2ZM355.622 122H358.622V125H355.622V122ZM352.022 114.8H355.022V117.8H352.022V114.8ZM352.022 122H355.022V125H352.022V122ZM348.422 118.4H351.422V121.4H348.422V118.4ZM348.422 122H351.422V125H348.422V122ZM344.822 122H347.822V125H344.822V122ZM370.014 118.4H373.014V121.4H370.014V118.4ZM370.014 122H373.014V125H370.014V122ZM366.414 118.4H369.414V121.4H366.414V118.4ZM366.414 122H369.414V125H366.414V122ZM388.025 100.4H391.025V103.4H388.025V100.4ZM388.025 104H391.025V107H388.025V104ZM384.425 104H387.425V107H384.425V104ZM391.625 114.8H394.625V117.8H391.625V114.8ZM388.025 107.6H391.025V110.6H388.025V107.6ZM388.025 111.2H391.025V114.2H388.025V111.2ZM388.025 114.8H391.025V117.8H388.025V114.8ZM388.025 118.4H391.025V121.4H388.025V118.4ZM388.025 122H391.025V125H388.025V122ZM384.425 114.8H387.425V117.8H384.425V114.8ZM380.825 107.6H383.825V110.6H380.825V107.6ZM380.825 114.8H383.825V117.8H380.825V114.8ZM377.225 111.2H380.225V114.2H377.225V111.2ZM377.225 114.8H380.225V117.8H377.225V114.8ZM413.216 104H416.216V107H413.216V104ZM409.616 100.4H412.616V103.4H409.616V100.4ZM406.016 100.4H409.016V103.4H406.016V100.4ZM402.416 100.4H405.416V103.4H402.416V100.4ZM398.816 104H401.816V107H398.816V104ZM413.216 107.6H416.216V110.6H413.216V107.6ZM413.216 111.2H416.216V114.2H413.216V111.2ZM413.216 114.8H416.216V117.8H413.216V114.8ZM413.216 118.4H416.216V121.4H413.216V118.4ZM409.616 107.6H412.616V110.6H409.616V107.6ZM409.616 122H412.616V125H409.616V122ZM406.016 111.2H409.016V114.2H406.016V111.2ZM406.016 122H409.016V125H406.016V122ZM402.416 114.8H405.416V117.8H402.416V114.8ZM402.416 122H405.416V125H402.416V122ZM398.816 107.6H401.816V110.6H398.816V107.6ZM398.816 111.2H401.816V114.2H398.816V111.2ZM398.816 114.8H401.816V117.8H398.816V114.8ZM398.816 118.4H401.816V121.4H398.816V118.4ZM434.808 104H437.808V107H434.808V104ZM431.208 100.4H434.208V103.4H431.208V100.4ZM427.608 100.4H430.608V103.4H427.608V100.4ZM424.008 100.4H427.008V103.4H424.008V100.4ZM420.408 104H423.408V107H420.408V104ZM434.808 107.6H437.808V110.6H434.808V107.6ZM434.808 111.2H437.808V114.2H434.808V111.2ZM434.808 114.8H437.808V117.8H434.808V114.8ZM434.808 118.4H437.808V121.4H434.808V118.4ZM431.208 107.6H434.208V110.6H431.208V107.6ZM431.208 122H434.208V125H431.208V122ZM427.608 111.2H430.608V114.2H427.608V111.2ZM427.608 122H430.608V125H427.608V122ZM424.008 114.8H427.008V117.8H424.008V114.8ZM424.008 122H427.008V125H424.008V122ZM420.408 107.6H423.408V110.6H420.408V107.6ZM420.408 111.2H423.408V114.2H420.408V111.2ZM420.408 114.8H423.408V117.8H420.408V114.8ZM420.408 118.4H423.408V121.4H420.408V118.4ZM308.839 158.6H311.839V161.6H308.839V158.6ZM308.839 129.8H311.839V132.8H308.839V129.8ZM308.839 147.8H311.839V150.8H308.839V147.8ZM308.839 151.4H311.839V154.4H308.839V151.4ZM308.839 137H311.839V140H308.839V137ZM308.839 140.6H311.839V143.6H308.839V140.6ZM316.039 137H319.039V140H316.039V137ZM312.439 133.4H315.439V136.4H312.439V133.4ZM308.839 133.4H311.839V136.4H308.839V133.4ZM305.239 133.4H308.239V136.4H305.239V133.4ZM301.639 137H304.639V140H301.639V137ZM316.039 147.8H319.039V150.8H316.039V147.8ZM316.039 151.4H319.039V154.4H316.039V151.4ZM312.439 144.2H315.439V147.2H312.439V144.2ZM312.439 155H315.439V158H312.439V155ZM308.839 144.2H311.839V147.2H308.839V144.2ZM308.839 155H311.839V158H308.839V155ZM305.239 144.2H308.239V147.2H305.239V144.2ZM305.239 155H308.239V158H305.239V155ZM301.639 140.6H304.639V143.6H301.639V140.6ZM301.639 151.4H304.639V154.4H301.639V151.4ZM316.039 137H319.039V140H316.039V137ZM312.439 133.4H315.439V136.4H312.439V133.4ZM308.839 133.4H311.839V136.4H308.839V133.4ZM305.239 133.4H308.239V136.4H305.239V133.4ZM301.639 137H304.639V140H301.639V137ZM316.039 147.8H319.039V150.8H316.039V147.8ZM316.039 151.4H319.039V154.4H316.039V151.4ZM312.439 144.2H315.439V147.2H312.439V144.2ZM312.439 155H315.439V158H312.439V155ZM308.839 144.2H311.839V147.2H308.839V144.2ZM308.839 155H311.839V158H308.839V155ZM305.239 144.2H308.239V147.2H305.239V144.2ZM305.239 155H308.239V158H305.239V155ZM301.639 140.6H304.639V143.6H301.639V140.6ZM301.639 151.4H304.639V154.4H301.639V151.4ZM337.63 137H340.63V140H337.63V137ZM334.03 133.4H337.03V136.4H334.03V133.4ZM330.43 133.4H333.43V136.4H330.43V133.4ZM326.83 133.4H329.83V136.4H326.83V133.4ZM323.23 137H326.23V140H323.23V137ZM337.63 140.6H340.63V143.6H337.63V140.6ZM337.63 155H340.63V158H337.63V155ZM334.03 144.2H337.03V147.2H334.03V144.2ZM334.03 155H337.03V158H334.03V155ZM330.43 147.8H333.43V150.8H330.43V147.8ZM330.43 155H333.43V158H330.43V155ZM326.83 151.4H329.83V154.4H326.83V151.4ZM326.83 155H329.83V158H326.83V155ZM323.23 155H326.23V158H323.23V155ZM355.622 133.4H358.622V136.4H355.622V133.4ZM352.022 133.4H355.022V136.4H352.022V133.4ZM348.422 133.4H351.422V136.4H348.422V133.4ZM344.822 137H347.822V140H344.822V137ZM359.222 144.2H362.222V147.2H359.222V144.2ZM359.222 147.8H362.222V150.8H359.222V147.8ZM359.222 151.4H362.222V154.4H359.222V151.4ZM355.622 140.6H358.622V143.6H355.622V140.6ZM355.622 155H358.622V158H355.622V155ZM352.022 140.6H355.022V143.6H352.022V140.6ZM352.022 155H355.022V158H352.022V155ZM348.422 140.6H351.422V143.6H348.422V140.6ZM348.422 155H351.422V158H348.422V155ZM344.822 140.6H347.822V143.6H344.822V140.6ZM344.822 144.2H347.822V147.2H344.822V144.2ZM344.822 147.8H347.822V150.8H344.822V147.8ZM344.822 151.4H347.822V154.4H344.822V151.4ZM370.014 151.4H373.014V154.4H370.014V151.4ZM370.014 155H373.014V158H370.014V155ZM366.414 151.4H369.414V154.4H366.414V151.4ZM366.414 155H369.414V158H366.414V155ZM388.025 133.4H391.025V136.4H388.025V133.4ZM388.025 137H391.025V140H388.025V137ZM384.425 137H387.425V140H384.425V137ZM391.625 147.8H394.625V150.8H391.625V147.8ZM388.025 140.6H391.025V143.6H388.025V140.6ZM388.025 144.2H391.025V147.2H388.025V144.2ZM388.025 147.8H391.025V150.8H388.025V147.8ZM388.025 151.4H391.025V154.4H388.025V151.4ZM388.025 155H391.025V158H388.025V155ZM384.425 147.8H387.425V150.8H384.425V147.8ZM380.825 140.6H383.825V143.6H380.825V140.6ZM380.825 147.8H383.825V150.8H380.825V147.8ZM377.225 144.2H380.225V147.2H377.225V144.2ZM377.225 147.8H380.225V150.8H377.225V147.8ZM413.216 137H416.216V140H413.216V137ZM409.616 133.4H412.616V136.4H409.616V133.4ZM406.016 133.4H409.016V136.4H406.016V133.4ZM402.416 133.4H405.416V136.4H402.416V133.4ZM398.816 137H401.816V140H398.816V137ZM413.216 140.6H416.216V143.6H413.216V140.6ZM413.216 144.2H416.216V147.2H413.216V144.2ZM413.216 147.8H416.216V150.8H413.216V147.8ZM413.216 151.4H416.216V154.4H413.216V151.4ZM409.616 140.6H412.616V143.6H409.616V140.6ZM409.616 155H412.616V158H409.616V155ZM406.016 144.2H409.016V147.2H406.016V144.2ZM406.016 155H409.016V158H406.016V155ZM402.416 147.8H405.416V150.8H402.416V147.8ZM402.416 155H405.416V158H402.416V155ZM398.816 140.6H401.816V143.6H398.816V140.6ZM398.816 144.2H401.816V147.2H398.816V144.2ZM398.816 147.8H401.816V150.8H398.816V147.8ZM398.816 151.4H401.816V154.4H398.816V151.4ZM434.808 137H437.808V140H434.808V137ZM431.208 133.4H434.208V136.4H431.208V133.4ZM427.608 133.4H430.608V136.4H427.608V133.4ZM424.008 133.4H427.008V136.4H424.008V133.4ZM420.408 137H423.408V140H420.408V137ZM434.808 140.6H437.808V143.6H434.808V140.6ZM434.808 144.2H437.808V147.2H434.808V144.2ZM434.808 147.8H437.808V150.8H434.808V147.8ZM434.808 151.4H437.808V154.4H434.808V151.4ZM431.208 140.6H434.208V143.6H431.208V140.6ZM431.208 155H434.208V158H431.208V155ZM427.608 144.2H430.608V147.2H427.608V144.2ZM427.608 155H430.608V158H427.608V155ZM424.008 147.8H427.008V150.8H424.008V147.8ZM424.008 155H427.008V158H424.008V155ZM420.408 140.6H423.408V143.6H420.408V140.6ZM420.408 144.2H423.408V147.2H420.408V144.2ZM420.408 147.8H423.408V150.8H420.408V147.8ZM420.408 151.4H423.408V154.4H420.408V151.4Z" fill="#5B65C2"/>
</g>
<defs>
<clipPath id="clip0">
<rect width="452" height="280" fill="white"/>
</clipPath>
</defs>
</svg>
