<svg width="452" height="280" viewBox="0 0 452 280" fill="none" xmlns="http://www.w3.org/2000/svg">
<g clip-path="url(#clip0)">
<rect width="452" height="280" fill="white"/>
<rect width="452" height="47" fill="#5B65C2"/>
<path d="M50.5445 15H53.5445V18H50.5445V15ZM46.9445 11.4H49.9445V14.4H46.9445V11.4ZM43.3445 11.4H46.3445V14.4H43.3445V11.4ZM39.7445 11.4H42.7445V14.4H39.7445V11.4ZM36.1445 15H39.1445V18H36.1445V15ZM50.5445 29.4H53.5445V32.4H50.5445V29.4ZM46.9445 33H49.9445V36H46.9445V33ZM43.3445 33H46.3445V36H43.3445V33ZM39.7445 33H42.7445V36H39.7445V33ZM36.1445 18.6H39.1445V21.6H36.1445V18.6ZM36.1445 22.2H39.1445V25.2H36.1445V22.2ZM36.1445 25.8H39.1445V28.8H36.1445V25.8ZM36.1445 29.4H39.1445V32.4H36.1445V29.4ZM72.1363 11.4H75.1363V14.4H72.1363V11.4ZM72.1363 15H75.1363V18H72.1363V15ZM57.7363 11.4H60.7363V14.4H57.7363V11.4ZM57.7363 15H60.7363V18H57.7363V15ZM72.1363 18.6H75.1363V21.6H72.1363V18.6ZM72.1363 22.2H75.1363V25.2H72.1363V22.2ZM72.1363 25.8H75.1363V28.8H72.1363V25.8ZM72.1363 29.4H75.1363V32.4H72.1363V29.4ZM68.5363 33H71.5363V36H68.5363V33ZM64.9363 33H67.9363V36H64.9363V33ZM61.3363 33H64.3363V36H61.3363V33ZM57.7363 18.6H60.7363V21.6H57.7363V18.6ZM57.7363 22.2H60.7363V25.2H57.7363V22.2ZM57.7363 25.8H60.7363V28.8H57.7363V25.8ZM57.7363 29.4H60.7363V32.4H57.7363V29.4ZM93.7281 11.4H96.7281V14.4H93.7281V11.4ZM90.1281 11.4H93.1281V14.4H90.1281V11.4ZM86.5281 11.4H89.5281V14.4H86.5281V11.4ZM82.9281 11.4H85.9281V14.4H82.9281V11.4ZM79.3281 11.4H82.3281V14.4H79.3281V11.4ZM79.3281 15H82.3281V18H79.3281V15ZM93.7281 33H96.7281V36H93.7281V33ZM90.1281 22.2H93.1281V25.2H90.1281V22.2ZM90.1281 33H93.1281V36H90.1281V33ZM86.5281 22.2H89.5281V25.2H86.5281V22.2ZM86.5281 33H89.5281V36H86.5281V33ZM82.9281 22.2H85.9281V25.2H82.9281V22.2ZM82.9281 33H85.9281V36H82.9281V33ZM79.3281 18.6H82.3281V21.6H79.3281V18.6ZM79.3281 22.2H82.3281V25.2H79.3281V22.2ZM79.3281 25.8H82.3281V28.8H79.3281V25.8ZM79.3281 29.4H82.3281V32.4H79.3281V29.4ZM79.3281 33H82.3281V36H79.3281V33ZM115.32 11.4H118.32V14.4H115.32V11.4ZM115.32 15H118.32V18H115.32V15ZM100.92 11.4H103.92V14.4H100.92V11.4ZM100.92 15H103.92V18H100.92V15ZM115.32 18.6H118.32V21.6H115.32V18.6ZM115.32 22.2H118.32V25.2H115.32V22.2ZM115.32 25.8H118.32V28.8H115.32V25.8ZM115.32 29.4H118.32V32.4H115.32V29.4ZM115.32 33H118.32V36H115.32V33ZM111.72 25.8H114.72V28.8H111.72V25.8ZM108.12 22.2H111.12V25.2H108.12V22.2ZM104.52 18.6H107.52V21.6H104.52V18.6ZM100.92 18.6H103.92V21.6H100.92V18.6ZM100.92 22.2H103.92V25.2H100.92V22.2ZM100.92 25.8H103.92V28.8H100.92V25.8ZM100.92 29.4H103.92V32.4H100.92V29.4ZM100.92 33H103.92V36H100.92V33ZM136.912 11.4H139.912V14.4H136.912V11.4ZM133.312 11.4H136.312V14.4H133.312V11.4ZM129.712 11.4H132.712V14.4H129.712V11.4ZM129.712 15H132.712V18H129.712V15ZM126.112 11.4H129.112V14.4H126.112V11.4ZM122.512 11.4H125.512V14.4H122.512V11.4ZM129.712 18.6H132.712V21.6H129.712V18.6ZM129.712 22.2H132.712V25.2H129.712V22.2ZM129.712 25.8H132.712V28.8H129.712V25.8ZM129.712 29.4H132.712V32.4H129.712V29.4ZM129.712 33H132.712V36H129.712V33ZM158.504 15H161.504V18H158.504V15ZM154.904 11.4H157.904V14.4H154.904V11.4ZM151.304 11.4H154.304V14.4H151.304V11.4ZM147.704 11.4H150.704V14.4H147.704V11.4ZM144.104 15H147.104V18H144.104V15ZM158.504 18.6H161.504V21.6H158.504V18.6ZM158.504 22.2H161.504V25.2H158.504V22.2ZM158.504 25.8H161.504V28.8H158.504V25.8ZM158.504 29.4H161.504V32.4H158.504V29.4ZM158.504 33H161.504V36H158.504V33ZM154.904 22.2H157.904V25.2H154.904V22.2ZM151.304 22.2H154.304V25.2H151.304V22.2ZM147.704 22.2H150.704V25.2H147.704V22.2ZM144.104 18.6H147.104V21.6H144.104V18.6ZM144.104 22.2H147.104V25.2H144.104V22.2ZM144.104 25.8H147.104V28.8H144.104V25.8ZM144.104 29.4H147.104V32.4H144.104V29.4ZM144.104 33H147.104V36H144.104V33ZM192.687 15H195.687V18H192.687V15ZM189.087 11.4H192.087V14.4H189.087V11.4ZM185.487 11.4H188.487V14.4H185.487V11.4ZM181.887 11.4H184.887V14.4H181.887V11.4ZM178.287 11.4H181.287V14.4H178.287V11.4ZM178.287 15H181.287V18H178.287V15ZM192.687 18.6H195.687V21.6H192.687V18.6ZM192.687 22.2H195.687V25.2H192.687V22.2ZM192.687 25.8H195.687V28.8H192.687V25.8ZM192.687 29.4H195.687V32.4H192.687V29.4ZM189.087 33H192.087V36H189.087V33ZM185.487 33H188.487V36H185.487V33ZM181.887 33H184.887V36H181.887V33ZM178.287 18.6H181.287V21.6H178.287V18.6ZM178.287 22.2H181.287V25.2H178.287V22.2ZM178.287 25.8H181.287V28.8H178.287V25.8ZM178.287 29.4H181.287V32.4H178.287V29.4ZM178.287 33H181.287V36H178.287V33ZM207.079 11.4H210.079V14.4H207.079V11.4ZM203.479 11.4H206.479V14.4H203.479V11.4ZM203.479 15H206.479V18H203.479V15ZM199.879 11.4H202.879V14.4H199.879V11.4ZM207.079 33H210.079V36H207.079V33ZM203.479 18.6H206.479V21.6H203.479V18.6ZM203.479 22.2H206.479V25.2H203.479V22.2ZM203.479 25.8H206.479V28.8H203.479V25.8ZM203.479 29.4H206.479V32.4H203.479V29.4ZM203.479 33H206.479V36H203.479V33ZM199.879 33H202.879V36H199.879V33ZM228.693 11.4H231.693V14.4H228.693V11.4ZM228.693 15H231.693V18H228.693V15ZM214.293 11.4H217.293V14.4H214.293V11.4ZM214.293 15H217.293V18H214.293V15ZM228.693 18.6H231.693V21.6H228.693V18.6ZM228.693 22.2H231.693V25.2H228.693V22.2ZM228.693 25.8H231.693V28.8H228.693V25.8ZM225.093 29.4H228.093V32.4H225.093V29.4ZM221.493 33H224.493V36H221.493V33ZM217.893 29.4H220.893V32.4H217.893V29.4ZM214.293 18.6H217.293V21.6H214.293V18.6ZM214.293 22.2H217.293V25.2H214.293V22.2ZM214.293 25.8H217.293V28.8H214.293V25.8ZM243.085 11.4H246.085V14.4H243.085V11.4ZM239.485 11.4H242.485V14.4H239.485V11.4ZM239.485 15H242.485V18H239.485V15ZM235.885 11.4H238.885V14.4H235.885V11.4ZM243.085 33H246.085V36H243.085V33ZM239.485 18.6H242.485V21.6H239.485V18.6ZM239.485 22.2H242.485V25.2H239.485V22.2ZM239.485 25.8H242.485V28.8H239.485V25.8ZM239.485 29.4H242.485V32.4H239.485V29.4ZM239.485 33H242.485V36H239.485V33ZM235.885 33H238.885V36H235.885V33ZM264.699 15H267.699V18H264.699V15ZM261.099 11.4H264.099V14.4H261.099V11.4ZM257.499 11.4H260.499V14.4H257.499V11.4ZM253.899 11.4H256.899V14.4H253.899V11.4ZM250.299 11.4H253.299V14.4H250.299V11.4ZM250.299 15H253.299V18H250.299V15ZM264.699 18.6H267.699V21.6H264.699V18.6ZM264.699 22.2H267.699V25.2H264.699V22.2ZM264.699 25.8H267.699V28.8H264.699V25.8ZM264.699 29.4H267.699V32.4H264.699V29.4ZM261.099 33H264.099V36H261.099V33ZM257.499 33H260.499V36H257.499V33ZM253.899 33H256.899V36H253.899V33ZM250.299 18.6H253.299V21.6H250.299V18.6ZM250.299 22.2H253.299V25.2H250.299V22.2ZM250.299 25.8H253.299V28.8H250.299V25.8ZM250.299 29.4H253.299V32.4H250.299V29.4ZM250.299 33H253.299V36H250.299V33ZM279.091 11.4H282.091V14.4H279.091V11.4ZM275.491 11.4H278.491V14.4H275.491V11.4ZM275.491 15H278.491V18H275.491V15ZM271.891 11.4H274.891V14.4H271.891V11.4ZM279.091 33H282.091V36H279.091V33ZM275.491 18.6H278.491V21.6H275.491V18.6ZM275.491 22.2H278.491V25.2H275.491V22.2ZM275.491 25.8H278.491V28.8H275.491V25.8ZM275.491 29.4H278.491V32.4H275.491V29.4ZM275.491 33H278.491V36H275.491V33ZM271.891 33H274.891V36H271.891V33ZM300.705 15H303.705V18H300.705V15ZM297.105 11.4H300.105V14.4H297.105V11.4ZM293.505 11.4H296.505V14.4H293.505V11.4ZM289.905 11.4H292.905V14.4H289.905V11.4ZM286.305 11.4H289.305V14.4H286.305V11.4ZM286.305 15H289.305V18H286.305V15ZM300.705 18.6H303.705V21.6H300.705V18.6ZM300.705 22.2H303.705V25.2H300.705V22.2ZM300.705 25.8H303.705V28.8H300.705V25.8ZM300.705 29.4H303.705V32.4H300.705V29.4ZM297.105 33H300.105V36H297.105V33ZM293.505 33H296.505V36H293.505V33ZM289.905 33H292.905V36H289.905V33ZM286.305 18.6H289.305V21.6H286.305V18.6ZM286.305 22.2H289.305V25.2H286.305V22.2ZM286.305 25.8H289.305V28.8H286.305V25.8ZM286.305 29.4H289.305V32.4H286.305V29.4ZM286.305 33H289.305V36H286.305V33ZM322.296 15H325.296V18H322.296V15ZM318.696 11.4H321.696V14.4H318.696V11.4ZM315.096 11.4H318.096V14.4H315.096V11.4ZM311.496 11.4H314.496V14.4H311.496V11.4ZM307.896 15H310.896V18H307.896V15ZM322.296 18.6H325.296V21.6H322.296V18.6ZM322.296 22.2H325.296V25.2H322.296V22.2ZM322.296 25.8H325.296V28.8H322.296V25.8ZM322.296 29.4H325.296V32.4H322.296V29.4ZM322.296 33H325.296V36H322.296V33ZM318.696 22.2H321.696V25.2H318.696V22.2ZM315.096 22.2H318.096V25.2H315.096V22.2ZM311.496 22.2H314.496V25.2H311.496V22.2ZM307.896 18.6H310.896V21.6H307.896V18.6ZM307.896 22.2H310.896V25.2H307.896V22.2ZM307.896 25.8H310.896V28.8H307.896V25.8ZM307.896 29.4H310.896V32.4H307.896V29.4ZM307.896 33H310.896V36H307.896V33ZM365.48 15H368.48V18H365.48V15ZM361.88 11.4H364.88V14.4H361.88V11.4ZM358.28 11.4H361.28V14.4H358.28V11.4ZM354.68 11.4H357.68V14.4H354.68V11.4ZM351.08 15H354.08V18H351.08V15ZM365.48 18.6H368.48V21.6H365.48V18.6ZM365.48 33H368.48V36H365.48V33ZM361.88 22.2H364.88V25.2H361.88V22.2ZM361.88 33H364.88V36H361.88V33ZM358.28 25.8H361.28V28.8H358.28V25.8ZM358.28 33H361.28V36H358.28V33ZM354.68 29.4H357.68V32.4H354.68V29.4ZM354.68 33H357.68V36H354.68V33ZM351.08 33H354.08V36H351.08V33ZM387.072 15H390.072V18H387.072V15ZM383.472 18.6H386.472V21.6H383.472V18.6ZM379.872 22.2H382.872V25.2H379.872V22.2ZM376.272 25.8H379.272V28.8H376.272V25.8ZM372.672 29.4H375.672V32.4H372.672V29.4ZM408.664 11.4H411.664V14.4H408.664V11.4ZM405.064 11.4H408.064V14.4H405.064V11.4ZM401.464 11.4H404.464V14.4H401.464V11.4ZM397.864 11.4H400.864V14.4H397.864V11.4ZM394.264 11.4H397.264V14.4H394.264V11.4ZM394.264 15H397.264V18H394.264V15ZM408.664 22.2H411.664V25.2H408.664V22.2ZM408.664 25.8H411.664V28.8H408.664V25.8ZM408.664 29.4H411.664V32.4H408.664V29.4ZM405.064 18.6H408.064V21.6H405.064V18.6ZM405.064 33H408.064V36H405.064V33ZM401.464 18.6H404.464V21.6H401.464V18.6ZM401.464 33H404.464V36H401.464V33ZM397.864 18.6H400.864V21.6H397.864V18.6ZM397.864 33H400.864V36H397.864V33ZM394.264 18.6H397.264V21.6H394.264V18.6ZM394.264 29.4H397.264V32.4H394.264V29.4Z" fill="white"/>
<rect x="108.5" y="224.5" width="342" height="54" stroke="#5B65C2" stroke-width="3"/>
<rect x="1.5" y="1.5" width="449" height="277" stroke="#5B65C2" stroke-width="3"/>
<path d="M73.8434 148H76.8434V151H73.8434V148ZM70.2434 144.4H73.2434V147.4H70.2434V144.4ZM66.6434 144.4H69.6434V147.4H66.6434V144.4ZM63.0434 144.4H66.0434V147.4H63.0434V144.4ZM59.4434 144.4H62.4434V147.4H59.4434V144.4ZM59.4434 148H62.4434V151H59.4434V148ZM73.8434 151.6H76.8434V154.6H73.8434V151.6ZM70.2434 155.2H73.2434V158.2H70.2434V155.2ZM66.6434 155.2H69.6434V158.2H66.6434V155.2ZM63.0434 155.2H66.0434V158.2H63.0434V155.2ZM59.4434 151.6H62.4434V154.6H59.4434V151.6ZM59.4434 155.2H62.4434V158.2H59.4434V155.2ZM59.4434 158.8H62.4434V161.8H59.4434V158.8ZM59.4434 162.4H62.4434V165.4H59.4434V162.4ZM59.4434 166H62.4434V169H59.4434V166ZM95.4352 148H98.4352V151H95.4352V148ZM91.8352 144.4H94.8352V147.4H91.8352V144.4ZM88.2352 144.4H91.2352V147.4H88.2352V144.4ZM84.6352 144.4H87.6352V147.4H84.6352V144.4ZM81.0352 144.4H84.0352V147.4H81.0352V144.4ZM81.0352 148H84.0352V151H81.0352V148ZM95.4352 151.6H98.4352V154.6H95.4352V151.6ZM95.4352 166H98.4352V169H95.4352V166ZM91.8352 155.2H94.8352V158.2H91.8352V155.2ZM91.8352 162.4H94.8352V165.4H91.8352V162.4ZM88.2352 155.2H91.2352V158.2H88.2352V155.2ZM88.2352 158.8H91.2352V161.8H88.2352V158.8ZM84.6352 155.2H87.6352V158.2H84.6352V155.2ZM81.0352 151.6H84.0352V154.6H81.0352V151.6ZM81.0352 155.2H84.0352V158.2H81.0352V155.2ZM81.0352 158.8H84.0352V161.8H81.0352V158.8ZM81.0352 162.4H84.0352V165.4H81.0352V162.4ZM81.0352 166H84.0352V169H81.0352V166ZM117.027 148H120.027V151H117.027V148ZM113.427 144.4H116.427V147.4H113.427V144.4ZM109.827 144.4H112.827V147.4H109.827V144.4ZM106.227 144.4H109.227V147.4H106.227V144.4ZM102.627 148H105.627V151H102.627V148ZM117.027 151.6H120.027V154.6H117.027V151.6ZM117.027 155.2H120.027V158.2H117.027V155.2ZM117.027 158.8H120.027V161.8H117.027V158.8ZM117.027 162.4H120.027V165.4H117.027V162.4ZM113.427 166H116.427V169H113.427V166ZM109.827 166H112.827V169H109.827V166ZM106.227 166H109.227V169H106.227V166ZM102.627 151.6H105.627V154.6H102.627V151.6ZM102.627 155.2H105.627V158.2H102.627V155.2ZM102.627 158.8H105.627V161.8H102.627V158.8ZM102.627 162.4H105.627V165.4H102.627V162.4ZM138.619 148H141.619V151H138.619V148ZM135.019 144.4H138.019V147.4H135.019V144.4ZM131.419 144.4H134.419V147.4H131.419V144.4ZM127.819 144.4H130.819V147.4H127.819V144.4ZM124.219 144.4H127.219V147.4H124.219V144.4ZM124.219 148H127.219V151H124.219V148ZM138.619 151.6H141.619V154.6H138.619V151.6ZM135.019 155.2H138.019V158.2H135.019V155.2ZM131.419 155.2H134.419V158.2H131.419V155.2ZM127.819 155.2H130.819V158.2H127.819V155.2ZM124.219 151.6H127.219V154.6H124.219V151.6ZM124.219 155.2H127.219V158.2H124.219V155.2ZM124.219 158.8H127.219V161.8H124.219V158.8ZM124.219 162.4H127.219V165.4H124.219V162.4ZM124.219 166H127.219V169H124.219V166ZM153.011 144.4H156.011V147.4H153.011V144.4ZM149.411 144.4H152.411V147.4H149.411V144.4ZM149.411 148H152.411V151H149.411V148ZM145.811 144.4H148.811V147.4H145.811V144.4ZM153.011 166H156.011V169H153.011V166ZM149.411 151.6H152.411V154.6H149.411V151.6ZM149.411 155.2H152.411V158.2H149.411V155.2ZM149.411 158.8H152.411V161.8H149.411V158.8ZM149.411 162.4H152.411V165.4H149.411V162.4ZM149.411 166H152.411V169H149.411V166ZM145.811 166H148.811V169H145.811V166ZM174.625 144.4H177.625V147.4H174.625V144.4ZM174.625 148H177.625V151H174.625V148ZM160.225 144.4H163.225V147.4H160.225V144.4ZM160.225 148H163.225V151H160.225V148ZM174.625 151.6H177.625V154.6H174.625V151.6ZM174.625 155.2H177.625V158.2H174.625V155.2ZM174.625 158.8H177.625V161.8H174.625V158.8ZM174.625 162.4H177.625V165.4H174.625V162.4ZM174.625 166H177.625V169H174.625V166ZM171.025 158.8H174.025V161.8H171.025V158.8ZM167.425 155.2H170.425V158.2H167.425V155.2ZM163.825 151.6H166.825V154.6H163.825V151.6ZM160.225 151.6H163.225V154.6H160.225V151.6ZM160.225 155.2H163.225V158.2H160.225V155.2ZM160.225 158.8H163.225V161.8H160.225V158.8ZM160.225 162.4H163.225V165.4H160.225V162.4ZM160.225 166H163.225V169H160.225V166ZM196.216 148H199.216V151H196.216V148ZM192.616 144.4H195.616V147.4H192.616V144.4ZM189.016 144.4H192.016V147.4H189.016V144.4ZM185.416 144.4H188.416V147.4H185.416V144.4ZM181.816 148H184.816V151H181.816V148ZM196.216 151.6H199.216V154.6H196.216V151.6ZM196.216 155.2H199.216V158.2H196.216V155.2ZM196.216 158.8H199.216V161.8H196.216V158.8ZM196.216 162.4H199.216V165.4H196.216V162.4ZM196.216 166H199.216V169H196.216V166ZM192.616 155.2H195.616V158.2H192.616V155.2ZM189.016 155.2H192.016V158.2H189.016V155.2ZM185.416 155.2H188.416V158.2H185.416V155.2ZM181.816 151.6H184.816V154.6H181.816V151.6ZM181.816 155.2H184.816V158.2H181.816V155.2ZM181.816 158.8H184.816V161.8H181.816V158.8ZM181.816 162.4H184.816V165.4H181.816V162.4ZM181.816 166H184.816V169H181.816V166ZM239.4 148H242.4V151H239.4V148ZM235.8 144.4H238.8V147.4H235.8V144.4ZM232.2 144.4H235.2V147.4H232.2V144.4ZM228.6 144.4H231.6V147.4H228.6V144.4ZM225 148H228V151H225V148ZM239.4 158.8H242.4V161.8H239.4V158.8ZM239.4 162.4H242.4V165.4H239.4V162.4ZM235.8 155.2H238.8V158.2H235.8V155.2ZM235.8 166H238.8V169H235.8V166ZM232.2 155.2H235.2V158.2H232.2V155.2ZM232.2 166H235.2V169H232.2V166ZM228.6 155.2H231.6V158.2H228.6V155.2ZM228.6 166H231.6V169H228.6V166ZM225 151.6H228V154.6H225V151.6ZM225 162.4H228V165.4H225V162.4ZM260.992 144.4H263.992V147.4H260.992V144.4ZM260.992 148H263.992V151H260.992V148ZM246.592 144.4H249.592V147.4H246.592V144.4ZM246.592 148H249.592V151H246.592V148ZM260.992 151.6H263.992V154.6H260.992V151.6ZM260.992 155.2H263.992V158.2H260.992V155.2ZM260.992 158.8H263.992V161.8H260.992V158.8ZM260.992 162.4H263.992V165.4H260.992V162.4ZM257.392 166H260.392V169H257.392V166ZM253.792 166H256.792V169H253.792V166ZM250.192 166H253.192V169H250.192V166ZM246.592 151.6H249.592V154.6H246.592V151.6ZM246.592 155.2H249.592V158.2H246.592V155.2ZM246.592 158.8H249.592V161.8H246.592V158.8ZM246.592 162.4H249.592V165.4H246.592V162.4ZM282.584 148H285.584V151H282.584V148ZM278.984 144.4H281.984V147.4H278.984V144.4ZM275.384 144.4H278.384V147.4H275.384V144.4ZM271.784 144.4H274.784V147.4H271.784V144.4ZM268.184 148H271.184V151H268.184V148ZM282.584 158.8H285.584V161.8H282.584V158.8ZM282.584 162.4H285.584V165.4H282.584V162.4ZM278.984 158.8H281.984V161.8H278.984V158.8ZM278.984 166H281.984V169H278.984V166ZM275.384 166H278.384V169H275.384V166ZM271.784 166H274.784V169H271.784V166ZM268.184 151.6H271.184V154.6H268.184V151.6ZM268.184 155.2H271.184V158.2H268.184V155.2ZM268.184 158.8H271.184V161.8H268.184V158.8ZM268.184 162.4H271.184V165.4H268.184V162.4ZM304.175 144.4H307.175V147.4H304.175V144.4ZM300.575 144.4H303.575V147.4H300.575V144.4ZM296.975 144.4H299.975V147.4H296.975V144.4ZM293.375 144.4H296.375V147.4H293.375V144.4ZM289.775 144.4H292.775V147.4H289.775V144.4ZM289.775 148H292.775V151H289.775V148ZM304.175 166H307.175V169H304.175V166ZM300.575 155.2H303.575V158.2H300.575V155.2ZM300.575 166H303.575V169H300.575V166ZM296.975 155.2H299.975V158.2H296.975V155.2ZM296.975 166H299.975V169H296.975V166ZM293.375 155.2H296.375V158.2H293.375V155.2ZM293.375 166H296.375V169H293.375V166ZM289.775 151.6H292.775V154.6H289.775V151.6ZM289.775 155.2H292.775V158.2H289.775V155.2ZM289.775 158.8H292.775V161.8H289.775V158.8ZM289.775 162.4H292.775V165.4H289.775V162.4ZM289.775 166H292.775V169H289.775V166ZM325.767 148H328.767V151H325.767V148ZM322.167 144.4H325.167V147.4H322.167V144.4ZM318.567 144.4H321.567V147.4H318.567V144.4ZM314.967 144.4H317.967V147.4H314.967V144.4ZM311.367 144.4H314.367V147.4H311.367V144.4ZM311.367 148H314.367V151H311.367V148ZM325.767 151.6H328.767V154.6H325.767V151.6ZM325.767 166H328.767V169H325.767V166ZM322.167 155.2H325.167V158.2H322.167V155.2ZM322.167 162.4H325.167V165.4H322.167V162.4ZM318.567 155.2H321.567V158.2H318.567V155.2ZM318.567 158.8H321.567V161.8H318.567V158.8ZM314.967 155.2H317.967V158.2H314.967V155.2ZM311.367 151.6H314.367V154.6H311.367V151.6ZM311.367 155.2H314.367V158.2H311.367V155.2ZM311.367 158.8H314.367V161.8H311.367V158.8ZM311.367 162.4H314.367V165.4H311.367V162.4ZM311.367 166H314.367V169H311.367V166ZM340.159 144.4H343.159V147.4H340.159V144.4ZM336.559 144.4H339.559V147.4H336.559V144.4ZM336.559 148H339.559V151H336.559V148ZM332.959 144.4H335.959V147.4H332.959V144.4ZM340.159 166H343.159V169H340.159V166ZM336.559 151.6H339.559V154.6H336.559V151.6ZM336.559 155.2H339.559V158.2H336.559V155.2ZM336.559 158.8H339.559V161.8H336.559V158.8ZM336.559 162.4H339.559V165.4H336.559V162.4ZM336.559 166H339.559V169H336.559V166ZM332.959 166H335.959V169H332.959V166ZM361.773 148H364.773V151H361.773V148ZM358.173 144.4H361.173V147.4H358.173V144.4ZM354.573 144.4H357.573V147.4H354.573V144.4ZM350.973 144.4H353.973V147.4H350.973V144.4ZM347.373 144.4H350.373V147.4H347.373V144.4ZM347.373 148H350.373V151H347.373V148ZM361.773 151.6H364.773V154.6H361.773V151.6ZM361.773 155.2H364.773V158.2H361.773V155.2ZM361.773 158.8H364.773V161.8H361.773V158.8ZM361.773 162.4H364.773V165.4H361.773V162.4ZM358.173 166H361.173V169H358.173V166ZM354.573 166H357.573V169H354.573V166ZM350.973 166H353.973V169H350.973V166ZM347.373 151.6H350.373V154.6H347.373V151.6ZM347.373 155.2H350.373V158.2H347.373V155.2ZM347.373 158.8H350.373V161.8H347.373V158.8ZM347.373 162.4H350.373V165.4H347.373V162.4ZM347.373 166H350.373V169H347.373V166ZM383.365 148H386.365V151H383.365V148ZM379.765 144.4H382.765V147.4H379.765V144.4ZM376.165 144.4H379.165V147.4H376.165V144.4ZM372.565 144.4H375.565V147.4H372.565V144.4ZM368.965 148H371.965V151H368.965V148ZM383.365 151.6H386.365V154.6H383.365V151.6ZM383.365 155.2H386.365V158.2H383.365V155.2ZM383.365 158.8H386.365V161.8H383.365V158.8ZM383.365 162.4H386.365V165.4H383.365V162.4ZM383.365 166H386.365V169H383.365V166ZM379.765 155.2H382.765V158.2H379.765V155.2ZM376.165 155.2H379.165V158.2H376.165V155.2ZM372.565 155.2H375.565V158.2H372.565V155.2ZM368.965 151.6H371.965V154.6H368.965V151.6ZM368.965 155.2H371.965V158.2H368.965V155.2ZM368.965 158.8H371.965V161.8H368.965V158.8ZM368.965 162.4H371.965V165.4H368.965V162.4ZM368.965 166H371.965V169H368.965V166ZM172.815 199.6H175.815V202.6H172.815V199.6ZM172.815 170.8H175.815V173.8H172.815V170.8ZM172.815 188.8H175.815V191.8H172.815V188.8ZM172.815 192.4H175.815V195.4H172.815V192.4ZM172.815 178H175.815V181H172.815V178ZM172.815 181.6H175.815V184.6H172.815V181.6ZM180.015 178H183.015V181H180.015V178ZM176.415 174.4H179.415V177.4H176.415V174.4ZM172.815 174.4H175.815V177.4H172.815V174.4ZM169.215 174.4H172.215V177.4H169.215V174.4ZM165.615 178H168.615V181H165.615V178ZM180.015 188.8H183.015V191.8H180.015V188.8ZM180.015 192.4H183.015V195.4H180.015V192.4ZM176.415 185.2H179.415V188.2H176.415V185.2ZM176.415 196H179.415V199H176.415V196ZM172.815 185.2H175.815V188.2H172.815V185.2ZM172.815 196H175.815V199H172.815V196ZM169.215 185.2H172.215V188.2H169.215V185.2ZM169.215 196H172.215V199H169.215V196ZM165.615 181.6H168.615V184.6H165.615V181.6ZM165.615 192.4H168.615V195.4H165.615V192.4ZM180.015 178H183.015V181H180.015V178ZM176.415 174.4H179.415V177.4H176.415V174.4ZM172.815 174.4H175.815V177.4H172.815V174.4ZM169.215 174.4H172.215V177.4H169.215V174.4ZM165.615 178H168.615V181H165.615V178ZM180.015 188.8H183.015V191.8H180.015V188.8ZM180.015 192.4H183.015V195.4H180.015V192.4ZM176.415 185.2H179.415V188.2H176.415V185.2ZM176.415 196H179.415V199H176.415V196ZM172.815 185.2H175.815V188.2H172.815V185.2ZM172.815 196H175.815V199H172.815V196ZM169.215 185.2H172.215V188.2H169.215V185.2ZM169.215 196H172.215V199H169.215V196ZM165.615 181.6H168.615V184.6H165.615V181.6ZM165.615 192.4H168.615V195.4H165.615V192.4ZM201.607 178H204.607V181H201.607V178ZM198.007 174.4H201.007V177.4H198.007V174.4ZM194.407 174.4H197.407V177.4H194.407V174.4ZM190.807 174.4H193.807V177.4H190.807V174.4ZM187.207 178H190.207V181H187.207V178ZM201.607 181.6H204.607V184.6H201.607V181.6ZM201.607 196H204.607V199H201.607V196ZM198.007 185.2H201.007V188.2H198.007V185.2ZM198.007 196H201.007V199H198.007V196ZM194.407 188.8H197.407V191.8H194.407V188.8ZM194.407 196H197.407V199H194.407V196ZM190.807 192.4H193.807V195.4H190.807V192.4ZM190.807 196H193.807V199H190.807V196ZM187.207 196H190.207V199H187.207V196ZM212.399 192.4H215.399V195.4H212.399V192.4ZM212.399 196H215.399V199H212.399V196ZM208.799 192.4H211.799V195.4H208.799V192.4ZM208.799 196H211.799V199H208.799V196ZM230.409 174.4H233.409V177.4H230.409V174.4ZM230.409 178H233.409V181H230.409V178ZM226.809 178H229.809V181H226.809V178ZM234.009 188.8H237.009V191.8H234.009V188.8ZM230.409 181.6H233.409V184.6H230.409V181.6ZM230.409 185.2H233.409V188.2H230.409V185.2ZM230.409 188.8H233.409V191.8H230.409V188.8ZM230.409 192.4H233.409V195.4H230.409V192.4ZM230.409 196H233.409V199H230.409V196ZM226.809 188.8H229.809V191.8H226.809V188.8ZM223.209 181.6H226.209V184.6H223.209V181.6ZM223.209 188.8H226.209V191.8H223.209V188.8ZM219.609 185.2H222.609V188.2H219.609V185.2ZM219.609 188.8H222.609V191.8H219.609V188.8ZM255.601 178H258.601V181H255.601V178ZM252.001 174.4H255.001V177.4H252.001V174.4ZM248.401 174.4H251.401V177.4H248.401V174.4ZM244.801 174.4H247.801V177.4H244.801V174.4ZM241.201 178H244.201V181H241.201V178ZM255.601 181.6H258.601V184.6H255.601V181.6ZM255.601 185.2H258.601V188.2H255.601V185.2ZM255.601 188.8H258.601V191.8H255.601V188.8ZM255.601 192.4H258.601V195.4H255.601V192.4ZM252.001 181.6H255.001V184.6H252.001V181.6ZM252.001 196H255.001V199H252.001V196ZM248.401 185.2H251.401V188.2H248.401V185.2ZM248.401 196H251.401V199H248.401V196ZM244.801 188.8H247.801V191.8H244.801V188.8ZM244.801 196H247.801V199H244.801V196ZM241.201 181.6H244.201V184.6H241.201V181.6ZM241.201 185.2H244.201V188.2H241.201V185.2ZM241.201 188.8H244.201V191.8H241.201V188.8ZM241.201 192.4H244.201V195.4H241.201V192.4ZM277.193 178H280.193V181H277.193V178ZM273.593 174.4H276.593V177.4H273.593V174.4ZM269.993 174.4H272.993V177.4H269.993V174.4ZM266.393 174.4H269.393V177.4H266.393V174.4ZM262.793 178H265.793V181H262.793V178ZM277.193 181.6H280.193V184.6H277.193V181.6ZM277.193 185.2H280.193V188.2H277.193V185.2ZM277.193 188.8H280.193V191.8H277.193V188.8ZM277.193 192.4H280.193V195.4H277.193V192.4ZM273.593 181.6H276.593V184.6H273.593V181.6ZM273.593 196H276.593V199H273.593V196ZM269.993 185.2H272.993V188.2H269.993V185.2ZM269.993 196H272.993V199H269.993V196ZM266.393 188.8H269.393V191.8H266.393V188.8ZM266.393 196H269.393V199H266.393V196ZM262.793 181.6H265.793V184.6H262.793V181.6ZM262.793 185.2H265.793V188.2H262.793V185.2ZM262.793 188.8H265.793V191.8H262.793V188.8ZM262.793 192.4H265.793V195.4H262.793V192.4Z" fill="#5B65C2"/>
<path d="M399.604 241H402.604V244H399.604V241ZM396.004 237.4H399.004V240.4H396.004V237.4ZM392.404 237.4H395.404V240.4H392.404V237.4ZM388.804 237.4H391.804V240.4H388.804V237.4ZM385.204 241H388.204V244H385.204V241ZM399.604 244.6H402.604V247.6H399.604V244.6ZM399.604 248.2H402.604V251.2H399.604V248.2ZM399.604 251.8H402.604V254.8H399.604V251.8ZM399.604 255.4H402.604V258.4H399.604V255.4ZM396.004 244.6H399.004V247.6H396.004V244.6ZM396.004 259H399.004V262H396.004V259ZM392.404 248.2H395.404V251.2H392.404V248.2ZM392.404 259H395.404V262H392.404V259ZM388.804 251.8H391.804V254.8H388.804V251.8ZM388.804 259H391.804V262H388.804V259ZM385.204 244.6H388.204V247.6H385.204V244.6ZM385.204 248.2H388.204V251.2H385.204V248.2ZM385.204 251.8H388.204V254.8H385.204V251.8ZM385.204 255.4H388.204V258.4H385.204V255.4Z" fill="#5B65C2"/>
<path d="M56.4041 262.6H59.4041V265.6H56.4041V262.6ZM56.4041 233.8H59.4041V236.8H56.4041V233.8ZM56.4041 251.8H59.4041V254.8H56.4041V251.8ZM56.4041 255.4H59.4041V258.4H56.4041V255.4ZM56.4041 241H59.4041V244H56.4041V241ZM56.4041 244.6H59.4041V247.6H56.4041V244.6ZM63.6041 241H66.6041V244H63.6041V241ZM60.0041 237.4H63.0041V240.4H60.0041V237.4ZM56.4041 237.4H59.4041V240.4H56.4041V237.4ZM52.8041 237.4H55.8041V240.4H52.8041V237.4ZM49.2041 241H52.2041V244H49.2041V241ZM63.6041 251.8H66.6041V254.8H63.6041V251.8ZM63.6041 255.4H66.6041V258.4H63.6041V255.4ZM60.0041 248.2H63.0041V251.2H60.0041V248.2ZM60.0041 259H63.0041V262H60.0041V259ZM56.4041 248.2H59.4041V251.2H56.4041V248.2ZM56.4041 259H59.4041V262H56.4041V259ZM52.8041 248.2H55.8041V251.2H52.8041V248.2ZM52.8041 259H55.8041V262H52.8041V259ZM49.2041 244.6H52.2041V247.6H49.2041V244.6ZM49.2041 255.4H52.2041V258.4H49.2041V255.4ZM63.6041 241H66.6041V244H63.6041V241ZM60.0041 237.4H63.0041V240.4H60.0041V237.4ZM56.4041 237.4H59.4041V240.4H56.4041V237.4ZM52.8041 237.4H55.8041V240.4H52.8041V237.4ZM49.2041 241H52.2041V244H49.2041V241ZM63.6041 251.8H66.6041V254.8H63.6041V251.8ZM63.6041 255.4H66.6041V258.4H63.6041V255.4ZM60.0041 248.2H63.0041V251.2H60.0041V248.2ZM60.0041 259H63.0041V262H60.0041V259ZM56.4041 248.2H59.4041V251.2H56.4041V248.2ZM56.4041 259H59.4041V262H56.4041V259ZM52.8041 248.2H55.8041V251.2H52.8041V248.2ZM52.8041 259H55.8041V262H52.8041V259ZM49.2041 244.6H52.2041V247.6H49.2041V244.6ZM49.2041 255.4H52.2041V258.4H49.2041V255.4Z" fill="#5B65C2"/>
</g>
<defs>
<clipPath id="clip0">
<rect width="452" height="280" fill="white"/>
</clipPath>
</defs>
</svg>
