<svg width="452" height="280" viewBox="0 0 452 280" fill="none" xmlns="http://www.w3.org/2000/svg">
<g clip-path="url(#clip0)">
<rect width="452" height="280" fill="white"/>
<rect width="452" height="47" fill="#5B65C2"/>
<path d="M50.5445 15H53.5445V18H50.5445V15ZM46.9445 11.4H49.9445V14.4H46.9445V11.4ZM43.3445 11.4H46.3445V14.4H43.3445V11.4ZM39.7445 11.4H42.7445V14.4H39.7445V11.4ZM36.1445 15H39.1445V18H36.1445V15ZM50.5445 29.4H53.5445V32.4H50.5445V29.4ZM46.9445 33H49.9445V36H46.9445V33ZM43.3445 33H46.3445V36H43.3445V33ZM39.7445 33H42.7445V36H39.7445V33ZM36.1445 18.6H39.1445V21.6H36.1445V18.6ZM36.1445 22.2H39.1445V25.2H36.1445V22.2ZM36.1445 25.8H39.1445V28.8H36.1445V25.8ZM36.1445 29.4H39.1445V32.4H36.1445V29.4ZM72.1363 11.4H75.1363V14.4H72.1363V11.4ZM72.1363 15H75.1363V18H72.1363V15ZM57.7363 11.4H60.7363V14.4H57.7363V11.4ZM57.7363 15H60.7363V18H57.7363V15ZM72.1363 18.6H75.1363V21.6H72.1363V18.6ZM72.1363 22.2H75.1363V25.2H72.1363V22.2ZM72.1363 25.8H75.1363V28.8H72.1363V25.8ZM72.1363 29.4H75.1363V32.4H72.1363V29.4ZM68.5363 33H71.5363V36H68.5363V33ZM64.9363 33H67.9363V36H64.9363V33ZM61.3363 33H64.3363V36H61.3363V33ZM57.7363 18.6H60.7363V21.6H57.7363V18.6ZM57.7363 22.2H60.7363V25.2H57.7363V22.2ZM57.7363 25.8H60.7363V28.8H57.7363V25.8ZM57.7363 29.4H60.7363V32.4H57.7363V29.4ZM93.7281 11.4H96.7281V14.4H93.7281V11.4ZM90.1281 11.4H93.1281V14.4H90.1281V11.4ZM86.5281 11.4H89.5281V14.4H86.5281V11.4ZM82.9281 11.4H85.9281V14.4H82.9281V11.4ZM79.3281 11.4H82.3281V14.4H79.3281V11.4ZM79.3281 15H82.3281V18H79.3281V15ZM93.7281 33H96.7281V36H93.7281V33ZM90.1281 22.2H93.1281V25.2H90.1281V22.2ZM90.1281 33H93.1281V36H90.1281V33ZM86.5281 22.2H89.5281V25.2H86.5281V22.2ZM86.5281 33H89.5281V36H86.5281V33ZM82.9281 22.2H85.9281V25.2H82.9281V22.2ZM82.9281 33H85.9281V36H82.9281V33ZM79.3281 18.6H82.3281V21.6H79.3281V18.6ZM79.3281 22.2H82.3281V25.2H79.3281V22.2ZM79.3281 25.8H82.3281V28.8H79.3281V25.8ZM79.3281 29.4H82.3281V32.4H79.3281V29.4ZM79.3281 33H82.3281V36H79.3281V33ZM115.32 11.4H118.32V14.4H115.32V11.4ZM115.32 15H118.32V18H115.32V15ZM100.92 11.4H103.92V14.4H100.92V11.4ZM100.92 15H103.92V18H100.92V15ZM115.32 18.6H118.32V21.6H115.32V18.6ZM115.32 22.2H118.32V25.2H115.32V22.2ZM115.32 25.8H118.32V28.8H115.32V25.8ZM115.32 29.4H118.32V32.4H115.32V29.4ZM115.32 33H118.32V36H115.32V33ZM111.72 25.8H114.72V28.8H111.72V25.8ZM108.12 22.2H111.12V25.2H108.12V22.2ZM104.52 18.6H107.52V21.6H104.52V18.6ZM100.92 18.6H103.92V21.6H100.92V18.6ZM100.92 22.2H103.92V25.2H100.92V22.2ZM100.92 25.8H103.92V28.8H100.92V25.8ZM100.92 29.4H103.92V32.4H100.92V29.4ZM100.92 33H103.92V36H100.92V33ZM136.912 11.4H139.912V14.4H136.912V11.4ZM133.312 11.4H136.312V14.4H133.312V11.4ZM129.712 11.4H132.712V14.4H129.712V11.4ZM129.712 15H132.712V18H129.712V15ZM126.112 11.4H129.112V14.4H126.112V11.4ZM122.512 11.4H125.512V14.4H122.512V11.4ZM129.712 18.6H132.712V21.6H129.712V18.6ZM129.712 22.2H132.712V25.2H129.712V22.2ZM129.712 25.8H132.712V28.8H129.712V25.8ZM129.712 29.4H132.712V32.4H129.712V29.4ZM129.712 33H132.712V36H129.712V33ZM158.504 15H161.504V18H158.504V15ZM154.904 11.4H157.904V14.4H154.904V11.4ZM151.304 11.4H154.304V14.4H151.304V11.4ZM147.704 11.4H150.704V14.4H147.704V11.4ZM144.104 15H147.104V18H144.104V15ZM158.504 18.6H161.504V21.6H158.504V18.6ZM158.504 22.2H161.504V25.2H158.504V22.2ZM158.504 25.8H161.504V28.8H158.504V25.8ZM158.504 29.4H161.504V32.4H158.504V29.4ZM158.504 33H161.504V36H158.504V33ZM154.904 22.2H157.904V25.2H154.904V22.2ZM151.304 22.2H154.304V25.2H151.304V22.2ZM147.704 22.2H150.704V25.2H147.704V22.2ZM144.104 18.6H147.104V21.6H144.104V18.6ZM144.104 22.2H147.104V25.2H144.104V22.2ZM144.104 25.8H147.104V28.8H144.104V25.8ZM144.104 29.4H147.104V32.4H144.104V29.4ZM144.104 33H147.104V36H144.104V33ZM192.687 15H195.687V18H192.687V15ZM189.087 11.4H192.087V14.4H189.087V11.4ZM185.487 11.4H188.487V14.4H185.487V11.4ZM181.887 11.4H184.887V14.4H181.887V11.4ZM178.287 11.4H181.287V14.4H178.287V11.4ZM178.287 15H181.287V18H178.287V15ZM192.687 18.6H195.687V21.6H192.687V18.6ZM192.687 22.2H195.687V25.2H192.687V22.2ZM192.687 25.8H195.687V28.8H192.687V25.8ZM192.687 29.4H195.687V32.4H192.687V29.4ZM189.087 33H192.087V36H189.087V33ZM185.487 33H188.487V36H185.487V33ZM181.887 33H184.887V36H181.887V33ZM178.287 18.6H181.287V21.6H178.287V18.6ZM178.287 22.2H181.287V25.2H178.287V22.2ZM178.287 25.8H181.287V28.8H178.287V25.8ZM178.287 29.4H181.287V32.4H178.287V29.4ZM178.287 33H181.287V36H178.287V33ZM207.079 11.4H210.079V14.4H207.079V11.4ZM203.479 11.4H206.479V14.4H203.479V11.4ZM203.479 15H206.479V18H203.479V15ZM199.879 11.4H202.879V14.4H199.879V11.4ZM207.079 33H210.079V36H207.079V33ZM203.479 18.6H206.479V21.6H203.479V18.6ZM203.479 22.2H206.479V25.2H203.479V22.2ZM203.479 25.8H206.479V28.8H203.479V25.8ZM203.479 29.4H206.479V32.4H203.479V29.4ZM203.479 33H206.479V36H203.479V33ZM199.879 33H202.879V36H199.879V33ZM228.693 11.4H231.693V14.4H228.693V11.4ZM228.693 15H231.693V18H228.693V15ZM214.293 11.4H217.293V14.4H214.293V11.4ZM214.293 15H217.293V18H214.293V15ZM228.693 18.6H231.693V21.6H228.693V18.6ZM228.693 22.2H231.693V25.2H228.693V22.2ZM228.693 25.8H231.693V28.8H228.693V25.8ZM225.093 29.4H228.093V32.4H225.093V29.4ZM221.493 33H224.493V36H221.493V33ZM217.893 29.4H220.893V32.4H217.893V29.4ZM214.293 18.6H217.293V21.6H214.293V18.6ZM214.293 22.2H217.293V25.2H214.293V22.2ZM214.293 25.8H217.293V28.8H214.293V25.8ZM243.085 11.4H246.085V14.4H243.085V11.4ZM239.485 11.4H242.485V14.4H239.485V11.4ZM239.485 15H242.485V18H239.485V15ZM235.885 11.4H238.885V14.4H235.885V11.4ZM243.085 33H246.085V36H243.085V33ZM239.485 18.6H242.485V21.6H239.485V18.6ZM239.485 22.2H242.485V25.2H239.485V22.2ZM239.485 25.8H242.485V28.8H239.485V25.8ZM239.485 29.4H242.485V32.4H239.485V29.4ZM239.485 33H242.485V36H239.485V33ZM235.885 33H238.885V36H235.885V33ZM264.699 15H267.699V18H264.699V15ZM261.099 11.4H264.099V14.4H261.099V11.4ZM257.499 11.4H260.499V14.4H257.499V11.4ZM253.899 11.4H256.899V14.4H253.899V11.4ZM250.299 11.4H253.299V14.4H250.299V11.4ZM250.299 15H253.299V18H250.299V15ZM264.699 18.6H267.699V21.6H264.699V18.6ZM264.699 22.2H267.699V25.2H264.699V22.2ZM264.699 25.8H267.699V28.8H264.699V25.8ZM264.699 29.4H267.699V32.4H264.699V29.4ZM261.099 33H264.099V36H261.099V33ZM257.499 33H260.499V36H257.499V33ZM253.899 33H256.899V36H253.899V33ZM250.299 18.6H253.299V21.6H250.299V18.6ZM250.299 22.2H253.299V25.2H250.299V22.2ZM250.299 25.8H253.299V28.8H250.299V25.8ZM250.299 29.4H253.299V32.4H250.299V29.4ZM250.299 33H253.299V36H250.299V33ZM279.091 11.4H282.091V14.4H279.091V11.4ZM275.491 11.4H278.491V14.4H275.491V11.4ZM275.491 15H278.491V18H275.491V15ZM271.891 11.4H274.891V14.4H271.891V11.4ZM279.091 33H282.091V36H279.091V33ZM275.491 18.6H278.491V21.6H275.491V18.6ZM275.491 22.2H278.491V25.2H275.491V22.2ZM275.491 25.8H278.491V28.8H275.491V25.8ZM275.491 29.4H278.491V32.4H275.491V29.4ZM275.491 33H278.491V36H275.491V33ZM271.891 33H274.891V36H271.891V33ZM300.705 15H303.705V18H300.705V15ZM297.105 11.4H300.105V14.4H297.105V11.4ZM293.505 11.4H296.505V14.4H293.505V11.4ZM289.905 11.4H292.905V14.4H289.905V11.4ZM286.305 11.4H289.305V14.4H286.305V11.4ZM286.305 15H289.305V18H286.305V15ZM300.705 18.6H303.705V21.6H300.705V18.6ZM300.705 22.2H303.705V25.2H300.705V22.2ZM300.705 25.8H303.705V28.8H300.705V25.8ZM300.705 29.4H303.705V32.4H300.705V29.4ZM297.105 33H300.105V36H297.105V33ZM293.505 33H296.505V36H293.505V33ZM289.905 33H292.905V36H289.905V33ZM286.305 18.6H289.305V21.6H286.305V18.6ZM286.305 22.2H289.305V25.2H286.305V22.2ZM286.305 25.8H289.305V28.8H286.305V25.8ZM286.305 29.4H289.305V32.4H286.305V29.4ZM286.305 33H289.305V36H286.305V33ZM322.296 15H325.296V18H322.296V15ZM318.696 11.4H321.696V14.4H318.696V11.4ZM315.096 11.4H318.096V14.4H315.096V11.4ZM311.496 11.4H314.496V14.4H311.496V11.4ZM307.896 15H310.896V18H307.896V15ZM322.296 18.6H325.296V21.6H322.296V18.6ZM322.296 22.2H325.296V25.2H322.296V22.2ZM322.296 25.8H325.296V28.8H322.296V25.8ZM322.296 29.4H325.296V32.4H322.296V29.4ZM322.296 33H325.296V36H322.296V33ZM318.696 22.2H321.696V25.2H318.696V22.2ZM315.096 22.2H318.096V25.2H315.096V22.2ZM311.496 22.2H314.496V25.2H311.496V22.2ZM307.896 18.6H310.896V21.6H307.896V18.6ZM307.896 22.2H310.896V25.2H307.896V22.2ZM307.896 25.8H310.896V28.8H307.896V25.8ZM307.896 29.4H310.896V32.4H307.896V29.4ZM307.896 33H310.896V36H307.896V33ZM365.48 15H368.48V18H365.48V15ZM361.88 11.4H364.88V14.4H361.88V11.4ZM358.28 11.4H361.28V14.4H358.28V11.4ZM354.68 11.4H357.68V14.4H354.68V11.4ZM351.08 15H354.08V18H351.08V15ZM365.48 18.6H368.48V21.6H365.48V18.6ZM365.48 33H368.48V36H365.48V33ZM361.88 22.2H364.88V25.2H361.88V22.2ZM361.88 33H364.88V36H361.88V33ZM358.28 25.8H361.28V28.8H358.28V25.8ZM358.28 33H361.28V36H358.28V33ZM354.68 29.4H357.68V32.4H354.68V29.4ZM354.68 33H357.68V36H354.68V33ZM351.08 33H354.08V36H351.08V33ZM387.072 15H390.072V18H387.072V15ZM383.472 18.6H386.472V21.6H383.472V18.6ZM379.872 22.2H382.872V25.2H379.872V22.2ZM376.272 25.8H379.272V28.8H376.272V25.8ZM372.672 29.4H375.672V32.4H372.672V29.4ZM408.664 11.4H411.664V14.4H408.664V11.4ZM405.064 11.4H408.064V14.4H405.064V11.4ZM401.464 11.4H404.464V14.4H401.464V11.4ZM397.864 11.4H400.864V14.4H397.864V11.4ZM394.264 11.4H397.264V14.4H394.264V11.4ZM394.264 15H397.264V18H394.264V15ZM408.664 22.2H411.664V25.2H408.664V22.2ZM408.664 25.8H411.664V28.8H408.664V25.8ZM408.664 29.4H411.664V32.4H408.664V29.4ZM405.064 18.6H408.064V21.6H405.064V18.6ZM405.064 33H408.064V36H405.064V33ZM401.464 18.6H404.464V21.6H401.464V18.6ZM401.464 33H404.464V36H401.464V33ZM397.864 18.6H400.864V21.6H397.864V18.6ZM397.864 33H400.864V36H397.864V33ZM394.264 18.6H397.264V21.6H394.264V18.6ZM394.264 29.4H397.264V32.4H394.264V29.4Z" fill="white"/>
<rect x="108.5" y="224.5" width="342" height="54" stroke="#5B65C2" stroke-width="3"/>
<rect x="1.5" y="1.5" width="449" height="277" stroke="#5B65C2" stroke-width="3"/>
<path d="M60.8697 144.4H63.8697V147.4H60.8697V144.4ZM60.8697 148H63.8697V151H60.8697V148ZM57.2697 148H60.2697V151H57.2697V148ZM50.0697 148H53.0697V151H50.0697V148ZM46.4697 144.4H49.4697V147.4H46.4697V144.4ZM46.4697 148H49.4697V151H46.4697V148ZM60.8697 151.6H63.8697V154.6H60.8697V151.6ZM60.8697 155.2H63.8697V158.2H60.8697V155.2ZM60.8697 158.8H63.8697V161.8H60.8697V158.8ZM60.8697 162.4H63.8697V165.4H60.8697V162.4ZM60.8697 166H63.8697V169H60.8697V166ZM53.6697 151.6H56.6697V154.6H53.6697V151.6ZM53.6697 155.2H56.6697V158.2H53.6697V155.2ZM46.4697 151.6H49.4697V154.6H46.4697V151.6ZM46.4697 155.2H49.4697V158.2H46.4697V155.2ZM46.4697 158.8H49.4697V161.8H46.4697V158.8ZM46.4697 162.4H49.4697V165.4H46.4697V162.4ZM46.4697 166H49.4697V169H46.4697V166ZM82.4615 148H85.4615V151H82.4615V148ZM78.8615 144.4H81.8615V147.4H78.8615V144.4ZM75.2615 144.4H78.2615V147.4H75.2615V144.4ZM71.6615 144.4H74.6615V147.4H71.6615V144.4ZM68.0615 148H71.0615V151H68.0615V148ZM82.4615 151.6H85.4615V154.6H82.4615V151.6ZM82.4615 155.2H85.4615V158.2H82.4615V155.2ZM82.4615 158.8H85.4615V161.8H82.4615V158.8ZM82.4615 162.4H85.4615V165.4H82.4615V162.4ZM78.8615 166H81.8615V169H78.8615V166ZM75.2615 166H78.2615V169H75.2615V166ZM71.6615 166H74.6615V169H71.6615V166ZM68.0615 151.6H71.0615V154.6H68.0615V151.6ZM68.0615 155.2H71.0615V158.2H68.0615V155.2ZM68.0615 158.8H71.0615V161.8H68.0615V158.8ZM68.0615 162.4H71.0615V165.4H68.0615V162.4ZM104.053 144.4H107.053V147.4H104.053V144.4ZM104.053 148H107.053V151H104.053V148ZM89.6533 144.4H92.6533V147.4H89.6533V144.4ZM89.6533 148H92.6533V151H89.6533V148ZM104.053 151.6H107.053V154.6H104.053V151.6ZM104.053 155.2H107.053V158.2H104.053V155.2ZM104.053 158.8H107.053V161.8H104.053V158.8ZM104.053 162.4H107.053V165.4H104.053V162.4ZM104.053 166H107.053V169H104.053V166ZM100.453 158.8H103.453V161.8H100.453V158.8ZM96.8533 155.2H99.8533V158.2H96.8533V155.2ZM93.2533 151.6H96.2533V154.6H93.2533V151.6ZM89.6533 151.6H92.6533V154.6H89.6533V151.6ZM89.6533 155.2H92.6533V158.2H89.6533V155.2ZM89.6533 158.8H92.6533V161.8H89.6533V158.8ZM89.6533 162.4H92.6533V165.4H89.6533V162.4ZM89.6533 166H92.6533V169H89.6533V166ZM125.645 144.4H128.645V147.4H125.645V144.4ZM122.045 144.4H125.045V147.4H122.045V144.4ZM118.445 144.4H121.445V147.4H118.445V144.4ZM118.445 148H121.445V151H118.445V148ZM114.845 144.4H117.845V147.4H114.845V144.4ZM111.245 144.4H114.245V147.4H111.245V144.4ZM118.445 151.6H121.445V154.6H118.445V151.6ZM118.445 155.2H121.445V158.2H118.445V155.2ZM118.445 158.8H121.445V161.8H118.445V158.8ZM118.445 162.4H121.445V165.4H118.445V162.4ZM118.445 166H121.445V169H118.445V166ZM147.237 148H150.237V151H147.237V148ZM143.637 144.4H146.637V147.4H143.637V144.4ZM140.037 144.4H143.037V147.4H140.037V144.4ZM136.437 144.4H139.437V147.4H136.437V144.4ZM132.837 148H135.837V151H132.837V148ZM147.237 151.6H150.237V154.6H147.237V151.6ZM147.237 155.2H150.237V158.2H147.237V155.2ZM147.237 158.8H150.237V161.8H147.237V158.8ZM147.237 162.4H150.237V165.4H147.237V162.4ZM143.637 166H146.637V169H143.637V166ZM140.037 166H143.037V169H140.037V166ZM136.437 166H139.437V169H136.437V166ZM132.837 151.6H135.837V154.6H132.837V151.6ZM132.837 155.2H135.837V158.2H132.837V155.2ZM132.837 158.8H135.837V161.8H132.837V158.8ZM132.837 162.4H135.837V165.4H132.837V162.4ZM181.421 148H184.421V151H181.421V148ZM177.821 144.4H180.821V147.4H177.821V144.4ZM174.221 144.4H177.221V147.4H174.221V144.4ZM170.621 144.4H173.621V147.4H170.621V144.4ZM167.021 144.4H170.021V147.4H167.021V144.4ZM167.021 148H170.021V151H167.021V148ZM181.421 151.6H184.421V154.6H181.421V151.6ZM181.421 166H184.421V169H181.421V166ZM177.821 155.2H180.821V158.2H177.821V155.2ZM177.821 162.4H180.821V165.4H177.821V162.4ZM174.221 155.2H177.221V158.2H174.221V155.2ZM174.221 158.8H177.221V161.8H174.221V158.8ZM170.621 155.2H173.621V158.2H170.621V155.2ZM167.021 151.6H170.021V154.6H167.021V151.6ZM167.021 155.2H170.021V158.2H167.021V155.2ZM167.021 158.8H170.021V161.8H167.021V158.8ZM167.021 162.4H170.021V165.4H167.021V162.4ZM167.021 166H170.021V169H167.021V166ZM203.012 144.4H206.012V147.4H203.012V144.4ZM199.412 144.4H202.412V147.4H199.412V144.4ZM195.812 144.4H198.812V147.4H195.812V144.4ZM192.212 144.4H195.212V147.4H192.212V144.4ZM188.612 144.4H191.612V147.4H188.612V144.4ZM188.612 148H191.612V151H188.612V148ZM203.012 166H206.012V169H203.012V166ZM199.412 155.2H202.412V158.2H199.412V155.2ZM199.412 166H202.412V169H199.412V166ZM195.812 155.2H198.812V158.2H195.812V155.2ZM195.812 166H198.812V169H195.812V166ZM192.212 155.2H195.212V158.2H192.212V155.2ZM192.212 166H195.212V169H192.212V166ZM188.612 151.6H191.612V154.6H188.612V151.6ZM188.612 155.2H191.612V158.2H188.612V155.2ZM188.612 158.8H191.612V161.8H188.612V158.8ZM188.612 162.4H191.612V165.4H188.612V162.4ZM188.612 166H191.612V169H188.612V166ZM224.604 148H227.604V151H224.604V148ZM221.004 144.4H224.004V147.4H221.004V144.4ZM217.404 144.4H220.404V147.4H217.404V144.4ZM213.804 144.4H216.804V147.4H213.804V144.4ZM210.204 148H213.204V151H210.204V148ZM224.604 162.4H227.604V165.4H224.604V162.4ZM221.004 166H224.004V169H221.004V166ZM217.404 166H220.404V169H217.404V166ZM213.804 166H216.804V169H213.804V166ZM210.204 151.6H213.204V154.6H210.204V151.6ZM210.204 155.2H213.204V158.2H210.204V155.2ZM210.204 158.8H213.204V161.8H210.204V158.8ZM210.204 162.4H213.204V165.4H210.204V162.4ZM246.196 148H249.196V151H246.196V148ZM242.596 144.4H245.596V147.4H242.596V144.4ZM238.996 144.4H241.996V147.4H238.996V144.4ZM235.396 144.4H238.396V147.4H235.396V144.4ZM231.796 148H234.796V151H231.796V148ZM246.196 151.6H249.196V154.6H246.196V151.6ZM246.196 155.2H249.196V158.2H246.196V155.2ZM246.196 158.8H249.196V161.8H246.196V158.8ZM246.196 162.4H249.196V165.4H246.196V162.4ZM242.596 166H245.596V169H242.596V166ZM238.996 166H241.996V169H238.996V166ZM235.396 166H238.396V169H235.396V166ZM231.796 151.6H234.796V154.6H231.796V151.6ZM231.796 155.2H234.796V158.2H231.796V155.2ZM231.796 158.8H234.796V161.8H231.796V158.8ZM231.796 162.4H234.796V165.4H231.796V162.4ZM267.788 144.4H270.788V147.4H267.788V144.4ZM267.788 148H270.788V151H267.788V148ZM264.188 148H267.188V151H264.188V148ZM256.988 148H259.988V151H256.988V148ZM253.388 144.4H256.388V147.4H253.388V144.4ZM253.388 148H256.388V151H253.388V148ZM267.788 151.6H270.788V154.6H267.788V151.6ZM267.788 155.2H270.788V158.2H267.788V155.2ZM267.788 158.8H270.788V161.8H267.788V158.8ZM267.788 162.4H270.788V165.4H267.788V162.4ZM267.788 166H270.788V169H267.788V166ZM260.588 151.6H263.588V154.6H260.588V151.6ZM260.588 155.2H263.588V158.2H260.588V155.2ZM253.388 151.6H256.388V154.6H253.388V151.6ZM253.388 155.2H256.388V158.2H253.388V155.2ZM253.388 158.8H256.388V161.8H253.388V158.8ZM253.388 162.4H256.388V165.4H253.388V162.4ZM253.388 166H256.388V169H253.388V166ZM289.379 144.4H292.379V147.4H289.379V144.4ZM285.779 144.4H288.779V147.4H285.779V144.4ZM282.179 144.4H285.179V147.4H282.179V144.4ZM278.579 144.4H281.579V147.4H278.579V144.4ZM274.979 144.4H277.979V147.4H274.979V144.4ZM274.979 148H277.979V151H274.979V148ZM289.379 166H292.379V169H289.379V166ZM285.779 155.2H288.779V158.2H285.779V155.2ZM285.779 166H288.779V169H285.779V166ZM282.179 155.2H285.179V158.2H282.179V155.2ZM282.179 166H285.179V169H282.179V166ZM278.579 155.2H281.579V158.2H278.579V155.2ZM278.579 166H281.579V169H278.579V166ZM274.979 151.6H277.979V154.6H274.979V151.6ZM274.979 155.2H277.979V158.2H274.979V155.2ZM274.979 158.8H277.979V161.8H274.979V158.8ZM274.979 162.4H277.979V165.4H274.979V162.4ZM274.979 166H277.979V169H274.979V166ZM310.971 144.4H313.971V147.4H310.971V144.4ZM310.971 148H313.971V151H310.971V148ZM296.571 144.4H299.571V147.4H296.571V144.4ZM296.571 148H299.571V151H296.571V148ZM310.971 151.6H313.971V154.6H310.971V151.6ZM310.971 155.2H313.971V158.2H310.971V155.2ZM310.971 158.8H313.971V161.8H310.971V158.8ZM310.971 162.4H313.971V165.4H310.971V162.4ZM310.971 166H313.971V169H310.971V166ZM307.371 158.8H310.371V161.8H307.371V158.8ZM303.771 155.2H306.771V158.2H303.771V155.2ZM300.171 151.6H303.171V154.6H300.171V151.6ZM296.571 151.6H299.571V154.6H296.571V151.6ZM296.571 155.2H299.571V158.2H296.571V155.2ZM296.571 158.8H299.571V161.8H296.571V158.8ZM296.571 162.4H299.571V165.4H296.571V162.4ZM296.571 166H299.571V169H296.571V166ZM332.563 148H335.563V151H332.563V148ZM328.963 144.4H331.963V147.4H328.963V144.4ZM325.363 144.4H328.363V147.4H325.363V144.4ZM321.763 144.4H324.763V147.4H321.763V144.4ZM318.163 144.4H321.163V147.4H318.163V144.4ZM318.163 148H321.163V151H318.163V148ZM332.563 151.6H335.563V154.6H332.563V151.6ZM332.563 155.2H335.563V158.2H332.563V155.2ZM332.563 158.8H335.563V161.8H332.563V158.8ZM332.563 162.4H335.563V165.4H332.563V162.4ZM328.963 166H331.963V169H328.963V166ZM325.363 166H328.363V169H325.363V166ZM321.763 166H324.763V169H321.763V166ZM318.163 151.6H321.163V154.6H318.163V151.6ZM318.163 155.2H321.163V158.2H318.163V155.2ZM318.163 158.8H321.163V161.8H318.163V158.8ZM318.163 162.4H321.163V165.4H318.163V162.4ZM318.163 166H321.163V169H318.163V166ZM354.155 148H357.155V151H354.155V148ZM350.555 144.4H353.555V147.4H350.555V144.4ZM346.955 144.4H349.955V147.4H346.955V144.4ZM343.355 144.4H346.355V147.4H343.355V144.4ZM339.755 148H342.755V151H339.755V148ZM354.155 151.6H357.155V154.6H354.155V151.6ZM354.155 155.2H357.155V158.2H354.155V155.2ZM354.155 158.8H357.155V161.8H354.155V158.8ZM354.155 162.4H357.155V165.4H354.155V162.4ZM354.155 166H357.155V169H354.155V166ZM350.555 155.2H353.555V158.2H350.555V155.2ZM346.955 155.2H349.955V158.2H346.955V155.2ZM343.355 155.2H346.355V158.2H343.355V155.2ZM339.755 151.6H342.755V154.6H339.755V151.6ZM339.755 155.2H342.755V158.2H339.755V155.2ZM339.755 158.8H342.755V161.8H339.755V158.8ZM339.755 162.4H342.755V165.4H339.755V162.4ZM339.755 166H342.755V169H339.755V166ZM375.747 148H378.747V151H375.747V148ZM372.147 144.4H375.147V147.4H372.147V144.4ZM368.547 144.4H371.547V147.4H368.547V144.4ZM364.947 144.4H367.947V147.4H364.947V144.4ZM361.347 144.4H364.347V147.4H361.347V144.4ZM361.347 148H364.347V151H361.347V148ZM375.747 151.6H378.747V154.6H375.747V151.6ZM375.747 155.2H378.747V158.2H375.747V155.2ZM375.747 158.8H378.747V161.8H375.747V158.8ZM375.747 162.4H378.747V165.4H375.747V162.4ZM372.147 166H375.147V169H372.147V166ZM368.547 166H371.547V169H368.547V166ZM364.947 166H367.947V169H364.947V166ZM361.347 151.6H364.347V154.6H361.347V151.6ZM361.347 155.2H364.347V158.2H361.347V155.2ZM361.347 158.8H364.347V161.8H361.347V158.8ZM361.347 162.4H364.347V165.4H361.347V162.4ZM361.347 166H364.347V169H361.347V166ZM397.338 148H400.338V151H397.338V148ZM393.738 144.4H396.738V147.4H393.738V144.4ZM390.138 144.4H393.138V147.4H390.138V144.4ZM386.538 144.4H389.538V147.4H386.538V144.4ZM382.938 148H385.938V151H382.938V148ZM397.338 151.6H400.338V154.6H397.338V151.6ZM397.338 155.2H400.338V158.2H397.338V155.2ZM397.338 158.8H400.338V161.8H397.338V158.8ZM397.338 162.4H400.338V165.4H397.338V162.4ZM393.738 166H396.738V169H393.738V166ZM390.138 166H393.138V169H390.138V166ZM386.538 166H389.538V169H386.538V166ZM382.938 151.6H385.938V154.6H382.938V151.6ZM382.938 155.2H385.938V158.2H382.938V155.2ZM382.938 158.8H385.938V161.8H382.938V158.8ZM382.938 162.4H385.938V165.4H382.938V162.4ZM162.519 199.6H165.519V202.6H162.519V199.6ZM162.519 170.8H165.519V173.8H162.519V170.8ZM162.519 188.8H165.519V191.8H162.519V188.8ZM162.519 192.4H165.519V195.4H162.519V192.4ZM162.519 178H165.519V181H162.519V178ZM162.519 181.6H165.519V184.6H162.519V181.6ZM169.719 178H172.719V181H169.719V178ZM166.119 174.4H169.119V177.4H166.119V174.4ZM162.519 174.4H165.519V177.4H162.519V174.4ZM158.919 174.4H161.919V177.4H158.919V174.4ZM155.319 178H158.319V181H155.319V178ZM169.719 188.8H172.719V191.8H169.719V188.8ZM169.719 192.4H172.719V195.4H169.719V192.4ZM166.119 185.2H169.119V188.2H166.119V185.2ZM166.119 196H169.119V199H166.119V196ZM162.519 185.2H165.519V188.2H162.519V185.2ZM162.519 196H165.519V199H162.519V196ZM158.919 185.2H161.919V188.2H158.919V185.2ZM158.919 196H161.919V199H158.919V196ZM155.319 181.6H158.319V184.6H155.319V181.6ZM155.319 192.4H158.319V195.4H155.319V192.4ZM169.719 178H172.719V181H169.719V178ZM166.119 174.4H169.119V177.4H166.119V174.4ZM162.519 174.4H165.519V177.4H162.519V174.4ZM158.919 174.4H161.919V177.4H158.919V174.4ZM155.319 178H158.319V181H155.319V178ZM169.719 188.8H172.719V191.8H169.719V188.8ZM169.719 192.4H172.719V195.4H169.719V192.4ZM166.119 185.2H169.119V188.2H166.119V185.2ZM166.119 196H169.119V199H166.119V196ZM162.519 185.2H165.519V188.2H162.519V185.2ZM162.519 196H165.519V199H162.519V196ZM158.919 185.2H161.919V188.2H158.919V185.2ZM158.919 196H161.919V199H158.919V196ZM155.319 181.6H158.319V184.6H155.319V181.6ZM155.319 192.4H158.319V195.4H155.319V192.4ZM191.311 178H194.311V181H191.311V178ZM187.711 174.4H190.711V177.4H187.711V174.4ZM184.111 174.4H187.111V177.4H184.111V174.4ZM180.511 174.4H183.511V177.4H180.511V174.4ZM176.911 178H179.911V181H176.911V178ZM191.311 181.6H194.311V184.6H191.311V181.6ZM191.311 196H194.311V199H191.311V196ZM187.711 185.2H190.711V188.2H187.711V185.2ZM187.711 196H190.711V199H187.711V196ZM184.111 188.8H187.111V191.8H184.111V188.8ZM184.111 196H187.111V199H184.111V196ZM180.511 192.4H183.511V195.4H180.511V192.4ZM180.511 196H183.511V199H180.511V196ZM176.911 196H179.911V199H176.911V196ZM209.303 174.4H212.303V177.4H209.303V174.4ZM209.303 178H212.303V181H209.303V178ZM205.703 178H208.703V181H205.703V178ZM212.903 188.8H215.903V191.8H212.903V188.8ZM209.303 181.6H212.303V184.6H209.303V181.6ZM209.303 185.2H212.303V188.2H209.303V185.2ZM209.303 188.8H212.303V191.8H209.303V188.8ZM209.303 192.4H212.303V195.4H209.303V192.4ZM209.303 196H212.303V199H209.303V196ZM205.703 188.8H208.703V191.8H205.703V188.8ZM202.103 181.6H205.103V184.6H202.103V181.6ZM202.103 188.8H205.103V191.8H202.103V188.8ZM198.503 185.2H201.503V188.2H198.503V185.2ZM198.503 188.8H201.503V191.8H198.503V188.8ZM223.695 192.4H226.695V195.4H223.695V192.4ZM223.695 196H226.695V199H223.695V196ZM220.095 192.4H223.095V195.4H220.095V192.4ZM220.095 196H223.095V199H220.095V196ZM245.305 178H248.305V181H245.305V178ZM241.705 174.4H244.705V177.4H241.705V174.4ZM238.105 174.4H241.105V177.4H238.105V174.4ZM234.505 174.4H237.505V177.4H234.505V174.4ZM230.905 178H233.905V181H230.905V178ZM245.305 181.6H248.305V184.6H245.305V181.6ZM245.305 185.2H248.305V188.2H245.305V185.2ZM245.305 188.8H248.305V191.8H245.305V188.8ZM245.305 192.4H248.305V195.4H245.305V192.4ZM241.705 181.6H244.705V184.6H241.705V181.6ZM241.705 196H244.705V199H241.705V196ZM238.105 185.2H241.105V188.2H238.105V185.2ZM238.105 196H241.105V199H238.105V196ZM234.505 188.8H237.505V191.8H234.505V188.8ZM234.505 196H237.505V199H234.505V196ZM230.905 181.6H233.905V184.6H230.905V181.6ZM230.905 185.2H233.905V188.2H230.905V185.2ZM230.905 188.8H233.905V191.8H230.905V188.8ZM230.905 192.4H233.905V195.4H230.905V192.4ZM266.897 178H269.897V181H266.897V178ZM263.297 174.4H266.297V177.4H263.297V174.4ZM259.697 174.4H262.697V177.4H259.697V174.4ZM256.097 174.4H259.097V177.4H256.097V174.4ZM252.497 178H255.497V181H252.497V178ZM266.897 181.6H269.897V184.6H266.897V181.6ZM266.897 185.2H269.897V188.2H266.897V185.2ZM266.897 188.8H269.897V191.8H266.897V188.8ZM266.897 192.4H269.897V195.4H266.897V192.4ZM263.297 181.6H266.297V184.6H263.297V181.6ZM263.297 196H266.297V199H263.297V196ZM259.697 185.2H262.697V188.2H259.697V185.2ZM259.697 196H262.697V199H259.697V196ZM256.097 188.8H259.097V191.8H256.097V188.8ZM256.097 196H259.097V199H256.097V196ZM252.497 181.6H255.497V184.6H252.497V181.6ZM252.497 185.2H255.497V188.2H252.497V185.2ZM252.497 188.8H255.497V191.8H252.497V188.8ZM252.497 192.4H255.497V195.4H252.497V192.4ZM288.489 178H291.489V181H288.489V178ZM284.889 174.4H287.889V177.4H284.889V174.4ZM281.289 174.4H284.289V177.4H281.289V174.4ZM277.689 174.4H280.689V177.4H277.689V174.4ZM274.089 178H277.089V181H274.089V178ZM288.489 181.6H291.489V184.6H288.489V181.6ZM288.489 185.2H291.489V188.2H288.489V185.2ZM288.489 188.8H291.489V191.8H288.489V188.8ZM288.489 192.4H291.489V195.4H288.489V192.4ZM284.889 181.6H287.889V184.6H284.889V181.6ZM284.889 196H287.889V199H284.889V196ZM281.289 185.2H284.289V188.2H281.289V185.2ZM281.289 196H284.289V199H281.289V196ZM277.689 188.8H280.689V191.8H277.689V188.8ZM277.689 196H280.689V199H277.689V196ZM274.089 181.6H277.089V184.6H274.089V181.6ZM274.089 185.2H277.089V188.2H274.089V185.2ZM274.089 188.8H277.089V191.8H274.089V188.8ZM274.089 192.4H277.089V195.4H274.089V192.4Z" fill="#5B65C2"/>
<path d="M338.515 241H341.515V244H338.515V241ZM334.915 237.4H337.915V240.4H334.915V237.4ZM331.315 237.4H334.315V240.4H331.315V237.4ZM327.715 237.4H330.715V240.4H327.715V237.4ZM324.115 241H327.115V244H324.115V241ZM338.515 244.6H341.515V247.6H338.515V244.6ZM338.515 259H341.515V262H338.515V259ZM334.915 248.2H337.915V251.2H334.915V248.2ZM334.915 259H337.915V262H334.915V259ZM331.315 251.8H334.315V254.8H331.315V251.8ZM331.315 259H334.315V262H331.315V259ZM327.715 255.4H330.715V258.4H327.715V255.4ZM327.715 259H330.715V262H327.715V259ZM324.115 259H327.115V262H324.115V259ZM356.507 237.4H359.507V240.4H356.507V237.4ZM356.507 241H359.507V244H356.507V241ZM352.907 241H355.907V244H352.907V241ZM360.107 251.8H363.107V254.8H360.107V251.8ZM356.507 244.6H359.507V247.6H356.507V244.6ZM356.507 248.2H359.507V251.2H356.507V248.2ZM356.507 251.8H359.507V254.8H356.507V251.8ZM356.507 255.4H359.507V258.4H356.507V255.4ZM356.507 259H359.507V262H356.507V259ZM352.907 251.8H355.907V254.8H352.907V251.8ZM349.307 244.6H352.307V247.6H349.307V244.6ZM349.307 251.8H352.307V254.8H349.307V251.8ZM345.707 248.2H348.707V251.2H345.707V248.2ZM345.707 251.8H348.707V254.8H345.707V251.8ZM370.899 255.4H373.899V258.4H370.899V255.4ZM370.899 259H373.899V262H370.899V259ZM367.299 255.4H370.299V258.4H367.299V255.4ZM367.299 259H370.299V262H367.299V259ZM392.509 241H395.509V244H392.509V241ZM388.909 237.4H391.909V240.4H388.909V237.4ZM385.309 237.4H388.309V240.4H385.309V237.4ZM381.709 237.4H384.709V240.4H381.709V237.4ZM378.109 241H381.109V244H378.109V241ZM392.509 244.6H395.509V247.6H392.509V244.6ZM392.509 248.2H395.509V251.2H392.509V248.2ZM392.509 251.8H395.509V254.8H392.509V251.8ZM392.509 255.4H395.509V258.4H392.509V255.4ZM388.909 244.6H391.909V247.6H388.909V244.6ZM388.909 259H391.909V262H388.909V259ZM385.309 248.2H388.309V251.2H385.309V248.2ZM385.309 259H388.309V262H385.309V259ZM381.709 251.8H384.709V254.8H381.709V251.8ZM381.709 259H384.709V262H381.709V259ZM378.109 244.6H381.109V247.6H378.109V244.6ZM378.109 248.2H381.109V251.2H378.109V248.2ZM378.109 251.8H381.109V254.8H378.109V251.8ZM378.109 255.4H381.109V258.4H378.109V255.4ZM414.101 241H417.101V244H414.101V241ZM410.501 237.4H413.501V240.4H410.501V237.4ZM406.901 237.4H409.901V240.4H406.901V237.4ZM403.301 237.4H406.301V240.4H403.301V237.4ZM399.701 241H402.701V244H399.701V241ZM414.101 244.6H417.101V247.6H414.101V244.6ZM414.101 248.2H417.101V251.2H414.101V248.2ZM414.101 251.8H417.101V254.8H414.101V251.8ZM414.101 255.4H417.101V258.4H414.101V255.4ZM410.501 244.6H413.501V247.6H410.501V244.6ZM410.501 259H413.501V262H410.501V259ZM406.901 248.2H409.901V251.2H406.901V248.2ZM406.901 259H409.901V262H406.901V259ZM403.301 251.8H406.301V254.8H403.301V251.8ZM403.301 259H406.301V262H403.301V259ZM399.701 244.6H402.701V247.6H399.701V244.6ZM399.701 248.2H402.701V251.2H399.701V248.2ZM399.701 251.8H402.701V254.8H399.701V251.8ZM399.701 255.4H402.701V258.4H399.701V255.4ZM435.693 241H438.693V244H435.693V241ZM432.093 237.4H435.093V240.4H432.093V237.4ZM428.493 237.4H431.493V240.4H428.493V237.4ZM424.893 237.4H427.893V240.4H424.893V237.4ZM421.293 241H424.293V244H421.293V241ZM435.693 244.6H438.693V247.6H435.693V244.6ZM435.693 248.2H438.693V251.2H435.693V248.2ZM435.693 251.8H438.693V254.8H435.693V251.8ZM435.693 255.4H438.693V258.4H435.693V255.4ZM432.093 244.6H435.093V247.6H432.093V244.6ZM432.093 259H435.093V262H432.093V259ZM428.493 248.2H431.493V251.2H428.493V248.2ZM428.493 259H431.493V262H428.493V259ZM424.893 251.8H427.893V254.8H424.893V251.8ZM424.893 259H427.893V262H424.893V259ZM421.293 244.6H424.293V247.6H421.293V244.6ZM421.293 248.2H424.293V251.2H421.293V248.2ZM421.293 251.8H424.293V254.8H421.293V251.8ZM421.293 255.4H424.293V258.4H421.293V255.4Z" fill="#5B65C2"/>
<path d="M56.4041 262.6H59.4041V265.6H56.4041V262.6ZM56.4041 233.8H59.4041V236.8H56.4041V233.8ZM56.4041 251.8H59.4041V254.8H56.4041V251.8ZM56.4041 255.4H59.4041V258.4H56.4041V255.4ZM56.4041 241H59.4041V244H56.4041V241ZM56.4041 244.6H59.4041V247.6H56.4041V244.6ZM63.6041 241H66.6041V244H63.6041V241ZM60.0041 237.4H63.0041V240.4H60.0041V237.4ZM56.4041 237.4H59.4041V240.4H56.4041V237.4ZM52.8041 237.4H55.8041V240.4H52.8041V237.4ZM49.2041 241H52.2041V244H49.2041V241ZM63.6041 251.8H66.6041V254.8H63.6041V251.8ZM63.6041 255.4H66.6041V258.4H63.6041V255.4ZM60.0041 248.2H63.0041V251.2H60.0041V248.2ZM60.0041 259H63.0041V262H60.0041V259ZM56.4041 248.2H59.4041V251.2H56.4041V248.2ZM56.4041 259H59.4041V262H56.4041V259ZM52.8041 248.2H55.8041V251.2H52.8041V248.2ZM52.8041 259H55.8041V262H52.8041V259ZM49.2041 244.6H52.2041V247.6H49.2041V244.6ZM49.2041 255.4H52.2041V258.4H49.2041V255.4ZM63.6041 241H66.6041V244H63.6041V241ZM60.0041 237.4H63.0041V240.4H60.0041V237.4ZM56.4041 237.4H59.4041V240.4H56.4041V237.4ZM52.8041 237.4H55.8041V240.4H52.8041V237.4ZM49.2041 241H52.2041V244H49.2041V241ZM63.6041 251.8H66.6041V254.8H63.6041V251.8ZM63.6041 255.4H66.6041V258.4H63.6041V255.4ZM60.0041 248.2H63.0041V251.2H60.0041V248.2ZM60.0041 259H63.0041V262H60.0041V259ZM56.4041 248.2H59.4041V251.2H56.4041V248.2ZM56.4041 259H59.4041V262H56.4041V259ZM52.8041 248.2H55.8041V251.2H52.8041V248.2ZM52.8041 259H55.8041V262H52.8041V259ZM49.2041 244.6H52.2041V247.6H49.2041V244.6ZM49.2041 255.4H52.2041V258.4H49.2041V255.4Z" fill="#5B65C2"/>
</g>
<defs>
<clipPath id="clip0">
<rect width="452" height="280" fill="white"/>
</clipPath>
</defs>
</svg>
