<svg width="452" height="280" viewBox="0 0 452 280" fill="none" xmlns="http://www.w3.org/2000/svg">
<g clip-path="url(#clip0)">
<rect width="452" height="280" fill="white"/>
<rect width="452" height="47" fill="#5B65C2"/>
<path d="M55.0445 15H58.0445V18H55.0445V15ZM51.4445 11.4H54.4445V14.4H51.4445V11.4ZM47.8445 11.4H50.8445V14.4H47.8445V11.4ZM44.2445 11.4H47.2445V14.4H44.2445V11.4ZM40.6445 15H43.6445V18H40.6445V15ZM55.0445 29.4H58.0445V32.4H55.0445V29.4ZM51.4445 33H54.4445V36H51.4445V33ZM47.8445 33H50.8445V36H47.8445V33ZM44.2445 33H47.2445V36H44.2445V33ZM40.6445 18.6H43.6445V21.6H40.6445V18.6ZM40.6445 22.2H43.6445V25.2H40.6445V22.2ZM40.6445 25.8H43.6445V28.8H40.6445V25.8ZM40.6445 29.4H43.6445V32.4H40.6445V29.4ZM76.6363 11.4H79.6363V14.4H76.6363V11.4ZM76.6363 15H79.6363V18H76.6363V15ZM62.2363 11.4H65.2363V14.4H62.2363V11.4ZM62.2363 15H65.2363V18H62.2363V15ZM76.6363 18.6H79.6363V21.6H76.6363V18.6ZM76.6363 22.2H79.6363V25.2H76.6363V22.2ZM76.6363 25.8H79.6363V28.8H76.6363V25.8ZM76.6363 29.4H79.6363V32.4H76.6363V29.4ZM73.0363 33H76.0363V36H73.0363V33ZM69.4363 33H72.4363V36H69.4363V33ZM65.8363 33H68.8363V36H65.8363V33ZM62.2363 18.6H65.2363V21.6H62.2363V18.6ZM62.2363 22.2H65.2363V25.2H62.2363V22.2ZM62.2363 25.8H65.2363V28.8H62.2363V25.8ZM62.2363 29.4H65.2363V32.4H62.2363V29.4ZM98.2281 11.4H101.228V14.4H98.2281V11.4ZM94.6281 11.4H97.6281V14.4H94.6281V11.4ZM91.0281 11.4H94.0281V14.4H91.0281V11.4ZM87.4281 11.4H90.4281V14.4H87.4281V11.4ZM83.8281 11.4H86.8281V14.4H83.8281V11.4ZM83.8281 15H86.8281V18H83.8281V15ZM98.2281 33H101.228V36H98.2281V33ZM94.6281 22.2H97.6281V25.2H94.6281V22.2ZM94.6281 33H97.6281V36H94.6281V33ZM91.0281 22.2H94.0281V25.2H91.0281V22.2ZM91.0281 33H94.0281V36H91.0281V33ZM87.4281 22.2H90.4281V25.2H87.4281V22.2ZM87.4281 33H90.4281V36H87.4281V33ZM83.8281 18.6H86.8281V21.6H83.8281V18.6ZM83.8281 22.2H86.8281V25.2H83.8281V22.2ZM83.8281 25.8H86.8281V28.8H83.8281V25.8ZM83.8281 29.4H86.8281V32.4H83.8281V29.4ZM83.8281 33H86.8281V36H83.8281V33ZM119.82 11.4H122.82V14.4H119.82V11.4ZM119.82 15H122.82V18H119.82V15ZM105.42 11.4H108.42V14.4H105.42V11.4ZM105.42 15H108.42V18H105.42V15ZM119.82 18.6H122.82V21.6H119.82V18.6ZM119.82 22.2H122.82V25.2H119.82V22.2ZM119.82 25.8H122.82V28.8H119.82V25.8ZM119.82 29.4H122.82V32.4H119.82V29.4ZM119.82 33H122.82V36H119.82V33ZM116.22 25.8H119.22V28.8H116.22V25.8ZM112.62 22.2H115.62V25.2H112.62V22.2ZM109.02 18.6H112.02V21.6H109.02V18.6ZM105.42 18.6H108.42V21.6H105.42V18.6ZM105.42 22.2H108.42V25.2H105.42V22.2ZM105.42 25.8H108.42V28.8H105.42V25.8ZM105.42 29.4H108.42V32.4H105.42V29.4ZM105.42 33H108.42V36H105.42V33ZM141.412 11.4H144.412V14.4H141.412V11.4ZM137.812 11.4H140.812V14.4H137.812V11.4ZM134.212 11.4H137.212V14.4H134.212V11.4ZM134.212 15H137.212V18H134.212V15ZM130.612 11.4H133.612V14.4H130.612V11.4ZM127.012 11.4H130.012V14.4H127.012V11.4ZM134.212 18.6H137.212V21.6H134.212V18.6ZM134.212 22.2H137.212V25.2H134.212V22.2ZM134.212 25.8H137.212V28.8H134.212V25.8ZM134.212 29.4H137.212V32.4H134.212V29.4ZM134.212 33H137.212V36H134.212V33ZM163.004 15H166.004V18H163.004V15ZM159.404 11.4H162.404V14.4H159.404V11.4ZM155.804 11.4H158.804V14.4H155.804V11.4ZM152.204 11.4H155.204V14.4H152.204V11.4ZM148.604 15H151.604V18H148.604V15ZM163.004 18.6H166.004V21.6H163.004V18.6ZM163.004 22.2H166.004V25.2H163.004V22.2ZM163.004 25.8H166.004V28.8H163.004V25.8ZM163.004 29.4H166.004V32.4H163.004V29.4ZM163.004 33H166.004V36H163.004V33ZM159.404 22.2H162.404V25.2H159.404V22.2ZM155.804 22.2H158.804V25.2H155.804V22.2ZM152.204 22.2H155.204V25.2H152.204V22.2ZM148.604 18.6H151.604V21.6H148.604V18.6ZM148.604 22.2H151.604V25.2H148.604V22.2ZM148.604 25.8H151.604V28.8H148.604V25.8ZM148.604 29.4H151.604V32.4H148.604V29.4ZM148.604 33H151.604V36H148.604V33ZM197.187 15H200.187V18H197.187V15ZM193.587 11.4H196.587V14.4H193.587V11.4ZM189.987 11.4H192.987V14.4H189.987V11.4ZM186.387 11.4H189.387V14.4H186.387V11.4ZM182.787 11.4H185.787V14.4H182.787V11.4ZM182.787 15H185.787V18H182.787V15ZM197.187 18.6H200.187V21.6H197.187V18.6ZM197.187 22.2H200.187V25.2H197.187V22.2ZM197.187 25.8H200.187V28.8H197.187V25.8ZM197.187 29.4H200.187V32.4H197.187V29.4ZM193.587 33H196.587V36H193.587V33ZM189.987 33H192.987V36H189.987V33ZM186.387 33H189.387V36H186.387V33ZM182.787 18.6H185.787V21.6H182.787V18.6ZM182.787 22.2H185.787V25.2H182.787V22.2ZM182.787 25.8H185.787V28.8H182.787V25.8ZM182.787 29.4H185.787V32.4H182.787V29.4ZM182.787 33H185.787V36H182.787V33ZM211.579 11.4H214.579V14.4H211.579V11.4ZM207.979 11.4H210.979V14.4H207.979V11.4ZM207.979 15H210.979V18H207.979V15ZM204.379 11.4H207.379V14.4H204.379V11.4ZM211.579 33H214.579V36H211.579V33ZM207.979 18.6H210.979V21.6H207.979V18.6ZM207.979 22.2H210.979V25.2H207.979V22.2ZM207.979 25.8H210.979V28.8H207.979V25.8ZM207.979 29.4H210.979V32.4H207.979V29.4ZM207.979 33H210.979V36H207.979V33ZM204.379 33H207.379V36H204.379V33ZM233.193 11.4H236.193V14.4H233.193V11.4ZM233.193 15H236.193V18H233.193V15ZM218.793 11.4H221.793V14.4H218.793V11.4ZM218.793 15H221.793V18H218.793V15ZM233.193 18.6H236.193V21.6H233.193V18.6ZM233.193 22.2H236.193V25.2H233.193V22.2ZM233.193 25.8H236.193V28.8H233.193V25.8ZM229.593 29.4H232.593V32.4H229.593V29.4ZM225.993 33H228.993V36H225.993V33ZM222.393 29.4H225.393V32.4H222.393V29.4ZM218.793 18.6H221.793V21.6H218.793V18.6ZM218.793 22.2H221.793V25.2H218.793V22.2ZM218.793 25.8H221.793V28.8H218.793V25.8ZM247.585 11.4H250.585V14.4H247.585V11.4ZM243.985 11.4H246.985V14.4H243.985V11.4ZM243.985 15H246.985V18H243.985V15ZM240.385 11.4H243.385V14.4H240.385V11.4ZM247.585 33H250.585V36H247.585V33ZM243.985 18.6H246.985V21.6H243.985V18.6ZM243.985 22.2H246.985V25.2H243.985V22.2ZM243.985 25.8H246.985V28.8H243.985V25.8ZM243.985 29.4H246.985V32.4H243.985V29.4ZM243.985 33H246.985V36H243.985V33ZM240.385 33H243.385V36H240.385V33ZM269.199 15H272.199V18H269.199V15ZM265.599 11.4H268.599V14.4H265.599V11.4ZM261.999 11.4H264.999V14.4H261.999V11.4ZM258.399 11.4H261.399V14.4H258.399V11.4ZM254.799 11.4H257.799V14.4H254.799V11.4ZM254.799 15H257.799V18H254.799V15ZM269.199 18.6H272.199V21.6H269.199V18.6ZM269.199 22.2H272.199V25.2H269.199V22.2ZM269.199 25.8H272.199V28.8H269.199V25.8ZM269.199 29.4H272.199V32.4H269.199V29.4ZM265.599 33H268.599V36H265.599V33ZM261.999 33H264.999V36H261.999V33ZM258.399 33H261.399V36H258.399V33ZM254.799 18.6H257.799V21.6H254.799V18.6ZM254.799 22.2H257.799V25.2H254.799V22.2ZM254.799 25.8H257.799V28.8H254.799V25.8ZM254.799 29.4H257.799V32.4H254.799V29.4ZM254.799 33H257.799V36H254.799V33ZM283.591 11.4H286.591V14.4H283.591V11.4ZM279.991 11.4H282.991V14.4H279.991V11.4ZM279.991 15H282.991V18H279.991V15ZM276.391 11.4H279.391V14.4H276.391V11.4ZM283.591 33H286.591V36H283.591V33ZM279.991 18.6H282.991V21.6H279.991V18.6ZM279.991 22.2H282.991V25.2H279.991V22.2ZM279.991 25.8H282.991V28.8H279.991V25.8ZM279.991 29.4H282.991V32.4H279.991V29.4ZM279.991 33H282.991V36H279.991V33ZM276.391 33H279.391V36H276.391V33ZM305.205 15H308.205V18H305.205V15ZM301.605 11.4H304.605V14.4H301.605V11.4ZM298.005 11.4H301.005V14.4H298.005V11.4ZM294.405 11.4H297.405V14.4H294.405V11.4ZM290.805 11.4H293.805V14.4H290.805V11.4ZM290.805 15H293.805V18H290.805V15ZM305.205 18.6H308.205V21.6H305.205V18.6ZM305.205 22.2H308.205V25.2H305.205V22.2ZM305.205 25.8H308.205V28.8H305.205V25.8ZM305.205 29.4H308.205V32.4H305.205V29.4ZM301.605 33H304.605V36H301.605V33ZM298.005 33H301.005V36H298.005V33ZM294.405 33H297.405V36H294.405V33ZM290.805 18.6H293.805V21.6H290.805V18.6ZM290.805 22.2H293.805V25.2H290.805V22.2ZM290.805 25.8H293.805V28.8H290.805V25.8ZM290.805 29.4H293.805V32.4H290.805V29.4ZM290.805 33H293.805V36H290.805V33ZM326.796 15H329.796V18H326.796V15ZM323.196 11.4H326.196V14.4H323.196V11.4ZM319.596 11.4H322.596V14.4H319.596V11.4ZM315.996 11.4H318.996V14.4H315.996V11.4ZM312.396 15H315.396V18H312.396V15ZM326.796 18.6H329.796V21.6H326.796V18.6ZM326.796 22.2H329.796V25.2H326.796V22.2ZM326.796 25.8H329.796V28.8H326.796V25.8ZM326.796 29.4H329.796V32.4H326.796V29.4ZM326.796 33H329.796V36H326.796V33ZM323.196 22.2H326.196V25.2H323.196V22.2ZM319.596 22.2H322.596V25.2H319.596V22.2ZM315.996 22.2H318.996V25.2H315.996V22.2ZM312.396 18.6H315.396V21.6H312.396V18.6ZM312.396 22.2H315.396V25.2H312.396V22.2ZM312.396 25.8H315.396V28.8H312.396V25.8ZM312.396 29.4H315.396V32.4H312.396V29.4ZM312.396 33H315.396V36H312.396V33ZM360.98 15H363.98V18H360.98V15ZM357.38 11.4H360.38V14.4H357.38V11.4ZM353.78 11.4H356.78V14.4H353.78V11.4ZM350.18 11.4H353.18V14.4H350.18V11.4ZM346.58 15H349.58V18H346.58V15ZM360.98 18.6H363.98V21.6H360.98V18.6ZM360.98 33H363.98V36H360.98V33ZM357.38 22.2H360.38V25.2H357.38V22.2ZM357.38 33H360.38V36H357.38V33ZM353.78 25.8H356.78V28.8H353.78V25.8ZM353.78 33H356.78V36H353.78V33ZM350.18 29.4H353.18V32.4H350.18V29.4ZM350.18 33H353.18V36H350.18V33ZM346.58 33H349.58V36H346.58V33ZM382.572 15H385.572V18H382.572V15ZM378.972 18.6H381.972V21.6H378.972V18.6ZM375.372 22.2H378.372V25.2H375.372V22.2ZM371.772 25.8H374.772V28.8H371.772V25.8ZM368.172 29.4H371.172V32.4H368.172V29.4ZM404.164 11.4H407.164V14.4H404.164V11.4ZM400.564 11.4H403.564V14.4H400.564V11.4ZM396.964 11.4H399.964V14.4H396.964V11.4ZM393.364 11.4H396.364V14.4H393.364V11.4ZM389.764 11.4H392.764V14.4H389.764V11.4ZM389.764 15H392.764V18H389.764V15ZM404.164 22.2H407.164V25.2H404.164V22.2ZM404.164 25.8H407.164V28.8H404.164V25.8ZM404.164 29.4H407.164V32.4H404.164V29.4ZM400.564 18.6H403.564V21.6H400.564V18.6ZM400.564 33H403.564V36H400.564V33ZM396.964 18.6H399.964V21.6H396.964V18.6ZM396.964 33H399.964V36H396.964V33ZM393.364 18.6H396.364V21.6H393.364V18.6ZM393.364 33H396.364V36H393.364V33ZM389.764 18.6H392.764V21.6H389.764V18.6ZM389.764 29.4H392.764V32.4H389.764V29.4Z" fill="white"/>
<rect x="1.5" y="1.5" width="449" height="277" stroke="#5B65C2" stroke-width="3"/>
<path d="M63.2516 106H66.2516V109H63.2516V106ZM59.6516 102.4H62.6516V105.4H59.6516V102.4ZM56.0516 102.4H59.0516V105.4H56.0516V102.4ZM52.4516 102.4H55.4516V105.4H52.4516V102.4ZM48.8516 106H51.8516V109H48.8516V106ZM63.2516 109.6H66.2516V112.6H63.2516V109.6ZM63.2516 113.2H66.2516V116.2H63.2516V113.2ZM63.2516 116.8H66.2516V119.8H63.2516V116.8ZM63.2516 120.4H66.2516V123.4H63.2516V120.4ZM63.2516 124H66.2516V127H63.2516V124ZM59.6516 113.2H62.6516V116.2H59.6516V113.2ZM56.0516 113.2H59.0516V116.2H56.0516V113.2ZM52.4516 113.2H55.4516V116.2H52.4516V113.2ZM48.8516 109.6H51.8516V112.6H48.8516V109.6ZM48.8516 113.2H51.8516V116.2H48.8516V113.2ZM48.8516 116.8H51.8516V119.8H48.8516V116.8ZM48.8516 120.4H51.8516V123.4H48.8516V120.4ZM48.8516 124H51.8516V127H48.8516V124ZM70.4434 102.4H73.4434V105.4H70.4434V102.4ZM70.4434 106H73.4434V109H70.4434V106ZM84.8434 124H87.8434V127H84.8434V124ZM81.2434 124H84.2434V127H81.2434V124ZM77.6434 124H80.6434V127H77.6434V124ZM74.0434 124H77.0434V127H74.0434V124ZM70.4434 109.6H73.4434V112.6H70.4434V109.6ZM70.4434 113.2H73.4434V116.2H70.4434V113.2ZM70.4434 116.8H73.4434V119.8H70.4434V116.8ZM70.4434 120.4H73.4434V123.4H70.4434V120.4ZM70.4434 124H73.4434V127H70.4434V124ZM119.027 106H122.027V109H119.027V106ZM115.427 102.4H118.427V105.4H115.427V102.4ZM111.827 102.4H114.827V105.4H111.827V102.4ZM108.227 102.4H111.227V105.4H108.227V102.4ZM104.627 102.4H107.627V105.4H104.627V102.4ZM104.627 106H107.627V109H104.627V106ZM119.027 109.6H122.027V112.6H119.027V109.6ZM119.027 124H122.027V127H119.027V124ZM115.427 113.2H118.427V116.2H115.427V113.2ZM115.427 120.4H118.427V123.4H115.427V120.4ZM111.827 113.2H114.827V116.2H111.827V113.2ZM111.827 116.8H114.827V119.8H111.827V116.8ZM108.227 113.2H111.227V116.2H108.227V113.2ZM104.627 109.6H107.627V112.6H104.627V109.6ZM104.627 113.2H107.627V116.2H104.627V113.2ZM104.627 116.8H107.627V119.8H104.627V116.8ZM104.627 120.4H107.627V123.4H104.627V120.4ZM104.627 124H107.627V127H104.627V124ZM140.619 102.4H143.619V105.4H140.619V102.4ZM137.019 102.4H140.019V105.4H137.019V102.4ZM133.419 102.4H136.419V105.4H133.419V102.4ZM129.819 102.4H132.819V105.4H129.819V102.4ZM126.219 102.4H129.219V105.4H126.219V102.4ZM126.219 106H129.219V109H126.219V106ZM140.619 124H143.619V127H140.619V124ZM137.019 113.2H140.019V116.2H137.019V113.2ZM137.019 124H140.019V127H137.019V124ZM133.419 113.2H136.419V116.2H133.419V113.2ZM133.419 124H136.419V127H133.419V124ZM129.819 113.2H132.819V116.2H129.819V113.2ZM129.819 124H132.819V127H129.819V124ZM126.219 109.6H129.219V112.6H126.219V109.6ZM126.219 113.2H129.219V116.2H126.219V113.2ZM126.219 116.8H129.219V119.8H126.219V116.8ZM126.219 120.4H129.219V123.4H126.219V120.4ZM126.219 124H129.219V127H126.219V124ZM162.211 106H165.211V109H162.211V106ZM158.611 102.4H161.611V105.4H158.611V102.4ZM155.011 102.4H158.011V105.4H155.011V102.4ZM151.411 102.4H154.411V105.4H151.411V102.4ZM147.811 106H150.811V109H147.811V106ZM162.211 120.4H165.211V123.4H162.211V120.4ZM158.611 124H161.611V127H158.611V124ZM155.011 124H158.011V127H155.011V124ZM151.411 124H154.411V127H151.411V124ZM147.811 109.6H150.811V112.6H147.811V109.6ZM147.811 113.2H150.811V116.2H147.811V113.2ZM147.811 116.8H150.811V119.8H147.811V116.8ZM147.811 120.4H150.811V123.4H147.811V120.4ZM176.602 102.4H179.602V105.4H176.602V102.4ZM173.002 102.4H176.002V105.4H173.002V102.4ZM173.002 106H176.002V109H173.002V106ZM169.402 102.4H172.402V105.4H169.402V102.4ZM176.602 124H179.602V127H176.602V124ZM173.002 109.6H176.002V112.6H173.002V109.6ZM173.002 113.2H176.002V116.2H173.002V113.2ZM173.002 116.8H176.002V119.8H173.002V116.8ZM173.002 120.4H176.002V123.4H173.002V120.4ZM173.002 124H176.002V127H173.002V124ZM169.402 124H172.402V127H169.402V124ZM198.216 106H201.216V109H198.216V106ZM194.616 102.4H197.616V105.4H194.616V102.4ZM191.016 102.4H194.016V105.4H191.016V102.4ZM187.416 102.4H190.416V105.4H187.416V102.4ZM183.816 102.4H186.816V105.4H183.816V102.4ZM183.816 106H186.816V109H183.816V106ZM198.216 109.6H201.216V112.6H198.216V109.6ZM198.216 116.8H201.216V119.8H198.216V116.8ZM198.216 120.4H201.216V123.4H198.216V120.4ZM194.616 113.2H197.616V116.2H194.616V113.2ZM194.616 124H197.616V127H194.616V124ZM191.016 113.2H194.016V116.2H191.016V113.2ZM191.016 124H194.016V127H191.016V124ZM187.416 113.2H190.416V116.2H187.416V113.2ZM187.416 124H190.416V127H187.416V124ZM183.816 109.6H186.816V112.6H183.816V109.6ZM183.816 113.2H186.816V116.2H183.816V113.2ZM183.816 116.8H186.816V119.8H183.816V116.8ZM183.816 120.4H186.816V123.4H183.816V120.4ZM183.816 124H186.816V127H183.816V124ZM212.608 102.4H215.608V105.4H212.608V102.4ZM209.008 102.4H212.008V105.4H209.008V102.4ZM209.008 106H212.008V109H209.008V106ZM205.408 102.4H208.408V105.4H205.408V102.4ZM212.608 124H215.608V127H212.608V124ZM209.008 109.6H212.008V112.6H209.008V109.6ZM209.008 113.2H212.008V116.2H209.008V113.2ZM209.008 116.8H212.008V119.8H209.008V116.8ZM209.008 120.4H212.008V123.4H209.008V120.4ZM209.008 124H212.008V127H209.008V124ZM205.408 124H208.408V127H205.408V124ZM234.222 106H237.222V109H234.222V106ZM230.622 102.4H233.622V105.4H230.622V102.4ZM227.022 102.4H230.022V105.4H227.022V102.4ZM223.422 102.4H226.422V105.4H223.422V102.4ZM219.822 102.4H222.822V105.4H219.822V102.4ZM219.822 106H222.822V109H219.822V106ZM234.222 109.6H237.222V112.6H234.222V109.6ZM234.222 124H237.222V127H234.222V124ZM230.622 113.2H233.622V116.2H230.622V113.2ZM230.622 120.4H233.622V123.4H230.622V120.4ZM227.022 113.2H230.022V116.2H227.022V113.2ZM227.022 116.8H230.022V119.8H227.022V116.8ZM223.422 113.2H226.422V116.2H223.422V113.2ZM219.822 109.6H222.822V112.6H219.822V109.6ZM219.822 113.2H222.822V116.2H219.822V113.2ZM219.822 116.8H222.822V119.8H219.822V116.8ZM219.822 120.4H222.822V123.4H219.822V120.4ZM219.822 124H222.822V127H219.822V124ZM268.406 102.4H271.406V105.4H268.406V102.4ZM264.806 102.4H267.806V105.4H264.806V102.4ZM261.206 102.4H264.206V105.4H261.206V102.4ZM257.606 102.4H260.606V105.4H257.606V102.4ZM254.006 102.4H257.006V105.4H254.006V102.4ZM254.006 106H257.006V109H254.006V106ZM268.406 124H271.406V127H268.406V124ZM264.806 113.2H267.806V116.2H264.806V113.2ZM264.806 124H267.806V127H264.806V124ZM261.206 113.2H264.206V116.2H261.206V113.2ZM261.206 124H264.206V127H261.206V124ZM257.606 113.2H260.606V116.2H257.606V113.2ZM257.606 124H260.606V127H257.606V124ZM254.006 109.6H257.006V112.6H254.006V109.6ZM254.006 113.2H257.006V116.2H254.006V113.2ZM254.006 116.8H257.006V119.8H254.006V116.8ZM254.006 120.4H257.006V123.4H254.006V120.4ZM254.006 124H257.006V127H254.006V124ZM275.598 102.4H278.598V105.4H275.598V102.4ZM275.598 106H278.598V109H275.598V106ZM289.998 124H292.998V127H289.998V124ZM286.398 124H289.398V127H286.398V124ZM282.798 124H285.798V127H282.798V124ZM279.198 124H282.198V127H279.198V124ZM275.598 109.6H278.598V112.6H275.598V109.6ZM275.598 113.2H278.598V116.2H275.598V113.2ZM275.598 116.8H278.598V119.8H275.598V116.8ZM275.598 120.4H278.598V123.4H275.598V120.4ZM275.598 124H278.598V127H275.598V124ZM324.181 106H327.181V109H324.181V106ZM320.581 102.4H323.581V105.4H320.581V102.4ZM316.981 102.4H319.981V105.4H316.981V102.4ZM313.381 102.4H316.381V105.4H313.381V102.4ZM309.781 102.4H312.781V105.4H309.781V102.4ZM309.781 106H312.781V109H309.781V106ZM324.181 109.6H327.181V112.6H324.181V109.6ZM320.581 113.2H323.581V116.2H320.581V113.2ZM316.981 113.2H319.981V116.2H316.981V113.2ZM313.381 113.2H316.381V116.2H313.381V113.2ZM309.781 109.6H312.781V112.6H309.781V109.6ZM309.781 113.2H312.781V116.2H309.781V113.2ZM309.781 116.8H312.781V119.8H309.781V116.8ZM309.781 120.4H312.781V123.4H309.781V120.4ZM309.781 124H312.781V127H309.781V124ZM345.773 106H348.773V109H345.773V106ZM342.173 102.4H345.173V105.4H342.173V102.4ZM338.573 102.4H341.573V105.4H338.573V102.4ZM334.973 102.4H337.973V105.4H334.973V102.4ZM331.373 106H334.373V109H331.373V106ZM345.773 109.6H348.773V112.6H345.773V109.6ZM345.773 113.2H348.773V116.2H345.773V113.2ZM345.773 116.8H348.773V119.8H345.773V116.8ZM345.773 120.4H348.773V123.4H345.773V120.4ZM345.773 124H348.773V127H345.773V124ZM342.173 113.2H345.173V116.2H342.173V113.2ZM338.573 113.2H341.573V116.2H338.573V113.2ZM334.973 113.2H337.973V116.2H334.973V113.2ZM331.373 109.6H334.373V112.6H331.373V109.6ZM331.373 113.2H334.373V116.2H331.373V113.2ZM331.373 116.8H334.373V119.8H331.373V116.8ZM331.373 120.4H334.373V123.4H331.373V120.4ZM331.373 124H334.373V127H331.373V124ZM367.365 106H370.365V109H367.365V106ZM363.765 102.4H366.765V105.4H363.765V102.4ZM360.165 102.4H363.165V105.4H360.165V102.4ZM356.565 102.4H359.565V105.4H356.565V102.4ZM352.965 106H355.965V109H352.965V106ZM367.365 116.8H370.365V119.8H367.365V116.8ZM367.365 120.4H370.365V123.4H367.365V120.4ZM363.765 116.8H366.765V119.8H363.765V116.8ZM363.765 124H366.765V127H363.765V124ZM360.165 124H363.165V127H360.165V124ZM356.565 124H359.565V127H356.565V124ZM352.965 109.6H355.965V112.6H352.965V109.6ZM352.965 113.2H355.965V116.2H352.965V113.2ZM352.965 116.8H355.965V119.8H352.965V116.8ZM352.965 120.4H355.965V123.4H352.965V120.4ZM388.957 106H391.957V109H388.957V106ZM385.357 102.4H388.357V105.4H385.357V102.4ZM381.757 102.4H384.757V105.4H381.757V102.4ZM378.157 102.4H381.157V105.4H378.157V102.4ZM374.557 106H377.557V109H374.557V106ZM388.957 109.6H391.957V112.6H388.957V109.6ZM388.957 113.2H391.957V116.2H388.957V113.2ZM388.957 116.8H391.957V119.8H388.957V116.8ZM388.957 120.4H391.957V123.4H388.957V120.4ZM385.357 124H388.357V127H385.357V124ZM381.757 124H384.757V127H381.757V124ZM378.157 124H381.157V127H378.157V124ZM374.557 109.6H377.557V112.6H374.557V109.6ZM374.557 113.2H377.557V116.2H374.557V113.2ZM374.557 116.8H377.557V119.8H374.557V116.8ZM374.557 120.4H377.557V123.4H374.557V120.4ZM55.1627 139H58.1627V142H55.1627V139ZM51.5627 135.4H54.5627V138.4H51.5627V135.4ZM47.9627 135.4H50.9627V138.4H47.9627V135.4ZM44.3627 135.4H47.3627V138.4H44.3627V135.4ZM40.7627 135.4H43.7627V138.4H40.7627V135.4ZM40.7627 139H43.7627V142H40.7627V139ZM55.1627 142.6H58.1627V145.6H55.1627V142.6ZM51.5627 146.2H54.5627V149.2H51.5627V146.2ZM47.9627 146.2H50.9627V149.2H47.9627V146.2ZM44.3627 146.2H47.3627V149.2H44.3627V146.2ZM40.7627 142.6H43.7627V145.6H40.7627V142.6ZM40.7627 146.2H43.7627V149.2H40.7627V146.2ZM40.7627 149.8H43.7627V152.8H40.7627V149.8ZM40.7627 153.4H43.7627V156.4H40.7627V153.4ZM40.7627 157H43.7627V160H40.7627V157ZM76.7545 139H79.7545V142H76.7545V139ZM73.1545 135.4H76.1545V138.4H73.1545V135.4ZM69.5545 135.4H72.5545V138.4H69.5545V135.4ZM65.9545 135.4H68.9545V138.4H65.9545V135.4ZM62.3545 135.4H65.3545V138.4H62.3545V135.4ZM62.3545 139H65.3545V142H62.3545V139ZM76.7545 142.6H79.7545V145.6H76.7545V142.6ZM76.7545 157H79.7545V160H76.7545V157ZM73.1545 146.2H76.1545V149.2H73.1545V146.2ZM73.1545 153.4H76.1545V156.4H73.1545V153.4ZM69.5545 146.2H72.5545V149.2H69.5545V146.2ZM69.5545 149.8H72.5545V152.8H69.5545V149.8ZM65.9545 146.2H68.9545V149.2H65.9545V146.2ZM62.3545 142.6H65.3545V145.6H62.3545V142.6ZM62.3545 146.2H65.3545V149.2H62.3545V146.2ZM62.3545 149.8H65.3545V152.8H62.3545V149.8ZM62.3545 153.4H65.3545V156.4H62.3545V153.4ZM62.3545 157H65.3545V160H62.3545V157ZM98.3463 135.4H101.346V138.4H98.3463V135.4ZM94.7463 135.4H97.7463V138.4H94.7463V135.4ZM91.1463 135.4H94.1463V138.4H91.1463V135.4ZM87.5463 135.4H90.5463V138.4H87.5463V135.4ZM83.9463 135.4H86.9463V138.4H83.9463V135.4ZM83.9463 139H86.9463V142H83.9463V139ZM98.3463 157H101.346V160H98.3463V157ZM94.7463 146.2H97.7463V149.2H94.7463V146.2ZM94.7463 157H97.7463V160H94.7463V157ZM91.1463 146.2H94.1463V149.2H91.1463V146.2ZM91.1463 157H94.1463V160H91.1463V157ZM87.5463 146.2H90.5463V149.2H87.5463V146.2ZM87.5463 157H90.5463V160H87.5463V157ZM83.9463 142.6H86.9463V145.6H83.9463V142.6ZM83.9463 146.2H86.9463V149.2H83.9463V146.2ZM83.9463 149.8H86.9463V152.8H83.9463V149.8ZM83.9463 153.4H86.9463V156.4H83.9463V153.4ZM83.9463 157H86.9463V160H83.9463V157ZM119.938 139H122.938V142H119.938V139ZM116.338 135.4H119.338V138.4H116.338V135.4ZM112.738 135.4H115.738V138.4H112.738V135.4ZM109.138 135.4H112.138V138.4H109.138V135.4ZM105.538 139H108.538V142H105.538V139ZM119.938 149.8H122.938V152.8H119.938V149.8ZM119.938 153.4H122.938V156.4H119.938V153.4ZM116.338 146.2H119.338V149.2H116.338V146.2ZM116.338 157H119.338V160H116.338V157ZM112.738 146.2H115.738V149.2H112.738V146.2ZM112.738 157H115.738V160H112.738V157ZM109.138 146.2H112.138V149.2H109.138V146.2ZM109.138 157H112.138V160H109.138V157ZM105.538 142.6H108.538V145.6H105.538V142.6ZM105.538 153.4H108.538V156.4H105.538V153.4ZM134.33 135.4H137.33V138.4H134.33V135.4ZM130.73 135.4H133.73V138.4H130.73V135.4ZM130.73 139H133.73V142H130.73V139ZM127.13 135.4H130.13V138.4H127.13V135.4ZM134.33 157H137.33V160H134.33V157ZM130.73 142.6H133.73V145.6H130.73V142.6ZM130.73 146.2H133.73V149.2H130.73V146.2ZM130.73 149.8H133.73V152.8H130.73V149.8ZM130.73 153.4H133.73V156.4H130.73V153.4ZM130.73 157H133.73V160H130.73V157ZM127.13 157H130.13V160H127.13V157ZM155.944 139H158.944V142H155.944V139ZM152.344 135.4H155.344V138.4H152.344V135.4ZM148.744 135.4H151.744V138.4H148.744V135.4ZM145.144 135.4H148.144V138.4H145.144V135.4ZM141.544 139H144.544V142H141.544V139ZM155.944 142.6H158.944V145.6H155.944V142.6ZM155.944 146.2H158.944V149.2H155.944V146.2ZM155.944 149.8H158.944V152.8H155.944V149.8ZM155.944 153.4H158.944V156.4H155.944V153.4ZM152.344 157H155.344V160H152.344V157ZM148.744 157H151.744V160H148.744V157ZM145.144 157H148.144V160H145.144V157ZM141.544 142.6H144.544V145.6H141.544V142.6ZM141.544 146.2H144.544V149.2H141.544V146.2ZM141.544 149.8H144.544V152.8H141.544V149.8ZM141.544 153.4H144.544V156.4H141.544V153.4ZM177.536 135.4H180.536V138.4H177.536V135.4ZM177.536 139H180.536V142H177.536V139ZM163.136 135.4H166.136V138.4H163.136V135.4ZM163.136 139H166.136V142H163.136V139ZM177.536 142.6H180.536V145.6H177.536V142.6ZM177.536 146.2H180.536V149.2H177.536V146.2ZM177.536 149.8H180.536V152.8H177.536V149.8ZM177.536 153.4H180.536V156.4H177.536V153.4ZM177.536 157H180.536V160H177.536V157ZM173.936 149.8H176.936V152.8H173.936V149.8ZM170.336 146.2H173.336V149.2H170.336V146.2ZM166.736 142.6H169.736V145.6H166.736V142.6ZM163.136 142.6H166.136V145.6H163.136V142.6ZM163.136 146.2H166.136V149.2H163.136V146.2ZM163.136 149.8H166.136V152.8H163.136V149.8ZM163.136 153.4H166.136V156.4H163.136V153.4ZM163.136 157H166.136V160H163.136V157ZM199.128 135.4H202.128V138.4H199.128V135.4ZM195.528 135.4H198.528V138.4H195.528V135.4ZM191.928 135.4H194.928V138.4H191.928V135.4ZM188.328 135.4H191.328V138.4H188.328V135.4ZM184.728 135.4H187.728V138.4H184.728V135.4ZM184.728 139H187.728V142H184.728V139ZM199.128 157H202.128V160H199.128V157ZM195.528 146.2H198.528V149.2H195.528V146.2ZM195.528 157H198.528V160H195.528V157ZM191.928 146.2H194.928V149.2H191.928V146.2ZM191.928 157H194.928V160H191.928V157ZM188.328 146.2H191.328V149.2H188.328V146.2ZM188.328 157H191.328V160H188.328V157ZM184.728 142.6H187.728V145.6H184.728V142.6ZM184.728 146.2H187.728V149.2H184.728V146.2ZM184.728 149.8H187.728V152.8H184.728V149.8ZM184.728 153.4H187.728V156.4H184.728V153.4ZM184.728 157H187.728V160H184.728V157ZM233.311 135.4H236.311V138.4H233.311V135.4ZM233.311 139H236.311V142H233.311V139ZM218.911 135.4H221.911V138.4H218.911V135.4ZM218.911 139H221.911V142H218.911V139ZM233.311 142.6H236.311V145.6H233.311V142.6ZM233.311 146.2H236.311V149.2H233.311V146.2ZM233.311 149.8H236.311V152.8H233.311V149.8ZM233.311 153.4H236.311V156.4H233.311V153.4ZM229.711 157H232.711V160H229.711V157ZM226.111 157H229.111V160H226.111V157ZM222.511 157H225.511V160H222.511V157ZM218.911 142.6H221.911V145.6H218.911V142.6ZM218.911 146.2H221.911V149.2H218.911V146.2ZM218.911 149.8H221.911V152.8H218.911V149.8ZM218.911 153.4H221.911V156.4H218.911V153.4ZM254.903 135.4H257.903V138.4H254.903V135.4ZM254.903 139H257.903V142H254.903V139ZM240.503 135.4H243.503V138.4H240.503V135.4ZM240.503 139H243.503V142H240.503V139ZM254.903 142.6H257.903V145.6H254.903V142.6ZM254.903 146.2H257.903V149.2H254.903V146.2ZM254.903 149.8H257.903V152.8H254.903V149.8ZM254.903 153.4H257.903V156.4H254.903V153.4ZM254.903 157H257.903V160H254.903V157ZM251.303 149.8H254.303V152.8H251.303V149.8ZM247.703 146.2H250.703V149.2H247.703V146.2ZM244.103 142.6H247.103V145.6H244.103V142.6ZM240.503 142.6H243.503V145.6H240.503V142.6ZM240.503 146.2H243.503V149.2H240.503V146.2ZM240.503 149.8H243.503V152.8H240.503V149.8ZM240.503 153.4H243.503V156.4H240.503V153.4ZM240.503 157H243.503V160H240.503V157ZM276.495 139H279.495V142H276.495V139ZM272.895 135.4H275.895V138.4H272.895V135.4ZM269.295 135.4H272.295V138.4H269.295V135.4ZM265.695 135.4H268.695V138.4H265.695V135.4ZM262.095 139H265.095V142H262.095V139ZM276.495 142.6H279.495V145.6H276.495V142.6ZM276.495 146.2H279.495V149.2H276.495V146.2ZM276.495 149.8H279.495V152.8H276.495V149.8ZM276.495 153.4H279.495V156.4H276.495V153.4ZM276.495 157H279.495V160H276.495V157ZM272.895 146.2H275.895V149.2H272.895V146.2ZM269.295 146.2H272.295V149.2H269.295V146.2ZM265.695 146.2H268.695V149.2H265.695V146.2ZM262.095 142.6H265.095V145.6H262.095V142.6ZM262.095 146.2H265.095V149.2H262.095V146.2ZM262.095 149.8H265.095V152.8H262.095V149.8ZM262.095 153.4H265.095V156.4H262.095V153.4ZM262.095 157H265.095V160H262.095V157ZM310.678 135.4H313.678V138.4H310.678V135.4ZM307.078 135.4H310.078V138.4H307.078V135.4ZM303.478 135.4H306.478V138.4H303.478V135.4ZM303.478 139H306.478V142H303.478V139ZM299.878 135.4H302.878V138.4H299.878V135.4ZM296.278 135.4H299.278V138.4H296.278V135.4ZM303.478 142.6H306.478V145.6H303.478V142.6ZM303.478 146.2H306.478V149.2H303.478V146.2ZM303.478 149.8H306.478V152.8H303.478V149.8ZM303.478 153.4H306.478V156.4H303.478V153.4ZM303.478 157H306.478V160H303.478V157ZM332.27 135.4H335.27V138.4H332.27V135.4ZM328.67 135.4H331.67V138.4H328.67V135.4ZM325.07 135.4H328.07V138.4H325.07V135.4ZM321.47 135.4H324.47V138.4H321.47V135.4ZM317.87 135.4H320.87V138.4H317.87V135.4ZM317.87 139H320.87V142H317.87V139ZM332.27 157H335.27V160H332.27V157ZM328.67 146.2H331.67V149.2H328.67V146.2ZM328.67 157H331.67V160H328.67V157ZM325.07 146.2H328.07V149.2H325.07V146.2ZM325.07 157H328.07V160H325.07V157ZM321.47 146.2H324.47V149.2H321.47V146.2ZM321.47 157H324.47V160H321.47V157ZM317.87 142.6H320.87V145.6H317.87V142.6ZM317.87 146.2H320.87V149.2H317.87V146.2ZM317.87 149.8H320.87V152.8H317.87V149.8ZM317.87 153.4H320.87V156.4H317.87V153.4ZM317.87 157H320.87V160H317.87V157ZM353.862 139H356.862V142H353.862V139ZM350.262 135.4H353.262V138.4H350.262V135.4ZM346.662 135.4H349.662V138.4H346.662V135.4ZM343.062 135.4H346.062V138.4H343.062V135.4ZM339.462 139H342.462V142H339.462V139ZM353.862 153.4H356.862V156.4H353.862V153.4ZM350.262 157H353.262V160H350.262V157ZM346.662 157H349.662V160H346.662V157ZM343.062 157H346.062V160H343.062V157ZM339.462 142.6H342.462V145.6H339.462V142.6ZM339.462 146.2H342.462V149.2H339.462V146.2ZM339.462 149.8H342.462V152.8H339.462V149.8ZM339.462 153.4H342.462V156.4H339.462V153.4ZM361.054 135.4H364.054V138.4H361.054V135.4ZM361.054 139H364.054V142H361.054V139ZM375.454 157H378.454V160H375.454V157ZM371.854 157H374.854V160H371.854V157ZM368.254 157H371.254V160H368.254V157ZM364.654 157H367.654V160H364.654V157ZM361.054 142.6H364.054V145.6H361.054V142.6ZM361.054 146.2H364.054V149.2H361.054V146.2ZM361.054 149.8H364.054V152.8H361.054V149.8ZM361.054 153.4H364.054V156.4H361.054V153.4ZM361.054 157H364.054V160H361.054V157ZM397.046 139H400.046V142H397.046V139ZM393.446 135.4H396.446V138.4H393.446V135.4ZM389.846 135.4H392.846V138.4H389.846V135.4ZM386.246 135.4H389.246V138.4H386.246V135.4ZM382.646 139H385.646V142H382.646V139ZM397.046 142.6H400.046V145.6H397.046V142.6ZM397.046 146.2H400.046V149.2H397.046V146.2ZM397.046 149.8H400.046V152.8H397.046V149.8ZM397.046 153.4H400.046V156.4H397.046V153.4ZM397.046 157H400.046V160H397.046V157ZM393.446 146.2H396.446V149.2H393.446V146.2ZM389.846 146.2H392.846V149.2H389.846V146.2ZM386.246 146.2H389.246V149.2H386.246V146.2ZM382.646 142.6H385.646V145.6H382.646V142.6ZM382.646 146.2H385.646V149.2H382.646V146.2ZM382.646 149.8H385.646V152.8H382.646V149.8ZM382.646 153.4H385.646V156.4H382.646V153.4ZM382.646 157H385.646V160H382.646V157ZM93.8463 172H96.8463V175H93.8463V172ZM90.2463 168.4H93.2463V171.4H90.2463V168.4ZM86.6463 168.4H89.6463V171.4H86.6463V168.4ZM83.0463 168.4H86.0463V171.4H83.0463V168.4ZM79.4463 168.4H82.4463V171.4H79.4463V168.4ZM79.4463 172H82.4463V175H79.4463V172ZM93.8463 175.6H96.8463V178.6H93.8463V175.6ZM90.2463 179.2H93.2463V182.2H90.2463V179.2ZM86.6463 179.2H89.6463V182.2H86.6463V179.2ZM83.0463 179.2H86.0463V182.2H83.0463V179.2ZM79.4463 175.6H82.4463V178.6H79.4463V175.6ZM79.4463 179.2H82.4463V182.2H79.4463V179.2ZM79.4463 182.8H82.4463V185.8H79.4463V182.8ZM79.4463 186.4H82.4463V189.4H79.4463V186.4ZM79.4463 190H82.4463V193H79.4463V190ZM115.438 172H118.438V175H115.438V172ZM111.838 168.4H114.838V171.4H111.838V168.4ZM108.238 168.4H111.238V171.4H108.238V168.4ZM104.638 168.4H107.638V171.4H104.638V168.4ZM101.038 172H104.038V175H101.038V172ZM115.438 175.6H118.438V178.6H115.438V175.6ZM115.438 179.2H118.438V182.2H115.438V179.2ZM115.438 182.8H118.438V185.8H115.438V182.8ZM115.438 186.4H118.438V189.4H115.438V186.4ZM115.438 190H118.438V193H115.438V190ZM111.838 179.2H114.838V182.2H111.838V179.2ZM108.238 179.2H111.238V182.2H108.238V179.2ZM104.638 179.2H107.638V182.2H104.638V179.2ZM101.038 175.6H104.038V178.6H101.038V175.6ZM101.038 179.2H104.038V182.2H101.038V179.2ZM101.038 182.8H104.038V185.8H101.038V182.8ZM101.038 186.4H104.038V189.4H101.038V186.4ZM101.038 190H104.038V193H101.038V190ZM137.03 172H140.03V175H137.03V172ZM133.43 168.4H136.43V171.4H133.43V168.4ZM129.83 168.4H132.83V171.4H129.83V168.4ZM126.23 168.4H129.23V171.4H126.23V168.4ZM122.63 168.4H125.63V171.4H122.63V168.4ZM122.63 172H125.63V175H122.63V172ZM137.03 175.6H140.03V178.6H137.03V175.6ZM137.03 190H140.03V193H137.03V190ZM133.43 179.2H136.43V182.2H133.43V179.2ZM133.43 186.4H136.43V189.4H133.43V186.4ZM129.83 179.2H132.83V182.2H129.83V179.2ZM129.83 182.8H132.83V185.8H129.83V182.8ZM126.23 179.2H129.23V182.2H126.23V179.2ZM122.63 175.6H125.63V178.6H122.63V175.6ZM122.63 179.2H125.63V182.2H122.63V179.2ZM122.63 182.8H125.63V185.8H122.63V182.8ZM122.63 186.4H125.63V189.4H122.63V186.4ZM122.63 190H125.63V193H122.63V190ZM158.622 172H161.622V175H158.622V172ZM155.022 168.4H158.022V171.4H155.022V168.4ZM151.422 168.4H154.422V171.4H151.422V168.4ZM147.822 168.4H150.822V171.4H147.822V168.4ZM144.222 172H147.222V175H144.222V172ZM158.622 175.6H161.622V178.6H158.622V175.6ZM158.622 179.2H161.622V182.2H158.622V179.2ZM158.622 182.8H161.622V185.8H158.622V182.8ZM158.622 186.4H161.622V189.4H158.622V186.4ZM158.622 190H161.622V193H158.622V190ZM155.022 179.2H158.022V182.2H155.022V179.2ZM151.422 179.2H154.422V182.2H151.422V179.2ZM147.822 179.2H150.822V182.2H147.822V179.2ZM144.222 175.6H147.222V178.6H144.222V175.6ZM144.222 179.2H147.222V182.2H144.222V179.2ZM144.222 182.8H147.222V185.8H144.222V182.8ZM144.222 186.4H147.222V189.4H144.222V186.4ZM144.222 190H147.222V193H144.222V190ZM192.805 172H195.805V175H192.805V172ZM189.205 168.4H192.205V171.4H189.205V168.4ZM185.605 168.4H188.605V171.4H185.605V168.4ZM182.005 168.4H185.005V171.4H182.005V168.4ZM178.405 172H181.405V175H178.405V172ZM192.805 186.4H195.805V189.4H192.805V186.4ZM189.205 190H192.205V193H189.205V190ZM185.605 190H188.605V193H185.605V190ZM182.005 190H185.005V193H182.005V190ZM178.405 175.6H181.405V178.6H178.405V175.6ZM178.405 179.2H181.405V182.2H178.405V179.2ZM178.405 182.8H181.405V185.8H178.405V182.8ZM178.405 186.4H181.405V189.4H178.405V186.4ZM214.397 172H217.397V175H214.397V172ZM210.797 168.4H213.797V171.4H210.797V168.4ZM207.197 168.4H210.197V171.4H207.197V168.4ZM203.597 168.4H206.597V171.4H203.597V168.4ZM199.997 172H202.997V175H199.997V172ZM214.397 175.6H217.397V178.6H214.397V175.6ZM214.397 179.2H217.397V182.2H214.397V179.2ZM214.397 182.8H217.397V185.8H214.397V182.8ZM214.397 186.4H217.397V189.4H214.397V186.4ZM210.797 190H213.797V193H210.797V190ZM207.197 190H210.197V193H207.197V190ZM203.597 190H206.597V193H203.597V190ZM199.997 175.6H202.997V178.6H199.997V175.6ZM199.997 179.2H202.997V182.2H199.997V179.2ZM199.997 182.8H202.997V185.8H199.997V182.8ZM199.997 186.4H202.997V189.4H199.997V186.4ZM235.989 168.4H238.989V171.4H235.989V168.4ZM235.989 172H238.989V175H235.989V172ZM221.589 168.4H224.589V171.4H221.589V168.4ZM221.589 172H224.589V175H221.589V172ZM235.989 175.6H238.989V178.6H235.989V175.6ZM235.989 179.2H238.989V182.2H235.989V179.2ZM235.989 182.8H238.989V185.8H235.989V182.8ZM235.989 186.4H238.989V189.4H235.989V186.4ZM235.989 190H238.989V193H235.989V190ZM232.389 182.8H235.389V185.8H232.389V182.8ZM228.789 179.2H231.789V182.2H228.789V179.2ZM225.189 175.6H228.189V178.6H225.189V175.6ZM221.589 175.6H224.589V178.6H221.589V175.6ZM221.589 179.2H224.589V182.2H221.589V179.2ZM221.589 182.8H224.589V185.8H221.589V182.8ZM221.589 186.4H224.589V189.4H221.589V186.4ZM221.589 190H224.589V193H221.589V190ZM257.581 168.4H260.581V171.4H257.581V168.4ZM253.981 168.4H256.981V171.4H253.981V168.4ZM250.381 168.4H253.381V171.4H250.381V168.4ZM250.381 172H253.381V175H250.381V172ZM246.781 168.4H249.781V171.4H246.781V168.4ZM243.181 168.4H246.181V171.4H243.181V168.4ZM250.381 175.6H253.381V178.6H250.381V175.6ZM250.381 179.2H253.381V182.2H250.381V179.2ZM250.381 182.8H253.381V185.8H250.381V182.8ZM250.381 186.4H253.381V189.4H250.381V186.4ZM250.381 190H253.381V193H250.381V190ZM271.972 168.4H274.972V171.4H271.972V168.4ZM268.372 168.4H271.372V171.4H268.372V168.4ZM268.372 172H271.372V175H268.372V172ZM264.772 168.4H267.772V171.4H264.772V168.4ZM271.972 190H274.972V193H271.972V190ZM268.372 175.6H271.372V178.6H268.372V175.6ZM268.372 179.2H271.372V182.2H268.372V179.2ZM268.372 182.8H271.372V185.8H268.372V182.8ZM268.372 186.4H271.372V189.4H268.372V186.4ZM268.372 190H271.372V193H268.372V190ZM264.772 190H267.772V193H264.772V190ZM293.587 168.4H296.587V171.4H293.587V168.4ZM293.587 172H296.587V175H293.587V172ZM279.187 168.4H282.187V171.4H279.187V168.4ZM279.187 172H282.187V175H279.187V172ZM293.587 175.6H296.587V178.6H293.587V175.6ZM293.587 179.2H296.587V182.2H293.587V179.2ZM293.587 182.8H296.587V185.8H293.587V182.8ZM293.587 186.4H296.587V189.4H293.587V186.4ZM293.587 190H296.587V193H293.587V190ZM289.987 182.8H292.987V185.8H289.987V182.8ZM286.387 179.2H289.387V182.2H286.387V179.2ZM282.787 175.6H285.787V178.6H282.787V175.6ZM279.187 175.6H282.187V178.6H279.187V175.6ZM279.187 179.2H282.187V182.2H279.187V179.2ZM279.187 182.8H282.187V185.8H279.187V182.8ZM279.187 186.4H282.187V189.4H279.187V186.4ZM279.187 190H282.187V193H279.187V190ZM315.178 168.4H318.178V171.4H315.178V168.4ZM315.178 172H318.178V175H315.178V172ZM300.778 168.4H303.778V171.4H300.778V168.4ZM300.778 172H303.778V175H300.778V172ZM315.178 175.6H318.178V178.6H315.178V175.6ZM315.178 179.2H318.178V182.2H315.178V179.2ZM315.178 182.8H318.178V185.8H315.178V182.8ZM315.178 186.4H318.178V189.4H315.178V186.4ZM311.578 190H314.578V193H311.578V190ZM307.978 190H310.978V193H307.978V190ZM304.378 190H307.378V193H304.378V190ZM300.778 175.6H303.778V178.6H300.778V175.6ZM300.778 179.2H303.778V182.2H300.778V179.2ZM300.778 182.8H303.778V185.8H300.778V182.8ZM300.778 186.4H303.778V189.4H300.778V186.4ZM336.77 172H339.77V175H336.77V172ZM333.17 168.4H336.17V171.4H333.17V168.4ZM329.57 168.4H332.57V171.4H329.57V168.4ZM325.97 168.4H328.97V171.4H325.97V168.4ZM322.37 172H325.37V175H322.37V172ZM336.77 175.6H339.77V178.6H336.77V175.6ZM336.77 179.2H339.77V182.2H336.77V179.2ZM336.77 182.8H339.77V185.8H336.77V182.8ZM336.77 186.4H339.77V189.4H336.77V186.4ZM336.77 190H339.77V193H336.77V190ZM333.17 179.2H336.17V182.2H333.17V179.2ZM329.57 179.2H332.57V182.2H329.57V179.2ZM325.97 179.2H328.97V182.2H325.97V179.2ZM322.37 175.6H325.37V178.6H322.37V175.6ZM322.37 179.2H325.37V182.2H322.37V179.2ZM322.37 182.8H325.37V185.8H322.37V182.8ZM322.37 186.4H325.37V189.4H322.37V186.4ZM322.37 190H325.37V193H322.37V190ZM358.362 172H361.362V175H358.362V172ZM354.762 168.4H357.762V171.4H354.762V168.4ZM351.162 168.4H354.162V171.4H351.162V168.4ZM347.562 168.4H350.562V171.4H347.562V168.4ZM343.962 168.4H346.962V171.4H343.962V168.4ZM343.962 172H346.962V175H343.962V172ZM358.362 175.6H361.362V178.6H358.362V175.6ZM358.362 190H361.362V193H358.362V190ZM354.762 179.2H357.762V182.2H354.762V179.2ZM354.762 186.4H357.762V189.4H354.762V186.4ZM351.162 179.2H354.162V182.2H351.162V179.2ZM351.162 182.8H354.162V185.8H351.162V182.8ZM347.562 179.2H350.562V182.2H347.562V179.2ZM343.962 175.6H346.962V178.6H343.962V175.6ZM343.962 179.2H346.962V182.2H343.962V179.2ZM343.962 182.8H346.962V185.8H343.962V182.8ZM343.962 186.4H346.962V189.4H343.962V186.4ZM343.962 190H346.962V193H343.962V190Z" fill="#5B65C2"/>
</g>
<defs>
<clipPath id="clip0">
<rect width="452" height="280" fill="white"/>
</clipPath>
</defs>
</svg>
