<svg width="452" height="280" viewBox="0 0 452 280" fill="none" xmlns="http://www.w3.org/2000/svg">
<rect width="452" height="280" fill="white"/>
<rect width="452" height="47" fill="#5B65C2"/>
<path d="M29.1709 114.4H26.1709V111.4H29.1709V114.4ZM32.7709 118H29.7709V115H32.7709V118ZM36.3709 118H33.3709V115H36.3709V118ZM39.9709 118H36.9709V115H39.9709V118ZM43.5709 114.4H40.5709V111.4H43.5709V114.4ZM29.1709 110.8H26.1709V107.8H29.1709V110.8ZM32.7709 107.2H29.7709V104.2H32.7709V107.2ZM36.3709 103.6H33.3709V100.6H36.3709V103.6ZM36.3709 96.4H33.3709V93.4H36.3709V96.4ZM62.1627 97H65.1627V100H62.1627V97ZM58.5627 93.4H61.5627V96.4H58.5627V93.4ZM54.9627 93.4H57.9627V96.4H54.9627V93.4ZM51.3627 93.4H54.3627V96.4H51.3627V93.4ZM47.7627 93.4H50.7627V96.4H47.7627V93.4ZM47.7627 97H50.7627V100H47.7627V97ZM62.1627 100.6H65.1627V103.6H62.1627V100.6ZM58.5627 104.2H61.5627V107.2H58.5627V104.2ZM54.9627 104.2H57.9627V107.2H54.9627V104.2ZM51.3627 104.2H54.3627V107.2H51.3627V104.2ZM47.7627 100.6H50.7627V103.6H47.7627V100.6ZM47.7627 104.2H50.7627V107.2H47.7627V104.2ZM47.7627 107.8H50.7627V110.8H47.7627V107.8ZM47.7627 111.4H50.7627V114.4H47.7627V111.4ZM47.7627 115H50.7627V118H47.7627V115ZM83.7545 97H86.7545V100H83.7545V97ZM80.1545 93.4H83.1545V96.4H80.1545V93.4ZM76.5545 93.4H79.5545V96.4H76.5545V93.4ZM72.9545 93.4H75.9545V96.4H72.9545V93.4ZM69.3545 97H72.3545V100H69.3545V97ZM83.7545 100.6H86.7545V103.6H83.7545V100.6ZM83.7545 104.2H86.7545V107.2H83.7545V104.2ZM83.7545 107.8H86.7545V110.8H83.7545V107.8ZM83.7545 111.4H86.7545V114.4H83.7545V111.4ZM83.7545 115H86.7545V118H83.7545V115ZM80.1545 104.2H83.1545V107.2H80.1545V104.2ZM76.5545 104.2H79.5545V107.2H76.5545V104.2ZM72.9545 104.2H75.9545V107.2H72.9545V104.2ZM69.3545 100.6H72.3545V103.6H69.3545V100.6ZM69.3545 104.2H72.3545V107.2H69.3545V104.2ZM69.3545 107.8H72.3545V110.8H69.3545V107.8ZM69.3545 111.4H72.3545V114.4H69.3545V111.4ZM69.3545 115H72.3545V118H69.3545V115ZM105.346 97H108.346V100H105.346V97ZM101.746 93.4H104.746V96.4H101.746V93.4ZM98.1463 93.4H101.146V96.4H98.1463V93.4ZM94.5463 93.4H97.5463V96.4H94.5463V93.4ZM90.9463 97H93.9463V100H90.9463V97ZM105.346 107.8H108.346V110.8H105.346V107.8ZM105.346 111.4H108.346V114.4H105.346V111.4ZM101.746 107.8H104.746V110.8H101.746V107.8ZM101.746 115H104.746V118H101.746V115ZM98.1463 115H101.146V118H98.1463V115ZM94.5463 115H97.5463V118H94.5463V115ZM90.9463 100.6H93.9463V103.6H90.9463V100.6ZM90.9463 104.2H93.9463V107.2H90.9463V104.2ZM90.9463 107.8H93.9463V110.8H90.9463V107.8ZM90.9463 111.4H93.9463V114.4H90.9463V111.4ZM126.938 97H129.938V100H126.938V97ZM123.338 93.4H126.338V96.4H123.338V93.4ZM119.738 93.4H122.738V96.4H119.738V93.4ZM116.138 93.4H119.138V96.4H116.138V93.4ZM112.538 97H115.538V100H112.538V97ZM126.938 100.6H129.938V103.6H126.938V100.6ZM126.938 104.2H129.938V107.2H126.938V104.2ZM126.938 107.8H129.938V110.8H126.938V107.8ZM126.938 111.4H129.938V114.4H126.938V111.4ZM123.338 115H126.338V118H123.338V115ZM119.738 115H122.738V118H119.738V115ZM116.138 115H119.138V118H116.138V115ZM112.538 100.6H115.538V103.6H112.538V100.6ZM112.538 104.2H115.538V107.2H112.538V104.2ZM112.538 107.8H115.538V110.8H112.538V107.8ZM112.538 111.4H115.538V114.4H112.538V111.4ZM161.122 97H164.122V100H161.122V97ZM157.522 93.4H160.522V96.4H157.522V93.4ZM153.922 93.4H156.922V96.4H153.922V93.4ZM150.322 93.4H153.322V96.4H150.322V93.4ZM146.722 97H149.722V100H146.722V97ZM161.122 100.6H164.122V103.6H161.122V100.6ZM161.122 115H164.122V118H161.122V115ZM157.522 104.2H160.522V107.2H157.522V104.2ZM157.522 115H160.522V118H157.522V115ZM153.922 107.8H156.922V110.8H153.922V107.8ZM153.922 115H156.922V118H153.922V115ZM150.322 111.4H153.322V114.4H150.322V111.4ZM150.322 115H153.322V118H150.322V115ZM146.722 115H149.722V118H146.722V115ZM182.713 97H185.713V100H182.713V97ZM179.113 100.6H182.113V103.6H179.113V100.6ZM175.513 104.2H178.513V107.2H175.513V104.2ZM171.913 107.8H174.913V110.8H171.913V107.8ZM168.313 111.4H171.313V114.4H168.313V111.4ZM204.305 93.4H207.305V96.4H204.305V93.4ZM200.705 93.4H203.705V96.4H200.705V93.4ZM197.105 93.4H200.105V96.4H197.105V93.4ZM193.505 93.4H196.505V96.4H193.505V93.4ZM189.905 93.4H192.905V96.4H189.905V93.4ZM189.905 97H192.905V100H189.905V97ZM204.305 104.2H207.305V107.2H204.305V104.2ZM204.305 107.8H207.305V110.8H204.305V107.8ZM204.305 111.4H207.305V114.4H204.305V111.4ZM200.705 100.6H203.705V103.6H200.705V100.6ZM200.705 115H203.705V118H200.705V115ZM197.105 100.6H200.105V103.6H197.105V100.6ZM197.105 115H200.105V118H197.105V115ZM193.505 100.6H196.505V103.6H193.505V100.6ZM193.505 115H196.505V118H193.505V115ZM189.905 100.6H192.905V103.6H189.905V100.6ZM189.905 111.4H192.905V114.4H189.905V111.4ZM238.489 93.4H241.489V96.4H238.489V93.4ZM234.889 93.4H237.889V96.4H234.889V93.4ZM231.289 93.4H234.289V96.4H231.289V93.4ZM231.289 97H234.289V100H231.289V97ZM227.689 93.4H230.689V96.4H227.689V93.4ZM224.089 93.4H227.089V96.4H224.089V93.4ZM231.289 100.6H234.289V103.6H231.289V100.6ZM231.289 104.2H234.289V107.2H231.289V104.2ZM231.289 107.8H234.289V110.8H231.289V107.8ZM231.289 111.4H234.289V114.4H231.289V111.4ZM231.289 115H234.289V118H231.289V115ZM260.081 93.4H263.081V96.4H260.081V93.4ZM256.481 93.4H259.481V96.4H256.481V93.4ZM252.881 93.4H255.881V96.4H252.881V93.4ZM249.281 93.4H252.281V96.4H249.281V93.4ZM245.681 93.4H248.681V96.4H245.681V93.4ZM245.681 97H248.681V100H245.681V97ZM260.081 115H263.081V118H260.081V115ZM256.481 104.2H259.481V107.2H256.481V104.2ZM256.481 115H259.481V118H256.481V115ZM252.881 104.2H255.881V107.2H252.881V104.2ZM252.881 115H255.881V118H252.881V115ZM249.281 104.2H252.281V107.2H249.281V104.2ZM249.281 115H252.281V118H249.281V115ZM245.681 100.6H248.681V103.6H245.681V100.6ZM245.681 104.2H248.681V107.2H245.681V104.2ZM245.681 107.8H248.681V110.8H245.681V107.8ZM245.681 111.4H248.681V114.4H245.681V111.4ZM245.681 115H248.681V118H245.681V115ZM281.672 97H284.672V100H281.672V97ZM278.072 93.4H281.072V96.4H278.072V93.4ZM274.472 93.4H277.472V96.4H274.472V93.4ZM270.872 93.4H273.872V96.4H270.872V93.4ZM267.272 93.4H270.272V96.4H267.272V93.4ZM267.272 97H270.272V100H267.272V97ZM281.672 100.6H284.672V103.6H281.672V100.6ZM281.672 115H284.672V118H281.672V115ZM278.072 104.2H281.072V107.2H278.072V104.2ZM278.072 111.4H281.072V114.4H278.072V111.4ZM274.472 104.2H277.472V107.2H274.472V104.2ZM274.472 107.8H277.472V110.8H274.472V107.8ZM270.872 104.2H273.872V107.2H270.872V104.2ZM267.272 100.6H270.272V103.6H267.272V100.6ZM267.272 104.2H270.272V107.2H267.272V104.2ZM267.272 107.8H270.272V110.8H267.272V107.8ZM267.272 111.4H270.272V114.4H267.272V111.4ZM267.272 115H270.272V118H267.272V115ZM303.264 93.4H306.264V96.4H303.264V93.4ZM303.264 97H306.264V100H303.264V97ZM299.664 97H302.664V100H299.664V97ZM292.464 97H295.464V100H292.464V97ZM288.864 93.4H291.864V96.4H288.864V93.4ZM288.864 97H291.864V100H288.864V97ZM303.264 100.6H306.264V103.6H303.264V100.6ZM303.264 104.2H306.264V107.2H303.264V104.2ZM303.264 107.8H306.264V110.8H303.264V107.8ZM303.264 111.4H306.264V114.4H303.264V111.4ZM303.264 115H306.264V118H303.264V115ZM296.064 100.6H299.064V103.6H296.064V100.6ZM296.064 104.2H299.064V107.2H296.064V104.2ZM288.864 100.6H291.864V103.6H288.864V100.6ZM288.864 104.2H291.864V107.2H288.864V104.2ZM288.864 107.8H291.864V110.8H288.864V107.8ZM288.864 111.4H291.864V114.4H288.864V111.4ZM288.864 115H291.864V118H288.864V115ZM317.656 93.4H320.656V96.4H317.656V93.4ZM314.056 93.4H317.056V96.4H314.056V93.4ZM314.056 97H317.056V100H314.056V97ZM310.456 93.4H313.456V96.4H310.456V93.4ZM317.656 115H320.656V118H317.656V115ZM314.056 100.6H317.056V103.6H314.056V100.6ZM314.056 104.2H317.056V107.2H314.056V104.2ZM314.056 107.8H317.056V110.8H314.056V107.8ZM314.056 111.4H317.056V114.4H314.056V111.4ZM314.056 115H317.056V118H314.056V115ZM310.456 115H313.456V118H310.456V115ZM339.27 93.4H342.27V96.4H339.27V93.4ZM339.27 97H342.27V100H339.27V97ZM324.87 93.4H327.87V96.4H324.87V93.4ZM324.87 97H327.87V100H324.87V97ZM339.27 100.6H342.27V103.6H339.27V100.6ZM339.27 104.2H342.27V107.2H339.27V104.2ZM339.27 107.8H342.27V110.8H339.27V107.8ZM339.27 111.4H342.27V114.4H339.27V111.4ZM339.27 115H342.27V118H339.27V115ZM335.67 107.8H338.67V110.8H335.67V107.8ZM332.07 104.2H335.07V107.2H332.07V104.2ZM328.47 100.6H331.47V103.6H328.47V100.6ZM324.87 100.6H327.87V103.6H324.87V100.6ZM324.87 104.2H327.87V107.2H324.87V104.2ZM324.87 107.8H327.87V110.8H324.87V107.8ZM324.87 111.4H327.87V114.4H324.87V111.4ZM324.87 115H327.87V118H324.87V115ZM360.862 97H363.862V100H360.862V97ZM357.262 93.4H360.262V96.4H357.262V93.4ZM353.662 93.4H356.662V96.4H353.662V93.4ZM350.062 93.4H353.062V96.4H350.062V93.4ZM346.462 97H349.462V100H346.462V97ZM360.862 100.6H363.862V103.6H360.862V100.6ZM360.862 104.2H363.862V107.2H360.862V104.2ZM360.862 107.8H363.862V110.8H360.862V107.8ZM360.862 111.4H363.862V114.4H360.862V111.4ZM360.862 115H363.862V118H360.862V115ZM357.262 104.2H360.262V107.2H357.262V104.2ZM353.662 104.2H356.662V107.2H353.662V104.2ZM350.062 104.2H353.062V107.2H350.062V104.2ZM346.462 100.6H349.462V103.6H346.462V100.6ZM346.462 104.2H349.462V107.2H346.462V104.2ZM346.462 107.8H349.462V110.8H346.462V107.8ZM346.462 111.4H349.462V114.4H346.462V111.4ZM346.462 115H349.462V118H346.462V115ZM382.454 97H385.454V100H382.454V97ZM378.854 93.4H381.854V96.4H378.854V93.4ZM375.254 93.4H378.254V96.4H375.254V93.4ZM371.654 93.4H374.654V96.4H371.654V93.4ZM368.054 93.4H371.054V96.4H368.054V93.4ZM368.054 97H371.054V100H368.054V97ZM382.454 100.6H385.454V103.6H382.454V100.6ZM382.454 104.2H385.454V107.2H382.454V104.2ZM382.454 107.8H385.454V110.8H382.454V107.8ZM382.454 111.4H385.454V114.4H382.454V111.4ZM378.854 115H381.854V118H378.854V115ZM375.254 115H378.254V118H375.254V115ZM371.654 115H374.654V118H371.654V115ZM368.054 100.6H371.054V103.6H368.054V100.6ZM368.054 104.2H371.054V107.2H368.054V104.2ZM368.054 107.8H371.054V110.8H368.054V107.8ZM368.054 111.4H371.054V114.4H368.054V111.4ZM368.054 115H371.054V118H368.054V115ZM404.046 97H407.046V100H404.046V97ZM400.446 93.4H403.446V96.4H400.446V93.4ZM396.846 93.4H399.846V96.4H396.846V93.4ZM393.246 93.4H396.246V96.4H393.246V93.4ZM389.646 97H392.646V100H389.646V97ZM404.046 100.6H407.046V103.6H404.046V100.6ZM404.046 104.2H407.046V107.2H404.046V104.2ZM404.046 107.8H407.046V110.8H404.046V107.8ZM404.046 111.4H407.046V114.4H404.046V111.4ZM400.446 115H403.446V118H400.446V115ZM396.846 115H399.846V118H396.846V115ZM393.246 115H396.246V118H393.246V115ZM389.646 100.6H392.646V103.6H389.646V100.6ZM389.646 104.2H392.646V107.2H389.646V104.2ZM389.646 107.8H392.646V110.8H389.646V107.8ZM389.646 111.4H392.646V114.4H389.646V111.4ZM425.637 97H428.637V100H425.637V97ZM422.037 93.4H425.037V96.4H422.037V93.4ZM418.437 93.4H421.437V96.4H418.437V93.4ZM414.837 93.4H417.837V96.4H414.837V93.4ZM411.237 97H414.237V100H411.237V97ZM425.637 100.6H428.637V103.6H425.637V100.6ZM422.037 104.2H425.037V107.2H422.037V104.2ZM418.437 107.8H421.437V110.8H418.437V107.8ZM418.437 115H421.437V118H418.437V115Z" fill="#5B65C2"/>
<path d="M29.4959 222.4H32.4959V225.4H29.4959V222.4ZM29.4959 226H32.4959V229H29.4959V226ZM25.8959 226H28.8959V229H25.8959V226ZM36.6959 244H39.6959V247H36.6959V244ZM33.0959 244H36.0959V247H33.0959V244ZM29.4959 229.6H32.4959V232.6H29.4959V229.6ZM29.4959 233.2H32.4959V236.2H29.4959V233.2ZM29.4959 236.8H32.4959V239.8H29.4959V236.8ZM29.4959 240.4H32.4959V243.4H29.4959V240.4ZM29.4959 244H32.4959V247H29.4959V244ZM25.8959 244H28.8959V247H25.8959V244ZM22.2959 229.6H25.2959V232.6H22.2959V229.6ZM22.2959 244H25.2959V247H22.2959V244ZM47.4877 240.4H50.4877V243.4H47.4877V240.4ZM47.4877 244H50.4877V247H47.4877V244ZM43.8877 240.4H46.8877V243.4H43.8877V240.4ZM43.8877 244H46.8877V247H43.8877V244ZM69.0982 226H72.0982V229H69.0982V226ZM65.4982 222.4H68.4982V225.4H65.4982V222.4ZM61.8982 222.4H64.8982V225.4H61.8982V222.4ZM58.2982 222.4H61.2982V225.4H58.2982V222.4ZM54.6982 226H57.6982V229H54.6982V226ZM69.0982 236.8H72.0982V239.8H69.0982V236.8ZM69.0982 240.4H72.0982V243.4H69.0982V240.4ZM65.4982 233.2H68.4982V236.2H65.4982V233.2ZM65.4982 244H68.4982V247H65.4982V244ZM61.8982 233.2H64.8982V236.2H61.8982V233.2ZM61.8982 244H64.8982V247H61.8982V244ZM58.2982 233.2H61.2982V236.2H58.2982V233.2ZM58.2982 244H61.2982V247H58.2982V244ZM54.6982 229.6H57.6982V232.6H54.6982V229.6ZM54.6982 240.4H57.6982V243.4H54.6982V240.4ZM83.49 222.4H86.49V225.4H83.49V222.4ZM79.89 222.4H82.89V225.4H79.89V222.4ZM79.89 226H82.89V229H79.89V226ZM76.29 222.4H79.29V225.4H76.29V222.4ZM83.49 244H86.49V247H83.49V244ZM79.89 229.6H82.89V232.6H79.89V229.6ZM79.89 233.2H82.89V236.2H79.89V233.2ZM79.89 236.8H82.89V239.8H79.89V236.8ZM79.89 240.4H82.89V243.4H79.89V240.4ZM79.89 244H82.89V247H79.89V244ZM76.29 244H79.29V247H76.29V244Z" fill="#5B65C2"/>
<path d="M372.107 226H375.107V229H372.107V226ZM368.507 222.4H371.507V225.4H368.507V222.4ZM364.907 222.4H367.907V225.4H364.907V222.4ZM361.307 222.4H364.307V225.4H361.307V222.4ZM357.707 226H360.707V229H357.707V226ZM372.107 229.6H375.107V232.6H372.107V229.6ZM372.107 244H375.107V247H372.107V244ZM368.507 233.2H371.507V236.2H368.507V233.2ZM368.507 244H371.507V247H368.507V244ZM364.907 236.8H367.907V239.8H364.907V236.8ZM364.907 244H367.907V247H364.907V244ZM361.307 240.4H364.307V243.4H361.307V240.4ZM361.307 244H364.307V247H361.307V244ZM357.707 244H360.707V247H357.707V244ZM382.899 240.4H385.899V243.4H382.899V240.4ZM382.899 244H385.899V247H382.899V244ZM379.299 240.4H382.299V243.4H379.299V240.4ZM379.299 244H382.299V247H379.299V244ZM404.509 222.4H407.509V225.4H404.509V222.4ZM404.509 226H407.509V229H404.509V226ZM390.109 222.4H393.109V225.4H390.109V222.4ZM390.109 226H393.109V229H390.109V226ZM404.509 229.6H407.509V232.6H404.509V229.6ZM404.509 233.2H407.509V236.2H404.509V233.2ZM404.509 236.8H407.509V239.8H404.509V236.8ZM404.509 240.4H407.509V243.4H404.509V240.4ZM404.509 244H407.509V247H404.509V244ZM400.909 236.8H403.909V239.8H400.909V236.8ZM397.309 233.2H400.309V236.2H397.309V233.2ZM393.709 229.6H396.709V232.6H393.709V229.6ZM390.109 229.6H393.109V232.6H390.109V229.6ZM390.109 233.2H393.109V236.2H390.109V233.2ZM390.109 236.8H393.109V239.8H390.109V236.8ZM390.109 240.4H393.109V243.4H390.109V240.4ZM390.109 244H393.109V247H390.109V244ZM426.101 226H429.101V229H426.101V226ZM422.501 222.4H425.501V225.4H422.501V222.4ZM418.901 222.4H421.901V225.4H418.901V222.4ZM415.301 222.4H418.301V225.4H415.301V222.4ZM411.701 226H414.701V229H411.701V226ZM426.101 229.6H429.101V232.6H426.101V229.6ZM426.101 233.2H429.101V236.2H426.101V233.2ZM426.101 236.8H429.101V239.8H426.101V236.8ZM426.101 240.4H429.101V243.4H426.101V240.4ZM422.501 244H425.501V247H422.501V244ZM418.901 244H421.901V247H418.901V244ZM415.301 244H418.301V247H415.301V244ZM411.701 229.6H414.701V232.6H411.701V229.6ZM411.701 233.2H414.701V236.2H411.701V233.2ZM411.701 236.8H414.701V239.8H411.701V236.8ZM411.701 240.4H414.701V243.4H411.701V240.4Z" fill="#5B65C2"/>
<path d="M55.0445 15H58.0445V18H55.0445V15ZM51.4445 11.4H54.4445V14.4H51.4445V11.4ZM47.8445 11.4H50.8445V14.4H47.8445V11.4ZM44.2445 11.4H47.2445V14.4H44.2445V11.4ZM40.6445 15H43.6445V18H40.6445V15ZM55.0445 29.4H58.0445V32.4H55.0445V29.4ZM51.4445 33H54.4445V36H51.4445V33ZM47.8445 33H50.8445V36H47.8445V33ZM44.2445 33H47.2445V36H44.2445V33ZM40.6445 18.6H43.6445V21.6H40.6445V18.6ZM40.6445 22.2H43.6445V25.2H40.6445V22.2ZM40.6445 25.8H43.6445V28.8H40.6445V25.8ZM40.6445 29.4H43.6445V32.4H40.6445V29.4ZM76.6363 11.4H79.6363V14.4H76.6363V11.4ZM76.6363 15H79.6363V18H76.6363V15ZM62.2363 11.4H65.2363V14.4H62.2363V11.4ZM62.2363 15H65.2363V18H62.2363V15ZM76.6363 18.6H79.6363V21.6H76.6363V18.6ZM76.6363 22.2H79.6363V25.2H76.6363V22.2ZM76.6363 25.8H79.6363V28.8H76.6363V25.8ZM76.6363 29.4H79.6363V32.4H76.6363V29.4ZM73.0363 33H76.0363V36H73.0363V33ZM69.4363 33H72.4363V36H69.4363V33ZM65.8363 33H68.8363V36H65.8363V33ZM62.2363 18.6H65.2363V21.6H62.2363V18.6ZM62.2363 22.2H65.2363V25.2H62.2363V22.2ZM62.2363 25.8H65.2363V28.8H62.2363V25.8ZM62.2363 29.4H65.2363V32.4H62.2363V29.4ZM98.2281 11.4H101.228V14.4H98.2281V11.4ZM94.6281 11.4H97.6281V14.4H94.6281V11.4ZM91.0281 11.4H94.0281V14.4H91.0281V11.4ZM87.4281 11.4H90.4281V14.4H87.4281V11.4ZM83.8281 11.4H86.8281V14.4H83.8281V11.4ZM83.8281 15H86.8281V18H83.8281V15ZM98.2281 33H101.228V36H98.2281V33ZM94.6281 22.2H97.6281V25.2H94.6281V22.2ZM94.6281 33H97.6281V36H94.6281V33ZM91.0281 22.2H94.0281V25.2H91.0281V22.2ZM91.0281 33H94.0281V36H91.0281V33ZM87.4281 22.2H90.4281V25.2H87.4281V22.2ZM87.4281 33H90.4281V36H87.4281V33ZM83.8281 18.6H86.8281V21.6H83.8281V18.6ZM83.8281 22.2H86.8281V25.2H83.8281V22.2ZM83.8281 25.8H86.8281V28.8H83.8281V25.8ZM83.8281 29.4H86.8281V32.4H83.8281V29.4ZM83.8281 33H86.8281V36H83.8281V33ZM119.82 11.4H122.82V14.4H119.82V11.4ZM119.82 15H122.82V18H119.82V15ZM105.42 11.4H108.42V14.4H105.42V11.4ZM105.42 15H108.42V18H105.42V15ZM119.82 18.6H122.82V21.6H119.82V18.6ZM119.82 22.2H122.82V25.2H119.82V22.2ZM119.82 25.8H122.82V28.8H119.82V25.8ZM119.82 29.4H122.82V32.4H119.82V29.4ZM119.82 33H122.82V36H119.82V33ZM116.22 25.8H119.22V28.8H116.22V25.8ZM112.62 22.2H115.62V25.2H112.62V22.2ZM109.02 18.6H112.02V21.6H109.02V18.6ZM105.42 18.6H108.42V21.6H105.42V18.6ZM105.42 22.2H108.42V25.2H105.42V22.2ZM105.42 25.8H108.42V28.8H105.42V25.8ZM105.42 29.4H108.42V32.4H105.42V29.4ZM105.42 33H108.42V36H105.42V33ZM141.412 11.4H144.412V14.4H141.412V11.4ZM137.812 11.4H140.812V14.4H137.812V11.4ZM134.212 11.4H137.212V14.4H134.212V11.4ZM134.212 15H137.212V18H134.212V15ZM130.612 11.4H133.612V14.4H130.612V11.4ZM127.012 11.4H130.012V14.4H127.012V11.4ZM134.212 18.6H137.212V21.6H134.212V18.6ZM134.212 22.2H137.212V25.2H134.212V22.2ZM134.212 25.8H137.212V28.8H134.212V25.8ZM134.212 29.4H137.212V32.4H134.212V29.4ZM134.212 33H137.212V36H134.212V33ZM163.004 15H166.004V18H163.004V15ZM159.404 11.4H162.404V14.4H159.404V11.4ZM155.804 11.4H158.804V14.4H155.804V11.4ZM152.204 11.4H155.204V14.4H152.204V11.4ZM148.604 15H151.604V18H148.604V15ZM163.004 18.6H166.004V21.6H163.004V18.6ZM163.004 22.2H166.004V25.2H163.004V22.2ZM163.004 25.8H166.004V28.8H163.004V25.8ZM163.004 29.4H166.004V32.4H163.004V29.4ZM163.004 33H166.004V36H163.004V33ZM159.404 22.2H162.404V25.2H159.404V22.2ZM155.804 22.2H158.804V25.2H155.804V22.2ZM152.204 22.2H155.204V25.2H152.204V22.2ZM148.604 18.6H151.604V21.6H148.604V18.6ZM148.604 22.2H151.604V25.2H148.604V22.2ZM148.604 25.8H151.604V28.8H148.604V25.8ZM148.604 29.4H151.604V32.4H148.604V29.4ZM148.604 33H151.604V36H148.604V33ZM197.187 15H200.187V18H197.187V15ZM193.587 11.4H196.587V14.4H193.587V11.4ZM189.987 11.4H192.987V14.4H189.987V11.4ZM186.387 11.4H189.387V14.4H186.387V11.4ZM182.787 11.4H185.787V14.4H182.787V11.4ZM182.787 15H185.787V18H182.787V15ZM197.187 18.6H200.187V21.6H197.187V18.6ZM197.187 22.2H200.187V25.2H197.187V22.2ZM197.187 25.8H200.187V28.8H197.187V25.8ZM197.187 29.4H200.187V32.4H197.187V29.4ZM193.587 33H196.587V36H193.587V33ZM189.987 33H192.987V36H189.987V33ZM186.387 33H189.387V36H186.387V33ZM182.787 18.6H185.787V21.6H182.787V18.6ZM182.787 22.2H185.787V25.2H182.787V22.2ZM182.787 25.8H185.787V28.8H182.787V25.8ZM182.787 29.4H185.787V32.4H182.787V29.4ZM182.787 33H185.787V36H182.787V33ZM211.579 11.4H214.579V14.4H211.579V11.4ZM207.979 11.4H210.979V14.4H207.979V11.4ZM207.979 15H210.979V18H207.979V15ZM204.379 11.4H207.379V14.4H204.379V11.4ZM211.579 33H214.579V36H211.579V33ZM207.979 18.6H210.979V21.6H207.979V18.6ZM207.979 22.2H210.979V25.2H207.979V22.2ZM207.979 25.8H210.979V28.8H207.979V25.8ZM207.979 29.4H210.979V32.4H207.979V29.4ZM207.979 33H210.979V36H207.979V33ZM204.379 33H207.379V36H204.379V33ZM233.193 11.4H236.193V14.4H233.193V11.4ZM233.193 15H236.193V18H233.193V15ZM218.793 11.4H221.793V14.4H218.793V11.4ZM218.793 15H221.793V18H218.793V15ZM233.193 18.6H236.193V21.6H233.193V18.6ZM233.193 22.2H236.193V25.2H233.193V22.2ZM233.193 25.8H236.193V28.8H233.193V25.8ZM229.593 29.4H232.593V32.4H229.593V29.4ZM225.993 33H228.993V36H225.993V33ZM222.393 29.4H225.393V32.4H222.393V29.4ZM218.793 18.6H221.793V21.6H218.793V18.6ZM218.793 22.2H221.793V25.2H218.793V22.2ZM218.793 25.8H221.793V28.8H218.793V25.8ZM247.585 11.4H250.585V14.4H247.585V11.4ZM243.985 11.4H246.985V14.4H243.985V11.4ZM243.985 15H246.985V18H243.985V15ZM240.385 11.4H243.385V14.4H240.385V11.4ZM247.585 33H250.585V36H247.585V33ZM243.985 18.6H246.985V21.6H243.985V18.6ZM243.985 22.2H246.985V25.2H243.985V22.2ZM243.985 25.8H246.985V28.8H243.985V25.8ZM243.985 29.4H246.985V32.4H243.985V29.4ZM243.985 33H246.985V36H243.985V33ZM240.385 33H243.385V36H240.385V33ZM269.199 15H272.199V18H269.199V15ZM265.599 11.4H268.599V14.4H265.599V11.4ZM261.999 11.4H264.999V14.4H261.999V11.4ZM258.399 11.4H261.399V14.4H258.399V11.4ZM254.799 11.4H257.799V14.4H254.799V11.4ZM254.799 15H257.799V18H254.799V15ZM269.199 18.6H272.199V21.6H269.199V18.6ZM269.199 22.2H272.199V25.2H269.199V22.2ZM269.199 25.8H272.199V28.8H269.199V25.8ZM269.199 29.4H272.199V32.4H269.199V29.4ZM265.599 33H268.599V36H265.599V33ZM261.999 33H264.999V36H261.999V33ZM258.399 33H261.399V36H258.399V33ZM254.799 18.6H257.799V21.6H254.799V18.6ZM254.799 22.2H257.799V25.2H254.799V22.2ZM254.799 25.8H257.799V28.8H254.799V25.8ZM254.799 29.4H257.799V32.4H254.799V29.4ZM254.799 33H257.799V36H254.799V33ZM283.591 11.4H286.591V14.4H283.591V11.4ZM279.991 11.4H282.991V14.4H279.991V11.4ZM279.991 15H282.991V18H279.991V15ZM276.391 11.4H279.391V14.4H276.391V11.4ZM283.591 33H286.591V36H283.591V33ZM279.991 18.6H282.991V21.6H279.991V18.6ZM279.991 22.2H282.991V25.2H279.991V22.2ZM279.991 25.8H282.991V28.8H279.991V25.8ZM279.991 29.4H282.991V32.4H279.991V29.4ZM279.991 33H282.991V36H279.991V33ZM276.391 33H279.391V36H276.391V33ZM305.205 15H308.205V18H305.205V15ZM301.605 11.4H304.605V14.4H301.605V11.4ZM298.005 11.4H301.005V14.4H298.005V11.4ZM294.405 11.4H297.405V14.4H294.405V11.4ZM290.805 11.4H293.805V14.4H290.805V11.4ZM290.805 15H293.805V18H290.805V15ZM305.205 18.6H308.205V21.6H305.205V18.6ZM305.205 22.2H308.205V25.2H305.205V22.2ZM305.205 25.8H308.205V28.8H305.205V25.8ZM305.205 29.4H308.205V32.4H305.205V29.4ZM301.605 33H304.605V36H301.605V33ZM298.005 33H301.005V36H298.005V33ZM294.405 33H297.405V36H294.405V33ZM290.805 18.6H293.805V21.6H290.805V18.6ZM290.805 22.2H293.805V25.2H290.805V22.2ZM290.805 25.8H293.805V28.8H290.805V25.8ZM290.805 29.4H293.805V32.4H290.805V29.4ZM290.805 33H293.805V36H290.805V33ZM326.796 15H329.796V18H326.796V15ZM323.196 11.4H326.196V14.4H323.196V11.4ZM319.596 11.4H322.596V14.4H319.596V11.4ZM315.996 11.4H318.996V14.4H315.996V11.4ZM312.396 15H315.396V18H312.396V15ZM326.796 18.6H329.796V21.6H326.796V18.6ZM326.796 22.2H329.796V25.2H326.796V22.2ZM326.796 25.8H329.796V28.8H326.796V25.8ZM326.796 29.4H329.796V32.4H326.796V29.4ZM326.796 33H329.796V36H326.796V33ZM323.196 22.2H326.196V25.2H323.196V22.2ZM319.596 22.2H322.596V25.2H319.596V22.2ZM315.996 22.2H318.996V25.2H315.996V22.2ZM312.396 18.6H315.396V21.6H312.396V18.6ZM312.396 22.2H315.396V25.2H312.396V22.2ZM312.396 25.8H315.396V28.8H312.396V25.8ZM312.396 29.4H315.396V32.4H312.396V29.4ZM312.396 33H315.396V36H312.396V33ZM360.98 15H363.98V18H360.98V15ZM357.38 11.4H360.38V14.4H357.38V11.4ZM353.78 11.4H356.78V14.4H353.78V11.4ZM350.18 11.4H353.18V14.4H350.18V11.4ZM346.58 15H349.58V18H346.58V15ZM360.98 18.6H363.98V21.6H360.98V18.6ZM360.98 33H363.98V36H360.98V33ZM357.38 22.2H360.38V25.2H357.38V22.2ZM357.38 33H360.38V36H357.38V33ZM353.78 25.8H356.78V28.8H353.78V25.8ZM353.78 33H356.78V36H353.78V33ZM350.18 29.4H353.18V32.4H350.18V29.4ZM350.18 33H353.18V36H350.18V33ZM346.58 33H349.58V36H346.58V33ZM382.572 15H385.572V18H382.572V15ZM378.972 18.6H381.972V21.6H378.972V18.6ZM375.372 22.2H378.372V25.2H375.372V22.2ZM371.772 25.8H374.772V28.8H371.772V25.8ZM368.172 29.4H371.172V32.4H368.172V29.4ZM404.164 11.4H407.164V14.4H404.164V11.4ZM400.564 11.4H403.564V14.4H400.564V11.4ZM396.964 11.4H399.964V14.4H396.964V11.4ZM393.364 11.4H396.364V14.4H393.364V11.4ZM389.764 11.4H392.764V14.4H389.764V11.4ZM389.764 15H392.764V18H389.764V15ZM404.164 22.2H407.164V25.2H404.164V22.2ZM404.164 25.8H407.164V28.8H404.164V25.8ZM404.164 29.4H407.164V32.4H404.164V29.4ZM400.564 18.6H403.564V21.6H400.564V18.6ZM400.564 33H403.564V36H400.564V33ZM396.964 18.6H399.964V21.6H396.964V18.6ZM396.964 33H399.964V36H396.964V33ZM393.364 18.6H396.364V21.6H393.364V18.6ZM393.364 33H396.364V36H393.364V33ZM389.764 18.6H392.764V21.6H389.764V18.6ZM389.764 29.4H392.764V32.4H389.764V29.4Z" fill="white"/>
<rect x="1.5" y="1.5" width="449" height="277" stroke="#5B65C2" stroke-width="3"/>
</svg>
