<svg width="452" height="280" viewBox="0 0 452 280" fill="none" xmlns="http://www.w3.org/2000/svg">
<rect width="452" height="280" fill="white"/>
<rect width="452" height="47" fill="#5B65C2"/>
<path d="M55.0445 15H58.0445V18H55.0445V15ZM51.4445 11.4H54.4445V14.4H51.4445V11.4ZM47.8445 11.4H50.8445V14.4H47.8445V11.4ZM44.2445 11.4H47.2445V14.4H44.2445V11.4ZM40.6445 15H43.6445V18H40.6445V15ZM55.0445 29.4H58.0445V32.4H55.0445V29.4ZM51.4445 33H54.4445V36H51.4445V33ZM47.8445 33H50.8445V36H47.8445V33ZM44.2445 33H47.2445V36H44.2445V33ZM40.6445 18.6H43.6445V21.6H40.6445V18.6ZM40.6445 22.2H43.6445V25.2H40.6445V22.2ZM40.6445 25.8H43.6445V28.8H40.6445V25.8ZM40.6445 29.4H43.6445V32.4H40.6445V29.4ZM76.6363 11.4H79.6363V14.4H76.6363V11.4ZM76.6363 15H79.6363V18H76.6363V15ZM62.2363 11.4H65.2363V14.4H62.2363V11.4ZM62.2363 15H65.2363V18H62.2363V15ZM76.6363 18.6H79.6363V21.6H76.6363V18.6ZM76.6363 22.2H79.6363V25.2H76.6363V22.2ZM76.6363 25.8H79.6363V28.8H76.6363V25.8ZM76.6363 29.4H79.6363V32.4H76.6363V29.4ZM73.0363 33H76.0363V36H73.0363V33ZM69.4363 33H72.4363V36H69.4363V33ZM65.8363 33H68.8363V36H65.8363V33ZM62.2363 18.6H65.2363V21.6H62.2363V18.6ZM62.2363 22.2H65.2363V25.2H62.2363V22.2ZM62.2363 25.8H65.2363V28.8H62.2363V25.8ZM62.2363 29.4H65.2363V32.4H62.2363V29.4ZM98.2281 11.4H101.228V14.4H98.2281V11.4ZM94.6281 11.4H97.6281V14.4H94.6281V11.4ZM91.0281 11.4H94.0281V14.4H91.0281V11.4ZM87.4281 11.4H90.4281V14.4H87.4281V11.4ZM83.8281 11.4H86.8281V14.4H83.8281V11.4ZM83.8281 15H86.8281V18H83.8281V15ZM98.2281 33H101.228V36H98.2281V33ZM94.6281 22.2H97.6281V25.2H94.6281V22.2ZM94.6281 33H97.6281V36H94.6281V33ZM91.0281 22.2H94.0281V25.2H91.0281V22.2ZM91.0281 33H94.0281V36H91.0281V33ZM87.4281 22.2H90.4281V25.2H87.4281V22.2ZM87.4281 33H90.4281V36H87.4281V33ZM83.8281 18.6H86.8281V21.6H83.8281V18.6ZM83.8281 22.2H86.8281V25.2H83.8281V22.2ZM83.8281 25.8H86.8281V28.8H83.8281V25.8ZM83.8281 29.4H86.8281V32.4H83.8281V29.4ZM83.8281 33H86.8281V36H83.8281V33ZM119.82 11.4H122.82V14.4H119.82V11.4ZM119.82 15H122.82V18H119.82V15ZM105.42 11.4H108.42V14.4H105.42V11.4ZM105.42 15H108.42V18H105.42V15ZM119.82 18.6H122.82V21.6H119.82V18.6ZM119.82 22.2H122.82V25.2H119.82V22.2ZM119.82 25.8H122.82V28.8H119.82V25.8ZM119.82 29.4H122.82V32.4H119.82V29.4ZM119.82 33H122.82V36H119.82V33ZM116.22 25.8H119.22V28.8H116.22V25.8ZM112.62 22.2H115.62V25.2H112.62V22.2ZM109.02 18.6H112.02V21.6H109.02V18.6ZM105.42 18.6H108.42V21.6H105.42V18.6ZM105.42 22.2H108.42V25.2H105.42V22.2ZM105.42 25.8H108.42V28.8H105.42V25.8ZM105.42 29.4H108.42V32.4H105.42V29.4ZM105.42 33H108.42V36H105.42V33ZM141.412 11.4H144.412V14.4H141.412V11.4ZM137.812 11.4H140.812V14.4H137.812V11.4ZM134.212 11.4H137.212V14.4H134.212V11.4ZM134.212 15H137.212V18H134.212V15ZM130.612 11.4H133.612V14.4H130.612V11.4ZM127.012 11.4H130.012V14.4H127.012V11.4ZM134.212 18.6H137.212V21.6H134.212V18.6ZM134.212 22.2H137.212V25.2H134.212V22.2ZM134.212 25.8H137.212V28.8H134.212V25.8ZM134.212 29.4H137.212V32.4H134.212V29.4ZM134.212 33H137.212V36H134.212V33ZM163.004 15H166.004V18H163.004V15ZM159.404 11.4H162.404V14.4H159.404V11.4ZM155.804 11.4H158.804V14.4H155.804V11.4ZM152.204 11.4H155.204V14.4H152.204V11.4ZM148.604 15H151.604V18H148.604V15ZM163.004 18.6H166.004V21.6H163.004V18.6ZM163.004 22.2H166.004V25.2H163.004V22.2ZM163.004 25.8H166.004V28.8H163.004V25.8ZM163.004 29.4H166.004V32.4H163.004V29.4ZM163.004 33H166.004V36H163.004V33ZM159.404 22.2H162.404V25.2H159.404V22.2ZM155.804 22.2H158.804V25.2H155.804V22.2ZM152.204 22.2H155.204V25.2H152.204V22.2ZM148.604 18.6H151.604V21.6H148.604V18.6ZM148.604 22.2H151.604V25.2H148.604V22.2ZM148.604 25.8H151.604V28.8H148.604V25.8ZM148.604 29.4H151.604V32.4H148.604V29.4ZM148.604 33H151.604V36H148.604V33ZM206.187 15H209.187V18H206.187V15ZM202.587 11.4H205.587V14.4H202.587V11.4ZM198.987 11.4H201.987V14.4H198.987V11.4ZM195.387 11.4H198.387V14.4H195.387V11.4ZM191.787 11.4H194.787V14.4H191.787V11.4ZM191.787 15H194.787V18H191.787V15ZM206.187 18.6H209.187V21.6H206.187V18.6ZM206.187 22.2H209.187V25.2H206.187V22.2ZM206.187 25.8H209.187V28.8H206.187V25.8ZM206.187 29.4H209.187V32.4H206.187V29.4ZM202.587 33H205.587V36H202.587V33ZM198.987 33H201.987V36H198.987V33ZM195.387 33H198.387V36H195.387V33ZM191.787 18.6H194.787V21.6H191.787V18.6ZM191.787 22.2H194.787V25.2H191.787V22.2ZM191.787 25.8H194.787V28.8H191.787V25.8ZM191.787 29.4H194.787V32.4H191.787V29.4ZM191.787 33H194.787V36H191.787V33ZM220.579 11.4H223.579V14.4H220.579V11.4ZM216.979 11.4H219.979V14.4H216.979V11.4ZM216.979 15H219.979V18H216.979V15ZM213.379 11.4H216.379V14.4H213.379V11.4ZM220.579 33H223.579V36H220.579V33ZM216.979 18.6H219.979V21.6H216.979V18.6ZM216.979 22.2H219.979V25.2H216.979V22.2ZM216.979 25.8H219.979V28.8H216.979V25.8ZM216.979 29.4H219.979V32.4H216.979V29.4ZM216.979 33H219.979V36H216.979V33ZM213.379 33H216.379V36H213.379V33ZM242.193 11.4H245.193V14.4H242.193V11.4ZM242.193 15H245.193V18H242.193V15ZM227.793 11.4H230.793V14.4H227.793V11.4ZM227.793 15H230.793V18H227.793V15ZM242.193 18.6H245.193V21.6H242.193V18.6ZM242.193 22.2H245.193V25.2H242.193V22.2ZM242.193 25.8H245.193V28.8H242.193V25.8ZM238.593 29.4H241.593V32.4H238.593V29.4ZM234.993 33H237.993V36H234.993V33ZM231.393 29.4H234.393V32.4H231.393V29.4ZM227.793 18.6H230.793V21.6H227.793V18.6ZM227.793 22.2H230.793V25.2H227.793V22.2ZM227.793 25.8H230.793V28.8H227.793V25.8ZM256.585 11.4H259.585V14.4H256.585V11.4ZM252.985 11.4H255.985V14.4H252.985V11.4ZM252.985 15H255.985V18H252.985V15ZM249.385 11.4H252.385V14.4H249.385V11.4ZM256.585 33H259.585V36H256.585V33ZM252.985 18.6H255.985V21.6H252.985V18.6ZM252.985 22.2H255.985V25.2H252.985V22.2ZM252.985 25.8H255.985V28.8H252.985V25.8ZM252.985 29.4H255.985V32.4H252.985V29.4ZM252.985 33H255.985V36H252.985V33ZM249.385 33H252.385V36H249.385V33ZM278.199 15H281.199V18H278.199V15ZM274.599 11.4H277.599V14.4H274.599V11.4ZM270.999 11.4H273.999V14.4H270.999V11.4ZM267.399 11.4H270.399V14.4H267.399V11.4ZM263.799 11.4H266.799V14.4H263.799V11.4ZM263.799 15H266.799V18H263.799V15ZM278.199 18.6H281.199V21.6H278.199V18.6ZM278.199 22.2H281.199V25.2H278.199V22.2ZM278.199 25.8H281.199V28.8H278.199V25.8ZM278.199 29.4H281.199V32.4H278.199V29.4ZM274.599 33H277.599V36H274.599V33ZM270.999 33H273.999V36H270.999V33ZM267.399 33H270.399V36H267.399V33ZM263.799 18.6H266.799V21.6H263.799V18.6ZM263.799 22.2H266.799V25.2H263.799V22.2ZM263.799 25.8H266.799V28.8H263.799V25.8ZM263.799 29.4H266.799V32.4H263.799V29.4ZM263.799 33H266.799V36H263.799V33ZM292.591 11.4H295.591V14.4H292.591V11.4ZM288.991 11.4H291.991V14.4H288.991V11.4ZM288.991 15H291.991V18H288.991V15ZM285.391 11.4H288.391V14.4H285.391V11.4ZM292.591 33H295.591V36H292.591V33ZM288.991 18.6H291.991V21.6H288.991V18.6ZM288.991 22.2H291.991V25.2H288.991V22.2ZM288.991 25.8H291.991V28.8H288.991V25.8ZM288.991 29.4H291.991V32.4H288.991V29.4ZM288.991 33H291.991V36H288.991V33ZM285.391 33H288.391V36H285.391V33ZM314.205 15H317.205V18H314.205V15ZM310.605 11.4H313.605V14.4H310.605V11.4ZM307.005 11.4H310.005V14.4H307.005V11.4ZM303.405 11.4H306.405V14.4H303.405V11.4ZM299.805 11.4H302.805V14.4H299.805V11.4ZM299.805 15H302.805V18H299.805V15ZM314.205 18.6H317.205V21.6H314.205V18.6ZM314.205 22.2H317.205V25.2H314.205V22.2ZM314.205 25.8H317.205V28.8H314.205V25.8ZM314.205 29.4H317.205V32.4H314.205V29.4ZM310.605 33H313.605V36H310.605V33ZM307.005 33H310.005V36H307.005V33ZM303.405 33H306.405V36H303.405V33ZM299.805 18.6H302.805V21.6H299.805V18.6ZM299.805 22.2H302.805V25.2H299.805V22.2ZM299.805 25.8H302.805V28.8H299.805V25.8ZM299.805 29.4H302.805V32.4H299.805V29.4ZM299.805 33H302.805V36H299.805V33ZM335.796 15H338.796V18H335.796V15ZM332.196 11.4H335.196V14.4H332.196V11.4ZM328.596 11.4H331.596V14.4H328.596V11.4ZM324.996 11.4H327.996V14.4H324.996V11.4ZM321.396 15H324.396V18H321.396V15ZM335.796 18.6H338.796V21.6H335.796V18.6ZM335.796 22.2H338.796V25.2H335.796V22.2ZM335.796 25.8H338.796V28.8H335.796V25.8ZM335.796 29.4H338.796V32.4H335.796V29.4ZM335.796 33H338.796V36H335.796V33ZM332.196 22.2H335.196V25.2H332.196V22.2ZM328.596 22.2H331.596V25.2H328.596V22.2ZM324.996 22.2H327.996V25.2H324.996V22.2ZM321.396 18.6H324.396V21.6H321.396V18.6ZM321.396 22.2H324.396V25.2H321.396V22.2ZM321.396 25.8H324.396V28.8H321.396V25.8ZM321.396 29.4H324.396V32.4H321.396V29.4ZM321.396 33H324.396V36H321.396V33ZM369.98 15H372.98V18H369.98V15ZM366.38 11.4H369.38V14.4H366.38V11.4ZM362.78 11.4H365.78V14.4H362.78V11.4ZM359.18 11.4H362.18V14.4H359.18V11.4ZM355.58 15H358.58V18H355.58V15ZM369.98 18.6H372.98V21.6H369.98V18.6ZM369.98 33H372.98V36H369.98V33ZM366.38 22.2H369.38V25.2H366.38V22.2ZM366.38 33H369.38V36H366.38V33ZM362.78 25.8H365.78V28.8H362.78V25.8ZM362.78 33H365.78V36H362.78V33ZM359.18 29.4H362.18V32.4H359.18V29.4ZM359.18 33H362.18V36H359.18V33ZM355.58 33H358.58V36H355.58V33ZM382.572 15H385.572V18H382.572V15ZM378.972 18.6H381.972V21.6H378.972V18.6ZM375.372 22.2H378.372V25.2H375.372V22.2ZM371.772 25.8H374.772V28.8H371.772V25.8ZM368.172 29.4H371.172V32.4H368.172V29.4ZM404.164 11.4H407.164V14.4H404.164V11.4ZM400.564 11.4H403.564V14.4H400.564V11.4ZM396.964 11.4H399.964V14.4H396.964V11.4ZM393.364 11.4H396.364V14.4H393.364V11.4ZM389.764 11.4H392.764V14.4H389.764V11.4ZM389.764 15H392.764V18H389.764V15ZM404.164 22.2H407.164V25.2H404.164V22.2ZM404.164 25.8H407.164V28.8H404.164V25.8ZM404.164 29.4H407.164V32.4H404.164V29.4ZM400.564 18.6H403.564V21.6H400.564V18.6ZM400.564 33H403.564V36H400.564V33ZM396.964 18.6H399.964V21.6H396.964V18.6ZM396.964 33H399.964V36H396.964V33ZM393.364 18.6H396.364V21.6H393.364V18.6ZM393.364 33H396.364V36H393.364V33ZM389.764 18.6H392.764V21.6H389.764V18.6ZM389.764 29.4H392.764V32.4H389.764V29.4Z" fill="white"/>
<rect x="1.5" y="1.5" width="449" height="277" stroke="#5B65C2" stroke-width="3"/>
<path d="M20.2 78.4H23.2V81.4H20.2V78.4ZM20.2 82H23.2V85H20.2V82ZM16.6 82H19.6V85H16.6V82ZM27.4 100H30.4V103H27.4V100ZM23.8 100H26.8V103H23.8V100ZM20.2 85.6H23.2V88.6H20.2V85.6ZM20.2 89.2H23.2V92.2H20.2V89.2ZM20.2 92.8H23.2V95.8H20.2V92.8ZM20.2 96.4H23.2V99.4H20.2V96.4ZM20.2 100H23.2V103H20.2V100ZM16.6 100H19.6V103H16.6V100ZM13 85.6H16V88.6H13V85.6ZM13 100H16V103H13V100ZM38.1918 96.4H41.1918V99.4H38.1918V96.4ZM38.1918 100H41.1918V103H38.1918V100ZM34.5918 96.4H37.5918V99.4H34.5918V96.4ZM34.5918 100H37.5918V103H34.5918V100ZM59.8023 78.4H62.8023V81.4H59.8023V78.4ZM59.8023 82H62.8023V85H59.8023V82ZM45.4023 78.4H48.4023V81.4H45.4023V78.4ZM45.4023 82H48.4023V85H45.4023V82ZM59.8023 85.6H62.8023V88.6H59.8023V85.6ZM59.8023 89.2H62.8023V92.2H59.8023V89.2ZM59.8023 92.8H62.8023V95.8H59.8023V92.8ZM56.2023 96.4H59.2023V99.4H56.2023V96.4ZM52.6023 100H55.6023V103H52.6023V100ZM49.0023 96.4H52.0023V99.4H49.0023V96.4ZM45.4023 85.6H48.4023V88.6H45.4023V85.6ZM45.4023 89.2H48.4023V92.2H45.4023V89.2ZM45.4023 92.8H48.4023V95.8H45.4023V92.8ZM74.1941 78.4H77.1941V81.4H74.1941V78.4ZM70.5941 78.4H73.5941V81.4H70.5941V78.4ZM70.5941 82H73.5941V85H70.5941V82ZM66.9941 78.4H69.9941V81.4H66.9941V78.4ZM74.1941 100H77.1941V103H74.1941V100ZM70.5941 85.6H73.5941V88.6H70.5941V85.6ZM70.5941 89.2H73.5941V92.2H70.5941V89.2ZM70.5941 92.8H73.5941V95.8H70.5941V92.8ZM70.5941 96.4H73.5941V99.4H70.5941V96.4ZM70.5941 100H73.5941V103H70.5941V100ZM66.9941 100H69.9941V103H66.9941V100ZM95.8082 82H98.8082V85H95.8082V82ZM92.2082 78.4H95.2082V81.4H92.2082V78.4ZM88.6082 78.4H91.6082V81.4H88.6082V78.4ZM85.0082 78.4H88.0082V81.4H85.0082V78.4ZM81.4082 82H84.4082V85H81.4082V82ZM95.8082 92.8H98.8082V95.8H95.8082V92.8ZM95.8082 96.4H98.8082V99.4H95.8082V96.4ZM92.2082 89.2H95.2082V92.2H92.2082V89.2ZM92.2082 100H95.2082V103H92.2082V100ZM88.6082 89.2H91.6082V92.2H88.6082V89.2ZM88.6082 100H91.6082V103H88.6082V100ZM85.0082 89.2H88.0082V92.2H85.0082V89.2ZM85.0082 100H88.0082V103H85.0082V100ZM81.4082 85.6H84.4082V88.6H81.4082V85.6ZM81.4082 96.4H84.4082V99.4H81.4082V96.4ZM117.4 82H120.4V85H117.4V82ZM113.8 78.4H116.8V81.4H113.8V78.4ZM110.2 78.4H113.2V81.4H110.2V78.4ZM106.6 78.4H109.6V81.4H106.6V78.4ZM103 82H106V85H103V82ZM117.4 85.6H120.4V88.6H117.4V85.6ZM117.4 89.2H120.4V92.2H117.4V89.2ZM117.4 92.8H120.4V95.8H117.4V92.8ZM117.4 96.4H120.4V99.4H117.4V96.4ZM117.4 100H120.4V103H117.4V100ZM113.8 89.2H116.8V92.2H113.8V89.2ZM110.2 89.2H113.2V92.2H110.2V89.2ZM106.6 89.2H109.6V92.2H106.6V89.2ZM103 85.6H106V88.6H103V85.6ZM103 89.2H106V92.2H103V89.2ZM103 92.8H106V95.8H103V92.8ZM103 96.4H106V99.4H103V96.4ZM103 100H106V103H103V100ZM138.992 89.2H141.992V92.2H138.992V89.2ZM135.392 89.2H138.392V92.2H135.392V89.2ZM131.792 89.2H134.792V92.2H131.792V89.2ZM128.192 89.2H131.192V92.2H128.192V89.2ZM124.592 89.2H127.592V92.2H124.592V89.2ZM160.584 78.4H163.584V81.4H160.584V78.4ZM160.584 82H163.584V85H160.584V82ZM156.984 82H159.984V85H156.984V82ZM149.784 82H152.784V85H149.784V82ZM146.184 78.4H149.184V81.4H146.184V78.4ZM146.184 82H149.184V85H146.184V82ZM160.584 85.6H163.584V88.6H160.584V85.6ZM160.584 89.2H163.584V92.2H160.584V89.2ZM160.584 92.8H163.584V95.8H160.584V92.8ZM160.584 96.4H163.584V99.4H160.584V96.4ZM160.584 100H163.584V103H160.584V100ZM153.384 85.6H156.384V88.6H153.384V85.6ZM153.384 89.2H156.384V92.2H153.384V89.2ZM146.184 85.6H149.184V88.6H146.184V85.6ZM146.184 89.2H149.184V92.2H146.184V89.2ZM146.184 92.8H149.184V95.8H146.184V92.8ZM146.184 96.4H149.184V99.4H146.184V96.4ZM146.184 100H149.184V103H146.184V100ZM182.175 82H185.175V85H182.175V82ZM178.575 78.4H181.575V81.4H178.575V78.4ZM174.975 78.4H177.975V81.4H174.975V78.4ZM171.375 78.4H174.375V81.4H171.375V78.4ZM167.775 82H170.775V85H167.775V82ZM182.175 96.4H185.175V99.4H182.175V96.4ZM178.575 100H181.575V103H178.575V100ZM174.975 100H177.975V103H174.975V100ZM171.375 100H174.375V103H171.375V100ZM167.775 85.6H170.775V88.6H167.775V85.6ZM167.775 89.2H170.775V92.2H167.775V89.2ZM167.775 92.8H170.775V95.8H167.775V92.8ZM167.775 96.4H170.775V99.4H167.775V96.4ZM203.767 89.2H206.767V92.2H203.767V89.2ZM200.167 89.2H203.167V92.2H200.167V89.2ZM196.567 89.2H199.567V92.2H196.567V89.2ZM192.967 89.2H195.967V92.2H192.967V89.2ZM189.367 89.2H192.367V92.2H189.367V89.2ZM225.359 82H228.359V85H225.359V82ZM221.759 78.4H224.759V81.4H221.759V78.4ZM218.159 78.4H221.159V81.4H218.159V78.4ZM214.559 78.4H217.559V81.4H214.559V78.4ZM210.959 82H213.959V85H210.959V82ZM225.359 85.6H228.359V88.6H225.359V85.6ZM225.359 89.2H228.359V92.2H225.359V89.2ZM225.359 92.8H228.359V95.8H225.359V92.8ZM225.359 96.4H228.359V99.4H225.359V96.4ZM225.359 100H228.359V103H225.359V100ZM221.759 89.2H224.759V92.2H221.759V89.2ZM218.159 89.2H221.159V92.2H218.159V89.2ZM214.559 89.2H217.559V92.2H214.559V89.2ZM210.959 85.6H213.959V88.6H210.959V85.6ZM210.959 89.2H213.959V92.2H210.959V89.2ZM210.959 92.8H213.959V95.8H210.959V92.8ZM210.959 96.4H213.959V99.4H210.959V96.4ZM210.959 100H213.959V103H210.959V100ZM246.951 78.4H249.951V81.4H246.951V78.4ZM246.951 82H249.951V85H246.951V82ZM243.351 82H246.351V85H243.351V82ZM236.151 82H239.151V85H236.151V82ZM232.551 78.4H235.551V81.4H232.551V78.4ZM232.551 82H235.551V85H232.551V82ZM246.951 85.6H249.951V88.6H246.951V85.6ZM246.951 89.2H249.951V92.2H246.951V89.2ZM246.951 92.8H249.951V95.8H246.951V92.8ZM246.951 96.4H249.951V99.4H246.951V96.4ZM246.951 100H249.951V103H246.951V100ZM239.751 85.6H242.751V88.6H239.751V85.6ZM239.751 89.2H242.751V92.2H239.751V89.2ZM232.551 85.6H235.551V88.6H232.551V85.6ZM232.551 89.2H235.551V92.2H232.551V89.2ZM232.551 92.8H235.551V95.8H232.551V92.8ZM232.551 96.4H235.551V99.4H232.551V96.4ZM232.551 100H235.551V103H232.551V100ZM268.543 78.4H271.543V81.4H268.543V78.4ZM264.943 78.4H267.943V81.4H264.943V78.4ZM261.343 78.4H264.343V81.4H261.343V78.4ZM257.743 78.4H260.743V81.4H257.743V78.4ZM254.143 78.4H257.143V81.4H254.143V78.4ZM254.143 82H257.143V85H254.143V82ZM268.543 100H271.543V103H268.543V100ZM264.943 89.2H267.943V92.2H264.943V89.2ZM264.943 100H267.943V103H264.943V100ZM261.343 89.2H264.343V92.2H261.343V89.2ZM261.343 100H264.343V103H261.343V100ZM257.743 89.2H260.743V92.2H257.743V89.2ZM257.743 100H260.743V103H257.743V100ZM254.143 85.6H257.143V88.6H254.143V85.6ZM254.143 89.2H257.143V92.2H254.143V89.2ZM254.143 92.8H257.143V95.8H254.143V92.8ZM254.143 96.4H257.143V99.4H254.143V96.4ZM254.143 100H257.143V103H254.143V100ZM290.134 78.4H293.134V81.4H290.134V78.4ZM290.134 82H293.134V85H290.134V82ZM275.734 78.4H278.734V81.4H275.734V78.4ZM275.734 82H278.734V85H275.734V82ZM290.134 96.4H293.134V99.4H290.134V96.4ZM290.134 100H293.134V103H290.134V100ZM286.534 85.6H289.534V88.6H286.534V85.6ZM286.534 92.8H289.534V95.8H286.534V92.8ZM282.934 89.2H285.934V92.2H282.934V89.2ZM279.334 85.6H282.334V88.6H279.334V85.6ZM279.334 92.8H282.334V95.8H279.334V92.8ZM275.734 96.4H278.734V99.4H275.734V96.4ZM275.734 100H278.734V103H275.734V100ZM311.726 89.2H314.726V92.2H311.726V89.2ZM308.126 89.2H311.126V92.2H308.126V89.2ZM304.526 89.2H307.526V92.2H304.526V89.2ZM300.926 89.2H303.926V92.2H300.926V89.2ZM297.326 89.2H300.326V92.2H297.326V89.2ZM333.318 82H336.318V85H333.318V82ZM329.718 78.4H332.718V81.4H329.718V78.4ZM326.118 78.4H329.118V81.4H326.118V78.4ZM322.518 78.4H325.518V81.4H322.518V78.4ZM318.918 78.4H321.918V81.4H318.918V78.4ZM318.918 82H321.918V85H318.918V82ZM333.318 85.6H336.318V88.6H333.318V85.6ZM333.318 89.2H336.318V92.2H333.318V89.2ZM333.318 92.8H336.318V95.8H333.318V92.8ZM333.318 96.4H336.318V99.4H333.318V96.4ZM329.718 100H332.718V103H329.718V100ZM326.118 100H329.118V103H326.118V100ZM322.518 100H325.518V103H322.518V100ZM318.918 85.6H321.918V88.6H318.918V85.6ZM318.918 89.2H321.918V92.2H318.918V89.2ZM318.918 92.8H321.918V95.8H318.918V92.8ZM318.918 96.4H321.918V99.4H318.918V96.4ZM318.918 100H321.918V103H318.918V100ZM347.71 78.4H350.71V81.4H347.71V78.4ZM344.11 78.4H347.11V81.4H344.11V78.4ZM344.11 82H347.11V85H344.11V82ZM340.51 78.4H343.51V81.4H340.51V78.4ZM347.71 100H350.71V103H347.71V100ZM344.11 85.6H347.11V88.6H344.11V85.6ZM344.11 89.2H347.11V92.2H344.11V89.2ZM344.11 92.8H347.11V95.8H344.11V92.8ZM344.11 96.4H347.11V99.4H344.11V96.4ZM344.11 100H347.11V103H344.11V100ZM340.51 100H343.51V103H340.51V100ZM369.324 78.4H372.324V81.4H369.324V78.4ZM369.324 82H372.324V85H369.324V82ZM354.924 78.4H357.924V81.4H354.924V78.4ZM354.924 82H357.924V85H354.924V82ZM369.324 85.6H372.324V88.6H369.324V85.6ZM369.324 89.2H372.324V92.2H369.324V89.2ZM369.324 92.8H372.324V95.8H369.324V92.8ZM369.324 96.4H372.324V99.4H369.324V96.4ZM369.324 100H372.324V103H369.324V100ZM365.724 92.8H368.724V95.8H365.724V92.8ZM362.124 89.2H365.124V92.2H362.124V89.2ZM358.524 85.6H361.524V88.6H358.524V85.6ZM354.924 85.6H357.924V88.6H354.924V85.6ZM354.924 89.2H357.924V92.2H354.924V89.2ZM354.924 92.8H357.924V95.8H354.924V92.8ZM354.924 96.4H357.924V99.4H354.924V96.4ZM354.924 100H357.924V103H354.924V100ZM390.916 78.4H393.916V81.4H390.916V78.4ZM387.316 78.4H390.316V81.4H387.316V78.4ZM383.716 78.4H386.716V81.4H383.716V78.4ZM380.116 78.4H383.116V81.4H380.116V78.4ZM376.516 78.4H379.516V81.4H376.516V78.4ZM376.516 82H379.516V85H376.516V82ZM390.916 100H393.916V103H390.916V100ZM387.316 89.2H390.316V92.2H387.316V89.2ZM387.316 100H390.316V103H387.316V100ZM383.716 89.2H386.716V92.2H383.716V89.2ZM383.716 100H386.716V103H383.716V100ZM380.116 89.2H383.116V92.2H380.116V89.2ZM380.116 100H383.116V103H380.116V100ZM376.516 85.6H379.516V88.6H376.516V85.6ZM376.516 89.2H379.516V92.2H376.516V89.2ZM376.516 92.8H379.516V95.8H376.516V92.8ZM376.516 96.4H379.516V99.4H376.516V96.4ZM376.516 100H379.516V103H376.516V100ZM412.507 82H415.507V85H412.507V82ZM408.907 78.4H411.907V81.4H408.907V78.4ZM405.307 78.4H408.307V81.4H405.307V78.4ZM401.707 78.4H404.707V81.4H401.707V78.4ZM398.107 78.4H401.107V81.4H398.107V78.4ZM398.107 82H401.107V85H398.107V82ZM412.507 85.6H415.507V88.6H412.507V85.6ZM412.507 100H415.507V103H412.507V100ZM408.907 89.2H411.907V92.2H408.907V89.2ZM408.907 96.4H411.907V99.4H408.907V96.4ZM405.307 89.2H408.307V92.2H405.307V89.2ZM405.307 92.8H408.307V95.8H405.307V92.8ZM401.707 89.2H404.707V92.2H401.707V89.2ZM398.107 85.6H401.107V88.6H398.107V85.6ZM398.107 89.2H401.107V92.2H398.107V89.2ZM398.107 92.8H401.107V95.8H398.107V92.8ZM398.107 96.4H401.107V99.4H398.107V96.4ZM398.107 100H401.107V103H398.107V100ZM434.099 82H437.099V85H434.099V82ZM430.499 78.4H433.499V81.4H430.499V78.4ZM426.899 78.4H429.899V81.4H426.899V78.4ZM423.299 78.4H426.299V81.4H423.299V78.4ZM419.699 82H422.699V85H419.699V82ZM434.099 92.8H437.099V95.8H434.099V92.8ZM434.099 96.4H437.099V99.4H434.099V96.4ZM430.499 89.2H433.499V92.2H430.499V89.2ZM430.499 100H433.499V103H430.499V100ZM426.899 89.2H429.899V92.2H426.899V89.2ZM426.899 100H429.899V103H426.899V100ZM423.299 89.2H426.299V92.2H423.299V89.2ZM423.299 100H426.299V103H423.299V100ZM419.699 85.6H422.699V88.6H419.699V85.6ZM419.699 96.4H422.699V99.4H419.699V96.4ZM27.4 115H30.4V118H27.4V115ZM23.8 111.4H26.8V114.4H23.8V111.4ZM20.2 111.4H23.2V114.4H20.2V111.4ZM16.6 111.4H19.6V114.4H16.6V111.4ZM13 115H16V118H13V115ZM27.4 118.6H30.4V121.6H27.4V118.6ZM27.4 133H30.4V136H27.4V133ZM23.8 122.2H26.8V125.2H23.8V122.2ZM23.8 133H26.8V136H23.8V133ZM20.2 125.8H23.2V128.8H20.2V125.8ZM20.2 133H23.2V136H20.2V133ZM16.6 129.4H19.6V132.4H16.6V129.4ZM16.6 133H19.6V136H16.6V133ZM13 133H16V136H13V133ZM38.1918 129.4H41.1918V132.4H38.1918V129.4ZM38.1918 133H41.1918V136H38.1918V133ZM34.5918 129.4H37.5918V132.4H34.5918V129.4ZM34.5918 133H37.5918V136H34.5918V133ZM59.8023 115H62.8023V118H59.8023V115ZM56.2023 111.4H59.2023V114.4H56.2023V111.4ZM52.6023 111.4H55.6023V114.4H52.6023V111.4ZM49.0023 111.4H52.0023V114.4H49.0023V111.4ZM45.4023 111.4H48.4023V114.4H45.4023V111.4ZM45.4023 115H48.4023V118H45.4023V115ZM59.8023 118.6H62.8023V121.6H59.8023V118.6ZM59.8023 133H62.8023V136H59.8023V133ZM56.2023 122.2H59.2023V125.2H56.2023V122.2ZM56.2023 129.4H59.2023V132.4H56.2023V129.4ZM52.6023 122.2H55.6023V125.2H52.6023V122.2ZM52.6023 125.8H55.6023V128.8H52.6023V125.8ZM49.0023 122.2H52.0023V125.2H49.0023V122.2ZM45.4023 118.6H48.4023V121.6H45.4023V118.6ZM45.4023 122.2H48.4023V125.2H45.4023V122.2ZM45.4023 125.8H48.4023V128.8H45.4023V125.8ZM45.4023 129.4H48.4023V132.4H45.4023V129.4ZM45.4023 133H48.4023V136H45.4023V133ZM81.3941 111.4H84.3941V114.4H81.3941V111.4ZM77.7941 111.4H80.7941V114.4H77.7941V111.4ZM74.1941 111.4H77.1941V114.4H74.1941V111.4ZM70.5941 111.4H73.5941V114.4H70.5941V111.4ZM66.9941 111.4H69.9941V114.4H66.9941V111.4ZM66.9941 115H69.9941V118H66.9941V115ZM81.3941 133H84.3941V136H81.3941V133ZM77.7941 122.2H80.7941V125.2H77.7941V122.2ZM77.7941 133H80.7941V136H77.7941V133ZM74.1941 122.2H77.1941V125.2H74.1941V122.2ZM74.1941 133H77.1941V136H74.1941V133ZM70.5941 122.2H73.5941V125.2H70.5941V122.2ZM70.5941 133H73.5941V136H70.5941V133ZM66.9941 118.6H69.9941V121.6H66.9941V118.6ZM66.9941 122.2H69.9941V125.2H66.9941V122.2ZM66.9941 125.8H69.9941V128.8H66.9941V125.8ZM66.9941 129.4H69.9941V132.4H66.9941V129.4ZM66.9941 133H69.9941V136H66.9941V133ZM102.986 115H105.986V118H102.986V115ZM99.3859 111.4H102.386V114.4H99.3859V111.4ZM95.7859 111.4H98.7859V114.4H95.7859V111.4ZM92.1859 111.4H95.1859V114.4H92.1859V111.4ZM88.5859 111.4H91.5859V114.4H88.5859V111.4ZM88.5859 115H91.5859V118H88.5859V115ZM102.986 118.6H105.986V121.6H102.986V118.6ZM102.986 122.2H105.986V125.2H102.986V122.2ZM102.986 125.8H105.986V128.8H102.986V125.8ZM102.986 129.4H105.986V132.4H102.986V129.4ZM99.3859 133H102.386V136H99.3859V133ZM95.7859 133H98.7859V136H95.7859V133ZM92.1859 133H95.1859V136H92.1859V133ZM88.5859 118.6H91.5859V121.6H88.5859V118.6ZM88.5859 122.2H91.5859V125.2H88.5859V122.2ZM88.5859 125.8H91.5859V128.8H88.5859V125.8ZM88.5859 129.4H91.5859V132.4H88.5859V129.4ZM88.5859 133H91.5859V136H88.5859V133ZM124.578 115H127.578V118H124.578V115ZM120.978 111.4H123.978V114.4H120.978V111.4ZM117.378 111.4H120.378V114.4H117.378V111.4ZM113.778 111.4H116.778V114.4H113.778V111.4ZM110.178 115H113.178V118H110.178V115ZM124.578 129.4H127.578V132.4H124.578V129.4ZM120.978 133H123.978V136H120.978V133ZM117.378 133H120.378V136H117.378V133ZM113.778 133H116.778V136H113.778V133ZM110.178 118.6H113.178V121.6H110.178V118.6ZM110.178 122.2H113.178V125.2H110.178V122.2ZM110.178 125.8H113.178V128.8H110.178V125.8ZM110.178 129.4H113.178V132.4H110.178V129.4ZM146.17 115H149.17V118H146.17V115ZM142.57 111.4H145.57V114.4H142.57V111.4ZM138.97 111.4H141.97V114.4H138.97V111.4ZM135.37 111.4H138.37V114.4H135.37V111.4ZM131.77 115H134.77V118H131.77V115ZM146.17 118.6H149.17V121.6H146.17V118.6ZM146.17 122.2H149.17V125.2H146.17V122.2ZM146.17 125.8H149.17V128.8H146.17V125.8ZM146.17 129.4H149.17V132.4H146.17V129.4ZM142.57 133H145.57V136H142.57V133ZM138.97 133H141.97V136H138.97V133ZM135.37 133H138.37V136H135.37V133ZM131.77 118.6H134.77V121.6H131.77V118.6ZM131.77 122.2H134.77V125.2H131.77V122.2ZM131.77 125.8H134.77V128.8H131.77V125.8ZM131.77 129.4H134.77V132.4H131.77V129.4ZM167.761 111.4H170.761V114.4H167.761V111.4ZM167.761 115H170.761V118H167.761V115ZM164.161 115H167.161V118H164.161V115ZM156.961 115H159.961V118H156.961V115ZM153.361 111.4H156.361V114.4H153.361V111.4ZM153.361 115H156.361V118H153.361V115ZM167.761 118.6H170.761V121.6H167.761V118.6ZM167.761 122.2H170.761V125.2H167.761V122.2ZM167.761 125.8H170.761V128.8H167.761V125.8ZM167.761 129.4H170.761V132.4H167.761V129.4ZM167.761 133H170.761V136H167.761V133ZM160.561 118.6H163.561V121.6H160.561V118.6ZM160.561 122.2H163.561V125.2H160.561V122.2ZM153.361 118.6H156.361V121.6H153.361V118.6ZM153.361 122.2H156.361V125.2H153.361V122.2ZM153.361 125.8H156.361V128.8H153.361V125.8ZM153.361 129.4H156.361V132.4H153.361V129.4ZM153.361 133H156.361V136H153.361V133ZM189.353 115H192.353V118H189.353V115ZM185.753 111.4H188.753V114.4H185.753V111.4ZM182.153 111.4H185.153V114.4H182.153V111.4ZM178.553 111.4H181.553V114.4H178.553V111.4ZM174.953 111.4H177.953V114.4H174.953V111.4ZM174.953 115H177.953V118H174.953V115ZM189.353 118.6H192.353V121.6H189.353V118.6ZM185.753 122.2H188.753V125.2H185.753V122.2ZM182.153 122.2H185.153V125.2H182.153V122.2ZM178.553 122.2H181.553V125.2H178.553V122.2ZM174.953 118.6H177.953V121.6H174.953V118.6ZM174.953 122.2H177.953V125.2H174.953V122.2ZM174.953 125.8H177.953V128.8H174.953V125.8ZM174.953 129.4H177.953V132.4H174.953V129.4ZM174.953 133H177.953V136H174.953V133ZM210.945 115H213.945V118H210.945V115ZM207.345 111.4H210.345V114.4H207.345V111.4ZM203.745 111.4H206.745V114.4H203.745V111.4ZM200.145 111.4H203.145V114.4H200.145V111.4ZM196.545 111.4H199.545V114.4H196.545V111.4ZM196.545 115H199.545V118H196.545V115ZM210.945 118.6H213.945V121.6H210.945V118.6ZM210.945 133H213.945V136H210.945V133ZM207.345 122.2H210.345V125.2H207.345V122.2ZM207.345 129.4H210.345V132.4H207.345V129.4ZM203.745 122.2H206.745V125.2H203.745V122.2ZM203.745 125.8H206.745V128.8H203.745V125.8ZM200.145 122.2H203.145V125.2H200.145V122.2ZM196.545 118.6H199.545V121.6H196.545V118.6ZM196.545 122.2H199.545V125.2H196.545V122.2ZM196.545 125.8H199.545V128.8H196.545V125.8ZM196.545 129.4H199.545V132.4H196.545V129.4ZM196.545 133H199.545V136H196.545V133ZM232.537 115H235.537V118H232.537V115ZM228.937 111.4H231.937V114.4H228.937V111.4ZM225.337 111.4H228.337V114.4H225.337V111.4ZM221.737 111.4H224.737V114.4H221.737V111.4ZM218.137 115H221.137V118H218.137V115ZM232.537 118.6H235.537V121.6H232.537V118.6ZM232.537 122.2H235.537V125.2H232.537V122.2ZM232.537 125.8H235.537V128.8H232.537V125.8ZM232.537 129.4H235.537V132.4H232.537V129.4ZM232.537 133H235.537V136H232.537V133ZM228.937 122.2H231.937V125.2H228.937V122.2ZM225.337 122.2H228.337V125.2H225.337V122.2ZM221.737 122.2H224.737V125.2H221.737V122.2ZM218.137 118.6H221.137V121.6H218.137V118.6ZM218.137 122.2H221.137V125.2H218.137V122.2ZM218.137 125.8H221.137V128.8H218.137V125.8ZM218.137 129.4H221.137V132.4H218.137V129.4ZM218.137 133H221.137V136H218.137V133ZM27.4 148H30.4V151H27.4V148ZM23.8 144.4H26.8V147.4H23.8V144.4ZM20.2 144.4H23.2V147.4H20.2V144.4ZM16.6 144.4H19.6V147.4H16.6V144.4ZM13 148H16V151H13V148ZM27.4 151.6H30.4V154.6H27.4V151.6ZM27.4 158.8H30.4V161.8H27.4V158.8ZM27.4 162.4H30.4V165.4H27.4V162.4ZM23.8 155.2H26.8V158.2H23.8V155.2ZM23.8 166H26.8V169H23.8V166ZM20.2 155.2H23.2V158.2H20.2V155.2ZM20.2 166H23.2V169H20.2V166ZM16.6 166H19.6V169H16.6V166ZM13 162.4H16V165.4H13V162.4ZM38.1918 162.4H41.1918V165.4H38.1918V162.4ZM38.1918 166H41.1918V169H38.1918V166ZM34.5918 162.4H37.5918V165.4H34.5918V162.4ZM34.5918 166H37.5918V169H34.5918V166ZM59.8023 148H62.8023V151H59.8023V148ZM56.2023 144.4H59.2023V147.4H56.2023V144.4ZM52.6023 144.4H55.6023V147.4H52.6023V144.4ZM49.0023 144.4H52.0023V147.4H49.0023V144.4ZM45.4023 148H48.4023V151H45.4023V148ZM59.8023 151.6H62.8023V154.6H59.8023V151.6ZM59.8023 155.2H62.8023V158.2H59.8023V155.2ZM59.8023 158.8H62.8023V161.8H59.8023V158.8ZM59.8023 162.4H62.8023V165.4H59.8023V162.4ZM56.2023 166H59.2023V169H56.2023V166ZM52.6023 166H55.6023V169H52.6023V166ZM49.0023 166H52.0023V169H49.0023V166ZM45.4023 151.6H48.4023V154.6H45.4023V151.6ZM45.4023 155.2H48.4023V158.2H45.4023V155.2ZM45.4023 158.8H48.4023V161.8H45.4023V158.8ZM45.4023 162.4H48.4023V165.4H45.4023V162.4ZM81.3941 144.4H84.3941V147.4H81.3941V144.4ZM77.7941 144.4H80.7941V147.4H77.7941V144.4ZM74.1941 144.4H77.1941V147.4H74.1941V144.4ZM74.1941 148H77.1941V151H74.1941V148ZM70.5941 144.4H73.5941V147.4H70.5941V144.4ZM66.9941 144.4H69.9941V147.4H66.9941V144.4ZM74.1941 151.6H77.1941V154.6H74.1941V151.6ZM74.1941 155.2H77.1941V158.2H74.1941V155.2ZM74.1941 158.8H77.1941V161.8H74.1941V158.8ZM74.1941 162.4H77.1941V165.4H74.1941V162.4ZM74.1941 166H77.1941V169H74.1941V166ZM102.986 148H105.986V151H102.986V148ZM99.3859 144.4H102.386V147.4H99.3859V144.4ZM95.7859 144.4H98.7859V147.4H95.7859V144.4ZM92.1859 144.4H95.1859V147.4H92.1859V144.4ZM88.5859 144.4H91.5859V147.4H88.5859V144.4ZM88.5859 148H91.5859V151H88.5859V148ZM102.986 151.6H105.986V154.6H102.986V151.6ZM102.986 166H105.986V169H102.986V166ZM99.3859 155.2H102.386V158.2H99.3859V155.2ZM99.3859 162.4H102.386V165.4H99.3859V162.4ZM95.7859 155.2H98.7859V158.2H95.7859V155.2ZM95.7859 158.8H98.7859V161.8H95.7859V158.8ZM92.1859 155.2H95.1859V158.2H92.1859V155.2ZM88.5859 151.6H91.5859V154.6H88.5859V151.6ZM88.5859 155.2H91.5859V158.2H88.5859V155.2ZM88.5859 158.8H91.5859V161.8H88.5859V158.8ZM88.5859 162.4H91.5859V165.4H88.5859V162.4ZM88.5859 166H91.5859V169H88.5859V166ZM124.578 148H127.578V151H124.578V148ZM120.978 144.4H123.978V147.4H120.978V144.4ZM117.378 144.4H120.378V147.4H117.378V144.4ZM113.778 144.4H116.778V147.4H113.778V144.4ZM110.178 148H113.178V151H110.178V148ZM124.578 151.6H127.578V154.6H124.578V151.6ZM124.578 155.2H127.578V158.2H124.578V155.2ZM124.578 158.8H127.578V161.8H124.578V158.8ZM124.578 162.4H127.578V165.4H124.578V162.4ZM120.978 166H123.978V169H120.978V166ZM117.378 166H120.378V169H117.378V166ZM113.778 166H116.778V169H113.778V166ZM110.178 151.6H113.178V154.6H110.178V151.6ZM110.178 155.2H113.178V158.2H110.178V155.2ZM110.178 158.8H113.178V161.8H110.178V158.8ZM110.178 162.4H113.178V165.4H110.178V162.4ZM158.761 144.4H161.761V147.4H158.761V144.4ZM158.761 148H161.761V151H158.761V148ZM155.161 148H158.161V151H155.161V148ZM147.961 148H150.961V151H147.961V148ZM144.361 144.4H147.361V147.4H144.361V144.4ZM144.361 148H147.361V151H144.361V148ZM158.761 151.6H161.761V154.6H158.761V151.6ZM158.761 155.2H161.761V158.2H158.761V155.2ZM158.761 158.8H161.761V161.8H158.761V158.8ZM158.761 162.4H161.761V165.4H158.761V162.4ZM158.761 166H161.761V169H158.761V166ZM151.561 151.6H154.561V154.6H151.561V151.6ZM151.561 155.2H154.561V158.2H151.561V155.2ZM144.361 151.6H147.361V154.6H144.361V151.6ZM144.361 155.2H147.361V158.2H144.361V155.2ZM144.361 158.8H147.361V161.8H144.361V158.8ZM144.361 162.4H147.361V165.4H144.361V162.4ZM144.361 166H147.361V169H144.361V166ZM180.353 144.4H183.353V147.4H180.353V144.4ZM176.753 144.4H179.753V147.4H176.753V144.4ZM173.153 144.4H176.153V147.4H173.153V144.4ZM169.553 144.4H172.553V147.4H169.553V144.4ZM165.953 144.4H168.953V147.4H165.953V144.4ZM165.953 148H168.953V151H165.953V148ZM180.353 166H183.353V169H180.353V166ZM176.753 155.2H179.753V158.2H176.753V155.2ZM176.753 166H179.753V169H176.753V166ZM173.153 155.2H176.153V158.2H173.153V155.2ZM173.153 166H176.153V169H173.153V166ZM169.553 155.2H172.553V158.2H169.553V155.2ZM169.553 166H172.553V169H169.553V166ZM165.953 151.6H168.953V154.6H165.953V151.6ZM165.953 155.2H168.953V158.2H165.953V155.2ZM165.953 158.8H168.953V161.8H165.953V158.8ZM165.953 162.4H168.953V165.4H165.953V162.4ZM165.953 166H168.953V169H165.953V166ZM201.945 148H204.945V151H201.945V148ZM198.345 144.4H201.345V147.4H198.345V144.4ZM194.745 144.4H197.745V147.4H194.745V144.4ZM191.145 144.4H194.145V147.4H191.145V144.4ZM187.545 144.4H190.545V147.4H187.545V144.4ZM187.545 148H190.545V151H187.545V148ZM201.945 151.6H204.945V154.6H201.945V151.6ZM201.945 155.2H204.945V158.2H201.945V155.2ZM201.945 158.8H204.945V161.8H201.945V158.8ZM201.945 162.4H204.945V165.4H201.945V162.4ZM198.345 166H201.345V169H198.345V166ZM194.745 166H197.745V169H194.745V166ZM191.145 166H194.145V169H191.145V166ZM187.545 151.6H190.545V154.6H187.545V151.6ZM187.545 155.2H190.545V158.2H187.545V155.2ZM187.545 158.8H190.545V161.8H187.545V158.8ZM187.545 162.4H190.545V165.4H187.545V162.4ZM187.545 166H190.545V169H187.545V166ZM216.337 144.4H219.337V147.4H216.337V144.4ZM212.737 144.4H215.737V147.4H212.737V144.4ZM212.737 148H215.737V151H212.737V148ZM209.137 144.4H212.137V147.4H209.137V144.4ZM216.337 166H219.337V169H216.337V166ZM212.737 151.6H215.737V154.6H212.737V151.6ZM212.737 155.2H215.737V158.2H212.737V155.2ZM212.737 158.8H215.737V161.8H212.737V158.8ZM212.737 162.4H215.737V165.4H212.737V162.4ZM212.737 166H215.737V169H212.737V166ZM209.137 166H212.137V169H209.137V166ZM237.951 148H240.951V151H237.951V148ZM234.351 144.4H237.351V147.4H234.351V144.4ZM230.751 144.4H233.751V147.4H230.751V144.4ZM227.151 144.4H230.151V147.4H227.151V144.4ZM223.551 148H226.551V151H223.551V148ZM237.951 151.6H240.951V154.6H237.951V151.6ZM237.951 155.2H240.951V158.2H237.951V155.2ZM237.951 158.8H240.951V161.8H237.951V158.8ZM237.951 162.4H240.951V165.4H237.951V162.4ZM234.351 166H237.351V169H234.351V166ZM230.751 166H233.751V169H230.751V166ZM227.151 166H230.151V169H227.151V166ZM223.551 151.6H226.551V154.6H223.551V151.6ZM223.551 155.2H226.551V158.2H223.551V155.2ZM223.551 158.8H226.551V161.8H223.551V158.8ZM223.551 162.4H226.551V165.4H223.551V162.4ZM272.134 148H275.134V151H272.134V148ZM268.534 144.4H271.534V147.4H268.534V144.4ZM264.934 144.4H267.934V147.4H264.934V144.4ZM261.334 144.4H264.334V147.4H261.334V144.4ZM257.734 144.4H260.734V147.4H257.734V144.4ZM257.734 148H260.734V151H257.734V148ZM272.134 151.6H275.134V154.6H272.134V151.6ZM272.134 155.2H275.134V158.2H272.134V155.2ZM272.134 158.8H275.134V161.8H272.134V158.8ZM272.134 162.4H275.134V165.4H272.134V162.4ZM268.534 166H271.534V169H268.534V166ZM264.934 166H267.934V169H264.934V166ZM261.334 166H264.334V169H261.334V166ZM257.734 151.6H260.734V154.6H257.734V151.6ZM257.734 155.2H260.734V158.2H257.734V155.2ZM257.734 158.8H260.734V161.8H257.734V158.8ZM257.734 162.4H260.734V165.4H257.734V162.4ZM257.734 166H260.734V169H257.734V166ZM293.726 144.4H296.726V147.4H293.726V144.4ZM290.126 144.4H293.126V147.4H290.126V144.4ZM286.526 144.4H289.526V147.4H286.526V144.4ZM282.926 144.4H285.926V147.4H282.926V144.4ZM279.326 144.4H282.326V147.4H279.326V144.4ZM279.326 148H282.326V151H279.326V148ZM293.726 166H296.726V169H293.726V166ZM290.126 155.2H293.126V158.2H290.126V155.2ZM290.126 166H293.126V169H290.126V166ZM286.526 155.2H289.526V158.2H286.526V155.2ZM286.526 166H289.526V169H286.526V166ZM282.926 155.2H285.926V158.2H282.926V155.2ZM282.926 166H285.926V169H282.926V166ZM279.326 151.6H282.326V154.6H279.326V151.6ZM279.326 155.2H282.326V158.2H279.326V155.2ZM279.326 158.8H282.326V161.8H279.326V158.8ZM279.326 162.4H282.326V165.4H279.326V162.4ZM279.326 166H282.326V169H279.326V166ZM327.91 148H330.91V151H327.91V148ZM324.31 144.4H327.31V147.4H324.31V144.4ZM320.71 144.4H323.71V147.4H320.71V144.4ZM317.11 144.4H320.11V147.4H317.11V144.4ZM313.51 144.4H316.51V147.4H313.51V144.4ZM313.51 148H316.51V151H313.51V148ZM327.91 151.6H330.91V154.6H327.91V151.6ZM324.31 155.2H327.31V158.2H324.31V155.2ZM320.71 155.2H323.71V158.2H320.71V155.2ZM317.11 155.2H320.11V158.2H317.11V155.2ZM313.51 151.6H316.51V154.6H313.51V151.6ZM313.51 155.2H316.51V158.2H313.51V155.2ZM313.51 158.8H316.51V161.8H313.51V158.8ZM313.51 162.4H316.51V165.4H313.51V162.4ZM313.51 166H316.51V169H313.51V166ZM349.502 148H352.502V151H349.502V148ZM345.902 144.4H348.902V147.4H345.902V144.4ZM342.302 144.4H345.302V147.4H342.302V144.4ZM338.702 144.4H341.702V147.4H338.702V144.4ZM335.102 148H338.102V151H335.102V148ZM349.502 151.6H352.502V154.6H349.502V151.6ZM349.502 155.2H352.502V158.2H349.502V155.2ZM349.502 158.8H352.502V161.8H349.502V158.8ZM349.502 162.4H352.502V165.4H349.502V162.4ZM349.502 166H352.502V169H349.502V166ZM345.902 155.2H348.902V158.2H345.902V155.2ZM342.302 155.2H345.302V158.2H342.302V155.2ZM338.702 155.2H341.702V158.2H338.702V155.2ZM335.102 151.6H338.102V154.6H335.102V151.6ZM335.102 155.2H338.102V158.2H335.102V155.2ZM335.102 158.8H338.102V161.8H335.102V158.8ZM335.102 162.4H338.102V165.4H335.102V162.4ZM335.102 166H338.102V169H335.102V166ZM371.093 148H374.093V151H371.093V148ZM367.493 144.4H370.493V147.4H367.493V144.4ZM363.893 144.4H366.893V147.4H363.893V144.4ZM360.293 144.4H363.293V147.4H360.293V144.4ZM356.693 148H359.693V151H356.693V148ZM371.093 158.8H374.093V161.8H371.093V158.8ZM371.093 162.4H374.093V165.4H371.093V162.4ZM367.493 158.8H370.493V161.8H367.493V158.8ZM367.493 166H370.493V169H367.493V166ZM363.893 166H366.893V169H363.893V166ZM360.293 166H363.293V169H360.293V166ZM356.693 151.6H359.693V154.6H356.693V151.6ZM356.693 155.2H359.693V158.2H356.693V155.2ZM356.693 158.8H359.693V161.8H356.693V158.8ZM356.693 162.4H359.693V165.4H356.693V162.4ZM392.685 148H395.685V151H392.685V148ZM389.085 144.4H392.085V147.4H389.085V144.4ZM385.485 144.4H388.485V147.4H385.485V144.4ZM381.885 144.4H384.885V147.4H381.885V144.4ZM378.285 148H381.285V151H378.285V148ZM392.685 151.6H395.685V154.6H392.685V151.6ZM392.685 155.2H395.685V158.2H392.685V155.2ZM392.685 158.8H395.685V161.8H392.685V158.8ZM392.685 162.4H395.685V165.4H392.685V162.4ZM389.085 166H392.085V169H389.085V166ZM385.485 166H388.485V169H385.485V166ZM381.885 166H384.885V169H381.885V166ZM378.285 151.6H381.285V154.6H378.285V151.6ZM378.285 155.2H381.285V158.2H378.285V155.2ZM378.285 158.8H381.285V161.8H378.285V158.8ZM378.285 162.4H381.285V165.4H378.285V162.4Z" fill="#5B65C2"/>
</svg>
