<svg width="452" height="280" viewBox="0 0 452 280" fill="none" xmlns="http://www.w3.org/2000/svg">
<rect width="452" height="280" fill="white"/>
<rect width="452" height="47" fill="#5B65C2"/>
<rect width="452" height="47" fill="#5B65C2"/>
<path d="M89.2281 15H92.2281V18H89.2281V15ZM85.6281 11.4H88.6281V14.4H85.6281V11.4ZM82.0281 11.4H85.0281V14.4H82.0281V11.4ZM78.4281 11.4H81.4281V14.4H78.4281V11.4ZM74.8281 15H77.8281V18H74.8281V15ZM89.2281 29.4H92.2281V32.4H89.2281V29.4ZM85.6281 33H88.6281V36H85.6281V33ZM82.0281 33H85.0281V36H82.0281V33ZM78.4281 33H81.4281V36H78.4281V33ZM74.8281 18.6H77.8281V21.6H74.8281V18.6ZM74.8281 22.2H77.8281V25.2H74.8281V22.2ZM74.8281 25.8H77.8281V28.8H74.8281V25.8ZM74.8281 29.4H77.8281V32.4H74.8281V29.4ZM110.82 11.4H113.82V14.4H110.82V11.4ZM110.82 15H113.82V18H110.82V15ZM96.4199 11.4H99.4199V14.4H96.4199V11.4ZM96.4199 15H99.4199V18H96.4199V15ZM110.82 18.6H113.82V21.6H110.82V18.6ZM110.82 22.2H113.82V25.2H110.82V22.2ZM110.82 25.8H113.82V28.8H110.82V25.8ZM110.82 29.4H113.82V32.4H110.82V29.4ZM107.22 33H110.22V36H107.22V33ZM103.62 33H106.62V36H103.62V33ZM100.02 33H103.02V36H100.02V33ZM96.4199 18.6H99.4199V21.6H96.4199V18.6ZM96.4199 22.2H99.4199V25.2H96.4199V22.2ZM96.4199 25.8H99.4199V28.8H96.4199V25.8ZM96.4199 29.4H99.4199V32.4H96.4199V29.4ZM132.412 11.4H135.412V14.4H132.412V11.4ZM128.812 11.4H131.812V14.4H128.812V11.4ZM125.212 11.4H128.212V14.4H125.212V11.4ZM121.612 11.4H124.612V14.4H121.612V11.4ZM118.012 11.4H121.012V14.4H118.012V11.4ZM118.012 15H121.012V18H118.012V15ZM132.412 33H135.412V36H132.412V33ZM128.812 22.2H131.812V25.2H128.812V22.2ZM128.812 33H131.812V36H128.812V33ZM125.212 22.2H128.212V25.2H125.212V22.2ZM125.212 33H128.212V36H125.212V33ZM121.612 22.2H124.612V25.2H121.612V22.2ZM121.612 33H124.612V36H121.612V33ZM118.012 18.6H121.012V21.6H118.012V18.6ZM118.012 22.2H121.012V25.2H118.012V22.2ZM118.012 25.8H121.012V28.8H118.012V25.8ZM118.012 29.4H121.012V32.4H118.012V29.4ZM118.012 33H121.012V36H118.012V33ZM154.004 11.4H157.004V14.4H154.004V11.4ZM154.004 15H157.004V18H154.004V15ZM139.604 11.4H142.604V14.4H139.604V11.4ZM139.604 15H142.604V18H139.604V15ZM154.004 18.6H157.004V21.6H154.004V18.6ZM154.004 22.2H157.004V25.2H154.004V22.2ZM154.004 25.8H157.004V28.8H154.004V25.8ZM154.004 29.4H157.004V32.4H154.004V29.4ZM154.004 33H157.004V36H154.004V33ZM150.404 25.8H153.404V28.8H150.404V25.8ZM146.804 22.2H149.804V25.2H146.804V22.2ZM143.204 18.6H146.204V21.6H143.204V18.6ZM139.604 18.6H142.604V21.6H139.604V18.6ZM139.604 22.2H142.604V25.2H139.604V22.2ZM139.604 25.8H142.604V28.8H139.604V25.8ZM139.604 29.4H142.604V32.4H139.604V29.4ZM139.604 33H142.604V36H139.604V33ZM175.595 11.4H178.595V14.4H175.595V11.4ZM171.995 11.4H174.995V14.4H171.995V11.4ZM168.395 11.4H171.395V14.4H168.395V11.4ZM168.395 15H171.395V18H168.395V15ZM164.795 11.4H167.795V14.4H164.795V11.4ZM161.195 11.4H164.195V14.4H161.195V11.4ZM168.395 18.6H171.395V21.6H168.395V18.6ZM168.395 22.2H171.395V25.2H168.395V22.2ZM168.395 25.8H171.395V28.8H168.395V25.8ZM168.395 29.4H171.395V32.4H168.395V29.4ZM168.395 33H171.395V36H168.395V33ZM197.187 15H200.187V18H197.187V15ZM193.587 11.4H196.587V14.4H193.587V11.4ZM189.987 11.4H192.987V14.4H189.987V11.4ZM186.387 11.4H189.387V14.4H186.387V11.4ZM182.787 15H185.787V18H182.787V15ZM197.187 18.6H200.187V21.6H197.187V18.6ZM197.187 22.2H200.187V25.2H197.187V22.2ZM197.187 25.8H200.187V28.8H197.187V25.8ZM197.187 29.4H200.187V32.4H197.187V29.4ZM197.187 33H200.187V36H197.187V33ZM193.587 22.2H196.587V25.2H193.587V22.2ZM189.987 22.2H192.987V25.2H189.987V22.2ZM186.387 22.2H189.387V25.2H186.387V22.2ZM182.787 18.6H185.787V21.6H182.787V18.6ZM182.787 22.2H185.787V25.2H182.787V22.2ZM182.787 25.8H185.787V28.8H182.787V25.8ZM182.787 29.4H185.787V32.4H182.787V29.4ZM182.787 33H185.787V36H182.787V33ZM240.371 15H243.371V18H240.371V15ZM236.771 11.4H239.771V14.4H236.771V11.4ZM233.171 11.4H236.171V14.4H233.171V11.4ZM229.571 11.4H232.571V14.4H229.571V11.4ZM225.971 11.4H228.971V14.4H225.971V11.4ZM225.971 15H228.971V18H225.971V15ZM240.371 18.6H243.371V21.6H240.371V18.6ZM240.371 22.2H243.371V25.2H240.371V22.2ZM240.371 25.8H243.371V28.8H240.371V25.8ZM240.371 29.4H243.371V32.4H240.371V29.4ZM236.771 33H239.771V36H236.771V33ZM233.171 33H236.171V36H233.171V33ZM229.571 33H232.571V36H229.571V33ZM225.971 18.6H228.971V21.6H225.971V18.6ZM225.971 22.2H228.971V25.2H225.971V22.2ZM225.971 25.8H228.971V28.8H225.971V25.8ZM225.971 29.4H228.971V32.4H225.971V29.4ZM225.971 33H228.971V36H225.971V33ZM254.763 11.4H257.763V14.4H254.763V11.4ZM251.163 11.4H254.163V14.4H251.163V11.4ZM251.163 15H254.163V18H251.163V15ZM247.562 11.4H250.563V14.4H247.562V11.4ZM254.763 33H257.763V36H254.763V33ZM251.163 18.6H254.163V21.6H251.163V18.6ZM251.163 22.2H254.163V25.2H251.163V22.2ZM251.163 25.8H254.163V28.8H251.163V25.8ZM251.163 29.4H254.163V32.4H251.163V29.4ZM251.163 33H254.163V36H251.163V33ZM247.562 33H250.563V36H247.562V33ZM276.377 11.4H279.377V14.4H276.377V11.4ZM276.377 15H279.377V18H276.377V15ZM261.977 11.4H264.977V14.4H261.977V11.4ZM261.977 15H264.977V18H261.977V15ZM276.377 18.6H279.377V21.6H276.377V18.6ZM276.377 22.2H279.377V25.2H276.377V22.2ZM276.377 25.8H279.377V28.8H276.377V25.8ZM272.777 29.4H275.777V32.4H272.777V29.4ZM269.177 33H272.177V36H269.177V33ZM265.577 29.4H268.577V32.4H265.577V29.4ZM261.977 18.6H264.977V21.6H261.977V18.6ZM261.977 22.2H264.977V25.2H261.977V22.2ZM261.977 25.8H264.977V28.8H261.977V25.8ZM290.768 11.4H293.768V14.4H290.768V11.4ZM287.168 11.4H290.168V14.4H287.168V11.4ZM287.168 15H290.168V18H287.168V15ZM283.568 11.4H286.568V14.4H283.568V11.4ZM290.768 33H293.768V36H290.768V33ZM287.168 18.6H290.168V21.6H287.168V18.6ZM287.168 22.2H290.168V25.2H287.168V22.2ZM287.168 25.8H290.168V28.8H287.168V25.8ZM287.168 29.4H290.168V32.4H287.168V29.4ZM287.168 33H290.168V36H287.168V33ZM283.568 33H286.568V36H283.568V33ZM312.382 15H315.382V18H312.382V15ZM308.782 11.4H311.782V14.4H308.782V11.4ZM305.182 11.4H308.182V14.4H305.182V11.4ZM301.582 11.4H304.582V14.4H301.582V11.4ZM297.982 11.4H300.982V14.4H297.982V11.4ZM297.982 15H300.982V18H297.982V15ZM312.382 18.6H315.382V21.6H312.382V18.6ZM312.382 22.2H315.382V25.2H312.382V22.2ZM312.382 25.8H315.382V28.8H312.382V25.8ZM312.382 29.4H315.382V32.4H312.382V29.4ZM308.782 33H311.782V36H308.782V33ZM305.182 33H308.182V36H305.182V33ZM301.582 33H304.582V36H301.582V33ZM297.982 18.6H300.982V21.6H297.982V18.6ZM297.982 22.2H300.982V25.2H297.982V22.2ZM297.982 25.8H300.982V28.8H297.982V25.8ZM297.982 29.4H300.982V32.4H297.982V29.4ZM297.982 33H300.982V36H297.982V33ZM326.774 11.4H329.774V14.4H326.774V11.4ZM323.174 11.4H326.174V14.4H323.174V11.4ZM323.174 15H326.174V18H323.174V15ZM319.574 11.4H322.574V14.4H319.574V11.4ZM326.774 33H329.774V36H326.774V33ZM323.174 18.6H326.174V21.6H323.174V18.6ZM323.174 22.2H326.174V25.2H323.174V22.2ZM323.174 25.8H326.174V28.8H323.174V25.8ZM323.174 29.4H326.174V32.4H323.174V29.4ZM323.174 33H326.174V36H323.174V33ZM319.574 33H322.574V36H319.574V33ZM348.388 15H351.388V18H348.388V15ZM344.788 11.4H347.788V14.4H344.788V11.4ZM341.188 11.4H344.188V14.4H341.188V11.4ZM337.588 11.4H340.588V14.4H337.588V11.4ZM333.988 11.4H336.988V14.4H333.988V11.4ZM333.988 15H336.988V18H333.988V15ZM348.388 18.6H351.388V21.6H348.388V18.6ZM348.388 22.2H351.388V25.2H348.388V22.2ZM348.388 25.8H351.388V28.8H348.388V25.8ZM348.388 29.4H351.388V32.4H348.388V29.4ZM344.788 33H347.788V36H344.788V33ZM341.188 33H344.188V36H341.188V33ZM337.588 33H340.588V36H337.588V33ZM333.988 18.6H336.988V21.6H333.988V18.6ZM333.988 22.2H336.988V25.2H333.988V22.2ZM333.988 25.8H336.988V28.8H333.988V25.8ZM333.988 29.4H336.988V32.4H333.988V29.4ZM333.988 33H336.988V36H333.988V33ZM369.98 15H372.98V18H369.98V15ZM366.38 11.4H369.38V14.4H366.38V11.4ZM362.78 11.4H365.78V14.4H362.78V11.4ZM359.18 11.4H362.18V14.4H359.18V11.4ZM355.58 15H358.58V18H355.58V15ZM369.98 18.6H372.98V21.6H369.98V18.6ZM369.98 22.2H372.98V25.2H369.98V22.2ZM369.98 25.8H372.98V28.8H369.98V25.8ZM369.98 29.4H372.98V32.4H369.98V29.4ZM369.98 33H372.98V36H369.98V33ZM366.38 22.2H369.38V25.2H366.38V22.2ZM362.78 22.2H365.78V25.2H362.78V22.2ZM359.18 22.2H362.18V25.2H359.18V22.2ZM355.58 18.6H358.58V21.6H355.58V18.6ZM355.58 22.2H358.58V25.2H355.58V22.2ZM355.58 25.8H358.58V28.8H355.58V25.8ZM355.58 29.4H358.58V32.4H355.58V29.4ZM355.58 33H358.58V36H355.58V33Z" fill="white"/>
<rect x="1.5" y="1.5" width="449" height="277" stroke="#5B65C2" stroke-width="3"/>
<rect x="245" y="105" width="4" height="4" fill="#5B65C2"/>
<rect x="244" y="106" width="4" height="4" fill="#5B65C2"/>
<rect x="243" y="107" width="4" height="4" fill="#5B65C2"/>
<rect x="242" y="108" width="4" height="4" fill="#5B65C2"/>
<rect x="241" y="109" width="4" height="4" fill="#5B65C2"/>
<rect x="240" y="110" width="4" height="4" fill="#5B65C2"/>
<rect x="239" y="111" width="4" height="4" fill="#5B65C2"/>
<rect x="238" y="112" width="4" height="4" fill="#5B65C2"/>
<rect x="237" y="113" width="4" height="4" fill="#5B65C2"/>
<rect x="236" y="114" width="4" height="4" fill="#5B65C2"/>
<rect x="236" y="114" width="4" height="4" fill="#5B65C2"/>
<rect x="235" y="115" width="4" height="4" fill="#5B65C2"/>
<rect x="234" y="116" width="4" height="4" fill="#5B65C2"/>
<rect x="233" y="117" width="4" height="4" fill="#5B65C2"/>
<rect x="232" y="118" width="4" height="4" fill="#5B65C2"/>
<rect x="231" y="119" width="4" height="4" fill="#5B65C2"/>
<rect x="230" y="120" width="4" height="4" fill="#5B65C2"/>
<rect x="229" y="121" width="4" height="4" fill="#5B65C2"/>
<rect x="228" y="122" width="4" height="4" fill="#5B65C2"/>
<rect x="227" y="123" width="4" height="4" fill="#5B65C2"/>
<rect x="227" y="123" width="4" height="4" fill="#5B65C2"/>
<rect x="226" y="124" width="4" height="4" fill="#5B65C2"/>
<rect x="225" y="125" width="4" height="4" fill="#5B65C2"/>
<rect x="224" y="126" width="4" height="4" fill="#5B65C2"/>
<rect x="223" y="127" width="4" height="4" fill="#5B65C2"/>
<rect x="222" y="128" width="4" height="4" fill="#5B65C2"/>
<rect x="221" y="129" width="4" height="4" fill="#5B65C2"/>
<rect x="220" y="130" width="4" height="4" fill="#5B65C2"/>
<rect x="219" y="131" width="4" height="4" fill="#5B65C2"/>
<rect x="219" y="131" width="4" height="4" fill="#5B65C2"/>
<rect x="218" y="132" width="4" height="4" fill="#5B65C2"/>
<rect x="217" y="133" width="4" height="4" fill="#5B65C2"/>
<rect x="216" y="134" width="4" height="4" fill="#5B65C2"/>
<rect x="215" y="135" width="4" height="4" fill="#5B65C2"/>
<rect x="214" y="136" width="4" height="4" fill="#5B65C2"/>
<rect x="213" y="137" width="4" height="4" fill="#5B65C2"/>
<rect x="212" y="138" width="4" height="4" fill="#5B65C2"/>
<rect x="211" y="139" width="4" height="4" fill="#5B65C2"/>
<rect x="210" y="140" width="4" height="4" fill="#5B65C2"/>
<rect x="202" y="136" width="4" height="4" transform="rotate(-90 202 136)" fill="#5B65C2"/>
<rect x="203" y="137" width="4" height="4" transform="rotate(-90 203 137)" fill="#5B65C2"/>
<rect x="204" y="138" width="4" height="4" transform="rotate(-90 204 138)" fill="#5B65C2"/>
<rect x="205" y="139" width="4" height="4" transform="rotate(-90 205 139)" fill="#5B65C2"/>
<rect x="206" y="140" width="4" height="4" transform="rotate(-90 206 140)" fill="#5B65C2"/>
<rect x="207" y="141" width="4" height="4" transform="rotate(-90 207 141)" fill="#5B65C2"/>
<rect x="208" y="142" width="4" height="4" transform="rotate(-90 208 142)" fill="#5B65C2"/>
<rect x="209" y="143" width="4" height="4" transform="rotate(-90 209 143)" fill="#5B65C2"/>
<rect x="205" y="78" width="42" height="4.2" fill="#5B65C2"/>
<rect x="247" y="82.2" width="4.2" height="4.2" fill="#5B65C2"/>
<rect x="251.2" y="86.4" width="4.2" height="4.2" fill="#5B65C2"/>
<rect x="255.4" y="90.6" width="4.2" height="4.2" fill="#5B65C2"/>
<rect x="259.6" y="94.8" width="4.2" height="4.2" fill="#5B65C2"/>
<rect x="259.6" y="145.2" width="4.2" height="4.2" fill="#5B65C2"/>
<rect x="255.4" y="149.4" width="4.2" height="4.2" fill="#5B65C2"/>
<rect x="251.2" y="153.6" width="4.2" height="4.2" fill="#5B65C2"/>
<rect x="247" y="157.8" width="4.2" height="4.2" fill="#5B65C2"/>
<rect x="200.8" y="157.8" width="4.2" height="4.2" fill="#5B65C2"/>
<rect x="196.6" y="153.6" width="4.2" height="4.2" fill="#5B65C2"/>
<rect x="192.4" y="149.4" width="4.2" height="4.2" fill="#5B65C2"/>
<rect x="188.2" y="145.2" width="4.2" height="4.2" fill="#5B65C2"/>
<rect x="184" y="99" width="4.2" height="46.2" fill="#5B65C2"/>
<rect x="200.8" y="82.2" width="4.2" height="4.2" fill="#5B65C2"/>
<rect x="196.6" y="86.4" width="4.2" height="4.2" fill="#5B65C2"/>
<rect x="192.4" y="90.6" width="4.2" height="4.2" fill="#5B65C2"/>
<rect x="188.2" y="94.8" width="4.2" height="4.2" fill="#5B65C2"/>
<rect x="205" y="162" width="42" height="4.2" fill="#5B65C2"/>
<rect x="263.8" y="99" width="4.2" height="46.2" fill="#5B65C2"/>
<path d="M77.8434 197.4H80.8434V200.4H77.8434V197.4ZM77.8434 201H80.8434V204H77.8434V201ZM63.4434 197.4H66.4434V200.4H63.4434V197.4ZM63.4434 201H66.4434V204H63.4434V201ZM77.8434 204.6H80.8434V207.6H77.8434V204.6ZM77.8434 208.2H80.8434V211.2H77.8434V208.2ZM77.8434 211.8H80.8434V214.8H77.8434V211.8ZM74.2434 215.4H77.2434V218.4H74.2434V215.4ZM70.6434 219H73.6434V222H70.6434V219ZM67.0434 215.4H70.0434V218.4H67.0434V215.4ZM63.4434 204.6H66.4434V207.6H63.4434V204.6ZM63.4434 208.2H66.4434V211.2H63.4434V208.2ZM63.4434 211.8H66.4434V214.8H63.4434V211.8ZM99.4352 197.4H102.435V200.4H99.4352V197.4ZM95.8352 197.4H98.8352V200.4H95.8352V197.4ZM92.2352 197.4H95.2352V200.4H92.2352V197.4ZM88.6352 197.4H91.6352V200.4H88.6352V197.4ZM85.0352 197.4H88.0352V200.4H85.0352V197.4ZM85.0352 201H88.0352V204H85.0352V201ZM99.4352 219H102.435V222H99.4352V219ZM95.8352 208.2H98.8352V211.2H95.8352V208.2ZM95.8352 219H98.8352V222H95.8352V219ZM92.2352 208.2H95.2352V211.2H92.2352V208.2ZM92.2352 219H95.2352V222H92.2352V219ZM88.6352 208.2H91.6352V211.2H88.6352V208.2ZM88.6352 219H91.6352V222H88.6352V219ZM85.0352 204.6H88.0352V207.6H85.0352V204.6ZM85.0352 208.2H88.0352V211.2H85.0352V208.2ZM85.0352 211.8H88.0352V214.8H85.0352V211.8ZM85.0352 215.4H88.0352V218.4H85.0352V215.4ZM85.0352 219H88.0352V222H85.0352V219ZM121.027 197.4H124.027V200.4H121.027V197.4ZM121.027 201H124.027V204H121.027V201ZM106.627 197.4H109.627V200.4H106.627V197.4ZM106.627 201H109.627V204H106.627V201ZM121.027 204.6H124.027V207.6H121.027V204.6ZM121.027 208.2H124.027V211.2H121.027V208.2ZM121.027 211.8H124.027V214.8H121.027V211.8ZM121.027 215.4H124.027V218.4H121.027V215.4ZM121.027 219H124.027V222H121.027V219ZM117.427 211.8H120.427V214.8H117.427V211.8ZM113.827 208.2H116.827V211.2H113.827V208.2ZM110.227 204.6H113.227V207.6H110.227V204.6ZM106.627 204.6H109.627V207.6H106.627V204.6ZM106.627 208.2H109.627V211.2H106.627V208.2ZM106.627 211.8H109.627V214.8H106.627V211.8ZM106.627 215.4H109.627V218.4H106.627V215.4ZM106.627 219H109.627V222H106.627V219ZM142.619 197.4H145.619V200.4H142.619V197.4ZM139.019 197.4H142.019V200.4H139.019V197.4ZM135.419 197.4H138.419V200.4H135.419V197.4ZM135.419 201H138.419V204H135.419V201ZM131.819 197.4H134.819V200.4H131.819V197.4ZM128.219 197.4H131.219V200.4H128.219V197.4ZM135.419 204.6H138.419V207.6H135.419V204.6ZM135.419 208.2H138.419V211.2H135.419V208.2ZM135.419 211.8H138.419V214.8H135.419V211.8ZM135.419 215.4H138.419V218.4H135.419V215.4ZM135.419 219H138.419V222H135.419V219ZM164.211 201H167.211V204H164.211V201ZM160.611 197.4H163.611V200.4H160.611V197.4ZM157.011 197.4H160.011V200.4H157.011V197.4ZM153.411 197.4H156.411V200.4H153.411V197.4ZM149.811 201H152.811V204H149.811V201ZM164.211 204.6H167.211V207.6H164.211V204.6ZM164.211 208.2H167.211V211.2H164.211V208.2ZM164.211 211.8H167.211V214.8H164.211V211.8ZM164.211 215.4H167.211V218.4H164.211V215.4ZM164.211 219H167.211V222H164.211V219ZM160.611 208.2H163.611V211.2H160.611V208.2ZM157.011 208.2H160.011V211.2H157.011V208.2ZM153.411 208.2H156.411V211.2H153.411V208.2ZM149.811 204.6H152.811V207.6H149.811V204.6ZM149.811 208.2H152.811V211.2H149.811V208.2ZM149.811 211.8H152.811V214.8H149.811V211.8ZM149.811 215.4H152.811V218.4H149.811V215.4ZM149.811 219H152.811V222H149.811V219ZM198.394 197.4H201.394V200.4H198.394V197.4ZM194.794 197.4H197.794V200.4H194.794V197.4ZM191.194 197.4H194.194V200.4H191.194V197.4ZM187.594 197.4H190.594V200.4H187.594V197.4ZM183.994 197.4H186.994V200.4H183.994V197.4ZM183.994 201H186.994V204H183.994V201ZM194.794 208.2H197.794V211.2H194.794V208.2ZM191.194 208.2H194.194V211.2H191.194V208.2ZM187.594 208.2H190.594V211.2H187.594V208.2ZM183.994 204.6H186.994V207.6H183.994V204.6ZM183.994 208.2H186.994V211.2H183.994V208.2ZM183.994 211.8H186.994V214.8H183.994V211.8ZM183.994 215.4H186.994V218.4H183.994V215.4ZM183.994 219H186.994V222H183.994V219ZM212.786 197.4H215.786V200.4H212.786V197.4ZM209.186 197.4H212.186V200.4H209.186V197.4ZM209.186 201H212.186V204H209.186V201ZM205.586 197.4H208.586V200.4H205.586V197.4ZM212.786 219H215.786V222H212.786V219ZM209.186 204.6H212.186V207.6H209.186V204.6ZM209.186 208.2H212.186V211.2H209.186V208.2ZM209.186 211.8H212.186V214.8H209.186V211.8ZM209.186 215.4H212.186V218.4H209.186V215.4ZM209.186 219H212.186V222H209.186V219ZM205.586 219H208.586V222H205.586V219ZM234.4 197.4H237.4V200.4H234.4V197.4ZM234.4 201H237.4V204H234.4V201ZM220 197.4H223V200.4H220V197.4ZM220 201H223V204H220V201ZM234.4 204.6H237.4V207.6H234.4V204.6ZM234.4 208.2H237.4V211.2H234.4V208.2ZM234.4 211.8H237.4V214.8H234.4V211.8ZM234.4 215.4H237.4V218.4H234.4V215.4ZM234.4 219H237.4V222H234.4V219ZM230.8 211.8H233.8V214.8H230.8V211.8ZM227.2 208.2H230.2V211.2H227.2V208.2ZM223.6 204.6H226.6V207.6H223.6V204.6ZM220 204.6H223V207.6H220V204.6ZM220 208.2H223V211.2H220V208.2ZM220 211.8H223V214.8H220V211.8ZM220 215.4H223V218.4H220V215.4ZM220 219H223V222H220V219ZM255.992 201H258.992V204H255.992V201ZM252.392 197.4H255.392V200.4H252.392V197.4ZM248.792 197.4H251.792V200.4H248.792V197.4ZM245.192 197.4H248.192V200.4H245.192V197.4ZM241.592 201H244.592V204H241.592V201ZM255.992 204.6H258.992V207.6H255.992V204.6ZM255.992 208.2H258.992V211.2H255.992V208.2ZM255.992 211.8H258.992V214.8H255.992V211.8ZM255.992 215.4H258.992V218.4H255.992V215.4ZM255.992 219H258.992V222H255.992V219ZM252.392 208.2H255.392V211.2H252.392V208.2ZM248.792 208.2H251.792V211.2H248.792V208.2ZM245.192 208.2H248.192V211.2H245.192V208.2ZM241.592 204.6H244.592V207.6H241.592V204.6ZM241.592 208.2H244.592V211.2H241.592V208.2ZM241.592 211.8H244.592V214.8H241.592V211.8ZM241.592 215.4H244.592V218.4H241.592V215.4ZM241.592 219H244.592V222H241.592V219ZM263.184 197.4H266.184V200.4H263.184V197.4ZM263.184 201H266.184V204H263.184V201ZM277.584 219H280.584V222H277.584V219ZM273.984 219H276.984V222H273.984V219ZM270.384 219H273.384V222H270.384V219ZM266.784 219H269.784V222H266.784V219ZM263.184 204.6H266.184V207.6H263.184V204.6ZM263.184 208.2H266.184V211.2H263.184V208.2ZM263.184 211.8H266.184V214.8H263.184V211.8ZM263.184 215.4H266.184V218.4H263.184V215.4ZM263.184 219H266.184V222H263.184V219ZM291.975 197.4H294.975V200.4H291.975V197.4ZM288.375 197.4H291.375V200.4H288.375V197.4ZM288.375 201H291.375V204H288.375V201ZM284.775 197.4H287.775V200.4H284.775V197.4ZM291.975 219H294.975V222H291.975V219ZM288.375 204.6H291.375V207.6H288.375V204.6ZM288.375 208.2H291.375V211.2H288.375V208.2ZM288.375 211.8H291.375V214.8H288.375V211.8ZM288.375 215.4H291.375V218.4H288.375V215.4ZM288.375 219H291.375V222H288.375V219ZM284.775 219H287.775V222H284.775V219ZM313.589 197.4H316.589V200.4H313.589V197.4ZM313.589 201H316.589V204H313.589V201ZM309.989 197.4H312.989V200.4H309.989V197.4ZM306.389 197.4H309.389V200.4H306.389V197.4ZM302.789 197.4H305.789V200.4H302.789V197.4ZM299.189 197.4H302.189V200.4H299.189V197.4ZM313.589 219H316.589V222H313.589V219ZM309.989 204.6H312.989V207.6H309.989V204.6ZM309.989 219H312.989V222H309.989V219ZM306.389 208.2H309.389V211.2H306.389V208.2ZM306.389 219H309.389V222H306.389V219ZM302.789 211.8H305.789V214.8H302.789V211.8ZM302.789 219H305.789V222H302.789V219ZM299.189 215.4H302.189V218.4H299.189V215.4ZM299.189 219H302.189V222H299.189V219ZM335.181 201H338.181V204H335.181V201ZM331.581 197.4H334.581V200.4H331.581V197.4ZM327.981 197.4H330.981V200.4H327.981V197.4ZM324.381 197.4H327.381V200.4H324.381V197.4ZM320.781 201H323.781V204H320.781V201ZM335.181 204.6H338.181V207.6H335.181V204.6ZM335.181 208.2H338.181V211.2H335.181V208.2ZM335.181 211.8H338.181V214.8H335.181V211.8ZM335.181 215.4H338.181V218.4H335.181V215.4ZM335.181 219H338.181V222H335.181V219ZM331.581 208.2H334.581V211.2H331.581V208.2ZM327.981 208.2H330.981V211.2H327.981V208.2ZM324.381 208.2H327.381V211.2H324.381V208.2ZM320.781 204.6H323.781V207.6H320.781V204.6ZM320.781 208.2H323.781V211.2H320.781V208.2ZM320.781 211.8H323.781V214.8H320.781V211.8ZM320.781 215.4H323.781V218.4H320.781V215.4ZM320.781 219H323.781V222H320.781V219ZM356.773 201H359.773V204H356.773V201ZM353.173 197.4H356.173V200.4H353.173V197.4ZM349.573 197.4H352.573V200.4H349.573V197.4ZM345.973 197.4H348.973V200.4H345.973V197.4ZM342.373 197.4H345.373V200.4H342.373V197.4ZM342.373 201H345.373V204H342.373V201ZM356.773 204.6H359.773V207.6H356.773V204.6ZM356.773 208.2H359.773V211.2H356.773V208.2ZM356.773 211.8H359.773V214.8H356.773V211.8ZM356.773 215.4H359.773V218.4H356.773V215.4ZM353.173 219H356.173V222H353.173V219ZM349.573 219H352.573V222H349.573V219ZM345.973 219H348.973V222H345.973V219ZM342.373 204.6H345.373V207.6H342.373V204.6ZM342.373 208.2H345.373V211.2H342.373V208.2ZM342.373 211.8H345.373V214.8H342.373V211.8ZM342.373 215.4H345.373V218.4H342.373V215.4ZM342.373 219H345.373V222H342.373V219ZM378.365 201H381.365V204H378.365V201ZM374.765 197.4H377.765V200.4H374.765V197.4ZM371.165 197.4H374.165V200.4H371.165V197.4ZM367.565 197.4H370.565V200.4H367.565V197.4ZM363.965 201H366.965V204H363.965V201ZM378.365 204.6H381.365V207.6H378.365V204.6ZM378.365 208.2H381.365V211.2H378.365V208.2ZM378.365 211.8H381.365V214.8H378.365V211.8ZM378.365 215.4H381.365V218.4H378.365V215.4ZM378.365 219H381.365V222H378.365V219ZM374.765 208.2H377.765V211.2H374.765V208.2ZM371.165 208.2H374.165V211.2H371.165V208.2ZM367.565 208.2H370.565V211.2H367.565V208.2ZM363.965 204.6H366.965V207.6H363.965V204.6ZM363.965 208.2H366.965V211.2H363.965V208.2ZM363.965 211.8H366.965V214.8H363.965V211.8ZM363.965 215.4H366.965V218.4H363.965V215.4ZM363.965 219H366.965V222H363.965V219ZM149.826 234H152.826V237H149.826V234ZM146.226 230.4H149.226V233.4H146.226V230.4ZM142.626 230.4H145.626V233.4H142.626V230.4ZM139.026 230.4H142.026V233.4H139.026V230.4ZM135.426 234H138.426V237H135.426V234ZM149.826 248.4H152.826V251.4H149.826V248.4ZM146.226 252H149.226V255H146.226V252ZM142.626 252H145.626V255H142.626V252ZM139.026 252H142.026V255H139.026V252ZM135.426 237.6H138.426V240.6H135.426V237.6ZM135.426 241.2H138.426V244.2H135.426V241.2ZM135.426 244.8H138.426V247.8H135.426V244.8ZM135.426 248.4H138.426V251.4H135.426V248.4ZM171.418 234H174.418V237H171.418V234ZM167.818 230.4H170.818V233.4H167.818V230.4ZM164.218 230.4H167.218V233.4H164.218V230.4ZM160.618 230.4H163.618V233.4H160.618V230.4ZM157.018 234H160.018V237H157.018V234ZM171.418 237.6H174.418V240.6H171.418V237.6ZM171.418 241.2H174.418V244.2H171.418V241.2ZM171.418 244.8H174.418V247.8H171.418V244.8ZM171.418 248.4H174.418V251.4H171.418V248.4ZM167.818 252H170.818V255H167.818V252ZM164.218 252H167.218V255H164.218V252ZM160.618 252H163.618V255H160.618V252ZM157.018 237.6H160.018V240.6H157.018V237.6ZM157.018 241.2H160.018V244.2H157.018V241.2ZM157.018 244.8H160.018V247.8H157.018V244.8ZM157.018 248.4H160.018V251.4H157.018V248.4ZM193.009 230.4H196.009V233.4H193.009V230.4ZM193.009 234H196.009V237H193.009V234ZM178.609 230.4H181.609V233.4H178.609V230.4ZM178.609 234H181.609V237H178.609V234ZM193.009 237.6H196.009V240.6H193.009V237.6ZM193.009 241.2H196.009V244.2H193.009V241.2ZM193.009 244.8H196.009V247.8H193.009V244.8ZM193.009 248.4H196.009V251.4H193.009V248.4ZM193.009 252H196.009V255H193.009V252ZM189.409 244.8H192.409V247.8H189.409V244.8ZM185.809 241.2H188.809V244.2H185.809V241.2ZM182.209 237.6H185.209V240.6H182.209V237.6ZM178.609 237.6H181.609V240.6H178.609V237.6ZM178.609 241.2H181.609V244.2H178.609V241.2ZM178.609 244.8H181.609V247.8H178.609V244.8ZM178.609 248.4H181.609V251.4H178.609V248.4ZM178.609 252H181.609V255H178.609V252ZM227.193 230.4H230.193V233.4H227.193V230.4ZM223.593 230.4H226.593V233.4H223.593V230.4ZM219.993 230.4H222.993V233.4H219.993V230.4ZM216.393 230.4H219.393V233.4H216.393V230.4ZM212.793 230.4H215.793V233.4H212.793V230.4ZM212.793 234H215.793V237H212.793V234ZM227.193 252H230.193V255H227.193V252ZM223.593 241.2H226.593V244.2H223.593V241.2ZM223.593 252H226.593V255H223.593V252ZM219.993 241.2H222.993V244.2H219.993V241.2ZM219.993 252H222.993V255H219.993V252ZM216.393 241.2H219.393V244.2H216.393V241.2ZM216.393 252H219.393V255H216.393V252ZM212.793 237.6H215.793V240.6H212.793V237.6ZM212.793 241.2H215.793V244.2H212.793V241.2ZM212.793 244.8H215.793V247.8H212.793V244.8ZM212.793 248.4H215.793V251.4H212.793V248.4ZM212.793 252H215.793V255H212.793V252ZM248.785 230.4H251.785V233.4H248.785V230.4ZM248.785 234H251.785V237H248.785V234ZM234.385 230.4H237.385V233.4H234.385V230.4ZM234.385 234H237.385V237H234.385V234ZM248.785 248.4H251.785V251.4H248.785V248.4ZM248.785 252H251.785V255H248.785V252ZM245.185 237.6H248.185V240.6H245.185V237.6ZM245.185 244.8H248.185V247.8H245.185V244.8ZM241.585 241.2H244.585V244.2H241.585V241.2ZM237.985 237.6H240.985V240.6H237.985V237.6ZM237.985 244.8H240.985V247.8H237.985V244.8ZM234.385 248.4H237.385V251.4H234.385V248.4ZM234.385 252H237.385V255H234.385V252ZM263.177 230.4H266.177V233.4H263.177V230.4ZM259.577 230.4H262.577V233.4H259.577V230.4ZM259.577 234H262.577V237H259.577V234ZM255.977 230.4H258.977V233.4H255.977V230.4ZM263.177 252H266.177V255H263.177V252ZM259.577 237.6H262.577V240.6H259.577V237.6ZM259.577 241.2H262.577V244.2H259.577V241.2ZM259.577 244.8H262.577V247.8H259.577V244.8ZM259.577 248.4H262.577V251.4H259.577V248.4ZM259.577 252H262.577V255H259.577V252ZM255.977 252H258.977V255H255.977V252ZM284.791 230.4H287.791V233.4H284.791V230.4ZM281.191 230.4H284.191V233.4H281.191V230.4ZM277.591 230.4H280.591V233.4H277.591V230.4ZM277.591 234H280.591V237H277.591V234ZM273.991 230.4H276.991V233.4H273.991V230.4ZM270.391 230.4H273.391V233.4H270.391V230.4ZM277.591 237.6H280.591V240.6H277.591V237.6ZM277.591 241.2H280.591V244.2H277.591V241.2ZM277.591 244.8H280.591V247.8H277.591V244.8ZM277.591 248.4H280.591V251.4H277.591V248.4ZM277.591 252H280.591V255H277.591V252ZM306.382 234H309.382V237H306.382V234ZM302.782 230.4H305.782V233.4H302.782V230.4ZM299.182 230.4H302.182V233.4H299.182V230.4ZM295.582 230.4H298.582V233.4H295.582V230.4ZM291.982 234H294.982V237H291.982V234ZM306.382 237.6H309.382V240.6H306.382V237.6ZM306.382 241.2H309.382V244.2H306.382V241.2ZM306.382 244.8H309.382V247.8H306.382V244.8ZM306.382 248.4H309.382V251.4H306.382V248.4ZM302.782 252H305.782V255H302.782V252ZM299.182 252H302.182V255H299.182V252ZM295.582 252H298.582V255H295.582V252ZM291.982 237.6H294.982V240.6H291.982V237.6ZM291.982 241.2H294.982V244.2H291.982V241.2ZM291.982 244.8H294.982V247.8H291.982V244.8ZM291.982 248.4H294.982V251.4H291.982V248.4Z" fill="#5B65C2"/>
</svg>
